%TF.GenerationSoftware,KiCad,Pcbnew,8.0.8*%
%TF.CreationDate,2025-02-16T23:43:51-05:00*%
%TF.ProjectId,Precharge Module V2.1,50726563-6861-4726-9765-204d6f64756c,rev?*%
%TF.SameCoordinates,Original*%
%TF.FileFunction,Legend,Top*%
%TF.FilePolarity,Positive*%
%FSLAX46Y46*%
G04 Gerber Fmt 4.6, Leading zero omitted, Abs format (unit mm)*
G04 Created by KiCad (PCBNEW 8.0.8) date 2025-02-16 23:43:51*
%MOMM*%
%LPD*%
G01*
G04 APERTURE LIST*
%ADD10C,0.100000*%
%ADD11C,0.150000*%
%ADD12C,0.125000*%
%ADD13C,0.152400*%
%ADD14C,0.120000*%
%ADD15C,0.076200*%
%ADD16C,0.254000*%
%ADD17C,0.127000*%
%ADD18C,0.200000*%
G04 APERTURE END LIST*
D10*
X51903596Y-55000000D02*
X72422405Y-55000000D01*
X72422405Y-62600000D01*
X51903596Y-62600000D01*
X51903596Y-55000000D01*
X50163000Y-63500000D02*
X74163000Y-63500000D01*
X74163000Y-66200000D01*
X50163000Y-66200000D01*
X50163000Y-63500000D01*
X51101503Y-27872419D02*
X50530075Y-27872419D01*
X50815789Y-27872419D02*
X50815789Y-26872419D01*
X50815789Y-26872419D02*
X50720551Y-27015276D01*
X50720551Y-27015276D02*
X50625313Y-27110514D01*
X50625313Y-27110514D02*
X50530075Y-27158133D01*
X53524503Y-58652531D02*
X53181646Y-58652531D01*
X53353075Y-58652531D02*
X53353075Y-57652531D01*
X53353075Y-57652531D02*
X53295932Y-57795388D01*
X53295932Y-57795388D02*
X53238789Y-57890626D01*
X53238789Y-57890626D02*
X53181646Y-57938245D01*
X53781647Y-58557292D02*
X53810218Y-58604912D01*
X53810218Y-58604912D02*
X53781647Y-58652531D01*
X53781647Y-58652531D02*
X53753075Y-58604912D01*
X53753075Y-58604912D02*
X53781647Y-58557292D01*
X53781647Y-58557292D02*
X53781647Y-58652531D01*
X53781647Y-58033483D02*
X53810218Y-58081102D01*
X53810218Y-58081102D02*
X53781647Y-58128721D01*
X53781647Y-58128721D02*
X53753075Y-58081102D01*
X53753075Y-58081102D02*
X53781647Y-58033483D01*
X53781647Y-58033483D02*
X53781647Y-58128721D01*
X54810218Y-57652531D02*
X54524504Y-57652531D01*
X54524504Y-57652531D02*
X54495932Y-58128721D01*
X54495932Y-58128721D02*
X54524504Y-58081102D01*
X54524504Y-58081102D02*
X54581647Y-58033483D01*
X54581647Y-58033483D02*
X54724504Y-58033483D01*
X54724504Y-58033483D02*
X54781647Y-58081102D01*
X54781647Y-58081102D02*
X54810218Y-58128721D01*
X54810218Y-58128721D02*
X54838789Y-58223959D01*
X54838789Y-58223959D02*
X54838789Y-58462054D01*
X54838789Y-58462054D02*
X54810218Y-58557292D01*
X54810218Y-58557292D02*
X54781647Y-58604912D01*
X54781647Y-58604912D02*
X54724504Y-58652531D01*
X54724504Y-58652531D02*
X54581647Y-58652531D01*
X54581647Y-58652531D02*
X54524504Y-58604912D01*
X54524504Y-58604912D02*
X54495932Y-58557292D01*
X55010218Y-57652531D02*
X55210218Y-58652531D01*
X55210218Y-58652531D02*
X55410218Y-57652531D01*
X56038790Y-58604912D02*
X56124505Y-58652531D01*
X56124505Y-58652531D02*
X56267362Y-58652531D01*
X56267362Y-58652531D02*
X56324505Y-58604912D01*
X56324505Y-58604912D02*
X56353076Y-58557292D01*
X56353076Y-58557292D02*
X56381647Y-58462054D01*
X56381647Y-58462054D02*
X56381647Y-58366816D01*
X56381647Y-58366816D02*
X56353076Y-58271578D01*
X56353076Y-58271578D02*
X56324505Y-58223959D01*
X56324505Y-58223959D02*
X56267362Y-58176340D01*
X56267362Y-58176340D02*
X56153076Y-58128721D01*
X56153076Y-58128721D02*
X56095933Y-58081102D01*
X56095933Y-58081102D02*
X56067362Y-58033483D01*
X56067362Y-58033483D02*
X56038790Y-57938245D01*
X56038790Y-57938245D02*
X56038790Y-57843007D01*
X56038790Y-57843007D02*
X56067362Y-57747769D01*
X56067362Y-57747769D02*
X56095933Y-57700150D01*
X56095933Y-57700150D02*
X56153076Y-57652531D01*
X56153076Y-57652531D02*
X56295933Y-57652531D01*
X56295933Y-57652531D02*
X56381647Y-57700150D01*
X56895934Y-57985864D02*
X56895934Y-58652531D01*
X56638791Y-57985864D02*
X56638791Y-58509673D01*
X56638791Y-58509673D02*
X56667362Y-58604912D01*
X56667362Y-58604912D02*
X56724505Y-58652531D01*
X56724505Y-58652531D02*
X56810219Y-58652531D01*
X56810219Y-58652531D02*
X56867362Y-58604912D01*
X56867362Y-58604912D02*
X56895934Y-58557292D01*
X57181648Y-57985864D02*
X57181648Y-58985864D01*
X57181648Y-58033483D02*
X57238791Y-57985864D01*
X57238791Y-57985864D02*
X57353076Y-57985864D01*
X57353076Y-57985864D02*
X57410219Y-58033483D01*
X57410219Y-58033483D02*
X57438791Y-58081102D01*
X57438791Y-58081102D02*
X57467362Y-58176340D01*
X57467362Y-58176340D02*
X57467362Y-58462054D01*
X57467362Y-58462054D02*
X57438791Y-58557292D01*
X57438791Y-58557292D02*
X57410219Y-58604912D01*
X57410219Y-58604912D02*
X57353076Y-58652531D01*
X57353076Y-58652531D02*
X57238791Y-58652531D01*
X57238791Y-58652531D02*
X57181648Y-58604912D01*
X57724505Y-57985864D02*
X57724505Y-58985864D01*
X57724505Y-58033483D02*
X57781648Y-57985864D01*
X57781648Y-57985864D02*
X57895933Y-57985864D01*
X57895933Y-57985864D02*
X57953076Y-58033483D01*
X57953076Y-58033483D02*
X57981648Y-58081102D01*
X57981648Y-58081102D02*
X58010219Y-58176340D01*
X58010219Y-58176340D02*
X58010219Y-58462054D01*
X58010219Y-58462054D02*
X57981648Y-58557292D01*
X57981648Y-58557292D02*
X57953076Y-58604912D01*
X57953076Y-58604912D02*
X57895933Y-58652531D01*
X57895933Y-58652531D02*
X57781648Y-58652531D01*
X57781648Y-58652531D02*
X57724505Y-58604912D01*
X58353076Y-58652531D02*
X58295933Y-58604912D01*
X58295933Y-58604912D02*
X58267362Y-58509673D01*
X58267362Y-58509673D02*
X58267362Y-57652531D01*
X58524505Y-57985864D02*
X58667362Y-58652531D01*
X58810219Y-57985864D02*
X58667362Y-58652531D01*
X58667362Y-58652531D02*
X58610219Y-58890626D01*
X58610219Y-58890626D02*
X58581648Y-58938245D01*
X58581648Y-58938245D02*
X58524505Y-58985864D01*
X62924503Y-57985864D02*
X62924503Y-58652531D01*
X62781645Y-57604912D02*
X62638788Y-58319197D01*
X62638788Y-58319197D02*
X63010217Y-58319197D01*
X63238789Y-58557292D02*
X63267360Y-58604912D01*
X63267360Y-58604912D02*
X63238789Y-58652531D01*
X63238789Y-58652531D02*
X63210217Y-58604912D01*
X63210217Y-58604912D02*
X63238789Y-58557292D01*
X63238789Y-58557292D02*
X63238789Y-58652531D01*
X63238789Y-58033483D02*
X63267360Y-58081102D01*
X63267360Y-58081102D02*
X63238789Y-58128721D01*
X63238789Y-58128721D02*
X63210217Y-58081102D01*
X63210217Y-58081102D02*
X63238789Y-58033483D01*
X63238789Y-58033483D02*
X63238789Y-58128721D01*
X64295931Y-57700150D02*
X64238789Y-57652531D01*
X64238789Y-57652531D02*
X64153074Y-57652531D01*
X64153074Y-57652531D02*
X64067360Y-57700150D01*
X64067360Y-57700150D02*
X64010217Y-57795388D01*
X64010217Y-57795388D02*
X63981646Y-57890626D01*
X63981646Y-57890626D02*
X63953074Y-58081102D01*
X63953074Y-58081102D02*
X63953074Y-58223959D01*
X63953074Y-58223959D02*
X63981646Y-58414435D01*
X63981646Y-58414435D02*
X64010217Y-58509673D01*
X64010217Y-58509673D02*
X64067360Y-58604912D01*
X64067360Y-58604912D02*
X64153074Y-58652531D01*
X64153074Y-58652531D02*
X64210217Y-58652531D01*
X64210217Y-58652531D02*
X64295931Y-58604912D01*
X64295931Y-58604912D02*
X64324503Y-58557292D01*
X64324503Y-58557292D02*
X64324503Y-58223959D01*
X64324503Y-58223959D02*
X64210217Y-58223959D01*
X64581646Y-58652531D02*
X64581646Y-57652531D01*
X64581646Y-57652531D02*
X64924503Y-58652531D01*
X64924503Y-58652531D02*
X64924503Y-57652531D01*
X65210217Y-58652531D02*
X65210217Y-57652531D01*
X65210217Y-57652531D02*
X65353074Y-57652531D01*
X65353074Y-57652531D02*
X65438788Y-57700150D01*
X65438788Y-57700150D02*
X65495931Y-57795388D01*
X65495931Y-57795388D02*
X65524502Y-57890626D01*
X65524502Y-57890626D02*
X65553074Y-58081102D01*
X65553074Y-58081102D02*
X65553074Y-58223959D01*
X65553074Y-58223959D02*
X65524502Y-58414435D01*
X65524502Y-58414435D02*
X65495931Y-58509673D01*
X65495931Y-58509673D02*
X65438788Y-58604912D01*
X65438788Y-58604912D02*
X65353074Y-58652531D01*
X65353074Y-58652531D02*
X65210217Y-58652531D01*
X53181646Y-59357713D02*
X53210218Y-59310094D01*
X53210218Y-59310094D02*
X53267361Y-59262475D01*
X53267361Y-59262475D02*
X53410218Y-59262475D01*
X53410218Y-59262475D02*
X53467361Y-59310094D01*
X53467361Y-59310094D02*
X53495932Y-59357713D01*
X53495932Y-59357713D02*
X53524503Y-59452951D01*
X53524503Y-59452951D02*
X53524503Y-59548189D01*
X53524503Y-59548189D02*
X53495932Y-59691046D01*
X53495932Y-59691046D02*
X53153075Y-60262475D01*
X53153075Y-60262475D02*
X53524503Y-60262475D01*
X53781647Y-60167236D02*
X53810218Y-60214856D01*
X53810218Y-60214856D02*
X53781647Y-60262475D01*
X53781647Y-60262475D02*
X53753075Y-60214856D01*
X53753075Y-60214856D02*
X53781647Y-60167236D01*
X53781647Y-60167236D02*
X53781647Y-60262475D01*
X53781647Y-59643427D02*
X53810218Y-59691046D01*
X53810218Y-59691046D02*
X53781647Y-59738665D01*
X53781647Y-59738665D02*
X53753075Y-59691046D01*
X53753075Y-59691046D02*
X53781647Y-59643427D01*
X53781647Y-59643427D02*
X53781647Y-59738665D01*
X54524504Y-60262475D02*
X54524504Y-59262475D01*
X54524504Y-59262475D02*
X54753075Y-59262475D01*
X54753075Y-59262475D02*
X54810218Y-59310094D01*
X54810218Y-59310094D02*
X54838789Y-59357713D01*
X54838789Y-59357713D02*
X54867361Y-59452951D01*
X54867361Y-59452951D02*
X54867361Y-59595808D01*
X54867361Y-59595808D02*
X54838789Y-59691046D01*
X54838789Y-59691046D02*
X54810218Y-59738665D01*
X54810218Y-59738665D02*
X54753075Y-59786284D01*
X54753075Y-59786284D02*
X54524504Y-59786284D01*
X55467361Y-60167236D02*
X55438789Y-60214856D01*
X55438789Y-60214856D02*
X55353075Y-60262475D01*
X55353075Y-60262475D02*
X55295932Y-60262475D01*
X55295932Y-60262475D02*
X55210218Y-60214856D01*
X55210218Y-60214856D02*
X55153075Y-60119617D01*
X55153075Y-60119617D02*
X55124504Y-60024379D01*
X55124504Y-60024379D02*
X55095932Y-59833903D01*
X55095932Y-59833903D02*
X55095932Y-59691046D01*
X55095932Y-59691046D02*
X55124504Y-59500570D01*
X55124504Y-59500570D02*
X55153075Y-59405332D01*
X55153075Y-59405332D02*
X55210218Y-59310094D01*
X55210218Y-59310094D02*
X55295932Y-59262475D01*
X55295932Y-59262475D02*
X55353075Y-59262475D01*
X55353075Y-59262475D02*
X55438789Y-59310094D01*
X55438789Y-59310094D02*
X55467361Y-59357713D01*
X56524504Y-60167236D02*
X56495932Y-60214856D01*
X56495932Y-60214856D02*
X56410218Y-60262475D01*
X56410218Y-60262475D02*
X56353075Y-60262475D01*
X56353075Y-60262475D02*
X56267361Y-60214856D01*
X56267361Y-60214856D02*
X56210218Y-60119617D01*
X56210218Y-60119617D02*
X56181647Y-60024379D01*
X56181647Y-60024379D02*
X56153075Y-59833903D01*
X56153075Y-59833903D02*
X56153075Y-59691046D01*
X56153075Y-59691046D02*
X56181647Y-59500570D01*
X56181647Y-59500570D02*
X56210218Y-59405332D01*
X56210218Y-59405332D02*
X56267361Y-59310094D01*
X56267361Y-59310094D02*
X56353075Y-59262475D01*
X56353075Y-59262475D02*
X56410218Y-59262475D01*
X56410218Y-59262475D02*
X56495932Y-59310094D01*
X56495932Y-59310094D02*
X56524504Y-59357713D01*
X56867361Y-60262475D02*
X56810218Y-60214856D01*
X56810218Y-60214856D02*
X56781647Y-60167236D01*
X56781647Y-60167236D02*
X56753075Y-60071998D01*
X56753075Y-60071998D02*
X56753075Y-59786284D01*
X56753075Y-59786284D02*
X56781647Y-59691046D01*
X56781647Y-59691046D02*
X56810218Y-59643427D01*
X56810218Y-59643427D02*
X56867361Y-59595808D01*
X56867361Y-59595808D02*
X56953075Y-59595808D01*
X56953075Y-59595808D02*
X57010218Y-59643427D01*
X57010218Y-59643427D02*
X57038790Y-59691046D01*
X57038790Y-59691046D02*
X57067361Y-59786284D01*
X57067361Y-59786284D02*
X57067361Y-60071998D01*
X57067361Y-60071998D02*
X57038790Y-60167236D01*
X57038790Y-60167236D02*
X57010218Y-60214856D01*
X57010218Y-60214856D02*
X56953075Y-60262475D01*
X56953075Y-60262475D02*
X56867361Y-60262475D01*
X57324504Y-60262475D02*
X57324504Y-59595808D01*
X57324504Y-59262475D02*
X57295932Y-59310094D01*
X57295932Y-59310094D02*
X57324504Y-59357713D01*
X57324504Y-59357713D02*
X57353075Y-59310094D01*
X57353075Y-59310094D02*
X57324504Y-59262475D01*
X57324504Y-59262475D02*
X57324504Y-59357713D01*
X57695932Y-60262475D02*
X57638789Y-60214856D01*
X57638789Y-60214856D02*
X57610218Y-60119617D01*
X57610218Y-60119617D02*
X57610218Y-59262475D01*
X57924504Y-59881522D02*
X58381647Y-59881522D01*
X59295932Y-60643427D02*
X59267361Y-60595808D01*
X59267361Y-60595808D02*
X59210218Y-60452951D01*
X59210218Y-60452951D02*
X59181647Y-60357713D01*
X59181647Y-60357713D02*
X59153075Y-60214856D01*
X59153075Y-60214856D02*
X59124504Y-59976760D01*
X59124504Y-59976760D02*
X59124504Y-59786284D01*
X59124504Y-59786284D02*
X59153075Y-59548189D01*
X59153075Y-59548189D02*
X59181647Y-59405332D01*
X59181647Y-59405332D02*
X59210218Y-59310094D01*
X59210218Y-59310094D02*
X59267361Y-59167236D01*
X59267361Y-59167236D02*
X59295932Y-59119617D01*
X59495932Y-59976760D02*
X59781647Y-59976760D01*
X59438789Y-60262475D02*
X59638789Y-59262475D01*
X59638789Y-59262475D02*
X59838789Y-60262475D01*
X60038790Y-60262475D02*
X60038790Y-59262475D01*
X60667361Y-60262475D02*
X60467361Y-59786284D01*
X60324504Y-60262475D02*
X60324504Y-59262475D01*
X60324504Y-59262475D02*
X60553075Y-59262475D01*
X60553075Y-59262475D02*
X60610218Y-59310094D01*
X60610218Y-59310094D02*
X60638789Y-59357713D01*
X60638789Y-59357713D02*
X60667361Y-59452951D01*
X60667361Y-59452951D02*
X60667361Y-59595808D01*
X60667361Y-59595808D02*
X60638789Y-59691046D01*
X60638789Y-59691046D02*
X60610218Y-59738665D01*
X60610218Y-59738665D02*
X60553075Y-59786284D01*
X60553075Y-59786284D02*
X60324504Y-59786284D01*
X61238789Y-60262475D02*
X60895932Y-60262475D01*
X61067361Y-60262475D02*
X61067361Y-59262475D01*
X61067361Y-59262475D02*
X61010218Y-59405332D01*
X61010218Y-59405332D02*
X60953075Y-59500570D01*
X60953075Y-59500570D02*
X60895932Y-59548189D01*
X61438790Y-60643427D02*
X61467361Y-60595808D01*
X61467361Y-60595808D02*
X61524504Y-60452951D01*
X61524504Y-60452951D02*
X61553076Y-60357713D01*
X61553076Y-60357713D02*
X61581647Y-60214856D01*
X61581647Y-60214856D02*
X61610218Y-59976760D01*
X61610218Y-59976760D02*
X61610218Y-59786284D01*
X61610218Y-59786284D02*
X61581647Y-59548189D01*
X61581647Y-59548189D02*
X61553076Y-59405332D01*
X61553076Y-59405332D02*
X61524504Y-59310094D01*
X61524504Y-59310094D02*
X61467361Y-59167236D01*
X61467361Y-59167236D02*
X61438790Y-59119617D01*
X63095933Y-59262475D02*
X62810219Y-59262475D01*
X62810219Y-59262475D02*
X62781647Y-59738665D01*
X62781647Y-59738665D02*
X62810219Y-59691046D01*
X62810219Y-59691046D02*
X62867362Y-59643427D01*
X62867362Y-59643427D02*
X63010219Y-59643427D01*
X63010219Y-59643427D02*
X63067362Y-59691046D01*
X63067362Y-59691046D02*
X63095933Y-59738665D01*
X63095933Y-59738665D02*
X63124504Y-59833903D01*
X63124504Y-59833903D02*
X63124504Y-60071998D01*
X63124504Y-60071998D02*
X63095933Y-60167236D01*
X63095933Y-60167236D02*
X63067362Y-60214856D01*
X63067362Y-60214856D02*
X63010219Y-60262475D01*
X63010219Y-60262475D02*
X62867362Y-60262475D01*
X62867362Y-60262475D02*
X62810219Y-60214856D01*
X62810219Y-60214856D02*
X62781647Y-60167236D01*
X63381648Y-60167236D02*
X63410219Y-60214856D01*
X63410219Y-60214856D02*
X63381648Y-60262475D01*
X63381648Y-60262475D02*
X63353076Y-60214856D01*
X63353076Y-60214856D02*
X63381648Y-60167236D01*
X63381648Y-60167236D02*
X63381648Y-60262475D01*
X63381648Y-59643427D02*
X63410219Y-59691046D01*
X63410219Y-59691046D02*
X63381648Y-59738665D01*
X63381648Y-59738665D02*
X63353076Y-59691046D01*
X63353076Y-59691046D02*
X63381648Y-59643427D01*
X63381648Y-59643427D02*
X63381648Y-59738665D01*
X64124505Y-60262475D02*
X64124505Y-59262475D01*
X64124505Y-59262475D02*
X64353076Y-59262475D01*
X64353076Y-59262475D02*
X64410219Y-59310094D01*
X64410219Y-59310094D02*
X64438790Y-59357713D01*
X64438790Y-59357713D02*
X64467362Y-59452951D01*
X64467362Y-59452951D02*
X64467362Y-59595808D01*
X64467362Y-59595808D02*
X64438790Y-59691046D01*
X64438790Y-59691046D02*
X64410219Y-59738665D01*
X64410219Y-59738665D02*
X64353076Y-59786284D01*
X64353076Y-59786284D02*
X64124505Y-59786284D01*
X65067362Y-60167236D02*
X65038790Y-60214856D01*
X65038790Y-60214856D02*
X64953076Y-60262475D01*
X64953076Y-60262475D02*
X64895933Y-60262475D01*
X64895933Y-60262475D02*
X64810219Y-60214856D01*
X64810219Y-60214856D02*
X64753076Y-60119617D01*
X64753076Y-60119617D02*
X64724505Y-60024379D01*
X64724505Y-60024379D02*
X64695933Y-59833903D01*
X64695933Y-59833903D02*
X64695933Y-59691046D01*
X64695933Y-59691046D02*
X64724505Y-59500570D01*
X64724505Y-59500570D02*
X64753076Y-59405332D01*
X64753076Y-59405332D02*
X64810219Y-59310094D01*
X64810219Y-59310094D02*
X64895933Y-59262475D01*
X64895933Y-59262475D02*
X64953076Y-59262475D01*
X64953076Y-59262475D02*
X65038790Y-59310094D01*
X65038790Y-59310094D02*
X65067362Y-59357713D01*
X65753076Y-60214856D02*
X65838791Y-60262475D01*
X65838791Y-60262475D02*
X65981648Y-60262475D01*
X65981648Y-60262475D02*
X66038791Y-60214856D01*
X66038791Y-60214856D02*
X66067362Y-60167236D01*
X66067362Y-60167236D02*
X66095933Y-60071998D01*
X66095933Y-60071998D02*
X66095933Y-59976760D01*
X66095933Y-59976760D02*
X66067362Y-59881522D01*
X66067362Y-59881522D02*
X66038791Y-59833903D01*
X66038791Y-59833903D02*
X65981648Y-59786284D01*
X65981648Y-59786284D02*
X65867362Y-59738665D01*
X65867362Y-59738665D02*
X65810219Y-59691046D01*
X65810219Y-59691046D02*
X65781648Y-59643427D01*
X65781648Y-59643427D02*
X65753076Y-59548189D01*
X65753076Y-59548189D02*
X65753076Y-59452951D01*
X65753076Y-59452951D02*
X65781648Y-59357713D01*
X65781648Y-59357713D02*
X65810219Y-59310094D01*
X65810219Y-59310094D02*
X65867362Y-59262475D01*
X65867362Y-59262475D02*
X66010219Y-59262475D01*
X66010219Y-59262475D02*
X66095933Y-59310094D01*
X66267362Y-59595808D02*
X66495934Y-59595808D01*
X66353077Y-59262475D02*
X66353077Y-60119617D01*
X66353077Y-60119617D02*
X66381648Y-60214856D01*
X66381648Y-60214856D02*
X66438791Y-60262475D01*
X66438791Y-60262475D02*
X66495934Y-60262475D01*
X66953077Y-60262475D02*
X66953077Y-59738665D01*
X66953077Y-59738665D02*
X66924505Y-59643427D01*
X66924505Y-59643427D02*
X66867362Y-59595808D01*
X66867362Y-59595808D02*
X66753077Y-59595808D01*
X66753077Y-59595808D02*
X66695934Y-59643427D01*
X66953077Y-60214856D02*
X66895934Y-60262475D01*
X66895934Y-60262475D02*
X66753077Y-60262475D01*
X66753077Y-60262475D02*
X66695934Y-60214856D01*
X66695934Y-60214856D02*
X66667362Y-60119617D01*
X66667362Y-60119617D02*
X66667362Y-60024379D01*
X66667362Y-60024379D02*
X66695934Y-59929141D01*
X66695934Y-59929141D02*
X66753077Y-59881522D01*
X66753077Y-59881522D02*
X66895934Y-59881522D01*
X66895934Y-59881522D02*
X66953077Y-59833903D01*
X67153076Y-59595808D02*
X67381648Y-59595808D01*
X67238791Y-59262475D02*
X67238791Y-60119617D01*
X67238791Y-60119617D02*
X67267362Y-60214856D01*
X67267362Y-60214856D02*
X67324505Y-60262475D01*
X67324505Y-60262475D02*
X67381648Y-60262475D01*
X67838791Y-59595808D02*
X67838791Y-60262475D01*
X67581648Y-59595808D02*
X67581648Y-60119617D01*
X67581648Y-60119617D02*
X67610219Y-60214856D01*
X67610219Y-60214856D02*
X67667362Y-60262475D01*
X67667362Y-60262475D02*
X67753076Y-60262475D01*
X67753076Y-60262475D02*
X67810219Y-60214856D01*
X67810219Y-60214856D02*
X67838791Y-60167236D01*
X68095933Y-60214856D02*
X68153076Y-60262475D01*
X68153076Y-60262475D02*
X68267362Y-60262475D01*
X68267362Y-60262475D02*
X68324505Y-60214856D01*
X68324505Y-60214856D02*
X68353076Y-60119617D01*
X68353076Y-60119617D02*
X68353076Y-60071998D01*
X68353076Y-60071998D02*
X68324505Y-59976760D01*
X68324505Y-59976760D02*
X68267362Y-59929141D01*
X68267362Y-59929141D02*
X68181648Y-59929141D01*
X68181648Y-59929141D02*
X68124505Y-59881522D01*
X68124505Y-59881522D02*
X68095933Y-59786284D01*
X68095933Y-59786284D02*
X68095933Y-59738665D01*
X68095933Y-59738665D02*
X68124505Y-59643427D01*
X68124505Y-59643427D02*
X68181648Y-59595808D01*
X68181648Y-59595808D02*
X68267362Y-59595808D01*
X68267362Y-59595808D02*
X68324505Y-59643427D01*
X53153075Y-60872419D02*
X53524503Y-60872419D01*
X53524503Y-60872419D02*
X53324503Y-61253371D01*
X53324503Y-61253371D02*
X53410218Y-61253371D01*
X53410218Y-61253371D02*
X53467361Y-61300990D01*
X53467361Y-61300990D02*
X53495932Y-61348609D01*
X53495932Y-61348609D02*
X53524503Y-61443847D01*
X53524503Y-61443847D02*
X53524503Y-61681942D01*
X53524503Y-61681942D02*
X53495932Y-61777180D01*
X53495932Y-61777180D02*
X53467361Y-61824800D01*
X53467361Y-61824800D02*
X53410218Y-61872419D01*
X53410218Y-61872419D02*
X53238789Y-61872419D01*
X53238789Y-61872419D02*
X53181646Y-61824800D01*
X53181646Y-61824800D02*
X53153075Y-61777180D01*
X53781647Y-61777180D02*
X53810218Y-61824800D01*
X53810218Y-61824800D02*
X53781647Y-61872419D01*
X53781647Y-61872419D02*
X53753075Y-61824800D01*
X53753075Y-61824800D02*
X53781647Y-61777180D01*
X53781647Y-61777180D02*
X53781647Y-61872419D01*
X53781647Y-61253371D02*
X53810218Y-61300990D01*
X53810218Y-61300990D02*
X53781647Y-61348609D01*
X53781647Y-61348609D02*
X53753075Y-61300990D01*
X53753075Y-61300990D02*
X53781647Y-61253371D01*
X53781647Y-61253371D02*
X53781647Y-61348609D01*
X54724504Y-61348609D02*
X54524504Y-61348609D01*
X54524504Y-61872419D02*
X54524504Y-60872419D01*
X54524504Y-60872419D02*
X54810218Y-60872419D01*
X55038790Y-61872419D02*
X55038790Y-61205752D01*
X55038790Y-61396228D02*
X55067361Y-61300990D01*
X55067361Y-61300990D02*
X55095933Y-61253371D01*
X55095933Y-61253371D02*
X55153075Y-61205752D01*
X55153075Y-61205752D02*
X55210218Y-61205752D01*
X55495933Y-61872419D02*
X55438790Y-61824800D01*
X55438790Y-61824800D02*
X55410219Y-61777180D01*
X55410219Y-61777180D02*
X55381647Y-61681942D01*
X55381647Y-61681942D02*
X55381647Y-61396228D01*
X55381647Y-61396228D02*
X55410219Y-61300990D01*
X55410219Y-61300990D02*
X55438790Y-61253371D01*
X55438790Y-61253371D02*
X55495933Y-61205752D01*
X55495933Y-61205752D02*
X55581647Y-61205752D01*
X55581647Y-61205752D02*
X55638790Y-61253371D01*
X55638790Y-61253371D02*
X55667362Y-61300990D01*
X55667362Y-61300990D02*
X55695933Y-61396228D01*
X55695933Y-61396228D02*
X55695933Y-61681942D01*
X55695933Y-61681942D02*
X55667362Y-61777180D01*
X55667362Y-61777180D02*
X55638790Y-61824800D01*
X55638790Y-61824800D02*
X55581647Y-61872419D01*
X55581647Y-61872419D02*
X55495933Y-61872419D01*
X55953076Y-61872419D02*
X55953076Y-61205752D01*
X55953076Y-61300990D02*
X55981647Y-61253371D01*
X55981647Y-61253371D02*
X56038790Y-61205752D01*
X56038790Y-61205752D02*
X56124504Y-61205752D01*
X56124504Y-61205752D02*
X56181647Y-61253371D01*
X56181647Y-61253371D02*
X56210219Y-61348609D01*
X56210219Y-61348609D02*
X56210219Y-61872419D01*
X56210219Y-61348609D02*
X56238790Y-61253371D01*
X56238790Y-61253371D02*
X56295933Y-61205752D01*
X56295933Y-61205752D02*
X56381647Y-61205752D01*
X56381647Y-61205752D02*
X56438790Y-61253371D01*
X56438790Y-61253371D02*
X56467361Y-61348609D01*
X56467361Y-61348609D02*
X56467361Y-61872419D01*
X57124504Y-60872419D02*
X57467362Y-60872419D01*
X57295933Y-61872419D02*
X57295933Y-60872419D01*
X57638790Y-61824800D02*
X57724505Y-61872419D01*
X57724505Y-61872419D02*
X57867362Y-61872419D01*
X57867362Y-61872419D02*
X57924505Y-61824800D01*
X57924505Y-61824800D02*
X57953076Y-61777180D01*
X57953076Y-61777180D02*
X57981647Y-61681942D01*
X57981647Y-61681942D02*
X57981647Y-61586704D01*
X57981647Y-61586704D02*
X57953076Y-61491466D01*
X57953076Y-61491466D02*
X57924505Y-61443847D01*
X57924505Y-61443847D02*
X57867362Y-61396228D01*
X57867362Y-61396228D02*
X57753076Y-61348609D01*
X57753076Y-61348609D02*
X57695933Y-61300990D01*
X57695933Y-61300990D02*
X57667362Y-61253371D01*
X57667362Y-61253371D02*
X57638790Y-61158133D01*
X57638790Y-61158133D02*
X57638790Y-61062895D01*
X57638790Y-61062895D02*
X57667362Y-60967657D01*
X57667362Y-60967657D02*
X57695933Y-60920038D01*
X57695933Y-60920038D02*
X57753076Y-60872419D01*
X57753076Y-60872419D02*
X57895933Y-60872419D01*
X57895933Y-60872419D02*
X57981647Y-60920038D01*
X58238791Y-61872419D02*
X58238791Y-60872419D01*
X58238791Y-60872419D02*
X58438791Y-61586704D01*
X58438791Y-61586704D02*
X58638791Y-60872419D01*
X58638791Y-60872419D02*
X58638791Y-61872419D01*
X58895933Y-61824800D02*
X58981648Y-61872419D01*
X58981648Y-61872419D02*
X59124505Y-61872419D01*
X59124505Y-61872419D02*
X59181648Y-61824800D01*
X59181648Y-61824800D02*
X59210219Y-61777180D01*
X59210219Y-61777180D02*
X59238790Y-61681942D01*
X59238790Y-61681942D02*
X59238790Y-61586704D01*
X59238790Y-61586704D02*
X59210219Y-61491466D01*
X59210219Y-61491466D02*
X59181648Y-61443847D01*
X59181648Y-61443847D02*
X59124505Y-61396228D01*
X59124505Y-61396228D02*
X59010219Y-61348609D01*
X59010219Y-61348609D02*
X58953076Y-61300990D01*
X58953076Y-61300990D02*
X58924505Y-61253371D01*
X58924505Y-61253371D02*
X58895933Y-61158133D01*
X58895933Y-61158133D02*
X58895933Y-61062895D01*
X58895933Y-61062895D02*
X58924505Y-60967657D01*
X58924505Y-60967657D02*
X58953076Y-60920038D01*
X58953076Y-60920038D02*
X59010219Y-60872419D01*
X59010219Y-60872419D02*
X59153076Y-60872419D01*
X59153076Y-60872419D02*
X59238790Y-60920038D01*
X73485312Y-27872419D02*
X72913884Y-27872419D01*
X73199598Y-27872419D02*
X73199598Y-26872419D01*
X73199598Y-26872419D02*
X73104360Y-27015276D01*
X73104360Y-27015276D02*
X73009122Y-27110514D01*
X73009122Y-27110514D02*
X72913884Y-27158133D01*
X74104360Y-26872419D02*
X74199598Y-26872419D01*
X74199598Y-26872419D02*
X74294836Y-26920038D01*
X74294836Y-26920038D02*
X74342455Y-26967657D01*
X74342455Y-26967657D02*
X74390074Y-27062895D01*
X74390074Y-27062895D02*
X74437693Y-27253371D01*
X74437693Y-27253371D02*
X74437693Y-27491466D01*
X74437693Y-27491466D02*
X74390074Y-27681942D01*
X74390074Y-27681942D02*
X74342455Y-27777180D01*
X74342455Y-27777180D02*
X74294836Y-27824800D01*
X74294836Y-27824800D02*
X74199598Y-27872419D01*
X74199598Y-27872419D02*
X74104360Y-27872419D01*
X74104360Y-27872419D02*
X74009122Y-27824800D01*
X74009122Y-27824800D02*
X73961503Y-27777180D01*
X73961503Y-27777180D02*
X73913884Y-27681942D01*
X73913884Y-27681942D02*
X73866265Y-27491466D01*
X73866265Y-27491466D02*
X73866265Y-27253371D01*
X73866265Y-27253371D02*
X73913884Y-27062895D01*
X73913884Y-27062895D02*
X73961503Y-26967657D01*
X73961503Y-26967657D02*
X74009122Y-26920038D01*
X74009122Y-26920038D02*
X74104360Y-26872419D01*
D11*
X70855826Y-47600414D02*
X70512969Y-47600414D01*
X70684398Y-47600414D02*
X70684398Y-46850414D01*
X70684398Y-46850414D02*
X70627255Y-46957557D01*
X70627255Y-46957557D02*
X70570112Y-47028985D01*
X70570112Y-47028985D02*
X70512969Y-47064700D01*
X71227255Y-46850414D02*
X71284398Y-46850414D01*
X71284398Y-46850414D02*
X71341541Y-46886128D01*
X71341541Y-46886128D02*
X71370113Y-46921842D01*
X71370113Y-46921842D02*
X71398684Y-46993271D01*
X71398684Y-46993271D02*
X71427255Y-47136128D01*
X71427255Y-47136128D02*
X71427255Y-47314700D01*
X71427255Y-47314700D02*
X71398684Y-47457557D01*
X71398684Y-47457557D02*
X71370113Y-47528985D01*
X71370113Y-47528985D02*
X71341541Y-47564700D01*
X71341541Y-47564700D02*
X71284398Y-47600414D01*
X71284398Y-47600414D02*
X71227255Y-47600414D01*
X71227255Y-47600414D02*
X71170113Y-47564700D01*
X71170113Y-47564700D02*
X71141541Y-47528985D01*
X71141541Y-47528985D02*
X71112970Y-47457557D01*
X71112970Y-47457557D02*
X71084398Y-47314700D01*
X71084398Y-47314700D02*
X71084398Y-47136128D01*
X71084398Y-47136128D02*
X71112970Y-46993271D01*
X71112970Y-46993271D02*
X71141541Y-46921842D01*
X71141541Y-46921842D02*
X71170113Y-46886128D01*
X71170113Y-46886128D02*
X71227255Y-46850414D01*
X71684399Y-47600414D02*
X71684399Y-46850414D01*
X71741542Y-47314700D02*
X71912970Y-47600414D01*
X71912970Y-47100414D02*
X71684399Y-47386128D01*
X72070112Y-43500414D02*
X71641541Y-43500414D01*
X71855826Y-43500414D02*
X71855826Y-42750414D01*
X71855826Y-42750414D02*
X71784398Y-42857557D01*
X71784398Y-42857557D02*
X71712969Y-42928985D01*
X71712969Y-42928985D02*
X71641541Y-42964700D01*
X72534398Y-42750414D02*
X72605827Y-42750414D01*
X72605827Y-42750414D02*
X72677255Y-42786128D01*
X72677255Y-42786128D02*
X72712970Y-42821842D01*
X72712970Y-42821842D02*
X72748684Y-42893271D01*
X72748684Y-42893271D02*
X72784398Y-43036128D01*
X72784398Y-43036128D02*
X72784398Y-43214700D01*
X72784398Y-43214700D02*
X72748684Y-43357557D01*
X72748684Y-43357557D02*
X72712970Y-43428985D01*
X72712970Y-43428985D02*
X72677255Y-43464700D01*
X72677255Y-43464700D02*
X72605827Y-43500414D01*
X72605827Y-43500414D02*
X72534398Y-43500414D01*
X72534398Y-43500414D02*
X72462970Y-43464700D01*
X72462970Y-43464700D02*
X72427255Y-43428985D01*
X72427255Y-43428985D02*
X72391541Y-43357557D01*
X72391541Y-43357557D02*
X72355827Y-43214700D01*
X72355827Y-43214700D02*
X72355827Y-43036128D01*
X72355827Y-43036128D02*
X72391541Y-42893271D01*
X72391541Y-42893271D02*
X72427255Y-42821842D01*
X72427255Y-42821842D02*
X72462970Y-42786128D01*
X72462970Y-42786128D02*
X72534398Y-42750414D01*
X73105827Y-43500414D02*
X73105827Y-42750414D01*
X73177256Y-43214700D02*
X73391541Y-43500414D01*
X73391541Y-43000414D02*
X73105827Y-43286128D01*
D10*
X50520692Y-65437490D02*
X50520692Y-63837490D01*
X50520692Y-63837490D02*
X50825454Y-63837490D01*
X50825454Y-63837490D02*
X50901644Y-63913680D01*
X50901644Y-63913680D02*
X50939739Y-63989871D01*
X50939739Y-63989871D02*
X50977835Y-64142252D01*
X50977835Y-64142252D02*
X50977835Y-64370823D01*
X50977835Y-64370823D02*
X50939739Y-64523204D01*
X50939739Y-64523204D02*
X50901644Y-64599395D01*
X50901644Y-64599395D02*
X50825454Y-64675585D01*
X50825454Y-64675585D02*
X50520692Y-64675585D01*
X51320692Y-65437490D02*
X51320692Y-64370823D01*
X51320692Y-64675585D02*
X51358787Y-64523204D01*
X51358787Y-64523204D02*
X51396882Y-64447014D01*
X51396882Y-64447014D02*
X51473073Y-64370823D01*
X51473073Y-64370823D02*
X51549263Y-64370823D01*
X52120692Y-65361300D02*
X52044501Y-65437490D01*
X52044501Y-65437490D02*
X51892120Y-65437490D01*
X51892120Y-65437490D02*
X51815930Y-65361300D01*
X51815930Y-65361300D02*
X51777834Y-65208919D01*
X51777834Y-65208919D02*
X51777834Y-64599395D01*
X51777834Y-64599395D02*
X51815930Y-64447014D01*
X51815930Y-64447014D02*
X51892120Y-64370823D01*
X51892120Y-64370823D02*
X52044501Y-64370823D01*
X52044501Y-64370823D02*
X52120692Y-64447014D01*
X52120692Y-64447014D02*
X52158787Y-64599395D01*
X52158787Y-64599395D02*
X52158787Y-64751776D01*
X52158787Y-64751776D02*
X51777834Y-64904157D01*
X52844501Y-65361300D02*
X52768310Y-65437490D01*
X52768310Y-65437490D02*
X52615929Y-65437490D01*
X52615929Y-65437490D02*
X52539739Y-65361300D01*
X52539739Y-65361300D02*
X52501644Y-65285109D01*
X52501644Y-65285109D02*
X52463548Y-65132728D01*
X52463548Y-65132728D02*
X52463548Y-64675585D01*
X52463548Y-64675585D02*
X52501644Y-64523204D01*
X52501644Y-64523204D02*
X52539739Y-64447014D01*
X52539739Y-64447014D02*
X52615929Y-64370823D01*
X52615929Y-64370823D02*
X52768310Y-64370823D01*
X52768310Y-64370823D02*
X52844501Y-64447014D01*
X53187358Y-65437490D02*
X53187358Y-63837490D01*
X53530215Y-65437490D02*
X53530215Y-64599395D01*
X53530215Y-64599395D02*
X53492120Y-64447014D01*
X53492120Y-64447014D02*
X53415929Y-64370823D01*
X53415929Y-64370823D02*
X53301643Y-64370823D01*
X53301643Y-64370823D02*
X53225453Y-64447014D01*
X53225453Y-64447014D02*
X53187358Y-64523204D01*
X54254025Y-65437490D02*
X54254025Y-64599395D01*
X54254025Y-64599395D02*
X54215930Y-64447014D01*
X54215930Y-64447014D02*
X54139739Y-64370823D01*
X54139739Y-64370823D02*
X53987358Y-64370823D01*
X53987358Y-64370823D02*
X53911168Y-64447014D01*
X54254025Y-65361300D02*
X54177834Y-65437490D01*
X54177834Y-65437490D02*
X53987358Y-65437490D01*
X53987358Y-65437490D02*
X53911168Y-65361300D01*
X53911168Y-65361300D02*
X53873072Y-65208919D01*
X53873072Y-65208919D02*
X53873072Y-65056538D01*
X53873072Y-65056538D02*
X53911168Y-64904157D01*
X53911168Y-64904157D02*
X53987358Y-64827966D01*
X53987358Y-64827966D02*
X54177834Y-64827966D01*
X54177834Y-64827966D02*
X54254025Y-64751776D01*
X54634978Y-65437490D02*
X54634978Y-64370823D01*
X54634978Y-64675585D02*
X54673073Y-64523204D01*
X54673073Y-64523204D02*
X54711168Y-64447014D01*
X54711168Y-64447014D02*
X54787359Y-64370823D01*
X54787359Y-64370823D02*
X54863549Y-64370823D01*
X55473073Y-64370823D02*
X55473073Y-65666061D01*
X55473073Y-65666061D02*
X55434978Y-65818442D01*
X55434978Y-65818442D02*
X55396882Y-65894633D01*
X55396882Y-65894633D02*
X55320692Y-65970823D01*
X55320692Y-65970823D02*
X55206406Y-65970823D01*
X55206406Y-65970823D02*
X55130216Y-65894633D01*
X55473073Y-65361300D02*
X55396882Y-65437490D01*
X55396882Y-65437490D02*
X55244501Y-65437490D01*
X55244501Y-65437490D02*
X55168311Y-65361300D01*
X55168311Y-65361300D02*
X55130216Y-65285109D01*
X55130216Y-65285109D02*
X55092120Y-65132728D01*
X55092120Y-65132728D02*
X55092120Y-64675585D01*
X55092120Y-64675585D02*
X55130216Y-64523204D01*
X55130216Y-64523204D02*
X55168311Y-64447014D01*
X55168311Y-64447014D02*
X55244501Y-64370823D01*
X55244501Y-64370823D02*
X55396882Y-64370823D01*
X55396882Y-64370823D02*
X55473073Y-64447014D01*
X56158788Y-65361300D02*
X56082597Y-65437490D01*
X56082597Y-65437490D02*
X55930216Y-65437490D01*
X55930216Y-65437490D02*
X55854026Y-65361300D01*
X55854026Y-65361300D02*
X55815930Y-65208919D01*
X55815930Y-65208919D02*
X55815930Y-64599395D01*
X55815930Y-64599395D02*
X55854026Y-64447014D01*
X55854026Y-64447014D02*
X55930216Y-64370823D01*
X55930216Y-64370823D02*
X56082597Y-64370823D01*
X56082597Y-64370823D02*
X56158788Y-64447014D01*
X56158788Y-64447014D02*
X56196883Y-64599395D01*
X56196883Y-64599395D02*
X56196883Y-64751776D01*
X56196883Y-64751776D02*
X55815930Y-64904157D01*
X57149264Y-65437490D02*
X57149264Y-63837490D01*
X57149264Y-63837490D02*
X57415930Y-64980347D01*
X57415930Y-64980347D02*
X57682597Y-63837490D01*
X57682597Y-63837490D02*
X57682597Y-65437490D01*
X58177835Y-65437490D02*
X58101645Y-65361300D01*
X58101645Y-65361300D02*
X58063550Y-65285109D01*
X58063550Y-65285109D02*
X58025454Y-65132728D01*
X58025454Y-65132728D02*
X58025454Y-64675585D01*
X58025454Y-64675585D02*
X58063550Y-64523204D01*
X58063550Y-64523204D02*
X58101645Y-64447014D01*
X58101645Y-64447014D02*
X58177835Y-64370823D01*
X58177835Y-64370823D02*
X58292121Y-64370823D01*
X58292121Y-64370823D02*
X58368312Y-64447014D01*
X58368312Y-64447014D02*
X58406407Y-64523204D01*
X58406407Y-64523204D02*
X58444502Y-64675585D01*
X58444502Y-64675585D02*
X58444502Y-65132728D01*
X58444502Y-65132728D02*
X58406407Y-65285109D01*
X58406407Y-65285109D02*
X58368312Y-65361300D01*
X58368312Y-65361300D02*
X58292121Y-65437490D01*
X58292121Y-65437490D02*
X58177835Y-65437490D01*
X59130217Y-65437490D02*
X59130217Y-63837490D01*
X59130217Y-65361300D02*
X59054026Y-65437490D01*
X59054026Y-65437490D02*
X58901645Y-65437490D01*
X58901645Y-65437490D02*
X58825455Y-65361300D01*
X58825455Y-65361300D02*
X58787360Y-65285109D01*
X58787360Y-65285109D02*
X58749264Y-65132728D01*
X58749264Y-65132728D02*
X58749264Y-64675585D01*
X58749264Y-64675585D02*
X58787360Y-64523204D01*
X58787360Y-64523204D02*
X58825455Y-64447014D01*
X58825455Y-64447014D02*
X58901645Y-64370823D01*
X58901645Y-64370823D02*
X59054026Y-64370823D01*
X59054026Y-64370823D02*
X59130217Y-64447014D01*
X59854027Y-64370823D02*
X59854027Y-65437490D01*
X59511170Y-64370823D02*
X59511170Y-65208919D01*
X59511170Y-65208919D02*
X59549265Y-65361300D01*
X59549265Y-65361300D02*
X59625455Y-65437490D01*
X59625455Y-65437490D02*
X59739741Y-65437490D01*
X59739741Y-65437490D02*
X59815932Y-65361300D01*
X59815932Y-65361300D02*
X59854027Y-65285109D01*
X60349265Y-65437490D02*
X60273075Y-65361300D01*
X60273075Y-65361300D02*
X60234980Y-65208919D01*
X60234980Y-65208919D02*
X60234980Y-63837490D01*
X60958790Y-65361300D02*
X60882599Y-65437490D01*
X60882599Y-65437490D02*
X60730218Y-65437490D01*
X60730218Y-65437490D02*
X60654028Y-65361300D01*
X60654028Y-65361300D02*
X60615932Y-65208919D01*
X60615932Y-65208919D02*
X60615932Y-64599395D01*
X60615932Y-64599395D02*
X60654028Y-64447014D01*
X60654028Y-64447014D02*
X60730218Y-64370823D01*
X60730218Y-64370823D02*
X60882599Y-64370823D01*
X60882599Y-64370823D02*
X60958790Y-64447014D01*
X60958790Y-64447014D02*
X60996885Y-64599395D01*
X60996885Y-64599395D02*
X60996885Y-64751776D01*
X60996885Y-64751776D02*
X60615932Y-64904157D01*
X61834980Y-63837490D02*
X62101647Y-65437490D01*
X62101647Y-65437490D02*
X62368313Y-63837490D01*
X62596884Y-63989871D02*
X62634980Y-63913680D01*
X62634980Y-63913680D02*
X62711170Y-63837490D01*
X62711170Y-63837490D02*
X62901646Y-63837490D01*
X62901646Y-63837490D02*
X62977837Y-63913680D01*
X62977837Y-63913680D02*
X63015932Y-63989871D01*
X63015932Y-63989871D02*
X63054027Y-64142252D01*
X63054027Y-64142252D02*
X63054027Y-64294633D01*
X63054027Y-64294633D02*
X63015932Y-64523204D01*
X63015932Y-64523204D02*
X62558789Y-65437490D01*
X62558789Y-65437490D02*
X63054027Y-65437490D01*
X63396885Y-65285109D02*
X63434980Y-65361300D01*
X63434980Y-65361300D02*
X63396885Y-65437490D01*
X63396885Y-65437490D02*
X63358789Y-65361300D01*
X63358789Y-65361300D02*
X63396885Y-65285109D01*
X63396885Y-65285109D02*
X63396885Y-65437490D01*
X64196884Y-65437490D02*
X63739741Y-65437490D01*
X63968313Y-65437490D02*
X63968313Y-63837490D01*
X63968313Y-63837490D02*
X63892122Y-64066061D01*
X63892122Y-64066061D02*
X63815932Y-64218442D01*
X63815932Y-64218442D02*
X63739741Y-64294633D01*
X65339742Y-65970823D02*
X65339742Y-63685109D01*
X66520695Y-65437490D02*
X66520695Y-63837490D01*
X66520695Y-63837490D02*
X66787361Y-64980347D01*
X66787361Y-64980347D02*
X67054028Y-63837490D01*
X67054028Y-63837490D02*
X67054028Y-65437490D01*
X67434981Y-65285109D02*
X67473076Y-65361300D01*
X67473076Y-65361300D02*
X67434981Y-65437490D01*
X67434981Y-65437490D02*
X67396885Y-65361300D01*
X67396885Y-65361300D02*
X67434981Y-65285109D01*
X67434981Y-65285109D02*
X67434981Y-65437490D01*
X68273076Y-65437490D02*
X68006409Y-64675585D01*
X67815933Y-65437490D02*
X67815933Y-63837490D01*
X67815933Y-63837490D02*
X68120695Y-63837490D01*
X68120695Y-63837490D02*
X68196885Y-63913680D01*
X68196885Y-63913680D02*
X68234980Y-63989871D01*
X68234980Y-63989871D02*
X68273076Y-64142252D01*
X68273076Y-64142252D02*
X68273076Y-64370823D01*
X68273076Y-64370823D02*
X68234980Y-64523204D01*
X68234980Y-64523204D02*
X68196885Y-64599395D01*
X68196885Y-64599395D02*
X68120695Y-64675585D01*
X68120695Y-64675585D02*
X67815933Y-64675585D01*
X68615933Y-65285109D02*
X68654028Y-65361300D01*
X68654028Y-65361300D02*
X68615933Y-65437490D01*
X68615933Y-65437490D02*
X68577837Y-65361300D01*
X68577837Y-65361300D02*
X68615933Y-65285109D01*
X68615933Y-65285109D02*
X68615933Y-65437490D01*
X69873075Y-64599395D02*
X69606409Y-64599395D01*
X69606409Y-65437490D02*
X69606409Y-63837490D01*
X69606409Y-63837490D02*
X69987361Y-63837490D01*
X70596885Y-65361300D02*
X70520694Y-65437490D01*
X70520694Y-65437490D02*
X70368313Y-65437490D01*
X70368313Y-65437490D02*
X70292123Y-65361300D01*
X70292123Y-65361300D02*
X70254027Y-65208919D01*
X70254027Y-65208919D02*
X70254027Y-64599395D01*
X70254027Y-64599395D02*
X70292123Y-64447014D01*
X70292123Y-64447014D02*
X70368313Y-64370823D01*
X70368313Y-64370823D02*
X70520694Y-64370823D01*
X70520694Y-64370823D02*
X70596885Y-64447014D01*
X70596885Y-64447014D02*
X70634980Y-64599395D01*
X70634980Y-64599395D02*
X70634980Y-64751776D01*
X70634980Y-64751776D02*
X70254027Y-64904157D01*
X70977837Y-65437490D02*
X70977837Y-63837490D01*
X70977837Y-64447014D02*
X71054027Y-64370823D01*
X71054027Y-64370823D02*
X71206408Y-64370823D01*
X71206408Y-64370823D02*
X71282599Y-64447014D01*
X71282599Y-64447014D02*
X71320694Y-64523204D01*
X71320694Y-64523204D02*
X71358789Y-64675585D01*
X71358789Y-64675585D02*
X71358789Y-65132728D01*
X71358789Y-65132728D02*
X71320694Y-65285109D01*
X71320694Y-65285109D02*
X71282599Y-65361300D01*
X71282599Y-65361300D02*
X71206408Y-65437490D01*
X71206408Y-65437490D02*
X71054027Y-65437490D01*
X71054027Y-65437490D02*
X70977837Y-65361300D01*
X72349266Y-63837490D02*
X72273075Y-64142252D01*
X72654027Y-63989871D02*
X72692123Y-63913680D01*
X72692123Y-63913680D02*
X72768313Y-63837490D01*
X72768313Y-63837490D02*
X72958789Y-63837490D01*
X72958789Y-63837490D02*
X73034980Y-63913680D01*
X73034980Y-63913680D02*
X73073075Y-63989871D01*
X73073075Y-63989871D02*
X73111170Y-64142252D01*
X73111170Y-64142252D02*
X73111170Y-64294633D01*
X73111170Y-64294633D02*
X73073075Y-64523204D01*
X73073075Y-64523204D02*
X72615932Y-65437490D01*
X72615932Y-65437490D02*
X73111170Y-65437490D01*
X73834980Y-63837490D02*
X73454028Y-63837490D01*
X73454028Y-63837490D02*
X73415932Y-64599395D01*
X73415932Y-64599395D02*
X73454028Y-64523204D01*
X73454028Y-64523204D02*
X73530218Y-64447014D01*
X73530218Y-64447014D02*
X73720694Y-64447014D01*
X73720694Y-64447014D02*
X73796885Y-64523204D01*
X73796885Y-64523204D02*
X73834980Y-64599395D01*
X73834980Y-64599395D02*
X73873075Y-64751776D01*
X73873075Y-64751776D02*
X73873075Y-65132728D01*
X73873075Y-65132728D02*
X73834980Y-65285109D01*
X73834980Y-65285109D02*
X73796885Y-65361300D01*
X73796885Y-65361300D02*
X73720694Y-65437490D01*
X73720694Y-65437490D02*
X73530218Y-65437490D01*
X73530218Y-65437490D02*
X73454028Y-65361300D01*
X73454028Y-65361300D02*
X73415932Y-65285109D01*
D11*
X59469065Y-56138200D02*
X59507160Y-56081057D01*
X59507160Y-56081057D02*
X59583351Y-56023914D01*
X59583351Y-56023914D02*
X59735732Y-56138200D01*
X59735732Y-56138200D02*
X59811922Y-56081057D01*
X59811922Y-56081057D02*
X59850017Y-56023914D01*
X60154780Y-56595342D02*
X60154780Y-55395342D01*
X60154780Y-55395342D02*
X60459542Y-55395342D01*
X60459542Y-55395342D02*
X60535732Y-55452485D01*
X60535732Y-55452485D02*
X60573827Y-55509628D01*
X60573827Y-55509628D02*
X60611923Y-55623914D01*
X60611923Y-55623914D02*
X60611923Y-55795342D01*
X60611923Y-55795342D02*
X60573827Y-55909628D01*
X60573827Y-55909628D02*
X60535732Y-55966771D01*
X60535732Y-55966771D02*
X60459542Y-56023914D01*
X60459542Y-56023914D02*
X60154780Y-56023914D01*
X60954780Y-56595342D02*
X60954780Y-55395342D01*
X61335732Y-56595342D02*
X61335732Y-55395342D01*
X61335732Y-55395342D02*
X61792875Y-56595342D01*
X61792875Y-56595342D02*
X61792875Y-55395342D01*
X62326208Y-55395342D02*
X62478589Y-55395342D01*
X62478589Y-55395342D02*
X62554779Y-55452485D01*
X62554779Y-55452485D02*
X62630970Y-55566771D01*
X62630970Y-55566771D02*
X62669065Y-55795342D01*
X62669065Y-55795342D02*
X62669065Y-56195342D01*
X62669065Y-56195342D02*
X62630970Y-56423914D01*
X62630970Y-56423914D02*
X62554779Y-56538200D01*
X62554779Y-56538200D02*
X62478589Y-56595342D01*
X62478589Y-56595342D02*
X62326208Y-56595342D01*
X62326208Y-56595342D02*
X62250017Y-56538200D01*
X62250017Y-56538200D02*
X62173827Y-56423914D01*
X62173827Y-56423914D02*
X62135731Y-56195342D01*
X62135731Y-56195342D02*
X62135731Y-55795342D01*
X62135731Y-55795342D02*
X62173827Y-55566771D01*
X62173827Y-55566771D02*
X62250017Y-55452485D01*
X62250017Y-55452485D02*
X62326208Y-55395342D01*
X63011922Y-55395342D02*
X63011922Y-56366771D01*
X63011922Y-56366771D02*
X63050017Y-56481057D01*
X63050017Y-56481057D02*
X63088112Y-56538200D01*
X63088112Y-56538200D02*
X63164303Y-56595342D01*
X63164303Y-56595342D02*
X63316684Y-56595342D01*
X63316684Y-56595342D02*
X63392874Y-56538200D01*
X63392874Y-56538200D02*
X63430969Y-56481057D01*
X63430969Y-56481057D02*
X63469065Y-56366771D01*
X63469065Y-56366771D02*
X63469065Y-55395342D01*
X63735731Y-55395342D02*
X64192874Y-55395342D01*
X63964302Y-56595342D02*
X63964302Y-55395342D01*
X64345255Y-56138200D02*
X64383350Y-56081057D01*
X64383350Y-56081057D02*
X64459541Y-56023914D01*
X64459541Y-56023914D02*
X64611922Y-56138200D01*
X64611922Y-56138200D02*
X64688112Y-56081057D01*
X64688112Y-56081057D02*
X64726207Y-56023914D01*
D10*
X70651503Y-50733609D02*
X70461027Y-50733609D01*
X70461027Y-50733609D02*
X70441979Y-50971704D01*
X70441979Y-50971704D02*
X70461027Y-50947895D01*
X70461027Y-50947895D02*
X70499122Y-50924085D01*
X70499122Y-50924085D02*
X70594360Y-50924085D01*
X70594360Y-50924085D02*
X70632455Y-50947895D01*
X70632455Y-50947895D02*
X70651503Y-50971704D01*
X70651503Y-50971704D02*
X70670550Y-51019323D01*
X70670550Y-51019323D02*
X70670550Y-51138371D01*
X70670550Y-51138371D02*
X70651503Y-51185990D01*
X70651503Y-51185990D02*
X70632455Y-51209800D01*
X70632455Y-51209800D02*
X70594360Y-51233609D01*
X70594360Y-51233609D02*
X70499122Y-51233609D01*
X70499122Y-51233609D02*
X70461027Y-51209800D01*
X70461027Y-51209800D02*
X70441979Y-51185990D01*
X70803883Y-50733609D02*
X71070550Y-50733609D01*
X71070550Y-50733609D02*
X70899121Y-51233609D01*
X71222931Y-51185990D02*
X71241978Y-51209800D01*
X71241978Y-51209800D02*
X71222931Y-51233609D01*
X71222931Y-51233609D02*
X71203883Y-51209800D01*
X71203883Y-51209800D02*
X71222931Y-51185990D01*
X71222931Y-51185990D02*
X71222931Y-51233609D01*
X71584835Y-50733609D02*
X71508645Y-50733609D01*
X71508645Y-50733609D02*
X71470549Y-50757419D01*
X71470549Y-50757419D02*
X71451502Y-50781228D01*
X71451502Y-50781228D02*
X71413407Y-50852657D01*
X71413407Y-50852657D02*
X71394359Y-50947895D01*
X71394359Y-50947895D02*
X71394359Y-51138371D01*
X71394359Y-51138371D02*
X71413407Y-51185990D01*
X71413407Y-51185990D02*
X71432454Y-51209800D01*
X71432454Y-51209800D02*
X71470549Y-51233609D01*
X71470549Y-51233609D02*
X71546740Y-51233609D01*
X71546740Y-51233609D02*
X71584835Y-51209800D01*
X71584835Y-51209800D02*
X71603883Y-51185990D01*
X71603883Y-51185990D02*
X71622930Y-51138371D01*
X71622930Y-51138371D02*
X71622930Y-51019323D01*
X71622930Y-51019323D02*
X71603883Y-50971704D01*
X71603883Y-50971704D02*
X71584835Y-50947895D01*
X71584835Y-50947895D02*
X71546740Y-50924085D01*
X71546740Y-50924085D02*
X71470549Y-50924085D01*
X71470549Y-50924085D02*
X71432454Y-50947895D01*
X71432454Y-50947895D02*
X71413407Y-50971704D01*
X71413407Y-50971704D02*
X71394359Y-51019323D01*
X71794359Y-51233609D02*
X71794359Y-50733609D01*
X71832454Y-51043133D02*
X71946740Y-51233609D01*
X71946740Y-50900276D02*
X71794359Y-51090752D01*
D12*
X57130952Y-51024809D02*
X57130952Y-50524809D01*
X57130952Y-50524809D02*
X57250000Y-50524809D01*
X57250000Y-50524809D02*
X57321428Y-50548619D01*
X57321428Y-50548619D02*
X57369047Y-50596238D01*
X57369047Y-50596238D02*
X57392857Y-50643857D01*
X57392857Y-50643857D02*
X57416666Y-50739095D01*
X57416666Y-50739095D02*
X57416666Y-50810523D01*
X57416666Y-50810523D02*
X57392857Y-50905761D01*
X57392857Y-50905761D02*
X57369047Y-50953380D01*
X57369047Y-50953380D02*
X57321428Y-51001000D01*
X57321428Y-51001000D02*
X57250000Y-51024809D01*
X57250000Y-51024809D02*
X57130952Y-51024809D01*
X57583333Y-50524809D02*
X57892857Y-50524809D01*
X57892857Y-50524809D02*
X57726190Y-50715285D01*
X57726190Y-50715285D02*
X57797619Y-50715285D01*
X57797619Y-50715285D02*
X57845238Y-50739095D01*
X57845238Y-50739095D02*
X57869047Y-50762904D01*
X57869047Y-50762904D02*
X57892857Y-50810523D01*
X57892857Y-50810523D02*
X57892857Y-50929571D01*
X57892857Y-50929571D02*
X57869047Y-50977190D01*
X57869047Y-50977190D02*
X57845238Y-51001000D01*
X57845238Y-51001000D02*
X57797619Y-51024809D01*
X57797619Y-51024809D02*
X57654762Y-51024809D01*
X57654762Y-51024809D02*
X57607143Y-51001000D01*
X57607143Y-51001000D02*
X57583333Y-50977190D01*
D11*
X60942857Y-37426914D02*
X60885714Y-37398342D01*
X60885714Y-37398342D02*
X60828571Y-37341200D01*
X60828571Y-37341200D02*
X60742857Y-37255485D01*
X60742857Y-37255485D02*
X60685714Y-37226914D01*
X60685714Y-37226914D02*
X60628571Y-37226914D01*
X60657142Y-37369771D02*
X60600000Y-37341200D01*
X60600000Y-37341200D02*
X60542857Y-37284057D01*
X60542857Y-37284057D02*
X60514285Y-37169771D01*
X60514285Y-37169771D02*
X60514285Y-36969771D01*
X60514285Y-36969771D02*
X60542857Y-36855485D01*
X60542857Y-36855485D02*
X60600000Y-36798342D01*
X60600000Y-36798342D02*
X60657142Y-36769771D01*
X60657142Y-36769771D02*
X60771428Y-36769771D01*
X60771428Y-36769771D02*
X60828571Y-36798342D01*
X60828571Y-36798342D02*
X60885714Y-36855485D01*
X60885714Y-36855485D02*
X60914285Y-36969771D01*
X60914285Y-36969771D02*
X60914285Y-37169771D01*
X60914285Y-37169771D02*
X60885714Y-37284057D01*
X60885714Y-37284057D02*
X60828571Y-37341200D01*
X60828571Y-37341200D02*
X60771428Y-37369771D01*
X60771428Y-37369771D02*
X60657142Y-37369771D01*
X61428571Y-36969771D02*
X61428571Y-37369771D01*
X61285713Y-36741200D02*
X61142856Y-37169771D01*
X61142856Y-37169771D02*
X61514285Y-37169771D01*
X62630000Y-51554819D02*
X62330000Y-51078628D01*
X62115714Y-51554819D02*
X62115714Y-50554819D01*
X62115714Y-50554819D02*
X62458571Y-50554819D01*
X62458571Y-50554819D02*
X62544286Y-50602438D01*
X62544286Y-50602438D02*
X62587143Y-50650057D01*
X62587143Y-50650057D02*
X62630000Y-50745295D01*
X62630000Y-50745295D02*
X62630000Y-50888152D01*
X62630000Y-50888152D02*
X62587143Y-50983390D01*
X62587143Y-50983390D02*
X62544286Y-51031009D01*
X62544286Y-51031009D02*
X62458571Y-51078628D01*
X62458571Y-51078628D02*
X62115714Y-51078628D01*
X63401429Y-50554819D02*
X63230000Y-50554819D01*
X63230000Y-50554819D02*
X63144286Y-50602438D01*
X63144286Y-50602438D02*
X63101429Y-50650057D01*
X63101429Y-50650057D02*
X63015714Y-50792914D01*
X63015714Y-50792914D02*
X62972857Y-50983390D01*
X62972857Y-50983390D02*
X62972857Y-51364342D01*
X62972857Y-51364342D02*
X63015714Y-51459580D01*
X63015714Y-51459580D02*
X63058571Y-51507200D01*
X63058571Y-51507200D02*
X63144286Y-51554819D01*
X63144286Y-51554819D02*
X63315714Y-51554819D01*
X63315714Y-51554819D02*
X63401429Y-51507200D01*
X63401429Y-51507200D02*
X63444286Y-51459580D01*
X63444286Y-51459580D02*
X63487143Y-51364342D01*
X63487143Y-51364342D02*
X63487143Y-51126247D01*
X63487143Y-51126247D02*
X63444286Y-51031009D01*
X63444286Y-51031009D02*
X63401429Y-50983390D01*
X63401429Y-50983390D02*
X63315714Y-50935771D01*
X63315714Y-50935771D02*
X63144286Y-50935771D01*
X63144286Y-50935771D02*
X63058571Y-50983390D01*
X63058571Y-50983390D02*
X63015714Y-51031009D01*
X63015714Y-51031009D02*
X62972857Y-51126247D01*
X52192857Y-51826914D02*
X52135714Y-51798342D01*
X52135714Y-51798342D02*
X52078571Y-51741200D01*
X52078571Y-51741200D02*
X51992857Y-51655485D01*
X51992857Y-51655485D02*
X51935714Y-51626914D01*
X51935714Y-51626914D02*
X51878571Y-51626914D01*
X51907142Y-51769771D02*
X51850000Y-51741200D01*
X51850000Y-51741200D02*
X51792857Y-51684057D01*
X51792857Y-51684057D02*
X51764285Y-51569771D01*
X51764285Y-51569771D02*
X51764285Y-51369771D01*
X51764285Y-51369771D02*
X51792857Y-51255485D01*
X51792857Y-51255485D02*
X51850000Y-51198342D01*
X51850000Y-51198342D02*
X51907142Y-51169771D01*
X51907142Y-51169771D02*
X52021428Y-51169771D01*
X52021428Y-51169771D02*
X52078571Y-51198342D01*
X52078571Y-51198342D02*
X52135714Y-51255485D01*
X52135714Y-51255485D02*
X52164285Y-51369771D01*
X52164285Y-51369771D02*
X52164285Y-51569771D01*
X52164285Y-51569771D02*
X52135714Y-51684057D01*
X52135714Y-51684057D02*
X52078571Y-51741200D01*
X52078571Y-51741200D02*
X52021428Y-51769771D01*
X52021428Y-51769771D02*
X51907142Y-51769771D01*
X52392856Y-51226914D02*
X52421428Y-51198342D01*
X52421428Y-51198342D02*
X52478571Y-51169771D01*
X52478571Y-51169771D02*
X52621428Y-51169771D01*
X52621428Y-51169771D02*
X52678571Y-51198342D01*
X52678571Y-51198342D02*
X52707142Y-51226914D01*
X52707142Y-51226914D02*
X52735713Y-51284057D01*
X52735713Y-51284057D02*
X52735713Y-51341200D01*
X52735713Y-51341200D02*
X52707142Y-51426914D01*
X52707142Y-51426914D02*
X52364285Y-51769771D01*
X52364285Y-51769771D02*
X52735713Y-51769771D01*
X69914286Y-32139164D02*
X69914286Y-31389164D01*
X69914286Y-31389164D02*
X70142857Y-31389164D01*
X70142857Y-31389164D02*
X70200000Y-31424878D01*
X70200000Y-31424878D02*
X70228571Y-31460592D01*
X70228571Y-31460592D02*
X70257143Y-31532021D01*
X70257143Y-31532021D02*
X70257143Y-31639164D01*
X70257143Y-31639164D02*
X70228571Y-31710592D01*
X70228571Y-31710592D02*
X70200000Y-31746307D01*
X70200000Y-31746307D02*
X70142857Y-31782021D01*
X70142857Y-31782021D02*
X69914286Y-31782021D01*
X70857143Y-32067735D02*
X70828571Y-32103450D01*
X70828571Y-32103450D02*
X70742857Y-32139164D01*
X70742857Y-32139164D02*
X70685714Y-32139164D01*
X70685714Y-32139164D02*
X70600000Y-32103450D01*
X70600000Y-32103450D02*
X70542857Y-32032021D01*
X70542857Y-32032021D02*
X70514286Y-31960592D01*
X70514286Y-31960592D02*
X70485714Y-31817735D01*
X70485714Y-31817735D02*
X70485714Y-31710592D01*
X70485714Y-31710592D02*
X70514286Y-31567735D01*
X70514286Y-31567735D02*
X70542857Y-31496307D01*
X70542857Y-31496307D02*
X70600000Y-31424878D01*
X70600000Y-31424878D02*
X70685714Y-31389164D01*
X70685714Y-31389164D02*
X70742857Y-31389164D01*
X70742857Y-31389164D02*
X70828571Y-31424878D01*
X70828571Y-31424878D02*
X70857143Y-31460592D01*
X71914286Y-32067735D02*
X71885714Y-32103450D01*
X71885714Y-32103450D02*
X71800000Y-32139164D01*
X71800000Y-32139164D02*
X71742857Y-32139164D01*
X71742857Y-32139164D02*
X71657143Y-32103450D01*
X71657143Y-32103450D02*
X71600000Y-32032021D01*
X71600000Y-32032021D02*
X71571429Y-31960592D01*
X71571429Y-31960592D02*
X71542857Y-31817735D01*
X71542857Y-31817735D02*
X71542857Y-31710592D01*
X71542857Y-31710592D02*
X71571429Y-31567735D01*
X71571429Y-31567735D02*
X71600000Y-31496307D01*
X71600000Y-31496307D02*
X71657143Y-31424878D01*
X71657143Y-31424878D02*
X71742857Y-31389164D01*
X71742857Y-31389164D02*
X71800000Y-31389164D01*
X71800000Y-31389164D02*
X71885714Y-31424878D01*
X71885714Y-31424878D02*
X71914286Y-31460592D01*
X72285714Y-31389164D02*
X72400000Y-31389164D01*
X72400000Y-31389164D02*
X72457143Y-31424878D01*
X72457143Y-31424878D02*
X72514286Y-31496307D01*
X72514286Y-31496307D02*
X72542857Y-31639164D01*
X72542857Y-31639164D02*
X72542857Y-31889164D01*
X72542857Y-31889164D02*
X72514286Y-32032021D01*
X72514286Y-32032021D02*
X72457143Y-32103450D01*
X72457143Y-32103450D02*
X72400000Y-32139164D01*
X72400000Y-32139164D02*
X72285714Y-32139164D01*
X72285714Y-32139164D02*
X72228572Y-32103450D01*
X72228572Y-32103450D02*
X72171429Y-32032021D01*
X72171429Y-32032021D02*
X72142857Y-31889164D01*
X72142857Y-31889164D02*
X72142857Y-31639164D01*
X72142857Y-31639164D02*
X72171429Y-31496307D01*
X72171429Y-31496307D02*
X72228572Y-31424878D01*
X72228572Y-31424878D02*
X72285714Y-31389164D01*
X72800000Y-32139164D02*
X72800000Y-31389164D01*
X73371428Y-32139164D02*
X73085714Y-32139164D01*
X73085714Y-32139164D02*
X73085714Y-31389164D01*
X74028571Y-31853450D02*
X74485714Y-31853450D01*
X60765571Y-31671192D02*
X60694142Y-31635478D01*
X60694142Y-31635478D02*
X60622714Y-31564050D01*
X60622714Y-31564050D02*
X60515571Y-31456907D01*
X60515571Y-31456907D02*
X60444142Y-31421192D01*
X60444142Y-31421192D02*
X60372714Y-31421192D01*
X60408428Y-31599764D02*
X60337000Y-31564050D01*
X60337000Y-31564050D02*
X60265571Y-31492621D01*
X60265571Y-31492621D02*
X60229857Y-31349764D01*
X60229857Y-31349764D02*
X60229857Y-31099764D01*
X60229857Y-31099764D02*
X60265571Y-30956907D01*
X60265571Y-30956907D02*
X60337000Y-30885478D01*
X60337000Y-30885478D02*
X60408428Y-30849764D01*
X60408428Y-30849764D02*
X60551285Y-30849764D01*
X60551285Y-30849764D02*
X60622714Y-30885478D01*
X60622714Y-30885478D02*
X60694142Y-30956907D01*
X60694142Y-30956907D02*
X60729857Y-31099764D01*
X60729857Y-31099764D02*
X60729857Y-31349764D01*
X60729857Y-31349764D02*
X60694142Y-31492621D01*
X60694142Y-31492621D02*
X60622714Y-31564050D01*
X60622714Y-31564050D02*
X60551285Y-31599764D01*
X60551285Y-31599764D02*
X60408428Y-31599764D01*
X61444142Y-31599764D02*
X61015571Y-31599764D01*
X61229856Y-31599764D02*
X61229856Y-30849764D01*
X61229856Y-30849764D02*
X61158428Y-30956907D01*
X61158428Y-30956907D02*
X61086999Y-31028335D01*
X61086999Y-31028335D02*
X61015571Y-31064050D01*
D12*
X63865166Y-38283209D02*
X63698500Y-38045114D01*
X63579452Y-38283209D02*
X63579452Y-37783209D01*
X63579452Y-37783209D02*
X63769928Y-37783209D01*
X63769928Y-37783209D02*
X63817547Y-37807019D01*
X63817547Y-37807019D02*
X63841357Y-37830828D01*
X63841357Y-37830828D02*
X63865166Y-37878447D01*
X63865166Y-37878447D02*
X63865166Y-37949876D01*
X63865166Y-37949876D02*
X63841357Y-37997495D01*
X63841357Y-37997495D02*
X63817547Y-38021304D01*
X63817547Y-38021304D02*
X63769928Y-38045114D01*
X63769928Y-38045114D02*
X63579452Y-38045114D01*
X64031833Y-37783209D02*
X64341357Y-37783209D01*
X64341357Y-37783209D02*
X64174690Y-37973685D01*
X64174690Y-37973685D02*
X64246119Y-37973685D01*
X64246119Y-37973685D02*
X64293738Y-37997495D01*
X64293738Y-37997495D02*
X64317547Y-38021304D01*
X64317547Y-38021304D02*
X64341357Y-38068923D01*
X64341357Y-38068923D02*
X64341357Y-38187971D01*
X64341357Y-38187971D02*
X64317547Y-38235590D01*
X64317547Y-38235590D02*
X64293738Y-38259400D01*
X64293738Y-38259400D02*
X64246119Y-38283209D01*
X64246119Y-38283209D02*
X64103262Y-38283209D01*
X64103262Y-38283209D02*
X64055643Y-38259400D01*
X64055643Y-38259400D02*
X64031833Y-38235590D01*
X65616666Y-32977190D02*
X65592857Y-33001000D01*
X65592857Y-33001000D02*
X65521428Y-33024809D01*
X65521428Y-33024809D02*
X65473809Y-33024809D01*
X65473809Y-33024809D02*
X65402381Y-33001000D01*
X65402381Y-33001000D02*
X65354762Y-32953380D01*
X65354762Y-32953380D02*
X65330952Y-32905761D01*
X65330952Y-32905761D02*
X65307143Y-32810523D01*
X65307143Y-32810523D02*
X65307143Y-32739095D01*
X65307143Y-32739095D02*
X65330952Y-32643857D01*
X65330952Y-32643857D02*
X65354762Y-32596238D01*
X65354762Y-32596238D02*
X65402381Y-32548619D01*
X65402381Y-32548619D02*
X65473809Y-32524809D01*
X65473809Y-32524809D02*
X65521428Y-32524809D01*
X65521428Y-32524809D02*
X65592857Y-32548619D01*
X65592857Y-32548619D02*
X65616666Y-32572428D01*
X65783333Y-32524809D02*
X66092857Y-32524809D01*
X66092857Y-32524809D02*
X65926190Y-32715285D01*
X65926190Y-32715285D02*
X65997619Y-32715285D01*
X65997619Y-32715285D02*
X66045238Y-32739095D01*
X66045238Y-32739095D02*
X66069047Y-32762904D01*
X66069047Y-32762904D02*
X66092857Y-32810523D01*
X66092857Y-32810523D02*
X66092857Y-32929571D01*
X66092857Y-32929571D02*
X66069047Y-32977190D01*
X66069047Y-32977190D02*
X66045238Y-33001000D01*
X66045238Y-33001000D02*
X65997619Y-33024809D01*
X65997619Y-33024809D02*
X65854762Y-33024809D01*
X65854762Y-33024809D02*
X65807143Y-33001000D01*
X65807143Y-33001000D02*
X65783333Y-32977190D01*
D11*
X63642857Y-42726914D02*
X63585714Y-42698342D01*
X63585714Y-42698342D02*
X63528571Y-42641200D01*
X63528571Y-42641200D02*
X63442857Y-42555485D01*
X63442857Y-42555485D02*
X63385714Y-42526914D01*
X63385714Y-42526914D02*
X63328571Y-42526914D01*
X63357142Y-42669771D02*
X63300000Y-42641200D01*
X63300000Y-42641200D02*
X63242857Y-42584057D01*
X63242857Y-42584057D02*
X63214285Y-42469771D01*
X63214285Y-42469771D02*
X63214285Y-42269771D01*
X63214285Y-42269771D02*
X63242857Y-42155485D01*
X63242857Y-42155485D02*
X63300000Y-42098342D01*
X63300000Y-42098342D02*
X63357142Y-42069771D01*
X63357142Y-42069771D02*
X63471428Y-42069771D01*
X63471428Y-42069771D02*
X63528571Y-42098342D01*
X63528571Y-42098342D02*
X63585714Y-42155485D01*
X63585714Y-42155485D02*
X63614285Y-42269771D01*
X63614285Y-42269771D02*
X63614285Y-42469771D01*
X63614285Y-42469771D02*
X63585714Y-42584057D01*
X63585714Y-42584057D02*
X63528571Y-42641200D01*
X63528571Y-42641200D02*
X63471428Y-42669771D01*
X63471428Y-42669771D02*
X63357142Y-42669771D01*
X64157142Y-42069771D02*
X63871428Y-42069771D01*
X63871428Y-42069771D02*
X63842856Y-42355485D01*
X63842856Y-42355485D02*
X63871428Y-42326914D01*
X63871428Y-42326914D02*
X63928571Y-42298342D01*
X63928571Y-42298342D02*
X64071428Y-42298342D01*
X64071428Y-42298342D02*
X64128571Y-42326914D01*
X64128571Y-42326914D02*
X64157142Y-42355485D01*
X64157142Y-42355485D02*
X64185713Y-42412628D01*
X64185713Y-42412628D02*
X64185713Y-42555485D01*
X64185713Y-42555485D02*
X64157142Y-42612628D01*
X64157142Y-42612628D02*
X64128571Y-42641200D01*
X64128571Y-42641200D02*
X64071428Y-42669771D01*
X64071428Y-42669771D02*
X63928571Y-42669771D01*
X63928571Y-42669771D02*
X63871428Y-42641200D01*
X63871428Y-42641200D02*
X63842856Y-42612628D01*
D12*
X64872552Y-37913809D02*
X64872552Y-37413809D01*
X64872552Y-37413809D02*
X64991600Y-37413809D01*
X64991600Y-37413809D02*
X65063028Y-37437619D01*
X65063028Y-37437619D02*
X65110647Y-37485238D01*
X65110647Y-37485238D02*
X65134457Y-37532857D01*
X65134457Y-37532857D02*
X65158266Y-37628095D01*
X65158266Y-37628095D02*
X65158266Y-37699523D01*
X65158266Y-37699523D02*
X65134457Y-37794761D01*
X65134457Y-37794761D02*
X65110647Y-37842380D01*
X65110647Y-37842380D02*
X65063028Y-37890000D01*
X65063028Y-37890000D02*
X64991600Y-37913809D01*
X64991600Y-37913809D02*
X64872552Y-37913809D01*
X65348743Y-37461428D02*
X65372552Y-37437619D01*
X65372552Y-37437619D02*
X65420171Y-37413809D01*
X65420171Y-37413809D02*
X65539219Y-37413809D01*
X65539219Y-37413809D02*
X65586838Y-37437619D01*
X65586838Y-37437619D02*
X65610647Y-37461428D01*
X65610647Y-37461428D02*
X65634457Y-37509047D01*
X65634457Y-37509047D02*
X65634457Y-37556666D01*
X65634457Y-37556666D02*
X65610647Y-37628095D01*
X65610647Y-37628095D02*
X65324933Y-37913809D01*
X65324933Y-37913809D02*
X65634457Y-37913809D01*
X59708266Y-48611909D02*
X59541600Y-48373814D01*
X59422552Y-48611909D02*
X59422552Y-48111909D01*
X59422552Y-48111909D02*
X59613028Y-48111909D01*
X59613028Y-48111909D02*
X59660647Y-48135719D01*
X59660647Y-48135719D02*
X59684457Y-48159528D01*
X59684457Y-48159528D02*
X59708266Y-48207147D01*
X59708266Y-48207147D02*
X59708266Y-48278576D01*
X59708266Y-48278576D02*
X59684457Y-48326195D01*
X59684457Y-48326195D02*
X59660647Y-48350004D01*
X59660647Y-48350004D02*
X59613028Y-48373814D01*
X59613028Y-48373814D02*
X59422552Y-48373814D01*
X59946362Y-48611909D02*
X60041600Y-48611909D01*
X60041600Y-48611909D02*
X60089219Y-48588100D01*
X60089219Y-48588100D02*
X60113028Y-48564290D01*
X60113028Y-48564290D02*
X60160647Y-48492861D01*
X60160647Y-48492861D02*
X60184457Y-48397623D01*
X60184457Y-48397623D02*
X60184457Y-48207147D01*
X60184457Y-48207147D02*
X60160647Y-48159528D01*
X60160647Y-48159528D02*
X60136838Y-48135719D01*
X60136838Y-48135719D02*
X60089219Y-48111909D01*
X60089219Y-48111909D02*
X59993981Y-48111909D01*
X59993981Y-48111909D02*
X59946362Y-48135719D01*
X59946362Y-48135719D02*
X59922552Y-48159528D01*
X59922552Y-48159528D02*
X59898743Y-48207147D01*
X59898743Y-48207147D02*
X59898743Y-48326195D01*
X59898743Y-48326195D02*
X59922552Y-48373814D01*
X59922552Y-48373814D02*
X59946362Y-48397623D01*
X59946362Y-48397623D02*
X59993981Y-48421433D01*
X59993981Y-48421433D02*
X60089219Y-48421433D01*
X60089219Y-48421433D02*
X60136838Y-48397623D01*
X60136838Y-48397623D02*
X60160647Y-48373814D01*
X60160647Y-48373814D02*
X60184457Y-48326195D01*
D11*
X62630000Y-47804819D02*
X62330000Y-47328628D01*
X62115714Y-47804819D02*
X62115714Y-46804819D01*
X62115714Y-46804819D02*
X62458571Y-46804819D01*
X62458571Y-46804819D02*
X62544286Y-46852438D01*
X62544286Y-46852438D02*
X62587143Y-46900057D01*
X62587143Y-46900057D02*
X62630000Y-46995295D01*
X62630000Y-46995295D02*
X62630000Y-47138152D01*
X62630000Y-47138152D02*
X62587143Y-47233390D01*
X62587143Y-47233390D02*
X62544286Y-47281009D01*
X62544286Y-47281009D02*
X62458571Y-47328628D01*
X62458571Y-47328628D02*
X62115714Y-47328628D01*
X63144286Y-47233390D02*
X63058571Y-47185771D01*
X63058571Y-47185771D02*
X63015714Y-47138152D01*
X63015714Y-47138152D02*
X62972857Y-47042914D01*
X62972857Y-47042914D02*
X62972857Y-46995295D01*
X62972857Y-46995295D02*
X63015714Y-46900057D01*
X63015714Y-46900057D02*
X63058571Y-46852438D01*
X63058571Y-46852438D02*
X63144286Y-46804819D01*
X63144286Y-46804819D02*
X63315714Y-46804819D01*
X63315714Y-46804819D02*
X63401429Y-46852438D01*
X63401429Y-46852438D02*
X63444286Y-46900057D01*
X63444286Y-46900057D02*
X63487143Y-46995295D01*
X63487143Y-46995295D02*
X63487143Y-47042914D01*
X63487143Y-47042914D02*
X63444286Y-47138152D01*
X63444286Y-47138152D02*
X63401429Y-47185771D01*
X63401429Y-47185771D02*
X63315714Y-47233390D01*
X63315714Y-47233390D02*
X63144286Y-47233390D01*
X63144286Y-47233390D02*
X63058571Y-47281009D01*
X63058571Y-47281009D02*
X63015714Y-47328628D01*
X63015714Y-47328628D02*
X62972857Y-47423866D01*
X62972857Y-47423866D02*
X62972857Y-47614342D01*
X62972857Y-47614342D02*
X63015714Y-47709580D01*
X63015714Y-47709580D02*
X63058571Y-47757200D01*
X63058571Y-47757200D02*
X63144286Y-47804819D01*
X63144286Y-47804819D02*
X63315714Y-47804819D01*
X63315714Y-47804819D02*
X63401429Y-47757200D01*
X63401429Y-47757200D02*
X63444286Y-47709580D01*
X63444286Y-47709580D02*
X63487143Y-47614342D01*
X63487143Y-47614342D02*
X63487143Y-47423866D01*
X63487143Y-47423866D02*
X63444286Y-47328628D01*
X63444286Y-47328628D02*
X63401429Y-47281009D01*
X63401429Y-47281009D02*
X63315714Y-47233390D01*
X52600000Y-41712628D02*
X52571428Y-41741200D01*
X52571428Y-41741200D02*
X52485714Y-41769771D01*
X52485714Y-41769771D02*
X52428571Y-41769771D01*
X52428571Y-41769771D02*
X52342857Y-41741200D01*
X52342857Y-41741200D02*
X52285714Y-41684057D01*
X52285714Y-41684057D02*
X52257143Y-41626914D01*
X52257143Y-41626914D02*
X52228571Y-41512628D01*
X52228571Y-41512628D02*
X52228571Y-41426914D01*
X52228571Y-41426914D02*
X52257143Y-41312628D01*
X52257143Y-41312628D02*
X52285714Y-41255485D01*
X52285714Y-41255485D02*
X52342857Y-41198342D01*
X52342857Y-41198342D02*
X52428571Y-41169771D01*
X52428571Y-41169771D02*
X52485714Y-41169771D01*
X52485714Y-41169771D02*
X52571428Y-41198342D01*
X52571428Y-41198342D02*
X52600000Y-41226914D01*
X53171428Y-41769771D02*
X52828571Y-41769771D01*
X53000000Y-41769771D02*
X53000000Y-41169771D01*
X53000000Y-41169771D02*
X52942857Y-41255485D01*
X52942857Y-41255485D02*
X52885714Y-41312628D01*
X52885714Y-41312628D02*
X52828571Y-41341200D01*
X60000000Y-45212628D02*
X59971428Y-45241200D01*
X59971428Y-45241200D02*
X59885714Y-45269771D01*
X59885714Y-45269771D02*
X59828571Y-45269771D01*
X59828571Y-45269771D02*
X59742857Y-45241200D01*
X59742857Y-45241200D02*
X59685714Y-45184057D01*
X59685714Y-45184057D02*
X59657143Y-45126914D01*
X59657143Y-45126914D02*
X59628571Y-45012628D01*
X59628571Y-45012628D02*
X59628571Y-44926914D01*
X59628571Y-44926914D02*
X59657143Y-44812628D01*
X59657143Y-44812628D02*
X59685714Y-44755485D01*
X59685714Y-44755485D02*
X59742857Y-44698342D01*
X59742857Y-44698342D02*
X59828571Y-44669771D01*
X59828571Y-44669771D02*
X59885714Y-44669771D01*
X59885714Y-44669771D02*
X59971428Y-44698342D01*
X59971428Y-44698342D02*
X60000000Y-44726914D01*
X60228571Y-44726914D02*
X60257143Y-44698342D01*
X60257143Y-44698342D02*
X60314286Y-44669771D01*
X60314286Y-44669771D02*
X60457143Y-44669771D01*
X60457143Y-44669771D02*
X60514286Y-44698342D01*
X60514286Y-44698342D02*
X60542857Y-44726914D01*
X60542857Y-44726914D02*
X60571428Y-44784057D01*
X60571428Y-44784057D02*
X60571428Y-44841200D01*
X60571428Y-44841200D02*
X60542857Y-44926914D01*
X60542857Y-44926914D02*
X60200000Y-45269771D01*
X60200000Y-45269771D02*
X60571428Y-45269771D01*
D12*
X58718166Y-29524809D02*
X58551500Y-29286714D01*
X58432452Y-29524809D02*
X58432452Y-29024809D01*
X58432452Y-29024809D02*
X58622928Y-29024809D01*
X58622928Y-29024809D02*
X58670547Y-29048619D01*
X58670547Y-29048619D02*
X58694357Y-29072428D01*
X58694357Y-29072428D02*
X58718166Y-29120047D01*
X58718166Y-29120047D02*
X58718166Y-29191476D01*
X58718166Y-29191476D02*
X58694357Y-29239095D01*
X58694357Y-29239095D02*
X58670547Y-29262904D01*
X58670547Y-29262904D02*
X58622928Y-29286714D01*
X58622928Y-29286714D02*
X58432452Y-29286714D01*
X59170547Y-29024809D02*
X58932452Y-29024809D01*
X58932452Y-29024809D02*
X58908643Y-29262904D01*
X58908643Y-29262904D02*
X58932452Y-29239095D01*
X58932452Y-29239095D02*
X58980071Y-29215285D01*
X58980071Y-29215285D02*
X59099119Y-29215285D01*
X59099119Y-29215285D02*
X59146738Y-29239095D01*
X59146738Y-29239095D02*
X59170547Y-29262904D01*
X59170547Y-29262904D02*
X59194357Y-29310523D01*
X59194357Y-29310523D02*
X59194357Y-29429571D01*
X59194357Y-29429571D02*
X59170547Y-29477190D01*
X59170547Y-29477190D02*
X59146738Y-29501000D01*
X59146738Y-29501000D02*
X59099119Y-29524809D01*
X59099119Y-29524809D02*
X58980071Y-29524809D01*
X58980071Y-29524809D02*
X58932452Y-29501000D01*
X58932452Y-29501000D02*
X58908643Y-29477190D01*
D11*
X72250000Y-35269819D02*
X71950000Y-34793628D01*
X71735714Y-35269819D02*
X71735714Y-34269819D01*
X71735714Y-34269819D02*
X72078571Y-34269819D01*
X72078571Y-34269819D02*
X72164286Y-34317438D01*
X72164286Y-34317438D02*
X72207143Y-34365057D01*
X72207143Y-34365057D02*
X72250000Y-34460295D01*
X72250000Y-34460295D02*
X72250000Y-34603152D01*
X72250000Y-34603152D02*
X72207143Y-34698390D01*
X72207143Y-34698390D02*
X72164286Y-34746009D01*
X72164286Y-34746009D02*
X72078571Y-34793628D01*
X72078571Y-34793628D02*
X71735714Y-34793628D01*
X72550000Y-34269819D02*
X73150000Y-34269819D01*
X73150000Y-34269819D02*
X72764286Y-35269819D01*
D12*
X62718166Y-35666409D02*
X62551500Y-35428314D01*
X62432452Y-35666409D02*
X62432452Y-35166409D01*
X62432452Y-35166409D02*
X62622928Y-35166409D01*
X62622928Y-35166409D02*
X62670547Y-35190219D01*
X62670547Y-35190219D02*
X62694357Y-35214028D01*
X62694357Y-35214028D02*
X62718166Y-35261647D01*
X62718166Y-35261647D02*
X62718166Y-35333076D01*
X62718166Y-35333076D02*
X62694357Y-35380695D01*
X62694357Y-35380695D02*
X62670547Y-35404504D01*
X62670547Y-35404504D02*
X62622928Y-35428314D01*
X62622928Y-35428314D02*
X62432452Y-35428314D01*
X63146738Y-35333076D02*
X63146738Y-35666409D01*
X63027690Y-35142600D02*
X62908643Y-35499742D01*
X62908643Y-35499742D02*
X63218166Y-35499742D01*
D11*
X51930333Y-70174295D02*
X51930333Y-70745723D01*
X51930333Y-70745723D02*
X51892238Y-70860009D01*
X51892238Y-70860009D02*
X51816047Y-70936200D01*
X51816047Y-70936200D02*
X51701762Y-70974295D01*
X51701762Y-70974295D02*
X51625571Y-70974295D01*
X52273190Y-70250485D02*
X52311286Y-70212390D01*
X52311286Y-70212390D02*
X52387476Y-70174295D01*
X52387476Y-70174295D02*
X52577952Y-70174295D01*
X52577952Y-70174295D02*
X52654143Y-70212390D01*
X52654143Y-70212390D02*
X52692238Y-70250485D01*
X52692238Y-70250485D02*
X52730333Y-70326676D01*
X52730333Y-70326676D02*
X52730333Y-70402866D01*
X52730333Y-70402866D02*
X52692238Y-70517152D01*
X52692238Y-70517152D02*
X52235095Y-70974295D01*
X52235095Y-70974295D02*
X52730333Y-70974295D01*
X51742857Y-36669771D02*
X51742857Y-37155485D01*
X51742857Y-37155485D02*
X51771428Y-37212628D01*
X51771428Y-37212628D02*
X51800000Y-37241200D01*
X51800000Y-37241200D02*
X51857142Y-37269771D01*
X51857142Y-37269771D02*
X51971428Y-37269771D01*
X51971428Y-37269771D02*
X52028571Y-37241200D01*
X52028571Y-37241200D02*
X52057142Y-37212628D01*
X52057142Y-37212628D02*
X52085714Y-37155485D01*
X52085714Y-37155485D02*
X52085714Y-36669771D01*
X52685713Y-37269771D02*
X52342856Y-37269771D01*
X52514285Y-37269771D02*
X52514285Y-36669771D01*
X52514285Y-36669771D02*
X52457142Y-36755485D01*
X52457142Y-36755485D02*
X52399999Y-36812628D01*
X52399999Y-36812628D02*
X52342856Y-36841200D01*
D12*
X55175066Y-32724809D02*
X55008400Y-32486714D01*
X54889352Y-32724809D02*
X54889352Y-32224809D01*
X54889352Y-32224809D02*
X55079828Y-32224809D01*
X55079828Y-32224809D02*
X55127447Y-32248619D01*
X55127447Y-32248619D02*
X55151257Y-32272428D01*
X55151257Y-32272428D02*
X55175066Y-32320047D01*
X55175066Y-32320047D02*
X55175066Y-32391476D01*
X55175066Y-32391476D02*
X55151257Y-32439095D01*
X55151257Y-32439095D02*
X55127447Y-32462904D01*
X55127447Y-32462904D02*
X55079828Y-32486714D01*
X55079828Y-32486714D02*
X54889352Y-32486714D01*
X55651257Y-32724809D02*
X55365543Y-32724809D01*
X55508400Y-32724809D02*
X55508400Y-32224809D01*
X55508400Y-32224809D02*
X55460781Y-32296238D01*
X55460781Y-32296238D02*
X55413162Y-32343857D01*
X55413162Y-32343857D02*
X55365543Y-32367666D01*
D11*
X50642857Y-45126914D02*
X50585714Y-45098342D01*
X50585714Y-45098342D02*
X50528571Y-45041200D01*
X50528571Y-45041200D02*
X50442857Y-44955485D01*
X50442857Y-44955485D02*
X50385714Y-44926914D01*
X50385714Y-44926914D02*
X50328571Y-44926914D01*
X50357142Y-45069771D02*
X50300000Y-45041200D01*
X50300000Y-45041200D02*
X50242857Y-44984057D01*
X50242857Y-44984057D02*
X50214285Y-44869771D01*
X50214285Y-44869771D02*
X50214285Y-44669771D01*
X50214285Y-44669771D02*
X50242857Y-44555485D01*
X50242857Y-44555485D02*
X50300000Y-44498342D01*
X50300000Y-44498342D02*
X50357142Y-44469771D01*
X50357142Y-44469771D02*
X50471428Y-44469771D01*
X50471428Y-44469771D02*
X50528571Y-44498342D01*
X50528571Y-44498342D02*
X50585714Y-44555485D01*
X50585714Y-44555485D02*
X50614285Y-44669771D01*
X50614285Y-44669771D02*
X50614285Y-44869771D01*
X50614285Y-44869771D02*
X50585714Y-44984057D01*
X50585714Y-44984057D02*
X50528571Y-45041200D01*
X50528571Y-45041200D02*
X50471428Y-45069771D01*
X50471428Y-45069771D02*
X50357142Y-45069771D01*
X50814285Y-44469771D02*
X51185713Y-44469771D01*
X51185713Y-44469771D02*
X50985713Y-44698342D01*
X50985713Y-44698342D02*
X51071428Y-44698342D01*
X51071428Y-44698342D02*
X51128571Y-44726914D01*
X51128571Y-44726914D02*
X51157142Y-44755485D01*
X51157142Y-44755485D02*
X51185713Y-44812628D01*
X51185713Y-44812628D02*
X51185713Y-44955485D01*
X51185713Y-44955485D02*
X51157142Y-45012628D01*
X51157142Y-45012628D02*
X51128571Y-45041200D01*
X51128571Y-45041200D02*
X51071428Y-45069771D01*
X51071428Y-45069771D02*
X50899999Y-45069771D01*
X50899999Y-45069771D02*
X50842856Y-45041200D01*
X50842856Y-45041200D02*
X50814285Y-45012628D01*
D13*
%TO.C,D3*%
X54822900Y-49941350D02*
X54822900Y-51510650D01*
X56677100Y-51510650D02*
X56677100Y-49941350D01*
%TO.C,Q4*%
X62607337Y-37823850D02*
X63028700Y-37823850D01*
X63028700Y-36376050D02*
X62607337Y-36376050D01*
X63028700Y-36576710D02*
X63028700Y-36376050D01*
X63028700Y-37823850D02*
X63028700Y-37623190D01*
X62000000Y-35233050D02*
G75*
G02*
X61746000Y-35233050I-127000J0D01*
G01*
X61746000Y-35233050D02*
G75*
G02*
X62000000Y-35233050I127000J0D01*
G01*
%TO.C,R6*%
X63688400Y-49564900D02*
X63688400Y-52435100D01*
X63688400Y-52435100D02*
X70241600Y-52435100D01*
X70241600Y-49564900D02*
X63688400Y-49564900D01*
X70241600Y-52435100D02*
X70241600Y-49564900D01*
%TO.C,Q2*%
X50624400Y-48618300D02*
X50624400Y-50269300D01*
X51637860Y-48618300D02*
X50624400Y-48618300D01*
X51909640Y-50269300D02*
X52590360Y-50269300D01*
X53875600Y-48618300D02*
X52862140Y-48618300D01*
X53875600Y-50269300D02*
X53875600Y-48618300D01*
X49608400Y-50713800D02*
G75*
G02*
X49354400Y-50713800I-127000J0D01*
G01*
X49354400Y-50713800D02*
G75*
G02*
X49608400Y-50713800I127000J0D01*
G01*
D14*
%TO.C,PC COIL -*%
X73950000Y-29500000D02*
G75*
G02*
X70550000Y-29500000I-1700000J0D01*
G01*
X70550000Y-29500000D02*
G75*
G02*
X73950000Y-29500000I1700000J0D01*
G01*
D13*
%TO.C,Q1*%
X62674500Y-30981140D02*
X62674500Y-31661860D01*
X62674500Y-32972500D02*
X64325500Y-32972500D01*
X64325500Y-29670500D02*
X62674500Y-29670500D01*
X64325500Y-30709360D02*
X64325500Y-29670500D01*
X64325500Y-32972500D02*
X64325500Y-31933640D01*
X62306200Y-28527500D02*
G75*
G02*
X62052200Y-28527500I-127000J0D01*
G01*
X62052200Y-28527500D02*
G75*
G02*
X62306200Y-28527500I127000J0D01*
G01*
%TO.C,C3*%
X66373000Y-32057549D02*
X66373000Y-33442451D01*
X69127000Y-33442451D02*
X69127000Y-32057549D01*
%TO.C,Q5*%
X60368300Y-40874400D02*
X60368300Y-41887860D01*
X60368300Y-43112140D02*
X60368300Y-44125600D01*
X60368300Y-44125600D02*
X62019300Y-44125600D01*
X62019300Y-40874400D02*
X60368300Y-40874400D01*
X62019300Y-42840360D02*
X62019300Y-42159640D01*
X62590800Y-45268600D02*
G75*
G02*
X62336800Y-45268600I-127000J0D01*
G01*
X62336800Y-45268600D02*
G75*
G02*
X62590800Y-45268600I127000J0D01*
G01*
%TO.C,D2*%
X65822900Y-36965350D02*
X65822900Y-38534650D01*
X67677100Y-38534650D02*
X67677100Y-36965350D01*
%TO.C,R8*%
X63688400Y-45814900D02*
X63688400Y-48685100D01*
X63688400Y-48685100D02*
X70241600Y-48685100D01*
X70241600Y-45814900D02*
X63688400Y-45814900D01*
X70241600Y-48685100D02*
X70241600Y-45814900D01*
%TO.C,C1*%
X54707549Y-42427000D02*
X56292451Y-42427000D01*
X56292451Y-40573000D02*
X54707549Y-40573000D01*
%TO.C,C2*%
X56707549Y-45927000D02*
X58292451Y-45927000D01*
X58292451Y-44073000D02*
X56707549Y-44073000D01*
%TO.C,R7*%
X71064900Y-35723400D02*
X71064900Y-42276600D01*
X71064900Y-42276600D02*
X73935100Y-42276600D01*
X73935100Y-35723400D02*
X71064900Y-35723400D01*
X73935100Y-42276600D02*
X73935100Y-35723400D01*
D15*
%TO.C,J2*%
X49530000Y-67310000D02*
X49530000Y-69850000D01*
X49530000Y-67310000D02*
X74930000Y-67310000D01*
X74930000Y-67310000D02*
X74930000Y-69850000D01*
X74930000Y-69850000D02*
X49530000Y-69850000D01*
D16*
X49911000Y-66929000D02*
G75*
G02*
X49657000Y-66929000I-127000J0D01*
G01*
X49657000Y-66929000D02*
G75*
G02*
X49911000Y-66929000I127000J0D01*
G01*
D17*
%TO.C,U1*%
X54550000Y-34475000D02*
X58450000Y-34475000D01*
X54550000Y-39525000D02*
X58450000Y-39525000D01*
D18*
X52560000Y-34695000D02*
G75*
G02*
X52360000Y-34695000I-100000J0D01*
G01*
X52360000Y-34695000D02*
G75*
G02*
X52560000Y-34695000I100000J0D01*
G01*
D13*
%TO.C,R1*%
X57062250Y-33300100D02*
X57437750Y-33300100D01*
X57437750Y-31699900D02*
X57062250Y-31699900D01*
D15*
%TO.C,J1*%
X49530000Y-24130000D02*
X49530000Y-26670000D01*
X49530000Y-24130000D02*
X74930000Y-24130000D01*
X74930000Y-24130000D02*
X74930000Y-26670000D01*
X74930000Y-26670000D02*
X49530000Y-26670000D01*
D16*
X49911000Y-23749000D02*
G75*
G02*
X49657000Y-23749000I-127000J0D01*
G01*
X49657000Y-23749000D02*
G75*
G02*
X49911000Y-23749000I127000J0D01*
G01*
D13*
%TO.C,Q3*%
X52118300Y-44457140D02*
X52118300Y-45137860D01*
X52118300Y-46423100D02*
X53769300Y-46423100D01*
X53769300Y-43171900D02*
X52118300Y-43171900D01*
X53769300Y-44185360D02*
X53769300Y-43171900D01*
X53769300Y-46423100D02*
X53769300Y-45409640D01*
X51800800Y-42028900D02*
G75*
G02*
X51546800Y-42028900I-127000J0D01*
G01*
X51546800Y-42028900D02*
G75*
G02*
X51800800Y-42028900I127000J0D01*
G01*
%TD*%
M02*
