M48
; DRILL file {KiCad 8.0.7} date 2025-01-28T21:13:19-0500
; FORMAT={-:-/ absolute / inch / decimal}
; #@! TF.CreationDate,2025-01-28T21:13:19-05:00
; #@! TF.GenerationSoftware,Kicad,Pcbnew,8.0.7
; #@! TF.FileFunction,Plated,1,2,PTH
FMAT,2
INCH
; #@! TA.AperFunction,Plated,PTH,ComponentDrill
T1C0.0394
%
G90
G05
T1
X0.8878Y-0.8878
X0.8878Y-0.9878
X0.8878Y-1.0878
X0.8878Y-1.1878
X0.8878Y-1.2878
X0.8878Y-1.3878
X0.8878Y-1.4878
X0.8878Y-1.5878
X0.8878Y-1.6878
X0.8878Y-1.7878
X2.5878Y-0.8878
X2.5878Y-0.9878
X2.5878Y-1.0878
X2.5878Y-1.1878
X2.5878Y-1.2878
X2.5878Y-1.3878
X2.5878Y-1.4878
X2.5878Y-1.5878
X2.5878Y-1.6878
X2.5878Y-1.7878
M30
