M48
; DRILL file {KiCad 9.0.5} date 2025-11-14T08:21:59-0500
; FORMAT={-:-/ absolute / metric / decimal}
; #@! TF.CreationDate,2025-11-14T08:21:59-05:00
; #@! TF.GenerationSoftware,Kicad,Pcbnew,9.0.5
; #@! TF.FileFunction,Plated,1,2,PTH
FMAT,2
METRIC
; #@! TA.AperFunction,Plated,PTH,ViaDrill
T1C0.300
; #@! TA.AperFunction,Plated,PTH,ComponentDrill
T2C0.750
; #@! TA.AperFunction,Plated,PTH,ComponentDrill
T3C0.864
; #@! TA.AperFunction,Plated,PTH,ComponentDrill
T4C0.940
; #@! TA.AperFunction,Plated,PTH,ComponentDrill
T5C1.020
; #@! TA.AperFunction,Plated,PTH,ComponentDrill
T6C1.100
; #@! TA.AperFunction,Plated,PTH,ComponentDrill
T7C1.300
; #@! TA.AperFunction,Plated,PTH,ComponentDrill
T8C1.600
; #@! TA.AperFunction,Plated,PTH,ComponentDrill
T9C3.200
%
G90
G05
T1
X95.519Y-168.386
X95.583Y-164.719
X98.425Y-168.402
X98.473Y-164.719
X102.87Y-138.557
X102.897Y-137.187
X102.918Y-139.64
X102.918Y-144.651
X107.14Y-168.402
X107.219Y-154.432
X107.267Y-164.719
X108.585Y-155.829
X109.728Y-156.845
X110.157Y-164.719
X110.236Y-168.402
X115.824Y-156.972
T2
X122.5Y-82.825
X122.5Y-84.825
X122.5Y-86.825
X122.5Y-88.825
X122.5Y-90.825
X122.5Y-92.825
X122.5Y-94.825
X122.5Y-96.825
X122.5Y-98.825
X122.5Y-100.825
X122.5Y-102.825
X122.5Y-104.825
X122.5Y-106.825
X122.5Y-108.825
X122.5Y-110.825
X135.0Y-82.825
X135.0Y-84.825
X135.0Y-86.825
X135.0Y-88.825
X135.0Y-90.825
X135.0Y-92.825
X135.0Y-94.825
X135.0Y-96.825
X135.0Y-98.825
X135.0Y-100.825
X135.0Y-102.825
X135.0Y-104.825
X135.0Y-106.825
X135.0Y-108.825
X135.0Y-110.825
X147.5Y-82.825
X147.5Y-84.825
X147.5Y-86.825
X147.5Y-88.825
X147.5Y-90.825
X147.5Y-92.825
X147.5Y-94.825
X147.5Y-96.825
X147.5Y-98.825
X147.5Y-100.825
X147.5Y-102.825
X147.5Y-104.825
X147.5Y-106.825
X147.5Y-108.825
X147.5Y-110.825
T3
X121.031Y-119.126
X121.031Y-130.81
X124.32Y-130.858
X124.32Y-142.542
T4
X149.733Y-29.646
X149.733Y-32.186
X149.733Y-34.726
X149.733Y-37.266
X149.733Y-39.806
X149.733Y-42.346
X149.733Y-44.886
X149.733Y-47.426
X149.733Y-49.966
X149.733Y-52.506
X149.733Y-55.046
X149.733Y-57.586
X149.733Y-60.126
X149.733Y-62.666
X149.733Y-65.206
X149.733Y-67.746
X149.733Y-70.286
X149.733Y-72.826
X149.733Y-75.366
X149.733Y-77.906
X149.733Y-121.146
X149.733Y-123.686
X149.733Y-126.226
X149.733Y-128.766
X149.733Y-131.306
X149.733Y-133.846
X149.733Y-136.386
X149.733Y-138.926
X149.733Y-141.466
X149.733Y-144.006
X149.733Y-146.546
X149.733Y-149.086
X149.733Y-151.626
X149.733Y-154.166
X149.733Y-156.706
X149.733Y-159.246
X149.733Y-161.786
X149.733Y-164.326
X149.733Y-166.866
X149.733Y-169.406
T5
X119.253Y-169.406
X121.793Y-169.406
X124.333Y-169.406
X126.873Y-169.406
X129.413Y-169.406
X131.953Y-169.406
X134.493Y-169.406
X137.033Y-169.406
X139.573Y-169.406
X142.113Y-169.406
T6
X111.433Y-49.776
X111.433Y-52.546
X111.433Y-55.316
X111.433Y-58.086
X111.433Y-60.856
X111.433Y-63.626
X111.433Y-66.396
X111.433Y-90.096
X111.433Y-92.866
X111.433Y-95.636
X111.433Y-98.406
X111.433Y-101.176
X111.433Y-103.946
X111.433Y-106.716
X111.433Y-130.596
X111.433Y-133.366
X111.433Y-136.136
X111.433Y-138.906
X111.433Y-141.676
X111.433Y-144.446
X111.433Y-147.216
X113.973Y-48.391
X113.973Y-51.161
X113.973Y-53.931
X113.973Y-56.701
X113.973Y-59.471
X113.973Y-62.241
X113.973Y-65.011
X113.973Y-67.781
X113.973Y-88.711
X113.973Y-91.481
X113.973Y-94.251
X113.973Y-97.021
X113.973Y-99.791
X113.973Y-102.561
X113.973Y-105.331
X113.973Y-108.101
X113.973Y-129.211
X113.973Y-131.981
X113.973Y-134.751
X113.973Y-137.521
X113.973Y-140.291
X113.973Y-143.061
X113.973Y-145.831
X113.973Y-148.601
X119.253Y-29.646
X121.793Y-29.646
X124.333Y-29.646
X126.873Y-29.646
X129.413Y-29.646
X131.953Y-29.646
X134.493Y-29.646
X137.033Y-29.646
X139.573Y-29.646
X142.113Y-29.646
T7
X120.65Y-36.83
X120.904Y-149.606
X120.904Y-157.806
X128.85Y-36.83
X130.81Y-149.606
X130.81Y-157.806
X141.376Y-128.808
X141.376Y-137.008
X141.411Y-149.51
X141.411Y-157.71
X142.24Y-34.925
X142.24Y-43.125
T8
X120.752Y-43.51
X120.752Y-46.914
X130.658Y-43.51
X130.658Y-46.914
T9
X112.703Y-41.426
X112.703Y-74.746
X112.703Y-81.746
X112.703Y-115.066
X112.703Y-122.246
X112.703Y-155.566
M30
