%TF.GenerationSoftware,KiCad,Pcbnew,9.0.5*%
%TF.CreationDate,2025-11-14T08:22:00-05:00*%
%TF.ProjectId,I-O Board V3.0,492d4f20-426f-4617-9264-2056332e302e,rev?*%
%TF.SameCoordinates,Original*%
%TF.FileFunction,Copper,L2,Bot*%
%TF.FilePolarity,Positive*%
%FSLAX46Y46*%
G04 Gerber Fmt 4.6, Leading zero omitted, Abs format (unit mm)*
G04 Created by KiCad (PCBNEW 9.0.5) date 2025-11-14 08:22:00*
%MOMM*%
%LPD*%
G01*
G04 APERTURE LIST*
G04 Aperture macros list*
%AMRoundRect*
0 Rectangle with rounded corners*
0 $1 Rounding radius*
0 $2 $3 $4 $5 $6 $7 $8 $9 X,Y pos of 4 corners*
0 Add a 4 corners polygon primitive as box body*
4,1,4,$2,$3,$4,$5,$6,$7,$8,$9,$2,$3,0*
0 Add four circle primitives for the rounded corners*
1,1,$1+$1,$2,$3*
1,1,$1+$1,$4,$5*
1,1,$1+$1,$6,$7*
1,1,$1+$1,$8,$9*
0 Add four rect primitives between the rounded corners*
20,1,$1+$1,$2,$3,$4,$5,0*
20,1,$1+$1,$4,$5,$6,$7,0*
20,1,$1+$1,$6,$7,$8,$9,0*
20,1,$1+$1,$8,$9,$2,$3,0*%
G04 Aperture macros list end*
%TA.AperFunction,ComponentPad*%
%ADD10RoundRect,0.250000X-0.625000X0.350000X-0.625000X-0.350000X0.625000X-0.350000X0.625000X0.350000X0*%
%TD*%
%TA.AperFunction,ComponentPad*%
%ADD11O,1.750000X1.200000*%
%TD*%
%TA.AperFunction,ComponentPad*%
%ADD12R,1.650000X1.650000*%
%TD*%
%TA.AperFunction,ComponentPad*%
%ADD13C,1.650000*%
%TD*%
%TA.AperFunction,ComponentPad*%
%ADD14C,4.216000*%
%TD*%
%TA.AperFunction,ComponentPad*%
%ADD15C,2.000000*%
%TD*%
%TA.AperFunction,ComponentPad*%
%ADD16C,1.750000*%
%TD*%
%TA.AperFunction,ComponentPad*%
%ADD17C,1.447800*%
%TD*%
%TA.AperFunction,ComponentPad*%
%ADD18R,1.371600X1.371600*%
%TD*%
%TA.AperFunction,ComponentPad*%
%ADD19C,1.371600*%
%TD*%
%TA.AperFunction,ComponentPad*%
%ADD20R,2.108200X2.108200*%
%TD*%
%TA.AperFunction,ComponentPad*%
%ADD21C,2.108200*%
%TD*%
%TA.AperFunction,ViaPad*%
%ADD22C,0.600000*%
%TD*%
%TA.AperFunction,Conductor*%
%ADD23C,1.500000*%
%TD*%
%TA.AperFunction,Conductor*%
%ADD24C,0.500000*%
%TD*%
%TA.AperFunction,Conductor*%
%ADD25C,5.000000*%
%TD*%
%TA.AperFunction,Conductor*%
%ADD26C,0.750000*%
%TD*%
%TA.AperFunction,Conductor*%
%ADD27C,0.600000*%
%TD*%
%TA.AperFunction,Conductor*%
%ADD28C,0.800000*%
%TD*%
G04 APERTURE END LIST*
D10*
%TO.P,J2-B1,1,Pin_1*%
%TO.N,Net-(J2-B1-Pin_1)*%
X122500000Y-82824800D03*
D11*
%TO.P,J2-B1,2,Pin_2*%
%TO.N,Net-(J2-B1-Pin_2)*%
X122500000Y-84824800D03*
%TO.P,J2-B1,3,Pin_3*%
%TO.N,Net-(J2-B1-Pin_3)*%
X122500000Y-86824800D03*
%TO.P,J2-B1,4,Pin_4*%
%TO.N,Net-(J2-B1-Pin_4)*%
X122500000Y-88824800D03*
%TO.P,J2-B1,5,Pin_5*%
%TO.N,Net-(J2-B1-Pin_5)*%
X122500000Y-90824800D03*
%TO.P,J2-B1,6,Pin_6*%
%TO.N,Net-(J2-B1-Pin_6)*%
X122500000Y-92824800D03*
%TO.P,J2-B1,7,Pin_7*%
%TO.N,Net-(J2-B1-Pin_7)*%
X122500000Y-94824800D03*
%TO.P,J2-B1,8,Pin_8*%
%TO.N,Net-(J2-B1-Pin_8)*%
X122500000Y-96824800D03*
%TO.P,J2-B1,9,Pin_9*%
%TO.N,Net-(J2-B1-Pin_9)*%
X122500000Y-98824800D03*
%TO.P,J2-B1,10,Pin_10*%
%TO.N,Net-(J2-B1-Pin_10)*%
X122500000Y-100824800D03*
%TO.P,J2-B1,11,Pin_11*%
%TO.N,Net-(J2-B1-Pin_11)*%
X122500000Y-102824800D03*
%TO.P,J2-B1,12,Pin_12*%
%TO.N,Net-(J2-B1-Pin_12)*%
X122500000Y-104824800D03*
%TO.P,J2-B1,13,Pin_13*%
%TO.N,Net-(J2-B1-Pin_13)*%
X122500000Y-106824800D03*
%TO.P,J2-B1,14,Pin_14*%
%TO.N,Net-(J2-B1-Pin_14)*%
X122500000Y-108824800D03*
%TO.P,J2-B1,15,Pin_15*%
%TO.N,Net-(J2-B1-Pin_15)*%
X122500000Y-110824800D03*
%TD*%
D10*
%TO.P,J1-B1,1,Pin_1*%
%TO.N,Net-(J1-B1-Pin_1)*%
X147500000Y-82824800D03*
D11*
%TO.P,J1-B1,2,Pin_2*%
%TO.N,Net-(J1-B1-Pin_2)*%
X147500000Y-84824800D03*
%TO.P,J1-B1,3,Pin_3*%
%TO.N,Net-(J1-B1-Pin_3)*%
X147500000Y-86824800D03*
%TO.P,J1-B1,4,Pin_4*%
%TO.N,Net-(J1-B1-Pin_4)*%
X147500000Y-88824800D03*
%TO.P,J1-B1,5,Pin_5*%
%TO.N,Net-(J1-B1-Pin_5)*%
X147500000Y-90824800D03*
%TO.P,J1-B1,6,Pin_6*%
%TO.N,Net-(J1-B1-Pin_6)*%
X147500000Y-92824800D03*
%TO.P,J1-B1,7,Pin_7*%
%TO.N,Net-(J1-B1-Pin_7)*%
X147500000Y-94824800D03*
%TO.P,J1-B1,8,Pin_8*%
%TO.N,Net-(J1-B1-Pin_8)*%
X147500000Y-96824800D03*
%TO.P,J1-B1,9,Pin_9*%
%TO.N,Net-(J1-B1-Pin_9)*%
X147500000Y-98824800D03*
%TO.P,J1-B1,10,Pin_10*%
%TO.N,Net-(J1-B1-Pin_10)*%
X147500000Y-100824800D03*
%TO.P,J1-B1,11,Pin_11*%
%TO.N,Net-(J1-B1-Pin_11)*%
X147500000Y-102824800D03*
%TO.P,J1-B1,12,Pin_12*%
%TO.N,Net-(J1-B1-Pin_12)*%
X147500000Y-104824800D03*
%TO.P,J1-B1,13,Pin_13*%
%TO.N,Net-(J1-B1-Pin_13)*%
X147500000Y-106824800D03*
%TO.P,J1-B1,14,Pin_14*%
%TO.N,Net-(J1-B1-Pin_14)*%
X147500000Y-108824800D03*
%TO.P,J1-B1,15,Pin_15*%
%TO.N,Net-(J1-B1-Pin_15)*%
X147500000Y-110824800D03*
%TD*%
D12*
%TO.P,J2-A1,01,01*%
%TO.N,Net-(J2-B1-Pin_1)*%
X113973000Y-88711000D03*
D13*
%TO.P,J2-A1,02,02*%
%TO.N,Net-(J2-B1-Pin_2)*%
X113973000Y-91481000D03*
%TO.P,J2-A1,03,03*%
%TO.N,Net-(J2-B1-Pin_3)*%
X113973000Y-94251000D03*
%TO.P,J2-A1,04,04*%
%TO.N,Net-(J2-B1-Pin_4)*%
X113973000Y-97021000D03*
%TO.P,J2-A1,05,05*%
%TO.N,Net-(J2-B1-Pin_5)*%
X113973000Y-99791000D03*
%TO.P,J2-A1,06,06*%
%TO.N,Net-(J2-B1-Pin_6)*%
X113973000Y-102561000D03*
%TO.P,J2-A1,07,07*%
%TO.N,Net-(J2-B1-Pin_7)*%
X113973000Y-105331000D03*
%TO.P,J2-A1,08,08*%
%TO.N,Net-(J2-B1-Pin_8)*%
X113973000Y-108101000D03*
%TO.P,J2-A1,09,09*%
%TO.N,Net-(J2-B1-Pin_9)*%
X111433000Y-90096000D03*
%TO.P,J2-A1,10,10*%
%TO.N,Net-(J2-B1-Pin_10)*%
X111433000Y-92866000D03*
%TO.P,J2-A1,11,11*%
%TO.N,Net-(J2-B1-Pin_11)*%
X111433000Y-95636000D03*
%TO.P,J2-A1,12,12*%
%TO.N,Net-(J2-B1-Pin_12)*%
X111433000Y-98406000D03*
%TO.P,J2-A1,13,13*%
%TO.N,Net-(J2-B1-Pin_13)*%
X111433000Y-101176000D03*
%TO.P,J2-A1,14,14*%
%TO.N,Net-(J2-B1-Pin_14)*%
X111433000Y-103946000D03*
%TO.P,J2-A1,15,15*%
%TO.N,Net-(J2-B1-Pin_15)*%
X111433000Y-106716000D03*
D14*
%TO.P,J2-A1,S1,SHIELD*%
%TO.N,Net-(J3-B1-Pin_14)*%
X112703000Y-81746000D03*
%TO.P,J2-A1,S2,SHIELD*%
X112703000Y-115066000D03*
%TD*%
D15*
%TO.P,J4,1,1_1*%
%TO.N,Net-(J3-B1-Pin_11)*%
X120650000Y-36830000D03*
%TO.P,J4,2,1_2*%
X128849999Y-36830000D03*
%TD*%
D16*
%TO.P,PH4,1*%
%TO.N,N/C*%
X119253000Y-169406000D03*
%TO.P,PH4,2*%
X121793000Y-169406000D03*
%TO.P,PH4,3*%
X124333000Y-169406000D03*
%TO.P,PH4,4*%
X126873000Y-169406000D03*
%TO.P,PH4,5*%
X129413000Y-169406000D03*
%TO.P,PH4,6*%
X131953000Y-169406000D03*
%TO.P,PH4,7*%
X134493000Y-169406000D03*
%TO.P,PH4,8*%
X137033000Y-169406000D03*
%TO.P,PH4,9*%
X139573000Y-169406000D03*
%TO.P,PH4,10*%
X142113000Y-169406000D03*
%TD*%
D12*
%TO.P,J1,1,1*%
%TO.N,N/C*%
X119253000Y-29646000D03*
D13*
%TO.P,J1,2,2*%
X121793000Y-29646000D03*
%TO.P,J1,3,3*%
X124333000Y-29646000D03*
%TO.P,J1,4,4*%
%TO.N,unconnected-(J1-Pad4)*%
X126873000Y-29646000D03*
%TO.P,J1,5,5*%
%TO.N,unconnected-(J1-Pad5)*%
X129413000Y-29646000D03*
%TO.P,J1,6,6*%
%TO.N,unconnected-(J1-Pad6)*%
X131953000Y-29646000D03*
%TO.P,J1,7,7*%
%TO.N,unconnected-(J1-Pad7)*%
X134493000Y-29646000D03*
%TO.P,J1,8,8*%
%TO.N,unconnected-(J1-Pad8)*%
X137033000Y-29646000D03*
%TO.P,J1,9,9*%
%TO.N,unconnected-(J1-Pad9)*%
X139573000Y-29646000D03*
%TO.P,J1,10,10*%
%TO.N,unconnected-(J1-Pad10)*%
X142113000Y-29646000D03*
%TD*%
D15*
%TO.P,J6,1,1_1*%
%TO.N,Net-(J3-B1-Pin_11)*%
X120904000Y-149606000D03*
%TO.P,J6,2,1_2*%
X120904000Y-157805999D03*
%TD*%
%TO.P,J9,1,1_1*%
%TO.N,Net-(J9-1_1)*%
X142240000Y-34925000D03*
%TO.P,J9,2,1_2*%
X142240000Y-43124999D03*
%TD*%
%TO.P,J5,1,1_1*%
%TO.N,Net-(J3-B1-Pin_14)*%
X141410601Y-149510000D03*
%TO.P,J5,2,1_2*%
X141410601Y-157709999D03*
%TD*%
%TO.P,J8,1,1_1*%
%TO.N,Net-(J3-B1-Pin_1)*%
X141376400Y-128807601D03*
%TO.P,J8,2,1_2*%
X141376400Y-137007600D03*
%TD*%
D12*
%TO.P,J3-A1,01,01*%
%TO.N,Net-(J3-A1-Pad01)*%
X113973000Y-129211000D03*
D13*
%TO.P,J3-A1,02,02*%
%TO.N,Net-(J3-B1-Pin_2)*%
X113973000Y-131981000D03*
%TO.P,J3-A1,03,03*%
%TO.N,Net-(J3-B1-Pin_3)*%
X113973000Y-134751000D03*
%TO.P,J3-A1,04,04*%
%TO.N,Net-(J3-A1-Pad04)*%
X113973000Y-137521000D03*
%TO.P,J3-A1,05,05*%
%TO.N,Net-(J3-B1-Pin_5)*%
X113973000Y-140291000D03*
%TO.P,J3-A1,06,06*%
%TO.N,Net-(J3-B1-Pin_6)*%
X113973000Y-143061000D03*
%TO.P,J3-A1,07,07*%
%TO.N,Net-(J3-B1-Pin_7)*%
X113973000Y-145831000D03*
%TO.P,J3-A1,08,08*%
%TO.N,Net-(J3-A1-Pad08)*%
X113973000Y-148601000D03*
%TO.P,J3-A1,09,09*%
%TO.N,Net-(J3-A1-Pad09)*%
X111433000Y-130596000D03*
%TO.P,J3-A1,10,10*%
%TO.N,Net-(J3-A1-Pad10)*%
X111433000Y-133366000D03*
%TO.P,J3-A1,11,11*%
%TO.N,Net-(J3-A1-Pad11)*%
X111433000Y-136136000D03*
%TO.P,J3-A1,12,12*%
%TO.N,Net-(J3-A1-Pad12)*%
X111433000Y-138906000D03*
%TO.P,J3-A1,13,13*%
%TO.N,Net-(J3-A1-Pad13)*%
X111433000Y-141676000D03*
%TO.P,J3-A1,14,14*%
%TO.N,Net-(J3-A1-Pad14)*%
X111433000Y-144446000D03*
%TO.P,J3-A1,15,15*%
%TO.N,Net-(J3-A1-Pad15)*%
X111433000Y-147216000D03*
D14*
%TO.P,J3-A1,S1,SHIELD*%
%TO.N,Net-(J3-B1-Pin_14)*%
X112703000Y-122246000D03*
%TO.P,J3-A1,S2,SHIELD*%
X112703000Y-155566000D03*
%TD*%
D12*
%TO.P,J1-A1,01,01*%
%TO.N,Net-(J1-B1-Pin_1)*%
X113973000Y-48391000D03*
D13*
%TO.P,J1-A1,02,02*%
%TO.N,Net-(J1-B1-Pin_2)*%
X113973000Y-51161000D03*
%TO.P,J1-A1,03,03*%
%TO.N,Net-(J1-B1-Pin_3)*%
X113973000Y-53931000D03*
%TO.P,J1-A1,04,04*%
%TO.N,Net-(J1-B1-Pin_4)*%
X113973000Y-56701000D03*
%TO.P,J1-A1,05,05*%
%TO.N,Net-(J1-B1-Pin_5)*%
X113973000Y-59471000D03*
%TO.P,J1-A1,06,06*%
%TO.N,Net-(J1-B1-Pin_6)*%
X113973000Y-62241000D03*
%TO.P,J1-A1,07,07*%
%TO.N,Net-(J1-B1-Pin_7)*%
X113973000Y-65011000D03*
%TO.P,J1-A1,08,08*%
%TO.N,Net-(J1-B1-Pin_8)*%
X113973000Y-67781000D03*
%TO.P,J1-A1,09,09*%
%TO.N,Net-(J1-B1-Pin_9)*%
X111433000Y-49776000D03*
%TO.P,J1-A1,10,10*%
%TO.N,Net-(J1-B1-Pin_10)*%
X111433000Y-52546000D03*
%TO.P,J1-A1,11,11*%
%TO.N,Net-(J1-B1-Pin_11)*%
X111433000Y-55316000D03*
%TO.P,J1-A1,12,12*%
%TO.N,Net-(J1-B1-Pin_12)*%
X111433000Y-58086000D03*
%TO.P,J1-A1,13,13*%
%TO.N,Net-(J1-B1-Pin_13)*%
X111433000Y-60856000D03*
%TO.P,J1-A1,14,14*%
%TO.N,Net-(J1-B1-Pin_14)*%
X111433000Y-63626000D03*
%TO.P,J1-A1,15,15*%
%TO.N,Net-(J1-B1-Pin_15)*%
X111433000Y-66396000D03*
D14*
%TO.P,J1-A1,S1,SHIELD*%
%TO.N,Net-(J3-B1-Pin_14)*%
X112703000Y-41426000D03*
%TO.P,J1-A1,S2,SHIELD*%
X112703000Y-74746000D03*
%TD*%
D15*
%TO.P,J7,1,1_1*%
%TO.N,Net-(J3-B1-Pin_14)*%
X130810000Y-149606000D03*
%TO.P,J7,2,1_2*%
X130810000Y-157805999D03*
%TD*%
D17*
%TO.P,PH3,1,1*%
%TO.N,N/C*%
X149733000Y-121146000D03*
%TO.P,PH3,2,2*%
X149733000Y-123686000D03*
%TO.P,PH3,3,3*%
X149733000Y-126226000D03*
%TO.P,PH3,4,4*%
X149733000Y-128766000D03*
%TO.P,PH3,5,5*%
X149733000Y-131306000D03*
%TO.P,PH3,6,6*%
X149733000Y-133846000D03*
%TO.P,PH3,7,7*%
X149733000Y-136386000D03*
%TO.P,PH3,8,8*%
X149733000Y-138926000D03*
%TO.P,PH3,9,9*%
X149733000Y-141466000D03*
%TO.P,PH3,10,10*%
X149733000Y-144006000D03*
%TO.P,PH3,11,11*%
X149733000Y-146546000D03*
%TO.P,PH3,12,12*%
X149733000Y-149086000D03*
%TO.P,PH3,13,13*%
X149733000Y-151626000D03*
%TO.P,PH3,14,14*%
X149733000Y-154166000D03*
%TO.P,PH3,15,15*%
X149733000Y-156706000D03*
%TO.P,PH3,16,16*%
X149733000Y-159246000D03*
%TO.P,PH3,17,17*%
X149733000Y-161786000D03*
%TO.P,PH3,18,18*%
X149733000Y-164326000D03*
%TO.P,PH3,19,19*%
X149733000Y-166866000D03*
%TO.P,PH3,20,20*%
X149733000Y-169406000D03*
%TD*%
D18*
%TO.P,R2,1*%
%TO.N,Net-(J3-A1-Pad08)*%
X124320000Y-142542000D03*
D19*
%TO.P,R2,2*%
%TO.N,Net-(J3-B1-Pin_8)*%
X124320000Y-130858000D03*
%TD*%
D18*
%TO.P,R1,1*%
%TO.N,Net-(J3-A1-Pad04)*%
X121031000Y-130810000D03*
D19*
%TO.P,R1,2*%
%TO.N,Net-(J3-B1-Pin_4)*%
X121031000Y-119126000D03*
%TD*%
D10*
%TO.P,J3-B1,1,Pin_1*%
%TO.N,Net-(J3-B1-Pin_1)*%
X135000000Y-82824800D03*
D11*
%TO.P,J3-B1,2,Pin_2*%
%TO.N,Net-(J3-B1-Pin_2)*%
X135000000Y-84824800D03*
%TO.P,J3-B1,3,Pin_3*%
%TO.N,Net-(J3-B1-Pin_3)*%
X135000000Y-86824800D03*
%TO.P,J3-B1,4,Pin_4*%
%TO.N,Net-(J3-B1-Pin_4)*%
X135000000Y-88824800D03*
%TO.P,J3-B1,5,Pin_5*%
%TO.N,Net-(J3-B1-Pin_5)*%
X135000000Y-90824800D03*
%TO.P,J3-B1,6,Pin_6*%
%TO.N,Net-(J3-B1-Pin_6)*%
X135000000Y-92824800D03*
%TO.P,J3-B1,7,Pin_7*%
%TO.N,Net-(J3-B1-Pin_7)*%
X135000000Y-94824800D03*
%TO.P,J3-B1,8,Pin_8*%
%TO.N,Net-(J3-B1-Pin_8)*%
X135000000Y-96824800D03*
%TO.P,J3-B1,9,Pin_9*%
%TO.N,Net-(J3-B1-Pin_1)*%
X135000000Y-98824800D03*
%TO.P,J3-B1,10,Pin_10*%
X135000000Y-100824800D03*
%TO.P,J3-B1,11,Pin_11*%
%TO.N,Net-(J3-B1-Pin_11)*%
X135000000Y-102824800D03*
%TO.P,J3-B1,12,Pin_12*%
X135000000Y-104824800D03*
%TO.P,J3-B1,13,Pin_13*%
X135000000Y-106824800D03*
%TO.P,J3-B1,14,Pin_14*%
%TO.N,Net-(J3-B1-Pin_14)*%
X135000000Y-108824800D03*
%TO.P,J3-B1,15,Pin_15*%
X135000000Y-110824800D03*
%TD*%
D20*
%TO.P,F1,1,1*%
%TO.N,Net-(J3-B1-Pin_11)*%
X120751600Y-43510200D03*
D21*
%TO.P,F1,2,2*%
X120751600Y-46913800D03*
%TO.P,F1,3,3*%
%TO.N,Net-(J9-1_1)*%
X130657600Y-46913800D03*
%TO.P,F1,4,4*%
X130657600Y-43510200D03*
%TD*%
D17*
%TO.P,PH2,1,1*%
%TO.N,N/C*%
X149733000Y-29646000D03*
%TO.P,PH2,2,2*%
X149733000Y-32186000D03*
%TO.P,PH2,3,3*%
X149733000Y-34726000D03*
%TO.P,PH2,4,4*%
X149733000Y-37266000D03*
%TO.P,PH2,5,5*%
X149733000Y-39806000D03*
%TO.P,PH2,6,6*%
X149733000Y-42346000D03*
%TO.P,PH2,7,7*%
X149733000Y-44886000D03*
%TO.P,PH2,8,8*%
X149733000Y-47426000D03*
%TO.P,PH2,9,9*%
X149733000Y-49966000D03*
%TO.P,PH2,10,10*%
X149733000Y-52506000D03*
%TO.P,PH2,11,11*%
X149733000Y-55046000D03*
%TO.P,PH2,12,12*%
X149733000Y-57586000D03*
%TO.P,PH2,13,13*%
X149733000Y-60126000D03*
%TO.P,PH2,14,14*%
X149733000Y-62666000D03*
%TO.P,PH2,15,15*%
X149733000Y-65206000D03*
%TO.P,PH2,16,16*%
X149733000Y-67746000D03*
%TO.P,PH2,17,17*%
X149733000Y-70286000D03*
%TO.P,PH2,18,18*%
X149733000Y-72826000D03*
%TO.P,PH2,19,19*%
X149733000Y-75366000D03*
%TO.P,PH2,20,20*%
X149733000Y-77906000D03*
%TD*%
D22*
%TO.N,Net-(J3-A1-Pad10)*%
X95519500Y-168386500D03*
X102896521Y-137186521D03*
%TO.N,Net-(J3-A1-Pad14)*%
X109728000Y-156845000D03*
X107140000Y-168402000D03*
%TO.N,Net-(J3-A1-Pad09)*%
X102870000Y-138557000D03*
X95583000Y-164719000D03*
%TO.N,Net-(J3-A1-Pad15)*%
X110236000Y-168402000D03*
X115824000Y-156972000D03*
%TO.N,Net-(J3-A1-Pad01)*%
X98473000Y-164719000D03*
X102918000Y-139640370D03*
%TO.N,Net-(J3-A1-Pad12)*%
X107219000Y-154432000D03*
X107267000Y-164719000D03*
%TO.N,Net-(J3-A1-Pad13)*%
X108585000Y-155829000D03*
X110157000Y-164719000D03*
%TO.N,Net-(J3-A1-Pad11)*%
X102918000Y-144651000D03*
X98425000Y-168402000D03*
%TD*%
D23*
%TO.N,Net-(J3-B1-Pin_11)*%
X120904000Y-149606000D02*
X132080000Y-138430000D01*
X135000000Y-106824800D02*
X135000000Y-102824800D01*
X132080000Y-138430000D02*
X132080000Y-107919800D01*
X133175000Y-106824800D02*
X135000000Y-106824800D01*
X132080000Y-107919800D02*
X133175000Y-106824800D01*
D24*
%TO.N,Net-(J1-B1-Pin_12)*%
X144028200Y-102501200D02*
X146351800Y-104824800D01*
X144028200Y-102501200D02*
X144028200Y-80401200D01*
X121793000Y-58166000D02*
X111790405Y-58166000D01*
X144028200Y-80401200D02*
X121793000Y-58166000D01*
X111433000Y-58523405D02*
X111433000Y-58086000D01*
X146351800Y-104824800D02*
X147500000Y-104824800D01*
X111790405Y-58166000D02*
X111433000Y-58523405D01*
%TO.N,Net-(J1-B1-Pin_15)*%
X122936000Y-66421000D02*
X111845405Y-66421000D01*
X141894600Y-106367600D02*
X141894600Y-85379600D01*
X111433000Y-66833405D02*
X111433000Y-66396000D01*
X141894600Y-106367600D02*
X146351800Y-110824800D01*
X111845405Y-66421000D02*
X111433000Y-66833405D01*
X146351800Y-110824800D02*
X147500000Y-110824800D01*
X141894600Y-85379600D02*
X122936000Y-66421000D01*
%TO.N,Net-(J1-B1-Pin_13)*%
X111575000Y-60998000D02*
X111433000Y-60856000D01*
X111766405Y-60960000D02*
X111433000Y-61293405D01*
X111433000Y-61293405D02*
X111433000Y-60856000D01*
X147096436Y-106824800D02*
X147500000Y-106824800D01*
X143327200Y-81732200D02*
X122555000Y-60960000D01*
X143327200Y-103055564D02*
X147096436Y-106824800D01*
X143327200Y-103055564D02*
X143327200Y-81732200D01*
X122555000Y-60960000D02*
X111766405Y-60960000D01*
X143306800Y-103075964D02*
X143327200Y-103055564D01*
%TO.N,Net-(J1-B1-Pin_9)*%
X146354800Y-75615800D02*
X120515000Y-49776000D01*
X146354800Y-81996708D02*
X146174000Y-82177508D01*
X146354800Y-75615800D02*
X146354800Y-81996708D01*
X120515000Y-49776000D02*
X111433000Y-49776000D01*
X146174000Y-82177508D02*
X146174000Y-97498800D01*
X146174000Y-97498800D02*
X147500000Y-98824800D01*
D25*
%TO.N,Net-(J3-B1-Pin_14)*%
X103505000Y-105868000D02*
X112703000Y-115066000D01*
X112703000Y-122246000D02*
X105918000Y-129031000D01*
X105918000Y-129031000D02*
X105918000Y-148781000D01*
X141410601Y-149510000D02*
X141410601Y-157709999D01*
D23*
X135000000Y-120903000D02*
X135000000Y-108824800D01*
D25*
X103505000Y-50624000D02*
X103505000Y-65548000D01*
X105918000Y-148781000D02*
X112703000Y-155566000D01*
X130906000Y-149510000D02*
X130810000Y-149606000D01*
D23*
X135001000Y-139107000D02*
X135001000Y-120904000D01*
D25*
X112703000Y-122246000D02*
X112703000Y-115066000D01*
X103505000Y-90944000D02*
X103505000Y-105868000D01*
X103505000Y-65548000D02*
X112703000Y-74746000D01*
X112703000Y-74746000D02*
X112703000Y-81746000D01*
X112703000Y-41426000D02*
X103505000Y-50624000D01*
X141410601Y-149510000D02*
X130906000Y-149510000D01*
X126462001Y-153458000D02*
X130810000Y-157805999D01*
D23*
X120650000Y-153458000D02*
X135001000Y-139107000D01*
D25*
X141314601Y-157805999D02*
X141410601Y-157709999D01*
X120650000Y-153458000D02*
X126462001Y-153458000D01*
X112703000Y-155566000D02*
X114811000Y-153458000D01*
X130810000Y-157805999D02*
X141314601Y-157805999D01*
X114811000Y-153458000D02*
X120650000Y-153458000D01*
X112703000Y-81746000D02*
X103505000Y-90944000D01*
D23*
X135001000Y-120904000D02*
X135000000Y-120903000D01*
D25*
X130810000Y-149606000D02*
X127109000Y-153307000D01*
X130810000Y-157805999D02*
X130810000Y-149606000D01*
X127109000Y-153307000D02*
X114962000Y-153307000D01*
X114962000Y-153307000D02*
X112703000Y-155566000D01*
D24*
%TO.N,Net-(J1-B1-Pin_14)*%
X113030000Y-63627000D02*
X112598726Y-63627000D01*
X113030000Y-63627000D02*
X113029000Y-63626000D01*
X122682000Y-63627000D02*
X113030000Y-63627000D01*
X113029000Y-63626000D02*
X111433000Y-63626000D01*
X146351800Y-108824800D02*
X147500000Y-108824800D01*
X142595600Y-83540600D02*
X122682000Y-63627000D01*
X142595600Y-105068600D02*
X142595600Y-83540600D01*
X142595600Y-105068600D02*
X146351800Y-108824800D01*
%TO.N,Net-(J1-B1-Pin_10)*%
X111433000Y-52546000D02*
X120745000Y-52546000D01*
X120777000Y-52578000D02*
X121285000Y-52578000D01*
X145473000Y-77127600D02*
X145473000Y-98797800D01*
X145473000Y-98797800D02*
X147500000Y-100824800D01*
X121285000Y-52578000D02*
X145653800Y-76946800D01*
X145653800Y-76946800D02*
X145473000Y-77127600D01*
X120745000Y-52546000D02*
X120777000Y-52578000D01*
%TO.N,Net-(J1-B1-Pin_11)*%
X121539000Y-55372000D02*
X113051726Y-55372000D01*
X146351800Y-102824800D02*
X147500000Y-102824800D01*
X144729200Y-101202200D02*
X146351800Y-102824800D01*
X144729200Y-78562200D02*
X121539000Y-55372000D01*
X144729200Y-101202200D02*
X144729200Y-78562200D01*
X113051726Y-55372000D02*
X112995726Y-55316000D01*
X112995726Y-55316000D02*
X111433000Y-55316000D01*
%TO.N,Net-(J2-B1-Pin_13)*%
X111433000Y-101825537D02*
X113444463Y-103837000D01*
X113444463Y-103837000D02*
X119337000Y-103837000D01*
X119337000Y-103837000D02*
X122500000Y-107000000D01*
X111433000Y-101176000D02*
X111433000Y-101825537D01*
%TO.N,Net-(J2-B1-Pin_14)*%
X120107000Y-106607000D02*
X122500000Y-109000000D01*
X111433000Y-104595537D02*
X113444463Y-106607000D01*
X113444463Y-106607000D02*
X120107000Y-106607000D01*
X111433000Y-103946000D02*
X111433000Y-104595537D01*
%TO.N,Net-(J2-B1-Pin_9)*%
X116257000Y-92757000D02*
X122500000Y-99000000D01*
X111433000Y-90745537D02*
X113444463Y-92757000D01*
X113444463Y-92757000D02*
X116257000Y-92757000D01*
X111433000Y-90096000D02*
X111433000Y-90745537D01*
%TO.N,Net-(J2-B1-Pin_10)*%
X117027000Y-95527000D02*
X122500000Y-101000000D01*
X111433000Y-92866000D02*
X111433000Y-93515537D01*
X113444463Y-95527000D02*
X117027000Y-95527000D01*
X111433000Y-93515537D02*
X113444463Y-95527000D01*
%TO.N,Net-(J2-B1-Pin_11)*%
X111433000Y-96285537D02*
X113444463Y-98297000D01*
X111433000Y-95636000D02*
X111433000Y-96285537D01*
X117797000Y-98297000D02*
X122500000Y-103000000D01*
X113444463Y-98297000D02*
X117797000Y-98297000D01*
%TO.N,Net-(J2-B1-Pin_12)*%
X111433000Y-98406000D02*
X111433000Y-99055537D01*
X113444463Y-101067000D02*
X118567000Y-101067000D01*
X111433000Y-99055537D02*
X113444463Y-101067000D01*
X118567000Y-101067000D02*
X122500000Y-105000000D01*
%TO.N,Net-(J2-B1-Pin_15)*%
X111433000Y-106716000D02*
X111433000Y-107882726D01*
X111433000Y-107882726D02*
X114550274Y-111000000D01*
X114550274Y-111000000D02*
X122500000Y-111000000D01*
D26*
%TO.N,Net-(J3-B1-Pin_5)*%
X113973000Y-140291000D02*
X116205000Y-138059000D01*
X126190000Y-119809000D02*
X126190000Y-99634800D01*
X116205000Y-138059000D02*
X116205000Y-129794000D01*
X116205000Y-129794000D02*
X126190000Y-119809000D01*
X126190000Y-99634800D02*
X135000000Y-90824800D01*
D27*
%TO.N,Net-(J3-A1-Pad10)*%
X94234000Y-145849042D02*
X94234000Y-167101000D01*
X94234000Y-167101000D02*
X95519500Y-168386500D01*
X102896521Y-137186521D02*
X94234000Y-145849042D01*
D28*
%TO.N,Net-(J3-A1-Pad08)*%
X124320000Y-142542000D02*
X120032000Y-142542000D01*
X120032000Y-142542000D02*
X113973000Y-148601000D01*
D27*
%TO.N,Net-(J3-A1-Pad14)*%
X109728000Y-156845000D02*
X109728000Y-159893000D01*
X111633000Y-164592000D02*
X107823000Y-168402000D01*
X109728000Y-159893000D02*
X111633000Y-161798000D01*
X111633000Y-161798000D02*
X111633000Y-164592000D01*
X107823000Y-168402000D02*
X107140000Y-168402000D01*
D23*
%TO.N,Net-(J3-B1-Pin_1)*%
X137270000Y-101269800D02*
X136825000Y-100824800D01*
X135000000Y-98824800D02*
X135000000Y-98999800D01*
X137270000Y-98840000D02*
X137270000Y-84470000D01*
X137270000Y-103390000D02*
X137270000Y-101269800D01*
X135000000Y-98999800D02*
X136825000Y-100824800D01*
X137254800Y-98824800D02*
X135000000Y-98824800D01*
X135000000Y-100824800D02*
X135000000Y-98824800D01*
X136825000Y-100824800D02*
X135000000Y-100824800D01*
X141376400Y-128807601D02*
X137270000Y-124701201D01*
X137270000Y-103390000D02*
X137270000Y-98840000D01*
X137270000Y-84470000D02*
X135624800Y-82824800D01*
X137270000Y-124701201D02*
X137270000Y-103390000D01*
X137270000Y-98840000D02*
X137254800Y-98824800D01*
X141376400Y-128807601D02*
X141376400Y-137007600D01*
X135624800Y-82824800D02*
X135000000Y-82824800D01*
D27*
%TO.N,Net-(J3-A1-Pad09)*%
X95614000Y-145813000D02*
X102870000Y-138557000D01*
X95583000Y-164719000D02*
X95614000Y-164688000D01*
X95614000Y-164688000D02*
X95614000Y-145813000D01*
D26*
%TO.N,Net-(J3-B1-Pin_6)*%
X127240000Y-120537000D02*
X127240000Y-100584800D01*
X113973000Y-143061000D02*
X117729000Y-139305000D01*
X117729000Y-139305000D02*
X117729000Y-130048000D01*
X127240000Y-100584800D02*
X135000000Y-92824800D01*
X117729000Y-130048000D02*
X127240000Y-120537000D01*
D24*
%TO.N,Net-(J3-B1-Pin_4)*%
X125228000Y-98596800D02*
X135000000Y-88824800D01*
X125228000Y-114929000D02*
X125228000Y-98596800D01*
X121031000Y-119126000D02*
X125228000Y-114929000D01*
D27*
%TO.N,Net-(J3-A1-Pad15)*%
X110030000Y-168402000D02*
X110236000Y-168402000D01*
X115824000Y-163195000D02*
X110617000Y-168402000D01*
X115824000Y-156972000D02*
X115824000Y-163195000D01*
X110617000Y-168402000D02*
X110236000Y-168402000D01*
%TO.N,Net-(J3-A1-Pad01)*%
X98504000Y-144066000D02*
X102918000Y-139652000D01*
X98473000Y-164719000D02*
X98504000Y-164688000D01*
X98504000Y-164688000D02*
X98504000Y-144066000D01*
%TO.N,Net-(J3-A1-Pad12)*%
X107219000Y-164671000D02*
X107219000Y-154432000D01*
X107267000Y-164719000D02*
X107219000Y-164671000D01*
%TO.N,Net-(J3-A1-Pad13)*%
X110157000Y-164719000D02*
X110157000Y-162862000D01*
X108585000Y-161290000D02*
X108585000Y-155829000D01*
X110157000Y-162862000D02*
X108585000Y-161290000D01*
%TO.N,Net-(J3-A1-Pad11)*%
X98425000Y-166370000D02*
X98425000Y-168402000D01*
X99949000Y-147620000D02*
X99949000Y-164846000D01*
X102918000Y-144651000D02*
X99949000Y-147620000D01*
X99949000Y-164846000D02*
X98425000Y-166370000D01*
D24*
%TO.N,Net-(J3-B1-Pin_3)*%
X115316000Y-133408000D02*
X115316000Y-126134000D01*
X124527000Y-97297800D02*
X135000000Y-86824800D01*
X119270000Y-122180000D02*
X119270000Y-118510000D01*
X115316000Y-126134000D02*
X119270000Y-122180000D01*
X119270000Y-118510000D02*
X124527000Y-113253000D01*
X124527000Y-113253000D02*
X124527000Y-97297800D01*
X113973000Y-134751000D02*
X115316000Y-133408000D01*
%TO.N,Net-(J3-B1-Pin_2)*%
X110157000Y-131124537D02*
X110157000Y-130067463D01*
X123826000Y-112554000D02*
X123826000Y-95998800D01*
X118190000Y-118190000D02*
X123826000Y-112554000D01*
X113973000Y-131981000D02*
X111013463Y-131981000D01*
X110157000Y-130067463D02*
X118190000Y-122034463D01*
X111013463Y-131981000D02*
X110157000Y-131124537D01*
X123826000Y-95998800D02*
X135000000Y-84824800D01*
X118190000Y-122034463D02*
X118190000Y-118190000D01*
D26*
%TO.N,Net-(J3-B1-Pin_7)*%
X118745000Y-130810000D02*
X128380000Y-121175000D01*
X113973000Y-145831000D02*
X118745000Y-141059000D01*
X128380000Y-121175000D02*
X128380000Y-101444800D01*
X118745000Y-141059000D02*
X118745000Y-130810000D01*
X128380000Y-101444800D02*
X135000000Y-94824800D01*
D28*
%TO.N,Net-(J3-B1-Pin_8)*%
X129640000Y-102184800D02*
X135000000Y-96824800D01*
X129640000Y-125538000D02*
X129640000Y-102184800D01*
X124320000Y-130858000D02*
X129640000Y-125538000D01*
%TD*%
M02*
