M48
; DRILL file {KiCad 8.0.8} date 2025-02-03T20:56:17-0500
; FORMAT={-:-/ absolute / inch / decimal}
; #@! TF.CreationDate,2025-02-03T20:56:17-05:00
; #@! TF.GenerationSoftware,Kicad,Pcbnew,8.0.8
; #@! TF.FileFunction,Plated,1,2,PTH
FMAT,2
INCH
; #@! TA.AperFunction,Plated,PTH,ViaDrill
T1C0.0118
; #@! TA.AperFunction,Plated,PTH,ViaDrill
T2C0.0236
; #@! TA.AperFunction,Plated,PTH,ComponentDrill
T3C0.0402
; #@! TA.AperFunction,Plated,PTH,ComponentDrill
T4C0.0433
%
G90
G05
T1
X2.0152Y-1.4449
X2.1323Y-1.0984
X2.211Y-1.4528
X2.3094Y-1.4528
X2.4079Y-1.4921
X2.4669Y-1.2559
X2.778Y-1.1024
T2
X2.6008Y-1.6142
T3
X2.0Y-1.0
X2.0Y-2.7
X2.1Y-1.0
X2.1Y-2.7
X2.2Y-1.0
X2.2Y-2.7
X2.3Y-1.0
X2.3Y-2.7
X2.4Y-1.0
X2.4Y-2.7
X2.5Y-1.0
X2.5Y-2.7
X2.6Y-1.0
X2.6Y-2.7
X2.7Y-1.0
X2.7Y-2.7
X2.8Y-1.0
X2.8Y-2.7
X2.9Y-1.0
X2.9Y-2.7
T4
X2.0217Y-1.1772
X2.1217Y-1.3772
X2.3217Y-1.1772
X2.3217Y-1.3772
M30
