%TF.GenerationSoftware,KiCad,Pcbnew,8.0.8*%
%TF.CreationDate,2025-03-02T20:19:54-05:00*%
%TF.ProjectId,VCU MPR V2.0,56435520-4d50-4522-9056-322e302e6b69,rev?*%
%TF.SameCoordinates,Original*%
%TF.FileFunction,Copper,L2,Bot*%
%TF.FilePolarity,Positive*%
%FSLAX46Y46*%
G04 Gerber Fmt 4.6, Leading zero omitted, Abs format (unit mm)*
G04 Created by KiCad (PCBNEW 8.0.8) date 2025-03-02 20:19:54*
%MOMM*%
%LPD*%
G01*
G04 APERTURE LIST*
%TA.AperFunction,ComponentPad*%
%ADD10C,1.750000*%
%TD*%
%TA.AperFunction,ComponentPad*%
%ADD11R,2.700000X2.700000*%
%TD*%
%TA.AperFunction,ComponentPad*%
%ADD12C,2.700000*%
%TD*%
%TA.AperFunction,ComponentPad*%
%ADD13C,3.000000*%
%TD*%
%TA.AperFunction,ComponentPad*%
%ADD14C,1.950000*%
%TD*%
%TA.AperFunction,Conductor*%
%ADD15C,5.000000*%
%TD*%
G04 APERTURE END LIST*
D10*
%TO.P,J2,1*%
%TO.N,N/C*%
X76200000Y-50800000D03*
%TO.P,J2,2*%
X76200000Y-53340000D03*
%TO.P,J2,3*%
X76200000Y-55880000D03*
%TO.P,J2,4*%
X76200000Y-58420000D03*
%TO.P,J2,5*%
X76200000Y-60960000D03*
%TO.P,J2,6*%
X76200000Y-63500000D03*
%TO.P,J2,7*%
X76200000Y-66040000D03*
%TO.P,J2,8*%
X76200000Y-68580000D03*
%TO.P,J2,9*%
X76200000Y-71120000D03*
%TO.P,J2,10*%
%TO.N,VCU-MPRD*%
X76200000Y-73660000D03*
%TD*%
%TO.P,J2,1*%
%TO.N,N/C*%
X119380000Y-50800000D03*
%TO.P,J2,2*%
X119380000Y-53340000D03*
%TO.P,J2,3*%
X119380000Y-55880000D03*
%TO.P,J2,4*%
X119380000Y-58420000D03*
%TO.P,J2,5*%
X119380000Y-60960000D03*
%TO.P,J2,6*%
X119380000Y-63500000D03*
%TO.P,J2,7*%
X119380000Y-66040000D03*
%TO.P,J2,8*%
X119380000Y-68580000D03*
%TO.P,J2,9*%
X119380000Y-71120000D03*
%TO.P,J2,10*%
X119380000Y-73660000D03*
%TD*%
D11*
%TO.P,K1,1*%
%TO.N,/VBATT*%
X114200000Y-72300000D03*
D12*
%TO.P,K1,2*%
%TO.N,VCU-MPRD*%
X92200000Y-72300000D03*
D13*
%TO.P,K1,3*%
%TO.N,/VBATT*%
X116000000Y-60300000D03*
%TO.P,K1,4*%
%TO.N,/VCU VBATT*%
X88400000Y-60300000D03*
%TD*%
D14*
%TO.P,J1,1*%
%TO.N,/VBATT*%
X82800000Y-60700000D03*
%TO.P,J1,2*%
%TO.N,/VCU VBATT*%
X82800000Y-65700000D03*
%TD*%
D15*
%TO.N,/VBATT*%
X111605000Y-56100000D02*
X115805000Y-60300000D01*
X85721142Y-56100000D02*
X111605000Y-56100000D01*
X82800000Y-60700000D02*
X82800000Y-59021142D01*
X82800000Y-59021142D02*
X85721142Y-56100000D01*
%TD*%
%TA.AperFunction,Conductor*%
%TO.N,/VBATT*%
G36*
X117940063Y-58195814D02*
G01*
X117986802Y-58247749D01*
X117998992Y-58302352D01*
X117875969Y-73852447D01*
X117855755Y-73919329D01*
X117802591Y-73964664D01*
X117752444Y-73975465D01*
X111424867Y-73999525D01*
X111357754Y-73980096D01*
X111311798Y-73927466D01*
X111300397Y-73875134D01*
X111349613Y-58421300D01*
X111369511Y-58354327D01*
X111422460Y-58308740D01*
X111471280Y-58297720D01*
X117872667Y-58177393D01*
X117940063Y-58195814D01*
G37*
%TD.AperFunction*%
%TD*%
M02*
