%TF.GenerationSoftware,KiCad,Pcbnew,9.0.5*%
%TF.CreationDate,2025-11-14T08:32:03-05:00*%
%TF.ProjectId,VCU Signals V1.0,56435520-5369-4676-9e61-6c732056312e,rev?*%
%TF.SameCoordinates,Original*%
%TF.FileFunction,Soldermask,Bot*%
%TF.FilePolarity,Negative*%
%FSLAX46Y46*%
G04 Gerber Fmt 4.6, Leading zero omitted, Abs format (unit mm)*
G04 Created by KiCad (PCBNEW 9.0.5) date 2025-11-14 08:32:03*
%MOMM*%
%LPD*%
G01*
G04 APERTURE LIST*
G04 Aperture macros list*
%AMRoundRect*
0 Rectangle with rounded corners*
0 $1 Rounding radius*
0 $2 $3 $4 $5 $6 $7 $8 $9 X,Y pos of 4 corners*
0 Add a 4 corners polygon primitive as box body*
4,1,4,$2,$3,$4,$5,$6,$7,$8,$9,$2,$3,0*
0 Add four circle primitives for the rounded corners*
1,1,$1+$1,$2,$3*
1,1,$1+$1,$4,$5*
1,1,$1+$1,$6,$7*
1,1,$1+$1,$8,$9*
0 Add four rect primitives between the rounded corners*
20,1,$1+$1,$2,$3,$4,$5,0*
20,1,$1+$1,$4,$5,$6,$7,0*
20,1,$1+$1,$6,$7,$8,$9,0*
20,1,$1+$1,$8,$9,$2,$3,0*%
G04 Aperture macros list end*
%ADD10C,1.524000*%
%ADD11C,1.651000*%
%ADD12C,1.600000*%
%ADD13R,1.800000X1.800000*%
%ADD14C,1.800000*%
%ADD15RoundRect,0.250000X0.625000X-0.350000X0.625000X0.350000X-0.625000X0.350000X-0.625000X-0.350000X0*%
%ADD16O,1.750000X1.200000*%
G04 APERTURE END LIST*
D10*
%TO.C,P1*%
X124460000Y-127000000D03*
X124460000Y-124460000D03*
X124460000Y-121920000D03*
X124460000Y-119380000D03*
X124460000Y-116840000D03*
X124460000Y-114300000D03*
X124460000Y-111760000D03*
X124460000Y-109220000D03*
X124460000Y-106680000D03*
X124460000Y-104140000D03*
X124460000Y-101600000D03*
X124460000Y-99060000D03*
X124460000Y-96520000D03*
X124460000Y-93980000D03*
X124460000Y-91440000D03*
X124460000Y-88900000D03*
X124460000Y-86360000D03*
X124460000Y-83820000D03*
X124460000Y-81280000D03*
X124460000Y-78740000D03*
%TD*%
D11*
%TO.C,U1*%
X108517600Y-105664000D03*
X110803600Y-105664000D03*
X113089600Y-105664000D03*
%TD*%
D12*
%TO.C,R5*%
X94293600Y-120904000D03*
X104453600Y-120904000D03*
%TD*%
%TO.C,R1*%
X94293600Y-102616000D03*
X104453600Y-102616000D03*
%TD*%
D13*
%TO.C,D3*%
X108517600Y-125984000D03*
D14*
X111057600Y-125984000D03*
%TD*%
D12*
%TO.C,R3*%
X94293600Y-111760000D03*
X104453600Y-111760000D03*
%TD*%
D11*
%TO.C,U3*%
X108517600Y-121793000D03*
X110803600Y-121793000D03*
X113089600Y-121793000D03*
%TD*%
%TO.C,U2*%
X108644600Y-113792000D03*
X110930600Y-113792000D03*
X113216600Y-113792000D03*
%TD*%
D13*
%TO.C,D1*%
X108517600Y-109728000D03*
D14*
X111057600Y-109728000D03*
%TD*%
D12*
%TO.C,R6*%
X94192000Y-125552200D03*
X104352000Y-125552200D03*
%TD*%
%TO.C,R2*%
X94293600Y-107188000D03*
X104453600Y-107188000D03*
%TD*%
D10*
%TO.C,P2*%
X81280000Y-127000000D03*
X81280000Y-124460000D03*
X81280000Y-121920000D03*
X81280000Y-119380000D03*
X81280000Y-116840000D03*
X81280000Y-114300000D03*
X81280000Y-111760000D03*
X81280000Y-109220000D03*
X81280000Y-106680000D03*
X81280000Y-104140000D03*
X81280000Y-101600000D03*
X81280000Y-99060000D03*
X81280000Y-96520000D03*
X81280000Y-93980000D03*
X81280000Y-91440000D03*
X81280000Y-88900000D03*
X81280000Y-86360000D03*
X81280000Y-83820000D03*
X81280000Y-81280000D03*
X81280000Y-78740000D03*
%TD*%
D15*
%TO.C,J1*%
X117179000Y-126140000D03*
D16*
X117179000Y-124140000D03*
X117179000Y-122140000D03*
X117179000Y-120140000D03*
X117179000Y-118140000D03*
X117179000Y-116140000D03*
X117179000Y-114140000D03*
X117179000Y-112140000D03*
X117179000Y-110140000D03*
X117179000Y-108140000D03*
X117179000Y-106140000D03*
X117179000Y-104140000D03*
%TD*%
D13*
%TO.C,D2*%
X108517600Y-117856000D03*
D14*
X111057600Y-117856000D03*
%TD*%
D12*
%TO.C,R4*%
X94293600Y-116332000D03*
X104453600Y-116332000D03*
%TD*%
M02*
