M48
; DRILL file {KiCad 9.0.5} date 2025-11-14T08:32:01-0500
; FORMAT={-:-/ absolute / metric / decimal}
; #@! TF.CreationDate,2025-11-14T08:32:01-05:00
; #@! TF.GenerationSoftware,Kicad,Pcbnew,9.0.5
; #@! TF.FileFunction,Plated,1,2,PTH
FMAT,2
METRIC
; #@! TA.AperFunction,Plated,PTH,ViaDrill
T1C0.300
; #@! TA.AperFunction,Plated,PTH,ComponentDrill
T2C0.750
; #@! TA.AperFunction,Plated,PTH,ComponentDrill
T3C0.800
; #@! TA.AperFunction,Plated,PTH,ComponentDrill
T4C0.900
; #@! TA.AperFunction,Plated,PTH,ComponentDrill
T5C1.016
; #@! TA.AperFunction,Plated,PTH,ComponentDrill
T6C1.143
%
G90
G05
T1
X113.09Y-109.22
T2
X117.179Y-104.14
X117.179Y-106.14
X117.179Y-108.14
X117.179Y-110.14
X117.179Y-112.14
X117.179Y-114.14
X117.179Y-116.14
X117.179Y-118.14
X117.179Y-120.14
X117.179Y-122.14
X117.179Y-124.14
X117.179Y-126.14
T3
X94.192Y-125.552
X94.294Y-102.616
X94.294Y-107.188
X94.294Y-111.76
X94.294Y-116.332
X94.294Y-120.904
X104.352Y-125.552
X104.454Y-102.616
X104.454Y-107.188
X104.454Y-111.76
X104.454Y-116.332
X104.454Y-120.904
T4
X108.518Y-109.728
X108.518Y-117.856
X108.518Y-125.984
X111.058Y-109.728
X111.058Y-117.856
X111.058Y-125.984
T5
X81.28Y-78.74
X81.28Y-81.28
X81.28Y-83.82
X81.28Y-86.36
X81.28Y-88.9
X81.28Y-91.44
X81.28Y-93.98
X81.28Y-96.52
X81.28Y-99.06
X81.28Y-101.6
X81.28Y-104.14
X81.28Y-106.68
X81.28Y-109.22
X81.28Y-111.76
X81.28Y-114.3
X81.28Y-116.84
X81.28Y-119.38
X81.28Y-121.92
X81.28Y-124.46
X81.28Y-127.0
X124.46Y-78.74
X124.46Y-81.28
X124.46Y-83.82
X124.46Y-86.36
X124.46Y-88.9
X124.46Y-91.44
X124.46Y-93.98
X124.46Y-96.52
X124.46Y-99.06
X124.46Y-101.6
X124.46Y-104.14
X124.46Y-106.68
X124.46Y-109.22
X124.46Y-111.76
X124.46Y-114.3
X124.46Y-116.84
X124.46Y-119.38
X124.46Y-121.92
X124.46Y-124.46
X124.46Y-127.0
T6
X108.518Y-105.664
X108.518Y-121.793
X108.645Y-113.792
X110.804Y-105.664
X110.804Y-121.793
X110.931Y-113.792
X113.09Y-105.664
X113.09Y-121.793
X113.217Y-113.792
M30
