%TF.GenerationSoftware,KiCad,Pcbnew,9.0.5*%
%TF.CreationDate,2026-02-03T17:24:59-05:00*%
%TF.ProjectId,Traces V1.0,54726163-6573-4205-9631-2e302e6b6963,rev?*%
%TF.SameCoordinates,Original*%
%TF.FileFunction,Soldermask,Top*%
%TF.FilePolarity,Negative*%
%FSLAX46Y46*%
G04 Gerber Fmt 4.6, Leading zero omitted, Abs format (unit mm)*
G04 Created by KiCad (PCBNEW 9.0.5) date 2026-02-03 17:24:59*
%MOMM*%
%LPD*%
G01*
G04 APERTURE LIST*
G04 Aperture macros list*
%AMRoundRect*
0 Rectangle with rounded corners*
0 $1 Rounding radius*
0 $2 $3 $4 $5 $6 $7 $8 $9 X,Y pos of 4 corners*
0 Add a 4 corners polygon primitive as box body*
4,1,4,$2,$3,$4,$5,$6,$7,$8,$9,$2,$3,0*
0 Add four circle primitives for the rounded corners*
1,1,$1+$1,$2,$3*
1,1,$1+$1,$4,$5*
1,1,$1+$1,$6,$7*
1,1,$1+$1,$8,$9*
0 Add four rect primitives between the rounded corners*
20,1,$1+$1,$2,$3,$4,$5,0*
20,1,$1+$1,$4,$5,$6,$7,0*
20,1,$1+$1,$6,$7,$8,$9,0*
20,1,$1+$1,$8,$9,$2,$3,0*%
G04 Aperture macros list end*
%ADD10RoundRect,0.250000X0.625000X-0.350000X0.625000X0.350000X-0.625000X0.350000X-0.625000X-0.350000X0*%
%ADD11O,1.750000X1.200000*%
%ADD12R,1.700000X1.700000*%
%ADD13C,1.700000*%
%ADD14RoundRect,0.250000X-0.350000X-0.625000X0.350000X-0.625000X0.350000X0.625000X-0.350000X0.625000X0*%
%ADD15O,1.200000X1.750000*%
%ADD16C,2.604000*%
%ADD17RoundRect,0.250000X1.100000X-0.412500X1.100000X0.412500X-1.100000X0.412500X-1.100000X-0.412500X0*%
%ADD18RoundRect,0.250000X-1.075000X0.375000X-1.075000X-0.375000X1.075000X-0.375000X1.075000X0.375000X0*%
G04 APERTURE END LIST*
D10*
%TO.C,J2*%
X76200000Y-99250000D03*
D11*
X76200000Y-97250000D03*
X76200000Y-95250000D03*
X76200000Y-93250000D03*
X76200000Y-91250000D03*
X76200000Y-89250000D03*
X76200000Y-87250000D03*
X76200000Y-85250000D03*
X76200000Y-83250000D03*
X76200000Y-81250000D03*
X76200000Y-79250000D03*
X76200000Y-77250000D03*
X76200000Y-75250000D03*
X76200000Y-73250000D03*
X76200000Y-71250000D03*
%TD*%
D12*
%TO.C,REF\u002A\u002A*%
X91420000Y-61000000D03*
D13*
X93960000Y-61000000D03*
X96500000Y-61000000D03*
X99040000Y-61000000D03*
X101580000Y-61000000D03*
X104120000Y-61000000D03*
X106660000Y-61000000D03*
X109200000Y-61000000D03*
X111740000Y-61000000D03*
X114280000Y-61000000D03*
X116820000Y-61000000D03*
X119360000Y-61000000D03*
X121900000Y-61000000D03*
X124440000Y-61000000D03*
X126980000Y-61000000D03*
X129520000Y-61000000D03*
X132060000Y-61000000D03*
X134600000Y-61000000D03*
X137140000Y-61000000D03*
X139680000Y-61000000D03*
%TD*%
D14*
%TO.C,J4*%
X92680000Y-64770000D03*
D15*
X94680000Y-64770000D03*
X96680000Y-64770000D03*
X98680000Y-64770000D03*
X100680000Y-64770000D03*
X102680000Y-64770000D03*
X104680000Y-64770000D03*
X106680000Y-64770000D03*
X108680000Y-64770000D03*
X110680000Y-64770000D03*
X112680000Y-64770000D03*
X114680000Y-64770000D03*
%TD*%
D12*
%TO.C,REF\u002A\u002A*%
X40375000Y-60960000D03*
D13*
X42915000Y-60960000D03*
X45455000Y-60960000D03*
X47995000Y-60960000D03*
X50535000Y-60960000D03*
X53075000Y-60960000D03*
X55615000Y-60960000D03*
X58155000Y-60960000D03*
X60695000Y-60960000D03*
X63235000Y-60960000D03*
X65775000Y-60960000D03*
X68315000Y-60960000D03*
X70855000Y-60960000D03*
X73395000Y-60960000D03*
X75935000Y-60960000D03*
X78475000Y-60960000D03*
X81015000Y-60960000D03*
X83555000Y-60960000D03*
X86095000Y-60960000D03*
X88635000Y-60960000D03*
%TD*%
D14*
%TO.C,J5*%
X116840000Y-104140000D03*
D15*
X118840000Y-104140000D03*
X120840000Y-104140000D03*
X122840000Y-104140000D03*
X124840000Y-104140000D03*
X126840000Y-104140000D03*
X128840000Y-104140000D03*
X130840000Y-104140000D03*
X132840000Y-104140000D03*
X134840000Y-104140000D03*
X136840000Y-104140000D03*
X138840000Y-104140000D03*
%TD*%
D12*
%TO.C,REF\u002A\u002A*%
X40280000Y-109220000D03*
D13*
X42820000Y-109220000D03*
X45360000Y-109220000D03*
X47900000Y-109220000D03*
X50440000Y-109220000D03*
X52980000Y-109220000D03*
X55520000Y-109220000D03*
X58060000Y-109220000D03*
X60600000Y-109220000D03*
X63140000Y-109220000D03*
X65680000Y-109220000D03*
X68220000Y-109220000D03*
X70760000Y-109220000D03*
X73300000Y-109220000D03*
X75840000Y-109220000D03*
X78380000Y-109220000D03*
X80920000Y-109220000D03*
X83460000Y-109220000D03*
X86000000Y-109220000D03*
X88540000Y-109220000D03*
%TD*%
D10*
%TO.C,J1*%
X43180000Y-98740000D03*
D11*
X43180000Y-96740000D03*
X43180000Y-94740000D03*
X43180000Y-92740000D03*
X43180000Y-90740000D03*
X43180000Y-88740000D03*
X43180000Y-86740000D03*
X43180000Y-84740000D03*
X43180000Y-82740000D03*
X43180000Y-80740000D03*
X43180000Y-78740000D03*
X43180000Y-76740000D03*
X43180000Y-74740000D03*
X43180000Y-72740000D03*
X43180000Y-70740000D03*
%TD*%
D16*
%TO.C,F1*%
X70460000Y-98200000D03*
X60540000Y-98200000D03*
X70460000Y-94800000D03*
X60540000Y-94800000D03*
%TD*%
D14*
%TO.C,J7*%
X66040000Y-104140000D03*
D15*
X68040000Y-104140000D03*
X70040000Y-104140000D03*
X72040000Y-104140000D03*
X74040000Y-104140000D03*
X76040000Y-104140000D03*
X78040000Y-104140000D03*
X80040000Y-104140000D03*
X82040000Y-104140000D03*
X84040000Y-104140000D03*
X86040000Y-104140000D03*
X88040000Y-104140000D03*
%TD*%
D10*
%TO.C,J3*%
X53340000Y-98740000D03*
D11*
X53340000Y-96740000D03*
X53340000Y-94740000D03*
X53340000Y-92740000D03*
X53340000Y-90740000D03*
X53340000Y-88740000D03*
X53340000Y-86740000D03*
X53340000Y-84740000D03*
X53340000Y-82740000D03*
X53340000Y-80740000D03*
X53340000Y-78740000D03*
X53340000Y-76740000D03*
X53340000Y-74740000D03*
X53340000Y-72740000D03*
X53340000Y-70740000D03*
%TD*%
D12*
%TO.C,REF\u002A\u002A*%
X91440000Y-109220000D03*
D13*
X93980000Y-109220000D03*
X96520000Y-109220000D03*
X99060000Y-109220000D03*
X101600000Y-109220000D03*
X104140000Y-109220000D03*
X106680000Y-109220000D03*
X109220000Y-109220000D03*
X111760000Y-109220000D03*
X114300000Y-109220000D03*
X116840000Y-109220000D03*
X119380000Y-109220000D03*
X121920000Y-109220000D03*
X124460000Y-109220000D03*
X127000000Y-109220000D03*
X129540000Y-109220000D03*
X132080000Y-109220000D03*
X134620000Y-109220000D03*
X137160000Y-109220000D03*
X139700000Y-109220000D03*
%TD*%
D17*
%TO.C,C2*%
X61000000Y-105062500D03*
X61000000Y-101937500D03*
%TD*%
D14*
%TO.C,J6*%
X41910000Y-64770000D03*
D15*
X43910000Y-64770000D03*
X45910000Y-64770000D03*
X47910000Y-64770000D03*
X49910000Y-64770000D03*
X51910000Y-64770000D03*
X53910000Y-64770000D03*
X55910000Y-64770000D03*
X57910000Y-64770000D03*
X59910000Y-64770000D03*
X61910000Y-64770000D03*
X63910000Y-64770000D03*
%TD*%
D18*
%TO.C,D2*%
X55500000Y-102100000D03*
X55500000Y-104900000D03*
%TD*%
M02*
