M48
; DRILL file {KiCad 8.0.7} date 2025-02-19T16:15:34-0500
; FORMAT={-:-/ absolute / metric / decimal}
; #@! TF.CreationDate,2025-02-19T16:15:34-05:00
; #@! TF.GenerationSoftware,Kicad,Pcbnew,8.0.7
; #@! TF.FileFunction,MixedPlating,1,2
FMAT,2
METRIC
; #@! TA.AperFunction,Plated,PTH,ViaDrill
T1C0.700
; #@! TA.AperFunction,Plated,PTH,ComponentDrill
T2C0.889
; #@! TA.AperFunction,Plated,PTH,ComponentDrill
T3C1.020
; #@! TA.AperFunction,Plated,PTH,ComponentDrill
T4C1.600
%
G90
G05
T1
X54.0Y-33.5
X55.5Y-47.0
X56.5Y-36.25
X59.0Y-41.5
X59.75Y-33.25
X60.75Y-49.0
X61.0Y-39.0
X61.0Y-45.5
T2
X61.25Y-47.25
X61.25Y-51.0
X72.5Y-33.285
X72.5Y-44.715
X72.68Y-47.25
X72.68Y-51.0
T3
X50.8Y-25.4
X50.8Y-68.58
X53.34Y-25.4
X53.34Y-68.58
X55.88Y-25.4
X55.88Y-68.58
X58.42Y-25.4
X58.42Y-68.58
X60.96Y-25.4
X60.96Y-68.58
X63.5Y-25.4
X63.5Y-68.58
X66.04Y-25.4
X66.04Y-68.58
X68.58Y-25.4
X68.58Y-68.58
X71.12Y-25.4
X71.12Y-68.58
X73.66Y-25.4
X73.66Y-68.58
T4
X72.25Y-29.5
M30
