%TF.GenerationSoftware,KiCad,Pcbnew,8.0.7*%
%TF.CreationDate,2025-02-19T16:14:27-05:00*%
%TF.ProjectId,Precharge Module V2.1,50726563-6861-4726-9765-204d6f64756c,rev?*%
%TF.SameCoordinates,Original*%
%TF.FileFunction,Profile,NP*%
%FSLAX46Y46*%
G04 Gerber Fmt 4.6, Leading zero omitted, Abs format (unit mm)*
G04 Created by KiCad (PCBNEW 8.0.7) date 2025-02-19 16:14:27*
%MOMM*%
%LPD*%
G01*
G04 APERTURE LIST*
%TA.AperFunction,Profile*%
%ADD10C,0.050000*%
%TD*%
%ADD11C,0.150000*%
G04 APERTURE END LIST*
D10*
X49563000Y-24308400D02*
X74763000Y-24308400D01*
X74763000Y-70308400D01*
X49563000Y-70308400D01*
X49563000Y-24308400D01*
D11*
X81301152Y-51451256D02*
X81967819Y-51451256D01*
X80920200Y-51689351D02*
X81634485Y-51927446D01*
X81634485Y-51927446D02*
X81634485Y-51308399D01*
X80967819Y-50498875D02*
X80967819Y-50689351D01*
X80967819Y-50689351D02*
X81015438Y-50784589D01*
X81015438Y-50784589D02*
X81063057Y-50832208D01*
X81063057Y-50832208D02*
X81205914Y-50927446D01*
X81205914Y-50927446D02*
X81396390Y-50975065D01*
X81396390Y-50975065D02*
X81777342Y-50975065D01*
X81777342Y-50975065D02*
X81872580Y-50927446D01*
X81872580Y-50927446D02*
X81920200Y-50879827D01*
X81920200Y-50879827D02*
X81967819Y-50784589D01*
X81967819Y-50784589D02*
X81967819Y-50594113D01*
X81967819Y-50594113D02*
X81920200Y-50498875D01*
X81920200Y-50498875D02*
X81872580Y-50451256D01*
X81872580Y-50451256D02*
X81777342Y-50403637D01*
X81777342Y-50403637D02*
X81539247Y-50403637D01*
X81539247Y-50403637D02*
X81444009Y-50451256D01*
X81444009Y-50451256D02*
X81396390Y-50498875D01*
X81396390Y-50498875D02*
X81348771Y-50594113D01*
X81348771Y-50594113D02*
X81348771Y-50784589D01*
X81348771Y-50784589D02*
X81396390Y-50879827D01*
X81396390Y-50879827D02*
X81444009Y-50927446D01*
X81444009Y-50927446D02*
X81539247Y-50975065D01*
X81872580Y-49975065D02*
X81920200Y-49927446D01*
X81920200Y-49927446D02*
X81967819Y-49975065D01*
X81967819Y-49975065D02*
X81920200Y-50022684D01*
X81920200Y-50022684D02*
X81872580Y-49975065D01*
X81872580Y-49975065D02*
X81967819Y-49975065D01*
X80967819Y-49308399D02*
X80967819Y-49213161D01*
X80967819Y-49213161D02*
X81015438Y-49117923D01*
X81015438Y-49117923D02*
X81063057Y-49070304D01*
X81063057Y-49070304D02*
X81158295Y-49022685D01*
X81158295Y-49022685D02*
X81348771Y-48975066D01*
X81348771Y-48975066D02*
X81586866Y-48975066D01*
X81586866Y-48975066D02*
X81777342Y-49022685D01*
X81777342Y-49022685D02*
X81872580Y-49070304D01*
X81872580Y-49070304D02*
X81920200Y-49117923D01*
X81920200Y-49117923D02*
X81967819Y-49213161D01*
X81967819Y-49213161D02*
X81967819Y-49308399D01*
X81967819Y-49308399D02*
X81920200Y-49403637D01*
X81920200Y-49403637D02*
X81872580Y-49451256D01*
X81872580Y-49451256D02*
X81777342Y-49498875D01*
X81777342Y-49498875D02*
X81586866Y-49546494D01*
X81586866Y-49546494D02*
X81348771Y-49546494D01*
X81348771Y-49546494D02*
X81158295Y-49498875D01*
X81158295Y-49498875D02*
X81063057Y-49451256D01*
X81063057Y-49451256D02*
X81015438Y-49403637D01*
X81015438Y-49403637D02*
X80967819Y-49308399D01*
X80967819Y-48356018D02*
X80967819Y-48260780D01*
X80967819Y-48260780D02*
X81015438Y-48165542D01*
X81015438Y-48165542D02*
X81063057Y-48117923D01*
X81063057Y-48117923D02*
X81158295Y-48070304D01*
X81158295Y-48070304D02*
X81348771Y-48022685D01*
X81348771Y-48022685D02*
X81586866Y-48022685D01*
X81586866Y-48022685D02*
X81777342Y-48070304D01*
X81777342Y-48070304D02*
X81872580Y-48117923D01*
X81872580Y-48117923D02*
X81920200Y-48165542D01*
X81920200Y-48165542D02*
X81967819Y-48260780D01*
X81967819Y-48260780D02*
X81967819Y-48356018D01*
X81967819Y-48356018D02*
X81920200Y-48451256D01*
X81920200Y-48451256D02*
X81872580Y-48498875D01*
X81872580Y-48498875D02*
X81777342Y-48546494D01*
X81777342Y-48546494D02*
X81586866Y-48594113D01*
X81586866Y-48594113D02*
X81348771Y-48594113D01*
X81348771Y-48594113D02*
X81158295Y-48546494D01*
X81158295Y-48546494D02*
X81063057Y-48498875D01*
X81063057Y-48498875D02*
X81015438Y-48451256D01*
X81015438Y-48451256D02*
X80967819Y-48356018D01*
X80967819Y-47403637D02*
X80967819Y-47308399D01*
X80967819Y-47308399D02*
X81015438Y-47213161D01*
X81015438Y-47213161D02*
X81063057Y-47165542D01*
X81063057Y-47165542D02*
X81158295Y-47117923D01*
X81158295Y-47117923D02*
X81348771Y-47070304D01*
X81348771Y-47070304D02*
X81586866Y-47070304D01*
X81586866Y-47070304D02*
X81777342Y-47117923D01*
X81777342Y-47117923D02*
X81872580Y-47165542D01*
X81872580Y-47165542D02*
X81920200Y-47213161D01*
X81920200Y-47213161D02*
X81967819Y-47308399D01*
X81967819Y-47308399D02*
X81967819Y-47403637D01*
X81967819Y-47403637D02*
X81920200Y-47498875D01*
X81920200Y-47498875D02*
X81872580Y-47546494D01*
X81872580Y-47546494D02*
X81777342Y-47594113D01*
X81777342Y-47594113D02*
X81586866Y-47641732D01*
X81586866Y-47641732D02*
X81348771Y-47641732D01*
X81348771Y-47641732D02*
X81158295Y-47594113D01*
X81158295Y-47594113D02*
X81063057Y-47546494D01*
X81063057Y-47546494D02*
X81015438Y-47498875D01*
X81015438Y-47498875D02*
X80967819Y-47403637D01*
X80967819Y-46451256D02*
X80967819Y-46356018D01*
X80967819Y-46356018D02*
X81015438Y-46260780D01*
X81015438Y-46260780D02*
X81063057Y-46213161D01*
X81063057Y-46213161D02*
X81158295Y-46165542D01*
X81158295Y-46165542D02*
X81348771Y-46117923D01*
X81348771Y-46117923D02*
X81586866Y-46117923D01*
X81586866Y-46117923D02*
X81777342Y-46165542D01*
X81777342Y-46165542D02*
X81872580Y-46213161D01*
X81872580Y-46213161D02*
X81920200Y-46260780D01*
X81920200Y-46260780D02*
X81967819Y-46356018D01*
X81967819Y-46356018D02*
X81967819Y-46451256D01*
X81967819Y-46451256D02*
X81920200Y-46546494D01*
X81920200Y-46546494D02*
X81872580Y-46594113D01*
X81872580Y-46594113D02*
X81777342Y-46641732D01*
X81777342Y-46641732D02*
X81586866Y-46689351D01*
X81586866Y-46689351D02*
X81348771Y-46689351D01*
X81348771Y-46689351D02*
X81158295Y-46641732D01*
X81158295Y-46641732D02*
X81063057Y-46594113D01*
X81063057Y-46594113D02*
X81015438Y-46546494D01*
X81015438Y-46546494D02*
X80967819Y-46451256D01*
X81967819Y-44927446D02*
X81301152Y-44927446D01*
X81396390Y-44927446D02*
X81348771Y-44879827D01*
X81348771Y-44879827D02*
X81301152Y-44784589D01*
X81301152Y-44784589D02*
X81301152Y-44641732D01*
X81301152Y-44641732D02*
X81348771Y-44546494D01*
X81348771Y-44546494D02*
X81444009Y-44498875D01*
X81444009Y-44498875D02*
X81967819Y-44498875D01*
X81444009Y-44498875D02*
X81348771Y-44451256D01*
X81348771Y-44451256D02*
X81301152Y-44356018D01*
X81301152Y-44356018D02*
X81301152Y-44213161D01*
X81301152Y-44213161D02*
X81348771Y-44117922D01*
X81348771Y-44117922D02*
X81444009Y-44070303D01*
X81444009Y-44070303D02*
X81967819Y-44070303D01*
X81967819Y-43594113D02*
X81301152Y-43594113D01*
X81396390Y-43594113D02*
X81348771Y-43546494D01*
X81348771Y-43546494D02*
X81301152Y-43451256D01*
X81301152Y-43451256D02*
X81301152Y-43308399D01*
X81301152Y-43308399D02*
X81348771Y-43213161D01*
X81348771Y-43213161D02*
X81444009Y-43165542D01*
X81444009Y-43165542D02*
X81967819Y-43165542D01*
X81444009Y-43165542D02*
X81348771Y-43117923D01*
X81348771Y-43117923D02*
X81301152Y-43022685D01*
X81301152Y-43022685D02*
X81301152Y-42879828D01*
X81301152Y-42879828D02*
X81348771Y-42784589D01*
X81348771Y-42784589D02*
X81444009Y-42736970D01*
X81444009Y-42736970D02*
X81967819Y-42736970D01*
D10*
X75263000Y-24308400D02*
X83249420Y-24308400D01*
X75263000Y-70308400D02*
X83249420Y-70308400D01*
X82663000Y-24308400D02*
X82663000Y-70308400D01*
X82663000Y-24308400D02*
X82663000Y-70308400D01*
X82663000Y-24308400D02*
X83249421Y-25434904D01*
X82663000Y-24308400D02*
X82076579Y-25434904D01*
X82663000Y-70308400D02*
X82076579Y-69181896D01*
X82663000Y-70308400D02*
X83249421Y-69181896D01*
D11*
X77378152Y-51132856D02*
X78044819Y-51132856D01*
X76997200Y-51370951D02*
X77711485Y-51609046D01*
X77711485Y-51609046D02*
X77711485Y-50989999D01*
X77044819Y-50704284D02*
X77044819Y-50085237D01*
X77044819Y-50085237D02*
X77425771Y-50418570D01*
X77425771Y-50418570D02*
X77425771Y-50275713D01*
X77425771Y-50275713D02*
X77473390Y-50180475D01*
X77473390Y-50180475D02*
X77521009Y-50132856D01*
X77521009Y-50132856D02*
X77616247Y-50085237D01*
X77616247Y-50085237D02*
X77854342Y-50085237D01*
X77854342Y-50085237D02*
X77949580Y-50132856D01*
X77949580Y-50132856D02*
X77997200Y-50180475D01*
X77997200Y-50180475D02*
X78044819Y-50275713D01*
X78044819Y-50275713D02*
X78044819Y-50561427D01*
X78044819Y-50561427D02*
X77997200Y-50656665D01*
X77997200Y-50656665D02*
X77949580Y-50704284D01*
X77949580Y-49656665D02*
X77997200Y-49609046D01*
X77997200Y-49609046D02*
X78044819Y-49656665D01*
X78044819Y-49656665D02*
X77997200Y-49704284D01*
X77997200Y-49704284D02*
X77949580Y-49656665D01*
X77949580Y-49656665D02*
X78044819Y-49656665D01*
X78044819Y-48656666D02*
X78044819Y-49228094D01*
X78044819Y-48942380D02*
X77044819Y-48942380D01*
X77044819Y-48942380D02*
X77187676Y-49037618D01*
X77187676Y-49037618D02*
X77282914Y-49132856D01*
X77282914Y-49132856D02*
X77330533Y-49228094D01*
X77473390Y-48085237D02*
X77425771Y-48180475D01*
X77425771Y-48180475D02*
X77378152Y-48228094D01*
X77378152Y-48228094D02*
X77282914Y-48275713D01*
X77282914Y-48275713D02*
X77235295Y-48275713D01*
X77235295Y-48275713D02*
X77140057Y-48228094D01*
X77140057Y-48228094D02*
X77092438Y-48180475D01*
X77092438Y-48180475D02*
X77044819Y-48085237D01*
X77044819Y-48085237D02*
X77044819Y-47894761D01*
X77044819Y-47894761D02*
X77092438Y-47799523D01*
X77092438Y-47799523D02*
X77140057Y-47751904D01*
X77140057Y-47751904D02*
X77235295Y-47704285D01*
X77235295Y-47704285D02*
X77282914Y-47704285D01*
X77282914Y-47704285D02*
X77378152Y-47751904D01*
X77378152Y-47751904D02*
X77425771Y-47799523D01*
X77425771Y-47799523D02*
X77473390Y-47894761D01*
X77473390Y-47894761D02*
X77473390Y-48085237D01*
X77473390Y-48085237D02*
X77521009Y-48180475D01*
X77521009Y-48180475D02*
X77568628Y-48228094D01*
X77568628Y-48228094D02*
X77663866Y-48275713D01*
X77663866Y-48275713D02*
X77854342Y-48275713D01*
X77854342Y-48275713D02*
X77949580Y-48228094D01*
X77949580Y-48228094D02*
X77997200Y-48180475D01*
X77997200Y-48180475D02*
X78044819Y-48085237D01*
X78044819Y-48085237D02*
X78044819Y-47894761D01*
X78044819Y-47894761D02*
X77997200Y-47799523D01*
X77997200Y-47799523D02*
X77949580Y-47751904D01*
X77949580Y-47751904D02*
X77854342Y-47704285D01*
X77854342Y-47704285D02*
X77663866Y-47704285D01*
X77663866Y-47704285D02*
X77568628Y-47751904D01*
X77568628Y-47751904D02*
X77521009Y-47799523D01*
X77521009Y-47799523D02*
X77473390Y-47894761D01*
X77044819Y-47085237D02*
X77044819Y-46989999D01*
X77044819Y-46989999D02*
X77092438Y-46894761D01*
X77092438Y-46894761D02*
X77140057Y-46847142D01*
X77140057Y-46847142D02*
X77235295Y-46799523D01*
X77235295Y-46799523D02*
X77425771Y-46751904D01*
X77425771Y-46751904D02*
X77663866Y-46751904D01*
X77663866Y-46751904D02*
X77854342Y-46799523D01*
X77854342Y-46799523D02*
X77949580Y-46847142D01*
X77949580Y-46847142D02*
X77997200Y-46894761D01*
X77997200Y-46894761D02*
X78044819Y-46989999D01*
X78044819Y-46989999D02*
X78044819Y-47085237D01*
X78044819Y-47085237D02*
X77997200Y-47180475D01*
X77997200Y-47180475D02*
X77949580Y-47228094D01*
X77949580Y-47228094D02*
X77854342Y-47275713D01*
X77854342Y-47275713D02*
X77663866Y-47323332D01*
X77663866Y-47323332D02*
X77425771Y-47323332D01*
X77425771Y-47323332D02*
X77235295Y-47275713D01*
X77235295Y-47275713D02*
X77140057Y-47228094D01*
X77140057Y-47228094D02*
X77092438Y-47180475D01*
X77092438Y-47180475D02*
X77044819Y-47085237D01*
X77044819Y-46132856D02*
X77044819Y-46037618D01*
X77044819Y-46037618D02*
X77092438Y-45942380D01*
X77092438Y-45942380D02*
X77140057Y-45894761D01*
X77140057Y-45894761D02*
X77235295Y-45847142D01*
X77235295Y-45847142D02*
X77425771Y-45799523D01*
X77425771Y-45799523D02*
X77663866Y-45799523D01*
X77663866Y-45799523D02*
X77854342Y-45847142D01*
X77854342Y-45847142D02*
X77949580Y-45894761D01*
X77949580Y-45894761D02*
X77997200Y-45942380D01*
X77997200Y-45942380D02*
X78044819Y-46037618D01*
X78044819Y-46037618D02*
X78044819Y-46132856D01*
X78044819Y-46132856D02*
X77997200Y-46228094D01*
X77997200Y-46228094D02*
X77949580Y-46275713D01*
X77949580Y-46275713D02*
X77854342Y-46323332D01*
X77854342Y-46323332D02*
X77663866Y-46370951D01*
X77663866Y-46370951D02*
X77425771Y-46370951D01*
X77425771Y-46370951D02*
X77235295Y-46323332D01*
X77235295Y-46323332D02*
X77140057Y-46275713D01*
X77140057Y-46275713D02*
X77092438Y-46228094D01*
X77092438Y-46228094D02*
X77044819Y-46132856D01*
X78044819Y-44609046D02*
X77378152Y-44609046D01*
X77473390Y-44609046D02*
X77425771Y-44561427D01*
X77425771Y-44561427D02*
X77378152Y-44466189D01*
X77378152Y-44466189D02*
X77378152Y-44323332D01*
X77378152Y-44323332D02*
X77425771Y-44228094D01*
X77425771Y-44228094D02*
X77521009Y-44180475D01*
X77521009Y-44180475D02*
X78044819Y-44180475D01*
X77521009Y-44180475D02*
X77425771Y-44132856D01*
X77425771Y-44132856D02*
X77378152Y-44037618D01*
X77378152Y-44037618D02*
X77378152Y-43894761D01*
X77378152Y-43894761D02*
X77425771Y-43799522D01*
X77425771Y-43799522D02*
X77521009Y-43751903D01*
X77521009Y-43751903D02*
X78044819Y-43751903D01*
X78044819Y-43275713D02*
X77378152Y-43275713D01*
X77473390Y-43275713D02*
X77425771Y-43228094D01*
X77425771Y-43228094D02*
X77378152Y-43132856D01*
X77378152Y-43132856D02*
X77378152Y-42989999D01*
X77378152Y-42989999D02*
X77425771Y-42894761D01*
X77425771Y-42894761D02*
X77521009Y-42847142D01*
X77521009Y-42847142D02*
X78044819Y-42847142D01*
X77521009Y-42847142D02*
X77425771Y-42799523D01*
X77425771Y-42799523D02*
X77378152Y-42704285D01*
X77378152Y-42704285D02*
X77378152Y-42561428D01*
X77378152Y-42561428D02*
X77425771Y-42466189D01*
X77425771Y-42466189D02*
X77521009Y-42418570D01*
X77521009Y-42418570D02*
X78044819Y-42418570D01*
D10*
X74160000Y-68580000D02*
X79326420Y-68580000D01*
X74160000Y-25400000D02*
X79326420Y-25400000D01*
X78740000Y-68580000D02*
X78740000Y-25400000D01*
X78740000Y-68580000D02*
X78740000Y-25400000D01*
X78740000Y-68580000D02*
X78153579Y-67453496D01*
X78740000Y-68580000D02*
X79326421Y-67453496D01*
X78740000Y-25400000D02*
X79326421Y-26526504D01*
X78740000Y-25400000D02*
X78153579Y-26526504D01*
M02*
