%TF.GenerationSoftware,KiCad,Pcbnew,8.0.8*%
%TF.CreationDate,2025-02-03T20:56:19-05:00*%
%TF.ProjectId,RTDS Control Module,52544453-2043-46f6-9e74-726f6c204d6f,rev?*%
%TF.SameCoordinates,Original*%
%TF.FileFunction,Legend,Top*%
%TF.FilePolarity,Positive*%
%FSLAX46Y46*%
G04 Gerber Fmt 4.6, Leading zero omitted, Abs format (unit mm)*
G04 Created by KiCad (PCBNEW 8.0.8) date 2025-02-03 20:56:19*
%MOMM*%
%LPD*%
G01*
G04 APERTURE LIST*
%ADD10C,0.100000*%
%ADD11C,0.150000*%
%ADD12C,0.152400*%
%ADD13C,0.127000*%
%ADD14C,0.200000*%
%ADD15C,0.076200*%
%ADD16C,0.254000*%
%ADD17C,0.120000*%
G04 APERTURE END LIST*
D10*
X49650000Y-44500000D02*
X74750000Y-44500000D01*
X74750000Y-47400000D01*
X49650000Y-47400000D01*
X49650000Y-44500000D01*
X54150000Y-48300000D02*
X70150000Y-48300000D01*
X70150000Y-57100000D01*
X54150000Y-57100000D01*
X54150000Y-48300000D01*
X73485312Y-27872419D02*
X72913884Y-27872419D01*
X73199598Y-27872419D02*
X73199598Y-26872419D01*
X73199598Y-26872419D02*
X73104360Y-27015276D01*
X73104360Y-27015276D02*
X73009122Y-27110514D01*
X73009122Y-27110514D02*
X72913884Y-27158133D01*
X74104360Y-26872419D02*
X74199598Y-26872419D01*
X74199598Y-26872419D02*
X74294836Y-26920038D01*
X74294836Y-26920038D02*
X74342455Y-26967657D01*
X74342455Y-26967657D02*
X74390074Y-27062895D01*
X74390074Y-27062895D02*
X74437693Y-27253371D01*
X74437693Y-27253371D02*
X74437693Y-27491466D01*
X74437693Y-27491466D02*
X74390074Y-27681942D01*
X74390074Y-27681942D02*
X74342455Y-27777180D01*
X74342455Y-27777180D02*
X74294836Y-27824800D01*
X74294836Y-27824800D02*
X74199598Y-27872419D01*
X74199598Y-27872419D02*
X74104360Y-27872419D01*
X74104360Y-27872419D02*
X74009122Y-27824800D01*
X74009122Y-27824800D02*
X73961503Y-27777180D01*
X73961503Y-27777180D02*
X73913884Y-27681942D01*
X73913884Y-27681942D02*
X73866265Y-27491466D01*
X73866265Y-27491466D02*
X73866265Y-27253371D01*
X73866265Y-27253371D02*
X73913884Y-27062895D01*
X73913884Y-27062895D02*
X73961503Y-26967657D01*
X73961503Y-26967657D02*
X74009122Y-26920038D01*
X74009122Y-26920038D02*
X74104360Y-26872419D01*
X54954359Y-51742587D02*
X54611502Y-51742587D01*
X54782931Y-51742587D02*
X54782931Y-50742587D01*
X54782931Y-50742587D02*
X54725788Y-50885444D01*
X54725788Y-50885444D02*
X54668645Y-50980682D01*
X54668645Y-50980682D02*
X54611502Y-51028301D01*
X55211503Y-51647348D02*
X55240074Y-51694968D01*
X55240074Y-51694968D02*
X55211503Y-51742587D01*
X55211503Y-51742587D02*
X55182931Y-51694968D01*
X55182931Y-51694968D02*
X55211503Y-51647348D01*
X55211503Y-51647348D02*
X55211503Y-51742587D01*
X55211503Y-51123539D02*
X55240074Y-51171158D01*
X55240074Y-51171158D02*
X55211503Y-51218777D01*
X55211503Y-51218777D02*
X55182931Y-51171158D01*
X55182931Y-51171158D02*
X55211503Y-51123539D01*
X55211503Y-51123539D02*
X55211503Y-51218777D01*
X55868645Y-50742587D02*
X56068645Y-51742587D01*
X56068645Y-51742587D02*
X56268645Y-50742587D01*
X56440074Y-51694968D02*
X56497217Y-51742587D01*
X56497217Y-51742587D02*
X56611503Y-51742587D01*
X56611503Y-51742587D02*
X56668646Y-51694968D01*
X56668646Y-51694968D02*
X56697217Y-51599729D01*
X56697217Y-51599729D02*
X56697217Y-51552110D01*
X56697217Y-51552110D02*
X56668646Y-51456872D01*
X56668646Y-51456872D02*
X56611503Y-51409253D01*
X56611503Y-51409253D02*
X56525789Y-51409253D01*
X56525789Y-51409253D02*
X56468646Y-51361634D01*
X56468646Y-51361634D02*
X56440074Y-51266396D01*
X56440074Y-51266396D02*
X56440074Y-51218777D01*
X56440074Y-51218777D02*
X56468646Y-51123539D01*
X56468646Y-51123539D02*
X56525789Y-51075920D01*
X56525789Y-51075920D02*
X56611503Y-51075920D01*
X56611503Y-51075920D02*
X56668646Y-51123539D01*
X63240074Y-50742587D02*
X62954360Y-50742587D01*
X62954360Y-50742587D02*
X62925788Y-51218777D01*
X62925788Y-51218777D02*
X62954360Y-51171158D01*
X62954360Y-51171158D02*
X63011503Y-51123539D01*
X63011503Y-51123539D02*
X63154360Y-51123539D01*
X63154360Y-51123539D02*
X63211503Y-51171158D01*
X63211503Y-51171158D02*
X63240074Y-51218777D01*
X63240074Y-51218777D02*
X63268645Y-51314015D01*
X63268645Y-51314015D02*
X63268645Y-51552110D01*
X63268645Y-51552110D02*
X63240074Y-51647348D01*
X63240074Y-51647348D02*
X63211503Y-51694968D01*
X63211503Y-51694968D02*
X63154360Y-51742587D01*
X63154360Y-51742587D02*
X63011503Y-51742587D01*
X63011503Y-51742587D02*
X62954360Y-51694968D01*
X62954360Y-51694968D02*
X62925788Y-51647348D01*
X63525789Y-51647348D02*
X63554360Y-51694968D01*
X63554360Y-51694968D02*
X63525789Y-51742587D01*
X63525789Y-51742587D02*
X63497217Y-51694968D01*
X63497217Y-51694968D02*
X63525789Y-51647348D01*
X63525789Y-51647348D02*
X63525789Y-51742587D01*
X63525789Y-51123539D02*
X63554360Y-51171158D01*
X63554360Y-51171158D02*
X63525789Y-51218777D01*
X63525789Y-51218777D02*
X63497217Y-51171158D01*
X63497217Y-51171158D02*
X63525789Y-51123539D01*
X63525789Y-51123539D02*
X63525789Y-51218777D01*
X64582931Y-50790206D02*
X64525789Y-50742587D01*
X64525789Y-50742587D02*
X64440074Y-50742587D01*
X64440074Y-50742587D02*
X64354360Y-50790206D01*
X64354360Y-50790206D02*
X64297217Y-50885444D01*
X64297217Y-50885444D02*
X64268646Y-50980682D01*
X64268646Y-50980682D02*
X64240074Y-51171158D01*
X64240074Y-51171158D02*
X64240074Y-51314015D01*
X64240074Y-51314015D02*
X64268646Y-51504491D01*
X64268646Y-51504491D02*
X64297217Y-51599729D01*
X64297217Y-51599729D02*
X64354360Y-51694968D01*
X64354360Y-51694968D02*
X64440074Y-51742587D01*
X64440074Y-51742587D02*
X64497217Y-51742587D01*
X64497217Y-51742587D02*
X64582931Y-51694968D01*
X64582931Y-51694968D02*
X64611503Y-51647348D01*
X64611503Y-51647348D02*
X64611503Y-51314015D01*
X64611503Y-51314015D02*
X64497217Y-51314015D01*
X64868646Y-51742587D02*
X64868646Y-50742587D01*
X64868646Y-50742587D02*
X65211503Y-51742587D01*
X65211503Y-51742587D02*
X65211503Y-50742587D01*
X65497217Y-51742587D02*
X65497217Y-50742587D01*
X65497217Y-50742587D02*
X65640074Y-50742587D01*
X65640074Y-50742587D02*
X65725788Y-50790206D01*
X65725788Y-50790206D02*
X65782931Y-50885444D01*
X65782931Y-50885444D02*
X65811502Y-50980682D01*
X65811502Y-50980682D02*
X65840074Y-51171158D01*
X65840074Y-51171158D02*
X65840074Y-51314015D01*
X65840074Y-51314015D02*
X65811502Y-51504491D01*
X65811502Y-51504491D02*
X65782931Y-51599729D01*
X65782931Y-51599729D02*
X65725788Y-51694968D01*
X65725788Y-51694968D02*
X65640074Y-51742587D01*
X65640074Y-51742587D02*
X65497217Y-51742587D01*
X54611502Y-52447769D02*
X54640074Y-52400150D01*
X54640074Y-52400150D02*
X54697217Y-52352531D01*
X54697217Y-52352531D02*
X54840074Y-52352531D01*
X54840074Y-52352531D02*
X54897217Y-52400150D01*
X54897217Y-52400150D02*
X54925788Y-52447769D01*
X54925788Y-52447769D02*
X54954359Y-52543007D01*
X54954359Y-52543007D02*
X54954359Y-52638245D01*
X54954359Y-52638245D02*
X54925788Y-52781102D01*
X54925788Y-52781102D02*
X54582931Y-53352531D01*
X54582931Y-53352531D02*
X54954359Y-53352531D01*
X55211503Y-53257292D02*
X55240074Y-53304912D01*
X55240074Y-53304912D02*
X55211503Y-53352531D01*
X55211503Y-53352531D02*
X55182931Y-53304912D01*
X55182931Y-53304912D02*
X55211503Y-53257292D01*
X55211503Y-53257292D02*
X55211503Y-53352531D01*
X55211503Y-52733483D02*
X55240074Y-52781102D01*
X55240074Y-52781102D02*
X55211503Y-52828721D01*
X55211503Y-52828721D02*
X55182931Y-52781102D01*
X55182931Y-52781102D02*
X55211503Y-52733483D01*
X55211503Y-52733483D02*
X55211503Y-52828721D01*
X56268645Y-52400150D02*
X56211503Y-52352531D01*
X56211503Y-52352531D02*
X56125788Y-52352531D01*
X56125788Y-52352531D02*
X56040074Y-52400150D01*
X56040074Y-52400150D02*
X55982931Y-52495388D01*
X55982931Y-52495388D02*
X55954360Y-52590626D01*
X55954360Y-52590626D02*
X55925788Y-52781102D01*
X55925788Y-52781102D02*
X55925788Y-52923959D01*
X55925788Y-52923959D02*
X55954360Y-53114435D01*
X55954360Y-53114435D02*
X55982931Y-53209673D01*
X55982931Y-53209673D02*
X56040074Y-53304912D01*
X56040074Y-53304912D02*
X56125788Y-53352531D01*
X56125788Y-53352531D02*
X56182931Y-53352531D01*
X56182931Y-53352531D02*
X56268645Y-53304912D01*
X56268645Y-53304912D02*
X56297217Y-53257292D01*
X56297217Y-53257292D02*
X56297217Y-52923959D01*
X56297217Y-52923959D02*
X56182931Y-52923959D01*
X56554360Y-53352531D02*
X56554360Y-52352531D01*
X56554360Y-52352531D02*
X56897217Y-53352531D01*
X56897217Y-53352531D02*
X56897217Y-52352531D01*
X57182931Y-53352531D02*
X57182931Y-52352531D01*
X57182931Y-52352531D02*
X57325788Y-52352531D01*
X57325788Y-52352531D02*
X57411502Y-52400150D01*
X57411502Y-52400150D02*
X57468645Y-52495388D01*
X57468645Y-52495388D02*
X57497216Y-52590626D01*
X57497216Y-52590626D02*
X57525788Y-52781102D01*
X57525788Y-52781102D02*
X57525788Y-52923959D01*
X57525788Y-52923959D02*
X57497216Y-53114435D01*
X57497216Y-53114435D02*
X57468645Y-53209673D01*
X57468645Y-53209673D02*
X57411502Y-53304912D01*
X57411502Y-53304912D02*
X57325788Y-53352531D01*
X57325788Y-53352531D02*
X57182931Y-53352531D01*
X63068647Y-52352531D02*
X62954361Y-52352531D01*
X62954361Y-52352531D02*
X62897218Y-52400150D01*
X62897218Y-52400150D02*
X62868647Y-52447769D01*
X62868647Y-52447769D02*
X62811504Y-52590626D01*
X62811504Y-52590626D02*
X62782932Y-52781102D01*
X62782932Y-52781102D02*
X62782932Y-53162054D01*
X62782932Y-53162054D02*
X62811504Y-53257292D01*
X62811504Y-53257292D02*
X62840075Y-53304912D01*
X62840075Y-53304912D02*
X62897218Y-53352531D01*
X62897218Y-53352531D02*
X63011504Y-53352531D01*
X63011504Y-53352531D02*
X63068647Y-53304912D01*
X63068647Y-53304912D02*
X63097218Y-53257292D01*
X63097218Y-53257292D02*
X63125789Y-53162054D01*
X63125789Y-53162054D02*
X63125789Y-52923959D01*
X63125789Y-52923959D02*
X63097218Y-52828721D01*
X63097218Y-52828721D02*
X63068647Y-52781102D01*
X63068647Y-52781102D02*
X63011504Y-52733483D01*
X63011504Y-52733483D02*
X62897218Y-52733483D01*
X62897218Y-52733483D02*
X62840075Y-52781102D01*
X62840075Y-52781102D02*
X62811504Y-52828721D01*
X62811504Y-52828721D02*
X62782932Y-52923959D01*
X63382933Y-53257292D02*
X63411504Y-53304912D01*
X63411504Y-53304912D02*
X63382933Y-53352531D01*
X63382933Y-53352531D02*
X63354361Y-53304912D01*
X63354361Y-53304912D02*
X63382933Y-53257292D01*
X63382933Y-53257292D02*
X63382933Y-53352531D01*
X63382933Y-52733483D02*
X63411504Y-52781102D01*
X63411504Y-52781102D02*
X63382933Y-52828721D01*
X63382933Y-52828721D02*
X63354361Y-52781102D01*
X63354361Y-52781102D02*
X63382933Y-52733483D01*
X63382933Y-52733483D02*
X63382933Y-52828721D01*
X64468647Y-53352531D02*
X64268647Y-52876340D01*
X64125790Y-53352531D02*
X64125790Y-52352531D01*
X64125790Y-52352531D02*
X64354361Y-52352531D01*
X64354361Y-52352531D02*
X64411504Y-52400150D01*
X64411504Y-52400150D02*
X64440075Y-52447769D01*
X64440075Y-52447769D02*
X64468647Y-52543007D01*
X64468647Y-52543007D02*
X64468647Y-52685864D01*
X64468647Y-52685864D02*
X64440075Y-52781102D01*
X64440075Y-52781102D02*
X64411504Y-52828721D01*
X64411504Y-52828721D02*
X64354361Y-52876340D01*
X64354361Y-52876340D02*
X64125790Y-52876340D01*
X64640075Y-52352531D02*
X64982933Y-52352531D01*
X64811504Y-53352531D02*
X64811504Y-52352531D01*
X65182933Y-53352531D02*
X65182933Y-52352531D01*
X65182933Y-52352531D02*
X65325790Y-52352531D01*
X65325790Y-52352531D02*
X65411504Y-52400150D01*
X65411504Y-52400150D02*
X65468647Y-52495388D01*
X65468647Y-52495388D02*
X65497218Y-52590626D01*
X65497218Y-52590626D02*
X65525790Y-52781102D01*
X65525790Y-52781102D02*
X65525790Y-52923959D01*
X65525790Y-52923959D02*
X65497218Y-53114435D01*
X65497218Y-53114435D02*
X65468647Y-53209673D01*
X65468647Y-53209673D02*
X65411504Y-53304912D01*
X65411504Y-53304912D02*
X65325790Y-53352531D01*
X65325790Y-53352531D02*
X65182933Y-53352531D01*
X65754361Y-53304912D02*
X65840076Y-53352531D01*
X65840076Y-53352531D02*
X65982933Y-53352531D01*
X65982933Y-53352531D02*
X66040076Y-53304912D01*
X66040076Y-53304912D02*
X66068647Y-53257292D01*
X66068647Y-53257292D02*
X66097218Y-53162054D01*
X66097218Y-53162054D02*
X66097218Y-53066816D01*
X66097218Y-53066816D02*
X66068647Y-52971578D01*
X66068647Y-52971578D02*
X66040076Y-52923959D01*
X66040076Y-52923959D02*
X65982933Y-52876340D01*
X65982933Y-52876340D02*
X65868647Y-52828721D01*
X65868647Y-52828721D02*
X65811504Y-52781102D01*
X65811504Y-52781102D02*
X65782933Y-52733483D01*
X65782933Y-52733483D02*
X65754361Y-52638245D01*
X65754361Y-52638245D02*
X65754361Y-52543007D01*
X65754361Y-52543007D02*
X65782933Y-52447769D01*
X65782933Y-52447769D02*
X65811504Y-52400150D01*
X65811504Y-52400150D02*
X65868647Y-52352531D01*
X65868647Y-52352531D02*
X66011504Y-52352531D01*
X66011504Y-52352531D02*
X66097218Y-52400150D01*
X66811505Y-53352531D02*
X66811505Y-52352531D01*
X66811505Y-52352531D02*
X67040076Y-52352531D01*
X67040076Y-52352531D02*
X67097219Y-52400150D01*
X67097219Y-52400150D02*
X67125790Y-52447769D01*
X67125790Y-52447769D02*
X67154362Y-52543007D01*
X67154362Y-52543007D02*
X67154362Y-52685864D01*
X67154362Y-52685864D02*
X67125790Y-52781102D01*
X67125790Y-52781102D02*
X67097219Y-52828721D01*
X67097219Y-52828721D02*
X67040076Y-52876340D01*
X67040076Y-52876340D02*
X66811505Y-52876340D01*
X67354362Y-52352531D02*
X67497219Y-53352531D01*
X67497219Y-53352531D02*
X67611505Y-52638245D01*
X67611505Y-52638245D02*
X67725790Y-53352531D01*
X67725790Y-53352531D02*
X67868648Y-52352531D01*
X68440076Y-53352531D02*
X68240076Y-52876340D01*
X68097219Y-53352531D02*
X68097219Y-52352531D01*
X68097219Y-52352531D02*
X68325790Y-52352531D01*
X68325790Y-52352531D02*
X68382933Y-52400150D01*
X68382933Y-52400150D02*
X68411504Y-52447769D01*
X68411504Y-52447769D02*
X68440076Y-52543007D01*
X68440076Y-52543007D02*
X68440076Y-52685864D01*
X68440076Y-52685864D02*
X68411504Y-52781102D01*
X68411504Y-52781102D02*
X68382933Y-52828721D01*
X68382933Y-52828721D02*
X68325790Y-52876340D01*
X68325790Y-52876340D02*
X68097219Y-52876340D01*
X69154362Y-52971578D02*
X69611505Y-52971578D01*
X54582931Y-53962475D02*
X54954359Y-53962475D01*
X54954359Y-53962475D02*
X54754359Y-54343427D01*
X54754359Y-54343427D02*
X54840074Y-54343427D01*
X54840074Y-54343427D02*
X54897217Y-54391046D01*
X54897217Y-54391046D02*
X54925788Y-54438665D01*
X54925788Y-54438665D02*
X54954359Y-54533903D01*
X54954359Y-54533903D02*
X54954359Y-54771998D01*
X54954359Y-54771998D02*
X54925788Y-54867236D01*
X54925788Y-54867236D02*
X54897217Y-54914856D01*
X54897217Y-54914856D02*
X54840074Y-54962475D01*
X54840074Y-54962475D02*
X54668645Y-54962475D01*
X54668645Y-54962475D02*
X54611502Y-54914856D01*
X54611502Y-54914856D02*
X54582931Y-54867236D01*
X55211503Y-54867236D02*
X55240074Y-54914856D01*
X55240074Y-54914856D02*
X55211503Y-54962475D01*
X55211503Y-54962475D02*
X55182931Y-54914856D01*
X55182931Y-54914856D02*
X55211503Y-54867236D01*
X55211503Y-54867236D02*
X55211503Y-54962475D01*
X55211503Y-54343427D02*
X55240074Y-54391046D01*
X55240074Y-54391046D02*
X55211503Y-54438665D01*
X55211503Y-54438665D02*
X55182931Y-54391046D01*
X55182931Y-54391046D02*
X55211503Y-54343427D01*
X55211503Y-54343427D02*
X55211503Y-54438665D01*
X56297217Y-54962475D02*
X56097217Y-54486284D01*
X55954360Y-54962475D02*
X55954360Y-53962475D01*
X55954360Y-53962475D02*
X56182931Y-53962475D01*
X56182931Y-53962475D02*
X56240074Y-54010094D01*
X56240074Y-54010094D02*
X56268645Y-54057713D01*
X56268645Y-54057713D02*
X56297217Y-54152951D01*
X56297217Y-54152951D02*
X56297217Y-54295808D01*
X56297217Y-54295808D02*
X56268645Y-54391046D01*
X56268645Y-54391046D02*
X56240074Y-54438665D01*
X56240074Y-54438665D02*
X56182931Y-54486284D01*
X56182931Y-54486284D02*
X55954360Y-54486284D01*
X56468645Y-53962475D02*
X56811503Y-53962475D01*
X56640074Y-54962475D02*
X56640074Y-53962475D01*
X57011503Y-54962475D02*
X57011503Y-53962475D01*
X57011503Y-53962475D02*
X57154360Y-53962475D01*
X57154360Y-53962475D02*
X57240074Y-54010094D01*
X57240074Y-54010094D02*
X57297217Y-54105332D01*
X57297217Y-54105332D02*
X57325788Y-54200570D01*
X57325788Y-54200570D02*
X57354360Y-54391046D01*
X57354360Y-54391046D02*
X57354360Y-54533903D01*
X57354360Y-54533903D02*
X57325788Y-54724379D01*
X57325788Y-54724379D02*
X57297217Y-54819617D01*
X57297217Y-54819617D02*
X57240074Y-54914856D01*
X57240074Y-54914856D02*
X57154360Y-54962475D01*
X57154360Y-54962475D02*
X57011503Y-54962475D01*
X57582931Y-54914856D02*
X57668646Y-54962475D01*
X57668646Y-54962475D02*
X57811503Y-54962475D01*
X57811503Y-54962475D02*
X57868646Y-54914856D01*
X57868646Y-54914856D02*
X57897217Y-54867236D01*
X57897217Y-54867236D02*
X57925788Y-54771998D01*
X57925788Y-54771998D02*
X57925788Y-54676760D01*
X57925788Y-54676760D02*
X57897217Y-54581522D01*
X57897217Y-54581522D02*
X57868646Y-54533903D01*
X57868646Y-54533903D02*
X57811503Y-54486284D01*
X57811503Y-54486284D02*
X57697217Y-54438665D01*
X57697217Y-54438665D02*
X57640074Y-54391046D01*
X57640074Y-54391046D02*
X57611503Y-54343427D01*
X57611503Y-54343427D02*
X57582931Y-54248189D01*
X57582931Y-54248189D02*
X57582931Y-54152951D01*
X57582931Y-54152951D02*
X57611503Y-54057713D01*
X57611503Y-54057713D02*
X57640074Y-54010094D01*
X57640074Y-54010094D02*
X57697217Y-53962475D01*
X57697217Y-53962475D02*
X57840074Y-53962475D01*
X57840074Y-53962475D02*
X57925788Y-54010094D01*
X58982932Y-54867236D02*
X58954360Y-54914856D01*
X58954360Y-54914856D02*
X58868646Y-54962475D01*
X58868646Y-54962475D02*
X58811503Y-54962475D01*
X58811503Y-54962475D02*
X58725789Y-54914856D01*
X58725789Y-54914856D02*
X58668646Y-54819617D01*
X58668646Y-54819617D02*
X58640075Y-54724379D01*
X58640075Y-54724379D02*
X58611503Y-54533903D01*
X58611503Y-54533903D02*
X58611503Y-54391046D01*
X58611503Y-54391046D02*
X58640075Y-54200570D01*
X58640075Y-54200570D02*
X58668646Y-54105332D01*
X58668646Y-54105332D02*
X58725789Y-54010094D01*
X58725789Y-54010094D02*
X58811503Y-53962475D01*
X58811503Y-53962475D02*
X58868646Y-53962475D01*
X58868646Y-53962475D02*
X58954360Y-54010094D01*
X58954360Y-54010094D02*
X58982932Y-54057713D01*
X59325789Y-54962475D02*
X59268646Y-54914856D01*
X59268646Y-54914856D02*
X59240075Y-54867236D01*
X59240075Y-54867236D02*
X59211503Y-54771998D01*
X59211503Y-54771998D02*
X59211503Y-54486284D01*
X59211503Y-54486284D02*
X59240075Y-54391046D01*
X59240075Y-54391046D02*
X59268646Y-54343427D01*
X59268646Y-54343427D02*
X59325789Y-54295808D01*
X59325789Y-54295808D02*
X59411503Y-54295808D01*
X59411503Y-54295808D02*
X59468646Y-54343427D01*
X59468646Y-54343427D02*
X59497218Y-54391046D01*
X59497218Y-54391046D02*
X59525789Y-54486284D01*
X59525789Y-54486284D02*
X59525789Y-54771998D01*
X59525789Y-54771998D02*
X59497218Y-54867236D01*
X59497218Y-54867236D02*
X59468646Y-54914856D01*
X59468646Y-54914856D02*
X59411503Y-54962475D01*
X59411503Y-54962475D02*
X59325789Y-54962475D01*
X59782932Y-54962475D02*
X59782932Y-54295808D01*
X59782932Y-53962475D02*
X59754360Y-54010094D01*
X59754360Y-54010094D02*
X59782932Y-54057713D01*
X59782932Y-54057713D02*
X59811503Y-54010094D01*
X59811503Y-54010094D02*
X59782932Y-53962475D01*
X59782932Y-53962475D02*
X59782932Y-54057713D01*
X60154360Y-54962475D02*
X60097217Y-54914856D01*
X60097217Y-54914856D02*
X60068646Y-54819617D01*
X60068646Y-54819617D02*
X60068646Y-53962475D01*
X60840075Y-54581522D02*
X61297218Y-54581522D01*
X62897218Y-53962475D02*
X63297218Y-53962475D01*
X63297218Y-53962475D02*
X63040075Y-54962475D01*
X63525790Y-54867236D02*
X63554361Y-54914856D01*
X63554361Y-54914856D02*
X63525790Y-54962475D01*
X63525790Y-54962475D02*
X63497218Y-54914856D01*
X63497218Y-54914856D02*
X63525790Y-54867236D01*
X63525790Y-54867236D02*
X63525790Y-54962475D01*
X63525790Y-54343427D02*
X63554361Y-54391046D01*
X63554361Y-54391046D02*
X63525790Y-54438665D01*
X63525790Y-54438665D02*
X63497218Y-54391046D01*
X63497218Y-54391046D02*
X63525790Y-54343427D01*
X63525790Y-54343427D02*
X63525790Y-54438665D01*
X64582932Y-54010094D02*
X64525790Y-53962475D01*
X64525790Y-53962475D02*
X64440075Y-53962475D01*
X64440075Y-53962475D02*
X64354361Y-54010094D01*
X64354361Y-54010094D02*
X64297218Y-54105332D01*
X64297218Y-54105332D02*
X64268647Y-54200570D01*
X64268647Y-54200570D02*
X64240075Y-54391046D01*
X64240075Y-54391046D02*
X64240075Y-54533903D01*
X64240075Y-54533903D02*
X64268647Y-54724379D01*
X64268647Y-54724379D02*
X64297218Y-54819617D01*
X64297218Y-54819617D02*
X64354361Y-54914856D01*
X64354361Y-54914856D02*
X64440075Y-54962475D01*
X64440075Y-54962475D02*
X64497218Y-54962475D01*
X64497218Y-54962475D02*
X64582932Y-54914856D01*
X64582932Y-54914856D02*
X64611504Y-54867236D01*
X64611504Y-54867236D02*
X64611504Y-54533903D01*
X64611504Y-54533903D02*
X64497218Y-54533903D01*
X64868647Y-54962475D02*
X64868647Y-53962475D01*
X64868647Y-53962475D02*
X65211504Y-54962475D01*
X65211504Y-54962475D02*
X65211504Y-53962475D01*
X65497218Y-54962475D02*
X65497218Y-53962475D01*
X65497218Y-53962475D02*
X65640075Y-53962475D01*
X65640075Y-53962475D02*
X65725789Y-54010094D01*
X65725789Y-54010094D02*
X65782932Y-54105332D01*
X65782932Y-54105332D02*
X65811503Y-54200570D01*
X65811503Y-54200570D02*
X65840075Y-54391046D01*
X65840075Y-54391046D02*
X65840075Y-54533903D01*
X65840075Y-54533903D02*
X65811503Y-54724379D01*
X65811503Y-54724379D02*
X65782932Y-54819617D01*
X65782932Y-54819617D02*
X65725789Y-54914856D01*
X65725789Y-54914856D02*
X65640075Y-54962475D01*
X65640075Y-54962475D02*
X65497218Y-54962475D01*
X54897217Y-55905752D02*
X54897217Y-56572419D01*
X54754359Y-55524800D02*
X54611502Y-56239085D01*
X54611502Y-56239085D02*
X54982931Y-56239085D01*
X55211503Y-56477180D02*
X55240074Y-56524800D01*
X55240074Y-56524800D02*
X55211503Y-56572419D01*
X55211503Y-56572419D02*
X55182931Y-56524800D01*
X55182931Y-56524800D02*
X55211503Y-56477180D01*
X55211503Y-56477180D02*
X55211503Y-56572419D01*
X55211503Y-55953371D02*
X55240074Y-56000990D01*
X55240074Y-56000990D02*
X55211503Y-56048609D01*
X55211503Y-56048609D02*
X55182931Y-56000990D01*
X55182931Y-56000990D02*
X55211503Y-55953371D01*
X55211503Y-55953371D02*
X55211503Y-56048609D01*
X56268645Y-55620038D02*
X56211503Y-55572419D01*
X56211503Y-55572419D02*
X56125788Y-55572419D01*
X56125788Y-55572419D02*
X56040074Y-55620038D01*
X56040074Y-55620038D02*
X55982931Y-55715276D01*
X55982931Y-55715276D02*
X55954360Y-55810514D01*
X55954360Y-55810514D02*
X55925788Y-56000990D01*
X55925788Y-56000990D02*
X55925788Y-56143847D01*
X55925788Y-56143847D02*
X55954360Y-56334323D01*
X55954360Y-56334323D02*
X55982931Y-56429561D01*
X55982931Y-56429561D02*
X56040074Y-56524800D01*
X56040074Y-56524800D02*
X56125788Y-56572419D01*
X56125788Y-56572419D02*
X56182931Y-56572419D01*
X56182931Y-56572419D02*
X56268645Y-56524800D01*
X56268645Y-56524800D02*
X56297217Y-56477180D01*
X56297217Y-56477180D02*
X56297217Y-56143847D01*
X56297217Y-56143847D02*
X56182931Y-56143847D01*
X56554360Y-56572419D02*
X56554360Y-55572419D01*
X56554360Y-55572419D02*
X56897217Y-56572419D01*
X56897217Y-56572419D02*
X56897217Y-55572419D01*
X57182931Y-56572419D02*
X57182931Y-55572419D01*
X57182931Y-55572419D02*
X57325788Y-55572419D01*
X57325788Y-55572419D02*
X57411502Y-55620038D01*
X57411502Y-55620038D02*
X57468645Y-55715276D01*
X57468645Y-55715276D02*
X57497216Y-55810514D01*
X57497216Y-55810514D02*
X57525788Y-56000990D01*
X57525788Y-56000990D02*
X57525788Y-56143847D01*
X57525788Y-56143847D02*
X57497216Y-56334323D01*
X57497216Y-56334323D02*
X57468645Y-56429561D01*
X57468645Y-56429561D02*
X57411502Y-56524800D01*
X57411502Y-56524800D02*
X57325788Y-56572419D01*
X57325788Y-56572419D02*
X57182931Y-56572419D01*
X62840075Y-56572419D02*
X62954361Y-56572419D01*
X62954361Y-56572419D02*
X63011504Y-56524800D01*
X63011504Y-56524800D02*
X63040075Y-56477180D01*
X63040075Y-56477180D02*
X63097218Y-56334323D01*
X63097218Y-56334323D02*
X63125789Y-56143847D01*
X63125789Y-56143847D02*
X63125789Y-55762895D01*
X63125789Y-55762895D02*
X63097218Y-55667657D01*
X63097218Y-55667657D02*
X63068647Y-55620038D01*
X63068647Y-55620038D02*
X63011504Y-55572419D01*
X63011504Y-55572419D02*
X62897218Y-55572419D01*
X62897218Y-55572419D02*
X62840075Y-55620038D01*
X62840075Y-55620038D02*
X62811504Y-55667657D01*
X62811504Y-55667657D02*
X62782932Y-55762895D01*
X62782932Y-55762895D02*
X62782932Y-56000990D01*
X62782932Y-56000990D02*
X62811504Y-56096228D01*
X62811504Y-56096228D02*
X62840075Y-56143847D01*
X62840075Y-56143847D02*
X62897218Y-56191466D01*
X62897218Y-56191466D02*
X63011504Y-56191466D01*
X63011504Y-56191466D02*
X63068647Y-56143847D01*
X63068647Y-56143847D02*
X63097218Y-56096228D01*
X63097218Y-56096228D02*
X63125789Y-56000990D01*
X63382933Y-56477180D02*
X63411504Y-56524800D01*
X63411504Y-56524800D02*
X63382933Y-56572419D01*
X63382933Y-56572419D02*
X63354361Y-56524800D01*
X63354361Y-56524800D02*
X63382933Y-56477180D01*
X63382933Y-56477180D02*
X63382933Y-56572419D01*
X63382933Y-55953371D02*
X63411504Y-56000990D01*
X63411504Y-56000990D02*
X63382933Y-56048609D01*
X63382933Y-56048609D02*
X63354361Y-56000990D01*
X63354361Y-56000990D02*
X63382933Y-55953371D01*
X63382933Y-55953371D02*
X63382933Y-56048609D01*
X64040075Y-55572419D02*
X64240075Y-56572419D01*
X64240075Y-56572419D02*
X64440075Y-55572419D01*
X64611504Y-56524800D02*
X64668647Y-56572419D01*
X64668647Y-56572419D02*
X64782933Y-56572419D01*
X64782933Y-56572419D02*
X64840076Y-56524800D01*
X64840076Y-56524800D02*
X64868647Y-56429561D01*
X64868647Y-56429561D02*
X64868647Y-56381942D01*
X64868647Y-56381942D02*
X64840076Y-56286704D01*
X64840076Y-56286704D02*
X64782933Y-56239085D01*
X64782933Y-56239085D02*
X64697219Y-56239085D01*
X64697219Y-56239085D02*
X64640076Y-56191466D01*
X64640076Y-56191466D02*
X64611504Y-56096228D01*
X64611504Y-56096228D02*
X64611504Y-56048609D01*
X64611504Y-56048609D02*
X64640076Y-55953371D01*
X64640076Y-55953371D02*
X64697219Y-55905752D01*
X64697219Y-55905752D02*
X64782933Y-55905752D01*
X64782933Y-55905752D02*
X64840076Y-55953371D01*
D11*
X59456065Y-49688200D02*
X59494160Y-49631057D01*
X59494160Y-49631057D02*
X59570351Y-49573914D01*
X59570351Y-49573914D02*
X59722732Y-49688200D01*
X59722732Y-49688200D02*
X59798922Y-49631057D01*
X59798922Y-49631057D02*
X59837017Y-49573914D01*
X60141780Y-50145342D02*
X60141780Y-48945342D01*
X60141780Y-48945342D02*
X60446542Y-48945342D01*
X60446542Y-48945342D02*
X60522732Y-49002485D01*
X60522732Y-49002485D02*
X60560827Y-49059628D01*
X60560827Y-49059628D02*
X60598923Y-49173914D01*
X60598923Y-49173914D02*
X60598923Y-49345342D01*
X60598923Y-49345342D02*
X60560827Y-49459628D01*
X60560827Y-49459628D02*
X60522732Y-49516771D01*
X60522732Y-49516771D02*
X60446542Y-49573914D01*
X60446542Y-49573914D02*
X60141780Y-49573914D01*
X60941780Y-50145342D02*
X60941780Y-48945342D01*
X61322732Y-50145342D02*
X61322732Y-48945342D01*
X61322732Y-48945342D02*
X61779875Y-50145342D01*
X61779875Y-50145342D02*
X61779875Y-48945342D01*
X62313208Y-48945342D02*
X62465589Y-48945342D01*
X62465589Y-48945342D02*
X62541779Y-49002485D01*
X62541779Y-49002485D02*
X62617970Y-49116771D01*
X62617970Y-49116771D02*
X62656065Y-49345342D01*
X62656065Y-49345342D02*
X62656065Y-49745342D01*
X62656065Y-49745342D02*
X62617970Y-49973914D01*
X62617970Y-49973914D02*
X62541779Y-50088200D01*
X62541779Y-50088200D02*
X62465589Y-50145342D01*
X62465589Y-50145342D02*
X62313208Y-50145342D01*
X62313208Y-50145342D02*
X62237017Y-50088200D01*
X62237017Y-50088200D02*
X62160827Y-49973914D01*
X62160827Y-49973914D02*
X62122731Y-49745342D01*
X62122731Y-49745342D02*
X62122731Y-49345342D01*
X62122731Y-49345342D02*
X62160827Y-49116771D01*
X62160827Y-49116771D02*
X62237017Y-49002485D01*
X62237017Y-49002485D02*
X62313208Y-48945342D01*
X62998922Y-48945342D02*
X62998922Y-49916771D01*
X62998922Y-49916771D02*
X63037017Y-50031057D01*
X63037017Y-50031057D02*
X63075112Y-50088200D01*
X63075112Y-50088200D02*
X63151303Y-50145342D01*
X63151303Y-50145342D02*
X63303684Y-50145342D01*
X63303684Y-50145342D02*
X63379874Y-50088200D01*
X63379874Y-50088200D02*
X63417969Y-50031057D01*
X63417969Y-50031057D02*
X63456065Y-49916771D01*
X63456065Y-49916771D02*
X63456065Y-48945342D01*
X63722731Y-48945342D02*
X64179874Y-48945342D01*
X63951302Y-50145342D02*
X63951302Y-48945342D01*
X64332255Y-49688200D02*
X64370350Y-49631057D01*
X64370350Y-49631057D02*
X64446541Y-49573914D01*
X64446541Y-49573914D02*
X64598922Y-49688200D01*
X64598922Y-49688200D02*
X64675112Y-49631057D01*
X64675112Y-49631057D02*
X64713207Y-49573914D01*
D10*
X50227693Y-27772419D02*
X49656265Y-27772419D01*
X49941979Y-27772419D02*
X49941979Y-26772419D01*
X49941979Y-26772419D02*
X49846741Y-26915276D01*
X49846741Y-26915276D02*
X49751503Y-27010514D01*
X49751503Y-27010514D02*
X49656265Y-27058133D01*
X50572931Y-46611228D02*
X50322931Y-45896942D01*
X50144360Y-46611228D02*
X50144360Y-45111228D01*
X50144360Y-45111228D02*
X50430074Y-45111228D01*
X50430074Y-45111228D02*
X50501503Y-45182657D01*
X50501503Y-45182657D02*
X50537217Y-45254085D01*
X50537217Y-45254085D02*
X50572931Y-45396942D01*
X50572931Y-45396942D02*
X50572931Y-45611228D01*
X50572931Y-45611228D02*
X50537217Y-45754085D01*
X50537217Y-45754085D02*
X50501503Y-45825514D01*
X50501503Y-45825514D02*
X50430074Y-45896942D01*
X50430074Y-45896942D02*
X50144360Y-45896942D01*
X50787217Y-45111228D02*
X51215789Y-45111228D01*
X51001503Y-46611228D02*
X51001503Y-45111228D01*
X51465789Y-46611228D02*
X51465789Y-45111228D01*
X51465789Y-45111228D02*
X51644360Y-45111228D01*
X51644360Y-45111228D02*
X51751503Y-45182657D01*
X51751503Y-45182657D02*
X51822932Y-45325514D01*
X51822932Y-45325514D02*
X51858646Y-45468371D01*
X51858646Y-45468371D02*
X51894360Y-45754085D01*
X51894360Y-45754085D02*
X51894360Y-45968371D01*
X51894360Y-45968371D02*
X51858646Y-46254085D01*
X51858646Y-46254085D02*
X51822932Y-46396942D01*
X51822932Y-46396942D02*
X51751503Y-46539800D01*
X51751503Y-46539800D02*
X51644360Y-46611228D01*
X51644360Y-46611228D02*
X51465789Y-46611228D01*
X52180075Y-46539800D02*
X52287218Y-46611228D01*
X52287218Y-46611228D02*
X52465789Y-46611228D01*
X52465789Y-46611228D02*
X52537218Y-46539800D01*
X52537218Y-46539800D02*
X52572932Y-46468371D01*
X52572932Y-46468371D02*
X52608646Y-46325514D01*
X52608646Y-46325514D02*
X52608646Y-46182657D01*
X52608646Y-46182657D02*
X52572932Y-46039800D01*
X52572932Y-46039800D02*
X52537218Y-45968371D01*
X52537218Y-45968371D02*
X52465789Y-45896942D01*
X52465789Y-45896942D02*
X52322932Y-45825514D01*
X52322932Y-45825514D02*
X52251503Y-45754085D01*
X52251503Y-45754085D02*
X52215789Y-45682657D01*
X52215789Y-45682657D02*
X52180075Y-45539800D01*
X52180075Y-45539800D02*
X52180075Y-45396942D01*
X52180075Y-45396942D02*
X52215789Y-45254085D01*
X52215789Y-45254085D02*
X52251503Y-45182657D01*
X52251503Y-45182657D02*
X52322932Y-45111228D01*
X52322932Y-45111228D02*
X52501503Y-45111228D01*
X52501503Y-45111228D02*
X52608646Y-45182657D01*
X53930075Y-46468371D02*
X53894361Y-46539800D01*
X53894361Y-46539800D02*
X53787218Y-46611228D01*
X53787218Y-46611228D02*
X53715790Y-46611228D01*
X53715790Y-46611228D02*
X53608647Y-46539800D01*
X53608647Y-46539800D02*
X53537218Y-46396942D01*
X53537218Y-46396942D02*
X53501504Y-46254085D01*
X53501504Y-46254085D02*
X53465790Y-45968371D01*
X53465790Y-45968371D02*
X53465790Y-45754085D01*
X53465790Y-45754085D02*
X53501504Y-45468371D01*
X53501504Y-45468371D02*
X53537218Y-45325514D01*
X53537218Y-45325514D02*
X53608647Y-45182657D01*
X53608647Y-45182657D02*
X53715790Y-45111228D01*
X53715790Y-45111228D02*
X53787218Y-45111228D01*
X53787218Y-45111228D02*
X53894361Y-45182657D01*
X53894361Y-45182657D02*
X53930075Y-45254085D01*
X54358647Y-46611228D02*
X54287218Y-46539800D01*
X54287218Y-46539800D02*
X54251504Y-46468371D01*
X54251504Y-46468371D02*
X54215790Y-46325514D01*
X54215790Y-46325514D02*
X54215790Y-45896942D01*
X54215790Y-45896942D02*
X54251504Y-45754085D01*
X54251504Y-45754085D02*
X54287218Y-45682657D01*
X54287218Y-45682657D02*
X54358647Y-45611228D01*
X54358647Y-45611228D02*
X54465790Y-45611228D01*
X54465790Y-45611228D02*
X54537218Y-45682657D01*
X54537218Y-45682657D02*
X54572933Y-45754085D01*
X54572933Y-45754085D02*
X54608647Y-45896942D01*
X54608647Y-45896942D02*
X54608647Y-46325514D01*
X54608647Y-46325514D02*
X54572933Y-46468371D01*
X54572933Y-46468371D02*
X54537218Y-46539800D01*
X54537218Y-46539800D02*
X54465790Y-46611228D01*
X54465790Y-46611228D02*
X54358647Y-46611228D01*
X54930075Y-45611228D02*
X54930075Y-46611228D01*
X54930075Y-45754085D02*
X54965789Y-45682657D01*
X54965789Y-45682657D02*
X55037218Y-45611228D01*
X55037218Y-45611228D02*
X55144361Y-45611228D01*
X55144361Y-45611228D02*
X55215789Y-45682657D01*
X55215789Y-45682657D02*
X55251504Y-45825514D01*
X55251504Y-45825514D02*
X55251504Y-46611228D01*
X55501503Y-45611228D02*
X55787217Y-45611228D01*
X55608646Y-45111228D02*
X55608646Y-46396942D01*
X55608646Y-46396942D02*
X55644360Y-46539800D01*
X55644360Y-46539800D02*
X55715789Y-46611228D01*
X55715789Y-46611228D02*
X55787217Y-46611228D01*
X56037217Y-46611228D02*
X56037217Y-45611228D01*
X56037217Y-45896942D02*
X56072931Y-45754085D01*
X56072931Y-45754085D02*
X56108646Y-45682657D01*
X56108646Y-45682657D02*
X56180074Y-45611228D01*
X56180074Y-45611228D02*
X56251503Y-45611228D01*
X56608646Y-46611228D02*
X56537217Y-46539800D01*
X56537217Y-46539800D02*
X56501503Y-46468371D01*
X56501503Y-46468371D02*
X56465789Y-46325514D01*
X56465789Y-46325514D02*
X56465789Y-45896942D01*
X56465789Y-45896942D02*
X56501503Y-45754085D01*
X56501503Y-45754085D02*
X56537217Y-45682657D01*
X56537217Y-45682657D02*
X56608646Y-45611228D01*
X56608646Y-45611228D02*
X56715789Y-45611228D01*
X56715789Y-45611228D02*
X56787217Y-45682657D01*
X56787217Y-45682657D02*
X56822932Y-45754085D01*
X56822932Y-45754085D02*
X56858646Y-45896942D01*
X56858646Y-45896942D02*
X56858646Y-46325514D01*
X56858646Y-46325514D02*
X56822932Y-46468371D01*
X56822932Y-46468371D02*
X56787217Y-46539800D01*
X56787217Y-46539800D02*
X56715789Y-46611228D01*
X56715789Y-46611228D02*
X56608646Y-46611228D01*
X57287217Y-46611228D02*
X57215788Y-46539800D01*
X57215788Y-46539800D02*
X57180074Y-46396942D01*
X57180074Y-46396942D02*
X57180074Y-45111228D01*
X58144360Y-46611228D02*
X58144360Y-45111228D01*
X58144360Y-45111228D02*
X58394360Y-46182657D01*
X58394360Y-46182657D02*
X58644360Y-45111228D01*
X58644360Y-45111228D02*
X58644360Y-46611228D01*
X59108646Y-46611228D02*
X59037217Y-46539800D01*
X59037217Y-46539800D02*
X59001503Y-46468371D01*
X59001503Y-46468371D02*
X58965789Y-46325514D01*
X58965789Y-46325514D02*
X58965789Y-45896942D01*
X58965789Y-45896942D02*
X59001503Y-45754085D01*
X59001503Y-45754085D02*
X59037217Y-45682657D01*
X59037217Y-45682657D02*
X59108646Y-45611228D01*
X59108646Y-45611228D02*
X59215789Y-45611228D01*
X59215789Y-45611228D02*
X59287217Y-45682657D01*
X59287217Y-45682657D02*
X59322932Y-45754085D01*
X59322932Y-45754085D02*
X59358646Y-45896942D01*
X59358646Y-45896942D02*
X59358646Y-46325514D01*
X59358646Y-46325514D02*
X59322932Y-46468371D01*
X59322932Y-46468371D02*
X59287217Y-46539800D01*
X59287217Y-46539800D02*
X59215789Y-46611228D01*
X59215789Y-46611228D02*
X59108646Y-46611228D01*
X60001503Y-46611228D02*
X60001503Y-45111228D01*
X60001503Y-46539800D02*
X59930074Y-46611228D01*
X59930074Y-46611228D02*
X59787217Y-46611228D01*
X59787217Y-46611228D02*
X59715788Y-46539800D01*
X59715788Y-46539800D02*
X59680074Y-46468371D01*
X59680074Y-46468371D02*
X59644360Y-46325514D01*
X59644360Y-46325514D02*
X59644360Y-45896942D01*
X59644360Y-45896942D02*
X59680074Y-45754085D01*
X59680074Y-45754085D02*
X59715788Y-45682657D01*
X59715788Y-45682657D02*
X59787217Y-45611228D01*
X59787217Y-45611228D02*
X59930074Y-45611228D01*
X59930074Y-45611228D02*
X60001503Y-45682657D01*
X60680074Y-45611228D02*
X60680074Y-46611228D01*
X60358645Y-45611228D02*
X60358645Y-46396942D01*
X60358645Y-46396942D02*
X60394359Y-46539800D01*
X60394359Y-46539800D02*
X60465788Y-46611228D01*
X60465788Y-46611228D02*
X60572931Y-46611228D01*
X60572931Y-46611228D02*
X60644359Y-46539800D01*
X60644359Y-46539800D02*
X60680074Y-46468371D01*
X61144359Y-46611228D02*
X61072930Y-46539800D01*
X61072930Y-46539800D02*
X61037216Y-46396942D01*
X61037216Y-46396942D02*
X61037216Y-45111228D01*
X61715787Y-46539800D02*
X61644359Y-46611228D01*
X61644359Y-46611228D02*
X61501502Y-46611228D01*
X61501502Y-46611228D02*
X61430073Y-46539800D01*
X61430073Y-46539800D02*
X61394359Y-46396942D01*
X61394359Y-46396942D02*
X61394359Y-45825514D01*
X61394359Y-45825514D02*
X61430073Y-45682657D01*
X61430073Y-45682657D02*
X61501502Y-45611228D01*
X61501502Y-45611228D02*
X61644359Y-45611228D01*
X61644359Y-45611228D02*
X61715787Y-45682657D01*
X61715787Y-45682657D02*
X61751502Y-45825514D01*
X61751502Y-45825514D02*
X61751502Y-45968371D01*
X61751502Y-45968371D02*
X61394359Y-46111228D01*
X62537216Y-45111228D02*
X62787216Y-46611228D01*
X62787216Y-46611228D02*
X63037216Y-45111228D01*
X63680073Y-46611228D02*
X63251502Y-46611228D01*
X63465787Y-46611228D02*
X63465787Y-45111228D01*
X63465787Y-45111228D02*
X63394359Y-45325514D01*
X63394359Y-45325514D02*
X63322930Y-45468371D01*
X63322930Y-45468371D02*
X63251502Y-45539800D01*
X64001502Y-46468371D02*
X64037216Y-46539800D01*
X64037216Y-46539800D02*
X64001502Y-46611228D01*
X64001502Y-46611228D02*
X63965788Y-46539800D01*
X63965788Y-46539800D02*
X64001502Y-46468371D01*
X64001502Y-46468371D02*
X64001502Y-46611228D01*
X64501502Y-45111228D02*
X64572931Y-45111228D01*
X64572931Y-45111228D02*
X64644359Y-45182657D01*
X64644359Y-45182657D02*
X64680074Y-45254085D01*
X64680074Y-45254085D02*
X64715788Y-45396942D01*
X64715788Y-45396942D02*
X64751502Y-45682657D01*
X64751502Y-45682657D02*
X64751502Y-46039800D01*
X64751502Y-46039800D02*
X64715788Y-46325514D01*
X64715788Y-46325514D02*
X64680074Y-46468371D01*
X64680074Y-46468371D02*
X64644359Y-46539800D01*
X64644359Y-46539800D02*
X64572931Y-46611228D01*
X64572931Y-46611228D02*
X64501502Y-46611228D01*
X64501502Y-46611228D02*
X64430074Y-46539800D01*
X64430074Y-46539800D02*
X64394359Y-46468371D01*
X64394359Y-46468371D02*
X64358645Y-46325514D01*
X64358645Y-46325514D02*
X64322931Y-46039800D01*
X64322931Y-46039800D02*
X64322931Y-45682657D01*
X64322931Y-45682657D02*
X64358645Y-45396942D01*
X64358645Y-45396942D02*
X64394359Y-45254085D01*
X64394359Y-45254085D02*
X64430074Y-45182657D01*
X64430074Y-45182657D02*
X64501502Y-45111228D01*
X65822931Y-47111228D02*
X65822931Y-44968371D01*
X66930075Y-46611228D02*
X66930075Y-45111228D01*
X66930075Y-45111228D02*
X67180075Y-46182657D01*
X67180075Y-46182657D02*
X67430075Y-45111228D01*
X67430075Y-45111228D02*
X67430075Y-46611228D01*
X67787218Y-46468371D02*
X67822932Y-46539800D01*
X67822932Y-46539800D02*
X67787218Y-46611228D01*
X67787218Y-46611228D02*
X67751504Y-46539800D01*
X67751504Y-46539800D02*
X67787218Y-46468371D01*
X67787218Y-46468371D02*
X67787218Y-46611228D01*
X68572932Y-46611228D02*
X68322932Y-45896942D01*
X68144361Y-46611228D02*
X68144361Y-45111228D01*
X68144361Y-45111228D02*
X68430075Y-45111228D01*
X68430075Y-45111228D02*
X68501504Y-45182657D01*
X68501504Y-45182657D02*
X68537218Y-45254085D01*
X68537218Y-45254085D02*
X68572932Y-45396942D01*
X68572932Y-45396942D02*
X68572932Y-45611228D01*
X68572932Y-45611228D02*
X68537218Y-45754085D01*
X68537218Y-45754085D02*
X68501504Y-45825514D01*
X68501504Y-45825514D02*
X68430075Y-45896942D01*
X68430075Y-45896942D02*
X68144361Y-45896942D01*
X68894361Y-46468371D02*
X68930075Y-46539800D01*
X68930075Y-46539800D02*
X68894361Y-46611228D01*
X68894361Y-46611228D02*
X68858647Y-46539800D01*
X68858647Y-46539800D02*
X68894361Y-46468371D01*
X68894361Y-46468371D02*
X68894361Y-46611228D01*
X70037219Y-45111228D02*
X70037219Y-46182657D01*
X70037219Y-46182657D02*
X70001504Y-46396942D01*
X70001504Y-46396942D02*
X69930076Y-46539800D01*
X69930076Y-46539800D02*
X69822933Y-46611228D01*
X69822933Y-46611228D02*
X69751504Y-46611228D01*
X70715791Y-46611228D02*
X70715791Y-45825514D01*
X70715791Y-45825514D02*
X70680076Y-45682657D01*
X70680076Y-45682657D02*
X70608648Y-45611228D01*
X70608648Y-45611228D02*
X70465791Y-45611228D01*
X70465791Y-45611228D02*
X70394362Y-45682657D01*
X70715791Y-46539800D02*
X70644362Y-46611228D01*
X70644362Y-46611228D02*
X70465791Y-46611228D01*
X70465791Y-46611228D02*
X70394362Y-46539800D01*
X70394362Y-46539800D02*
X70358648Y-46396942D01*
X70358648Y-46396942D02*
X70358648Y-46254085D01*
X70358648Y-46254085D02*
X70394362Y-46111228D01*
X70394362Y-46111228D02*
X70465791Y-46039800D01*
X70465791Y-46039800D02*
X70644362Y-46039800D01*
X70644362Y-46039800D02*
X70715791Y-45968371D01*
X71072933Y-45611228D02*
X71072933Y-46611228D01*
X71072933Y-45754085D02*
X71108647Y-45682657D01*
X71108647Y-45682657D02*
X71180076Y-45611228D01*
X71180076Y-45611228D02*
X71287219Y-45611228D01*
X71287219Y-45611228D02*
X71358647Y-45682657D01*
X71358647Y-45682657D02*
X71394362Y-45825514D01*
X71394362Y-45825514D02*
X71394362Y-46611228D01*
X71751504Y-46468371D02*
X71787218Y-46539800D01*
X71787218Y-46539800D02*
X71751504Y-46611228D01*
X71751504Y-46611228D02*
X71715790Y-46539800D01*
X71715790Y-46539800D02*
X71751504Y-46468371D01*
X71751504Y-46468371D02*
X71751504Y-46611228D01*
X72715790Y-45111228D02*
X72644362Y-45396942D01*
X73001505Y-45254085D02*
X73037219Y-45182657D01*
X73037219Y-45182657D02*
X73108648Y-45111228D01*
X73108648Y-45111228D02*
X73287219Y-45111228D01*
X73287219Y-45111228D02*
X73358648Y-45182657D01*
X73358648Y-45182657D02*
X73394362Y-45254085D01*
X73394362Y-45254085D02*
X73430076Y-45396942D01*
X73430076Y-45396942D02*
X73430076Y-45539800D01*
X73430076Y-45539800D02*
X73394362Y-45754085D01*
X73394362Y-45754085D02*
X72965790Y-46611228D01*
X72965790Y-46611228D02*
X73430076Y-46611228D01*
X74108648Y-45111228D02*
X73751505Y-45111228D01*
X73751505Y-45111228D02*
X73715791Y-45825514D01*
X73715791Y-45825514D02*
X73751505Y-45754085D01*
X73751505Y-45754085D02*
X73822934Y-45682657D01*
X73822934Y-45682657D02*
X74001505Y-45682657D01*
X74001505Y-45682657D02*
X74072934Y-45754085D01*
X74072934Y-45754085D02*
X74108648Y-45825514D01*
X74108648Y-45825514D02*
X74144362Y-45968371D01*
X74144362Y-45968371D02*
X74144362Y-46325514D01*
X74144362Y-46325514D02*
X74108648Y-46468371D01*
X74108648Y-46468371D02*
X74072934Y-46539800D01*
X74072934Y-46539800D02*
X74001505Y-46611228D01*
X74001505Y-46611228D02*
X73822934Y-46611228D01*
X73822934Y-46611228D02*
X73751505Y-46539800D01*
X73751505Y-46539800D02*
X73715791Y-46468371D01*
X70700000Y-32172371D02*
X70500000Y-31886657D01*
X70357143Y-32172371D02*
X70357143Y-31572371D01*
X70357143Y-31572371D02*
X70585714Y-31572371D01*
X70585714Y-31572371D02*
X70642857Y-31600942D01*
X70642857Y-31600942D02*
X70671428Y-31629514D01*
X70671428Y-31629514D02*
X70700000Y-31686657D01*
X70700000Y-31686657D02*
X70700000Y-31772371D01*
X70700000Y-31772371D02*
X70671428Y-31829514D01*
X70671428Y-31829514D02*
X70642857Y-31858085D01*
X70642857Y-31858085D02*
X70585714Y-31886657D01*
X70585714Y-31886657D02*
X70357143Y-31886657D01*
X71214286Y-31772371D02*
X71214286Y-32172371D01*
X71071428Y-31543800D02*
X70928571Y-31972371D01*
X70928571Y-31972371D02*
X71300000Y-31972371D01*
D11*
X61538095Y-42154819D02*
X61538095Y-42964342D01*
X61538095Y-42964342D02*
X61585714Y-43059580D01*
X61585714Y-43059580D02*
X61633333Y-43107200D01*
X61633333Y-43107200D02*
X61728571Y-43154819D01*
X61728571Y-43154819D02*
X61919047Y-43154819D01*
X61919047Y-43154819D02*
X62014285Y-43107200D01*
X62014285Y-43107200D02*
X62061904Y-43059580D01*
X62061904Y-43059580D02*
X62109523Y-42964342D01*
X62109523Y-42964342D02*
X62109523Y-42154819D01*
X62538095Y-42250057D02*
X62585714Y-42202438D01*
X62585714Y-42202438D02*
X62680952Y-42154819D01*
X62680952Y-42154819D02*
X62919047Y-42154819D01*
X62919047Y-42154819D02*
X63014285Y-42202438D01*
X63014285Y-42202438D02*
X63061904Y-42250057D01*
X63061904Y-42250057D02*
X63109523Y-42345295D01*
X63109523Y-42345295D02*
X63109523Y-42440533D01*
X63109523Y-42440533D02*
X63061904Y-42583390D01*
X63061904Y-42583390D02*
X62490476Y-43154819D01*
X62490476Y-43154819D02*
X63109523Y-43154819D01*
D10*
X69257143Y-28272371D02*
X69257143Y-27672371D01*
X69257143Y-27672371D02*
X69400000Y-27672371D01*
X69400000Y-27672371D02*
X69485714Y-27700942D01*
X69485714Y-27700942D02*
X69542857Y-27758085D01*
X69542857Y-27758085D02*
X69571428Y-27815228D01*
X69571428Y-27815228D02*
X69600000Y-27929514D01*
X69600000Y-27929514D02*
X69600000Y-28015228D01*
X69600000Y-28015228D02*
X69571428Y-28129514D01*
X69571428Y-28129514D02*
X69542857Y-28186657D01*
X69542857Y-28186657D02*
X69485714Y-28243800D01*
X69485714Y-28243800D02*
X69400000Y-28272371D01*
X69400000Y-28272371D02*
X69257143Y-28272371D01*
X70171428Y-28272371D02*
X69828571Y-28272371D01*
X70000000Y-28272371D02*
X70000000Y-27672371D01*
X70000000Y-27672371D02*
X69942857Y-27758085D01*
X69942857Y-27758085D02*
X69885714Y-27815228D01*
X69885714Y-27815228D02*
X69828571Y-27843800D01*
X52800000Y-27372371D02*
X52600000Y-27086657D01*
X52457143Y-27372371D02*
X52457143Y-26772371D01*
X52457143Y-26772371D02*
X52685714Y-26772371D01*
X52685714Y-26772371D02*
X52742857Y-26800942D01*
X52742857Y-26800942D02*
X52771428Y-26829514D01*
X52771428Y-26829514D02*
X52800000Y-26886657D01*
X52800000Y-26886657D02*
X52800000Y-26972371D01*
X52800000Y-26972371D02*
X52771428Y-27029514D01*
X52771428Y-27029514D02*
X52742857Y-27058085D01*
X52742857Y-27058085D02*
X52685714Y-27086657D01*
X52685714Y-27086657D02*
X52457143Y-27086657D01*
X53028571Y-26829514D02*
X53057143Y-26800942D01*
X53057143Y-26800942D02*
X53114286Y-26772371D01*
X53114286Y-26772371D02*
X53257143Y-26772371D01*
X53257143Y-26772371D02*
X53314286Y-26800942D01*
X53314286Y-26800942D02*
X53342857Y-26829514D01*
X53342857Y-26829514D02*
X53371428Y-26886657D01*
X53371428Y-26886657D02*
X53371428Y-26943800D01*
X53371428Y-26943800D02*
X53342857Y-27029514D01*
X53342857Y-27029514D02*
X53000000Y-27372371D01*
X53000000Y-27372371D02*
X53371428Y-27372371D01*
X60909524Y-32264895D02*
X60909524Y-31464895D01*
X61366667Y-32264895D02*
X61023809Y-31807752D01*
X61366667Y-31464895D02*
X60909524Y-31922038D01*
X62128571Y-32264895D02*
X61671428Y-32264895D01*
X61900000Y-32264895D02*
X61900000Y-31464895D01*
X61900000Y-31464895D02*
X61823809Y-31579180D01*
X61823809Y-31579180D02*
X61747619Y-31655371D01*
X61747619Y-31655371D02*
X61671428Y-31693466D01*
X64000000Y-32615228D02*
X63971428Y-32643800D01*
X63971428Y-32643800D02*
X63885714Y-32672371D01*
X63885714Y-32672371D02*
X63828571Y-32672371D01*
X63828571Y-32672371D02*
X63742857Y-32643800D01*
X63742857Y-32643800D02*
X63685714Y-32586657D01*
X63685714Y-32586657D02*
X63657143Y-32529514D01*
X63657143Y-32529514D02*
X63628571Y-32415228D01*
X63628571Y-32415228D02*
X63628571Y-32329514D01*
X63628571Y-32329514D02*
X63657143Y-32215228D01*
X63657143Y-32215228D02*
X63685714Y-32158085D01*
X63685714Y-32158085D02*
X63742857Y-32100942D01*
X63742857Y-32100942D02*
X63828571Y-32072371D01*
X63828571Y-32072371D02*
X63885714Y-32072371D01*
X63885714Y-32072371D02*
X63971428Y-32100942D01*
X63971428Y-32100942D02*
X64000000Y-32129514D01*
X64571428Y-32672371D02*
X64228571Y-32672371D01*
X64400000Y-32672371D02*
X64400000Y-32072371D01*
X64400000Y-32072371D02*
X64342857Y-32158085D01*
X64342857Y-32158085D02*
X64285714Y-32215228D01*
X64285714Y-32215228D02*
X64228571Y-32243800D01*
X50800000Y-27372371D02*
X50600000Y-27086657D01*
X50457143Y-27372371D02*
X50457143Y-26772371D01*
X50457143Y-26772371D02*
X50685714Y-26772371D01*
X50685714Y-26772371D02*
X50742857Y-26800942D01*
X50742857Y-26800942D02*
X50771428Y-26829514D01*
X50771428Y-26829514D02*
X50800000Y-26886657D01*
X50800000Y-26886657D02*
X50800000Y-26972371D01*
X50800000Y-26972371D02*
X50771428Y-27029514D01*
X50771428Y-27029514D02*
X50742857Y-27058085D01*
X50742857Y-27058085D02*
X50685714Y-27086657D01*
X50685714Y-27086657D02*
X50457143Y-27086657D01*
X51371428Y-27372371D02*
X51028571Y-27372371D01*
X51200000Y-27372371D02*
X51200000Y-26772371D01*
X51200000Y-26772371D02*
X51142857Y-26858085D01*
X51142857Y-26858085D02*
X51085714Y-26915228D01*
X51085714Y-26915228D02*
X51028571Y-26943800D01*
D11*
X52938095Y-42754819D02*
X52938095Y-43564342D01*
X52938095Y-43564342D02*
X52985714Y-43659580D01*
X52985714Y-43659580D02*
X53033333Y-43707200D01*
X53033333Y-43707200D02*
X53128571Y-43754819D01*
X53128571Y-43754819D02*
X53319047Y-43754819D01*
X53319047Y-43754819D02*
X53414285Y-43707200D01*
X53414285Y-43707200D02*
X53461904Y-43659580D01*
X53461904Y-43659580D02*
X53509523Y-43564342D01*
X53509523Y-43564342D02*
X53509523Y-42754819D01*
X54509523Y-43754819D02*
X53938095Y-43754819D01*
X54223809Y-43754819D02*
X54223809Y-42754819D01*
X54223809Y-42754819D02*
X54128571Y-42897676D01*
X54128571Y-42897676D02*
X54033333Y-42992914D01*
X54033333Y-42992914D02*
X53938095Y-43040533D01*
D10*
X64000000Y-27615228D02*
X63971428Y-27643800D01*
X63971428Y-27643800D02*
X63885714Y-27672371D01*
X63885714Y-27672371D02*
X63828571Y-27672371D01*
X63828571Y-27672371D02*
X63742857Y-27643800D01*
X63742857Y-27643800D02*
X63685714Y-27586657D01*
X63685714Y-27586657D02*
X63657143Y-27529514D01*
X63657143Y-27529514D02*
X63628571Y-27415228D01*
X63628571Y-27415228D02*
X63628571Y-27329514D01*
X63628571Y-27329514D02*
X63657143Y-27215228D01*
X63657143Y-27215228D02*
X63685714Y-27158085D01*
X63685714Y-27158085D02*
X63742857Y-27100942D01*
X63742857Y-27100942D02*
X63828571Y-27072371D01*
X63828571Y-27072371D02*
X63885714Y-27072371D01*
X63885714Y-27072371D02*
X63971428Y-27100942D01*
X63971428Y-27100942D02*
X64000000Y-27129514D01*
X64228571Y-27129514D02*
X64257143Y-27100942D01*
X64257143Y-27100942D02*
X64314286Y-27072371D01*
X64314286Y-27072371D02*
X64457143Y-27072371D01*
X64457143Y-27072371D02*
X64514286Y-27100942D01*
X64514286Y-27100942D02*
X64542857Y-27129514D01*
X64542857Y-27129514D02*
X64571428Y-27186657D01*
X64571428Y-27186657D02*
X64571428Y-27243800D01*
X64571428Y-27243800D02*
X64542857Y-27329514D01*
X64542857Y-27329514D02*
X64200000Y-27672371D01*
X64200000Y-27672371D02*
X64571428Y-27672371D01*
X70600000Y-34672371D02*
X70400000Y-34386657D01*
X70257143Y-34672371D02*
X70257143Y-34072371D01*
X70257143Y-34072371D02*
X70485714Y-34072371D01*
X70485714Y-34072371D02*
X70542857Y-34100942D01*
X70542857Y-34100942D02*
X70571428Y-34129514D01*
X70571428Y-34129514D02*
X70600000Y-34186657D01*
X70600000Y-34186657D02*
X70600000Y-34272371D01*
X70600000Y-34272371D02*
X70571428Y-34329514D01*
X70571428Y-34329514D02*
X70542857Y-34358085D01*
X70542857Y-34358085D02*
X70485714Y-34386657D01*
X70485714Y-34386657D02*
X70257143Y-34386657D01*
X70800000Y-34072371D02*
X71171428Y-34072371D01*
X71171428Y-34072371D02*
X70971428Y-34300942D01*
X70971428Y-34300942D02*
X71057143Y-34300942D01*
X71057143Y-34300942D02*
X71114286Y-34329514D01*
X71114286Y-34329514D02*
X71142857Y-34358085D01*
X71142857Y-34358085D02*
X71171428Y-34415228D01*
X71171428Y-34415228D02*
X71171428Y-34558085D01*
X71171428Y-34558085D02*
X71142857Y-34615228D01*
X71142857Y-34615228D02*
X71114286Y-34643800D01*
X71114286Y-34643800D02*
X71057143Y-34672371D01*
X71057143Y-34672371D02*
X70885714Y-34672371D01*
X70885714Y-34672371D02*
X70828571Y-34643800D01*
X70828571Y-34643800D02*
X70800000Y-34615228D01*
D12*
%TO.C,U2*%
X59074400Y-40080700D02*
X59074400Y-41731700D01*
X59074400Y-41731700D02*
X60087860Y-41731700D01*
X61040360Y-40080700D02*
X60359640Y-40080700D01*
X61312140Y-41731700D02*
X62325600Y-41731700D01*
X62325600Y-41731700D02*
X62325600Y-40080700D01*
X63595600Y-39636200D02*
G75*
G02*
X63341600Y-39636200I-127000J0D01*
G01*
X63341600Y-39636200D02*
G75*
G02*
X63595600Y-39636200I127000J0D01*
G01*
%TO.C,D1*%
X69375350Y-30327100D02*
X70944650Y-30327100D01*
X70944650Y-28472900D02*
X69375350Y-28472900D01*
D13*
%TO.C,K1*%
X49860000Y-28940000D02*
X49860000Y-35940000D01*
X49860000Y-35940000D02*
X52860000Y-35940000D01*
X55060000Y-35940000D02*
X57660000Y-35940000D01*
X58060000Y-28940000D02*
X52260000Y-28940000D01*
X60460000Y-35940000D02*
X60460000Y-28940000D01*
D14*
X54010000Y-36440000D02*
G75*
G02*
X53810000Y-36440000I-100000J0D01*
G01*
X53810000Y-36440000D02*
G75*
G02*
X54010000Y-36440000I100000J0D01*
G01*
D15*
%TO.C,J1*%
X49530000Y-67310000D02*
X49530000Y-69850000D01*
X49530000Y-67310000D02*
X74930000Y-67310000D01*
X74930000Y-67310000D02*
X74930000Y-69850000D01*
X74930000Y-69850000D02*
X49530000Y-69850000D01*
D16*
X49911000Y-66929000D02*
G75*
G02*
X49657000Y-66929000I-127000J0D01*
G01*
X49657000Y-66929000D02*
G75*
G02*
X49911000Y-66929000I127000J0D01*
G01*
D12*
%TO.C,C1*%
X63467549Y-35777000D02*
X64852451Y-35777000D01*
X64852451Y-33023000D02*
X63467549Y-33023000D01*
D17*
%TO.C,U1*%
X53660000Y-37340000D02*
X51710000Y-37340000D01*
X53660000Y-37340000D02*
X55610000Y-37340000D01*
X53660000Y-42460000D02*
X51710000Y-42460000D01*
X53660000Y-42460000D02*
X55610000Y-42460000D01*
X50960000Y-37435000D02*
X50720000Y-37105000D01*
X51200000Y-37105000D01*
X50960000Y-37435000D01*
G36*
X50960000Y-37435000D02*
G01*
X50720000Y-37105000D01*
X51200000Y-37105000D01*
X50960000Y-37435000D01*
G37*
D12*
%TO.C,C2*%
X63367549Y-29827000D02*
X64952451Y-29827000D01*
X64952451Y-27973000D02*
X63367549Y-27973000D01*
D15*
%TO.C,J1*%
X49530000Y-24130000D02*
X49530000Y-26670000D01*
X49530000Y-24130000D02*
X74930000Y-24130000D01*
X74930000Y-24130000D02*
X74930000Y-26670000D01*
X74930000Y-26670000D02*
X49530000Y-26670000D01*
D16*
X49911000Y-23749000D02*
G75*
G02*
X49657000Y-23749000I-127000J0D01*
G01*
X49657000Y-23749000D02*
G75*
G02*
X49911000Y-23749000I127000J0D01*
G01*
%TD*%
M02*
