%TF.GenerationSoftware,KiCad,Pcbnew,8.0.8*%
%TF.CreationDate,2025-02-03T20:56:19-05:00*%
%TF.ProjectId,RTDS Control Module,52544453-2043-46f6-9e74-726f6c204d6f,rev?*%
%TF.SameCoordinates,Original*%
%TF.FileFunction,Copper,L2,Bot*%
%TF.FilePolarity,Positive*%
%FSLAX46Y46*%
G04 Gerber Fmt 4.6, Leading zero omitted, Abs format (unit mm)*
G04 Created by KiCad (PCBNEW 8.0.8) date 2025-02-03 20:56:19*
%MOMM*%
%LPD*%
G01*
G04 APERTURE LIST*
%TA.AperFunction,ComponentPad*%
%ADD10C,1.650000*%
%TD*%
%TA.AperFunction,ComponentPad*%
%ADD11C,1.750000*%
%TD*%
%TA.AperFunction,ViaPad*%
%ADD12C,0.800000*%
%TD*%
%TA.AperFunction,ViaPad*%
%ADD13C,0.600000*%
%TD*%
%TA.AperFunction,ViaPad*%
%ADD14C,2.000000*%
%TD*%
%TA.AperFunction,Conductor*%
%ADD15C,0.500000*%
%TD*%
%TA.AperFunction,Conductor*%
%ADD16C,0.300000*%
%TD*%
%TA.AperFunction,Conductor*%
%ADD17C,0.250000*%
%TD*%
%TA.AperFunction,Conductor*%
%ADD18C,1.000000*%
%TD*%
G04 APERTURE END LIST*
D10*
%TO.P,K1,2*%
%TO.N,Net-(U1-TR)*%
X53890000Y-34980000D03*
%TO.P,K1,4*%
%TO.N,/GND*%
X58970000Y-34980000D03*
%TO.P,K1,5*%
%TO.N,Net-(J1-Pad3)*%
X58970000Y-29900000D03*
%TO.P,K1,8*%
%TO.N,/Vs*%
X51350000Y-29900000D03*
%TD*%
D11*
%TO.P,J1,1,1*%
%TO.N,N/C*%
X50800000Y-68580000D03*
%TO.P,J1,2,2*%
X53340000Y-68580000D03*
%TO.P,J1,3,3*%
X55880000Y-68580000D03*
%TO.P,J1,4,4*%
X58420000Y-68580000D03*
%TO.P,J1,5,5*%
X60960000Y-68580000D03*
%TO.P,J1,6,6*%
X63500000Y-68580000D03*
%TO.P,J1,7,7*%
X66040000Y-68580000D03*
%TO.P,J1,8,8*%
X68580000Y-68580000D03*
%TO.P,J1,9,9*%
X71120000Y-68580000D03*
%TO.P,J1,10,10*%
X73660000Y-68580000D03*
%TD*%
%TO.P,J1,1,1*%
%TO.N,/Vs*%
X50800000Y-25400000D03*
%TO.P,J1,2,2*%
%TO.N,/GND*%
X53340000Y-25400000D03*
%TO.P,J1,3,3*%
%TO.N,Net-(J1-Pad3)*%
X55880000Y-25400000D03*
%TO.P,J1,4,4*%
%TO.N,/GND*%
X58420000Y-25400000D03*
%TO.P,J1,5,5*%
X60960000Y-25400000D03*
%TO.P,J1,6,6*%
%TO.N,Net-(U2-D)*%
X63500000Y-25400000D03*
%TO.P,J1,7,7*%
%TO.N,/GND*%
X66040000Y-25400000D03*
%TO.P,J1,8,8*%
%TO.N,unconnected-(J1-Pad8)*%
X68580000Y-25400000D03*
%TO.P,J1,9,9*%
%TO.N,/Vs*%
X71120000Y-25400000D03*
%TO.P,J1,10,10*%
%TO.N,unconnected-(J1-Pad10)*%
X73660000Y-25400000D03*
%TD*%
D12*
%TO.N,/GND*%
X61160000Y-37900000D03*
X58660000Y-36900000D03*
X51185000Y-36700000D03*
D13*
%TO.N,/Vs*%
X70560000Y-28000000D03*
D12*
X56160000Y-36900000D03*
%TO.N,Net-(U1-DIS)*%
X62660000Y-31900000D03*
X54160000Y-27900000D03*
D14*
%TO.N,Net-(U2-D)*%
X66060000Y-41000000D03*
%TD*%
D15*
%TO.N,/GND*%
X60160000Y-36900000D02*
X61160000Y-37900000D01*
D16*
X57019339Y-34980000D02*
X58970000Y-34980000D01*
D17*
X54515000Y-26575000D02*
X53340000Y-25400000D01*
X57245000Y-26575000D02*
X54515000Y-26575000D01*
D16*
X51185000Y-36700000D02*
X55299339Y-36700000D01*
D17*
X58420000Y-25400000D02*
X57245000Y-26575000D01*
D15*
X58660000Y-36900000D02*
X60160000Y-36900000D01*
D16*
X55299339Y-36700000D02*
X57019339Y-34980000D01*
%TO.N,/Vs*%
X56955000Y-36105000D02*
X56160000Y-36900000D01*
D17*
X70560000Y-28000000D02*
X60260000Y-28000000D01*
X52375000Y-26975000D02*
X50800000Y-25400000D01*
X60260000Y-28000000D02*
X59235000Y-26975000D01*
D16*
X62455000Y-36105000D02*
X56955000Y-36105000D01*
X70560000Y-28000000D02*
X62455000Y-36105000D01*
D17*
X59235000Y-26975000D02*
X52375000Y-26975000D01*
D16*
%TO.N,Net-(U1-DIS)*%
X58160000Y-31900000D02*
X62660000Y-31900000D01*
X54160000Y-27900000D02*
X58160000Y-31900000D01*
D18*
%TO.N,Net-(U2-D)*%
X71760000Y-33300000D02*
X66060000Y-39000000D01*
X65100000Y-27000000D02*
X70974214Y-27000000D01*
X65100000Y-27000000D02*
X63500000Y-25400000D01*
X66060000Y-39000000D02*
X66060000Y-41000000D01*
X71760000Y-27785786D02*
X71760000Y-33300000D01*
X70974214Y-27000000D02*
X71760000Y-27785786D01*
%TD*%
M02*
