%TF.GenerationSoftware,KiCad,Pcbnew,9.0.5*%
%TF.CreationDate,2025-11-14T09:13:45-05:00*%
%TF.ProjectId,VCU MPR - 5V V1.0,56435520-4d50-4522-902d-203556205631,rev?*%
%TF.SameCoordinates,Original*%
%TF.FileFunction,Copper,L1,Top*%
%TF.FilePolarity,Positive*%
%FSLAX46Y46*%
G04 Gerber Fmt 4.6, Leading zero omitted, Abs format (unit mm)*
G04 Created by KiCad (PCBNEW 9.0.5) date 2025-11-14 09:13:45*
%MOMM*%
%LPD*%
G01*
G04 APERTURE LIST*
G04 Aperture macros list*
%AMRoundRect*
0 Rectangle with rounded corners*
0 $1 Rounding radius*
0 $2 $3 $4 $5 $6 $7 $8 $9 X,Y pos of 4 corners*
0 Add a 4 corners polygon primitive as box body*
4,1,4,$2,$3,$4,$5,$6,$7,$8,$9,$2,$3,0*
0 Add four circle primitives for the rounded corners*
1,1,$1+$1,$2,$3*
1,1,$1+$1,$4,$5*
1,1,$1+$1,$6,$7*
1,1,$1+$1,$8,$9*
0 Add four rect primitives between the rounded corners*
20,1,$1+$1,$2,$3,$4,$5,0*
20,1,$1+$1,$4,$5,$6,$7,0*
20,1,$1+$1,$6,$7,$8,$9,0*
20,1,$1+$1,$8,$9,$2,$3,0*%
G04 Aperture macros list end*
%TA.AperFunction,SMDPad,CuDef*%
%ADD10RoundRect,0.171250X0.513750X1.188750X-0.513750X1.188750X-0.513750X-1.188750X0.513750X-1.188750X0*%
%TD*%
%TA.AperFunction,SMDPad,CuDef*%
%ADD11RoundRect,0.171250X-0.513750X-1.188750X0.513750X-1.188750X0.513750X1.188750X-0.513750X1.188750X0*%
%TD*%
%TA.AperFunction,ComponentPad*%
%ADD12R,2.700000X2.700000*%
%TD*%
%TA.AperFunction,ComponentPad*%
%ADD13C,2.700000*%
%TD*%
%TA.AperFunction,ComponentPad*%
%ADD14C,3.000000*%
%TD*%
%TA.AperFunction,ComponentPad*%
%ADD15RoundRect,0.250000X-0.625000X0.350000X-0.625000X-0.350000X0.625000X-0.350000X0.625000X0.350000X0*%
%TD*%
%TA.AperFunction,ComponentPad*%
%ADD16O,1.750000X1.200000*%
%TD*%
%TA.AperFunction,ComponentPad*%
%ADD17C,1.524000*%
%TD*%
%TA.AperFunction,SMDPad,CuDef*%
%ADD18R,0.990600X1.498600*%
%TD*%
%TA.AperFunction,SMDPad,CuDef*%
%ADD19R,3.276600X1.498600*%
%TD*%
%TA.AperFunction,SMDPad,CuDef*%
%ADD20R,2.820000X1.570000*%
%TD*%
%TA.AperFunction,Conductor*%
%ADD21C,0.500000*%
%TD*%
%TA.AperFunction,Conductor*%
%ADD22C,1.000000*%
%TD*%
G04 APERTURE END LIST*
D10*
%TO.P,C1,1*%
%TO.N,/Vs*%
X100735000Y-85928200D03*
%TO.P,C1,2*%
%TO.N,/GND*%
X97893000Y-85928200D03*
%TD*%
D11*
%TO.P,C2,1*%
%TO.N,Net-(U1-VO)*%
X94972000Y-89839800D03*
%TO.P,C2,2*%
%TO.N,/GND*%
X97814000Y-89839800D03*
%TD*%
D12*
%TO.P,K1,1*%
%TO.N,Net-(J1-Pin_2)*%
X77388200Y-110319700D03*
D13*
%TO.P,K1,2*%
%TO.N,Net-(J1-Pin_1)*%
X77388200Y-88319700D03*
D14*
%TO.P,K1,3*%
%TO.N,Net-(J1-Pin_2)*%
X89388200Y-112119700D03*
%TO.P,K1,4*%
%TO.N,Net-(J1-Pin_5)*%
X89388200Y-84519700D03*
%TD*%
D15*
%TO.P,J1,1,Pin_1*%
%TO.N,Net-(J1-Pin_1)*%
X109524800Y-90525600D03*
D16*
%TO.P,J1,2,Pin_2*%
%TO.N,Net-(J1-Pin_2)*%
X109524800Y-92525600D03*
%TO.P,J1,3,Pin_3*%
X109524800Y-94525600D03*
%TO.P,J1,4,Pin_4*%
X109524800Y-96525600D03*
%TO.P,J1,5,Pin_5*%
%TO.N,Net-(J1-Pin_5)*%
X109524800Y-98525600D03*
%TO.P,J1,6,Pin_6*%
X109524800Y-100525600D03*
%TO.P,J1,7,Pin_7*%
X109524800Y-102525600D03*
%TO.P,J1,8,Pin_8*%
%TO.N,/Vs*%
X109524800Y-104525600D03*
%TO.P,J1,9,Pin_9*%
%TO.N,/GND*%
X109524800Y-106525600D03*
%TO.P,J1,10,Pin_10*%
%TO.N,Net-(J1-Pin_10)*%
X109524800Y-108525600D03*
%TO.P,J1,11,Pin_11*%
X109524800Y-110525600D03*
%TO.P,J1,12,Pin_12*%
X109524800Y-112525600D03*
%TD*%
D17*
%TO.P,P2,1,1*%
%TO.N,N/C*%
X72074820Y-113306139D03*
%TO.P,P2,2,2*%
X72074820Y-110766139D03*
%TO.P,P2,3,3*%
X72074820Y-108226139D03*
%TO.P,P2,4,4*%
X72074820Y-105686139D03*
%TO.P,P2,5,5*%
X72074820Y-103146139D03*
%TO.P,P2,6,6*%
X72074820Y-100606139D03*
%TO.P,P2,7,7*%
X72074820Y-98066139D03*
%TO.P,P2,8,8*%
X72074820Y-95526139D03*
%TO.P,P2,9,9*%
X72074820Y-92986139D03*
%TO.P,P2,10,10*%
X72074820Y-90446139D03*
%TO.P,P2,11,11*%
X72074820Y-87906139D03*
%TO.P,P2,12,12*%
X72074820Y-85366139D03*
%TO.P,P2,13,13*%
X72074820Y-82826139D03*
%TO.P,P2,14,14*%
X72074820Y-80286139D03*
%TO.P,P2,15,15*%
X72074820Y-77746139D03*
%TO.P,P2,16,16*%
X72074820Y-75206139D03*
%TO.P,P2,17,17*%
X72074820Y-72666139D03*
%TO.P,P2,18,18*%
X72074820Y-70126139D03*
%TO.P,P2,19,19*%
X72074820Y-67586139D03*
%TO.P,P2,20,20*%
X72074820Y-65046139D03*
%TD*%
D18*
%TO.P,U1,1,GND*%
%TO.N,/GND*%
X104178100Y-83362800D03*
%TO.P,U1,2,VO*%
%TO.N,Net-(U1-VO)*%
X106476800Y-83362800D03*
%TO.P,U1,3,VI*%
%TO.N,/Vs*%
X108775500Y-83362800D03*
D19*
%TO.P,U1,4*%
%TO.N,N/C*%
X106476800Y-77063600D03*
%TD*%
D20*
%TO.P,F1,1_1*%
%TO.N,Net-(J1-Pin_10)*%
X94884000Y-109777800D03*
X101204000Y-109777800D03*
%TO.P,F1,2_1*%
%TO.N,Net-(U1-VO)*%
X94884000Y-96317800D03*
X101204000Y-96317800D03*
%TD*%
D17*
%TO.P,,16,16*%
%TO.N,unconnected-(J3-Pad16)*%
X115254820Y-75206139D03*
%TD*%
%TO.P,P1,1,1*%
%TO.N,N/C*%
X115254820Y-113306139D03*
%TO.P,P1,2,2*%
X115254820Y-110766139D03*
%TO.P,P1,3,3*%
%TO.N,Net-(J3-Pad1)*%
X115254820Y-108226139D03*
%TO.P,P1,4,4*%
%TO.N,N/C*%
X115254820Y-105686139D03*
%TO.P,P1,5,5*%
X115254820Y-103146139D03*
%TO.P,P1,6,6*%
X115254820Y-100606139D03*
%TO.P,P1,7,7*%
%TO.N,Net-(J3-Pad7)*%
X115254820Y-98066139D03*
%TO.P,P1,8,8*%
%TO.N,unconnected-(J3-Pad8)*%
X115254820Y-95526139D03*
%TO.P,P1,9,9*%
%TO.N,unconnected-(J3-Pad9)*%
X115254820Y-92986139D03*
%TO.P,P1,10,10*%
%TO.N,unconnected-(J3-Pad10)*%
X115254820Y-90446139D03*
%TO.P,P1,11,11*%
%TO.N,unconnected-(J3-Pad11)*%
X115254820Y-87906139D03*
%TO.P,P1,12,12*%
%TO.N,unconnected-(J3-Pad12)*%
X115254820Y-85366139D03*
%TO.P,P1,13,13*%
%TO.N,unconnected-(J3-Pad13)*%
X115254820Y-82826139D03*
%TO.P,P1,14,14*%
%TO.N,unconnected-(J3-Pad14)*%
X115254820Y-80286139D03*
%TO.P,P1,15,15*%
%TO.N,unconnected-(J3-Pad15)*%
X115254820Y-77746139D03*
%TO.P,P1,16,16*%
%TO.N,unconnected-(J3-Pad16)*%
X115254820Y-75206139D03*
%TO.P,P1,17,17*%
%TO.N,unconnected-(J3-Pad17)*%
X115254820Y-72666139D03*
%TO.P,P1,18,18*%
%TO.N,unconnected-(J3-Pad18)*%
X115254820Y-70126139D03*
%TO.P,P1,19,19*%
%TO.N,unconnected-(J3-Pad19)*%
X115254820Y-67586139D03*
%TO.P,P1,20,20*%
%TO.N,unconnected-(J3-Pad20)*%
X115254820Y-65046139D03*
%TD*%
D21*
%TO.N,/GND*%
X109524800Y-106525600D02*
X103505000Y-100505800D01*
X100458400Y-83362800D02*
X97893000Y-85928200D01*
X97814000Y-86007200D02*
X97866900Y-85954300D01*
X97866900Y-85954300D02*
X97893000Y-85928200D01*
X97814000Y-89839800D02*
X97814000Y-86007200D01*
X103505000Y-100505800D02*
X103505000Y-95530800D01*
X103505000Y-95530800D02*
X97814000Y-89839800D01*
X104178100Y-83362800D02*
X100458400Y-83362800D01*
%TO.N,/Vs*%
X108775500Y-83362800D02*
X106210100Y-85928200D01*
X100735000Y-85928200D02*
X106425300Y-91618500D01*
X109524800Y-104525600D02*
X106425300Y-101426100D01*
X106425300Y-101426100D02*
X106425300Y-91618500D01*
X106210100Y-85928200D02*
X106210100Y-91403300D01*
X106210100Y-91403300D02*
X106425300Y-91618500D01*
%TO.N,Net-(U1-VO)*%
X94884000Y-96317800D02*
X101204000Y-96317800D01*
X105276500Y-82162500D02*
X99071460Y-82162500D01*
X94884000Y-96317800D02*
X94884000Y-89927800D01*
X94972000Y-86261960D02*
X94972000Y-89839800D01*
X99071460Y-82162500D02*
X94972000Y-86261960D01*
X94884000Y-89927800D02*
X94972000Y-89839800D01*
X106476800Y-83362800D02*
X105276500Y-82162500D01*
D22*
%TO.N,Net-(J1-Pin_10)*%
X108777000Y-109777800D02*
X109524800Y-110525600D01*
D21*
X109524800Y-108525600D02*
X109524800Y-109030000D01*
D22*
X109524800Y-109030000D02*
X108777000Y-109777800D01*
X94884000Y-109777800D02*
X101204000Y-109777800D01*
X101204000Y-109777800D02*
X108777000Y-109777800D01*
X109524800Y-108525600D02*
X109524800Y-112525600D01*
%TD*%
M02*
