%TF.GenerationSoftware,KiCad,Pcbnew,9.0.5*%
%TF.CreationDate,2025-11-14T09:13:45-05:00*%
%TF.ProjectId,VCU MPR - 5V V1.0,56435520-4d50-4522-902d-203556205631,rev?*%
%TF.SameCoordinates,Original*%
%TF.FileFunction,Soldermask,Top*%
%TF.FilePolarity,Negative*%
%FSLAX46Y46*%
G04 Gerber Fmt 4.6, Leading zero omitted, Abs format (unit mm)*
G04 Created by KiCad (PCBNEW 9.0.5) date 2025-11-14 09:13:45*
%MOMM*%
%LPD*%
G01*
G04 APERTURE LIST*
G04 Aperture macros list*
%AMRoundRect*
0 Rectangle with rounded corners*
0 $1 Rounding radius*
0 $2 $3 $4 $5 $6 $7 $8 $9 X,Y pos of 4 corners*
0 Add a 4 corners polygon primitive as box body*
4,1,4,$2,$3,$4,$5,$6,$7,$8,$9,$2,$3,0*
0 Add four circle primitives for the rounded corners*
1,1,$1+$1,$2,$3*
1,1,$1+$1,$4,$5*
1,1,$1+$1,$6,$7*
1,1,$1+$1,$8,$9*
0 Add four rect primitives between the rounded corners*
20,1,$1+$1,$2,$3,$4,$5,0*
20,1,$1+$1,$4,$5,$6,$7,0*
20,1,$1+$1,$6,$7,$8,$9,0*
20,1,$1+$1,$8,$9,$2,$3,0*%
G04 Aperture macros list end*
%ADD10RoundRect,0.196750X0.590250X1.265250X-0.590250X1.265250X-0.590250X-1.265250X0.590250X-1.265250X0*%
%ADD11RoundRect,0.196750X-0.590250X-1.265250X0.590250X-1.265250X0.590250X1.265250X-0.590250X1.265250X0*%
%ADD12RoundRect,0.102000X1.350000X-1.350000X1.350000X1.350000X-1.350000X1.350000X-1.350000X-1.350000X0*%
%ADD13C,2.904000*%
%ADD14C,3.204000*%
%ADD15RoundRect,0.250000X-0.625000X0.350000X-0.625000X-0.350000X0.625000X-0.350000X0.625000X0.350000X0*%
%ADD16O,1.750000X1.200000*%
%ADD17C,1.524000*%
%ADD18RoundRect,0.102000X0.495300X-0.749300X0.495300X0.749300X-0.495300X0.749300X-0.495300X-0.749300X0*%
%ADD19RoundRect,0.102000X1.638300X-0.749300X1.638300X0.749300X-1.638300X0.749300X-1.638300X-0.749300X0*%
%ADD20RoundRect,0.102000X1.410000X-0.785000X1.410000X0.785000X-1.410000X0.785000X-1.410000X-0.785000X0*%
G04 APERTURE END LIST*
D10*
%TO.C,C1*%
X100735000Y-85928200D03*
X97893000Y-85928200D03*
%TD*%
D11*
%TO.C,C2*%
X94972000Y-89839800D03*
X97814000Y-89839800D03*
%TD*%
D12*
%TO.C,K1*%
X77388200Y-110319700D03*
D13*
X77388200Y-88319700D03*
D14*
X89388200Y-112119700D03*
X89388200Y-84519700D03*
%TD*%
D15*
%TO.C,J1*%
X109524800Y-90525600D03*
D16*
X109524800Y-92525600D03*
X109524800Y-94525600D03*
X109524800Y-96525600D03*
X109524800Y-98525600D03*
X109524800Y-100525600D03*
X109524800Y-102525600D03*
X109524800Y-104525600D03*
X109524800Y-106525600D03*
X109524800Y-108525600D03*
X109524800Y-110525600D03*
X109524800Y-112525600D03*
%TD*%
D17*
%TO.C,P2*%
X72074820Y-113306139D03*
X72074820Y-110766139D03*
X72074820Y-108226139D03*
X72074820Y-105686139D03*
X72074820Y-103146139D03*
X72074820Y-100606139D03*
X72074820Y-98066139D03*
X72074820Y-95526139D03*
X72074820Y-92986139D03*
X72074820Y-90446139D03*
X72074820Y-87906139D03*
X72074820Y-85366139D03*
X72074820Y-82826139D03*
X72074820Y-80286139D03*
X72074820Y-77746139D03*
X72074820Y-75206139D03*
X72074820Y-72666139D03*
X72074820Y-70126139D03*
X72074820Y-67586139D03*
X72074820Y-65046139D03*
%TD*%
D18*
%TO.C,U1*%
X104178100Y-83362800D03*
X106476800Y-83362800D03*
X108775500Y-83362800D03*
D19*
X106476800Y-77063600D03*
%TD*%
D20*
%TO.C,F1*%
X94884000Y-109777800D03*
X101204000Y-109777800D03*
X94884000Y-96317800D03*
X101204000Y-96317800D03*
%TD*%
D17*
%TO.C,*%
X115254820Y-75206139D03*
%TD*%
%TO.C,P1*%
X115254820Y-113306139D03*
X115254820Y-110766139D03*
X115254820Y-108226139D03*
X115254820Y-105686139D03*
X115254820Y-103146139D03*
X115254820Y-100606139D03*
X115254820Y-98066139D03*
X115254820Y-95526139D03*
X115254820Y-92986139D03*
X115254820Y-90446139D03*
X115254820Y-87906139D03*
X115254820Y-85366139D03*
X115254820Y-82826139D03*
X115254820Y-80286139D03*
X115254820Y-77746139D03*
X115254820Y-75206139D03*
X115254820Y-72666139D03*
X115254820Y-70126139D03*
X115254820Y-67586139D03*
X115254820Y-65046139D03*
%TD*%
M02*
