M48
; DRILL file {KiCad 9.0.5} date 2025-11-14T08:29:24-0500
; FORMAT={-:-/ absolute / metric / decimal}
; #@! TF.CreationDate,2025-11-14T08:29:24-05:00
; #@! TF.GenerationSoftware,Kicad,Pcbnew,9.0.5
; #@! TF.FileFunction,Plated,1,2,PTH
FMAT,2
METRIC
; #@! TA.AperFunction,Plated,PTH,ComponentDrill
T1C0.750
; #@! TA.AperFunction,Plated,PTH,ComponentDrill
T2C1.016
; #@! TA.AperFunction,Plated,PTH,ComponentDrill
T3C1.800
; #@! TA.AperFunction,Plated,PTH,ComponentDrill
T4C2.000
%
G90
G05
T1
X109.525Y-90.526
X109.525Y-92.526
X109.525Y-94.526
X109.525Y-96.526
X109.525Y-98.526
X109.525Y-100.526
X109.525Y-102.526
X109.525Y-104.526
X109.525Y-106.526
X109.525Y-108.526
X109.525Y-110.526
X109.525Y-112.526
T2
X72.075Y-65.046
X72.075Y-67.586
X72.075Y-70.126
X72.075Y-72.666
X72.075Y-75.206
X72.075Y-77.746
X72.075Y-80.286
X72.075Y-82.826
X72.075Y-85.366
X72.075Y-87.906
X72.075Y-90.446
X72.075Y-92.986
X72.075Y-95.526
X72.075Y-98.066
X72.075Y-100.606
X72.075Y-103.146
X72.075Y-105.686
X72.075Y-108.226
X72.075Y-110.766
X72.075Y-113.306
X115.255Y-65.046
X115.255Y-67.586
X115.255Y-70.126
X115.255Y-72.666
X115.255Y-75.206
X115.255Y-75.206
X115.255Y-77.746
X115.255Y-80.286
X115.255Y-82.826
X115.255Y-85.366
X115.255Y-87.906
X115.255Y-90.446
X115.255Y-92.986
X115.255Y-95.526
X115.255Y-98.066
X115.255Y-100.606
X115.255Y-103.146
X115.255Y-105.686
X115.255Y-108.226
X115.255Y-110.766
X115.255Y-113.306
T3
X77.388Y-88.32
X77.388Y-110.32
T4
X89.388Y-84.52
X89.388Y-112.12
M30
