%TF.GenerationSoftware,KiCad,Pcbnew,8.0.7*%
%TF.CreationDate,2025-01-28T21:05:17-05:00*%
%TF.ProjectId,VCU Charge Status Module,56435520-4368-4617-9267-652053746174,rev?*%
%TF.SameCoordinates,Original*%
%TF.FileFunction,Copper,L1,Top*%
%TF.FilePolarity,Positive*%
%FSLAX46Y46*%
G04 Gerber Fmt 4.6, Leading zero omitted, Abs format (unit mm)*
G04 Created by KiCad (PCBNEW 8.0.7) date 2025-01-28 21:05:17*
%MOMM*%
%LPD*%
G01*
G04 APERTURE LIST*
G04 Aperture macros list*
%AMRoundRect*
0 Rectangle with rounded corners*
0 $1 Rounding radius*
0 $2 $3 $4 $5 $6 $7 $8 $9 X,Y pos of 4 corners*
0 Add a 4 corners polygon primitive as box body*
4,1,4,$2,$3,$4,$5,$6,$7,$8,$9,$2,$3,0*
0 Add four circle primitives for the rounded corners*
1,1,$1+$1,$2,$3*
1,1,$1+$1,$4,$5*
1,1,$1+$1,$6,$7*
1,1,$1+$1,$8,$9*
0 Add four rect primitives between the rounded corners*
20,1,$1+$1,$2,$3,$4,$5,0*
20,1,$1+$1,$4,$5,$6,$7,0*
20,1,$1+$1,$6,$7,$8,$9,0*
20,1,$1+$1,$8,$9,$2,$3,0*%
G04 Aperture macros list end*
%TA.AperFunction,ComponentPad*%
%ADD10R,1.700000X1.700000*%
%TD*%
%TA.AperFunction,ComponentPad*%
%ADD11O,1.700000X1.700000*%
%TD*%
%TA.AperFunction,SMDPad,CuDef*%
%ADD12RoundRect,0.200000X-0.200000X-0.275000X0.200000X-0.275000X0.200000X0.275000X-0.200000X0.275000X0*%
%TD*%
%TA.AperFunction,SMDPad,CuDef*%
%ADD13R,0.279400X0.660400*%
%TD*%
%TA.AperFunction,SMDPad,CuDef*%
%ADD14R,0.381000X0.660400*%
%TD*%
%TA.AperFunction,SMDPad,CuDef*%
%ADD15RoundRect,0.200000X0.275000X-0.200000X0.275000X0.200000X-0.275000X0.200000X-0.275000X-0.200000X0*%
%TD*%
%TA.AperFunction,SMDPad,CuDef*%
%ADD16R,1.600200X0.863600*%
%TD*%
%TA.AperFunction,SMDPad,CuDef*%
%ADD17RoundRect,0.250000X-0.262500X-0.450000X0.262500X-0.450000X0.262500X0.450000X-0.262500X0.450000X0*%
%TD*%
%TA.AperFunction,Conductor*%
%ADD18C,0.750000*%
%TD*%
%TA.AperFunction,Conductor*%
%ADD19C,0.200000*%
%TD*%
%TA.AperFunction,Conductor*%
%ADD20C,0.250000*%
%TD*%
G04 APERTURE END LIST*
D10*
%TO.P,J1,1,1*%
%TO.N,Net-(Q1-D)*%
X50800000Y-25400000D03*
D11*
%TO.P,J1,2,2*%
%TO.N,Net-(J1-Pad2)*%
X50800000Y-27940000D03*
%TO.P,J1,3,3*%
%TO.N,Net-(J1-Pad3)*%
X50800000Y-30480000D03*
%TO.P,J1,4,4*%
%TO.N,Net-(D1-A)*%
X50800000Y-33020000D03*
%TO.P,J1,5,5*%
%TO.N,unconnected-(J1-Pad5)*%
X50800000Y-35560000D03*
%TO.P,J1,6,6*%
%TO.N,unconnected-(J1-Pad6)*%
X50800000Y-38100000D03*
%TO.P,J1,7,7*%
%TO.N,unconnected-(J1-Pad7)*%
X50800000Y-40640000D03*
%TO.P,J1,8,8*%
%TO.N,unconnected-(J1-Pad8)*%
X50800000Y-43180000D03*
%TO.P,J1,9,9*%
%TO.N,unconnected-(J1-Pad9)*%
X50800000Y-45720000D03*
%TO.P,J1,10,10*%
%TO.N,unconnected-(J1-Pad10)*%
X50800000Y-48260000D03*
%TD*%
D12*
%TO.P,R2,1*%
%TO.N,Net-(J1-Pad2)*%
X53552500Y-28000000D03*
%TO.P,R2,2*%
%TO.N,Net-(Q1-G)*%
X55202500Y-28000000D03*
%TD*%
D13*
%TO.P,Q1,1,G*%
%TO.N,Net-(Q1-G)*%
X57599950Y-26490600D03*
%TO.P,Q1,2,S*%
%TO.N,Net-(D1-A)*%
X58400050Y-26490600D03*
D14*
%TO.P,Q1,3,D*%
%TO.N,Net-(Q1-D)*%
X58000000Y-25500000D03*
%TD*%
D15*
%TO.P,R3,1*%
%TO.N,Net-(J1-Pad3)*%
X57000000Y-29650000D03*
%TO.P,R3,2*%
%TO.N,Net-(Q1-G)*%
X57000000Y-28000000D03*
%TD*%
D10*
%TO.P,J1,1,1*%
%TO.N,N/C*%
X93980000Y-25400000D03*
D11*
%TO.P,J1,2,2*%
X93980000Y-27940000D03*
%TO.P,J1,3,3*%
X93980000Y-30480000D03*
%TO.P,J1,4,4*%
X93980000Y-33020000D03*
%TO.P,J1,5,5*%
X93980000Y-35560000D03*
%TO.P,J1,6,6*%
X93980000Y-38100000D03*
%TO.P,J1,7,7*%
X93980000Y-40640000D03*
%TO.P,J1,8,8*%
X93980000Y-43180000D03*
%TO.P,J1,9,9*%
X93980000Y-45720000D03*
%TO.P,J1,10,10*%
X93980000Y-48260000D03*
%TD*%
D16*
%TO.P,D1,1,K*%
%TO.N,Net-(D1-K)*%
X59500000Y-31548000D03*
%TO.P,D1,2,A*%
%TO.N,Net-(D1-A)*%
X59500000Y-28500000D03*
%TD*%
D17*
%TO.P,R1,1*%
%TO.N,Net-(J1-Pad3)*%
X55175000Y-31500000D03*
%TO.P,R1,2*%
%TO.N,Net-(D1-K)*%
X57000000Y-31500000D03*
%TD*%
D18*
%TO.N,Net-(D1-A)*%
X60300000Y-28500000D02*
X59500000Y-28500000D01*
X60409900Y-33020000D02*
X60875100Y-32554800D01*
X59500000Y-28500000D02*
X59500000Y-27590550D01*
X60875100Y-29075100D02*
X60300000Y-28500000D01*
X60875100Y-32554800D02*
X60875100Y-29075100D01*
X50800000Y-33020000D02*
X60409900Y-33020000D01*
X59500000Y-27590550D02*
X58400050Y-26490600D01*
D19*
%TO.N,Net-(D1-K)*%
X59500000Y-31548000D02*
X57048000Y-31548000D01*
X57048000Y-31548000D02*
X57000000Y-31500000D01*
%TO.N,Net-(J1-Pad3)*%
X57000000Y-29650000D02*
X57000000Y-29675000D01*
X51820000Y-31500000D02*
X50800000Y-30480000D01*
X55175000Y-31500000D02*
X51820000Y-31500000D01*
X57000000Y-29675000D02*
X55175000Y-31500000D01*
%TO.N,Net-(Q1-D)*%
X50813800Y-25386200D02*
X50800000Y-25400000D01*
X57900000Y-25400000D02*
X58000000Y-25500000D01*
D18*
X50800000Y-25400000D02*
X57900000Y-25400000D01*
D20*
%TO.N,Net-(J1-Pad2)*%
X53492500Y-27940000D02*
X53552500Y-28000000D01*
X50800000Y-27940000D02*
X53492500Y-27940000D01*
D19*
%TO.N,Net-(Q1-G)*%
X57000000Y-28000000D02*
X57000000Y-26778700D01*
D20*
X56711900Y-26490600D02*
X55202500Y-28000000D01*
D19*
X57000000Y-26778700D02*
X56711900Y-26490600D01*
D20*
X57599950Y-26490600D02*
X56711900Y-26490600D01*
%TD*%
M02*
