%TF.GenerationSoftware,KiCad,Pcbnew,7.0.7*%
%TF.CreationDate,2024-10-03T20:26:00-04:00*%
%TF.ProjectId,Astable Multivibrator,41737461-626c-4652-904d-756c74697669,rev?*%
%TF.SameCoordinates,Original*%
%TF.FileFunction,Copper,L1,Top*%
%TF.FilePolarity,Positive*%
%FSLAX46Y46*%
G04 Gerber Fmt 4.6, Leading zero omitted, Abs format (unit mm)*
G04 Created by KiCad (PCBNEW 7.0.7) date 2024-10-03 20:26:00*
%MOMM*%
%LPD*%
G01*
G04 APERTURE LIST*
G04 Aperture macros list*
%AMRoundRect*
0 Rectangle with rounded corners*
0 $1 Rounding radius*
0 $2 $3 $4 $5 $6 $7 $8 $9 X,Y pos of 4 corners*
0 Add a 4 corners polygon primitive as box body*
4,1,4,$2,$3,$4,$5,$6,$7,$8,$9,$2,$3,0*
0 Add four circle primitives for the rounded corners*
1,1,$1+$1,$2,$3*
1,1,$1+$1,$4,$5*
1,1,$1+$1,$6,$7*
1,1,$1+$1,$8,$9*
0 Add four rect primitives between the rounded corners*
20,1,$1+$1,$2,$3,$4,$5,0*
20,1,$1+$1,$4,$5,$6,$7,0*
20,1,$1+$1,$6,$7,$8,$9,0*
20,1,$1+$1,$8,$9,$2,$3,0*%
G04 Aperture macros list end*
%TA.AperFunction,SMDPad,CuDef*%
%ADD10RoundRect,0.150000X-0.587500X-0.150000X0.587500X-0.150000X0.587500X0.150000X-0.587500X0.150000X0*%
%TD*%
%TA.AperFunction,ComponentPad*%
%ADD11R,1.800000X1.800000*%
%TD*%
%TA.AperFunction,ComponentPad*%
%ADD12C,1.800000*%
%TD*%
%TA.AperFunction,ComponentPad*%
%ADD13C,1.600000*%
%TD*%
%TA.AperFunction,ComponentPad*%
%ADD14O,1.600000X1.600000*%
%TD*%
%TA.AperFunction,ComponentPad*%
%ADD15O,4.400000X2.200000*%
%TD*%
%TA.AperFunction,ComponentPad*%
%ADD16O,3.600000X1.800000*%
%TD*%
%TA.AperFunction,ComponentPad*%
%ADD17O,3.016000X1.508000*%
%TD*%
%TA.AperFunction,ComponentPad*%
%ADD18R,1.600000X1.600000*%
%TD*%
%TA.AperFunction,ViaPad*%
%ADD19C,0.800000*%
%TD*%
%TA.AperFunction,Conductor*%
%ADD20C,0.250000*%
%TD*%
G04 APERTURE END LIST*
D10*
%TO.P,Q1,1,B*%
%TO.N,Net-(Q1-B)*%
X119380000Y-58607500D03*
%TO.P,Q1,2,E*%
%TO.N,GND*%
X119380000Y-60507500D03*
%TO.P,Q1,3,C*%
%TO.N,Net-(D2-K)*%
X121255000Y-59557500D03*
%TD*%
D11*
%TO.P,D2,1,K*%
%TO.N,Net-(D2-K)*%
X102507800Y-50546000D03*
D12*
%TO.P,D2,2,A*%
%TO.N,Net-(D2-A)*%
X102507800Y-48006000D03*
%TD*%
D13*
%TO.P,R1,1*%
%TO.N,Net-(J1-Pad1)*%
X104285800Y-32766000D03*
D14*
%TO.P,R1,2*%
%TO.N,Net-(D2-A)*%
X104285800Y-42926000D03*
%TD*%
D15*
%TO.P,J1,1*%
%TO.N,Net-(J1-Pad1)*%
X94188400Y-32849200D03*
D16*
%TO.P,J1,2*%
%TO.N,GND*%
X94188400Y-39049200D03*
D17*
%TO.P,J1,3*%
%TO.N,N/C*%
X97688400Y-38049200D03*
%TD*%
D10*
%TO.P,Q2,1,B*%
%TO.N,Net-(Q2-B)*%
X111462500Y-58600000D03*
%TO.P,Q2,2,E*%
%TO.N,GND*%
X111462500Y-60500000D03*
%TO.P,Q2,3,C*%
%TO.N,Net-(D1-K)*%
X113337500Y-59550000D03*
%TD*%
D11*
%TO.P,D1,1,K*%
%TO.N,Net-(D1-K)*%
X125748800Y-50927000D03*
D12*
%TO.P,D1,2,A*%
%TO.N,Net-(D1-A)*%
X125748800Y-48387000D03*
%TD*%
D18*
%TO.P,C2,1*%
%TO.N,Net-(D1-K)*%
X119380000Y-49784000D03*
D13*
%TO.P,C2,2*%
%TO.N,Net-(Q1-B)*%
X117380000Y-49784000D03*
%TD*%
%TO.P,R4,1*%
%TO.N,Net-(J1-Pad1)*%
X123081800Y-32766000D03*
D14*
%TO.P,R4,2*%
%TO.N,Net-(D1-A)*%
X123081800Y-42926000D03*
%TD*%
D13*
%TO.P,R3,1*%
%TO.N,Net-(J1-Pad1)*%
X116985800Y-32766000D03*
D14*
%TO.P,R3,2*%
%TO.N,Net-(Q1-B)*%
X116985800Y-42926000D03*
%TD*%
D13*
%TO.P,R2,1*%
%TO.N,Net-(J1-Pad1)*%
X110889800Y-32766000D03*
D14*
%TO.P,R2,2*%
%TO.N,Net-(Q2-B)*%
X110889800Y-42926000D03*
%TD*%
D18*
%TO.P,C1,1*%
%TO.N,Net-(D2-K)*%
X109778800Y-49784000D03*
D13*
%TO.P,C1,2*%
%TO.N,Net-(Q2-B)*%
X111778800Y-49784000D03*
%TD*%
D19*
%TO.N,Net-(D2-K)*%
X118890800Y-54991000D03*
%TO.N,Net-(D1-K)*%
X115207800Y-53213000D03*
%TD*%
D20*
%TO.N,Net-(D2-K)*%
X109016800Y-50546000D02*
X109778800Y-49784000D01*
X102507800Y-50546000D02*
X109016800Y-50546000D01*
X121255000Y-57355200D02*
X121255000Y-59557500D01*
X118890800Y-54991000D02*
X121255000Y-57355200D01*
%TO.N,Net-(Q1-B)*%
X117380000Y-56607500D02*
X119380000Y-58607500D01*
X117620800Y-49784000D02*
X116985800Y-49149000D01*
X117380000Y-49784000D02*
X117380000Y-56607500D01*
X116985800Y-49149000D02*
X116985800Y-42926000D01*
%TO.N,Net-(D1-K)*%
X124605800Y-49784000D02*
X125748800Y-50927000D01*
X113048800Y-55372000D02*
X113048800Y-59261300D01*
X113048800Y-59261300D02*
X113337500Y-59550000D01*
X115207800Y-53213000D02*
X113048800Y-55372000D01*
X119620800Y-49784000D02*
X124605800Y-49784000D01*
%TO.N,Net-(D1-A)*%
X125748800Y-48387000D02*
X125748800Y-45217000D01*
X123457800Y-42926000D02*
X123081800Y-42926000D01*
X125748800Y-45217000D02*
X123457800Y-42926000D01*
%TO.N,Net-(D2-A)*%
X102507800Y-48006000D02*
X104285800Y-46228000D01*
X104285800Y-46228000D02*
X104285800Y-42926000D01*
%TO.N,Net-(J1-Pad1)*%
X95713400Y-32849200D02*
X95713400Y-32918400D01*
X94271600Y-32766000D02*
X94188400Y-32849200D01*
X104285800Y-32766000D02*
X94271600Y-32766000D01*
X123081800Y-32766000D02*
X104285800Y-32766000D01*
X94188400Y-32849200D02*
X95713400Y-32849200D01*
%TO.N,GND*%
X110012500Y-61950000D02*
X109600000Y-61950000D01*
X117937500Y-61950000D02*
X109600000Y-61950000D01*
X119380000Y-60507500D02*
X117937500Y-61950000D01*
X111462500Y-60500000D02*
X110012500Y-61950000D01*
X94188400Y-49382800D02*
X94188400Y-39049200D01*
X111462500Y-60500000D02*
X111414500Y-60452000D01*
X106750000Y-61944400D02*
X94188400Y-49382800D01*
X109600000Y-61950000D02*
X106750000Y-61950000D01*
X106750000Y-61950000D02*
X106750000Y-61944400D01*
%TO.N,Net-(Q2-B)*%
X111778800Y-49784000D02*
X111778800Y-58283700D01*
X111778800Y-58283700D02*
X111462500Y-58600000D01*
X110889800Y-42926000D02*
X111778800Y-43815000D01*
X111778800Y-43815000D02*
X111778800Y-49784000D01*
%TD*%
M02*
