%TF.GenerationSoftware,KiCad,Pcbnew,8.0.8*%
%TF.CreationDate,2025-04-11T16:16:34-04:00*%
%TF.ProjectId,PWM Module 3.0A,50574d20-4d6f-4647-956c-6520332e3041,rev?*%
%TF.SameCoordinates,Original*%
%TF.FileFunction,Legend,Top*%
%TF.FilePolarity,Positive*%
%FSLAX46Y46*%
G04 Gerber Fmt 4.6, Leading zero omitted, Abs format (unit mm)*
G04 Created by KiCad (PCBNEW 8.0.8) date 2025-04-11 16:16:34*
%MOMM*%
%LPD*%
G01*
G04 APERTURE LIST*
%ADD10C,0.100000*%
%ADD11C,0.150000*%
%ADD12C,0.120000*%
G04 APERTURE END LIST*
D10*
X183231191Y-58500000D02*
X201500000Y-58500000D01*
X201500000Y-67000000D01*
X183231191Y-67000000D01*
X183231191Y-58500000D01*
X166200000Y-65100000D02*
X182800000Y-65100000D01*
X182800000Y-67200000D01*
X166200000Y-67200000D01*
X166200000Y-65100000D01*
D11*
X183674874Y-59888200D02*
X183712969Y-59831057D01*
X183712969Y-59831057D02*
X183789160Y-59773914D01*
X183789160Y-59773914D02*
X183941541Y-59888200D01*
X183941541Y-59888200D02*
X184017731Y-59831057D01*
X184017731Y-59831057D02*
X184055826Y-59773914D01*
X184360589Y-60345342D02*
X184360589Y-59145342D01*
X184360589Y-59145342D02*
X184665351Y-59145342D01*
X184665351Y-59145342D02*
X184741541Y-59202485D01*
X184741541Y-59202485D02*
X184779636Y-59259628D01*
X184779636Y-59259628D02*
X184817732Y-59373914D01*
X184817732Y-59373914D02*
X184817732Y-59545342D01*
X184817732Y-59545342D02*
X184779636Y-59659628D01*
X184779636Y-59659628D02*
X184741541Y-59716771D01*
X184741541Y-59716771D02*
X184665351Y-59773914D01*
X184665351Y-59773914D02*
X184360589Y-59773914D01*
X185160589Y-60345342D02*
X185160589Y-59145342D01*
X185541541Y-60345342D02*
X185541541Y-59145342D01*
X185541541Y-59145342D02*
X185998684Y-60345342D01*
X185998684Y-60345342D02*
X185998684Y-59145342D01*
X186532017Y-59145342D02*
X186684398Y-59145342D01*
X186684398Y-59145342D02*
X186760588Y-59202485D01*
X186760588Y-59202485D02*
X186836779Y-59316771D01*
X186836779Y-59316771D02*
X186874874Y-59545342D01*
X186874874Y-59545342D02*
X186874874Y-59945342D01*
X186874874Y-59945342D02*
X186836779Y-60173914D01*
X186836779Y-60173914D02*
X186760588Y-60288200D01*
X186760588Y-60288200D02*
X186684398Y-60345342D01*
X186684398Y-60345342D02*
X186532017Y-60345342D01*
X186532017Y-60345342D02*
X186455826Y-60288200D01*
X186455826Y-60288200D02*
X186379636Y-60173914D01*
X186379636Y-60173914D02*
X186341540Y-59945342D01*
X186341540Y-59945342D02*
X186341540Y-59545342D01*
X186341540Y-59545342D02*
X186379636Y-59316771D01*
X186379636Y-59316771D02*
X186455826Y-59202485D01*
X186455826Y-59202485D02*
X186532017Y-59145342D01*
X187217731Y-59145342D02*
X187217731Y-60116771D01*
X187217731Y-60116771D02*
X187255826Y-60231057D01*
X187255826Y-60231057D02*
X187293921Y-60288200D01*
X187293921Y-60288200D02*
X187370112Y-60345342D01*
X187370112Y-60345342D02*
X187522493Y-60345342D01*
X187522493Y-60345342D02*
X187598683Y-60288200D01*
X187598683Y-60288200D02*
X187636778Y-60231057D01*
X187636778Y-60231057D02*
X187674874Y-60116771D01*
X187674874Y-60116771D02*
X187674874Y-59145342D01*
X187941540Y-59145342D02*
X188398683Y-59145342D01*
X188170111Y-60345342D02*
X188170111Y-59145342D01*
X188551064Y-59888200D02*
X188589159Y-59831057D01*
X188589159Y-59831057D02*
X188665350Y-59773914D01*
X188665350Y-59773914D02*
X188817731Y-59888200D01*
X188817731Y-59888200D02*
X188893921Y-59831057D01*
X188893921Y-59831057D02*
X188932016Y-59773914D01*
D10*
X183651503Y-61152531D02*
X184022931Y-61152531D01*
X184022931Y-61152531D02*
X183822931Y-61533483D01*
X183822931Y-61533483D02*
X183908646Y-61533483D01*
X183908646Y-61533483D02*
X183965789Y-61581102D01*
X183965789Y-61581102D02*
X183994360Y-61628721D01*
X183994360Y-61628721D02*
X184022931Y-61723959D01*
X184022931Y-61723959D02*
X184022931Y-61962054D01*
X184022931Y-61962054D02*
X183994360Y-62057292D01*
X183994360Y-62057292D02*
X183965789Y-62104912D01*
X183965789Y-62104912D02*
X183908646Y-62152531D01*
X183908646Y-62152531D02*
X183737217Y-62152531D01*
X183737217Y-62152531D02*
X183680074Y-62104912D01*
X183680074Y-62104912D02*
X183651503Y-62057292D01*
X184280075Y-62057292D02*
X184308646Y-62104912D01*
X184308646Y-62104912D02*
X184280075Y-62152531D01*
X184280075Y-62152531D02*
X184251503Y-62104912D01*
X184251503Y-62104912D02*
X184280075Y-62057292D01*
X184280075Y-62057292D02*
X184280075Y-62152531D01*
X184280075Y-61533483D02*
X184308646Y-61581102D01*
X184308646Y-61581102D02*
X184280075Y-61628721D01*
X184280075Y-61628721D02*
X184251503Y-61581102D01*
X184251503Y-61581102D02*
X184280075Y-61533483D01*
X184280075Y-61533483D02*
X184280075Y-61628721D01*
X184937217Y-61152531D02*
X185137217Y-62152531D01*
X185137217Y-62152531D02*
X185337217Y-61152531D01*
X185880075Y-62057292D02*
X185851503Y-62104912D01*
X185851503Y-62104912D02*
X185765789Y-62152531D01*
X185765789Y-62152531D02*
X185708646Y-62152531D01*
X185708646Y-62152531D02*
X185622932Y-62104912D01*
X185622932Y-62104912D02*
X185565789Y-62009673D01*
X185565789Y-62009673D02*
X185537218Y-61914435D01*
X185537218Y-61914435D02*
X185508646Y-61723959D01*
X185508646Y-61723959D02*
X185508646Y-61581102D01*
X185508646Y-61581102D02*
X185537218Y-61390626D01*
X185537218Y-61390626D02*
X185565789Y-61295388D01*
X185565789Y-61295388D02*
X185622932Y-61200150D01*
X185622932Y-61200150D02*
X185708646Y-61152531D01*
X185708646Y-61152531D02*
X185765789Y-61152531D01*
X185765789Y-61152531D02*
X185851503Y-61200150D01*
X185851503Y-61200150D02*
X185880075Y-61247769D01*
X186137218Y-61152531D02*
X186137218Y-61962054D01*
X186137218Y-61962054D02*
X186165789Y-62057292D01*
X186165789Y-62057292D02*
X186194361Y-62104912D01*
X186194361Y-62104912D02*
X186251503Y-62152531D01*
X186251503Y-62152531D02*
X186365789Y-62152531D01*
X186365789Y-62152531D02*
X186422932Y-62104912D01*
X186422932Y-62104912D02*
X186451503Y-62057292D01*
X186451503Y-62057292D02*
X186480075Y-61962054D01*
X186480075Y-61962054D02*
X186480075Y-61152531D01*
X187422932Y-61628721D02*
X187222932Y-61628721D01*
X187222932Y-62152531D02*
X187222932Y-61152531D01*
X187222932Y-61152531D02*
X187508646Y-61152531D01*
X187994361Y-62152531D02*
X187994361Y-61628721D01*
X187994361Y-61628721D02*
X187965789Y-61533483D01*
X187965789Y-61533483D02*
X187908646Y-61485864D01*
X187908646Y-61485864D02*
X187794361Y-61485864D01*
X187794361Y-61485864D02*
X187737218Y-61533483D01*
X187994361Y-62104912D02*
X187937218Y-62152531D01*
X187937218Y-62152531D02*
X187794361Y-62152531D01*
X187794361Y-62152531D02*
X187737218Y-62104912D01*
X187737218Y-62104912D02*
X187708646Y-62009673D01*
X187708646Y-62009673D02*
X187708646Y-61914435D01*
X187708646Y-61914435D02*
X187737218Y-61819197D01*
X187737218Y-61819197D02*
X187794361Y-61771578D01*
X187794361Y-61771578D02*
X187937218Y-61771578D01*
X187937218Y-61771578D02*
X187994361Y-61723959D01*
X188280075Y-61485864D02*
X188280075Y-62152531D01*
X188280075Y-61581102D02*
X188308646Y-61533483D01*
X188308646Y-61533483D02*
X188365789Y-61485864D01*
X188365789Y-61485864D02*
X188451503Y-61485864D01*
X188451503Y-61485864D02*
X188508646Y-61533483D01*
X188508646Y-61533483D02*
X188537218Y-61628721D01*
X188537218Y-61628721D02*
X188537218Y-62152531D01*
X183965789Y-63095808D02*
X183965789Y-63762475D01*
X183822931Y-62714856D02*
X183680074Y-63429141D01*
X183680074Y-63429141D02*
X184051503Y-63429141D01*
X184280075Y-63667236D02*
X184308646Y-63714856D01*
X184308646Y-63714856D02*
X184280075Y-63762475D01*
X184280075Y-63762475D02*
X184251503Y-63714856D01*
X184251503Y-63714856D02*
X184280075Y-63667236D01*
X184280075Y-63667236D02*
X184280075Y-63762475D01*
X184280075Y-63143427D02*
X184308646Y-63191046D01*
X184308646Y-63191046D02*
X184280075Y-63238665D01*
X184280075Y-63238665D02*
X184251503Y-63191046D01*
X184251503Y-63191046D02*
X184280075Y-63143427D01*
X184280075Y-63143427D02*
X184280075Y-63238665D01*
X184937217Y-62762475D02*
X185137217Y-63762475D01*
X185137217Y-63762475D02*
X185337217Y-62762475D01*
X185880075Y-63667236D02*
X185851503Y-63714856D01*
X185851503Y-63714856D02*
X185765789Y-63762475D01*
X185765789Y-63762475D02*
X185708646Y-63762475D01*
X185708646Y-63762475D02*
X185622932Y-63714856D01*
X185622932Y-63714856D02*
X185565789Y-63619617D01*
X185565789Y-63619617D02*
X185537218Y-63524379D01*
X185537218Y-63524379D02*
X185508646Y-63333903D01*
X185508646Y-63333903D02*
X185508646Y-63191046D01*
X185508646Y-63191046D02*
X185537218Y-63000570D01*
X185537218Y-63000570D02*
X185565789Y-62905332D01*
X185565789Y-62905332D02*
X185622932Y-62810094D01*
X185622932Y-62810094D02*
X185708646Y-62762475D01*
X185708646Y-62762475D02*
X185765789Y-62762475D01*
X185765789Y-62762475D02*
X185851503Y-62810094D01*
X185851503Y-62810094D02*
X185880075Y-62857713D01*
X186137218Y-62762475D02*
X186137218Y-63571998D01*
X186137218Y-63571998D02*
X186165789Y-63667236D01*
X186165789Y-63667236D02*
X186194361Y-63714856D01*
X186194361Y-63714856D02*
X186251503Y-63762475D01*
X186251503Y-63762475D02*
X186365789Y-63762475D01*
X186365789Y-63762475D02*
X186422932Y-63714856D01*
X186422932Y-63714856D02*
X186451503Y-63667236D01*
X186451503Y-63667236D02*
X186480075Y-63571998D01*
X186480075Y-63571998D02*
X186480075Y-62762475D01*
X187222932Y-63762475D02*
X187222932Y-62762475D01*
X187222932Y-62762475D02*
X187451503Y-62762475D01*
X187451503Y-62762475D02*
X187508646Y-62810094D01*
X187508646Y-62810094D02*
X187537217Y-62857713D01*
X187537217Y-62857713D02*
X187565789Y-62952951D01*
X187565789Y-62952951D02*
X187565789Y-63095808D01*
X187565789Y-63095808D02*
X187537217Y-63191046D01*
X187537217Y-63191046D02*
X187508646Y-63238665D01*
X187508646Y-63238665D02*
X187451503Y-63286284D01*
X187451503Y-63286284D02*
X187222932Y-63286284D01*
X188080075Y-63095808D02*
X188080075Y-63762475D01*
X187822932Y-63095808D02*
X187822932Y-63619617D01*
X187822932Y-63619617D02*
X187851503Y-63714856D01*
X187851503Y-63714856D02*
X187908646Y-63762475D01*
X187908646Y-63762475D02*
X187994360Y-63762475D01*
X187994360Y-63762475D02*
X188051503Y-63714856D01*
X188051503Y-63714856D02*
X188080075Y-63667236D01*
X188365789Y-63762475D02*
X188365789Y-63095808D01*
X188365789Y-63191046D02*
X188394360Y-63143427D01*
X188394360Y-63143427D02*
X188451503Y-63095808D01*
X188451503Y-63095808D02*
X188537217Y-63095808D01*
X188537217Y-63095808D02*
X188594360Y-63143427D01*
X188594360Y-63143427D02*
X188622932Y-63238665D01*
X188622932Y-63238665D02*
X188622932Y-63762475D01*
X188622932Y-63238665D02*
X188651503Y-63143427D01*
X188651503Y-63143427D02*
X188708646Y-63095808D01*
X188708646Y-63095808D02*
X188794360Y-63095808D01*
X188794360Y-63095808D02*
X188851503Y-63143427D01*
X188851503Y-63143427D02*
X188880074Y-63238665D01*
X188880074Y-63238665D02*
X188880074Y-63762475D01*
X189165789Y-63095808D02*
X189165789Y-64095808D01*
X189165789Y-63143427D02*
X189222932Y-63095808D01*
X189222932Y-63095808D02*
X189337217Y-63095808D01*
X189337217Y-63095808D02*
X189394360Y-63143427D01*
X189394360Y-63143427D02*
X189422932Y-63191046D01*
X189422932Y-63191046D02*
X189451503Y-63286284D01*
X189451503Y-63286284D02*
X189451503Y-63571998D01*
X189451503Y-63571998D02*
X189422932Y-63667236D01*
X189422932Y-63667236D02*
X189394360Y-63714856D01*
X189394360Y-63714856D02*
X189337217Y-63762475D01*
X189337217Y-63762475D02*
X189222932Y-63762475D01*
X189222932Y-63762475D02*
X189165789Y-63714856D01*
X183994360Y-64372419D02*
X183708646Y-64372419D01*
X183708646Y-64372419D02*
X183680074Y-64848609D01*
X183680074Y-64848609D02*
X183708646Y-64800990D01*
X183708646Y-64800990D02*
X183765789Y-64753371D01*
X183765789Y-64753371D02*
X183908646Y-64753371D01*
X183908646Y-64753371D02*
X183965789Y-64800990D01*
X183965789Y-64800990D02*
X183994360Y-64848609D01*
X183994360Y-64848609D02*
X184022931Y-64943847D01*
X184022931Y-64943847D02*
X184022931Y-65181942D01*
X184022931Y-65181942D02*
X183994360Y-65277180D01*
X183994360Y-65277180D02*
X183965789Y-65324800D01*
X183965789Y-65324800D02*
X183908646Y-65372419D01*
X183908646Y-65372419D02*
X183765789Y-65372419D01*
X183765789Y-65372419D02*
X183708646Y-65324800D01*
X183708646Y-65324800D02*
X183680074Y-65277180D01*
X184280075Y-65277180D02*
X184308646Y-65324800D01*
X184308646Y-65324800D02*
X184280075Y-65372419D01*
X184280075Y-65372419D02*
X184251503Y-65324800D01*
X184251503Y-65324800D02*
X184280075Y-65277180D01*
X184280075Y-65277180D02*
X184280075Y-65372419D01*
X184280075Y-64753371D02*
X184308646Y-64800990D01*
X184308646Y-64800990D02*
X184280075Y-64848609D01*
X184280075Y-64848609D02*
X184251503Y-64800990D01*
X184251503Y-64800990D02*
X184280075Y-64753371D01*
X184280075Y-64753371D02*
X184280075Y-64848609D01*
X185308646Y-64372419D02*
X185022932Y-64372419D01*
X185022932Y-64372419D02*
X184994360Y-64848609D01*
X184994360Y-64848609D02*
X185022932Y-64800990D01*
X185022932Y-64800990D02*
X185080075Y-64753371D01*
X185080075Y-64753371D02*
X185222932Y-64753371D01*
X185222932Y-64753371D02*
X185280075Y-64800990D01*
X185280075Y-64800990D02*
X185308646Y-64848609D01*
X185308646Y-64848609D02*
X185337217Y-64943847D01*
X185337217Y-64943847D02*
X185337217Y-65181942D01*
X185337217Y-65181942D02*
X185308646Y-65277180D01*
X185308646Y-65277180D02*
X185280075Y-65324800D01*
X185280075Y-65324800D02*
X185222932Y-65372419D01*
X185222932Y-65372419D02*
X185080075Y-65372419D01*
X185080075Y-65372419D02*
X185022932Y-65324800D01*
X185022932Y-65324800D02*
X184994360Y-65277180D01*
X185508646Y-64372419D02*
X185708646Y-65372419D01*
X185708646Y-65372419D02*
X185908646Y-64372419D01*
X186108647Y-64991466D02*
X186565790Y-64991466D01*
X186337218Y-65372419D02*
X186337218Y-64610514D01*
X187280075Y-65324800D02*
X187365790Y-65372419D01*
X187365790Y-65372419D02*
X187508647Y-65372419D01*
X187508647Y-65372419D02*
X187565790Y-65324800D01*
X187565790Y-65324800D02*
X187594361Y-65277180D01*
X187594361Y-65277180D02*
X187622932Y-65181942D01*
X187622932Y-65181942D02*
X187622932Y-65086704D01*
X187622932Y-65086704D02*
X187594361Y-64991466D01*
X187594361Y-64991466D02*
X187565790Y-64943847D01*
X187565790Y-64943847D02*
X187508647Y-64896228D01*
X187508647Y-64896228D02*
X187394361Y-64848609D01*
X187394361Y-64848609D02*
X187337218Y-64800990D01*
X187337218Y-64800990D02*
X187308647Y-64753371D01*
X187308647Y-64753371D02*
X187280075Y-64658133D01*
X187280075Y-64658133D02*
X187280075Y-64562895D01*
X187280075Y-64562895D02*
X187308647Y-64467657D01*
X187308647Y-64467657D02*
X187337218Y-64420038D01*
X187337218Y-64420038D02*
X187394361Y-64372419D01*
X187394361Y-64372419D02*
X187537218Y-64372419D01*
X187537218Y-64372419D02*
X187622932Y-64420038D01*
X188137219Y-64705752D02*
X188137219Y-65372419D01*
X187880076Y-64705752D02*
X187880076Y-65229561D01*
X187880076Y-65229561D02*
X187908647Y-65324800D01*
X187908647Y-65324800D02*
X187965790Y-65372419D01*
X187965790Y-65372419D02*
X188051504Y-65372419D01*
X188051504Y-65372419D02*
X188108647Y-65324800D01*
X188108647Y-65324800D02*
X188137219Y-65277180D01*
X188422933Y-64705752D02*
X188422933Y-65705752D01*
X188422933Y-64753371D02*
X188480076Y-64705752D01*
X188480076Y-64705752D02*
X188594361Y-64705752D01*
X188594361Y-64705752D02*
X188651504Y-64753371D01*
X188651504Y-64753371D02*
X188680076Y-64800990D01*
X188680076Y-64800990D02*
X188708647Y-64896228D01*
X188708647Y-64896228D02*
X188708647Y-65181942D01*
X188708647Y-65181942D02*
X188680076Y-65277180D01*
X188680076Y-65277180D02*
X188651504Y-65324800D01*
X188651504Y-65324800D02*
X188594361Y-65372419D01*
X188594361Y-65372419D02*
X188480076Y-65372419D01*
X188480076Y-65372419D02*
X188422933Y-65324800D01*
X188965790Y-64705752D02*
X188965790Y-65705752D01*
X188965790Y-64753371D02*
X189022933Y-64705752D01*
X189022933Y-64705752D02*
X189137218Y-64705752D01*
X189137218Y-64705752D02*
X189194361Y-64753371D01*
X189194361Y-64753371D02*
X189222933Y-64800990D01*
X189222933Y-64800990D02*
X189251504Y-64896228D01*
X189251504Y-64896228D02*
X189251504Y-65181942D01*
X189251504Y-65181942D02*
X189222933Y-65277180D01*
X189222933Y-65277180D02*
X189194361Y-65324800D01*
X189194361Y-65324800D02*
X189137218Y-65372419D01*
X189137218Y-65372419D02*
X189022933Y-65372419D01*
X189022933Y-65372419D02*
X188965790Y-65324800D01*
X189594361Y-65372419D02*
X189537218Y-65324800D01*
X189537218Y-65324800D02*
X189508647Y-65229561D01*
X189508647Y-65229561D02*
X189508647Y-64372419D01*
X189765790Y-64705752D02*
X189908647Y-65372419D01*
X190051504Y-64705752D02*
X189908647Y-65372419D01*
X189908647Y-65372419D02*
X189851504Y-65610514D01*
X189851504Y-65610514D02*
X189822933Y-65658133D01*
X189822933Y-65658133D02*
X189765790Y-65705752D01*
X152701503Y-28072419D02*
X152130075Y-28072419D01*
X152415789Y-28072419D02*
X152415789Y-27072419D01*
X152415789Y-27072419D02*
X152320551Y-27215276D01*
X152320551Y-27215276D02*
X152225313Y-27310514D01*
X152225313Y-27310514D02*
X152130075Y-27358133D01*
X166708646Y-66647942D02*
X166708646Y-65447942D01*
X166708646Y-65447942D02*
X166937217Y-65447942D01*
X166937217Y-65447942D02*
X166994360Y-65505085D01*
X166994360Y-65505085D02*
X167022931Y-65562228D01*
X167022931Y-65562228D02*
X167051503Y-65676514D01*
X167051503Y-65676514D02*
X167051503Y-65847942D01*
X167051503Y-65847942D02*
X167022931Y-65962228D01*
X167022931Y-65962228D02*
X166994360Y-66019371D01*
X166994360Y-66019371D02*
X166937217Y-66076514D01*
X166937217Y-66076514D02*
X166708646Y-66076514D01*
X167251503Y-65447942D02*
X167394360Y-66647942D01*
X167394360Y-66647942D02*
X167508646Y-65790800D01*
X167508646Y-65790800D02*
X167622931Y-66647942D01*
X167622931Y-66647942D02*
X167765789Y-65447942D01*
X167994360Y-66647942D02*
X167994360Y-65447942D01*
X167994360Y-65447942D02*
X168194360Y-66305085D01*
X168194360Y-66305085D02*
X168394360Y-65447942D01*
X168394360Y-65447942D02*
X168394360Y-66647942D01*
X169137217Y-66647942D02*
X169137217Y-65447942D01*
X169137217Y-65447942D02*
X169337217Y-66305085D01*
X169337217Y-66305085D02*
X169537217Y-65447942D01*
X169537217Y-65447942D02*
X169537217Y-66647942D01*
X169908645Y-66647942D02*
X169851502Y-66590800D01*
X169851502Y-66590800D02*
X169822931Y-66533657D01*
X169822931Y-66533657D02*
X169794359Y-66419371D01*
X169794359Y-66419371D02*
X169794359Y-66076514D01*
X169794359Y-66076514D02*
X169822931Y-65962228D01*
X169822931Y-65962228D02*
X169851502Y-65905085D01*
X169851502Y-65905085D02*
X169908645Y-65847942D01*
X169908645Y-65847942D02*
X169994359Y-65847942D01*
X169994359Y-65847942D02*
X170051502Y-65905085D01*
X170051502Y-65905085D02*
X170080074Y-65962228D01*
X170080074Y-65962228D02*
X170108645Y-66076514D01*
X170108645Y-66076514D02*
X170108645Y-66419371D01*
X170108645Y-66419371D02*
X170080074Y-66533657D01*
X170080074Y-66533657D02*
X170051502Y-66590800D01*
X170051502Y-66590800D02*
X169994359Y-66647942D01*
X169994359Y-66647942D02*
X169908645Y-66647942D01*
X170622931Y-66647942D02*
X170622931Y-65447942D01*
X170622931Y-66590800D02*
X170565788Y-66647942D01*
X170565788Y-66647942D02*
X170451502Y-66647942D01*
X170451502Y-66647942D02*
X170394359Y-66590800D01*
X170394359Y-66590800D02*
X170365788Y-66533657D01*
X170365788Y-66533657D02*
X170337216Y-66419371D01*
X170337216Y-66419371D02*
X170337216Y-66076514D01*
X170337216Y-66076514D02*
X170365788Y-65962228D01*
X170365788Y-65962228D02*
X170394359Y-65905085D01*
X170394359Y-65905085D02*
X170451502Y-65847942D01*
X170451502Y-65847942D02*
X170565788Y-65847942D01*
X170565788Y-65847942D02*
X170622931Y-65905085D01*
X171165788Y-65847942D02*
X171165788Y-66647942D01*
X170908645Y-65847942D02*
X170908645Y-66476514D01*
X170908645Y-66476514D02*
X170937216Y-66590800D01*
X170937216Y-66590800D02*
X170994359Y-66647942D01*
X170994359Y-66647942D02*
X171080073Y-66647942D01*
X171080073Y-66647942D02*
X171137216Y-66590800D01*
X171137216Y-66590800D02*
X171165788Y-66533657D01*
X171537216Y-66647942D02*
X171480073Y-66590800D01*
X171480073Y-66590800D02*
X171451502Y-66476514D01*
X171451502Y-66476514D02*
X171451502Y-65447942D01*
X171994359Y-66590800D02*
X171937216Y-66647942D01*
X171937216Y-66647942D02*
X171822931Y-66647942D01*
X171822931Y-66647942D02*
X171765788Y-66590800D01*
X171765788Y-66590800D02*
X171737216Y-66476514D01*
X171737216Y-66476514D02*
X171737216Y-66019371D01*
X171737216Y-66019371D02*
X171765788Y-65905085D01*
X171765788Y-65905085D02*
X171822931Y-65847942D01*
X171822931Y-65847942D02*
X171937216Y-65847942D01*
X171937216Y-65847942D02*
X171994359Y-65905085D01*
X171994359Y-65905085D02*
X172022931Y-66019371D01*
X172022931Y-66019371D02*
X172022931Y-66133657D01*
X172022931Y-66133657D02*
X171737216Y-66247942D01*
X172651502Y-65447942D02*
X172851502Y-66647942D01*
X172851502Y-66647942D02*
X173051502Y-65447942D01*
X173194360Y-65447942D02*
X173565788Y-65447942D01*
X173565788Y-65447942D02*
X173365788Y-65905085D01*
X173365788Y-65905085D02*
X173451503Y-65905085D01*
X173451503Y-65905085D02*
X173508646Y-65962228D01*
X173508646Y-65962228D02*
X173537217Y-66019371D01*
X173537217Y-66019371D02*
X173565788Y-66133657D01*
X173565788Y-66133657D02*
X173565788Y-66419371D01*
X173565788Y-66419371D02*
X173537217Y-66533657D01*
X173537217Y-66533657D02*
X173508646Y-66590800D01*
X173508646Y-66590800D02*
X173451503Y-66647942D01*
X173451503Y-66647942D02*
X173280074Y-66647942D01*
X173280074Y-66647942D02*
X173222931Y-66590800D01*
X173222931Y-66590800D02*
X173194360Y-66533657D01*
X173822932Y-66533657D02*
X173851503Y-66590800D01*
X173851503Y-66590800D02*
X173822932Y-66647942D01*
X173822932Y-66647942D02*
X173794360Y-66590800D01*
X173794360Y-66590800D02*
X173822932Y-66533657D01*
X173822932Y-66533657D02*
X173822932Y-66647942D01*
X174222931Y-65447942D02*
X174280074Y-65447942D01*
X174280074Y-65447942D02*
X174337217Y-65505085D01*
X174337217Y-65505085D02*
X174365789Y-65562228D01*
X174365789Y-65562228D02*
X174394360Y-65676514D01*
X174394360Y-65676514D02*
X174422931Y-65905085D01*
X174422931Y-65905085D02*
X174422931Y-66190800D01*
X174422931Y-66190800D02*
X174394360Y-66419371D01*
X174394360Y-66419371D02*
X174365789Y-66533657D01*
X174365789Y-66533657D02*
X174337217Y-66590800D01*
X174337217Y-66590800D02*
X174280074Y-66647942D01*
X174280074Y-66647942D02*
X174222931Y-66647942D01*
X174222931Y-66647942D02*
X174165789Y-66590800D01*
X174165789Y-66590800D02*
X174137217Y-66533657D01*
X174137217Y-66533657D02*
X174108646Y-66419371D01*
X174108646Y-66419371D02*
X174080074Y-66190800D01*
X174080074Y-66190800D02*
X174080074Y-65905085D01*
X174080074Y-65905085D02*
X174108646Y-65676514D01*
X174108646Y-65676514D02*
X174137217Y-65562228D01*
X174137217Y-65562228D02*
X174165789Y-65505085D01*
X174165789Y-65505085D02*
X174222931Y-65447942D01*
X174651503Y-66305085D02*
X174937218Y-66305085D01*
X174594360Y-66647942D02*
X174794360Y-65447942D01*
X174794360Y-65447942D02*
X174994360Y-66647942D01*
X175794361Y-67047942D02*
X175794361Y-65333657D01*
X176851504Y-65447942D02*
X176851504Y-66305085D01*
X176851504Y-66305085D02*
X176822933Y-66476514D01*
X176822933Y-66476514D02*
X176765790Y-66590800D01*
X176765790Y-66590800D02*
X176680076Y-66647942D01*
X176680076Y-66647942D02*
X176622933Y-66647942D01*
X177137219Y-66533657D02*
X177165790Y-66590800D01*
X177165790Y-66590800D02*
X177137219Y-66647942D01*
X177137219Y-66647942D02*
X177108647Y-66590800D01*
X177108647Y-66590800D02*
X177137219Y-66533657D01*
X177137219Y-66533657D02*
X177137219Y-66647942D01*
X177365790Y-65447942D02*
X177508647Y-66647942D01*
X177508647Y-66647942D02*
X177622933Y-65790800D01*
X177622933Y-65790800D02*
X177737218Y-66647942D01*
X177737218Y-66647942D02*
X177880076Y-65447942D01*
X178108647Y-66533657D02*
X178137218Y-66590800D01*
X178137218Y-66590800D02*
X178108647Y-66647942D01*
X178108647Y-66647942D02*
X178080075Y-66590800D01*
X178080075Y-66590800D02*
X178108647Y-66533657D01*
X178108647Y-66533657D02*
X178108647Y-66647942D01*
X178822932Y-66305085D02*
X179108647Y-66305085D01*
X178765789Y-66647942D02*
X178965789Y-65447942D01*
X178965789Y-65447942D02*
X179165789Y-66647942D01*
X179365790Y-65847942D02*
X179365790Y-67047942D01*
X179365790Y-65905085D02*
X179422933Y-65847942D01*
X179422933Y-65847942D02*
X179537218Y-65847942D01*
X179537218Y-65847942D02*
X179594361Y-65905085D01*
X179594361Y-65905085D02*
X179622933Y-65962228D01*
X179622933Y-65962228D02*
X179651504Y-66076514D01*
X179651504Y-66076514D02*
X179651504Y-66419371D01*
X179651504Y-66419371D02*
X179622933Y-66533657D01*
X179622933Y-66533657D02*
X179594361Y-66590800D01*
X179594361Y-66590800D02*
X179537218Y-66647942D01*
X179537218Y-66647942D02*
X179422933Y-66647942D01*
X179422933Y-66647942D02*
X179365790Y-66590800D01*
X179908647Y-66647942D02*
X179908647Y-65847942D01*
X179908647Y-66076514D02*
X179937218Y-65962228D01*
X179937218Y-65962228D02*
X179965790Y-65905085D01*
X179965790Y-65905085D02*
X180022932Y-65847942D01*
X180022932Y-65847942D02*
X180080075Y-65847942D01*
X180765790Y-65447942D02*
X180708647Y-65676514D01*
X180994361Y-65562228D02*
X181022933Y-65505085D01*
X181022933Y-65505085D02*
X181080076Y-65447942D01*
X181080076Y-65447942D02*
X181222933Y-65447942D01*
X181222933Y-65447942D02*
X181280076Y-65505085D01*
X181280076Y-65505085D02*
X181308647Y-65562228D01*
X181308647Y-65562228D02*
X181337218Y-65676514D01*
X181337218Y-65676514D02*
X181337218Y-65790800D01*
X181337218Y-65790800D02*
X181308647Y-65962228D01*
X181308647Y-65962228D02*
X180965790Y-66647942D01*
X180965790Y-66647942D02*
X181337218Y-66647942D01*
X181880076Y-65447942D02*
X181594362Y-65447942D01*
X181594362Y-65447942D02*
X181565790Y-66019371D01*
X181565790Y-66019371D02*
X181594362Y-65962228D01*
X181594362Y-65962228D02*
X181651505Y-65905085D01*
X181651505Y-65905085D02*
X181794362Y-65905085D01*
X181794362Y-65905085D02*
X181851505Y-65962228D01*
X181851505Y-65962228D02*
X181880076Y-66019371D01*
X181880076Y-66019371D02*
X181908647Y-66133657D01*
X181908647Y-66133657D02*
X181908647Y-66419371D01*
X181908647Y-66419371D02*
X181880076Y-66533657D01*
X181880076Y-66533657D02*
X181851505Y-66590800D01*
X181851505Y-66590800D02*
X181794362Y-66647942D01*
X181794362Y-66647942D02*
X181651505Y-66647942D01*
X181651505Y-66647942D02*
X181594362Y-66590800D01*
X181594362Y-66590800D02*
X181565790Y-66533657D01*
X200046264Y-27073085D02*
X200084360Y-27034990D01*
X200084360Y-27034990D02*
X200160550Y-26996895D01*
X200160550Y-26996895D02*
X200351026Y-26996895D01*
X200351026Y-26996895D02*
X200427217Y-27034990D01*
X200427217Y-27034990D02*
X200465312Y-27073085D01*
X200465312Y-27073085D02*
X200503407Y-27149276D01*
X200503407Y-27149276D02*
X200503407Y-27225466D01*
X200503407Y-27225466D02*
X200465312Y-27339752D01*
X200465312Y-27339752D02*
X200008169Y-27796895D01*
X200008169Y-27796895D02*
X200503407Y-27796895D01*
X200998646Y-26996895D02*
X201074836Y-26996895D01*
X201074836Y-26996895D02*
X201151027Y-27034990D01*
X201151027Y-27034990D02*
X201189122Y-27073085D01*
X201189122Y-27073085D02*
X201227217Y-27149276D01*
X201227217Y-27149276D02*
X201265312Y-27301657D01*
X201265312Y-27301657D02*
X201265312Y-27492133D01*
X201265312Y-27492133D02*
X201227217Y-27644514D01*
X201227217Y-27644514D02*
X201189122Y-27720704D01*
X201189122Y-27720704D02*
X201151027Y-27758800D01*
X201151027Y-27758800D02*
X201074836Y-27796895D01*
X201074836Y-27796895D02*
X200998646Y-27796895D01*
X200998646Y-27796895D02*
X200922455Y-27758800D01*
X200922455Y-27758800D02*
X200884360Y-27720704D01*
X200884360Y-27720704D02*
X200846265Y-27644514D01*
X200846265Y-27644514D02*
X200808169Y-27492133D01*
X200808169Y-27492133D02*
X200808169Y-27301657D01*
X200808169Y-27301657D02*
X200846265Y-27149276D01*
X200846265Y-27149276D02*
X200884360Y-27073085D01*
X200884360Y-27073085D02*
X200922455Y-27034990D01*
X200922455Y-27034990D02*
X200998646Y-26996895D01*
D11*
X153166666Y-27954819D02*
X153166666Y-28669104D01*
X153166666Y-28669104D02*
X153119047Y-28811961D01*
X153119047Y-28811961D02*
X153023809Y-28907200D01*
X153023809Y-28907200D02*
X152880952Y-28954819D01*
X152880952Y-28954819D02*
X152785714Y-28954819D01*
X154166666Y-28954819D02*
X153595238Y-28954819D01*
X153880952Y-28954819D02*
X153880952Y-27954819D01*
X153880952Y-27954819D02*
X153785714Y-28097676D01*
X153785714Y-28097676D02*
X153690476Y-28192914D01*
X153690476Y-28192914D02*
X153595238Y-28240533D01*
X163014819Y-59833333D02*
X163729104Y-59833333D01*
X163729104Y-59833333D02*
X163871961Y-59880952D01*
X163871961Y-59880952D02*
X163967200Y-59976190D01*
X163967200Y-59976190D02*
X164014819Y-60119047D01*
X164014819Y-60119047D02*
X164014819Y-60214285D01*
X163014819Y-59452380D02*
X163014819Y-58833333D01*
X163014819Y-58833333D02*
X163395771Y-59166666D01*
X163395771Y-59166666D02*
X163395771Y-59023809D01*
X163395771Y-59023809D02*
X163443390Y-58928571D01*
X163443390Y-58928571D02*
X163491009Y-58880952D01*
X163491009Y-58880952D02*
X163586247Y-58833333D01*
X163586247Y-58833333D02*
X163824342Y-58833333D01*
X163824342Y-58833333D02*
X163919580Y-58880952D01*
X163919580Y-58880952D02*
X163967200Y-58928571D01*
X163967200Y-58928571D02*
X164014819Y-59023809D01*
X164014819Y-59023809D02*
X164014819Y-59309523D01*
X164014819Y-59309523D02*
X163967200Y-59404761D01*
X163967200Y-59404761D02*
X163919580Y-59452380D01*
X186267319Y-43800594D02*
X185267319Y-43800594D01*
X186267319Y-43229166D02*
X185695890Y-43657737D01*
X185267319Y-43229166D02*
X185838747Y-43800594D01*
X185362557Y-42848213D02*
X185314938Y-42800594D01*
X185314938Y-42800594D02*
X185267319Y-42705356D01*
X185267319Y-42705356D02*
X185267319Y-42467261D01*
X185267319Y-42467261D02*
X185314938Y-42372023D01*
X185314938Y-42372023D02*
X185362557Y-42324404D01*
X185362557Y-42324404D02*
X185457795Y-42276785D01*
X185457795Y-42276785D02*
X185553033Y-42276785D01*
X185553033Y-42276785D02*
X185695890Y-42324404D01*
X185695890Y-42324404D02*
X186267319Y-42895832D01*
X186267319Y-42895832D02*
X186267319Y-42276785D01*
X149564819Y-68913333D02*
X150279104Y-68913333D01*
X150279104Y-68913333D02*
X150421961Y-68960952D01*
X150421961Y-68960952D02*
X150517200Y-69056190D01*
X150517200Y-69056190D02*
X150564819Y-69199047D01*
X150564819Y-69199047D02*
X150564819Y-69294285D01*
X149898152Y-68008571D02*
X150564819Y-68008571D01*
X149517200Y-68246666D02*
X150231485Y-68484761D01*
X150231485Y-68484761D02*
X150231485Y-67865714D01*
X202767319Y-43800594D02*
X201767319Y-43800594D01*
X202767319Y-43229166D02*
X202195890Y-43657737D01*
X201767319Y-43229166D02*
X202338747Y-43800594D01*
X202767319Y-42276785D02*
X202767319Y-42848213D01*
X202767319Y-42562499D02*
X201767319Y-42562499D01*
X201767319Y-42562499D02*
X201910176Y-42657737D01*
X201910176Y-42657737D02*
X202005414Y-42752975D01*
X202005414Y-42752975D02*
X202053033Y-42848213D01*
X163014819Y-46333333D02*
X163729104Y-46333333D01*
X163729104Y-46333333D02*
X163871961Y-46380952D01*
X163871961Y-46380952D02*
X163967200Y-46476190D01*
X163967200Y-46476190D02*
X164014819Y-46619047D01*
X164014819Y-46619047D02*
X164014819Y-46714285D01*
X163110057Y-45904761D02*
X163062438Y-45857142D01*
X163062438Y-45857142D02*
X163014819Y-45761904D01*
X163014819Y-45761904D02*
X163014819Y-45523809D01*
X163014819Y-45523809D02*
X163062438Y-45428571D01*
X163062438Y-45428571D02*
X163110057Y-45380952D01*
X163110057Y-45380952D02*
X163205295Y-45333333D01*
X163205295Y-45333333D02*
X163300533Y-45333333D01*
X163300533Y-45333333D02*
X163443390Y-45380952D01*
X163443390Y-45380952D02*
X164014819Y-45952380D01*
X164014819Y-45952380D02*
X164014819Y-45333333D01*
D12*
%TO.C,J1*%
X151110000Y-26730000D02*
X151110000Y-25400000D01*
X152440000Y-26730000D02*
X151110000Y-26730000D01*
X153710000Y-24070000D02*
X202030000Y-24070000D01*
X153710000Y-26730000D02*
X153710000Y-24070000D01*
X153710000Y-26730000D02*
X202030000Y-26730000D01*
X202030000Y-26730000D02*
X202030000Y-24070000D01*
%TO.C,J3*%
X153200000Y-54200000D02*
X153200000Y-54600000D01*
X153440000Y-54440000D02*
X153440000Y-64560000D01*
X153840000Y-54200000D02*
X153200000Y-54200000D01*
X153900000Y-54440000D02*
X153900000Y-64560000D01*
X155000000Y-54440000D02*
X155000000Y-64560000D01*
X156953000Y-55718000D02*
X156846000Y-55612000D01*
X157219000Y-55452000D02*
X157112000Y-55346000D01*
X157226000Y-60993000D02*
X156846000Y-60613000D01*
X157508000Y-60742000D02*
X157112000Y-60347000D01*
X159888000Y-58654000D02*
X159781000Y-58547000D01*
X159888000Y-63654000D02*
X159492000Y-63259000D01*
X160154000Y-58388000D02*
X160047000Y-58281000D01*
X160154000Y-63388000D02*
X159774000Y-63008000D01*
X162560000Y-54440000D02*
X153440000Y-54440000D01*
X162560000Y-54440000D02*
X162560000Y-64560000D01*
X162560000Y-64560000D02*
X153440000Y-64560000D01*
X160680000Y-57000000D02*
G75*
G02*
X156320000Y-57000000I-2180000J0D01*
G01*
X156320000Y-57000000D02*
G75*
G02*
X160680000Y-57000000I2180000J0D01*
G01*
X160680000Y-62000000D02*
G75*
G02*
X156320000Y-62000000I-2180000J0D01*
G01*
X156320000Y-62000000D02*
G75*
G02*
X160680000Y-62000000I2180000J0D01*
G01*
%TO.C,K2*%
X171472500Y-28322500D02*
X173662500Y-28322500D01*
X171472500Y-30662500D02*
X171472500Y-28322500D01*
X171712500Y-28562500D02*
X171712500Y-57562500D01*
X171712500Y-57562500D02*
X184412500Y-57562500D01*
X177712500Y-30362500D02*
X177712500Y-31562500D01*
X177712500Y-31162500D02*
X178412500Y-30762500D01*
X177712500Y-31562500D02*
X178412500Y-31562500D01*
X178412500Y-30362500D02*
X177712500Y-30362500D01*
X178412500Y-31562500D02*
X178412500Y-30362500D01*
X184412500Y-28562500D02*
X171712500Y-28562500D01*
X184412500Y-57562500D02*
X184412500Y-28562500D01*
%TO.C,J4*%
X151110000Y-69910000D02*
X151110000Y-68580000D01*
X152440000Y-69910000D02*
X151110000Y-69910000D01*
X153710000Y-67250000D02*
X202030000Y-67250000D01*
X153710000Y-69910000D02*
X153710000Y-67250000D01*
X153710000Y-69910000D02*
X202030000Y-69910000D01*
X202030000Y-69910000D02*
X202030000Y-67250000D01*
%TO.C,K1*%
X187972500Y-28322500D02*
X190162500Y-28322500D01*
X187972500Y-30662500D02*
X187972500Y-28322500D01*
X188212500Y-28562500D02*
X188212500Y-57562500D01*
X188212500Y-57562500D02*
X200912500Y-57562500D01*
X194212500Y-30362500D02*
X194212500Y-31562500D01*
X194212500Y-31162500D02*
X194912500Y-30762500D01*
X194212500Y-31562500D02*
X194912500Y-31562500D01*
X194912500Y-30362500D02*
X194212500Y-30362500D01*
X194912500Y-31562500D02*
X194912500Y-30362500D01*
X200912500Y-28562500D02*
X188212500Y-28562500D01*
X200912500Y-57562500D02*
X200912500Y-28562500D01*
%TO.C,J2*%
X153200000Y-40700000D02*
X153200000Y-41100000D01*
X153440000Y-40940000D02*
X153440000Y-51060000D01*
X153840000Y-40700000D02*
X153200000Y-40700000D01*
X153900000Y-40940000D02*
X153900000Y-51060000D01*
X155000000Y-40940000D02*
X155000000Y-51060000D01*
X156953000Y-42218000D02*
X156846000Y-42112000D01*
X157219000Y-41952000D02*
X157112000Y-41846000D01*
X157226000Y-47493000D02*
X156846000Y-47113000D01*
X157508000Y-47242000D02*
X157112000Y-46847000D01*
X159888000Y-45154000D02*
X159781000Y-45047000D01*
X159888000Y-50154000D02*
X159492000Y-49759000D01*
X160154000Y-44888000D02*
X160047000Y-44781000D01*
X160154000Y-49888000D02*
X159774000Y-49508000D01*
X162560000Y-40940000D02*
X153440000Y-40940000D01*
X162560000Y-40940000D02*
X162560000Y-51060000D01*
X162560000Y-51060000D02*
X153440000Y-51060000D01*
X160680000Y-43500000D02*
G75*
G02*
X156320000Y-43500000I-2180000J0D01*
G01*
X156320000Y-43500000D02*
G75*
G02*
X160680000Y-43500000I2180000J0D01*
G01*
X160680000Y-48500000D02*
G75*
G02*
X156320000Y-48500000I-2180000J0D01*
G01*
X156320000Y-48500000D02*
G75*
G02*
X160680000Y-48500000I2180000J0D01*
G01*
%TD*%
M02*
