M48
; DRILL file {KiCad 8.0.7} date 2025-01-28T21:08:14-0500
; FORMAT={-:-/ absolute / inch / decimal}
; #@! TF.CreationDate,2025-01-28T21:08:14-05:00
; #@! TF.GenerationSoftware,Kicad,Pcbnew,8.0.7
; #@! TF.FileFunction,Plated,1,2,PTH
FMAT,2
INCH
; #@! TA.AperFunction,Plated,PTH,ViaDrill
T1C0.0197
; #@! TA.AperFunction,Plated,PTH,ComponentDrill
T2C0.0402
; #@! TA.AperFunction,Plated,PTH,ComponentDrill
T3C0.0512
; #@! TA.AperFunction,Plated,PTH,ComponentDrill
T4C0.0630
; #@! TA.AperFunction,Plated,PTH,ComponentDrill
T5C0.0630
%
G90
G05
T1
X3.5709Y-1.4644
T2
X3.0Y-1.0
X3.0Y-1.9
X3.1Y-1.0
X3.1Y-1.9
X3.2Y-1.0
X3.2Y-1.9
X3.3Y-1.0
X3.3Y-1.9
X3.4Y-1.0
X3.4Y-1.9
X3.5Y-1.0
X3.5Y-1.9
X3.6Y-1.0
X3.6Y-1.9
X3.7Y-1.0
X3.7Y-1.9
X3.8Y-1.0
X3.8Y-1.9
X3.9Y-1.0
X3.9Y-1.9
T3
X3.1504Y-1.4687
X3.1504Y-1.6656
X3.7504Y-1.4687
X3.7504Y-1.6656
T4
X3.0677Y-1.2754
X3.398Y-1.703
T5
X3.3684Y-1.134
X3.3684Y-1.268
X3.7584Y-1.134
X3.7584Y-1.268
M30
