%TF.GenerationSoftware,KiCad,Pcbnew,8.0.7*%
%TF.CreationDate,2025-01-28T21:08:18-05:00*%
%TF.ProjectId,Circuit Power Module,43697263-7569-4742-9050-6f776572204d,rev?*%
%TF.SameCoordinates,Original*%
%TF.FileFunction,Copper,L2,Bot*%
%TF.FilePolarity,Positive*%
%FSLAX46Y46*%
G04 Gerber Fmt 4.6, Leading zero omitted, Abs format (unit mm)*
G04 Created by KiCad (PCBNEW 8.0.7) date 2025-01-28 21:08:18*
%MOMM*%
%LPD*%
G01*
G04 APERTURE LIST*
%TA.AperFunction,ComponentPad*%
%ADD10C,1.750000*%
%TD*%
%TA.AperFunction,ComponentPad*%
%ADD11C,2.400000*%
%TD*%
%TA.AperFunction,ComponentPad*%
%ADD12C,1.950000*%
%TD*%
%TA.AperFunction,ComponentPad*%
%ADD13R,2.108200X2.108200*%
%TD*%
%TA.AperFunction,ComponentPad*%
%ADD14C,2.108200*%
%TD*%
%TA.AperFunction,ViaPad*%
%ADD15C,1.000000*%
%TD*%
G04 APERTURE END LIST*
D10*
%TO.P,REF\u002A\u002A,1*%
%TO.N,N/C*%
X76200000Y-48260000D03*
%TO.P,REF\u002A\u002A,2*%
X78740000Y-48260000D03*
%TO.P,REF\u002A\u002A,3*%
X81280000Y-48260000D03*
%TO.P,REF\u002A\u002A,4*%
X83820000Y-48260000D03*
%TO.P,REF\u002A\u002A,5*%
X86360000Y-48260000D03*
%TO.P,REF\u002A\u002A,6*%
X88900000Y-48260000D03*
%TO.P,REF\u002A\u002A,7*%
X91440000Y-48260000D03*
%TO.P,REF\u002A\u002A,8*%
X93980000Y-48260000D03*
%TO.P,REF\u002A\u002A,9*%
X96520000Y-48260000D03*
%TO.P,REF\u002A\u002A,10*%
X99060000Y-48260000D03*
%TD*%
%TO.P,REF\u002A\u002A,1*%
%TO.N,N/C*%
X76200000Y-25400000D03*
%TO.P,REF\u002A\u002A,2*%
X78740000Y-25400000D03*
%TO.P,REF\u002A\u002A,3*%
X81280000Y-25400000D03*
%TO.P,REF\u002A\u002A,4*%
X83820000Y-25400000D03*
%TO.P,REF\u002A\u002A,5*%
X86360000Y-25400000D03*
%TO.P,REF\u002A\u002A,6*%
X88900000Y-25400000D03*
%TO.P,REF\u002A\u002A,7*%
X91440000Y-25400000D03*
%TO.P,REF\u002A\u002A,8*%
X93980000Y-25400000D03*
%TO.P,REF\u002A\u002A,9*%
X96520000Y-25400000D03*
%TO.P,REF\u002A\u002A,10*%
X99060000Y-25400000D03*
%TD*%
D11*
%TO.P,TP1,TP*%
%TO.N,Net-(C2-Pad2)*%
X77920000Y-32395850D03*
%TD*%
D12*
%TO.P,J2,1*%
%TO.N,Net-(F1-Pad3)*%
X95260000Y-37305850D03*
%TO.P,J2,2*%
%TO.N,Net-(C2-Pad1)*%
X95260000Y-42305850D03*
%TD*%
%TO.P,J1,1*%
%TO.N,Net-(C2-Pad1)*%
X80020000Y-42305850D03*
%TO.P,J1,2*%
%TO.N,Net-(C2-Pad2)*%
X80020000Y-37305850D03*
%TD*%
D13*
%TO.P,F1,1,1*%
%TO.N,Net-(C2-Pad2)*%
X85557000Y-28804050D03*
D14*
%TO.P,F1,2,2*%
X85557000Y-32207650D03*
%TO.P,F1,3,3*%
%TO.N,Net-(F1-Pad3)*%
X95463000Y-32207650D03*
%TO.P,F1,4,4*%
X95463000Y-28804050D03*
%TD*%
D11*
%TO.P,TP2,TP*%
%TO.N,Net-(C2-Pad1)*%
X86310000Y-43255850D03*
%TD*%
D15*
%TO.N,Net-(C2-Pad1)*%
X90700000Y-37195850D03*
%TD*%
%TA.AperFunction,Conductor*%
%TO.N,Net-(C2-Pad1)*%
G36*
X91815910Y-35145590D02*
G01*
X91882905Y-35165415D01*
X91928550Y-35218314D01*
X91939648Y-35269941D01*
X91930000Y-38675849D01*
X91930000Y-38675850D01*
X98757325Y-39720145D01*
X98820617Y-39749739D01*
X98857862Y-39808854D01*
X98862539Y-39839687D01*
X98947506Y-43313894D01*
X98929466Y-43381395D01*
X98877797Y-43428427D01*
X98850442Y-43437973D01*
X91222962Y-45132969D01*
X91196722Y-45135920D01*
X83680344Y-45175848D01*
X83680000Y-45175850D01*
X75936495Y-45195528D01*
X75869406Y-45176013D01*
X75823517Y-45123326D01*
X75812199Y-45069374D01*
X75888436Y-40685722D01*
X75909283Y-40619039D01*
X75962875Y-40574209D01*
X75975889Y-40569384D01*
X81180000Y-38965850D01*
X82333030Y-35213616D01*
X82371537Y-35155318D01*
X82435452Y-35127092D01*
X82451807Y-35126041D01*
X91815910Y-35145590D01*
G37*
%TD.AperFunction*%
%TD*%
M02*
