%TF.GenerationSoftware,KiCad,Pcbnew,8.0.7*%
%TF.CreationDate,2025-01-28T21:08:18-05:00*%
%TF.ProjectId,Circuit Power Module,43697263-7569-4742-9050-6f776572204d,rev?*%
%TF.SameCoordinates,Original*%
%TF.FileFunction,Legend,Top*%
%TF.FilePolarity,Positive*%
%FSLAX46Y46*%
G04 Gerber Fmt 4.6, Leading zero omitted, Abs format (unit mm)*
G04 Created by KiCad (PCBNEW 8.0.7) date 2025-01-28 21:08:18*
%MOMM*%
%LPD*%
G01*
G04 APERTURE LIST*
%ADD10C,0.100000*%
%ADD11C,0.150000*%
%ADD12C,0.062500*%
%ADD13C,0.160000*%
%ADD14C,0.076200*%
%ADD15C,0.254000*%
%ADD16C,0.152400*%
%ADD17C,0.127000*%
%ADD18C,0.200000*%
%ADD19C,0.400000*%
G04 APERTURE END LIST*
D10*
X79310000Y-45220000D02*
X95700000Y-45220000D01*
X95700000Y-46800000D01*
X79310000Y-46800000D01*
X79310000Y-45220000D01*
X75911271Y-41725210D02*
X75946985Y-41653782D01*
X75946985Y-41653782D02*
X75946985Y-41546639D01*
X75946985Y-41546639D02*
X75911271Y-41439496D01*
X75911271Y-41439496D02*
X75839842Y-41368067D01*
X75839842Y-41368067D02*
X75768414Y-41332353D01*
X75768414Y-41332353D02*
X75625557Y-41296639D01*
X75625557Y-41296639D02*
X75518414Y-41296639D01*
X75518414Y-41296639D02*
X75375557Y-41332353D01*
X75375557Y-41332353D02*
X75304128Y-41368067D01*
X75304128Y-41368067D02*
X75232700Y-41439496D01*
X75232700Y-41439496D02*
X75196985Y-41546639D01*
X75196985Y-41546639D02*
X75196985Y-41618067D01*
X75196985Y-41618067D02*
X75232700Y-41725210D01*
X75232700Y-41725210D02*
X75268414Y-41760924D01*
X75268414Y-41760924D02*
X75518414Y-41760924D01*
X75518414Y-41760924D02*
X75518414Y-41618067D01*
X75196985Y-42082353D02*
X75946985Y-42082353D01*
X75946985Y-42082353D02*
X75196985Y-42510924D01*
X75196985Y-42510924D02*
X75946985Y-42510924D01*
X75196985Y-42868067D02*
X75946985Y-42868067D01*
X75946985Y-42868067D02*
X75946985Y-43046638D01*
X75946985Y-43046638D02*
X75911271Y-43153781D01*
X75911271Y-43153781D02*
X75839842Y-43225210D01*
X75839842Y-43225210D02*
X75768414Y-43260924D01*
X75768414Y-43260924D02*
X75625557Y-43296638D01*
X75625557Y-43296638D02*
X75518414Y-43296638D01*
X75518414Y-43296638D02*
X75375557Y-43260924D01*
X75375557Y-43260924D02*
X75304128Y-43225210D01*
X75304128Y-43225210D02*
X75232700Y-43153781D01*
X75232700Y-43153781D02*
X75196985Y-43046638D01*
X75196985Y-43046638D02*
X75196985Y-42868067D01*
X76781503Y-29607221D02*
X76981503Y-30207221D01*
X76981503Y-30207221D02*
X77181503Y-29607221D01*
X77581504Y-29892935D02*
X77667218Y-29921507D01*
X77667218Y-29921507D02*
X77695789Y-29950078D01*
X77695789Y-29950078D02*
X77724361Y-30007221D01*
X77724361Y-30007221D02*
X77724361Y-30092935D01*
X77724361Y-30092935D02*
X77695789Y-30150078D01*
X77695789Y-30150078D02*
X77667218Y-30178650D01*
X77667218Y-30178650D02*
X77610075Y-30207221D01*
X77610075Y-30207221D02*
X77381504Y-30207221D01*
X77381504Y-30207221D02*
X77381504Y-29607221D01*
X77381504Y-29607221D02*
X77581504Y-29607221D01*
X77581504Y-29607221D02*
X77638647Y-29635792D01*
X77638647Y-29635792D02*
X77667218Y-29664364D01*
X77667218Y-29664364D02*
X77695789Y-29721507D01*
X77695789Y-29721507D02*
X77695789Y-29778650D01*
X77695789Y-29778650D02*
X77667218Y-29835792D01*
X77667218Y-29835792D02*
X77638647Y-29864364D01*
X77638647Y-29864364D02*
X77581504Y-29892935D01*
X77581504Y-29892935D02*
X77381504Y-29892935D01*
X78238647Y-30207221D02*
X78238647Y-29892935D01*
X78238647Y-29892935D02*
X78210075Y-29835792D01*
X78210075Y-29835792D02*
X78152932Y-29807221D01*
X78152932Y-29807221D02*
X78038647Y-29807221D01*
X78038647Y-29807221D02*
X77981504Y-29835792D01*
X78238647Y-30178650D02*
X78181504Y-30207221D01*
X78181504Y-30207221D02*
X78038647Y-30207221D01*
X78038647Y-30207221D02*
X77981504Y-30178650D01*
X77981504Y-30178650D02*
X77952932Y-30121507D01*
X77952932Y-30121507D02*
X77952932Y-30064364D01*
X77952932Y-30064364D02*
X77981504Y-30007221D01*
X77981504Y-30007221D02*
X78038647Y-29978650D01*
X78038647Y-29978650D02*
X78181504Y-29978650D01*
X78181504Y-29978650D02*
X78238647Y-29950078D01*
X78438646Y-29807221D02*
X78667218Y-29807221D01*
X78524361Y-29607221D02*
X78524361Y-30121507D01*
X78524361Y-30121507D02*
X78552932Y-30178650D01*
X78552932Y-30178650D02*
X78610075Y-30207221D01*
X78610075Y-30207221D02*
X78667218Y-30207221D01*
X78781503Y-29807221D02*
X79010075Y-29807221D01*
X78867218Y-29607221D02*
X78867218Y-30121507D01*
X78867218Y-30121507D02*
X78895789Y-30178650D01*
X78895789Y-30178650D02*
X78952932Y-30207221D01*
X78952932Y-30207221D02*
X79010075Y-30207221D01*
X99353014Y-37868632D02*
X100103014Y-37618632D01*
X100103014Y-37618632D02*
X99353014Y-37368632D01*
X100067300Y-37154346D02*
X100103014Y-37082918D01*
X100103014Y-37082918D02*
X100103014Y-36940061D01*
X100103014Y-36940061D02*
X100067300Y-36868632D01*
X100067300Y-36868632D02*
X99995871Y-36832918D01*
X99995871Y-36832918D02*
X99960157Y-36832918D01*
X99960157Y-36832918D02*
X99888728Y-36868632D01*
X99888728Y-36868632D02*
X99853014Y-36940061D01*
X99853014Y-36940061D02*
X99853014Y-37047204D01*
X99853014Y-37047204D02*
X99817300Y-37118632D01*
X99817300Y-37118632D02*
X99745871Y-37154346D01*
X99745871Y-37154346D02*
X99710157Y-37154346D01*
X99710157Y-37154346D02*
X99638728Y-37118632D01*
X99638728Y-37118632D02*
X99603014Y-37047204D01*
X99603014Y-37047204D02*
X99603014Y-36940061D01*
X99603014Y-36940061D02*
X99638728Y-36868632D01*
X75946985Y-35903782D02*
X75196985Y-36153782D01*
X75196985Y-36153782D02*
X75946985Y-36403782D01*
X75589842Y-36903782D02*
X75554128Y-37010925D01*
X75554128Y-37010925D02*
X75518414Y-37046639D01*
X75518414Y-37046639D02*
X75446985Y-37082353D01*
X75446985Y-37082353D02*
X75339842Y-37082353D01*
X75339842Y-37082353D02*
X75268414Y-37046639D01*
X75268414Y-37046639D02*
X75232700Y-37010925D01*
X75232700Y-37010925D02*
X75196985Y-36939496D01*
X75196985Y-36939496D02*
X75196985Y-36653782D01*
X75196985Y-36653782D02*
X75946985Y-36653782D01*
X75946985Y-36653782D02*
X75946985Y-36903782D01*
X75946985Y-36903782D02*
X75911271Y-36975211D01*
X75911271Y-36975211D02*
X75875557Y-37010925D01*
X75875557Y-37010925D02*
X75804128Y-37046639D01*
X75804128Y-37046639D02*
X75732700Y-37046639D01*
X75732700Y-37046639D02*
X75661271Y-37010925D01*
X75661271Y-37010925D02*
X75625557Y-36975211D01*
X75625557Y-36975211D02*
X75589842Y-36903782D01*
X75589842Y-36903782D02*
X75589842Y-36653782D01*
X75196985Y-37725211D02*
X75589842Y-37725211D01*
X75589842Y-37725211D02*
X75661271Y-37689496D01*
X75661271Y-37689496D02*
X75696985Y-37618068D01*
X75696985Y-37618068D02*
X75696985Y-37475211D01*
X75696985Y-37475211D02*
X75661271Y-37403782D01*
X75232700Y-37725211D02*
X75196985Y-37653782D01*
X75196985Y-37653782D02*
X75196985Y-37475211D01*
X75196985Y-37475211D02*
X75232700Y-37403782D01*
X75232700Y-37403782D02*
X75304128Y-37368068D01*
X75304128Y-37368068D02*
X75375557Y-37368068D01*
X75375557Y-37368068D02*
X75446985Y-37403782D01*
X75446985Y-37403782D02*
X75482700Y-37475211D01*
X75482700Y-37475211D02*
X75482700Y-37653782D01*
X75482700Y-37653782D02*
X75518414Y-37725211D01*
X75696985Y-37975210D02*
X75696985Y-38260924D01*
X75946985Y-38082353D02*
X75304128Y-38082353D01*
X75304128Y-38082353D02*
X75232700Y-38118067D01*
X75232700Y-38118067D02*
X75196985Y-38189496D01*
X75196985Y-38189496D02*
X75196985Y-38260924D01*
X75696985Y-38403781D02*
X75696985Y-38689495D01*
X75946985Y-38510924D02*
X75304128Y-38510924D01*
X75304128Y-38510924D02*
X75232700Y-38546638D01*
X75232700Y-38546638D02*
X75196985Y-38618067D01*
X75196985Y-38618067D02*
X75196985Y-38689495D01*
X79870550Y-46377180D02*
X79846741Y-46424800D01*
X79846741Y-46424800D02*
X79775312Y-46472419D01*
X79775312Y-46472419D02*
X79727693Y-46472419D01*
X79727693Y-46472419D02*
X79656265Y-46424800D01*
X79656265Y-46424800D02*
X79608646Y-46329561D01*
X79608646Y-46329561D02*
X79584836Y-46234323D01*
X79584836Y-46234323D02*
X79561027Y-46043847D01*
X79561027Y-46043847D02*
X79561027Y-45900990D01*
X79561027Y-45900990D02*
X79584836Y-45710514D01*
X79584836Y-45710514D02*
X79608646Y-45615276D01*
X79608646Y-45615276D02*
X79656265Y-45520038D01*
X79656265Y-45520038D02*
X79727693Y-45472419D01*
X79727693Y-45472419D02*
X79775312Y-45472419D01*
X79775312Y-45472419D02*
X79846741Y-45520038D01*
X79846741Y-45520038D02*
X79870550Y-45567657D01*
X80084836Y-46472419D02*
X80084836Y-45805752D01*
X80084836Y-45472419D02*
X80061027Y-45520038D01*
X80061027Y-45520038D02*
X80084836Y-45567657D01*
X80084836Y-45567657D02*
X80108646Y-45520038D01*
X80108646Y-45520038D02*
X80084836Y-45472419D01*
X80084836Y-45472419D02*
X80084836Y-45567657D01*
X80322931Y-46472419D02*
X80322931Y-45805752D01*
X80322931Y-45996228D02*
X80346741Y-45900990D01*
X80346741Y-45900990D02*
X80370550Y-45853371D01*
X80370550Y-45853371D02*
X80418169Y-45805752D01*
X80418169Y-45805752D02*
X80465788Y-45805752D01*
X80846741Y-46424800D02*
X80799122Y-46472419D01*
X80799122Y-46472419D02*
X80703884Y-46472419D01*
X80703884Y-46472419D02*
X80656265Y-46424800D01*
X80656265Y-46424800D02*
X80632455Y-46377180D01*
X80632455Y-46377180D02*
X80608646Y-46281942D01*
X80608646Y-46281942D02*
X80608646Y-45996228D01*
X80608646Y-45996228D02*
X80632455Y-45900990D01*
X80632455Y-45900990D02*
X80656265Y-45853371D01*
X80656265Y-45853371D02*
X80703884Y-45805752D01*
X80703884Y-45805752D02*
X80799122Y-45805752D01*
X80799122Y-45805752D02*
X80846741Y-45853371D01*
X81275312Y-45805752D02*
X81275312Y-46472419D01*
X81061026Y-45805752D02*
X81061026Y-46329561D01*
X81061026Y-46329561D02*
X81084836Y-46424800D01*
X81084836Y-46424800D02*
X81132455Y-46472419D01*
X81132455Y-46472419D02*
X81203883Y-46472419D01*
X81203883Y-46472419D02*
X81251502Y-46424800D01*
X81251502Y-46424800D02*
X81275312Y-46377180D01*
X81513407Y-46472419D02*
X81513407Y-45805752D01*
X81513407Y-45472419D02*
X81489598Y-45520038D01*
X81489598Y-45520038D02*
X81513407Y-45567657D01*
X81513407Y-45567657D02*
X81537217Y-45520038D01*
X81537217Y-45520038D02*
X81513407Y-45472419D01*
X81513407Y-45472419D02*
X81513407Y-45567657D01*
X81680074Y-45805752D02*
X81870550Y-45805752D01*
X81751502Y-45472419D02*
X81751502Y-46329561D01*
X81751502Y-46329561D02*
X81775312Y-46424800D01*
X81775312Y-46424800D02*
X81822931Y-46472419D01*
X81822931Y-46472419D02*
X81870550Y-46472419D01*
X82418168Y-46472419D02*
X82418168Y-45472419D01*
X82418168Y-45472419D02*
X82608644Y-45472419D01*
X82608644Y-45472419D02*
X82656263Y-45520038D01*
X82656263Y-45520038D02*
X82680073Y-45567657D01*
X82680073Y-45567657D02*
X82703882Y-45662895D01*
X82703882Y-45662895D02*
X82703882Y-45805752D01*
X82703882Y-45805752D02*
X82680073Y-45900990D01*
X82680073Y-45900990D02*
X82656263Y-45948609D01*
X82656263Y-45948609D02*
X82608644Y-45996228D01*
X82608644Y-45996228D02*
X82418168Y-45996228D01*
X82989597Y-46472419D02*
X82941978Y-46424800D01*
X82941978Y-46424800D02*
X82918168Y-46377180D01*
X82918168Y-46377180D02*
X82894359Y-46281942D01*
X82894359Y-46281942D02*
X82894359Y-45996228D01*
X82894359Y-45996228D02*
X82918168Y-45900990D01*
X82918168Y-45900990D02*
X82941978Y-45853371D01*
X82941978Y-45853371D02*
X82989597Y-45805752D01*
X82989597Y-45805752D02*
X83061025Y-45805752D01*
X83061025Y-45805752D02*
X83108644Y-45853371D01*
X83108644Y-45853371D02*
X83132454Y-45900990D01*
X83132454Y-45900990D02*
X83156263Y-45996228D01*
X83156263Y-45996228D02*
X83156263Y-46281942D01*
X83156263Y-46281942D02*
X83132454Y-46377180D01*
X83132454Y-46377180D02*
X83108644Y-46424800D01*
X83108644Y-46424800D02*
X83061025Y-46472419D01*
X83061025Y-46472419D02*
X82989597Y-46472419D01*
X83322930Y-45805752D02*
X83418168Y-46472419D01*
X83418168Y-46472419D02*
X83513406Y-45996228D01*
X83513406Y-45996228D02*
X83608644Y-46472419D01*
X83608644Y-46472419D02*
X83703882Y-45805752D01*
X84084835Y-46424800D02*
X84037216Y-46472419D01*
X84037216Y-46472419D02*
X83941978Y-46472419D01*
X83941978Y-46472419D02*
X83894359Y-46424800D01*
X83894359Y-46424800D02*
X83870550Y-46329561D01*
X83870550Y-46329561D02*
X83870550Y-45948609D01*
X83870550Y-45948609D02*
X83894359Y-45853371D01*
X83894359Y-45853371D02*
X83941978Y-45805752D01*
X83941978Y-45805752D02*
X84037216Y-45805752D01*
X84037216Y-45805752D02*
X84084835Y-45853371D01*
X84084835Y-45853371D02*
X84108645Y-45948609D01*
X84108645Y-45948609D02*
X84108645Y-46043847D01*
X84108645Y-46043847D02*
X83870550Y-46139085D01*
X84322930Y-46472419D02*
X84322930Y-45805752D01*
X84322930Y-45996228D02*
X84346740Y-45900990D01*
X84346740Y-45900990D02*
X84370549Y-45853371D01*
X84370549Y-45853371D02*
X84418168Y-45805752D01*
X84418168Y-45805752D02*
X84465787Y-45805752D01*
X85013406Y-46472419D02*
X85013406Y-45472419D01*
X85013406Y-45472419D02*
X85180073Y-46186704D01*
X85180073Y-46186704D02*
X85346739Y-45472419D01*
X85346739Y-45472419D02*
X85346739Y-46472419D01*
X85656264Y-46472419D02*
X85608645Y-46424800D01*
X85608645Y-46424800D02*
X85584835Y-46377180D01*
X85584835Y-46377180D02*
X85561026Y-46281942D01*
X85561026Y-46281942D02*
X85561026Y-45996228D01*
X85561026Y-45996228D02*
X85584835Y-45900990D01*
X85584835Y-45900990D02*
X85608645Y-45853371D01*
X85608645Y-45853371D02*
X85656264Y-45805752D01*
X85656264Y-45805752D02*
X85727692Y-45805752D01*
X85727692Y-45805752D02*
X85775311Y-45853371D01*
X85775311Y-45853371D02*
X85799121Y-45900990D01*
X85799121Y-45900990D02*
X85822930Y-45996228D01*
X85822930Y-45996228D02*
X85822930Y-46281942D01*
X85822930Y-46281942D02*
X85799121Y-46377180D01*
X85799121Y-46377180D02*
X85775311Y-46424800D01*
X85775311Y-46424800D02*
X85727692Y-46472419D01*
X85727692Y-46472419D02*
X85656264Y-46472419D01*
X86251502Y-46472419D02*
X86251502Y-45472419D01*
X86251502Y-46424800D02*
X86203883Y-46472419D01*
X86203883Y-46472419D02*
X86108645Y-46472419D01*
X86108645Y-46472419D02*
X86061026Y-46424800D01*
X86061026Y-46424800D02*
X86037216Y-46377180D01*
X86037216Y-46377180D02*
X86013407Y-46281942D01*
X86013407Y-46281942D02*
X86013407Y-45996228D01*
X86013407Y-45996228D02*
X86037216Y-45900990D01*
X86037216Y-45900990D02*
X86061026Y-45853371D01*
X86061026Y-45853371D02*
X86108645Y-45805752D01*
X86108645Y-45805752D02*
X86203883Y-45805752D01*
X86203883Y-45805752D02*
X86251502Y-45853371D01*
X86703883Y-45805752D02*
X86703883Y-46472419D01*
X86489597Y-45805752D02*
X86489597Y-46329561D01*
X86489597Y-46329561D02*
X86513407Y-46424800D01*
X86513407Y-46424800D02*
X86561026Y-46472419D01*
X86561026Y-46472419D02*
X86632454Y-46472419D01*
X86632454Y-46472419D02*
X86680073Y-46424800D01*
X86680073Y-46424800D02*
X86703883Y-46377180D01*
X87013407Y-46472419D02*
X86965788Y-46424800D01*
X86965788Y-46424800D02*
X86941978Y-46329561D01*
X86941978Y-46329561D02*
X86941978Y-45472419D01*
X87394359Y-46424800D02*
X87346740Y-46472419D01*
X87346740Y-46472419D02*
X87251502Y-46472419D01*
X87251502Y-46472419D02*
X87203883Y-46424800D01*
X87203883Y-46424800D02*
X87180074Y-46329561D01*
X87180074Y-46329561D02*
X87180074Y-45948609D01*
X87180074Y-45948609D02*
X87203883Y-45853371D01*
X87203883Y-45853371D02*
X87251502Y-45805752D01*
X87251502Y-45805752D02*
X87346740Y-45805752D01*
X87346740Y-45805752D02*
X87394359Y-45853371D01*
X87394359Y-45853371D02*
X87418169Y-45948609D01*
X87418169Y-45948609D02*
X87418169Y-46043847D01*
X87418169Y-46043847D02*
X87180074Y-46139085D01*
X87941978Y-45472419D02*
X88108644Y-46472419D01*
X88108644Y-46472419D02*
X88275311Y-45472419D01*
X88418168Y-45567657D02*
X88441977Y-45520038D01*
X88441977Y-45520038D02*
X88489596Y-45472419D01*
X88489596Y-45472419D02*
X88608644Y-45472419D01*
X88608644Y-45472419D02*
X88656263Y-45520038D01*
X88656263Y-45520038D02*
X88680072Y-45567657D01*
X88680072Y-45567657D02*
X88703882Y-45662895D01*
X88703882Y-45662895D02*
X88703882Y-45758133D01*
X88703882Y-45758133D02*
X88680072Y-45900990D01*
X88680072Y-45900990D02*
X88394358Y-46472419D01*
X88394358Y-46472419D02*
X88703882Y-46472419D01*
X88918167Y-46377180D02*
X88941977Y-46424800D01*
X88941977Y-46424800D02*
X88918167Y-46472419D01*
X88918167Y-46472419D02*
X88894358Y-46424800D01*
X88894358Y-46424800D02*
X88918167Y-46377180D01*
X88918167Y-46377180D02*
X88918167Y-46472419D01*
X89251500Y-45472419D02*
X89299119Y-45472419D01*
X89299119Y-45472419D02*
X89346738Y-45520038D01*
X89346738Y-45520038D02*
X89370548Y-45567657D01*
X89370548Y-45567657D02*
X89394357Y-45662895D01*
X89394357Y-45662895D02*
X89418167Y-45853371D01*
X89418167Y-45853371D02*
X89418167Y-46091466D01*
X89418167Y-46091466D02*
X89394357Y-46281942D01*
X89394357Y-46281942D02*
X89370548Y-46377180D01*
X89370548Y-46377180D02*
X89346738Y-46424800D01*
X89346738Y-46424800D02*
X89299119Y-46472419D01*
X89299119Y-46472419D02*
X89251500Y-46472419D01*
X89251500Y-46472419D02*
X89203881Y-46424800D01*
X89203881Y-46424800D02*
X89180072Y-46377180D01*
X89180072Y-46377180D02*
X89156262Y-46281942D01*
X89156262Y-46281942D02*
X89132453Y-46091466D01*
X89132453Y-46091466D02*
X89132453Y-45853371D01*
X89132453Y-45853371D02*
X89156262Y-45662895D01*
X89156262Y-45662895D02*
X89180072Y-45567657D01*
X89180072Y-45567657D02*
X89203881Y-45520038D01*
X89203881Y-45520038D02*
X89251500Y-45472419D01*
X90132452Y-46805752D02*
X90132452Y-45377180D01*
X91037213Y-45948609D02*
X91108641Y-45996228D01*
X91108641Y-45996228D02*
X91132451Y-46043847D01*
X91132451Y-46043847D02*
X91156260Y-46139085D01*
X91156260Y-46139085D02*
X91156260Y-46281942D01*
X91156260Y-46281942D02*
X91132451Y-46377180D01*
X91132451Y-46377180D02*
X91108641Y-46424800D01*
X91108641Y-46424800D02*
X91061022Y-46472419D01*
X91061022Y-46472419D02*
X90870546Y-46472419D01*
X90870546Y-46472419D02*
X90870546Y-45472419D01*
X90870546Y-45472419D02*
X91037213Y-45472419D01*
X91037213Y-45472419D02*
X91084832Y-45520038D01*
X91084832Y-45520038D02*
X91108641Y-45567657D01*
X91108641Y-45567657D02*
X91132451Y-45662895D01*
X91132451Y-45662895D02*
X91132451Y-45758133D01*
X91132451Y-45758133D02*
X91108641Y-45853371D01*
X91108641Y-45853371D02*
X91084832Y-45900990D01*
X91084832Y-45900990D02*
X91037213Y-45948609D01*
X91037213Y-45948609D02*
X90870546Y-45948609D01*
X91370546Y-46377180D02*
X91394356Y-46424800D01*
X91394356Y-46424800D02*
X91370546Y-46472419D01*
X91370546Y-46472419D02*
X91346737Y-46424800D01*
X91346737Y-46424800D02*
X91370546Y-46377180D01*
X91370546Y-46377180D02*
X91370546Y-46472419D01*
X91775308Y-45948609D02*
X91608641Y-45948609D01*
X91608641Y-46472419D02*
X91608641Y-45472419D01*
X91608641Y-45472419D02*
X91846736Y-45472419D01*
X92037212Y-46377180D02*
X92061022Y-46424800D01*
X92061022Y-46424800D02*
X92037212Y-46472419D01*
X92037212Y-46472419D02*
X92013403Y-46424800D01*
X92013403Y-46424800D02*
X92037212Y-46377180D01*
X92037212Y-46377180D02*
X92037212Y-46472419D01*
X92799116Y-45472419D02*
X92799116Y-46186704D01*
X92799116Y-46186704D02*
X92775307Y-46329561D01*
X92775307Y-46329561D02*
X92727688Y-46424800D01*
X92727688Y-46424800D02*
X92656259Y-46472419D01*
X92656259Y-46472419D02*
X92608640Y-46472419D01*
X93251497Y-46472419D02*
X93251497Y-45948609D01*
X93251497Y-45948609D02*
X93227687Y-45853371D01*
X93227687Y-45853371D02*
X93180068Y-45805752D01*
X93180068Y-45805752D02*
X93084830Y-45805752D01*
X93084830Y-45805752D02*
X93037211Y-45853371D01*
X93251497Y-46424800D02*
X93203878Y-46472419D01*
X93203878Y-46472419D02*
X93084830Y-46472419D01*
X93084830Y-46472419D02*
X93037211Y-46424800D01*
X93037211Y-46424800D02*
X93013402Y-46329561D01*
X93013402Y-46329561D02*
X93013402Y-46234323D01*
X93013402Y-46234323D02*
X93037211Y-46139085D01*
X93037211Y-46139085D02*
X93084830Y-46091466D01*
X93084830Y-46091466D02*
X93203878Y-46091466D01*
X93203878Y-46091466D02*
X93251497Y-46043847D01*
X93489592Y-45805752D02*
X93489592Y-46472419D01*
X93489592Y-45900990D02*
X93513402Y-45853371D01*
X93513402Y-45853371D02*
X93561021Y-45805752D01*
X93561021Y-45805752D02*
X93632449Y-45805752D01*
X93632449Y-45805752D02*
X93680068Y-45853371D01*
X93680068Y-45853371D02*
X93703878Y-45948609D01*
X93703878Y-45948609D02*
X93703878Y-46472419D01*
X94346735Y-45472419D02*
X94299116Y-45662895D01*
X94537211Y-45567657D02*
X94561020Y-45520038D01*
X94561020Y-45520038D02*
X94608639Y-45472419D01*
X94608639Y-45472419D02*
X94727687Y-45472419D01*
X94727687Y-45472419D02*
X94775306Y-45520038D01*
X94775306Y-45520038D02*
X94799115Y-45567657D01*
X94799115Y-45567657D02*
X94822925Y-45662895D01*
X94822925Y-45662895D02*
X94822925Y-45758133D01*
X94822925Y-45758133D02*
X94799115Y-45900990D01*
X94799115Y-45900990D02*
X94513401Y-46472419D01*
X94513401Y-46472419D02*
X94822925Y-46472419D01*
X95275305Y-45472419D02*
X95037210Y-45472419D01*
X95037210Y-45472419D02*
X95013401Y-45948609D01*
X95013401Y-45948609D02*
X95037210Y-45900990D01*
X95037210Y-45900990D02*
X95084829Y-45853371D01*
X95084829Y-45853371D02*
X95203877Y-45853371D01*
X95203877Y-45853371D02*
X95251496Y-45900990D01*
X95251496Y-45900990D02*
X95275305Y-45948609D01*
X95275305Y-45948609D02*
X95299115Y-46043847D01*
X95299115Y-46043847D02*
X95299115Y-46281942D01*
X95299115Y-46281942D02*
X95275305Y-46377180D01*
X95275305Y-46377180D02*
X95251496Y-46424800D01*
X95251496Y-46424800D02*
X95203877Y-46472419D01*
X95203877Y-46472419D02*
X95084829Y-46472419D01*
X95084829Y-46472419D02*
X95037210Y-46424800D01*
X95037210Y-46424800D02*
X95013401Y-46377180D01*
X88822931Y-43149942D02*
X88765789Y-43121371D01*
X88765789Y-43121371D02*
X88680074Y-43121371D01*
X88680074Y-43121371D02*
X88594360Y-43149942D01*
X88594360Y-43149942D02*
X88537217Y-43207085D01*
X88537217Y-43207085D02*
X88508646Y-43264228D01*
X88508646Y-43264228D02*
X88480074Y-43378514D01*
X88480074Y-43378514D02*
X88480074Y-43464228D01*
X88480074Y-43464228D02*
X88508646Y-43578514D01*
X88508646Y-43578514D02*
X88537217Y-43635657D01*
X88537217Y-43635657D02*
X88594360Y-43692800D01*
X88594360Y-43692800D02*
X88680074Y-43721371D01*
X88680074Y-43721371D02*
X88737217Y-43721371D01*
X88737217Y-43721371D02*
X88822931Y-43692800D01*
X88822931Y-43692800D02*
X88851503Y-43664228D01*
X88851503Y-43664228D02*
X88851503Y-43464228D01*
X88851503Y-43464228D02*
X88737217Y-43464228D01*
X89108646Y-43721371D02*
X89108646Y-43121371D01*
X89108646Y-43121371D02*
X89451503Y-43721371D01*
X89451503Y-43721371D02*
X89451503Y-43121371D01*
X89737217Y-43721371D02*
X89737217Y-43121371D01*
X89737217Y-43121371D02*
X89880074Y-43121371D01*
X89880074Y-43121371D02*
X89965788Y-43149942D01*
X89965788Y-43149942D02*
X90022931Y-43207085D01*
X90022931Y-43207085D02*
X90051502Y-43264228D01*
X90051502Y-43264228D02*
X90080074Y-43378514D01*
X90080074Y-43378514D02*
X90080074Y-43464228D01*
X90080074Y-43464228D02*
X90051502Y-43578514D01*
X90051502Y-43578514D02*
X90022931Y-43635657D01*
X90022931Y-43635657D02*
X89965788Y-43692800D01*
X89965788Y-43692800D02*
X89880074Y-43721371D01*
X89880074Y-43721371D02*
X89737217Y-43721371D01*
X99388728Y-42886489D02*
X99353014Y-42957918D01*
X99353014Y-42957918D02*
X99353014Y-43065060D01*
X99353014Y-43065060D02*
X99388728Y-43172203D01*
X99388728Y-43172203D02*
X99460157Y-43243632D01*
X99460157Y-43243632D02*
X99531585Y-43279346D01*
X99531585Y-43279346D02*
X99674442Y-43315060D01*
X99674442Y-43315060D02*
X99781585Y-43315060D01*
X99781585Y-43315060D02*
X99924442Y-43279346D01*
X99924442Y-43279346D02*
X99995871Y-43243632D01*
X99995871Y-43243632D02*
X100067300Y-43172203D01*
X100067300Y-43172203D02*
X100103014Y-43065060D01*
X100103014Y-43065060D02*
X100103014Y-42993632D01*
X100103014Y-42993632D02*
X100067300Y-42886489D01*
X100067300Y-42886489D02*
X100031585Y-42850775D01*
X100031585Y-42850775D02*
X99781585Y-42850775D01*
X99781585Y-42850775D02*
X99781585Y-42993632D01*
X100103014Y-42529346D02*
X99353014Y-42529346D01*
X99353014Y-42529346D02*
X100103014Y-42100775D01*
X100103014Y-42100775D02*
X99353014Y-42100775D01*
X100103014Y-41743632D02*
X99353014Y-41743632D01*
X99353014Y-41743632D02*
X99353014Y-41565061D01*
X99353014Y-41565061D02*
X99388728Y-41457918D01*
X99388728Y-41457918D02*
X99460157Y-41386489D01*
X99460157Y-41386489D02*
X99531585Y-41350775D01*
X99531585Y-41350775D02*
X99674442Y-41315061D01*
X99674442Y-41315061D02*
X99781585Y-41315061D01*
X99781585Y-41315061D02*
X99924442Y-41350775D01*
X99924442Y-41350775D02*
X99995871Y-41386489D01*
X99995871Y-41386489D02*
X100067300Y-41457918D01*
X100067300Y-41457918D02*
X100103014Y-41565061D01*
X100103014Y-41565061D02*
X100103014Y-41743632D01*
D11*
X80302268Y-31015907D02*
X80349887Y-30968288D01*
X80349887Y-30968288D02*
X80445125Y-30920669D01*
X80445125Y-30920669D02*
X80683220Y-30920669D01*
X80683220Y-30920669D02*
X80778458Y-30968288D01*
X80778458Y-30968288D02*
X80826077Y-31015907D01*
X80826077Y-31015907D02*
X80873696Y-31111145D01*
X80873696Y-31111145D02*
X80873696Y-31206383D01*
X80873696Y-31206383D02*
X80826077Y-31349240D01*
X80826077Y-31349240D02*
X80254649Y-31920669D01*
X80254649Y-31920669D02*
X80873696Y-31920669D01*
X81254649Y-31634954D02*
X81730839Y-31634954D01*
X81159411Y-31920669D02*
X81492744Y-30920669D01*
X81492744Y-30920669D02*
X81826077Y-31920669D01*
D12*
X87486666Y-38476290D02*
X87462857Y-38500100D01*
X87462857Y-38500100D02*
X87391428Y-38523909D01*
X87391428Y-38523909D02*
X87343809Y-38523909D01*
X87343809Y-38523909D02*
X87272381Y-38500100D01*
X87272381Y-38500100D02*
X87224762Y-38452480D01*
X87224762Y-38452480D02*
X87200952Y-38404861D01*
X87200952Y-38404861D02*
X87177143Y-38309623D01*
X87177143Y-38309623D02*
X87177143Y-38238195D01*
X87177143Y-38238195D02*
X87200952Y-38142957D01*
X87200952Y-38142957D02*
X87224762Y-38095338D01*
X87224762Y-38095338D02*
X87272381Y-38047719D01*
X87272381Y-38047719D02*
X87343809Y-38023909D01*
X87343809Y-38023909D02*
X87391428Y-38023909D01*
X87391428Y-38023909D02*
X87462857Y-38047719D01*
X87462857Y-38047719D02*
X87486666Y-38071528D01*
X87677143Y-38071528D02*
X87700952Y-38047719D01*
X87700952Y-38047719D02*
X87748571Y-38023909D01*
X87748571Y-38023909D02*
X87867619Y-38023909D01*
X87867619Y-38023909D02*
X87915238Y-38047719D01*
X87915238Y-38047719D02*
X87939047Y-38071528D01*
X87939047Y-38071528D02*
X87962857Y-38119147D01*
X87962857Y-38119147D02*
X87962857Y-38166766D01*
X87962857Y-38166766D02*
X87939047Y-38238195D01*
X87939047Y-38238195D02*
X87653333Y-38523909D01*
X87653333Y-38523909D02*
X87962857Y-38523909D01*
X87200952Y-41053909D02*
X87200952Y-40553909D01*
X87200952Y-40553909D02*
X87320000Y-40553909D01*
X87320000Y-40553909D02*
X87391428Y-40577719D01*
X87391428Y-40577719D02*
X87439047Y-40625338D01*
X87439047Y-40625338D02*
X87462857Y-40672957D01*
X87462857Y-40672957D02*
X87486666Y-40768195D01*
X87486666Y-40768195D02*
X87486666Y-40839623D01*
X87486666Y-40839623D02*
X87462857Y-40934861D01*
X87462857Y-40934861D02*
X87439047Y-40982480D01*
X87439047Y-40982480D02*
X87391428Y-41030100D01*
X87391428Y-41030100D02*
X87320000Y-41053909D01*
X87320000Y-41053909D02*
X87200952Y-41053909D01*
X87962857Y-41053909D02*
X87677143Y-41053909D01*
X87820000Y-41053909D02*
X87820000Y-40553909D01*
X87820000Y-40553909D02*
X87772381Y-40625338D01*
X87772381Y-40625338D02*
X87724762Y-40672957D01*
X87724762Y-40672957D02*
X87677143Y-40696766D01*
D13*
X76973571Y-28664494D02*
X77402143Y-28664494D01*
X77187857Y-29414494D02*
X77187857Y-28664494D01*
X77652143Y-29414494D02*
X77652143Y-28664494D01*
X77652143Y-28664494D02*
X77937857Y-28664494D01*
X77937857Y-28664494D02*
X78009286Y-28700208D01*
X78009286Y-28700208D02*
X78045000Y-28735922D01*
X78045000Y-28735922D02*
X78080714Y-28807351D01*
X78080714Y-28807351D02*
X78080714Y-28914494D01*
X78080714Y-28914494D02*
X78045000Y-28985922D01*
X78045000Y-28985922D02*
X78009286Y-29021637D01*
X78009286Y-29021637D02*
X77937857Y-29057351D01*
X77937857Y-29057351D02*
X77652143Y-29057351D01*
X78795000Y-29414494D02*
X78366429Y-29414494D01*
X78580714Y-29414494D02*
X78580714Y-28664494D01*
X78580714Y-28664494D02*
X78509286Y-28771637D01*
X78509286Y-28771637D02*
X78437857Y-28843065D01*
X78437857Y-28843065D02*
X78366429Y-28878780D01*
D11*
X89810000Y-40705014D02*
X89810000Y-41240728D01*
X89810000Y-41240728D02*
X89774285Y-41347871D01*
X89774285Y-41347871D02*
X89702857Y-41419300D01*
X89702857Y-41419300D02*
X89595714Y-41455014D01*
X89595714Y-41455014D02*
X89524285Y-41455014D01*
X90131429Y-40776442D02*
X90167143Y-40740728D01*
X90167143Y-40740728D02*
X90238572Y-40705014D01*
X90238572Y-40705014D02*
X90417143Y-40705014D01*
X90417143Y-40705014D02*
X90488572Y-40740728D01*
X90488572Y-40740728D02*
X90524286Y-40776442D01*
X90524286Y-40776442D02*
X90560000Y-40847871D01*
X90560000Y-40847871D02*
X90560000Y-40919300D01*
X90560000Y-40919300D02*
X90524286Y-41026442D01*
X90524286Y-41026442D02*
X90095714Y-41455014D01*
X90095714Y-41455014D02*
X90560000Y-41455014D01*
X84840000Y-40705014D02*
X84840000Y-41240728D01*
X84840000Y-41240728D02*
X84804285Y-41347871D01*
X84804285Y-41347871D02*
X84732857Y-41419300D01*
X84732857Y-41419300D02*
X84625714Y-41455014D01*
X84625714Y-41455014D02*
X84554285Y-41455014D01*
X85590000Y-41455014D02*
X85161429Y-41455014D01*
X85375714Y-41455014D02*
X85375714Y-40705014D01*
X85375714Y-40705014D02*
X85304286Y-40812157D01*
X85304286Y-40812157D02*
X85232857Y-40883585D01*
X85232857Y-40883585D02*
X85161429Y-40919300D01*
X80683220Y-29966859D02*
X80349887Y-29966859D01*
X80349887Y-30490669D02*
X80349887Y-29490669D01*
X80349887Y-29490669D02*
X80826077Y-29490669D01*
X81730839Y-30490669D02*
X81159411Y-30490669D01*
X81445125Y-30490669D02*
X81445125Y-29490669D01*
X81445125Y-29490669D02*
X81349887Y-29633526D01*
X81349887Y-29633526D02*
X81254649Y-29728764D01*
X81254649Y-29728764D02*
X81159411Y-29776383D01*
D13*
X88253571Y-42088644D02*
X88682143Y-42088644D01*
X88467857Y-42838644D02*
X88467857Y-42088644D01*
X88932143Y-42838644D02*
X88932143Y-42088644D01*
X88932143Y-42088644D02*
X89217857Y-42088644D01*
X89217857Y-42088644D02*
X89289286Y-42124358D01*
X89289286Y-42124358D02*
X89325000Y-42160072D01*
X89325000Y-42160072D02*
X89360714Y-42231501D01*
X89360714Y-42231501D02*
X89360714Y-42338644D01*
X89360714Y-42338644D02*
X89325000Y-42410072D01*
X89325000Y-42410072D02*
X89289286Y-42445787D01*
X89289286Y-42445787D02*
X89217857Y-42481501D01*
X89217857Y-42481501D02*
X88932143Y-42481501D01*
X89646429Y-42160072D02*
X89682143Y-42124358D01*
X89682143Y-42124358D02*
X89753572Y-42088644D01*
X89753572Y-42088644D02*
X89932143Y-42088644D01*
X89932143Y-42088644D02*
X90003572Y-42124358D01*
X90003572Y-42124358D02*
X90039286Y-42160072D01*
X90039286Y-42160072D02*
X90075000Y-42231501D01*
X90075000Y-42231501D02*
X90075000Y-42302930D01*
X90075000Y-42302930D02*
X90039286Y-42410072D01*
X90039286Y-42410072D02*
X89610714Y-42838644D01*
X89610714Y-42838644D02*
X90075000Y-42838644D01*
D14*
%TO.C,REF\u002A\u002A*%
X74930000Y-46990000D02*
X74930000Y-49530000D01*
X74930000Y-46990000D02*
X100330000Y-46990000D01*
X100330000Y-46990000D02*
X100330000Y-49530000D01*
X100330000Y-49530000D02*
X74930000Y-49530000D01*
D15*
X75311000Y-46609000D02*
G75*
G02*
X75057000Y-46609000I-127000J0D01*
G01*
X75057000Y-46609000D02*
G75*
G02*
X75311000Y-46609000I127000J0D01*
G01*
D14*
X74930000Y-24130000D02*
X74930000Y-26670000D01*
X74930000Y-24130000D02*
X100330000Y-24130000D01*
X100330000Y-24130000D02*
X100330000Y-26670000D01*
X100330000Y-26670000D02*
X74930000Y-26670000D01*
D15*
X75311000Y-23749000D02*
G75*
G02*
X75057000Y-23749000I-127000J0D01*
G01*
X75057000Y-23749000D02*
G75*
G02*
X75311000Y-23749000I127000J0D01*
G01*
D16*
%TO.C,C2*%
X86807447Y-37808950D02*
X88173751Y-37808950D01*
X88173751Y-35054950D02*
X86807447Y-35054950D01*
X90563800Y-36431950D02*
G75*
G02*
X90411400Y-36431950I-76200J0D01*
G01*
X90411400Y-36431950D02*
G75*
G02*
X90563800Y-36431950I76200J0D01*
G01*
D17*
%TO.C,D1*%
X86765000Y-38865850D02*
X88425000Y-38865850D01*
X86765000Y-40365850D02*
X88425000Y-40365850D01*
D18*
X84695000Y-39615850D02*
G75*
G02*
X84495000Y-39615850I-100000J0D01*
G01*
X84495000Y-39615850D02*
G75*
G02*
X84695000Y-39615850I100000J0D01*
G01*
D17*
%TO.C,TP1*%
X79510000Y-32395850D02*
G75*
G02*
X76330000Y-32395850I-1590000J0D01*
G01*
X76330000Y-32395850D02*
G75*
G02*
X79510000Y-32395850I1590000J0D01*
G01*
D18*
%TO.C,J2*%
X91160000Y-34705850D02*
X98860000Y-34705850D01*
X91160000Y-44905850D02*
X91160000Y-34705850D01*
X98860000Y-34705850D02*
X98860000Y-44905850D01*
X98860000Y-44905850D02*
X91160000Y-44905850D01*
D19*
X96760000Y-36405850D02*
G75*
G02*
X96560000Y-36405850I-100000J0D01*
G01*
X96560000Y-36405850D02*
G75*
G02*
X96760000Y-36405850I100000J0D01*
G01*
D18*
%TO.C,J1*%
X76420000Y-34705850D02*
X84120000Y-34705850D01*
X76420000Y-44905850D02*
X76420000Y-34705850D01*
X84120000Y-34705850D02*
X84120000Y-44905850D01*
X84120000Y-44905850D02*
X76420000Y-44905850D01*
D19*
X78720000Y-43205850D02*
G75*
G02*
X78520000Y-43205850I-100000J0D01*
G01*
X78520000Y-43205850D02*
G75*
G02*
X78720000Y-43205850I100000J0D01*
G01*
D16*
%TO.C,F1*%
X82382000Y-27013350D02*
X82382000Y-33998350D01*
X98638000Y-27013350D02*
X82382000Y-27013350D01*
X98638000Y-27013350D02*
X98638000Y-33998350D01*
X98638000Y-33998350D02*
X82382000Y-33998350D01*
D17*
%TO.C,TP2*%
X87900000Y-43255850D02*
G75*
G02*
X84720000Y-43255850I-1590000J0D01*
G01*
X84720000Y-43255850D02*
G75*
G02*
X87900000Y-43255850I1590000J0D01*
G01*
%TD*%
M02*
