%TF.GenerationSoftware,KiCad,Pcbnew,8.0.7*%
%TF.CreationDate,2025-01-28T21:08:18-05:00*%
%TF.ProjectId,Circuit Power Module,43697263-7569-4742-9050-6f776572204d,rev?*%
%TF.SameCoordinates,Original*%
%TF.FileFunction,Copper,L1,Top*%
%TF.FilePolarity,Positive*%
%FSLAX46Y46*%
G04 Gerber Fmt 4.6, Leading zero omitted, Abs format (unit mm)*
G04 Created by KiCad (PCBNEW 8.0.7) date 2025-01-28 21:08:18*
%MOMM*%
%LPD*%
G01*
G04 APERTURE LIST*
%TA.AperFunction,ComponentPad*%
%ADD10C,1.750000*%
%TD*%
%TA.AperFunction,SMDPad,CuDef*%
%ADD11R,1.158800X2.550800*%
%TD*%
%TA.AperFunction,SMDPad,CuDef*%
%ADD12R,1.110000X1.730000*%
%TD*%
%TA.AperFunction,ComponentPad*%
%ADD13C,2.400000*%
%TD*%
%TA.AperFunction,ComponentPad*%
%ADD14C,1.950000*%
%TD*%
%TA.AperFunction,ComponentPad*%
%ADD15R,2.108200X2.108200*%
%TD*%
%TA.AperFunction,ComponentPad*%
%ADD16C,2.108200*%
%TD*%
%TA.AperFunction,ViaPad*%
%ADD17C,1.000000*%
%TD*%
%TA.AperFunction,Conductor*%
%ADD18C,0.500000*%
%TD*%
G04 APERTURE END LIST*
D10*
%TO.P,REF\u002A\u002A,1*%
%TO.N,N/C*%
X76200000Y-48260000D03*
%TO.P,REF\u002A\u002A,2*%
X78740000Y-48260000D03*
%TO.P,REF\u002A\u002A,3*%
X81280000Y-48260000D03*
%TO.P,REF\u002A\u002A,4*%
X83820000Y-48260000D03*
%TO.P,REF\u002A\u002A,5*%
X86360000Y-48260000D03*
%TO.P,REF\u002A\u002A,6*%
X88900000Y-48260000D03*
%TO.P,REF\u002A\u002A,7*%
X91440000Y-48260000D03*
%TO.P,REF\u002A\u002A,8*%
X93980000Y-48260000D03*
%TO.P,REF\u002A\u002A,9*%
X96520000Y-48260000D03*
%TO.P,REF\u002A\u002A,10*%
X99060000Y-48260000D03*
%TD*%
%TO.P,REF\u002A\u002A,1*%
%TO.N,N/C*%
X76200000Y-25400000D03*
%TO.P,REF\u002A\u002A,2*%
X78740000Y-25400000D03*
%TO.P,REF\u002A\u002A,3*%
X81280000Y-25400000D03*
%TO.P,REF\u002A\u002A,4*%
X83820000Y-25400000D03*
%TO.P,REF\u002A\u002A,5*%
X86360000Y-25400000D03*
%TO.P,REF\u002A\u002A,6*%
X88900000Y-25400000D03*
%TO.P,REF\u002A\u002A,7*%
X91440000Y-25400000D03*
%TO.P,REF\u002A\u002A,8*%
X93980000Y-25400000D03*
%TO.P,REF\u002A\u002A,9*%
X96520000Y-25400000D03*
%TO.P,REF\u002A\u002A,10*%
X99060000Y-25400000D03*
%TD*%
D11*
%TO.P,C2,1*%
%TO.N,Net-(C2-Pad1)*%
X89070000Y-36431950D03*
%TO.P,C2,2*%
%TO.N,Net-(C2-Pad2)*%
X85911198Y-36431950D03*
%TD*%
D12*
%TO.P,D1,A*%
%TO.N,Net-(C2-Pad1)*%
X89300000Y-39615850D03*
%TO.P,D1,C*%
%TO.N,Net-(C2-Pad2)*%
X85890000Y-39615850D03*
%TD*%
D13*
%TO.P,TP1,TP*%
%TO.N,Net-(C2-Pad2)*%
X77920000Y-32395850D03*
%TD*%
D14*
%TO.P,J2,1*%
%TO.N,Net-(F1-Pad3)*%
X95260000Y-37305850D03*
%TO.P,J2,2*%
%TO.N,Net-(C2-Pad1)*%
X95260000Y-42305850D03*
%TD*%
%TO.P,J1,1*%
%TO.N,Net-(C2-Pad1)*%
X80020000Y-42305850D03*
%TO.P,J1,2*%
%TO.N,Net-(C2-Pad2)*%
X80020000Y-37305850D03*
%TD*%
D15*
%TO.P,F1,1,1*%
%TO.N,Net-(C2-Pad2)*%
X85557000Y-28804050D03*
D16*
%TO.P,F1,2,2*%
X85557000Y-32207650D03*
%TO.P,F1,3,3*%
%TO.N,Net-(F1-Pad3)*%
X95463000Y-32207650D03*
%TO.P,F1,4,4*%
X95463000Y-28804050D03*
%TD*%
D13*
%TO.P,TP2,TP*%
%TO.N,Net-(C2-Pad1)*%
X86310000Y-43255850D03*
%TD*%
D17*
%TO.N,Net-(C2-Pad1)*%
X90700000Y-37195850D03*
%TD*%
D18*
%TO.N,Net-(C2-Pad2)*%
X85911198Y-36431950D02*
X85911198Y-39594652D01*
X85911198Y-39594652D02*
X85890000Y-39615850D01*
%TO.N,Net-(C2-Pad1)*%
X90700000Y-37195850D02*
X89833900Y-37195850D01*
X89300000Y-36661950D02*
X89070000Y-36431950D01*
X89833900Y-37195850D02*
X89070000Y-36431950D01*
X89300000Y-39615850D02*
X89300000Y-36661950D01*
%TD*%
%TA.AperFunction,Conductor*%
%TO.N,Net-(F1-Pad3)*%
G36*
X97150393Y-27405535D02*
G01*
X97196148Y-27458339D01*
X97205958Y-27491295D01*
X98757242Y-37741552D01*
X98747811Y-37810782D01*
X98702448Y-37863923D01*
X98695858Y-37867941D01*
X95378045Y-39751541D01*
X95310027Y-39767521D01*
X95244168Y-39744190D01*
X95233522Y-39735558D01*
X90186791Y-35158489D01*
X90150357Y-35098871D01*
X90146804Y-35079889D01*
X90143491Y-35049066D01*
X90093197Y-34914221D01*
X90093193Y-34914214D01*
X90006947Y-34799005D01*
X90006944Y-34799002D01*
X89891735Y-34712756D01*
X89891728Y-34712752D01*
X89756882Y-34662458D01*
X89756883Y-34662458D01*
X89697283Y-34656051D01*
X89697281Y-34656050D01*
X89697273Y-34656050D01*
X89697265Y-34656050D01*
X89680650Y-34656050D01*
X89613611Y-34636365D01*
X89597347Y-34623901D01*
X89440260Y-34481433D01*
X89403826Y-34421815D01*
X89401293Y-34368945D01*
X90562553Y-27489210D01*
X90593121Y-27426383D01*
X90652804Y-27390055D01*
X90684823Y-27385850D01*
X97083354Y-27385850D01*
X97150393Y-27405535D01*
G37*
%TD.AperFunction*%
%TD*%
%TA.AperFunction,Conductor*%
%TO.N,Net-(C2-Pad2)*%
G36*
X87075667Y-26846229D02*
G01*
X87121989Y-26898536D01*
X87133611Y-26957282D01*
X86737118Y-35114770D01*
X86714202Y-35180775D01*
X86659239Y-35223912D01*
X86613264Y-35232750D01*
X86541398Y-35232750D01*
X86541398Y-37631150D01*
X86572567Y-37662319D01*
X86606052Y-37723642D01*
X86608740Y-37756020D01*
X86605149Y-37829897D01*
X86582233Y-37895902D01*
X86527269Y-37939039D01*
X86494527Y-37947169D01*
X76749028Y-38993075D01*
X76680271Y-38980657D01*
X76629142Y-38933037D01*
X76613046Y-38887346D01*
X75626468Y-31991063D01*
X75636460Y-31921914D01*
X75644403Y-31907249D01*
X78763962Y-26972852D01*
X78816424Y-26926707D01*
X78867433Y-26915122D01*
X87008422Y-26827269D01*
X87075667Y-26846229D01*
G37*
%TD.AperFunction*%
%TD*%
M02*
