%TF.GenerationSoftware,KiCad,Pcbnew,8.0.8*%
%TF.CreationDate,2025-04-18T10:54:44-04:00*%
%TF.ProjectId,RTDS Control Module V4.0,52544453-2043-46f6-9e74-726f6c204d6f,rev?*%
%TF.SameCoordinates,Original*%
%TF.FileFunction,Copper,L1,Top*%
%TF.FilePolarity,Positive*%
%FSLAX46Y46*%
G04 Gerber Fmt 4.6, Leading zero omitted, Abs format (unit mm)*
G04 Created by KiCad (PCBNEW 8.0.8) date 2025-04-18 10:54:44*
%MOMM*%
%LPD*%
G01*
G04 APERTURE LIST*
G04 Aperture macros list*
%AMRoundRect*
0 Rectangle with rounded corners*
0 $1 Rounding radius*
0 $2 $3 $4 $5 $6 $7 $8 $9 X,Y pos of 4 corners*
0 Add a 4 corners polygon primitive as box body*
4,1,4,$2,$3,$4,$5,$6,$7,$8,$9,$2,$3,0*
0 Add four circle primitives for the rounded corners*
1,1,$1+$1,$2,$3*
1,1,$1+$1,$4,$5*
1,1,$1+$1,$6,$7*
1,1,$1+$1,$8,$9*
0 Add four rect primitives between the rounded corners*
20,1,$1+$1,$2,$3,$4,$5,0*
20,1,$1+$1,$4,$5,$6,$7,0*
20,1,$1+$1,$6,$7,$8,$9,0*
20,1,$1+$1,$8,$9,$2,$3,0*%
G04 Aperture macros list end*
%TA.AperFunction,SMDPad,CuDef*%
%ADD10R,0.889000X0.609600*%
%TD*%
%TA.AperFunction,SMDPad,CuDef*%
%ADD11RoundRect,0.250000X-0.412500X-0.650000X0.412500X-0.650000X0.412500X0.650000X-0.412500X0.650000X0*%
%TD*%
%TA.AperFunction,SMDPad,CuDef*%
%ADD12R,0.558800X0.863600*%
%TD*%
%TA.AperFunction,SMDPad,CuDef*%
%ADD13R,0.863600X1.600200*%
%TD*%
%TA.AperFunction,ComponentPad*%
%ADD14R,1.397000X1.397000*%
%TD*%
%TA.AperFunction,ComponentPad*%
%ADD15C,1.397000*%
%TD*%
%TA.AperFunction,ComponentPad*%
%ADD16C,1.650000*%
%TD*%
%TA.AperFunction,ComponentPad*%
%ADD17C,1.750000*%
%TD*%
%TA.AperFunction,SMDPad,CuDef*%
%ADD18R,0.955600X2.500000*%
%TD*%
%TA.AperFunction,SMDPad,CuDef*%
%ADD19RoundRect,0.150000X-0.825000X-0.150000X0.825000X-0.150000X0.825000X0.150000X-0.825000X0.150000X0*%
%TD*%
%TA.AperFunction,SMDPad,CuDef*%
%ADD20R,0.855600X1.600000*%
%TD*%
%TA.AperFunction,Conductor*%
%ADD21C,0.500000*%
%TD*%
G04 APERTURE END LIST*
D10*
%TO.P,R4,1*%
%TO.N,Net-(D1-K)*%
X68250000Y-31147700D03*
%TO.P,R4,2*%
%TO.N,Net-(U1-GND)*%
X68250000Y-29852300D03*
%TD*%
D11*
%TO.P,C3,1*%
%TO.N,RESET*%
X70500000Y-44000000D03*
%TO.P,C3,2*%
%TO.N,Net-(U1-GND)*%
X73625000Y-44000000D03*
%TD*%
D12*
%TO.P,U2,1,G*%
%TO.N,Net-(D1-A)*%
X63047500Y-30943800D03*
%TO.P,U2,2,S*%
%TO.N,Net-(U1-GND)*%
X64952500Y-30943800D03*
%TO.P,U2,3,D*%
%TO.N,Net-(U2-D)*%
X64000000Y-28556200D03*
%TD*%
D13*
%TO.P,D1,1,K*%
%TO.N,Net-(D1-K)*%
X68774000Y-33250000D03*
%TO.P,D1,2,A*%
%TO.N,Net-(D1-A)*%
X65726000Y-33250000D03*
%TD*%
D14*
%TO.P,R2,1*%
%TO.N,Net-(U1-R)*%
X55500000Y-38750000D03*
D15*
%TO.P,R2,2*%
%TO.N,Net-(U1-DIS)*%
X55500000Y-50180000D03*
%TD*%
D16*
%TO.P,K1,2*%
%TO.N,Net-(U1-TR)*%
X53890000Y-34980000D03*
%TO.P,K1,4*%
%TO.N,Net-(U1-GND)*%
X58970000Y-34980000D03*
%TO.P,K1,5*%
%TO.N,Net-(J1-Pad3)*%
X58970000Y-29900000D03*
%TO.P,K1,8*%
%TO.N,Net-(U1-R)*%
X51350000Y-29900000D03*
%TD*%
D17*
%TO.P,J2,1,1*%
%TO.N,N/C*%
X50800000Y-68580000D03*
%TO.P,J2,2,2*%
X53340000Y-68580000D03*
%TO.P,J2,3,3*%
X55880000Y-68580000D03*
%TO.P,J2,4,4*%
X58420000Y-68580000D03*
%TO.P,J2,5,5*%
X60960000Y-68580000D03*
%TO.P,J2,6,6*%
X63500000Y-68580000D03*
%TO.P,J2,7,7*%
X66040000Y-68580000D03*
%TO.P,J2,8,8*%
X68580000Y-68580000D03*
%TO.P,J2,9,9*%
X71120000Y-68580000D03*
%TO.P,J2,10,10*%
X73660000Y-68580000D03*
%TD*%
D18*
%TO.P,C1,1*%
%TO.N,Net-(U1-DIS)*%
X71022199Y-34500000D03*
%TO.P,C1,2*%
%TO.N,Net-(U1-GND)*%
X73977801Y-34500000D03*
%TD*%
D14*
%TO.P,R1,1*%
%TO.N,Net-(U1-R)*%
X51500000Y-38785000D03*
D15*
%TO.P,R1,2*%
%TO.N,Net-(U1-TR)*%
X51500000Y-50215000D03*
%TD*%
D19*
%TO.P,U1,1,GND*%
%TO.N,Net-(U1-GND)*%
X63050000Y-36230000D03*
%TO.P,U1,2,TR*%
%TO.N,Net-(U1-TR)*%
X63050000Y-37500000D03*
%TO.P,U1,3,Q*%
%TO.N,Net-(D1-A)*%
X63050000Y-38770000D03*
%TO.P,U1,4,R*%
%TO.N,RESET*%
X63050000Y-40040000D03*
%TO.P,U1,5,CV*%
%TO.N,Net-(U1-CV)*%
X68000000Y-40040000D03*
%TO.P,U1,6,THR*%
%TO.N,Net-(U1-DIS)*%
X68000000Y-38770000D03*
%TO.P,U1,7,DIS*%
X68000000Y-37500000D03*
%TO.P,U1,8,VCC*%
%TO.N,Net-(U1-R)*%
X68000000Y-36230000D03*
%TD*%
D20*
%TO.P,C2,1*%
%TO.N,Net-(U1-CV)*%
X71000000Y-38500000D03*
%TO.P,C2,2*%
%TO.N,Net-(U1-GND)*%
X74055602Y-38500000D03*
%TD*%
D10*
%TO.P,R3,1*%
%TO.N,Net-(D1-K)*%
X70250000Y-31147700D03*
%TO.P,R3,2*%
%TO.N,Net-(U1-GND)*%
X70250000Y-29852300D03*
%TD*%
D14*
%TO.P,R3,1*%
%TO.N,RESET*%
X59500000Y-38785000D03*
D15*
%TO.P,R3,2*%
%TO.N,Net-(U1-R)*%
X59500000Y-50215000D03*
%TD*%
D17*
%TO.P,J1,1,1*%
%TO.N,Net-(U1-R)*%
X50800000Y-25400000D03*
%TO.P,J1,2,2*%
%TO.N,Net-(U1-GND)*%
X53340000Y-25400000D03*
%TO.P,J1,3,3*%
%TO.N,Net-(J1-Pad3)*%
X55880000Y-25400000D03*
%TO.P,J1,4,4*%
%TO.N,Net-(U2-D)*%
X58420000Y-25400000D03*
%TO.P,J1,5,5*%
%TO.N,unconnected-(J1-Pad5)*%
X60960000Y-25400000D03*
%TO.P,J1,6,6*%
%TO.N,unconnected-(J1-Pad6)*%
X63500000Y-25400000D03*
%TO.P,J1,7,7*%
%TO.N,unconnected-(J1-Pad7)*%
X66040000Y-25400000D03*
%TO.P,J1,8,8*%
%TO.N,unconnected-(J1-Pad8)*%
X68580000Y-25400000D03*
%TO.P,J1,9,9*%
%TO.N,unconnected-(J1-Pad9)*%
X71120000Y-25400000D03*
%TO.P,J1,10,10*%
%TO.N,unconnected-(J1-Pad10)*%
X73660000Y-25400000D03*
%TD*%
D21*
%TO.N,Net-(U1-TR)*%
X55910000Y-37000000D02*
X53890000Y-34980000D01*
X51500000Y-50215000D02*
X53890000Y-47825000D01*
X61000000Y-37000000D02*
X55910000Y-37000000D01*
X53890000Y-47825000D02*
X53890000Y-34980000D01*
X63050000Y-37500000D02*
X61500000Y-37500000D01*
X61500000Y-37500000D02*
X61000000Y-37000000D01*
%TO.N,Net-(U1-GND)*%
X64952500Y-30943800D02*
X66044000Y-29852300D01*
X66044000Y-29852300D02*
X68250000Y-29852300D01*
X60539900Y-33410100D02*
X61910100Y-33410100D01*
X61910100Y-33410100D02*
X63050000Y-34550000D01*
X70250000Y-29852300D02*
X71194500Y-29852300D01*
X73977801Y-32635601D02*
X73977801Y-34500000D01*
X71194500Y-29852300D02*
X73977801Y-32635601D01*
X73625000Y-44000000D02*
X74055602Y-43569398D01*
X74055602Y-38500000D02*
X74055602Y-34577801D01*
X74055602Y-43569398D02*
X74055602Y-38500000D01*
X63758700Y-29750000D02*
X62630100Y-29750000D01*
X74055602Y-34577801D02*
X73977801Y-34500000D01*
X58970000Y-34980000D02*
X60539900Y-33410100D01*
X62630100Y-29750000D02*
X60539900Y-31840200D01*
X64952500Y-30943800D02*
X63758700Y-29750000D01*
X63050000Y-34550000D02*
X63050000Y-36230000D01*
X60539900Y-31840200D02*
X60539900Y-33410100D01*
X70250000Y-29852300D02*
X68250000Y-29852300D01*
%TO.N,Net-(U1-DIS)*%
X55500000Y-51500000D02*
X55500000Y-50180000D01*
X66000000Y-40000000D02*
X66000000Y-51500000D01*
X68000000Y-37500000D02*
X69500000Y-37500000D01*
X65000000Y-52500000D02*
X56500000Y-52500000D01*
X68000000Y-38770000D02*
X67230000Y-38770000D01*
X67230000Y-38770000D02*
X66000000Y-40000000D01*
X71022199Y-35977801D02*
X71022199Y-34500000D01*
X56500000Y-52500000D02*
X55500000Y-51500000D01*
X66000000Y-51500000D02*
X65000000Y-52500000D01*
X68000000Y-37500000D02*
X68000000Y-38770000D01*
X69500000Y-37500000D02*
X71022199Y-35977801D01*
%TO.N,Net-(D1-K)*%
X70250000Y-31147700D02*
X68250000Y-31147700D01*
X68774000Y-32623700D02*
X70250000Y-31147700D01*
X68774000Y-33250000D02*
X68774000Y-32623700D01*
%TO.N,Net-(D1-A)*%
X65726000Y-33250000D02*
X65353700Y-33250000D01*
X65000000Y-33976000D02*
X65726000Y-33250000D01*
X65000000Y-38000000D02*
X65000000Y-33976000D01*
X64000000Y-31896300D02*
X63047500Y-30943800D01*
X63050000Y-38770000D02*
X64230000Y-38770000D01*
X65353700Y-33250000D02*
X64000000Y-31896300D01*
X64230000Y-38770000D02*
X65000000Y-38000000D01*
%TO.N,Net-(J1-Pad3)*%
X55880000Y-25400000D02*
X55880000Y-26810000D01*
X55880000Y-26810000D02*
X58970000Y-29900000D01*
%TO.N,Net-(U2-D)*%
X58420000Y-25400000D02*
X61576200Y-28556200D01*
X61576200Y-28556200D02*
X64000000Y-28556200D01*
%TO.N,Net-(U1-CV)*%
X69460000Y-40040000D02*
X68000000Y-40040000D01*
X71000000Y-38500000D02*
X69460000Y-40040000D01*
%TO.N,Net-(U1-R)*%
X59500000Y-50215000D02*
X65000000Y-44715000D01*
X51350000Y-29900000D02*
X51350000Y-38635000D01*
X50800000Y-29350000D02*
X51350000Y-29900000D01*
X51535000Y-38750000D02*
X51500000Y-38785000D01*
X65000000Y-39750000D02*
X66000000Y-38750000D01*
X51350000Y-38635000D02*
X51500000Y-38785000D01*
X66770000Y-36230000D02*
X68000000Y-36230000D01*
X66000000Y-38750000D02*
X66000000Y-37000000D01*
X65000000Y-44715000D02*
X65000000Y-39750000D01*
X66000000Y-37000000D02*
X66770000Y-36230000D01*
X50800000Y-25400000D02*
X50800000Y-29350000D01*
%TO.N,RESET*%
X67500000Y-53500000D02*
X70500000Y-50500000D01*
X70500000Y-50500000D02*
X70500000Y-44000000D01*
X63050000Y-40040000D02*
X60755000Y-40040000D01*
X53500000Y-53500000D02*
X67500000Y-53500000D01*
X60755000Y-40040000D02*
X59500000Y-38785000D01*
X53500000Y-49590000D02*
X53500000Y-53500000D01*
X63050000Y-40040000D02*
X53500000Y-49590000D01*
%TD*%
M02*
