%TF.GenerationSoftware,KiCad,Pcbnew,8.0.8*%
%TF.CreationDate,2025-03-10T22:00:58-04:00*%
%TF.ProjectId,PWM Module 2.0,50574d20-4d6f-4647-956c-6520322e302e,rev?*%
%TF.SameCoordinates,Original*%
%TF.FileFunction,Soldermask,Bot*%
%TF.FilePolarity,Negative*%
%FSLAX46Y46*%
G04 Gerber Fmt 4.6, Leading zero omitted, Abs format (unit mm)*
G04 Created by KiCad (PCBNEW 8.0.8) date 2025-03-10 22:00:58*
%MOMM*%
%LPD*%
G01*
G04 APERTURE LIST*
%ADD10C,2.154000*%
%ADD11R,1.625600X1.625600*%
%ADD12C,1.625600*%
%ADD13C,1.524000*%
%ADD14R,1.397000X1.397000*%
%ADD15C,1.397000*%
G04 APERTURE END LIST*
D10*
%TO.C,J3*%
X187400000Y-62100000D03*
X192400000Y-62100000D03*
%TD*%
D11*
%TO.C,D4*%
X159441500Y-53076000D03*
D12*
X159441500Y-41900000D03*
%TD*%
D11*
%TO.C,D1*%
X185640000Y-52576000D03*
D12*
X185640000Y-41400000D03*
%TD*%
D13*
%TO.C,J5*%
X152400000Y-25400000D03*
X154940000Y-25400000D03*
X157480000Y-25400000D03*
X160020000Y-25400000D03*
X162560000Y-25400000D03*
X165100000Y-25400000D03*
X167640000Y-25400000D03*
X170180000Y-25400000D03*
X172720000Y-25400000D03*
X175260000Y-25400000D03*
X177800000Y-25400000D03*
X180340000Y-25400000D03*
X182880000Y-25400000D03*
X185420000Y-25400000D03*
X187960000Y-25400000D03*
X190500000Y-25400000D03*
X193040000Y-25400000D03*
X195580000Y-25400000D03*
X198120000Y-25400000D03*
X200660000Y-25400000D03*
%TD*%
D14*
%TO.C,R5*%
X168965000Y-28750000D03*
D15*
X157535000Y-28750000D03*
%TD*%
D10*
%TO.C,J2*%
X159900000Y-62100000D03*
X164900000Y-62100000D03*
%TD*%
D11*
%TO.C,D3*%
X197640000Y-52576000D03*
D12*
X197640000Y-41400000D03*
%TD*%
D14*
%TO.C,R3*%
X194140000Y-57330000D03*
D15*
X194140000Y-45900000D03*
%TD*%
D14*
%TO.C,R1*%
X182140000Y-56615000D03*
D15*
X182140000Y-45185000D03*
%TD*%
D14*
%TO.C,R4*%
X155441500Y-58830000D03*
D15*
X155441500Y-47400000D03*
%TD*%
D14*
%TO.C,R2*%
X169140000Y-58115000D03*
D15*
X169140000Y-46685000D03*
%TD*%
D11*
%TO.C,D2*%
X172640000Y-53289500D03*
D12*
X172640000Y-42113500D03*
%TD*%
D13*
%TO.C,J5*%
X152400000Y-68580000D03*
X154940000Y-68580000D03*
X157480000Y-68580000D03*
X160020000Y-68580000D03*
X162560000Y-68580000D03*
X165100000Y-68580000D03*
X167640000Y-68580000D03*
X170180000Y-68580000D03*
X172720000Y-68580000D03*
X175260000Y-68580000D03*
X177800000Y-68580000D03*
X180340000Y-68580000D03*
X182880000Y-68580000D03*
X185420000Y-68580000D03*
X187960000Y-68580000D03*
X190500000Y-68580000D03*
X193040000Y-68580000D03*
X195580000Y-68580000D03*
X198120000Y-68580000D03*
X200660000Y-68580000D03*
%TD*%
M02*
