M48
; DRILL file {KiCad 8.0.8} date 2025-03-10T22:00:56-0400
; FORMAT={-:-/ absolute / inch / decimal}
; #@! TF.CreationDate,2025-03-10T22:00:56-04:00
; #@! TF.GenerationSoftware,Kicad,Pcbnew,8.0.8
; #@! TF.FileFunction,Plated,1,2,PTH
FMAT,2
INCH
; #@! TA.AperFunction,Plated,PTH,ViaDrill
T1C0.0138
; #@! TA.AperFunction,Plated,PTH,ViaDrill
T2C0.0177
; #@! TA.AperFunction,Plated,PTH,ComponentDrill
T3C0.0350
; #@! TA.AperFunction,Plated,PTH,ComponentDrill
T4C0.0400
; #@! TA.AperFunction,Plated,PTH,ComponentDrill
T5C0.0440
; #@! TA.AperFunction,Plated,PTH,ComponentDrill
T6C0.0512
%
G90
G05
T1
X6.0213Y-1.5906
X6.3461Y-1.4626
X6.5409Y-1.5906
X6.8701Y-1.4567
X7.0528Y-1.5906
X7.3893Y-1.3956
X7.523Y-1.5884
X7.5984Y-1.3386
X7.8598Y-1.4331
T2
X6.0433Y-1.0827
X6.2303Y-1.2756
X6.5803Y-1.3346
X6.7323Y-1.2756
X7.2299Y-1.2756
X7.7133Y-1.2763
T3
X6.1197Y-1.8661
X6.1197Y-2.3161
X6.2022Y-1.1319
X6.6522Y-1.1319
X6.6591Y-1.838
X6.6591Y-2.288
X7.1709Y-1.7789
X7.1709Y-2.2289
X7.6433Y-1.8071
X7.6433Y-2.2571
T4
X6.0Y-1.0
X6.0Y-2.7
X6.1Y-1.0
X6.1Y-2.7
X6.2Y-1.0
X6.2Y-2.7
X6.3Y-1.0
X6.3Y-2.7
X6.4Y-1.0
X6.4Y-2.7
X6.5Y-1.0
X6.5Y-2.7
X6.6Y-1.0
X6.6Y-2.7
X6.7Y-1.0
X6.7Y-2.7
X6.8Y-1.0
X6.8Y-2.7
X6.9Y-1.0
X6.9Y-2.7
X7.0Y-1.0
X7.0Y-2.7
X7.1Y-1.0
X7.1Y-2.7
X7.2Y-1.0
X7.2Y-2.7
X7.3Y-1.0
X7.3Y-2.7
X7.4Y-1.0
X7.4Y-2.7
X7.5Y-1.0
X7.5Y-2.7
X7.6Y-1.0
X7.6Y-2.7
X7.7Y-1.0
X7.7Y-2.7
X7.8Y-1.0
X7.8Y-2.7
X7.9Y-1.0
X7.9Y-2.7
T5
X6.2772Y-1.6496
X6.2772Y-2.0896
X6.7969Y-1.658
X6.7969Y-2.098
X7.3087Y-1.6299
X7.3087Y-2.0699
X7.7811Y-1.6299
X7.7811Y-2.0699
T6
X6.2953Y-2.4449
X6.4921Y-2.4449
X7.378Y-2.4449
X7.5748Y-2.4449
M30
