%TF.GenerationSoftware,KiCad,Pcbnew,8.0.8*%
%TF.CreationDate,2025-03-10T22:00:58-04:00*%
%TF.ProjectId,PWM Module 2.0,50574d20-4d6f-4647-956c-6520322e302e,rev?*%
%TF.SameCoordinates,Original*%
%TF.FileFunction,Copper,L2,Bot*%
%TF.FilePolarity,Positive*%
%FSLAX46Y46*%
G04 Gerber Fmt 4.6, Leading zero omitted, Abs format (unit mm)*
G04 Created by KiCad (PCBNEW 8.0.8) date 2025-03-10 22:00:58*
%MOMM*%
%LPD*%
G01*
G04 APERTURE LIST*
%TA.AperFunction,ComponentPad*%
%ADD10C,1.950000*%
%TD*%
%TA.AperFunction,ComponentPad*%
%ADD11R,1.625600X1.625600*%
%TD*%
%TA.AperFunction,ComponentPad*%
%ADD12C,1.625600*%
%TD*%
%TA.AperFunction,ComponentPad*%
%ADD13C,1.524000*%
%TD*%
%TA.AperFunction,ComponentPad*%
%ADD14R,1.397000X1.397000*%
%TD*%
%TA.AperFunction,ComponentPad*%
%ADD15C,1.397000*%
%TD*%
%TA.AperFunction,ViaPad*%
%ADD16C,0.900000*%
%TD*%
%TA.AperFunction,ViaPad*%
%ADD17C,0.700000*%
%TD*%
%TA.AperFunction,Conductor*%
%ADD18C,0.400000*%
%TD*%
%TA.AperFunction,Conductor*%
%ADD19C,0.500000*%
%TD*%
G04 APERTURE END LIST*
D10*
%TO.P,J3,1,Pin_1*%
%TO.N,Net-(J3-Pin_1)*%
X187400000Y-62100000D03*
%TO.P,J3,2,Pin_2*%
%TO.N,Net-(J3-Pin_2)*%
X192400000Y-62100000D03*
%TD*%
D11*
%TO.P,D4,1,K*%
%TO.N,Net-(D4-K)*%
X159441500Y-53076000D03*
D12*
%TO.P,D4,2,A*%
%TO.N,Net-(D4-A)*%
X159441500Y-41900000D03*
%TD*%
D11*
%TO.P,D1,1,K*%
%TO.N,Net-(D1-K)*%
X185640000Y-52576000D03*
D12*
%TO.P,D1,2,A*%
%TO.N,Net-(D1-A)*%
X185640000Y-41400000D03*
%TD*%
D13*
%TO.P,J5,1,1*%
%TO.N,5V+*%
X152400000Y-25400000D03*
%TO.P,J5,2,2*%
%TO.N,VPWM*%
X154940000Y-25400000D03*
%TO.P,J5,3,3*%
%TO.N,GND*%
X157480000Y-25400000D03*
%TO.P,J5,4,4*%
%TO.N,12V+*%
X160020000Y-25400000D03*
%TO.P,J5,5,5*%
%TO.N,unconnected-(J5-Pad5)*%
X162560000Y-25400000D03*
%TO.P,J5,6,6*%
%TO.N,N/C*%
X165100000Y-25400000D03*
%TO.P,J5,7,7*%
%TO.N,unconnected-(J5-Pad7)*%
X167640000Y-25400000D03*
%TO.P,J5,8,8*%
%TO.N,unconnected-(J5-Pad8)*%
X170180000Y-25400000D03*
%TO.P,J5,9,9*%
%TO.N,N/C*%
X172720000Y-25400000D03*
%TO.P,J5,10,10*%
X175260000Y-25400000D03*
%TO.P,J5,11,11*%
X177800000Y-25400000D03*
%TO.P,J5,12,12*%
%TO.N,unconnected-(J5-Pad12)*%
X180340000Y-25400000D03*
%TO.P,J5,13,13*%
%TO.N,unconnected-(J5-Pad13)*%
X182880000Y-25400000D03*
%TO.P,J5,14,14*%
%TO.N,unconnected-(J5-Pad14)*%
X185420000Y-25400000D03*
%TO.P,J5,15,15*%
%TO.N,unconnected-(J5-Pad15)*%
X187960000Y-25400000D03*
%TO.P,J5,16,16*%
%TO.N,unconnected-(J5-Pad16)*%
X190500000Y-25400000D03*
%TO.P,J5,17,17*%
%TO.N,unconnected-(J5-Pad17)*%
X193040000Y-25400000D03*
%TO.P,J5,18,18*%
%TO.N,unconnected-(J5-Pad18)*%
X195580000Y-25400000D03*
%TO.P,J5,19,19*%
%TO.N,unconnected-(J5-Pad19)*%
X198120000Y-25400000D03*
%TO.P,J5,20,20*%
%TO.N,unconnected-(J5-Pad20)*%
X200660000Y-25400000D03*
%TD*%
D14*
%TO.P,R5,1*%
%TO.N,5V+*%
X168965000Y-28750000D03*
D15*
%TO.P,R5,2*%
%TO.N,VPWM*%
X157535000Y-28750000D03*
%TD*%
D10*
%TO.P,J2,1,Pin_1*%
%TO.N,Net-(J2-Pin_1)*%
X159900000Y-62100000D03*
%TO.P,J2,2,Pin_2*%
%TO.N,Net-(J2-Pin_2)*%
X164900000Y-62100000D03*
%TD*%
D11*
%TO.P,D3,1,K*%
%TO.N,Net-(D3-K)*%
X197640000Y-52576000D03*
D12*
%TO.P,D3,2,A*%
%TO.N,Net-(D3-A)*%
X197640000Y-41400000D03*
%TD*%
D14*
%TO.P,R3,1*%
%TO.N,Net-(D3-K)*%
X194140000Y-57330000D03*
D15*
%TO.P,R3,2*%
%TO.N,Net-(D3-A)*%
X194140000Y-45900000D03*
%TD*%
D14*
%TO.P,R1,1*%
%TO.N,Net-(D1-K)*%
X182140000Y-56615000D03*
D15*
%TO.P,R1,2*%
%TO.N,Net-(D1-A)*%
X182140000Y-45185000D03*
%TD*%
D14*
%TO.P,R4,1*%
%TO.N,Net-(D4-K)*%
X155441500Y-58830000D03*
D15*
%TO.P,R4,2*%
%TO.N,Net-(D4-A)*%
X155441500Y-47400000D03*
%TD*%
D14*
%TO.P,R2,1*%
%TO.N,Net-(D2-K)*%
X169140000Y-58115000D03*
D15*
%TO.P,R2,2*%
%TO.N,Net-(D2-A)*%
X169140000Y-46685000D03*
%TD*%
D11*
%TO.P,D2,1,K*%
%TO.N,Net-(D2-K)*%
X172640000Y-53289500D03*
D12*
%TO.P,D2,2,A*%
%TO.N,Net-(D2-A)*%
X172640000Y-42113500D03*
%TD*%
D13*
%TO.P,J5,1,1*%
%TO.N,N/C*%
X152400000Y-68580000D03*
%TO.P,J5,2,2*%
X154940000Y-68580000D03*
%TO.P,J5,3,3*%
X157480000Y-68580000D03*
%TO.P,J5,4,4*%
X160020000Y-68580000D03*
%TO.P,J5,5,5*%
X162560000Y-68580000D03*
%TO.P,J5,6,6*%
X165100000Y-68580000D03*
%TO.P,J5,7,7*%
X167640000Y-68580000D03*
%TO.P,J5,8,8*%
X170180000Y-68580000D03*
%TO.P,J5,9,9*%
X172720000Y-68580000D03*
%TO.P,J5,10,10*%
X175260000Y-68580000D03*
%TO.P,J5,11,11*%
X177800000Y-68580000D03*
%TO.P,J5,12,12*%
X180340000Y-68580000D03*
%TO.P,J5,13,13*%
X182880000Y-68580000D03*
%TO.P,J5,14,14*%
X185420000Y-68580000D03*
%TO.P,J5,15,15*%
X187960000Y-68580000D03*
%TO.P,J5,16,16*%
X190500000Y-68580000D03*
%TO.P,J5,17,17*%
X193040000Y-68580000D03*
%TO.P,J5,18,18*%
X195580000Y-68580000D03*
%TO.P,J5,19,19*%
X198120000Y-68580000D03*
%TO.P,J5,20,20*%
X200660000Y-68580000D03*
%TD*%
D16*
%TO.N,GND*%
X167140000Y-33900000D03*
X195918959Y-32418959D03*
X171000000Y-32400000D03*
X183640000Y-32400000D03*
X158250000Y-32400000D03*
X153500000Y-27500000D03*
D17*
%TO.N,Net-(U1-VDD)*%
X193000000Y-34000000D03*
%TO.N,12V+*%
X191084398Y-40344398D03*
X166140000Y-40400000D03*
X187688850Y-35448850D03*
X152941500Y-40400000D03*
X174500000Y-37000000D03*
X161191500Y-37150000D03*
X179140000Y-40400000D03*
X199640000Y-36400000D03*
%TD*%
D18*
%TO.N,GND*%
X183640000Y-32400000D02*
X152291500Y-32400000D01*
D19*
X152141500Y-41341500D02*
X152141500Y-32250000D01*
D18*
X195900000Y-32400000D02*
X183640000Y-32400000D01*
X152291500Y-32400000D02*
X152141500Y-32250000D01*
D19*
X152141500Y-41341500D02*
X154176300Y-43376300D01*
X152141500Y-28858500D02*
X153500000Y-27500000D01*
D18*
X195918959Y-32418959D02*
X195900000Y-32400000D01*
D19*
X152141500Y-32250000D02*
X152141500Y-28858500D01*
D18*
%TO.N,Net-(J5-Pad1)*%
X178198500Y-33998500D02*
X178100000Y-33900000D01*
D19*
%TO.N,VPWM*%
X154940000Y-25400000D02*
X157535000Y-27995000D01*
X157535000Y-27995000D02*
X157535000Y-28750000D01*
D18*
%TO.N,12V+*%
X187688850Y-35448850D02*
X184091150Y-35448850D01*
X171000000Y-29250000D02*
X170250000Y-30000000D01*
X199640000Y-36400000D02*
X195695602Y-40344398D01*
X171100000Y-40400000D02*
X174500000Y-37000000D01*
X184091150Y-35448850D02*
X179140000Y-40400000D01*
X164620000Y-30000000D02*
X160020000Y-25400000D01*
X201140000Y-35110000D02*
X201140000Y-29250000D01*
X195695602Y-40344398D02*
X191084398Y-40344398D01*
X170250000Y-30000000D02*
X164620000Y-30000000D01*
X199850000Y-36400000D02*
X201140000Y-35110000D01*
X161191500Y-37150000D02*
X157941500Y-40400000D01*
X166140000Y-40400000D02*
X171100000Y-40400000D01*
X199640000Y-36400000D02*
X199850000Y-36400000D01*
X201140000Y-29250000D02*
X171000000Y-29250000D01*
X157941500Y-40400000D02*
X152941500Y-40400000D01*
%TD*%
M02*
