%TF.GenerationSoftware,KiCad,Pcbnew,8.0.8*%
%TF.CreationDate,2025-04-04T13:22:33-04:00*%
%TF.ProjectId,Precharge Module V4.0,50726563-6861-4726-9765-204d6f64756c,rev?*%
%TF.SameCoordinates,Original*%
%TF.FileFunction,Copper,L1,Top*%
%TF.FilePolarity,Positive*%
%FSLAX46Y46*%
G04 Gerber Fmt 4.6, Leading zero omitted, Abs format (unit mm)*
G04 Created by KiCad (PCBNEW 8.0.8) date 2025-04-04 13:22:33*
%MOMM*%
%LPD*%
G01*
G04 APERTURE LIST*
G04 Aperture macros list*
%AMRoundRect*
0 Rectangle with rounded corners*
0 $1 Rounding radius*
0 $2 $3 $4 $5 $6 $7 $8 $9 X,Y pos of 4 corners*
0 Add a 4 corners polygon primitive as box body*
4,1,4,$2,$3,$4,$5,$6,$7,$8,$9,$2,$3,0*
0 Add four circle primitives for the rounded corners*
1,1,$1+$1,$2,$3*
1,1,$1+$1,$4,$5*
1,1,$1+$1,$6,$7*
1,1,$1+$1,$8,$9*
0 Add four rect primitives between the rounded corners*
20,1,$1+$1,$2,$3,$4,$5,0*
20,1,$1+$1,$4,$5,$6,$7,0*
20,1,$1+$1,$6,$7,$8,$9,0*
20,1,$1+$1,$8,$9,$2,$3,0*%
G04 Aperture macros list end*
%TA.AperFunction,SMDPad,CuDef*%
%ADD10R,0.863600X1.600200*%
%TD*%
%TA.AperFunction,ComponentPad*%
%ADD11R,1.397000X1.397000*%
%TD*%
%TA.AperFunction,ComponentPad*%
%ADD12C,1.397000*%
%TD*%
%TA.AperFunction,ComponentPad*%
%ADD13C,3.000000*%
%TD*%
%TA.AperFunction,SMDPad,CuDef*%
%ADD14R,1.219200X0.558800*%
%TD*%
%TA.AperFunction,SMDPad,CuDef*%
%ADD15R,0.711200X0.939800*%
%TD*%
%TA.AperFunction,SMDPad,CuDef*%
%ADD16R,2.500000X0.955600*%
%TD*%
%TA.AperFunction,SMDPad,CuDef*%
%ADD17R,0.533400X1.168400*%
%TD*%
%TA.AperFunction,SMDPad,CuDef*%
%ADD18R,1.016000X1.193800*%
%TD*%
%TA.AperFunction,SMDPad,CuDef*%
%ADD19R,0.855600X1.600000*%
%TD*%
%TA.AperFunction,SMDPad,CuDef*%
%ADD20R,0.863600X0.558800*%
%TD*%
%TA.AperFunction,SMDPad,CuDef*%
%ADD21R,0.939800X0.711200*%
%TD*%
%TA.AperFunction,ComponentPad*%
%ADD22C,1.750000*%
%TD*%
%TA.AperFunction,SMDPad,CuDef*%
%ADD23RoundRect,0.075000X-0.910000X-0.225000X0.910000X-0.225000X0.910000X0.225000X-0.910000X0.225000X0*%
%TD*%
%TA.AperFunction,SMDPad,CuDef*%
%ADD24R,0.558800X0.863600*%
%TD*%
%TA.AperFunction,SMDPad,CuDef*%
%ADD25R,0.812800X1.346200*%
%TD*%
%TA.AperFunction,ViaPad*%
%ADD26C,1.100000*%
%TD*%
%TA.AperFunction,Conductor*%
%ADD27C,0.500000*%
%TD*%
%TA.AperFunction,Conductor*%
%ADD28C,0.250000*%
%TD*%
%TA.AperFunction,Conductor*%
%ADD29C,0.750000*%
%TD*%
G04 APERTURE END LIST*
D10*
%TO.P,D3,1,K*%
%TO.N,Net-(D3-K)*%
X70100000Y-31800000D03*
%TO.P,D3,2,A*%
%TO.N,END*%
X67052000Y-31800000D03*
%TD*%
D11*
%TO.P,R6,1*%
%TO.N,Net-(U1-VCC)*%
X50585000Y-53100000D03*
D12*
%TO.P,R6,2*%
%TO.N,Net-(Q1-E)*%
X62015000Y-53100000D03*
%TD*%
D13*
%TO.P,PC COIL -,1,1*%
%TO.N,END*%
X71800000Y-52200000D03*
%TD*%
D14*
%TO.P,Q1,1,B*%
%TO.N,Net-(Q1-B)*%
X61033200Y-28519000D03*
%TO.P,Q1,2,E*%
%TO.N,Net-(Q1-E)*%
X61033200Y-30424000D03*
%TO.P,Q1,3,C*%
%TO.N,Net-(Q1-C)*%
X63166800Y-29471500D03*
%TD*%
D15*
%TO.P,R3,1*%
%TO.N,Net-(D2-K)*%
X72500000Y-29000000D03*
%TO.P,R3,2*%
%TO.N,Net-(Q1-C)*%
X73897000Y-29000000D03*
%TD*%
D16*
%TO.P,C3,1*%
%TO.N,Net-(Q1-E)*%
X65900000Y-53355602D03*
%TO.P,C3,2*%
%TO.N,Net-(Q1-C)*%
X65900000Y-50400000D03*
%TD*%
D10*
%TO.P,D2,1,K*%
%TO.N,Net-(D2-K)*%
X70100000Y-29300000D03*
%TO.P,D2,2,A*%
%TO.N,Gate*%
X67052000Y-29300000D03*
%TD*%
D17*
%TO.P,U5,1*%
%TO.N,Gate*%
X54752500Y-36684000D03*
%TO.P,U5,2*%
%TO.N,PMOSSOURCE*%
X52847500Y-36684000D03*
%TO.P,U5,3*%
%TO.N,Drain*%
X53800000Y-38716000D03*
%TD*%
D18*
%TO.P,R9,1*%
%TO.N,Net-(Q1-C)*%
X73750900Y-32000000D03*
%TO.P,R9,2*%
%TO.N,Net-(D3-K)*%
X72049100Y-32000000D03*
%TD*%
D11*
%TO.P,R8,1*%
%TO.N,Drain*%
X61970000Y-42100000D03*
D12*
%TO.P,R8,2*%
%TO.N,Net-(Q1-C)*%
X73400000Y-42100000D03*
%TD*%
D19*
%TO.P,C1,1*%
%TO.N,Net-(U1-R)*%
X61672199Y-38400000D03*
%TO.P,C1,2*%
%TO.N,Net-(Q1-C)*%
X64727801Y-38400000D03*
%TD*%
%TO.P,C2,1*%
%TO.N,Net-(U1-CV)*%
X66672199Y-38400000D03*
%TO.P,C2,2*%
%TO.N,Net-(Q1-C)*%
X69727801Y-38400000D03*
%TD*%
D11*
%TO.P,R7,1*%
%TO.N,NmosSource*%
X61185000Y-35400000D03*
D12*
%TO.P,R7,2*%
%TO.N,Net-(Q1-C)*%
X72615000Y-35400000D03*
%TD*%
D15*
%TO.P,R5,1*%
%TO.N,Net-(U1-VCC)*%
X56001500Y-28100000D03*
%TO.P,R5,2*%
%TO.N,Net-(Q1-B)*%
X57398500Y-28100000D03*
%TD*%
D20*
%TO.P,U2,1,G*%
%TO.N,Drain*%
X58200000Y-46405000D03*
%TO.P,U2,2,S*%
%TO.N,END*%
X58200000Y-44500000D03*
%TO.P,U2,3,D*%
%TO.N,Net-(U2-D)*%
X55812400Y-45452500D03*
%TD*%
%TO.P,U3,1,G*%
%TO.N,Drain*%
X53593800Y-46352500D03*
%TO.P,U3,2,S*%
%TO.N,Net-(Q1-C)*%
X53593800Y-44447500D03*
%TO.P,U3,3,D*%
%TO.N,Net-(U3-D)*%
X51206200Y-45400000D03*
%TD*%
D21*
%TO.P,R4,1*%
%TO.N,Net-(U1-THR)*%
X61000000Y-33398500D03*
%TO.P,R4,2*%
%TO.N,Net-(Q1-E)*%
X61000000Y-32001500D03*
%TD*%
D22*
%TO.P,J2,1,1*%
%TO.N,N/C*%
X50800000Y-68580000D03*
%TO.P,J2,2,2*%
X53340000Y-68580000D03*
%TO.P,J2,3,3*%
X55880000Y-68580000D03*
%TO.P,J2,4,4*%
X58420000Y-68580000D03*
%TO.P,J2,5,5*%
X60960000Y-68580000D03*
%TO.P,J2,6,6*%
X63500000Y-68580000D03*
%TO.P,J2,7,7*%
X66040000Y-68580000D03*
%TO.P,J2,8,8*%
X68580000Y-68580000D03*
%TO.P,J2,9,9*%
X71120000Y-68580000D03*
%TO.P,J2,10,10*%
X73660000Y-68580000D03*
%TD*%
D11*
%TO.P,R10,*%
%TO.N,Net-(U2-D)*%
X61985000Y-45900000D03*
D12*
%TO.P,R10,2*%
%TO.N,Net-(Q1-C)*%
X73415000Y-45900000D03*
%TD*%
D23*
%TO.P,U1,1,GND*%
%TO.N,Net-(Q1-C)*%
X53530000Y-30895000D03*
%TO.P,U1,2,TR*%
%TO.N,Net-(U1-THR)*%
X53530000Y-32165000D03*
%TO.P,U1,3,Q*%
%TO.N,Gate*%
X53530000Y-33435000D03*
%TO.P,U1,4,R*%
%TO.N,Net-(U1-R)*%
X53530000Y-34705000D03*
%TO.P,U1,5,CV*%
%TO.N,Net-(U1-CV)*%
X58470000Y-34705000D03*
%TO.P,U1,6,THR*%
%TO.N,Net-(U1-THR)*%
X58470000Y-33435000D03*
%TO.P,U1,7,DIS*%
%TO.N,unconnected-(U1-DIS-Pad7)*%
X58470000Y-32165000D03*
%TO.P,U1,8,VCC*%
%TO.N,Net-(U1-VCC)*%
X58470000Y-30895000D03*
%TD*%
D24*
%TO.P,U4,1,G*%
%TO.N,Gate*%
X58981000Y-36506200D03*
%TO.P,U4,2,S*%
%TO.N,NmosSource*%
X57076000Y-36506200D03*
%TO.P,U4,3,D*%
%TO.N,Drain*%
X58028500Y-38893800D03*
%TD*%
D11*
%TO.P,R2,1*%
%TO.N,Net-(U1-VCC)*%
X50600000Y-49900000D03*
D12*
%TO.P,R2,2*%
%TO.N,PMOSSOURCE*%
X62030000Y-49900000D03*
%TD*%
D25*
%TO.P,R1,1*%
%TO.N,Net-(U1-R)*%
X52100000Y-27900000D03*
%TO.P,R1,2*%
%TO.N,Net-(U1-VCC)*%
X53903400Y-27900000D03*
%TD*%
D22*
%TO.P,J1,1,1*%
%TO.N,Net-(U2-D)*%
X50800000Y-25400000D03*
%TO.P,J1,2,2*%
%TO.N,Net-(U3-D)*%
X53340000Y-25400000D03*
%TO.P,J1,3,3*%
%TO.N,Net-(U1-VCC)*%
X55880000Y-25400000D03*
%TO.P,J1,4,4*%
%TO.N,Net-(Q1-C)*%
X58420000Y-25400000D03*
%TO.P,J1,5,5*%
%TO.N,END*%
X60960000Y-25400000D03*
%TO.P,J1,6,6*%
%TO.N,unconnected-(J1-Pad6)*%
X63500000Y-25400000D03*
%TO.P,J1,7,7*%
%TO.N,unconnected-(J1-Pad7)*%
X66040000Y-25400000D03*
%TO.P,J1,8,8*%
%TO.N,unconnected-(J1-Pad8)*%
X68580000Y-25400000D03*
%TO.P,J1,9,9*%
%TO.N,unconnected-(J1-Pad9)*%
X71120000Y-25400000D03*
%TO.P,J1,10,10*%
%TO.N,unconnected-(J1-Pad10)*%
X73660000Y-25400000D03*
%TD*%
D26*
%TO.N,Net-(Q1-C)*%
X53600000Y-29700000D03*
%TO.N,Net-(Q1-E)*%
X62900000Y-31900000D03*
%TO.N,Gate*%
X56000000Y-33500000D03*
X65400000Y-28600000D03*
%TO.N,PMOSSOURCE*%
X51675000Y-35800000D03*
%TO.N,END*%
X60000000Y-45600000D03*
X65300000Y-30600000D03*
%TD*%
D27*
%TO.N,Net-(Q1-C)*%
X63166800Y-28692100D02*
X63166800Y-29471500D01*
X59200000Y-43000000D02*
X60200000Y-44000000D01*
D28*
X69727801Y-39172199D02*
X69727801Y-38400000D01*
D27*
X59695000Y-26675000D02*
X59695000Y-26695000D01*
D28*
X69100000Y-39800000D02*
X69727801Y-39172199D01*
D27*
X63600000Y-49400000D02*
X64600000Y-50400000D01*
X65900000Y-50400000D02*
X68915000Y-50400000D01*
X68915000Y-50400000D02*
X73415000Y-45900000D01*
X62074700Y-27600000D02*
X63166800Y-28692100D01*
X55041300Y-43000000D02*
X59200000Y-43000000D01*
D28*
X65600000Y-39800000D02*
X69100000Y-39800000D01*
D27*
X73400000Y-45885000D02*
X73415000Y-45900000D01*
X62074700Y-27600000D02*
X73500000Y-27600000D01*
X58420000Y-25400000D02*
X59695000Y-26675000D01*
X73897000Y-31853900D02*
X73750900Y-32000000D01*
X69727801Y-38427801D02*
X69727801Y-38400000D01*
X73330000Y-36115000D02*
X72615000Y-35400000D01*
X73400000Y-42100000D02*
X73400000Y-45885000D01*
X63600000Y-44000000D02*
X63600000Y-49400000D01*
X72615000Y-35400000D02*
X72615000Y-35512801D01*
X60600000Y-27600000D02*
X62074700Y-27600000D01*
X53593800Y-44447500D02*
X55041300Y-43000000D01*
X60200000Y-44000000D02*
X63600000Y-44000000D01*
D28*
X64727801Y-38400000D02*
X64727801Y-38927801D01*
X64727801Y-38927801D02*
X65600000Y-39800000D01*
D27*
X73500000Y-27600000D02*
X73897000Y-27997000D01*
X53600000Y-30825000D02*
X53530000Y-30895000D01*
X64600000Y-50400000D02*
X65900000Y-50400000D01*
X53600000Y-29700000D02*
X53600000Y-30825000D01*
X72615000Y-35512801D02*
X69727801Y-38400000D01*
X59695000Y-26695000D02*
X60600000Y-27600000D01*
X73400000Y-42100000D02*
X69727801Y-38427801D01*
X73897000Y-27997000D02*
X73897000Y-29000000D01*
X73750900Y-32000000D02*
X73750900Y-34264100D01*
X73750900Y-34264100D02*
X72615000Y-35400000D01*
X73897000Y-29000000D02*
X73897000Y-31853900D01*
D28*
%TO.N,Net-(U1-CV)*%
X58470000Y-34705000D02*
X58770000Y-34405000D01*
X60100000Y-34300000D02*
X62572199Y-34300000D01*
X58770000Y-34405000D02*
X59995000Y-34405000D01*
X62572199Y-34300000D02*
X66672199Y-38400000D01*
X59995000Y-34405000D02*
X60100000Y-34300000D01*
%TO.N,Net-(U1-R)*%
X51500000Y-28500000D02*
X51500000Y-34100000D01*
X52105000Y-34705000D02*
X53530000Y-34705000D01*
X54400000Y-37800000D02*
X61072199Y-37800000D01*
X53530000Y-36930000D02*
X54400000Y-37800000D01*
X51500000Y-34100000D02*
X52105000Y-34705000D01*
X52100000Y-27900000D02*
X51500000Y-28500000D01*
X61072199Y-37800000D02*
X61672199Y-38400000D01*
X53530000Y-34705000D02*
X53530000Y-36930000D01*
D27*
%TO.N,Net-(D2-K)*%
X72200000Y-29300000D02*
X72500000Y-29000000D01*
X70100000Y-29300000D02*
X72200000Y-29300000D01*
%TO.N,Net-(D3-K)*%
X71849100Y-31800000D02*
X72049100Y-32000000D01*
X70100000Y-31800000D02*
X71849100Y-31800000D01*
D28*
%TO.N,Net-(U3-D)*%
X53340000Y-25400000D02*
X52450000Y-25400000D01*
X50750000Y-27100000D02*
X50750000Y-44943800D01*
X52450000Y-25400000D02*
X50750000Y-27100000D01*
X50750000Y-44943800D02*
X51206200Y-45400000D01*
%TO.N,Net-(U2-D)*%
X50800000Y-25400000D02*
X50188000Y-26012000D01*
X55812400Y-47087600D02*
X55812400Y-45452500D01*
X55200000Y-47700000D02*
X55812400Y-47087600D01*
X55200000Y-47700000D02*
X60185000Y-47700000D01*
X50188000Y-47700000D02*
X55200000Y-47700000D01*
X50188000Y-26012000D02*
X50188000Y-47700000D01*
X60185000Y-47700000D02*
X61985000Y-45900000D01*
%TO.N,Net-(Q1-E)*%
X61033200Y-30424000D02*
X61033200Y-31968300D01*
D27*
X62015000Y-53100000D02*
X65644398Y-53100000D01*
X65644398Y-53100000D02*
X65900000Y-53355602D01*
D28*
X61033200Y-31968300D02*
X61000000Y-32001500D01*
D27*
X61101500Y-31900000D02*
X61000000Y-32001500D01*
X62900000Y-31900000D02*
X61101500Y-31900000D01*
D28*
%TO.N,Net-(Q1-B)*%
X60200000Y-28100000D02*
X60619000Y-28519000D01*
X57398500Y-28100000D02*
X60200000Y-28100000D01*
X60619000Y-28519000D02*
X61033200Y-28519000D01*
%TO.N,Net-(U1-THR)*%
X57485001Y-33435000D02*
X56215001Y-32165000D01*
X56215001Y-32165000D02*
X53530000Y-32165000D01*
X58506500Y-33398500D02*
X58470000Y-33435000D01*
X58470000Y-33435000D02*
X57485001Y-33435000D01*
X61000000Y-33398500D02*
X58506500Y-33398500D01*
D29*
%TO.N,Net-(U1-VCC)*%
X54103400Y-28100000D02*
X53903400Y-27900000D01*
X55880000Y-25400000D02*
X55880000Y-27978500D01*
X58253470Y-30895000D02*
X58470000Y-30895000D01*
X56001500Y-28100000D02*
X54103400Y-28100000D01*
X56001500Y-28643030D02*
X58253470Y-30895000D01*
X56001500Y-28100000D02*
X56001500Y-28643030D01*
X55880000Y-27978500D02*
X56001500Y-28100000D01*
D27*
%TO.N,Drain*%
X53252500Y-46352500D02*
X53593800Y-46352500D01*
X52400000Y-45500000D02*
X53252500Y-46352500D01*
X54700000Y-44500000D02*
X56700000Y-44500000D01*
X53800000Y-38716000D02*
X57850700Y-38716000D01*
X52400000Y-40116000D02*
X52400000Y-45500000D01*
X58200000Y-46000000D02*
X58200000Y-46405000D01*
X53593800Y-46352500D02*
X53747500Y-46352500D01*
X56700000Y-44500000D02*
X58200000Y-46000000D01*
X54700000Y-45400000D02*
X54700000Y-44500000D01*
X58028500Y-38893800D02*
X58763800Y-38893800D01*
X53747500Y-46352500D02*
X54700000Y-45400000D01*
X53800000Y-38716000D02*
X52400000Y-40116000D01*
X58763800Y-38893800D02*
X61970000Y-42100000D01*
X57850700Y-38716000D02*
X58028500Y-38893800D01*
D28*
%TO.N,Gate*%
X55116000Y-36684000D02*
X55800000Y-36000000D01*
X55800000Y-34720001D02*
X55800000Y-33700000D01*
X58981000Y-36506200D02*
X58451600Y-36506200D01*
X54752500Y-36684000D02*
X55116000Y-36684000D01*
D27*
X66100000Y-29300000D02*
X65400000Y-28600000D01*
D28*
X57545400Y-35600000D02*
X55800000Y-35600000D01*
X55800000Y-35600000D02*
X55800000Y-34720001D01*
X55800000Y-36000000D02*
X55800000Y-35600000D01*
X58451600Y-36506200D02*
X57545400Y-35600000D01*
X55800000Y-33700000D02*
X56000000Y-33500000D01*
X55800000Y-34720001D02*
X54514999Y-33435000D01*
X54514999Y-33435000D02*
X53530000Y-33435000D01*
D27*
X67052000Y-29300000D02*
X66100000Y-29300000D01*
D28*
%TO.N,NmosSource*%
X58313000Y-37213000D02*
X58500000Y-37400000D01*
X58500000Y-37400000D02*
X60133500Y-37400000D01*
X61185000Y-36348500D02*
X61185000Y-35400000D01*
X60133500Y-37400000D02*
X61185000Y-36348500D01*
X57782800Y-37213000D02*
X58313000Y-37213000D01*
X57076000Y-36506200D02*
X57782800Y-37213000D01*
%TO.N,PMOSSOURCE*%
X52847500Y-36684000D02*
X52559000Y-36684000D01*
X52559000Y-36684000D02*
X51675000Y-35800000D01*
D27*
%TO.N,END*%
X58900000Y-44500000D02*
X60000000Y-45600000D01*
X65300000Y-30600000D02*
X65852000Y-30600000D01*
X58200000Y-44500000D02*
X58900000Y-44500000D01*
X65852000Y-30600000D02*
X67052000Y-31800000D01*
%TD*%
M02*
