M48
; DRILL file {KiCad 8.0.7} date 2025-01-28T21:05:15-0500
; FORMAT={-:-/ absolute / inch / decimal}
; #@! TF.CreationDate,2025-01-28T21:05:15-05:00
; #@! TF.GenerationSoftware,Kicad,Pcbnew,8.0.7
; #@! TF.FileFunction,Plated,1,2,PTH
FMAT,2
INCH
; #@! TA.AperFunction,Plated,PTH,ComponentDrill
T1C0.0394
%
G90
G05
T1
X2.0Y-1.0
X2.0Y-1.1
X2.0Y-1.2
X2.0Y-1.3
X2.0Y-1.4
X2.0Y-1.5
X2.0Y-1.6
X2.0Y-1.7
X2.0Y-1.8
X2.0Y-1.9
X3.7Y-1.0
X3.7Y-1.1
X3.7Y-1.2
X3.7Y-1.3
X3.7Y-1.4
X3.7Y-1.5
X3.7Y-1.6
X3.7Y-1.7
X3.7Y-1.8
X3.7Y-1.9
M30
