%TF.GenerationSoftware,KiCad,Pcbnew,8.0.7*%
%TF.CreationDate,2025-01-14T16:56:09-05:00*%
%TF.ProjectId,AMS Latching Module,414d5320-4c61-4746-9368-696e67204d6f,rev?*%
%TF.SameCoordinates,Original*%
%TF.FileFunction,Legend,Top*%
%TF.FilePolarity,Positive*%
%FSLAX46Y46*%
G04 Gerber Fmt 4.6, Leading zero omitted, Abs format (unit mm)*
G04 Created by KiCad (PCBNEW 8.0.7) date 2025-01-14 16:56:09*
%MOMM*%
%LPD*%
G01*
G04 APERTURE LIST*
%ADD10C,0.100000*%
%ADD11C,0.187500*%
%ADD12C,0.098425*%
%ADD13C,0.150000*%
%ADD14C,0.125000*%
%ADD15C,0.170000*%
%ADD16C,0.120000*%
%ADD17C,0.152400*%
%ADD18C,0.508000*%
%ADD19C,0.200000*%
%ADD20C,0.400000*%
G04 APERTURE END LIST*
D10*
X66120000Y-50870000D02*
X91620000Y-50870000D01*
X91620000Y-53770000D01*
X66120000Y-53770000D01*
X66120000Y-50870000D01*
D11*
X66686212Y-52448107D02*
X67043355Y-52448107D01*
X66614783Y-52876678D02*
X66864783Y-51376678D01*
X66864783Y-51376678D02*
X67114783Y-52876678D01*
X67364783Y-52876678D02*
X67364783Y-51376678D01*
X67364783Y-51376678D02*
X67614783Y-52448107D01*
X67614783Y-52448107D02*
X67864783Y-51376678D01*
X67864783Y-51376678D02*
X67864783Y-52876678D01*
X68186212Y-52805250D02*
X68293355Y-52876678D01*
X68293355Y-52876678D02*
X68471926Y-52876678D01*
X68471926Y-52876678D02*
X68543355Y-52805250D01*
X68543355Y-52805250D02*
X68579069Y-52733821D01*
X68579069Y-52733821D02*
X68614783Y-52590964D01*
X68614783Y-52590964D02*
X68614783Y-52448107D01*
X68614783Y-52448107D02*
X68579069Y-52305250D01*
X68579069Y-52305250D02*
X68543355Y-52233821D01*
X68543355Y-52233821D02*
X68471926Y-52162392D01*
X68471926Y-52162392D02*
X68329069Y-52090964D01*
X68329069Y-52090964D02*
X68257640Y-52019535D01*
X68257640Y-52019535D02*
X68221926Y-51948107D01*
X68221926Y-51948107D02*
X68186212Y-51805250D01*
X68186212Y-51805250D02*
X68186212Y-51662392D01*
X68186212Y-51662392D02*
X68221926Y-51519535D01*
X68221926Y-51519535D02*
X68257640Y-51448107D01*
X68257640Y-51448107D02*
X68329069Y-51376678D01*
X68329069Y-51376678D02*
X68507640Y-51376678D01*
X68507640Y-51376678D02*
X68614783Y-51448107D01*
X69864784Y-52876678D02*
X69507641Y-52876678D01*
X69507641Y-52876678D02*
X69507641Y-51376678D01*
X70079070Y-52448107D02*
X70436213Y-52448107D01*
X70007641Y-52876678D02*
X70257641Y-51376678D01*
X70257641Y-51376678D02*
X70507641Y-52876678D01*
X70650498Y-51376678D02*
X71079070Y-51376678D01*
X70864784Y-52876678D02*
X70864784Y-51376678D01*
X71757641Y-52733821D02*
X71721927Y-52805250D01*
X71721927Y-52805250D02*
X71614784Y-52876678D01*
X71614784Y-52876678D02*
X71543356Y-52876678D01*
X71543356Y-52876678D02*
X71436213Y-52805250D01*
X71436213Y-52805250D02*
X71364784Y-52662392D01*
X71364784Y-52662392D02*
X71329070Y-52519535D01*
X71329070Y-52519535D02*
X71293356Y-52233821D01*
X71293356Y-52233821D02*
X71293356Y-52019535D01*
X71293356Y-52019535D02*
X71329070Y-51733821D01*
X71329070Y-51733821D02*
X71364784Y-51590964D01*
X71364784Y-51590964D02*
X71436213Y-51448107D01*
X71436213Y-51448107D02*
X71543356Y-51376678D01*
X71543356Y-51376678D02*
X71614784Y-51376678D01*
X71614784Y-51376678D02*
X71721927Y-51448107D01*
X71721927Y-51448107D02*
X71757641Y-51519535D01*
X72079070Y-52876678D02*
X72079070Y-51376678D01*
X72079070Y-52090964D02*
X72507641Y-52090964D01*
X72507641Y-52876678D02*
X72507641Y-51376678D01*
X72864784Y-52876678D02*
X72864784Y-51376678D01*
X73221927Y-52876678D02*
X73221927Y-51376678D01*
X73221927Y-51376678D02*
X73650498Y-52876678D01*
X73650498Y-52876678D02*
X73650498Y-51376678D01*
X74400498Y-51448107D02*
X74329070Y-51376678D01*
X74329070Y-51376678D02*
X74221927Y-51376678D01*
X74221927Y-51376678D02*
X74114784Y-51448107D01*
X74114784Y-51448107D02*
X74043355Y-51590964D01*
X74043355Y-51590964D02*
X74007641Y-51733821D01*
X74007641Y-51733821D02*
X73971927Y-52019535D01*
X73971927Y-52019535D02*
X73971927Y-52233821D01*
X73971927Y-52233821D02*
X74007641Y-52519535D01*
X74007641Y-52519535D02*
X74043355Y-52662392D01*
X74043355Y-52662392D02*
X74114784Y-52805250D01*
X74114784Y-52805250D02*
X74221927Y-52876678D01*
X74221927Y-52876678D02*
X74293355Y-52876678D01*
X74293355Y-52876678D02*
X74400498Y-52805250D01*
X74400498Y-52805250D02*
X74436212Y-52733821D01*
X74436212Y-52733821D02*
X74436212Y-52233821D01*
X74436212Y-52233821D02*
X74293355Y-52233821D01*
X75329070Y-52876678D02*
X75329070Y-51376678D01*
X75329070Y-51376678D02*
X75579070Y-52448107D01*
X75579070Y-52448107D02*
X75829070Y-51376678D01*
X75829070Y-51376678D02*
X75829070Y-52876678D01*
X76329070Y-51376678D02*
X76471927Y-51376678D01*
X76471927Y-51376678D02*
X76543356Y-51448107D01*
X76543356Y-51448107D02*
X76614784Y-51590964D01*
X76614784Y-51590964D02*
X76650499Y-51876678D01*
X76650499Y-51876678D02*
X76650499Y-52376678D01*
X76650499Y-52376678D02*
X76614784Y-52662392D01*
X76614784Y-52662392D02*
X76543356Y-52805250D01*
X76543356Y-52805250D02*
X76471927Y-52876678D01*
X76471927Y-52876678D02*
X76329070Y-52876678D01*
X76329070Y-52876678D02*
X76257642Y-52805250D01*
X76257642Y-52805250D02*
X76186213Y-52662392D01*
X76186213Y-52662392D02*
X76150499Y-52376678D01*
X76150499Y-52376678D02*
X76150499Y-51876678D01*
X76150499Y-51876678D02*
X76186213Y-51590964D01*
X76186213Y-51590964D02*
X76257642Y-51448107D01*
X76257642Y-51448107D02*
X76329070Y-51376678D01*
X76971927Y-52876678D02*
X76971927Y-51376678D01*
X76971927Y-51376678D02*
X77150498Y-51376678D01*
X77150498Y-51376678D02*
X77257641Y-51448107D01*
X77257641Y-51448107D02*
X77329070Y-51590964D01*
X77329070Y-51590964D02*
X77364784Y-51733821D01*
X77364784Y-51733821D02*
X77400498Y-52019535D01*
X77400498Y-52019535D02*
X77400498Y-52233821D01*
X77400498Y-52233821D02*
X77364784Y-52519535D01*
X77364784Y-52519535D02*
X77329070Y-52662392D01*
X77329070Y-52662392D02*
X77257641Y-52805250D01*
X77257641Y-52805250D02*
X77150498Y-52876678D01*
X77150498Y-52876678D02*
X76971927Y-52876678D01*
X77721927Y-51376678D02*
X77721927Y-52590964D01*
X77721927Y-52590964D02*
X77757641Y-52733821D01*
X77757641Y-52733821D02*
X77793356Y-52805250D01*
X77793356Y-52805250D02*
X77864784Y-52876678D01*
X77864784Y-52876678D02*
X78007641Y-52876678D01*
X78007641Y-52876678D02*
X78079070Y-52805250D01*
X78079070Y-52805250D02*
X78114784Y-52733821D01*
X78114784Y-52733821D02*
X78150498Y-52590964D01*
X78150498Y-52590964D02*
X78150498Y-51376678D01*
X78864784Y-52876678D02*
X78507641Y-52876678D01*
X78507641Y-52876678D02*
X78507641Y-51376678D01*
X79114784Y-52090964D02*
X79364784Y-52090964D01*
X79471927Y-52876678D02*
X79114784Y-52876678D01*
X79114784Y-52876678D02*
X79114784Y-51376678D01*
X79114784Y-51376678D02*
X79471927Y-51376678D01*
X80257641Y-51376678D02*
X80507641Y-52876678D01*
X80507641Y-52876678D02*
X80757641Y-51376678D01*
X81400498Y-52876678D02*
X80971927Y-52876678D01*
X81186212Y-52876678D02*
X81186212Y-51376678D01*
X81186212Y-51376678D02*
X81114784Y-51590964D01*
X81114784Y-51590964D02*
X81043355Y-51733821D01*
X81043355Y-51733821D02*
X80971927Y-51805250D01*
X81721927Y-52733821D02*
X81757641Y-52805250D01*
X81757641Y-52805250D02*
X81721927Y-52876678D01*
X81721927Y-52876678D02*
X81686213Y-52805250D01*
X81686213Y-52805250D02*
X81721927Y-52733821D01*
X81721927Y-52733821D02*
X81721927Y-52876678D01*
X82221927Y-51376678D02*
X82293356Y-51376678D01*
X82293356Y-51376678D02*
X82364784Y-51448107D01*
X82364784Y-51448107D02*
X82400499Y-51519535D01*
X82400499Y-51519535D02*
X82436213Y-51662392D01*
X82436213Y-51662392D02*
X82471927Y-51948107D01*
X82471927Y-51948107D02*
X82471927Y-52305250D01*
X82471927Y-52305250D02*
X82436213Y-52590964D01*
X82436213Y-52590964D02*
X82400499Y-52733821D01*
X82400499Y-52733821D02*
X82364784Y-52805250D01*
X82364784Y-52805250D02*
X82293356Y-52876678D01*
X82293356Y-52876678D02*
X82221927Y-52876678D01*
X82221927Y-52876678D02*
X82150499Y-52805250D01*
X82150499Y-52805250D02*
X82114784Y-52733821D01*
X82114784Y-52733821D02*
X82079070Y-52590964D01*
X82079070Y-52590964D02*
X82043356Y-52305250D01*
X82043356Y-52305250D02*
X82043356Y-51948107D01*
X82043356Y-51948107D02*
X82079070Y-51662392D01*
X82079070Y-51662392D02*
X82114784Y-51519535D01*
X82114784Y-51519535D02*
X82150499Y-51448107D01*
X82150499Y-51448107D02*
X82221927Y-51376678D01*
X83543356Y-53376678D02*
X83543356Y-51233821D01*
X84900500Y-52090964D02*
X85007643Y-52162392D01*
X85007643Y-52162392D02*
X85043357Y-52233821D01*
X85043357Y-52233821D02*
X85079071Y-52376678D01*
X85079071Y-52376678D02*
X85079071Y-52590964D01*
X85079071Y-52590964D02*
X85043357Y-52733821D01*
X85043357Y-52733821D02*
X85007643Y-52805250D01*
X85007643Y-52805250D02*
X84936214Y-52876678D01*
X84936214Y-52876678D02*
X84650500Y-52876678D01*
X84650500Y-52876678D02*
X84650500Y-51376678D01*
X84650500Y-51376678D02*
X84900500Y-51376678D01*
X84900500Y-51376678D02*
X84971929Y-51448107D01*
X84971929Y-51448107D02*
X85007643Y-51519535D01*
X85007643Y-51519535D02*
X85043357Y-51662392D01*
X85043357Y-51662392D02*
X85043357Y-51805250D01*
X85043357Y-51805250D02*
X85007643Y-51948107D01*
X85007643Y-51948107D02*
X84971929Y-52019535D01*
X84971929Y-52019535D02*
X84900500Y-52090964D01*
X84900500Y-52090964D02*
X84650500Y-52090964D01*
X85400500Y-52733821D02*
X85436214Y-52805250D01*
X85436214Y-52805250D02*
X85400500Y-52876678D01*
X85400500Y-52876678D02*
X85364786Y-52805250D01*
X85364786Y-52805250D02*
X85400500Y-52733821D01*
X85400500Y-52733821D02*
X85400500Y-52876678D01*
X86007643Y-52090964D02*
X85757643Y-52090964D01*
X85757643Y-52876678D02*
X85757643Y-51376678D01*
X85757643Y-51376678D02*
X86114786Y-51376678D01*
X86400500Y-52733821D02*
X86436214Y-52805250D01*
X86436214Y-52805250D02*
X86400500Y-52876678D01*
X86400500Y-52876678D02*
X86364786Y-52805250D01*
X86364786Y-52805250D02*
X86400500Y-52733821D01*
X86400500Y-52733821D02*
X86400500Y-52876678D01*
X87543358Y-51376678D02*
X87543358Y-52448107D01*
X87543358Y-52448107D02*
X87507643Y-52662392D01*
X87507643Y-52662392D02*
X87436215Y-52805250D01*
X87436215Y-52805250D02*
X87329072Y-52876678D01*
X87329072Y-52876678D02*
X87257643Y-52876678D01*
X88221930Y-52876678D02*
X88221930Y-52090964D01*
X88221930Y-52090964D02*
X88186215Y-51948107D01*
X88186215Y-51948107D02*
X88114787Y-51876678D01*
X88114787Y-51876678D02*
X87971930Y-51876678D01*
X87971930Y-51876678D02*
X87900501Y-51948107D01*
X88221930Y-52805250D02*
X88150501Y-52876678D01*
X88150501Y-52876678D02*
X87971930Y-52876678D01*
X87971930Y-52876678D02*
X87900501Y-52805250D01*
X87900501Y-52805250D02*
X87864787Y-52662392D01*
X87864787Y-52662392D02*
X87864787Y-52519535D01*
X87864787Y-52519535D02*
X87900501Y-52376678D01*
X87900501Y-52376678D02*
X87971930Y-52305250D01*
X87971930Y-52305250D02*
X88150501Y-52305250D01*
X88150501Y-52305250D02*
X88221930Y-52233821D01*
X88579072Y-51876678D02*
X88579072Y-52876678D01*
X88579072Y-52019535D02*
X88614786Y-51948107D01*
X88614786Y-51948107D02*
X88686215Y-51876678D01*
X88686215Y-51876678D02*
X88793358Y-51876678D01*
X88793358Y-51876678D02*
X88864786Y-51948107D01*
X88864786Y-51948107D02*
X88900501Y-52090964D01*
X88900501Y-52090964D02*
X88900501Y-52876678D01*
X89864786Y-51376678D02*
X89793358Y-51662392D01*
X90150501Y-51519535D02*
X90186215Y-51448107D01*
X90186215Y-51448107D02*
X90257644Y-51376678D01*
X90257644Y-51376678D02*
X90436215Y-51376678D01*
X90436215Y-51376678D02*
X90507644Y-51448107D01*
X90507644Y-51448107D02*
X90543358Y-51519535D01*
X90543358Y-51519535D02*
X90579072Y-51662392D01*
X90579072Y-51662392D02*
X90579072Y-51805250D01*
X90579072Y-51805250D02*
X90543358Y-52019535D01*
X90543358Y-52019535D02*
X90114786Y-52876678D01*
X90114786Y-52876678D02*
X90579072Y-52876678D01*
X91257644Y-51376678D02*
X90900501Y-51376678D01*
X90900501Y-51376678D02*
X90864787Y-52090964D01*
X90864787Y-52090964D02*
X90900501Y-52019535D01*
X90900501Y-52019535D02*
X90971930Y-51948107D01*
X90971930Y-51948107D02*
X91150501Y-51948107D01*
X91150501Y-51948107D02*
X91221930Y-52019535D01*
X91221930Y-52019535D02*
X91257644Y-52090964D01*
X91257644Y-52090964D02*
X91293358Y-52233821D01*
X91293358Y-52233821D02*
X91293358Y-52590964D01*
X91293358Y-52590964D02*
X91257644Y-52733821D01*
X91257644Y-52733821D02*
X91221930Y-52805250D01*
X91221930Y-52805250D02*
X91150501Y-52876678D01*
X91150501Y-52876678D02*
X90971930Y-52876678D01*
X90971930Y-52876678D02*
X90900501Y-52805250D01*
X90900501Y-52805250D02*
X90864787Y-52733821D01*
D10*
X86581027Y-100260752D02*
X86819122Y-100260752D01*
X86533408Y-100403609D02*
X86700074Y-99903609D01*
X86700074Y-99903609D02*
X86866741Y-100403609D01*
X87033407Y-100403609D02*
X87033407Y-99903609D01*
X87033407Y-99903609D02*
X87200074Y-100260752D01*
X87200074Y-100260752D02*
X87366740Y-99903609D01*
X87366740Y-99903609D02*
X87366740Y-100403609D01*
X87581027Y-100379800D02*
X87652455Y-100403609D01*
X87652455Y-100403609D02*
X87771503Y-100403609D01*
X87771503Y-100403609D02*
X87819122Y-100379800D01*
X87819122Y-100379800D02*
X87842931Y-100355990D01*
X87842931Y-100355990D02*
X87866741Y-100308371D01*
X87866741Y-100308371D02*
X87866741Y-100260752D01*
X87866741Y-100260752D02*
X87842931Y-100213133D01*
X87842931Y-100213133D02*
X87819122Y-100189323D01*
X87819122Y-100189323D02*
X87771503Y-100165514D01*
X87771503Y-100165514D02*
X87676265Y-100141704D01*
X87676265Y-100141704D02*
X87628646Y-100117895D01*
X87628646Y-100117895D02*
X87604836Y-100094085D01*
X87604836Y-100094085D02*
X87581027Y-100046466D01*
X87581027Y-100046466D02*
X87581027Y-99998847D01*
X87581027Y-99998847D02*
X87604836Y-99951228D01*
X87604836Y-99951228D02*
X87628646Y-99927419D01*
X87628646Y-99927419D02*
X87676265Y-99903609D01*
X87676265Y-99903609D02*
X87795312Y-99903609D01*
X87795312Y-99903609D02*
X87866741Y-99927419D01*
X88438169Y-100379800D02*
X88509597Y-100403609D01*
X88509597Y-100403609D02*
X88628645Y-100403609D01*
X88628645Y-100403609D02*
X88676264Y-100379800D01*
X88676264Y-100379800D02*
X88700073Y-100355990D01*
X88700073Y-100355990D02*
X88723883Y-100308371D01*
X88723883Y-100308371D02*
X88723883Y-100260752D01*
X88723883Y-100260752D02*
X88700073Y-100213133D01*
X88700073Y-100213133D02*
X88676264Y-100189323D01*
X88676264Y-100189323D02*
X88628645Y-100165514D01*
X88628645Y-100165514D02*
X88533407Y-100141704D01*
X88533407Y-100141704D02*
X88485788Y-100117895D01*
X88485788Y-100117895D02*
X88461978Y-100094085D01*
X88461978Y-100094085D02*
X88438169Y-100046466D01*
X88438169Y-100046466D02*
X88438169Y-99998847D01*
X88438169Y-99998847D02*
X88461978Y-99951228D01*
X88461978Y-99951228D02*
X88485788Y-99927419D01*
X88485788Y-99927419D02*
X88533407Y-99903609D01*
X88533407Y-99903609D02*
X88652454Y-99903609D01*
X88652454Y-99903609D02*
X88723883Y-99927419D01*
X88866740Y-99903609D02*
X89152454Y-99903609D01*
X89009597Y-100403609D02*
X89009597Y-99903609D01*
X89295311Y-100260752D02*
X89533406Y-100260752D01*
X89247692Y-100403609D02*
X89414358Y-99903609D01*
X89414358Y-99903609D02*
X89581025Y-100403609D01*
X89676263Y-99903609D02*
X89961977Y-99903609D01*
X89819120Y-100403609D02*
X89819120Y-99903609D01*
X90128643Y-99903609D02*
X90128643Y-100308371D01*
X90128643Y-100308371D02*
X90152453Y-100355990D01*
X90152453Y-100355990D02*
X90176262Y-100379800D01*
X90176262Y-100379800D02*
X90223881Y-100403609D01*
X90223881Y-100403609D02*
X90319119Y-100403609D01*
X90319119Y-100403609D02*
X90366738Y-100379800D01*
X90366738Y-100379800D02*
X90390548Y-100355990D01*
X90390548Y-100355990D02*
X90414357Y-100308371D01*
X90414357Y-100308371D02*
X90414357Y-99903609D01*
X90628644Y-100379800D02*
X90700072Y-100403609D01*
X90700072Y-100403609D02*
X90819120Y-100403609D01*
X90819120Y-100403609D02*
X90866739Y-100379800D01*
X90866739Y-100379800D02*
X90890548Y-100355990D01*
X90890548Y-100355990D02*
X90914358Y-100308371D01*
X90914358Y-100308371D02*
X90914358Y-100260752D01*
X90914358Y-100260752D02*
X90890548Y-100213133D01*
X90890548Y-100213133D02*
X90866739Y-100189323D01*
X90866739Y-100189323D02*
X90819120Y-100165514D01*
X90819120Y-100165514D02*
X90723882Y-100141704D01*
X90723882Y-100141704D02*
X90676263Y-100117895D01*
X90676263Y-100117895D02*
X90652453Y-100094085D01*
X90652453Y-100094085D02*
X90628644Y-100046466D01*
X90628644Y-100046466D02*
X90628644Y-99998847D01*
X90628644Y-99998847D02*
X90652453Y-99951228D01*
X90652453Y-99951228D02*
X90676263Y-99927419D01*
X90676263Y-99927419D02*
X90723882Y-99903609D01*
X90723882Y-99903609D02*
X90842929Y-99903609D01*
X90842929Y-99903609D02*
X90914358Y-99927419D01*
D12*
X90329411Y-81447014D02*
X90329411Y-81053313D01*
X90329411Y-81053313D02*
X90423149Y-81053313D01*
X90423149Y-81053313D02*
X90479392Y-81072061D01*
X90479392Y-81072061D02*
X90516888Y-81109556D01*
X90516888Y-81109556D02*
X90535635Y-81147052D01*
X90535635Y-81147052D02*
X90554383Y-81222042D01*
X90554383Y-81222042D02*
X90554383Y-81278285D01*
X90554383Y-81278285D02*
X90535635Y-81353276D01*
X90535635Y-81353276D02*
X90516888Y-81390771D01*
X90516888Y-81390771D02*
X90479392Y-81428267D01*
X90479392Y-81428267D02*
X90423149Y-81447014D01*
X90423149Y-81447014D02*
X90329411Y-81447014D01*
X90929336Y-81447014D02*
X90704364Y-81447014D01*
X90816850Y-81447014D02*
X90816850Y-81053313D01*
X90816850Y-81053313D02*
X90779355Y-81109556D01*
X90779355Y-81109556D02*
X90741860Y-81147052D01*
X90741860Y-81147052D02*
X90704364Y-81165799D01*
X88229411Y-81447014D02*
X88229411Y-81053313D01*
X88229411Y-81053313D02*
X88323149Y-81053313D01*
X88323149Y-81053313D02*
X88379392Y-81072061D01*
X88379392Y-81072061D02*
X88416888Y-81109556D01*
X88416888Y-81109556D02*
X88435635Y-81147052D01*
X88435635Y-81147052D02*
X88454383Y-81222042D01*
X88454383Y-81222042D02*
X88454383Y-81278285D01*
X88454383Y-81278285D02*
X88435635Y-81353276D01*
X88435635Y-81353276D02*
X88416888Y-81390771D01*
X88416888Y-81390771D02*
X88379392Y-81428267D01*
X88379392Y-81428267D02*
X88323149Y-81447014D01*
X88323149Y-81447014D02*
X88229411Y-81447014D01*
X88604364Y-81090809D02*
X88623112Y-81072061D01*
X88623112Y-81072061D02*
X88660607Y-81053313D01*
X88660607Y-81053313D02*
X88754346Y-81053313D01*
X88754346Y-81053313D02*
X88791841Y-81072061D01*
X88791841Y-81072061D02*
X88810589Y-81090809D01*
X88810589Y-81090809D02*
X88829336Y-81128304D01*
X88829336Y-81128304D02*
X88829336Y-81165799D01*
X88829336Y-81165799D02*
X88810589Y-81222042D01*
X88810589Y-81222042D02*
X88585617Y-81447014D01*
X88585617Y-81447014D02*
X88829336Y-81447014D01*
D13*
X73759285Y-62194878D02*
X74116428Y-62194878D01*
X73687856Y-62409164D02*
X73937856Y-61659164D01*
X73937856Y-61659164D02*
X74187856Y-62409164D01*
X74437856Y-62409164D02*
X74437856Y-61659164D01*
X74437856Y-61659164D02*
X74687856Y-62194878D01*
X74687856Y-62194878D02*
X74937856Y-61659164D01*
X74937856Y-61659164D02*
X74937856Y-62409164D01*
X75259285Y-62373450D02*
X75366428Y-62409164D01*
X75366428Y-62409164D02*
X75544999Y-62409164D01*
X75544999Y-62409164D02*
X75616428Y-62373450D01*
X75616428Y-62373450D02*
X75652142Y-62337735D01*
X75652142Y-62337735D02*
X75687856Y-62266307D01*
X75687856Y-62266307D02*
X75687856Y-62194878D01*
X75687856Y-62194878D02*
X75652142Y-62123450D01*
X75652142Y-62123450D02*
X75616428Y-62087735D01*
X75616428Y-62087735D02*
X75544999Y-62052021D01*
X75544999Y-62052021D02*
X75402142Y-62016307D01*
X75402142Y-62016307D02*
X75330713Y-61980592D01*
X75330713Y-61980592D02*
X75294999Y-61944878D01*
X75294999Y-61944878D02*
X75259285Y-61873450D01*
X75259285Y-61873450D02*
X75259285Y-61802021D01*
X75259285Y-61802021D02*
X75294999Y-61730592D01*
X75294999Y-61730592D02*
X75330713Y-61694878D01*
X75330713Y-61694878D02*
X75402142Y-61659164D01*
X75402142Y-61659164D02*
X75580713Y-61659164D01*
X75580713Y-61659164D02*
X75687856Y-61694878D01*
X76580714Y-62409164D02*
X76580714Y-61659164D01*
X76580714Y-61659164D02*
X76866428Y-61659164D01*
X76866428Y-61659164D02*
X76937857Y-61694878D01*
X76937857Y-61694878D02*
X76973571Y-61730592D01*
X76973571Y-61730592D02*
X77009285Y-61802021D01*
X77009285Y-61802021D02*
X77009285Y-61909164D01*
X77009285Y-61909164D02*
X76973571Y-61980592D01*
X76973571Y-61980592D02*
X76937857Y-62016307D01*
X76937857Y-62016307D02*
X76866428Y-62052021D01*
X76866428Y-62052021D02*
X76580714Y-62052021D01*
X77259285Y-61659164D02*
X77437857Y-62409164D01*
X77437857Y-62409164D02*
X77580714Y-61873450D01*
X77580714Y-61873450D02*
X77723571Y-62409164D01*
X77723571Y-62409164D02*
X77902143Y-61659164D01*
X78616428Y-62409164D02*
X78366428Y-62052021D01*
X78187857Y-62409164D02*
X78187857Y-61659164D01*
X78187857Y-61659164D02*
X78473571Y-61659164D01*
X78473571Y-61659164D02*
X78545000Y-61694878D01*
X78545000Y-61694878D02*
X78580714Y-61730592D01*
X78580714Y-61730592D02*
X78616428Y-61802021D01*
X78616428Y-61802021D02*
X78616428Y-61909164D01*
X78616428Y-61909164D02*
X78580714Y-61980592D01*
X78580714Y-61980592D02*
X78545000Y-62016307D01*
X78545000Y-62016307D02*
X78473571Y-62052021D01*
X78473571Y-62052021D02*
X78187857Y-62052021D01*
X79402143Y-61659164D02*
X79830715Y-61659164D01*
X79616429Y-62409164D02*
X79616429Y-61659164D01*
X80080715Y-62409164D02*
X80080715Y-61659164D01*
X80080715Y-62016307D02*
X80509286Y-62016307D01*
X80509286Y-62409164D02*
X80509286Y-61659164D01*
X81295000Y-62409164D02*
X81045000Y-62052021D01*
X80866429Y-62409164D02*
X80866429Y-61659164D01*
X80866429Y-61659164D02*
X81152143Y-61659164D01*
X81152143Y-61659164D02*
X81223572Y-61694878D01*
X81223572Y-61694878D02*
X81259286Y-61730592D01*
X81259286Y-61730592D02*
X81295000Y-61802021D01*
X81295000Y-61802021D02*
X81295000Y-61909164D01*
X81295000Y-61909164D02*
X81259286Y-61980592D01*
X81259286Y-61980592D02*
X81223572Y-62016307D01*
X81223572Y-62016307D02*
X81152143Y-62052021D01*
X81152143Y-62052021D02*
X80866429Y-62052021D01*
X81616429Y-61659164D02*
X81616429Y-62266307D01*
X81616429Y-62266307D02*
X81652143Y-62337735D01*
X81652143Y-62337735D02*
X81687858Y-62373450D01*
X81687858Y-62373450D02*
X81759286Y-62409164D01*
X81759286Y-62409164D02*
X81902143Y-62409164D01*
X81902143Y-62409164D02*
X81973572Y-62373450D01*
X81973572Y-62373450D02*
X82009286Y-62337735D01*
X82009286Y-62337735D02*
X82045000Y-62266307D01*
X82045000Y-62266307D02*
X82045000Y-61659164D01*
X52966666Y-49954819D02*
X52966666Y-50669104D01*
X52966666Y-50669104D02*
X52919047Y-50811961D01*
X52919047Y-50811961D02*
X52823809Y-50907200D01*
X52823809Y-50907200D02*
X52680952Y-50954819D01*
X52680952Y-50954819D02*
X52585714Y-50954819D01*
X53395238Y-50050057D02*
X53442857Y-50002438D01*
X53442857Y-50002438D02*
X53538095Y-49954819D01*
X53538095Y-49954819D02*
X53776190Y-49954819D01*
X53776190Y-49954819D02*
X53871428Y-50002438D01*
X53871428Y-50002438D02*
X53919047Y-50050057D01*
X53919047Y-50050057D02*
X53966666Y-50145295D01*
X53966666Y-50145295D02*
X53966666Y-50240533D01*
X53966666Y-50240533D02*
X53919047Y-50383390D01*
X53919047Y-50383390D02*
X53347619Y-50954819D01*
X53347619Y-50954819D02*
X53966666Y-50954819D01*
X84391428Y-88439104D02*
X84867618Y-88439104D01*
X84296190Y-88724819D02*
X84629523Y-87724819D01*
X84629523Y-87724819D02*
X84962856Y-88724819D01*
X85296190Y-88724819D02*
X85296190Y-87724819D01*
X85296190Y-87724819D02*
X85629523Y-88439104D01*
X85629523Y-88439104D02*
X85962856Y-87724819D01*
X85962856Y-87724819D02*
X85962856Y-88724819D01*
X86391428Y-88677200D02*
X86534285Y-88724819D01*
X86534285Y-88724819D02*
X86772380Y-88724819D01*
X86772380Y-88724819D02*
X86867618Y-88677200D01*
X86867618Y-88677200D02*
X86915237Y-88629580D01*
X86915237Y-88629580D02*
X86962856Y-88534342D01*
X86962856Y-88534342D02*
X86962856Y-88439104D01*
X86962856Y-88439104D02*
X86915237Y-88343866D01*
X86915237Y-88343866D02*
X86867618Y-88296247D01*
X86867618Y-88296247D02*
X86772380Y-88248628D01*
X86772380Y-88248628D02*
X86581904Y-88201009D01*
X86581904Y-88201009D02*
X86486666Y-88153390D01*
X86486666Y-88153390D02*
X86439047Y-88105771D01*
X86439047Y-88105771D02*
X86391428Y-88010533D01*
X86391428Y-88010533D02*
X86391428Y-87915295D01*
X86391428Y-87915295D02*
X86439047Y-87820057D01*
X86439047Y-87820057D02*
X86486666Y-87772438D01*
X86486666Y-87772438D02*
X86581904Y-87724819D01*
X86581904Y-87724819D02*
X86819999Y-87724819D01*
X86819999Y-87724819D02*
X86962856Y-87772438D01*
X88724761Y-88724819D02*
X88391428Y-88248628D01*
X88153333Y-88724819D02*
X88153333Y-87724819D01*
X88153333Y-87724819D02*
X88534285Y-87724819D01*
X88534285Y-87724819D02*
X88629523Y-87772438D01*
X88629523Y-87772438D02*
X88677142Y-87820057D01*
X88677142Y-87820057D02*
X88724761Y-87915295D01*
X88724761Y-87915295D02*
X88724761Y-88058152D01*
X88724761Y-88058152D02*
X88677142Y-88153390D01*
X88677142Y-88153390D02*
X88629523Y-88201009D01*
X88629523Y-88201009D02*
X88534285Y-88248628D01*
X88534285Y-88248628D02*
X88153333Y-88248628D01*
X89153333Y-88201009D02*
X89486666Y-88201009D01*
X89629523Y-88724819D02*
X89153333Y-88724819D01*
X89153333Y-88724819D02*
X89153333Y-87724819D01*
X89153333Y-87724819D02*
X89629523Y-87724819D01*
X90010476Y-88677200D02*
X90153333Y-88724819D01*
X90153333Y-88724819D02*
X90391428Y-88724819D01*
X90391428Y-88724819D02*
X90486666Y-88677200D01*
X90486666Y-88677200D02*
X90534285Y-88629580D01*
X90534285Y-88629580D02*
X90581904Y-88534342D01*
X90581904Y-88534342D02*
X90581904Y-88439104D01*
X90581904Y-88439104D02*
X90534285Y-88343866D01*
X90534285Y-88343866D02*
X90486666Y-88296247D01*
X90486666Y-88296247D02*
X90391428Y-88248628D01*
X90391428Y-88248628D02*
X90200952Y-88201009D01*
X90200952Y-88201009D02*
X90105714Y-88153390D01*
X90105714Y-88153390D02*
X90058095Y-88105771D01*
X90058095Y-88105771D02*
X90010476Y-88010533D01*
X90010476Y-88010533D02*
X90010476Y-87915295D01*
X90010476Y-87915295D02*
X90058095Y-87820057D01*
X90058095Y-87820057D02*
X90105714Y-87772438D01*
X90105714Y-87772438D02*
X90200952Y-87724819D01*
X90200952Y-87724819D02*
X90439047Y-87724819D01*
X90439047Y-87724819D02*
X90581904Y-87772438D01*
X91010476Y-88201009D02*
X91343809Y-88201009D01*
X91486666Y-88724819D02*
X91010476Y-88724819D01*
X91010476Y-88724819D02*
X91010476Y-87724819D01*
X91010476Y-87724819D02*
X91486666Y-87724819D01*
X91772381Y-87724819D02*
X92343809Y-87724819D01*
X92058095Y-88724819D02*
X92058095Y-87724819D01*
X86220000Y-89824819D02*
X86220000Y-90062914D01*
X85981905Y-89967676D02*
X86220000Y-90062914D01*
X86220000Y-90062914D02*
X86458095Y-89967676D01*
X86077143Y-90253390D02*
X86220000Y-90062914D01*
X86220000Y-90062914D02*
X86362857Y-90253390D01*
D14*
X88126172Y-67051952D02*
X88364267Y-67051952D01*
X88078553Y-67194809D02*
X88245219Y-66694809D01*
X88245219Y-66694809D02*
X88411886Y-67194809D01*
X88578552Y-67194809D02*
X88578552Y-66694809D01*
X88578552Y-66694809D02*
X88745219Y-67051952D01*
X88745219Y-67051952D02*
X88911885Y-66694809D01*
X88911885Y-66694809D02*
X88911885Y-67194809D01*
X89126172Y-67171000D02*
X89197600Y-67194809D01*
X89197600Y-67194809D02*
X89316648Y-67194809D01*
X89316648Y-67194809D02*
X89364267Y-67171000D01*
X89364267Y-67171000D02*
X89388076Y-67147190D01*
X89388076Y-67147190D02*
X89411886Y-67099571D01*
X89411886Y-67099571D02*
X89411886Y-67051952D01*
X89411886Y-67051952D02*
X89388076Y-67004333D01*
X89388076Y-67004333D02*
X89364267Y-66980523D01*
X89364267Y-66980523D02*
X89316648Y-66956714D01*
X89316648Y-66956714D02*
X89221410Y-66932904D01*
X89221410Y-66932904D02*
X89173791Y-66909095D01*
X89173791Y-66909095D02*
X89149981Y-66885285D01*
X89149981Y-66885285D02*
X89126172Y-66837666D01*
X89126172Y-66837666D02*
X89126172Y-66790047D01*
X89126172Y-66790047D02*
X89149981Y-66742428D01*
X89149981Y-66742428D02*
X89173791Y-66718619D01*
X89173791Y-66718619D02*
X89221410Y-66694809D01*
X89221410Y-66694809D02*
X89340457Y-66694809D01*
X89340457Y-66694809D02*
X89411886Y-66718619D01*
X90007123Y-66932904D02*
X90173790Y-66932904D01*
X90245218Y-67194809D02*
X90007123Y-67194809D01*
X90007123Y-67194809D02*
X90007123Y-66694809D01*
X90007123Y-66694809D02*
X90245218Y-66694809D01*
X90745218Y-67194809D02*
X90578552Y-66956714D01*
X90459504Y-67194809D02*
X90459504Y-66694809D01*
X90459504Y-66694809D02*
X90649980Y-66694809D01*
X90649980Y-66694809D02*
X90697599Y-66718619D01*
X90697599Y-66718619D02*
X90721409Y-66742428D01*
X90721409Y-66742428D02*
X90745218Y-66790047D01*
X90745218Y-66790047D02*
X90745218Y-66861476D01*
X90745218Y-66861476D02*
X90721409Y-66909095D01*
X90721409Y-66909095D02*
X90697599Y-66932904D01*
X90697599Y-66932904D02*
X90649980Y-66956714D01*
X90649980Y-66956714D02*
X90459504Y-66956714D01*
X91245218Y-67194809D02*
X91078552Y-66956714D01*
X90959504Y-67194809D02*
X90959504Y-66694809D01*
X90959504Y-66694809D02*
X91149980Y-66694809D01*
X91149980Y-66694809D02*
X91197599Y-66718619D01*
X91197599Y-66718619D02*
X91221409Y-66742428D01*
X91221409Y-66742428D02*
X91245218Y-66790047D01*
X91245218Y-66790047D02*
X91245218Y-66861476D01*
X91245218Y-66861476D02*
X91221409Y-66909095D01*
X91221409Y-66909095D02*
X91197599Y-66932904D01*
X91197599Y-66932904D02*
X91149980Y-66956714D01*
X91149980Y-66956714D02*
X90959504Y-66956714D01*
X91554742Y-66694809D02*
X91649980Y-66694809D01*
X91649980Y-66694809D02*
X91697599Y-66718619D01*
X91697599Y-66718619D02*
X91745218Y-66766238D01*
X91745218Y-66766238D02*
X91769028Y-66861476D01*
X91769028Y-66861476D02*
X91769028Y-67028142D01*
X91769028Y-67028142D02*
X91745218Y-67123380D01*
X91745218Y-67123380D02*
X91697599Y-67171000D01*
X91697599Y-67171000D02*
X91649980Y-67194809D01*
X91649980Y-67194809D02*
X91554742Y-67194809D01*
X91554742Y-67194809D02*
X91507123Y-67171000D01*
X91507123Y-67171000D02*
X91459504Y-67123380D01*
X91459504Y-67123380D02*
X91435695Y-67028142D01*
X91435695Y-67028142D02*
X91435695Y-66861476D01*
X91435695Y-66861476D02*
X91459504Y-66766238D01*
X91459504Y-66766238D02*
X91507123Y-66718619D01*
X91507123Y-66718619D02*
X91554742Y-66694809D01*
X92269028Y-67194809D02*
X92102362Y-66956714D01*
X91983314Y-67194809D02*
X91983314Y-66694809D01*
X91983314Y-66694809D02*
X92173790Y-66694809D01*
X92173790Y-66694809D02*
X92221409Y-66718619D01*
X92221409Y-66718619D02*
X92245219Y-66742428D01*
X92245219Y-66742428D02*
X92269028Y-66790047D01*
X92269028Y-66790047D02*
X92269028Y-66861476D01*
X92269028Y-66861476D02*
X92245219Y-66909095D01*
X92245219Y-66909095D02*
X92221409Y-66932904D01*
X92221409Y-66932904D02*
X92173790Y-66956714D01*
X92173790Y-66956714D02*
X91983314Y-66956714D01*
D15*
X67781905Y-63223779D02*
X67781905Y-62223779D01*
X68353333Y-63223779D02*
X67924762Y-62652350D01*
X68353333Y-62223779D02*
X67781905Y-62795207D01*
X69305714Y-63223779D02*
X68734286Y-63223779D01*
X69020000Y-63223779D02*
X69020000Y-62223779D01*
X69020000Y-62223779D02*
X68924762Y-62366636D01*
X68924762Y-62366636D02*
X68829524Y-62461874D01*
X68829524Y-62461874D02*
X68734286Y-62509493D01*
X58920000Y-63123779D02*
X58920000Y-63361874D01*
X58681905Y-63266636D02*
X58920000Y-63361874D01*
X58920000Y-63361874D02*
X59158095Y-63266636D01*
X58777143Y-63552350D02*
X58920000Y-63361874D01*
X58920000Y-63361874D02*
X59062857Y-63552350D01*
D12*
X85654383Y-69099414D02*
X85523149Y-68911938D01*
X85429411Y-69099414D02*
X85429411Y-68705713D01*
X85429411Y-68705713D02*
X85579392Y-68705713D01*
X85579392Y-68705713D02*
X85616888Y-68724461D01*
X85616888Y-68724461D02*
X85635635Y-68743209D01*
X85635635Y-68743209D02*
X85654383Y-68780704D01*
X85654383Y-68780704D02*
X85654383Y-68836947D01*
X85654383Y-68836947D02*
X85635635Y-68874442D01*
X85635635Y-68874442D02*
X85616888Y-68893190D01*
X85616888Y-68893190D02*
X85579392Y-68911938D01*
X85579392Y-68911938D02*
X85429411Y-68911938D01*
X85804364Y-68743209D02*
X85823112Y-68724461D01*
X85823112Y-68724461D02*
X85860607Y-68705713D01*
X85860607Y-68705713D02*
X85954346Y-68705713D01*
X85954346Y-68705713D02*
X85991841Y-68724461D01*
X85991841Y-68724461D02*
X86010589Y-68743209D01*
X86010589Y-68743209D02*
X86029336Y-68780704D01*
X86029336Y-68780704D02*
X86029336Y-68818199D01*
X86029336Y-68818199D02*
X86010589Y-68874442D01*
X86010589Y-68874442D02*
X85785617Y-69099414D01*
X85785617Y-69099414D02*
X86029336Y-69099414D01*
D13*
X61931666Y-57104819D02*
X61931666Y-57819104D01*
X61931666Y-57819104D02*
X61884047Y-57961961D01*
X61884047Y-57961961D02*
X61788809Y-58057200D01*
X61788809Y-58057200D02*
X61645952Y-58104819D01*
X61645952Y-58104819D02*
X61550714Y-58104819D01*
X62931666Y-58104819D02*
X62360238Y-58104819D01*
X62645952Y-58104819D02*
X62645952Y-57104819D01*
X62645952Y-57104819D02*
X62550714Y-57247676D01*
X62550714Y-57247676D02*
X62455476Y-57342914D01*
X62455476Y-57342914D02*
X62360238Y-57390533D01*
D12*
X85654383Y-66599414D02*
X85523149Y-66411938D01*
X85429411Y-66599414D02*
X85429411Y-66205713D01*
X85429411Y-66205713D02*
X85579392Y-66205713D01*
X85579392Y-66205713D02*
X85616888Y-66224461D01*
X85616888Y-66224461D02*
X85635635Y-66243209D01*
X85635635Y-66243209D02*
X85654383Y-66280704D01*
X85654383Y-66280704D02*
X85654383Y-66336947D01*
X85654383Y-66336947D02*
X85635635Y-66374442D01*
X85635635Y-66374442D02*
X85616888Y-66393190D01*
X85616888Y-66393190D02*
X85579392Y-66411938D01*
X85579392Y-66411938D02*
X85429411Y-66411938D01*
X86029336Y-66599414D02*
X85804364Y-66599414D01*
X85916850Y-66599414D02*
X85916850Y-66205713D01*
X85916850Y-66205713D02*
X85879355Y-66261956D01*
X85879355Y-66261956D02*
X85841860Y-66299452D01*
X85841860Y-66299452D02*
X85804364Y-66318199D01*
D13*
X85181905Y-73124819D02*
X85181905Y-72124819D01*
X85181905Y-72124819D02*
X85420000Y-72124819D01*
X85420000Y-72124819D02*
X85562857Y-72172438D01*
X85562857Y-72172438D02*
X85658095Y-72267676D01*
X85658095Y-72267676D02*
X85705714Y-72362914D01*
X85705714Y-72362914D02*
X85753333Y-72553390D01*
X85753333Y-72553390D02*
X85753333Y-72696247D01*
X85753333Y-72696247D02*
X85705714Y-72886723D01*
X85705714Y-72886723D02*
X85658095Y-72981961D01*
X85658095Y-72981961D02*
X85562857Y-73077200D01*
X85562857Y-73077200D02*
X85420000Y-73124819D01*
X85420000Y-73124819D02*
X85181905Y-73124819D01*
X86086667Y-72124819D02*
X86705714Y-72124819D01*
X86705714Y-72124819D02*
X86372381Y-72505771D01*
X86372381Y-72505771D02*
X86515238Y-72505771D01*
X86515238Y-72505771D02*
X86610476Y-72553390D01*
X86610476Y-72553390D02*
X86658095Y-72601009D01*
X86658095Y-72601009D02*
X86705714Y-72696247D01*
X86705714Y-72696247D02*
X86705714Y-72934342D01*
X86705714Y-72934342D02*
X86658095Y-73029580D01*
X86658095Y-73029580D02*
X86610476Y-73077200D01*
X86610476Y-73077200D02*
X86515238Y-73124819D01*
X86515238Y-73124819D02*
X86229524Y-73124819D01*
X86229524Y-73124819D02*
X86134286Y-73077200D01*
X86134286Y-73077200D02*
X86086667Y-73029580D01*
X84058095Y-85224819D02*
X84058095Y-84224819D01*
X84629523Y-85224819D02*
X84200952Y-84653390D01*
X84629523Y-84224819D02*
X84058095Y-84796247D01*
D16*
%TO.C,AMS PWR THRU*%
X79620000Y-59570000D02*
G75*
G02*
X76220000Y-59570000I-1700000J0D01*
G01*
X76220000Y-59570000D02*
G75*
G02*
X79620000Y-59570000I1700000J0D01*
G01*
D17*
%TO.C,J2*%
X49428400Y-49403000D02*
X49428400Y-100457000D01*
X49428400Y-100457000D02*
X52171600Y-100457000D01*
X52171600Y-49403000D02*
X49428400Y-49403000D01*
X52171600Y-100457000D02*
X52171600Y-49403000D01*
D18*
X51181000Y-102235000D02*
G75*
G02*
X50419000Y-102235000I-381000J0D01*
G01*
X50419000Y-102235000D02*
G75*
G02*
X51181000Y-102235000I381000J0D01*
G01*
D17*
%TO.C,AMS RESET*%
X85145800Y-91152040D02*
X85145800Y-93495299D01*
X85657640Y-95444200D02*
X90882360Y-95444200D01*
X90882360Y-89195800D02*
X86077708Y-89195800D01*
X91394200Y-93495299D02*
X91394200Y-91144702D01*
%TO.C,AMS ERROR*%
X89401187Y-69419500D02*
X90994013Y-69419500D01*
X90994013Y-67565300D02*
X89401187Y-67565300D01*
X87632200Y-68492400D02*
G75*
G02*
X87479800Y-68492400I-76200J0D01*
G01*
X87479800Y-68492400D02*
G75*
G02*
X87632200Y-68492400I76200J0D01*
G01*
%TO.C,K1*%
X53294299Y-64032999D02*
X53294299Y-100278799D01*
X53294299Y-100278799D02*
X83545699Y-100278799D01*
X56917995Y-64032999D02*
X53294299Y-64032999D01*
X75917993Y-64032999D02*
X60922005Y-64032999D01*
X83545699Y-64032999D02*
X79922003Y-64032999D01*
X83545699Y-100278799D02*
X83545699Y-64032999D01*
D19*
%TO.C,J1*%
X53030000Y-52550000D02*
X60730000Y-52550000D01*
X53030000Y-62750000D02*
X53030000Y-52550000D01*
X60730000Y-52550000D02*
X60730000Y-62750000D01*
X60730000Y-62750000D02*
X53030000Y-62750000D01*
D20*
X58630000Y-54250000D02*
G75*
G02*
X58430000Y-54250000I-100000J0D01*
G01*
X58430000Y-54250000D02*
G75*
G02*
X58630000Y-54250000I100000J0D01*
G01*
D16*
%TO.C,AMS*%
X90420000Y-97970000D02*
G75*
G02*
X87020000Y-97970000I-1700000J0D01*
G01*
X87020000Y-97970000D02*
G75*
G02*
X90420000Y-97970000I1700000J0D01*
G01*
D17*
%TO.C,J2*%
X92628400Y-49403000D02*
X92628400Y-100457000D01*
X92628400Y-100457000D02*
X95371600Y-100457000D01*
X95371600Y-49403000D02*
X92628400Y-49403000D01*
X95371600Y-100457000D02*
X95371600Y-49403000D01*
D18*
X94381000Y-102235000D02*
G75*
G02*
X93619000Y-102235000I-381000J0D01*
G01*
X93619000Y-102235000D02*
G75*
G02*
X94381000Y-102235000I381000J0D01*
G01*
D16*
%TO.C,D3*%
X84450000Y-76990000D02*
X84450000Y-82430000D01*
X84450000Y-81410000D02*
X87390000Y-81410000D01*
X84450000Y-81530000D02*
X87390000Y-81530000D01*
X84450000Y-81650000D02*
X87390000Y-81650000D01*
X84450000Y-82430000D02*
X87390000Y-82430000D01*
X85920000Y-75970000D02*
X85920000Y-76990000D01*
X85920000Y-83450000D02*
X85920000Y-82430000D01*
X87390000Y-76990000D02*
X84450000Y-76990000D01*
X87390000Y-82430000D02*
X87390000Y-76990000D01*
%TD*%
M02*
