%TF.GenerationSoftware,KiCad,Pcbnew,9.0.4*%
%TF.CreationDate,2025-09-12T16:42:54-04:00*%
%TF.ProjectId,Hall Effect Sensor,48616c6c-2045-4666-9665-63742053656e,rev?*%
%TF.SameCoordinates,Original*%
%TF.FileFunction,Soldermask,Top*%
%TF.FilePolarity,Negative*%
%FSLAX46Y46*%
G04 Gerber Fmt 4.6, Leading zero omitted, Abs format (unit mm)*
G04 Created by KiCad (PCBNEW 9.0.4) date 2025-09-12 16:42:54*
%MOMM*%
%LPD*%
G01*
G04 APERTURE LIST*
%ADD10R,0.558800X1.981200*%
%ADD11C,1.600000*%
%ADD12R,1.700000X1.700000*%
%ADD13C,1.700000*%
G04 APERTURE END LIST*
D10*
%TO.C,opamp1*%
X168595000Y-52713800D03*
X169865000Y-52713800D03*
X171135000Y-52713800D03*
X172405000Y-52713800D03*
X172405000Y-47786200D03*
X171135000Y-47786200D03*
X169865000Y-47786200D03*
X168595000Y-47786200D03*
%TD*%
D11*
%TO.C,R4*%
X180830000Y-57500000D03*
X170670000Y-57500000D03*
%TD*%
%TO.C,R3*%
X170670000Y-61750000D03*
X180830000Y-61750000D03*
%TD*%
%TO.C,R2*%
X156250000Y-60580000D03*
X156250000Y-50420000D03*
%TD*%
%TO.C,R1*%
X161500000Y-50420000D03*
X161500000Y-60580000D03*
%TD*%
D12*
%TO.C,J2*%
X152400000Y-25400000D03*
D13*
X154940000Y-25400000D03*
X157480000Y-25400000D03*
X160020000Y-25400000D03*
X162560000Y-25400000D03*
X165100000Y-25400000D03*
X167640000Y-25400000D03*
X170180000Y-25400000D03*
X172720000Y-25400000D03*
X175260000Y-25400000D03*
X177800000Y-25400000D03*
X180340000Y-25400000D03*
X182880000Y-25400000D03*
X185420000Y-25400000D03*
X187960000Y-25400000D03*
X190500000Y-25400000D03*
X193040000Y-25400000D03*
X195580000Y-25400000D03*
X198120000Y-25400000D03*
X200660000Y-25400000D03*
%TD*%
D12*
%TO.C,J1*%
X152400000Y-68580000D03*
D13*
X154940000Y-68580000D03*
X157480000Y-68580000D03*
X160020000Y-68580000D03*
X162560000Y-68580000D03*
X165100000Y-68580000D03*
X167640000Y-68580000D03*
X170180000Y-68580000D03*
X172720000Y-68580000D03*
X175260000Y-68580000D03*
X177800000Y-68580000D03*
X180340000Y-68580000D03*
X182880000Y-68580000D03*
X185420000Y-68580000D03*
X187960000Y-68580000D03*
X190500000Y-68580000D03*
X193040000Y-68580000D03*
X195580000Y-68580000D03*
X198120000Y-68580000D03*
X200660000Y-68580000D03*
%TD*%
M02*
