%TF.GenerationSoftware,KiCad,Pcbnew,9.0.4*%
%TF.CreationDate,2025-09-12T16:42:54-04:00*%
%TF.ProjectId,Hall Effect Sensor,48616c6c-2045-4666-9665-63742053656e,rev?*%
%TF.SameCoordinates,Original*%
%TF.FileFunction,Copper,L1,Top*%
%TF.FilePolarity,Positive*%
%FSLAX46Y46*%
G04 Gerber Fmt 4.6, Leading zero omitted, Abs format (unit mm)*
G04 Created by KiCad (PCBNEW 9.0.4) date 2025-09-12 16:42:54*
%MOMM*%
%LPD*%
G01*
G04 APERTURE LIST*
%TA.AperFunction,SMDPad,CuDef*%
%ADD10R,0.558800X1.981200*%
%TD*%
%TA.AperFunction,ComponentPad*%
%ADD11C,1.600000*%
%TD*%
%TA.AperFunction,ComponentPad*%
%ADD12R,1.700000X1.700000*%
%TD*%
%TA.AperFunction,ComponentPad*%
%ADD13C,1.700000*%
%TD*%
%TA.AperFunction,Conductor*%
%ADD14C,0.500000*%
%TD*%
G04 APERTURE END LIST*
D10*
%TO.P,opamp1,1,OUTA*%
%TO.N,Vout+*%
X168595000Y-52713800D03*
%TO.P,opamp1,2,INA-*%
%TO.N,Net-(opamp1-INA-)*%
X169865000Y-52713800D03*
%TO.P,opamp1,3,INA+*%
%TO.N,V(2.5V)*%
X171135000Y-52713800D03*
%TO.P,opamp1,4,V-*%
%TO.N,GND*%
X172405000Y-52713800D03*
%TO.P,opamp1,5,INB+*%
%TO.N,unconnected-(opamp1-INB+-Pad5)*%
X172405000Y-47786200D03*
%TO.P,opamp1,6,INB-*%
%TO.N,unconnected-(opamp1-INB--Pad6)*%
X171135000Y-47786200D03*
%TO.P,opamp1,7,OUTB*%
%TO.N,unconnected-(opamp1-OUTB-Pad7)*%
X169865000Y-47786200D03*
%TO.P,opamp1,8,V+*%
%TO.N,+5V in*%
X168595000Y-47786200D03*
%TD*%
D11*
%TO.P,R4,1*%
%TO.N,GND*%
X180830000Y-57500000D03*
%TO.P,R4,2*%
%TO.N,V(2.5V)*%
X170670000Y-57500000D03*
%TD*%
%TO.P,R3,1*%
%TO.N,V(2.5V)*%
X170670000Y-61750000D03*
%TO.P,R3,2*%
%TO.N,+5V in*%
X180830000Y-61750000D03*
%TD*%
%TO.P,R2,1*%
%TO.N,Hall Effect Out*%
X156250000Y-60580000D03*
%TO.P,R2,2*%
%TO.N,Net-(opamp1-INA-)*%
X156250000Y-50420000D03*
%TD*%
%TO.P,R1,1*%
%TO.N,Vout+*%
X161500000Y-50420000D03*
%TO.P,R1,2*%
%TO.N,Net-(opamp1-INA-)*%
X161500000Y-60580000D03*
%TD*%
D12*
%TO.P,J2,1,1*%
%TO.N,fdskgnbdsfg*%
X152400000Y-25400000D03*
D13*
%TO.P,J2,2,2*%
%TO.N,dsfigbhrsdig*%
X154940000Y-25400000D03*
%TO.P,J2,3,3*%
%TO.N,usesless*%
X157480000Y-25400000D03*
%TO.P,J2,4,4*%
%TO.N,yumba*%
X160020000Y-25400000D03*
%TO.P,J2,5,5*%
%TO.N,poin*%
X162560000Y-25400000D03*
%TO.P,J2,6,6*%
%TO.N,unconnected-(J2-Pad6)*%
X165100000Y-25400000D03*
%TO.P,J2,7,7*%
%TO.N,unconnected-(J2-Pad7)*%
X167640000Y-25400000D03*
%TO.P,J2,8,8*%
%TO.N,unconnected-(J2-Pad8)*%
X170180000Y-25400000D03*
%TO.P,J2,9,9*%
%TO.N,unconnected-(J2-Pad9)*%
X172720000Y-25400000D03*
%TO.P,J2,10,10*%
%TO.N,unconnected-(J2-Pad10)*%
X175260000Y-25400000D03*
%TO.P,J2,11,11*%
%TO.N,unconnected-(J2-Pad11)*%
X177800000Y-25400000D03*
%TO.P,J2,12,12*%
%TO.N,unconnected-(J2-Pad12)*%
X180340000Y-25400000D03*
%TO.P,J2,13,13*%
%TO.N,unconnected-(J2-Pad13)*%
X182880000Y-25400000D03*
%TO.P,J2,14,14*%
%TO.N,unconnected-(J2-Pad14)*%
X185420000Y-25400000D03*
%TO.P,J2,15,15*%
%TO.N,unconnected-(J2-Pad15)*%
X187960000Y-25400000D03*
%TO.P,J2,16,16*%
%TO.N,unconnected-(J2-Pad16)*%
X190500000Y-25400000D03*
%TO.P,J2,17,17*%
%TO.N,unconnected-(J2-Pad17)*%
X193040000Y-25400000D03*
%TO.P,J2,18,18*%
%TO.N,unconnected-(J2-Pad18)*%
X195580000Y-25400000D03*
%TO.P,J2,19,19*%
%TO.N,unconnected-(J2-Pad19)*%
X198120000Y-25400000D03*
%TO.P,J2,20,20*%
%TO.N,unconnected-(J2-Pad20)*%
X200660000Y-25400000D03*
%TD*%
D12*
%TO.P,J1,1,1*%
%TO.N,Vout+*%
X152400000Y-68580000D03*
D13*
%TO.P,J1,2,2*%
%TO.N,Hall Effect Out*%
X154940000Y-68580000D03*
%TO.P,J1,3,3*%
%TO.N,GND*%
X157480000Y-68580000D03*
%TO.P,J1,4,4*%
%TO.N,+5V in*%
X160020000Y-68580000D03*
%TO.P,J1,5,5*%
%TO.N,unconnected-(J1-Pad5)*%
X162560000Y-68580000D03*
%TO.P,J1,6,6*%
%TO.N,unconnected-(J1-Pad6)*%
X165100000Y-68580000D03*
%TO.P,J1,7,7*%
%TO.N,unconnected-(J1-Pad7)*%
X167640000Y-68580000D03*
%TO.P,J1,8,8*%
%TO.N,unconnected-(J1-Pad8)*%
X170180000Y-68580000D03*
%TO.P,J1,9,9*%
%TO.N,unconnected-(J1-Pad9)*%
X172720000Y-68580000D03*
%TO.P,J1,10,10*%
%TO.N,unconnected-(J1-Pad10)*%
X175260000Y-68580000D03*
%TO.P,J1,11,11*%
%TO.N,unconnected-(J1-Pad11)*%
X177800000Y-68580000D03*
%TO.P,J1,12,12*%
%TO.N,unconnected-(J1-Pad12)*%
X180340000Y-68580000D03*
%TO.P,J1,13,13*%
%TO.N,unconnected-(J1-Pad13)*%
X182880000Y-68580000D03*
%TO.P,J1,14,14*%
%TO.N,unconnected-(J1-Pad14)*%
X185420000Y-68580000D03*
%TO.P,J1,15,15*%
%TO.N,unconnected-(J1-Pad15)*%
X187960000Y-68580000D03*
%TO.P,J1,16,16*%
%TO.N,unconnected-(J1-Pad16)*%
X190500000Y-68580000D03*
%TO.P,J1,17,17*%
%TO.N,unconnected-(J1-Pad17)*%
X193040000Y-68580000D03*
%TO.P,J1,18,18*%
%TO.N,unconnected-(J1-Pad18)*%
X195580000Y-68580000D03*
%TO.P,J1,19,19*%
%TO.N,unconnected-(J1-Pad19)*%
X198120000Y-68580000D03*
%TO.P,J1,20,20*%
%TO.N,unconnected-(J1-Pad20)*%
X200660000Y-68580000D03*
%TD*%
D14*
%TO.N,Vout+*%
X161500000Y-50420000D02*
X159580000Y-48500000D01*
X155500000Y-48500000D02*
X152400000Y-51600000D01*
X159580000Y-48500000D02*
X155500000Y-48500000D01*
X164873800Y-52713800D02*
X168595000Y-52713800D01*
X162580000Y-50420000D02*
X164873800Y-52713800D01*
X162670000Y-50420000D02*
X162580000Y-50420000D01*
X162580000Y-50420000D02*
X161500000Y-50420000D01*
X152400000Y-51600000D02*
X152400000Y-68580000D01*
%TO.N,Hall Effect Out*%
X156250000Y-60580000D02*
X156250000Y-67270000D01*
X156250000Y-67270000D02*
X154940000Y-68580000D01*
%TO.N,V(2.5V)*%
X170670000Y-61750000D02*
X170670000Y-57500000D01*
X170670000Y-57500000D02*
X170670000Y-53178800D01*
X170670000Y-53178800D02*
X171135000Y-52713800D01*
%TO.N,Net-(opamp1-INA-)*%
X169865000Y-55635000D02*
X169865000Y-52713800D01*
X169865000Y-55635000D02*
X164920000Y-60580000D01*
X161500000Y-60580000D02*
X161500000Y-55670000D01*
X161500000Y-55670000D02*
X156250000Y-50420000D01*
X164920000Y-60580000D02*
X161500000Y-60580000D01*
%TO.N,+5V in*%
X164000000Y-64600000D02*
X160020000Y-68580000D01*
X169460000Y-45750000D02*
X168595000Y-46615000D01*
X173250000Y-45750000D02*
X169460000Y-45750000D01*
X182500000Y-60080000D02*
X182500000Y-55000000D01*
X180830000Y-61750000D02*
X182500000Y-60080000D01*
X168595000Y-46615000D02*
X168595000Y-47786200D01*
X182500000Y-55000000D02*
X173250000Y-45750000D01*
X178080000Y-64500000D02*
X164000000Y-64500000D01*
X180830000Y-61750000D02*
X178080000Y-64500000D01*
X164000000Y-64500000D02*
X164000000Y-64600000D01*
%TO.N,GND*%
X162560000Y-63500000D02*
X157480000Y-68580000D01*
X180830000Y-57500000D02*
X177250000Y-57500000D01*
X172405000Y-52713800D02*
X176043800Y-52713800D01*
X171250000Y-63500000D02*
X162560000Y-63500000D01*
X176043800Y-52713800D02*
X180830000Y-57500000D01*
X177250000Y-57500000D02*
X171250000Y-63500000D01*
%TD*%
M02*
