M48
; DRILL file {KiCad 9.0.4} date 2025-09-12T16:42:52-0400
; FORMAT={-:-/ absolute / metric / decimal}
; #@! TF.CreationDate,2025-09-12T16:42:52-04:00
; #@! TF.GenerationSoftware,Kicad,Pcbnew,9.0.4
; #@! TF.FileFunction,Plated,1,2,PTH
FMAT,2
METRIC
; #@! TA.AperFunction,Plated,PTH,ComponentDrill
T1C0.800
; #@! TA.AperFunction,Plated,PTH,ComponentDrill
T2C1.000
%
G90
G05
T1
X156.25Y-50.42
X156.25Y-60.58
X161.5Y-50.42
X161.5Y-60.58
X170.67Y-57.5
X170.67Y-61.75
X180.83Y-57.5
X180.83Y-61.75
T2
X152.4Y-25.4
X152.4Y-68.58
X154.94Y-25.4
X154.94Y-68.58
X157.48Y-25.4
X157.48Y-68.58
X160.02Y-25.4
X160.02Y-68.58
X162.56Y-25.4
X162.56Y-68.58
X165.1Y-25.4
X165.1Y-68.58
X167.64Y-25.4
X167.64Y-68.58
X170.18Y-25.4
X170.18Y-68.58
X172.72Y-25.4
X172.72Y-68.58
X175.26Y-25.4
X175.26Y-68.58
X177.8Y-25.4
X177.8Y-68.58
X180.34Y-25.4
X180.34Y-68.58
X182.88Y-25.4
X182.88Y-68.58
X185.42Y-25.4
X185.42Y-68.58
X187.96Y-25.4
X187.96Y-68.58
X190.5Y-25.4
X190.5Y-68.58
X193.04Y-25.4
X193.04Y-68.58
X195.58Y-25.4
X195.58Y-68.58
X198.12Y-25.4
X198.12Y-68.58
X200.66Y-25.4
X200.66Y-68.58
M30
