M48
; DRILL file {KiCad 8.0.8} date 2025-02-03T23:35:18-0500
; FORMAT={-:-/ absolute / inch / decimal}
; #@! TF.CreationDate,2025-02-03T23:35:18-05:00
; #@! TF.GenerationSoftware,Kicad,Pcbnew,8.0.8
; #@! TF.FileFunction,Plated,1,2,PTH
FMAT,2
INCH
; #@! TA.AperFunction,Plated,PTH,ViaDrill
T1C0.0157
; #@! TA.AperFunction,Plated,PTH,ViaDrill
T2C0.0197
; #@! TA.AperFunction,Plated,PTH,ComponentDrill
T3C0.0350
; #@! TA.AperFunction,Plated,PTH,ComponentDrill
T4C0.0402
; #@! TA.AperFunction,Plated,PTH,ComponentDrill
T5C0.0630
%
G90
G05
T1
X1.9946Y-1.3074
X2.034Y-1.0909
X2.093Y-1.6027
X2.2308Y-1.4452
X2.445Y-1.6141
X2.4961Y-1.189
X2.5458Y-1.2287
X2.5512Y-1.4808
X2.7033Y-1.583
X2.782Y-1.2877
X2.8214Y-1.3862
T2
X2.4039Y-1.2103
T3
X2.1051Y-1.874
X2.1051Y-2.0079
X2.1051Y-2.1417
X2.5551Y-1.874
X2.5551Y-2.0079
X2.5551Y-2.1417
T4
X2.0Y-1.0
X2.0Y-2.7
X2.1Y-1.0
X2.1Y-2.7
X2.2Y-1.0
X2.2Y-2.7
X2.3Y-1.0
X2.3Y-2.7
X2.4Y-1.0
X2.4Y-2.7
X2.5Y-1.0
X2.5Y-2.7
X2.6Y-1.0
X2.6Y-2.7
X2.7Y-1.0
X2.7Y-2.7
X2.8Y-1.0
X2.8Y-2.7
X2.9Y-1.0
X2.9Y-2.7
T5
X2.7899Y-1.7838
M30
