%TF.GenerationSoftware,KiCad,Pcbnew,8.0.8*%
%TF.CreationDate,2025-02-03T23:35:19-05:00*%
%TF.ProjectId,Precharge Module,50726563-6861-4726-9765-204d6f64756c,rev?*%
%TF.SameCoordinates,Original*%
%TF.FileFunction,Copper,L1,Top*%
%TF.FilePolarity,Positive*%
%FSLAX46Y46*%
G04 Gerber Fmt 4.6, Leading zero omitted, Abs format (unit mm)*
G04 Created by KiCad (PCBNEW 8.0.8) date 2025-02-03 23:35:19*
%MOMM*%
%LPD*%
G01*
G04 APERTURE LIST*
G04 Aperture macros list*
%AMRoundRect*
0 Rectangle with rounded corners*
0 $1 Rounding radius*
0 $2 $3 $4 $5 $6 $7 $8 $9 X,Y pos of 4 corners*
0 Add a 4 corners polygon primitive as box body*
4,1,4,$2,$3,$4,$5,$6,$7,$8,$9,$2,$3,0*
0 Add four circle primitives for the rounded corners*
1,1,$1+$1,$2,$3*
1,1,$1+$1,$4,$5*
1,1,$1+$1,$6,$7*
1,1,$1+$1,$8,$9*
0 Add four rect primitives between the rounded corners*
20,1,$1+$1,$2,$3,$4,$5,0*
20,1,$1+$1,$4,$5,$6,$7,0*
20,1,$1+$1,$6,$7,$8,$9,0*
20,1,$1+$1,$8,$9,$2,$3,0*%
G04 Aperture macros list end*
%TA.AperFunction,SMDPad,CuDef*%
%ADD10R,0.863600X1.600200*%
%TD*%
%TA.AperFunction,SMDPad,CuDef*%
%ADD11R,0.660400X0.279400*%
%TD*%
%TA.AperFunction,SMDPad,CuDef*%
%ADD12R,0.660400X0.381000*%
%TD*%
%TA.AperFunction,SMDPad,CuDef*%
%ADD13R,0.711200X0.939800*%
%TD*%
%TA.AperFunction,ComponentPad*%
%ADD14R,1.397000X1.397000*%
%TD*%
%TA.AperFunction,ComponentPad*%
%ADD15C,1.397000*%
%TD*%
%TA.AperFunction,ComponentPad*%
%ADD16C,3.000000*%
%TD*%
%TA.AperFunction,SMDPad,CuDef*%
%ADD17R,1.219200X0.558800*%
%TD*%
%TA.AperFunction,SMDPad,CuDef*%
%ADD18R,0.955600X2.500000*%
%TD*%
%TA.AperFunction,SMDPad,CuDef*%
%ADD19R,1.016000X1.193800*%
%TD*%
%TA.AperFunction,SMDPad,CuDef*%
%ADD20R,0.855600X1.600000*%
%TD*%
%TA.AperFunction,ComponentPad*%
%ADD21C,1.750000*%
%TD*%
%TA.AperFunction,SMDPad,CuDef*%
%ADD22RoundRect,0.075000X-0.910000X-0.225000X0.910000X-0.225000X0.910000X0.225000X-0.910000X0.225000X0*%
%TD*%
%TA.AperFunction,SMDPad,CuDef*%
%ADD23R,1.346200X0.812800*%
%TD*%
%TA.AperFunction,ViaPad*%
%ADD24C,0.800000*%
%TD*%
%TA.AperFunction,ViaPad*%
%ADD25C,1.000000*%
%TD*%
%TA.AperFunction,Conductor*%
%ADD26C,0.250000*%
%TD*%
%TA.AperFunction,Conductor*%
%ADD27C,0.200000*%
%TD*%
G04 APERTURE END LIST*
D10*
%TO.P,D3,1,K*%
%TO.N,Net-(D3-K)*%
X67663000Y-28708400D03*
%TO.P,D3,2,A*%
%TO.N,Net-(D3-A)*%
X64615000Y-28708400D03*
%TD*%
D11*
%TO.P,Q3,1,1*%
%TO.N,Net-(D2-A)*%
X58167700Y-39308350D03*
%TO.P,Q3,2,2*%
%TO.N,Net-(Q1-C)*%
X58167700Y-40108450D03*
D12*
%TO.P,Q3,3,3*%
%TO.N,Net-(J1-Pad9)*%
X59158300Y-39708400D03*
%TD*%
D13*
%TO.P,R4,1*%
%TO.N,Net-(U1-THR)*%
X61964500Y-34708400D03*
%TO.P,R4,2*%
%TO.N,Net-(Q1-E)*%
X63361500Y-34708400D03*
%TD*%
D14*
%TO.P,R6,1*%
%TO.N,Net-(U1-VCC)*%
X53470000Y-47600000D03*
D15*
%TO.P,R6,2*%
%TO.N,Net-(Q1-E)*%
X64900000Y-47600000D03*
%TD*%
D16*
%TO.P,PC COIL -,1,1*%
%TO.N,Net-(J1-Pad9)*%
X70863000Y-45308400D03*
%TD*%
D17*
%TO.P,Q1,1,B*%
%TO.N,Net-(Q1-B)*%
X68596200Y-35708400D03*
%TO.P,Q1,2,E*%
%TO.N,Net-(Q1-E)*%
X68596200Y-37613400D03*
%TO.P,Q1,3,C*%
%TO.N,Net-(Q1-C)*%
X70729800Y-36660900D03*
%TD*%
D13*
%TO.P,R3,1*%
%TO.N,Net-(D2-K)*%
X50464500Y-40708400D03*
%TO.P,R3,2*%
%TO.N,Net-(Q1-C)*%
X51861500Y-40708400D03*
%TD*%
D18*
%TO.P,C3,1*%
%TO.N,Net-(Q1-E)*%
X63685199Y-40208400D03*
%TO.P,C3,2*%
%TO.N,Net-(Q1-C)*%
X66640801Y-40208400D03*
%TD*%
D10*
%TO.P,D2,1,K*%
%TO.N,Net-(D2-K)*%
X50615000Y-38208400D03*
%TO.P,D2,2,A*%
%TO.N,Net-(D2-A)*%
X53663000Y-38208400D03*
%TD*%
D11*
%TO.P,Q2,1,G*%
%TO.N,Net-(Q2-G)*%
X62653600Y-29108450D03*
%TO.P,Q2,2,S*%
%TO.N,Net-(D3-A)*%
X62653600Y-28308350D03*
D12*
%TO.P,Q2,3,D*%
%TO.N,Net-(Q2-D)*%
X61663000Y-28708400D03*
%TD*%
D19*
%TO.P,R9,1*%
%TO.N,Net-(D3-K)*%
X67738900Y-31208400D03*
%TO.P,R9,2*%
%TO.N,Net-(Q1-C)*%
X66037100Y-31208400D03*
%TD*%
D14*
%TO.P,R8,1*%
%TO.N,Net-(Q1-C)*%
X53470000Y-51000000D03*
D15*
%TO.P,R8,2*%
%TO.N,Net-(Q2-G)*%
X64900000Y-51000000D03*
%TD*%
D20*
%TO.P,C1,1*%
%TO.N,Net-(Q1-C)*%
X56635199Y-34708400D03*
%TO.P,C1,2*%
%TO.N,Net-(U1-CV)*%
X59690801Y-34708400D03*
%TD*%
%TO.P,C2,1*%
%TO.N,Net-(Q1-C)*%
X50635199Y-35208400D03*
%TO.P,C2,2*%
%TO.N,Net-(U1-R)*%
X53690801Y-35208400D03*
%TD*%
D13*
%TO.P,R5,1*%
%TO.N,Net-(U1-VCC)*%
X66266000Y-34208400D03*
%TO.P,R5,2*%
%TO.N,Net-(Q1-B)*%
X67663000Y-34208400D03*
%TD*%
D14*
%TO.P,R7,1*%
%TO.N,Net-(D2-A)*%
X53470000Y-54400000D03*
D15*
%TO.P,R7,2*%
%TO.N,Net-(Q2-G)*%
X64900000Y-54400000D03*
%TD*%
D21*
%TO.P,J1,1,1*%
%TO.N,N/C*%
X50800000Y-68580000D03*
%TO.P,J1,2,2*%
X53340000Y-68580000D03*
%TO.P,J1,3,3*%
X55880000Y-68580000D03*
%TO.P,J1,4,4*%
X58420000Y-68580000D03*
%TO.P,J1,5,5*%
X60960000Y-68580000D03*
%TO.P,J1,6,6*%
X63500000Y-68580000D03*
%TO.P,J1,7,7*%
X66040000Y-68580000D03*
%TO.P,J1,8,8*%
X68580000Y-68580000D03*
%TO.P,J1,9,9*%
X71120000Y-68580000D03*
%TO.P,J1,10,10*%
X73660000Y-68580000D03*
%TD*%
D22*
%TO.P,U1,1,GND*%
%TO.N,Net-(Q1-C)*%
X53693000Y-28803400D03*
%TO.P,U1,2,TR*%
%TO.N,Net-(U1-THR)*%
X53693000Y-30073400D03*
%TO.P,U1,3,Q*%
%TO.N,Net-(D2-A)*%
X53693000Y-31343400D03*
%TO.P,U1,4,R*%
%TO.N,Net-(U1-R)*%
X53693000Y-32613400D03*
%TO.P,U1,5,CV*%
%TO.N,Net-(U1-CV)*%
X58633000Y-32613400D03*
%TO.P,U1,6,THR*%
%TO.N,Net-(U1-THR)*%
X58633000Y-31343400D03*
%TO.P,U1,7,DIS*%
%TO.N,unconnected-(U1-DIS-Pad7)*%
X58633000Y-30073400D03*
%TO.P,U1,8,VCC*%
%TO.N,Net-(U1-VCC)*%
X58633000Y-28803400D03*
%TD*%
D23*
%TO.P,R1,1*%
%TO.N,Net-(U1-R)*%
X50663000Y-30610100D03*
%TO.P,R1,2*%
%TO.N,Net-(U1-VCC)*%
X50663000Y-28806700D03*
%TD*%
D21*
%TO.P,J1,1,1*%
%TO.N,Net-(U1-VCC)*%
X50800000Y-25400000D03*
%TO.P,J1,2,2*%
%TO.N,Net-(Q2-D)*%
X53340000Y-25400000D03*
%TO.P,J1,3,3*%
%TO.N,unconnected-(J1-Pad3)*%
X55880000Y-25400000D03*
%TO.P,J1,4,4*%
%TO.N,Net-(D3-A)*%
X58420000Y-25400000D03*
%TO.P,J1,5,5*%
%TO.N,unconnected-(J1-Pad5)*%
X60960000Y-25400000D03*
%TO.P,J1,6,6*%
%TO.N,unconnected-(J1-Pad6)*%
X63500000Y-25400000D03*
%TO.P,J1,7,7*%
%TO.N,unconnected-(J1-Pad7)*%
X66040000Y-25400000D03*
%TO.P,J1,8,8*%
%TO.N,unconnected-(J1-Pad8)*%
X68580000Y-25400000D03*
%TO.P,J1,9,9*%
%TO.N,Net-(J1-Pad9)*%
X71120000Y-25400000D03*
%TO.P,J1,10,10*%
%TO.N,Net-(Q1-C)*%
X73660000Y-25400000D03*
%TD*%
D24*
%TO.N,Net-(Q1-C)*%
X71663000Y-35208400D03*
X53163000Y-40708400D03*
X50663000Y-33208400D03*
X64663000Y-31208400D03*
X51663000Y-27708400D03*
X56663000Y-36708400D03*
X70663000Y-32708400D03*
X68663000Y-40208400D03*
D25*
%TO.N,Net-(D2-A)*%
X62102300Y-40997700D03*
%TO.N,Net-(U1-VCC)*%
X61059102Y-30740898D03*
%TO.N,Net-(Q1-E)*%
X64800000Y-37613400D03*
%TO.N,Net-(Q2-G)*%
X63400000Y-30200000D03*
%TD*%
D26*
%TO.N,Net-(Q1-C)*%
X66163000Y-31208400D02*
X64663000Y-31208400D01*
X53693000Y-28803400D02*
X52758000Y-28803400D01*
X53163000Y-40708400D02*
X53563000Y-40708400D01*
X56635199Y-36680599D02*
X56663000Y-36708400D01*
X70729800Y-36141600D02*
X71663000Y-35208400D01*
X56635199Y-34708400D02*
X56635199Y-36680599D01*
X69944000Y-33427400D02*
X70663000Y-32708400D01*
X70729800Y-36660900D02*
X70729800Y-36141600D01*
X66640801Y-40208400D02*
X68663000Y-40208400D01*
X51861500Y-40708400D02*
X53163000Y-40708400D01*
X53563000Y-40708400D02*
X54162950Y-40108450D01*
X52758000Y-28803400D02*
X51663000Y-27708400D01*
D27*
X53470000Y-51000000D02*
X52471500Y-50001500D01*
D26*
X50635199Y-33236201D02*
X50663000Y-33208400D01*
X69944000Y-33708400D02*
X69944000Y-33427400D01*
D27*
X52471500Y-41399900D02*
X53163000Y-40708400D01*
X52471500Y-50001500D02*
X52471500Y-41399900D01*
D26*
X54162950Y-40108450D02*
X58167700Y-40108450D01*
X50635199Y-35208400D02*
X50635199Y-33236201D01*
%TO.N,Net-(U1-CV)*%
X58633000Y-32613400D02*
X59690801Y-33671201D01*
X59690801Y-33671201D02*
X59690801Y-34708400D01*
D27*
%TO.N,Net-(U1-R)*%
X50663000Y-30620900D02*
X52655500Y-32613400D01*
X52655500Y-32613400D02*
X53693000Y-32613400D01*
X53693000Y-32613400D02*
X53693000Y-35206201D01*
X53693000Y-35206201D02*
X53690801Y-35208400D01*
D26*
%TO.N,Net-(D2-K)*%
X50615000Y-38208400D02*
X50615000Y-40557900D01*
X50615000Y-40557900D02*
X50464500Y-40708400D01*
%TO.N,Net-(D2-A)*%
X55663000Y-36208400D02*
X53663000Y-38208400D01*
X60297500Y-39192900D02*
X62102300Y-40997700D01*
X72463000Y-39908400D02*
X72463000Y-32008400D01*
X62102300Y-40997700D02*
X63013000Y-41908400D01*
X70463000Y-41908400D02*
X72463000Y-39908400D01*
X55663000Y-36208400D02*
X55663000Y-36803650D01*
X55663000Y-36803650D02*
X58167700Y-39308350D01*
X58283150Y-39192900D02*
X60297500Y-39192900D01*
X72463000Y-32008400D02*
X71663000Y-31208400D01*
X54677999Y-31343400D02*
X55663000Y-32328401D01*
X53693000Y-31343400D02*
X54677999Y-31343400D01*
X71663000Y-31208400D02*
X70225000Y-31208400D01*
X55663000Y-32328401D02*
X55663000Y-36208400D01*
X58167700Y-39308350D02*
X58283150Y-39192900D01*
X63013000Y-41908400D02*
X70463000Y-41908400D01*
D27*
%TO.N,Net-(D3-A)*%
X64214950Y-28308350D02*
X64615000Y-28708400D01*
D26*
X62653600Y-28308350D02*
X60920250Y-26575000D01*
D27*
X62653600Y-28308350D02*
X64214950Y-28308350D01*
D26*
X60920250Y-26575000D02*
X59595000Y-26575000D01*
X59595000Y-26575000D02*
X58420000Y-25400000D01*
D27*
%TO.N,Net-(D3-K)*%
X67663000Y-31158400D02*
X67613000Y-31208400D01*
X67663000Y-28708400D02*
X67663000Y-31158400D01*
D26*
%TO.N,Net-(Q2-D)*%
X61132800Y-28708400D02*
X59632800Y-27208400D01*
X54163000Y-27208400D02*
X54163000Y-26223000D01*
X61663000Y-28708400D02*
X61132800Y-28708400D01*
X54163000Y-26223000D02*
X53340000Y-25400000D01*
X59632800Y-27208400D02*
X54163000Y-27208400D01*
D27*
%TO.N,Net-(J1-Pad9)*%
X74088000Y-28368000D02*
X74088000Y-42083400D01*
X74088000Y-42083400D02*
X70863000Y-45308400D01*
D26*
X63263000Y-45308400D02*
X70863000Y-45308400D01*
D27*
X71120000Y-25400000D02*
X74088000Y-28368000D01*
D26*
X59158300Y-39708400D02*
X59158300Y-41203700D01*
X59158300Y-41203700D02*
X63263000Y-45308400D01*
%TO.N,Net-(U1-VCC)*%
X59617999Y-29299795D02*
X61059102Y-30740898D01*
X59617999Y-28803400D02*
X59617999Y-29299795D01*
X58633000Y-28803400D02*
X57488000Y-27658400D01*
X53058400Y-27658400D02*
X50800000Y-25400000D01*
D27*
X50663000Y-28795900D02*
X50663000Y-25537000D01*
D26*
X59617999Y-28803400D02*
X58633000Y-28803400D01*
D27*
X50663000Y-25537000D02*
X50800000Y-25400000D01*
D26*
X57488000Y-27658400D02*
X53058400Y-27658400D01*
X61059102Y-30740898D02*
X64526604Y-34208400D01*
X64526604Y-34208400D02*
X66266000Y-34208400D01*
%TO.N,Net-(Q1-E)*%
X68596200Y-37613400D02*
X64800000Y-37613400D01*
X64800000Y-37613400D02*
X63456500Y-37613400D01*
X63361500Y-34708400D02*
X63361500Y-37708400D01*
X63361500Y-37708400D02*
X63361500Y-39884701D01*
X63361500Y-39884701D02*
X63685199Y-40208400D01*
X63456500Y-37613400D02*
X63361500Y-37708400D01*
%TO.N,Net-(Q1-B)*%
X68596200Y-35708400D02*
X68596200Y-35141600D01*
X68596200Y-35141600D02*
X67663000Y-34208400D01*
D27*
%TO.N,Net-(Q2-G)*%
X62653600Y-29108450D02*
X62653600Y-29453600D01*
X62653600Y-29453600D02*
X63400000Y-30200000D01*
X64900000Y-54400000D02*
X64900000Y-51000000D01*
D26*
%TO.N,Net-(U1-THR)*%
X58633000Y-31343400D02*
X57648001Y-31343400D01*
X61964500Y-33689901D02*
X61964500Y-34708400D01*
X58633000Y-31343400D02*
X59617999Y-31343400D01*
X57648001Y-31343400D02*
X56378001Y-30073400D01*
X59617999Y-31343400D02*
X61964500Y-33689901D01*
X56378001Y-30073400D02*
X53693000Y-30073400D01*
%TD*%
M02*
