%TF.GenerationSoftware,KiCad,Pcbnew,8.0.7*%
%TF.CreationDate,2025-01-28T21:13:21-05:00*%
%TF.ProjectId,Throttle Latching Module,5468726f-7474-46c6-9520-4c6174636869,rev?*%
%TF.SameCoordinates,Original*%
%TF.FileFunction,Profile,NP*%
%FSLAX46Y46*%
G04 Gerber Fmt 4.6, Leading zero omitted, Abs format (unit mm)*
G04 Created by KiCad (PCBNEW 8.0.7) date 2025-01-28 21:13:21*
%MOMM*%
%LPD*%
G01*
G04 APERTURE LIST*
%TA.AperFunction,Profile*%
%ADD10C,0.054000*%
%TD*%
%ADD11C,0.150000*%
%TA.AperFunction,Profile*%
%ADD12C,0.050000*%
%TD*%
G04 APERTURE END LIST*
D10*
X21500000Y-21500000D02*
X67500000Y-21500000D01*
X67500000Y-46500000D01*
X21500000Y-46500000D01*
X21500000Y-21500000D01*
D11*
X40357143Y-15438153D02*
X40357143Y-16104820D01*
X40119048Y-15057201D02*
X39880953Y-15771486D01*
X39880953Y-15771486D02*
X40500000Y-15771486D01*
X41309524Y-15104820D02*
X41119048Y-15104820D01*
X41119048Y-15104820D02*
X41023810Y-15152439D01*
X41023810Y-15152439D02*
X40976191Y-15200058D01*
X40976191Y-15200058D02*
X40880953Y-15342915D01*
X40880953Y-15342915D02*
X40833334Y-15533391D01*
X40833334Y-15533391D02*
X40833334Y-15914343D01*
X40833334Y-15914343D02*
X40880953Y-16009581D01*
X40880953Y-16009581D02*
X40928572Y-16057201D01*
X40928572Y-16057201D02*
X41023810Y-16104820D01*
X41023810Y-16104820D02*
X41214286Y-16104820D01*
X41214286Y-16104820D02*
X41309524Y-16057201D01*
X41309524Y-16057201D02*
X41357143Y-16009581D01*
X41357143Y-16009581D02*
X41404762Y-15914343D01*
X41404762Y-15914343D02*
X41404762Y-15676248D01*
X41404762Y-15676248D02*
X41357143Y-15581010D01*
X41357143Y-15581010D02*
X41309524Y-15533391D01*
X41309524Y-15533391D02*
X41214286Y-15485772D01*
X41214286Y-15485772D02*
X41023810Y-15485772D01*
X41023810Y-15485772D02*
X40928572Y-15533391D01*
X40928572Y-15533391D02*
X40880953Y-15581010D01*
X40880953Y-15581010D02*
X40833334Y-15676248D01*
X41833334Y-16009581D02*
X41880953Y-16057201D01*
X41880953Y-16057201D02*
X41833334Y-16104820D01*
X41833334Y-16104820D02*
X41785715Y-16057201D01*
X41785715Y-16057201D02*
X41833334Y-16009581D01*
X41833334Y-16009581D02*
X41833334Y-16104820D01*
X42500000Y-15104820D02*
X42595238Y-15104820D01*
X42595238Y-15104820D02*
X42690476Y-15152439D01*
X42690476Y-15152439D02*
X42738095Y-15200058D01*
X42738095Y-15200058D02*
X42785714Y-15295296D01*
X42785714Y-15295296D02*
X42833333Y-15485772D01*
X42833333Y-15485772D02*
X42833333Y-15723867D01*
X42833333Y-15723867D02*
X42785714Y-15914343D01*
X42785714Y-15914343D02*
X42738095Y-16009581D01*
X42738095Y-16009581D02*
X42690476Y-16057201D01*
X42690476Y-16057201D02*
X42595238Y-16104820D01*
X42595238Y-16104820D02*
X42500000Y-16104820D01*
X42500000Y-16104820D02*
X42404762Y-16057201D01*
X42404762Y-16057201D02*
X42357143Y-16009581D01*
X42357143Y-16009581D02*
X42309524Y-15914343D01*
X42309524Y-15914343D02*
X42261905Y-15723867D01*
X42261905Y-15723867D02*
X42261905Y-15485772D01*
X42261905Y-15485772D02*
X42309524Y-15295296D01*
X42309524Y-15295296D02*
X42357143Y-15200058D01*
X42357143Y-15200058D02*
X42404762Y-15152439D01*
X42404762Y-15152439D02*
X42500000Y-15104820D01*
X43452381Y-15104820D02*
X43547619Y-15104820D01*
X43547619Y-15104820D02*
X43642857Y-15152439D01*
X43642857Y-15152439D02*
X43690476Y-15200058D01*
X43690476Y-15200058D02*
X43738095Y-15295296D01*
X43738095Y-15295296D02*
X43785714Y-15485772D01*
X43785714Y-15485772D02*
X43785714Y-15723867D01*
X43785714Y-15723867D02*
X43738095Y-15914343D01*
X43738095Y-15914343D02*
X43690476Y-16009581D01*
X43690476Y-16009581D02*
X43642857Y-16057201D01*
X43642857Y-16057201D02*
X43547619Y-16104820D01*
X43547619Y-16104820D02*
X43452381Y-16104820D01*
X43452381Y-16104820D02*
X43357143Y-16057201D01*
X43357143Y-16057201D02*
X43309524Y-16009581D01*
X43309524Y-16009581D02*
X43261905Y-15914343D01*
X43261905Y-15914343D02*
X43214286Y-15723867D01*
X43214286Y-15723867D02*
X43214286Y-15485772D01*
X43214286Y-15485772D02*
X43261905Y-15295296D01*
X43261905Y-15295296D02*
X43309524Y-15200058D01*
X43309524Y-15200058D02*
X43357143Y-15152439D01*
X43357143Y-15152439D02*
X43452381Y-15104820D01*
X44404762Y-15104820D02*
X44500000Y-15104820D01*
X44500000Y-15104820D02*
X44595238Y-15152439D01*
X44595238Y-15152439D02*
X44642857Y-15200058D01*
X44642857Y-15200058D02*
X44690476Y-15295296D01*
X44690476Y-15295296D02*
X44738095Y-15485772D01*
X44738095Y-15485772D02*
X44738095Y-15723867D01*
X44738095Y-15723867D02*
X44690476Y-15914343D01*
X44690476Y-15914343D02*
X44642857Y-16009581D01*
X44642857Y-16009581D02*
X44595238Y-16057201D01*
X44595238Y-16057201D02*
X44500000Y-16104820D01*
X44500000Y-16104820D02*
X44404762Y-16104820D01*
X44404762Y-16104820D02*
X44309524Y-16057201D01*
X44309524Y-16057201D02*
X44261905Y-16009581D01*
X44261905Y-16009581D02*
X44214286Y-15914343D01*
X44214286Y-15914343D02*
X44166667Y-15723867D01*
X44166667Y-15723867D02*
X44166667Y-15485772D01*
X44166667Y-15485772D02*
X44214286Y-15295296D01*
X44214286Y-15295296D02*
X44261905Y-15200058D01*
X44261905Y-15200058D02*
X44309524Y-15152439D01*
X44309524Y-15152439D02*
X44404762Y-15104820D01*
X45357143Y-15104820D02*
X45452381Y-15104820D01*
X45452381Y-15104820D02*
X45547619Y-15152439D01*
X45547619Y-15152439D02*
X45595238Y-15200058D01*
X45595238Y-15200058D02*
X45642857Y-15295296D01*
X45642857Y-15295296D02*
X45690476Y-15485772D01*
X45690476Y-15485772D02*
X45690476Y-15723867D01*
X45690476Y-15723867D02*
X45642857Y-15914343D01*
X45642857Y-15914343D02*
X45595238Y-16009581D01*
X45595238Y-16009581D02*
X45547619Y-16057201D01*
X45547619Y-16057201D02*
X45452381Y-16104820D01*
X45452381Y-16104820D02*
X45357143Y-16104820D01*
X45357143Y-16104820D02*
X45261905Y-16057201D01*
X45261905Y-16057201D02*
X45214286Y-16009581D01*
X45214286Y-16009581D02*
X45166667Y-15914343D01*
X45166667Y-15914343D02*
X45119048Y-15723867D01*
X45119048Y-15723867D02*
X45119048Y-15485772D01*
X45119048Y-15485772D02*
X45166667Y-15295296D01*
X45166667Y-15295296D02*
X45214286Y-15200058D01*
X45214286Y-15200058D02*
X45261905Y-15152439D01*
X45261905Y-15152439D02*
X45357143Y-15104820D01*
X46880953Y-16104820D02*
X46880953Y-15438153D01*
X46880953Y-15533391D02*
X46928572Y-15485772D01*
X46928572Y-15485772D02*
X47023810Y-15438153D01*
X47023810Y-15438153D02*
X47166667Y-15438153D01*
X47166667Y-15438153D02*
X47261905Y-15485772D01*
X47261905Y-15485772D02*
X47309524Y-15581010D01*
X47309524Y-15581010D02*
X47309524Y-16104820D01*
X47309524Y-15581010D02*
X47357143Y-15485772D01*
X47357143Y-15485772D02*
X47452381Y-15438153D01*
X47452381Y-15438153D02*
X47595238Y-15438153D01*
X47595238Y-15438153D02*
X47690477Y-15485772D01*
X47690477Y-15485772D02*
X47738096Y-15581010D01*
X47738096Y-15581010D02*
X47738096Y-16104820D01*
X48214286Y-16104820D02*
X48214286Y-15438153D01*
X48214286Y-15533391D02*
X48261905Y-15485772D01*
X48261905Y-15485772D02*
X48357143Y-15438153D01*
X48357143Y-15438153D02*
X48500000Y-15438153D01*
X48500000Y-15438153D02*
X48595238Y-15485772D01*
X48595238Y-15485772D02*
X48642857Y-15581010D01*
X48642857Y-15581010D02*
X48642857Y-16104820D01*
X48642857Y-15581010D02*
X48690476Y-15485772D01*
X48690476Y-15485772D02*
X48785714Y-15438153D01*
X48785714Y-15438153D02*
X48928571Y-15438153D01*
X48928571Y-15438153D02*
X49023810Y-15485772D01*
X49023810Y-15485772D02*
X49071429Y-15581010D01*
X49071429Y-15581010D02*
X49071429Y-16104820D01*
D12*
X67500000Y-21000000D02*
X67500000Y-16213581D01*
X21500000Y-21000000D02*
X21500000Y-16213581D01*
X67500000Y-16800001D02*
X21500000Y-16800001D01*
X67500000Y-16800001D02*
X21500000Y-16800001D01*
X67500000Y-16800001D02*
X66373496Y-17386422D01*
X67500000Y-16800001D02*
X66373496Y-16213580D01*
X21500000Y-16800001D02*
X22626504Y-16213580D01*
X21500000Y-16800001D02*
X22626504Y-17386422D01*
D11*
X13700058Y-38619046D02*
X13652439Y-38571427D01*
X13652439Y-38571427D02*
X13604820Y-38476189D01*
X13604820Y-38476189D02*
X13604820Y-38238094D01*
X13604820Y-38238094D02*
X13652439Y-38142856D01*
X13652439Y-38142856D02*
X13700058Y-38095237D01*
X13700058Y-38095237D02*
X13795296Y-38047618D01*
X13795296Y-38047618D02*
X13890534Y-38047618D01*
X13890534Y-38047618D02*
X14033391Y-38095237D01*
X14033391Y-38095237D02*
X14604820Y-38666665D01*
X14604820Y-38666665D02*
X14604820Y-38047618D01*
X13604820Y-37142856D02*
X13604820Y-37619046D01*
X13604820Y-37619046D02*
X14081010Y-37666665D01*
X14081010Y-37666665D02*
X14033391Y-37619046D01*
X14033391Y-37619046D02*
X13985772Y-37523808D01*
X13985772Y-37523808D02*
X13985772Y-37285713D01*
X13985772Y-37285713D02*
X14033391Y-37190475D01*
X14033391Y-37190475D02*
X14081010Y-37142856D01*
X14081010Y-37142856D02*
X14176248Y-37095237D01*
X14176248Y-37095237D02*
X14414343Y-37095237D01*
X14414343Y-37095237D02*
X14509581Y-37142856D01*
X14509581Y-37142856D02*
X14557201Y-37190475D01*
X14557201Y-37190475D02*
X14604820Y-37285713D01*
X14604820Y-37285713D02*
X14604820Y-37523808D01*
X14604820Y-37523808D02*
X14557201Y-37619046D01*
X14557201Y-37619046D02*
X14509581Y-37666665D01*
X14509581Y-36666665D02*
X14557201Y-36619046D01*
X14557201Y-36619046D02*
X14604820Y-36666665D01*
X14604820Y-36666665D02*
X14557201Y-36714284D01*
X14557201Y-36714284D02*
X14509581Y-36666665D01*
X14509581Y-36666665D02*
X14604820Y-36666665D01*
X13604820Y-35999999D02*
X13604820Y-35904761D01*
X13604820Y-35904761D02*
X13652439Y-35809523D01*
X13652439Y-35809523D02*
X13700058Y-35761904D01*
X13700058Y-35761904D02*
X13795296Y-35714285D01*
X13795296Y-35714285D02*
X13985772Y-35666666D01*
X13985772Y-35666666D02*
X14223867Y-35666666D01*
X14223867Y-35666666D02*
X14414343Y-35714285D01*
X14414343Y-35714285D02*
X14509581Y-35761904D01*
X14509581Y-35761904D02*
X14557201Y-35809523D01*
X14557201Y-35809523D02*
X14604820Y-35904761D01*
X14604820Y-35904761D02*
X14604820Y-35999999D01*
X14604820Y-35999999D02*
X14557201Y-36095237D01*
X14557201Y-36095237D02*
X14509581Y-36142856D01*
X14509581Y-36142856D02*
X14414343Y-36190475D01*
X14414343Y-36190475D02*
X14223867Y-36238094D01*
X14223867Y-36238094D02*
X13985772Y-36238094D01*
X13985772Y-36238094D02*
X13795296Y-36190475D01*
X13795296Y-36190475D02*
X13700058Y-36142856D01*
X13700058Y-36142856D02*
X13652439Y-36095237D01*
X13652439Y-36095237D02*
X13604820Y-35999999D01*
X13604820Y-35047618D02*
X13604820Y-34952380D01*
X13604820Y-34952380D02*
X13652439Y-34857142D01*
X13652439Y-34857142D02*
X13700058Y-34809523D01*
X13700058Y-34809523D02*
X13795296Y-34761904D01*
X13795296Y-34761904D02*
X13985772Y-34714285D01*
X13985772Y-34714285D02*
X14223867Y-34714285D01*
X14223867Y-34714285D02*
X14414343Y-34761904D01*
X14414343Y-34761904D02*
X14509581Y-34809523D01*
X14509581Y-34809523D02*
X14557201Y-34857142D01*
X14557201Y-34857142D02*
X14604820Y-34952380D01*
X14604820Y-34952380D02*
X14604820Y-35047618D01*
X14604820Y-35047618D02*
X14557201Y-35142856D01*
X14557201Y-35142856D02*
X14509581Y-35190475D01*
X14509581Y-35190475D02*
X14414343Y-35238094D01*
X14414343Y-35238094D02*
X14223867Y-35285713D01*
X14223867Y-35285713D02*
X13985772Y-35285713D01*
X13985772Y-35285713D02*
X13795296Y-35238094D01*
X13795296Y-35238094D02*
X13700058Y-35190475D01*
X13700058Y-35190475D02*
X13652439Y-35142856D01*
X13652439Y-35142856D02*
X13604820Y-35047618D01*
X13604820Y-34095237D02*
X13604820Y-33999999D01*
X13604820Y-33999999D02*
X13652439Y-33904761D01*
X13652439Y-33904761D02*
X13700058Y-33857142D01*
X13700058Y-33857142D02*
X13795296Y-33809523D01*
X13795296Y-33809523D02*
X13985772Y-33761904D01*
X13985772Y-33761904D02*
X14223867Y-33761904D01*
X14223867Y-33761904D02*
X14414343Y-33809523D01*
X14414343Y-33809523D02*
X14509581Y-33857142D01*
X14509581Y-33857142D02*
X14557201Y-33904761D01*
X14557201Y-33904761D02*
X14604820Y-33999999D01*
X14604820Y-33999999D02*
X14604820Y-34095237D01*
X14604820Y-34095237D02*
X14557201Y-34190475D01*
X14557201Y-34190475D02*
X14509581Y-34238094D01*
X14509581Y-34238094D02*
X14414343Y-34285713D01*
X14414343Y-34285713D02*
X14223867Y-34333332D01*
X14223867Y-34333332D02*
X13985772Y-34333332D01*
X13985772Y-34333332D02*
X13795296Y-34285713D01*
X13795296Y-34285713D02*
X13700058Y-34238094D01*
X13700058Y-34238094D02*
X13652439Y-34190475D01*
X13652439Y-34190475D02*
X13604820Y-34095237D01*
X13604820Y-33142856D02*
X13604820Y-33047618D01*
X13604820Y-33047618D02*
X13652439Y-32952380D01*
X13652439Y-32952380D02*
X13700058Y-32904761D01*
X13700058Y-32904761D02*
X13795296Y-32857142D01*
X13795296Y-32857142D02*
X13985772Y-32809523D01*
X13985772Y-32809523D02*
X14223867Y-32809523D01*
X14223867Y-32809523D02*
X14414343Y-32857142D01*
X14414343Y-32857142D02*
X14509581Y-32904761D01*
X14509581Y-32904761D02*
X14557201Y-32952380D01*
X14557201Y-32952380D02*
X14604820Y-33047618D01*
X14604820Y-33047618D02*
X14604820Y-33142856D01*
X14604820Y-33142856D02*
X14557201Y-33238094D01*
X14557201Y-33238094D02*
X14509581Y-33285713D01*
X14509581Y-33285713D02*
X14414343Y-33333332D01*
X14414343Y-33333332D02*
X14223867Y-33380951D01*
X14223867Y-33380951D02*
X13985772Y-33380951D01*
X13985772Y-33380951D02*
X13795296Y-33333332D01*
X13795296Y-33333332D02*
X13700058Y-33285713D01*
X13700058Y-33285713D02*
X13652439Y-33238094D01*
X13652439Y-33238094D02*
X13604820Y-33142856D01*
X14604820Y-31619046D02*
X13938153Y-31619046D01*
X14033391Y-31619046D02*
X13985772Y-31571427D01*
X13985772Y-31571427D02*
X13938153Y-31476189D01*
X13938153Y-31476189D02*
X13938153Y-31333332D01*
X13938153Y-31333332D02*
X13985772Y-31238094D01*
X13985772Y-31238094D02*
X14081010Y-31190475D01*
X14081010Y-31190475D02*
X14604820Y-31190475D01*
X14081010Y-31190475D02*
X13985772Y-31142856D01*
X13985772Y-31142856D02*
X13938153Y-31047618D01*
X13938153Y-31047618D02*
X13938153Y-30904761D01*
X13938153Y-30904761D02*
X13985772Y-30809522D01*
X13985772Y-30809522D02*
X14081010Y-30761903D01*
X14081010Y-30761903D02*
X14604820Y-30761903D01*
X14604820Y-30285713D02*
X13938153Y-30285713D01*
X14033391Y-30285713D02*
X13985772Y-30238094D01*
X13985772Y-30238094D02*
X13938153Y-30142856D01*
X13938153Y-30142856D02*
X13938153Y-29999999D01*
X13938153Y-29999999D02*
X13985772Y-29904761D01*
X13985772Y-29904761D02*
X14081010Y-29857142D01*
X14081010Y-29857142D02*
X14604820Y-29857142D01*
X14081010Y-29857142D02*
X13985772Y-29809523D01*
X13985772Y-29809523D02*
X13938153Y-29714285D01*
X13938153Y-29714285D02*
X13938153Y-29571428D01*
X13938153Y-29571428D02*
X13985772Y-29476189D01*
X13985772Y-29476189D02*
X14081010Y-29428570D01*
X14081010Y-29428570D02*
X14604820Y-29428570D01*
D12*
X21000000Y-21500000D02*
X14713581Y-21500000D01*
X21000000Y-46500000D02*
X14713581Y-46500000D01*
X15300001Y-21500000D02*
X15300001Y-46500000D01*
X15300001Y-21500000D02*
X15300001Y-46500000D01*
X15300001Y-21500000D02*
X15886422Y-22626504D01*
X15300001Y-21500000D02*
X14713580Y-22626504D01*
X15300001Y-46500000D02*
X14713580Y-45373496D01*
X15300001Y-46500000D02*
X15886422Y-45373496D01*
D11*
X39997143Y-18648153D02*
X39997143Y-19314820D01*
X39759048Y-18267201D02*
X39520953Y-18981486D01*
X39520953Y-18981486D02*
X40140000Y-18981486D01*
X40425715Y-18314820D02*
X41044762Y-18314820D01*
X41044762Y-18314820D02*
X40711429Y-18695772D01*
X40711429Y-18695772D02*
X40854286Y-18695772D01*
X40854286Y-18695772D02*
X40949524Y-18743391D01*
X40949524Y-18743391D02*
X40997143Y-18791010D01*
X40997143Y-18791010D02*
X41044762Y-18886248D01*
X41044762Y-18886248D02*
X41044762Y-19124343D01*
X41044762Y-19124343D02*
X40997143Y-19219581D01*
X40997143Y-19219581D02*
X40949524Y-19267201D01*
X40949524Y-19267201D02*
X40854286Y-19314820D01*
X40854286Y-19314820D02*
X40568572Y-19314820D01*
X40568572Y-19314820D02*
X40473334Y-19267201D01*
X40473334Y-19267201D02*
X40425715Y-19219581D01*
X41473334Y-19219581D02*
X41520953Y-19267201D01*
X41520953Y-19267201D02*
X41473334Y-19314820D01*
X41473334Y-19314820D02*
X41425715Y-19267201D01*
X41425715Y-19267201D02*
X41473334Y-19219581D01*
X41473334Y-19219581D02*
X41473334Y-19314820D01*
X42473333Y-19314820D02*
X41901905Y-19314820D01*
X42187619Y-19314820D02*
X42187619Y-18314820D01*
X42187619Y-18314820D02*
X42092381Y-18457677D01*
X42092381Y-18457677D02*
X41997143Y-18552915D01*
X41997143Y-18552915D02*
X41901905Y-18600534D01*
X43044762Y-18743391D02*
X42949524Y-18695772D01*
X42949524Y-18695772D02*
X42901905Y-18648153D01*
X42901905Y-18648153D02*
X42854286Y-18552915D01*
X42854286Y-18552915D02*
X42854286Y-18505296D01*
X42854286Y-18505296D02*
X42901905Y-18410058D01*
X42901905Y-18410058D02*
X42949524Y-18362439D01*
X42949524Y-18362439D02*
X43044762Y-18314820D01*
X43044762Y-18314820D02*
X43235238Y-18314820D01*
X43235238Y-18314820D02*
X43330476Y-18362439D01*
X43330476Y-18362439D02*
X43378095Y-18410058D01*
X43378095Y-18410058D02*
X43425714Y-18505296D01*
X43425714Y-18505296D02*
X43425714Y-18552915D01*
X43425714Y-18552915D02*
X43378095Y-18648153D01*
X43378095Y-18648153D02*
X43330476Y-18695772D01*
X43330476Y-18695772D02*
X43235238Y-18743391D01*
X43235238Y-18743391D02*
X43044762Y-18743391D01*
X43044762Y-18743391D02*
X42949524Y-18791010D01*
X42949524Y-18791010D02*
X42901905Y-18838629D01*
X42901905Y-18838629D02*
X42854286Y-18933867D01*
X42854286Y-18933867D02*
X42854286Y-19124343D01*
X42854286Y-19124343D02*
X42901905Y-19219581D01*
X42901905Y-19219581D02*
X42949524Y-19267201D01*
X42949524Y-19267201D02*
X43044762Y-19314820D01*
X43044762Y-19314820D02*
X43235238Y-19314820D01*
X43235238Y-19314820D02*
X43330476Y-19267201D01*
X43330476Y-19267201D02*
X43378095Y-19219581D01*
X43378095Y-19219581D02*
X43425714Y-19124343D01*
X43425714Y-19124343D02*
X43425714Y-18933867D01*
X43425714Y-18933867D02*
X43378095Y-18838629D01*
X43378095Y-18838629D02*
X43330476Y-18791010D01*
X43330476Y-18791010D02*
X43235238Y-18743391D01*
X44044762Y-18314820D02*
X44140000Y-18314820D01*
X44140000Y-18314820D02*
X44235238Y-18362439D01*
X44235238Y-18362439D02*
X44282857Y-18410058D01*
X44282857Y-18410058D02*
X44330476Y-18505296D01*
X44330476Y-18505296D02*
X44378095Y-18695772D01*
X44378095Y-18695772D02*
X44378095Y-18933867D01*
X44378095Y-18933867D02*
X44330476Y-19124343D01*
X44330476Y-19124343D02*
X44282857Y-19219581D01*
X44282857Y-19219581D02*
X44235238Y-19267201D01*
X44235238Y-19267201D02*
X44140000Y-19314820D01*
X44140000Y-19314820D02*
X44044762Y-19314820D01*
X44044762Y-19314820D02*
X43949524Y-19267201D01*
X43949524Y-19267201D02*
X43901905Y-19219581D01*
X43901905Y-19219581D02*
X43854286Y-19124343D01*
X43854286Y-19124343D02*
X43806667Y-18933867D01*
X43806667Y-18933867D02*
X43806667Y-18695772D01*
X43806667Y-18695772D02*
X43854286Y-18505296D01*
X43854286Y-18505296D02*
X43901905Y-18410058D01*
X43901905Y-18410058D02*
X43949524Y-18362439D01*
X43949524Y-18362439D02*
X44044762Y-18314820D01*
X44997143Y-18314820D02*
X45092381Y-18314820D01*
X45092381Y-18314820D02*
X45187619Y-18362439D01*
X45187619Y-18362439D02*
X45235238Y-18410058D01*
X45235238Y-18410058D02*
X45282857Y-18505296D01*
X45282857Y-18505296D02*
X45330476Y-18695772D01*
X45330476Y-18695772D02*
X45330476Y-18933867D01*
X45330476Y-18933867D02*
X45282857Y-19124343D01*
X45282857Y-19124343D02*
X45235238Y-19219581D01*
X45235238Y-19219581D02*
X45187619Y-19267201D01*
X45187619Y-19267201D02*
X45092381Y-19314820D01*
X45092381Y-19314820D02*
X44997143Y-19314820D01*
X44997143Y-19314820D02*
X44901905Y-19267201D01*
X44901905Y-19267201D02*
X44854286Y-19219581D01*
X44854286Y-19219581D02*
X44806667Y-19124343D01*
X44806667Y-19124343D02*
X44759048Y-18933867D01*
X44759048Y-18933867D02*
X44759048Y-18695772D01*
X44759048Y-18695772D02*
X44806667Y-18505296D01*
X44806667Y-18505296D02*
X44854286Y-18410058D01*
X44854286Y-18410058D02*
X44901905Y-18362439D01*
X44901905Y-18362439D02*
X44997143Y-18314820D01*
X46520953Y-19314820D02*
X46520953Y-18648153D01*
X46520953Y-18743391D02*
X46568572Y-18695772D01*
X46568572Y-18695772D02*
X46663810Y-18648153D01*
X46663810Y-18648153D02*
X46806667Y-18648153D01*
X46806667Y-18648153D02*
X46901905Y-18695772D01*
X46901905Y-18695772D02*
X46949524Y-18791010D01*
X46949524Y-18791010D02*
X46949524Y-19314820D01*
X46949524Y-18791010D02*
X46997143Y-18695772D01*
X46997143Y-18695772D02*
X47092381Y-18648153D01*
X47092381Y-18648153D02*
X47235238Y-18648153D01*
X47235238Y-18648153D02*
X47330477Y-18695772D01*
X47330477Y-18695772D02*
X47378096Y-18791010D01*
X47378096Y-18791010D02*
X47378096Y-19314820D01*
X47854286Y-19314820D02*
X47854286Y-18648153D01*
X47854286Y-18743391D02*
X47901905Y-18695772D01*
X47901905Y-18695772D02*
X47997143Y-18648153D01*
X47997143Y-18648153D02*
X48140000Y-18648153D01*
X48140000Y-18648153D02*
X48235238Y-18695772D01*
X48235238Y-18695772D02*
X48282857Y-18791010D01*
X48282857Y-18791010D02*
X48282857Y-19314820D01*
X48282857Y-18791010D02*
X48330476Y-18695772D01*
X48330476Y-18695772D02*
X48425714Y-18648153D01*
X48425714Y-18648153D02*
X48568571Y-18648153D01*
X48568571Y-18648153D02*
X48663810Y-18695772D01*
X48663810Y-18695772D02*
X48711429Y-18791010D01*
X48711429Y-18791010D02*
X48711429Y-19314820D01*
D12*
X65730000Y-22050000D02*
X65730000Y-19423581D01*
X22550000Y-22050000D02*
X22550000Y-19423581D01*
X65730000Y-20010001D02*
X22550000Y-20010001D01*
X65730000Y-20010001D02*
X22550000Y-20010001D01*
X65730000Y-20010001D02*
X64603496Y-20596422D01*
X65730000Y-20010001D02*
X64603496Y-19423580D01*
X22550000Y-20010001D02*
X23676504Y-19423580D01*
X22550000Y-20010001D02*
X23676504Y-20596422D01*
M02*
