%TF.GenerationSoftware,KiCad,Pcbnew,8.0.8*%
%TF.CreationDate,2025-04-11T16:16:34-04:00*%
%TF.ProjectId,PWM Module 3.0A,50574d20-4d6f-4647-956c-6520332e3041,rev?*%
%TF.SameCoordinates,Original*%
%TF.FileFunction,Soldermask,Top*%
%TF.FilePolarity,Negative*%
%FSLAX46Y46*%
G04 Gerber Fmt 4.6, Leading zero omitted, Abs format (unit mm)*
G04 Created by KiCad (PCBNEW 8.0.8) date 2025-04-11 16:16:34*
%MOMM*%
%LPD*%
G01*
G04 APERTURE LIST*
%ADD10R,1.700000X1.700000*%
%ADD11O,1.700000X1.700000*%
%ADD12R,2.600000X2.600000*%
%ADD13C,2.600000*%
%ADD14C,2.000000*%
%ADD15R,2.000000X2.000000*%
G04 APERTURE END LIST*
D10*
%TO.C,J1*%
X152440000Y-25400000D03*
D11*
X154980000Y-25400000D03*
X157520000Y-25400000D03*
X160060000Y-25400000D03*
X162600000Y-25400000D03*
X165140000Y-25400000D03*
X167680000Y-25400000D03*
X170220000Y-25400000D03*
X172760000Y-25400000D03*
X175300000Y-25400000D03*
X177840000Y-25400000D03*
X180380000Y-25400000D03*
X182920000Y-25400000D03*
X185460000Y-25400000D03*
X188000000Y-25400000D03*
X190540000Y-25400000D03*
X193080000Y-25400000D03*
X195620000Y-25400000D03*
X198160000Y-25400000D03*
X200700000Y-25400000D03*
%TD*%
D12*
%TO.C,J3*%
X158500000Y-57000000D03*
D13*
X158500000Y-62000000D03*
%TD*%
D14*
%TO.C,K2*%
X174312500Y-50962500D03*
X181812500Y-50962500D03*
X174312500Y-55962500D03*
X181812500Y-55962500D03*
D15*
X174312500Y-30962500D03*
D14*
X181812500Y-30962500D03*
%TD*%
D10*
%TO.C,J4*%
X152440000Y-68580000D03*
D11*
X154980000Y-68580000D03*
X157520000Y-68580000D03*
X160060000Y-68580000D03*
X162600000Y-68580000D03*
X165140000Y-68580000D03*
X167680000Y-68580000D03*
X170220000Y-68580000D03*
X172760000Y-68580000D03*
X175300000Y-68580000D03*
X177840000Y-68580000D03*
X180380000Y-68580000D03*
X182920000Y-68580000D03*
X185460000Y-68580000D03*
X188000000Y-68580000D03*
X190540000Y-68580000D03*
X193080000Y-68580000D03*
X195620000Y-68580000D03*
X198160000Y-68580000D03*
X200700000Y-68580000D03*
%TD*%
D14*
%TO.C,K1*%
X190812500Y-50962500D03*
X198312500Y-50962500D03*
X190812500Y-55962500D03*
X198312500Y-55962500D03*
D15*
X190812500Y-30962500D03*
D14*
X198312500Y-30962500D03*
%TD*%
D12*
%TO.C,J2*%
X158500000Y-43500000D03*
D13*
X158500000Y-48500000D03*
%TD*%
M02*
