%TF.GenerationSoftware,KiCad,Pcbnew,8.0.8*%
%TF.CreationDate,2025-04-11T16:16:34-04:00*%
%TF.ProjectId,PWM Module 3.0A,50574d20-4d6f-4647-956c-6520332e3041,rev?*%
%TF.SameCoordinates,Original*%
%TF.FileFunction,Copper,L2,Bot*%
%TF.FilePolarity,Positive*%
%FSLAX46Y46*%
G04 Gerber Fmt 4.6, Leading zero omitted, Abs format (unit mm)*
G04 Created by KiCad (PCBNEW 8.0.8) date 2025-04-11 16:16:34*
%MOMM*%
%LPD*%
G01*
G04 APERTURE LIST*
%TA.AperFunction,ComponentPad*%
%ADD10R,1.700000X1.700000*%
%TD*%
%TA.AperFunction,ComponentPad*%
%ADD11O,1.700000X1.700000*%
%TD*%
%TA.AperFunction,ComponentPad*%
%ADD12R,2.600000X2.600000*%
%TD*%
%TA.AperFunction,ComponentPad*%
%ADD13C,2.600000*%
%TD*%
%TA.AperFunction,ComponentPad*%
%ADD14C,2.000000*%
%TD*%
%TA.AperFunction,ComponentPad*%
%ADD15R,2.000000X2.000000*%
%TD*%
G04 APERTURE END LIST*
D10*
%TO.P,J1,1,1*%
%TO.N,unconnected-(J1-Pad1)*%
X152440000Y-25400000D03*
D11*
%TO.P,J1,2,2*%
%TO.N,unconnected-(J1-Pad2)*%
X154980000Y-25400000D03*
%TO.P,J1,3,3*%
%TO.N,Net-(J1-Pad3)*%
X157520000Y-25400000D03*
%TO.P,J1,4,4*%
%TO.N,Net-(J1-Pad4)*%
X160060000Y-25400000D03*
%TO.P,J1,5,5*%
%TO.N,Net-(J1-Pad5)*%
X162600000Y-25400000D03*
%TO.P,J1,6,6*%
%TO.N,unconnected-(J1-Pad6)*%
X165140000Y-25400000D03*
%TO.P,J1,7,7*%
%TO.N,unconnected-(J1-Pad7)*%
X167680000Y-25400000D03*
%TO.P,J1,8,8*%
%TO.N,unconnected-(J1-Pad8)*%
X170220000Y-25400000D03*
%TO.P,J1,9,9*%
%TO.N,unconnected-(J1-Pad9)*%
X172760000Y-25400000D03*
%TO.P,J1,10,10*%
%TO.N,unconnected-(J1-Pad10)*%
X175300000Y-25400000D03*
%TO.P,J1,11,11*%
%TO.N,unconnected-(J1-Pad11)*%
X177840000Y-25400000D03*
%TO.P,J1,12,12*%
%TO.N,unconnected-(J1-Pad12)*%
X180380000Y-25400000D03*
%TO.P,J1,13,13*%
%TO.N,unconnected-(J1-Pad13)*%
X182920000Y-25400000D03*
%TO.P,J1,14,14*%
%TO.N,unconnected-(J1-Pad14)*%
X185460000Y-25400000D03*
%TO.P,J1,15,15*%
%TO.N,unconnected-(J1-Pad15)*%
X188000000Y-25400000D03*
%TO.P,J1,16,16*%
%TO.N,unconnected-(J1-Pad16)*%
X190540000Y-25400000D03*
%TO.P,J1,17,17*%
%TO.N,unconnected-(J1-Pad17)*%
X193080000Y-25400000D03*
%TO.P,J1,18,18*%
%TO.N,unconnected-(J1-Pad18)*%
X195620000Y-25400000D03*
%TO.P,J1,19,19*%
%TO.N,unconnected-(J1-Pad19)*%
X198160000Y-25400000D03*
%TO.P,J1,20,20*%
%TO.N,unconnected-(J1-Pad20)*%
X200700000Y-25400000D03*
%TD*%
D12*
%TO.P,J3,1,Pin_1*%
%TO.N,Net-(J3-Pin_1)*%
X158500000Y-57000000D03*
D13*
%TO.P,J3,2,Pin_2*%
X158500000Y-62000000D03*
%TD*%
D14*
%TO.P,K2,13*%
%TO.N,Net-(J2-Pin_2)*%
X174312500Y-50962500D03*
X181812500Y-50962500D03*
%TO.P,K2,14*%
%TO.N,Net-(J3-Pin_1)*%
X174312500Y-55962500D03*
X181812500Y-55962500D03*
D15*
%TO.P,K2,A1*%
%TO.N,Net-(J1-Pad4)*%
X174312500Y-30962500D03*
D14*
%TO.P,K2,A2*%
%TO.N,Net-(J1-Pad5)*%
X181812500Y-30962500D03*
%TD*%
D10*
%TO.P,J4,1,1*%
%TO.N,unconnected-(J4-Pad1)*%
X152440000Y-68580000D03*
D11*
%TO.P,J4,2,2*%
%TO.N,unconnected-(J4-Pad2)*%
X154980000Y-68580000D03*
%TO.P,J4,3,3*%
%TO.N,unconnected-(J4-Pad3)*%
X157520000Y-68580000D03*
%TO.P,J4,4,4*%
%TO.N,unconnected-(J4-Pad4)*%
X160060000Y-68580000D03*
%TO.P,J4,5,5*%
%TO.N,unconnected-(J4-Pad5)*%
X162600000Y-68580000D03*
%TO.P,J4,6,6*%
%TO.N,unconnected-(J4-Pad6)*%
X165140000Y-68580000D03*
%TO.P,J4,7,7*%
%TO.N,unconnected-(J4-Pad7)*%
X167680000Y-68580000D03*
%TO.P,J4,8,8*%
%TO.N,unconnected-(J4-Pad8)*%
X170220000Y-68580000D03*
%TO.P,J4,9,9*%
%TO.N,unconnected-(J4-Pad9)*%
X172760000Y-68580000D03*
%TO.P,J4,10,10*%
%TO.N,unconnected-(J4-Pad10)*%
X175300000Y-68580000D03*
%TO.P,J4,11,11*%
%TO.N,unconnected-(J4-Pad11)*%
X177840000Y-68580000D03*
%TO.P,J4,12,12*%
%TO.N,unconnected-(J4-Pad12)*%
X180380000Y-68580000D03*
%TO.P,J4,13,13*%
%TO.N,unconnected-(J4-Pad13)*%
X182920000Y-68580000D03*
%TO.P,J4,14,14*%
%TO.N,unconnected-(J4-Pad14)*%
X185460000Y-68580000D03*
%TO.P,J4,15,15*%
%TO.N,unconnected-(J4-Pad15)*%
X188000000Y-68580000D03*
%TO.P,J4,16,16*%
%TO.N,unconnected-(J4-Pad16)*%
X190540000Y-68580000D03*
%TO.P,J4,17,17*%
%TO.N,unconnected-(J4-Pad17)*%
X193080000Y-68580000D03*
%TO.P,J4,18,18*%
%TO.N,unconnected-(J4-Pad18)*%
X195620000Y-68580000D03*
%TO.P,J4,19,19*%
%TO.N,unconnected-(J4-Pad19)*%
X198160000Y-68580000D03*
%TO.P,J4,20,20*%
%TO.N,unconnected-(J4-Pad20)*%
X200700000Y-68580000D03*
%TD*%
D14*
%TO.P,K1,13*%
%TO.N,Net-(J2-Pin_1)*%
X190812500Y-50962500D03*
X198312500Y-50962500D03*
%TO.P,K1,14*%
%TO.N,Net-(J3-Pin_1)*%
X190812500Y-55962500D03*
X198312500Y-55962500D03*
D15*
%TO.P,K1,A1*%
%TO.N,Net-(J1-Pad3)*%
X190812500Y-30962500D03*
D14*
%TO.P,K1,A2*%
%TO.N,Net-(J1-Pad5)*%
X198312500Y-30962500D03*
%TD*%
D12*
%TO.P,J2,1,Pin_1*%
%TO.N,Net-(J2-Pin_1)*%
X158500000Y-43500000D03*
D13*
%TO.P,J2,2,Pin_2*%
%TO.N,Net-(J2-Pin_2)*%
X158500000Y-48500000D03*
%TD*%
M02*
