%TF.GenerationSoftware,KiCad,Pcbnew,9.0.5*%
%TF.CreationDate,2025-11-14T08:17:39-05:00*%
%TF.ProjectId,IMD & AMS Latches V1.0,494d4420-2620-4414-9d53-204c61746368,rev?*%
%TF.SameCoordinates,Original*%
%TF.FileFunction,Copper,L1,Top*%
%TF.FilePolarity,Positive*%
%FSLAX46Y46*%
G04 Gerber Fmt 4.6, Leading zero omitted, Abs format (unit mm)*
G04 Created by KiCad (PCBNEW 9.0.5) date 2025-11-14 08:17:39*
%MOMM*%
%LPD*%
G01*
G04 APERTURE LIST*
G04 Aperture macros list*
%AMRoundRect*
0 Rectangle with rounded corners*
0 $1 Rounding radius*
0 $2 $3 $4 $5 $6 $7 $8 $9 X,Y pos of 4 corners*
0 Add a 4 corners polygon primitive as box body*
4,1,4,$2,$3,$4,$5,$6,$7,$8,$9,$2,$3,0*
0 Add four circle primitives for the rounded corners*
1,1,$1+$1,$2,$3*
1,1,$1+$1,$4,$5*
1,1,$1+$1,$6,$7*
1,1,$1+$1,$8,$9*
0 Add four rect primitives between the rounded corners*
20,1,$1+$1,$2,$3,$4,$5,0*
20,1,$1+$1,$4,$5,$6,$7,0*
20,1,$1+$1,$6,$7,$8,$9,0*
20,1,$1+$1,$8,$9,$2,$3,0*%
G04 Aperture macros list end*
%TA.AperFunction,ComponentPad*%
%ADD10C,1.258000*%
%TD*%
%TA.AperFunction,ComponentPad*%
%ADD11C,2.250000*%
%TD*%
%TA.AperFunction,ComponentPad*%
%ADD12R,1.498000X1.498000*%
%TD*%
%TA.AperFunction,ComponentPad*%
%ADD13C,1.498000*%
%TD*%
%TA.AperFunction,ComponentPad*%
%ADD14RoundRect,0.249999X-0.850001X-0.850001X0.850001X-0.850001X0.850001X0.850001X-0.850001X0.850001X0*%
%TD*%
%TA.AperFunction,ComponentPad*%
%ADD15C,2.200000*%
%TD*%
%TA.AperFunction,ComponentPad*%
%ADD16C,1.524000*%
%TD*%
%TA.AperFunction,ComponentPad*%
%ADD17R,1.800000X1.800000*%
%TD*%
%TA.AperFunction,ComponentPad*%
%ADD18C,1.800000*%
%TD*%
%TA.AperFunction,ComponentPad*%
%ADD19C,1.600000*%
%TD*%
%TA.AperFunction,ComponentPad*%
%ADD20RoundRect,0.250000X-0.625000X0.350000X-0.625000X-0.350000X0.625000X-0.350000X0.625000X0.350000X0*%
%TD*%
%TA.AperFunction,ComponentPad*%
%ADD21O,1.750000X1.200000*%
%TD*%
%TA.AperFunction,Conductor*%
%ADD22C,1.000000*%
%TD*%
G04 APERTURE END LIST*
D10*
%TO.P,K4,A1*%
%TO.N,Net-(D7-A)*%
X70310000Y-82385000D03*
%TO.P,K4,A2*%
%TO.N,Net-(D5-K)*%
X70310000Y-77635000D03*
D11*
%TO.P,K4,COM*%
%TO.N,Net-(K1-PadNO)*%
X78640000Y-80010000D03*
%TO.P,K4,NC*%
%TO.N,unconnected-(K4-PadNC)*%
X66380000Y-82385000D03*
%TO.P,K4,NO*%
%TO.N,Net-(J2-Pad12)*%
X66380000Y-77635000D03*
%TD*%
D12*
%TO.P,SW1,1,1*%
%TO.N,Net-(D1-K)*%
X91730000Y-55450000D03*
D13*
X91730000Y-48950000D03*
%TO.P,SW1,2,2*%
%TO.N,Net-(J2-Pad4)*%
X96230000Y-55450000D03*
X96230000Y-48950000D03*
%TD*%
D10*
%TO.P,K1,A1*%
%TO.N,Net-(D1-A)*%
X86820000Y-82550000D03*
%TO.P,K1,A2*%
%TO.N,Net-(D1-K)*%
X86820000Y-77800000D03*
D11*
%TO.P,K1,COM*%
%TO.N,Net-(J2-Pad1)*%
X95150000Y-80175000D03*
%TO.P,K1,NC*%
%TO.N,unconnected-(K1-PadNC)*%
X82890000Y-82550000D03*
%TO.P,K1,NO*%
%TO.N,Net-(K1-PadNO)*%
X82890000Y-77800000D03*
%TD*%
D14*
%TO.P,D7,1,K*%
%TO.N,Net-(D5-K)*%
X66340000Y-86360000D03*
D15*
%TO.P,D7,2,A*%
%TO.N,Net-(D7-A)*%
X76500000Y-86360000D03*
%TD*%
D12*
%TO.P,SW2,1,1*%
%TO.N,Net-(D5-K)*%
X75220000Y-55450000D03*
D13*
X75220000Y-48950000D03*
%TO.P,SW2,2,2*%
%TO.N,Net-(J2-Pad2)*%
X79720000Y-55450000D03*
X79720000Y-48950000D03*
%TD*%
D14*
%TO.P,D5,1,K*%
%TO.N,Net-(D5-K)*%
X99700000Y-52750000D03*
D15*
%TO.P,D5,2,A*%
%TO.N,Net-(D1-A)*%
X103510000Y-52750000D03*
%TD*%
D16*
%TO.P,P2,1,1*%
%TO.N,N/C*%
X63259377Y-86400738D03*
%TO.P,P2,2,2*%
X63259377Y-83860738D03*
%TO.P,P2,3,3*%
X63259377Y-81320738D03*
%TO.P,P2,4,4*%
X63259377Y-78780738D03*
%TO.P,P2,5,5*%
X63259377Y-76240738D03*
%TO.P,P2,6,6*%
X63259377Y-73700738D03*
%TO.P,P2,7,7*%
X63259377Y-71160738D03*
%TO.P,P2,8,8*%
X63259377Y-68620738D03*
%TO.P,P2,9,9*%
X63259377Y-66080738D03*
%TO.P,P2,10,10*%
X63259377Y-63540738D03*
%TO.P,P2,11,11*%
X63259377Y-61000738D03*
%TO.P,P2,12,12*%
X63259377Y-58460738D03*
%TO.P,P2,13,13*%
X63259377Y-55920738D03*
%TO.P,P2,14,14*%
X63259377Y-53380738D03*
%TO.P,P2,15,15*%
X63259377Y-50840738D03*
%TO.P,P2,16,16*%
X63259377Y-48300738D03*
%TO.P,P2,17,17*%
X63259377Y-45760738D03*
%TO.P,P2,18,18*%
X63259377Y-43220738D03*
%TO.P,P2,19,19*%
X63259377Y-40680738D03*
%TO.P,P2,20,20*%
X63259377Y-38140738D03*
%TD*%
D17*
%TO.P,D8,1,K*%
%TO.N,Net-(D8-K)*%
X68680000Y-54610000D03*
D18*
%TO.P,D8,2,A*%
%TO.N,Net-(D8-A)*%
X66140000Y-54610000D03*
%TD*%
D19*
%TO.P,R4,1*%
%TO.N,Net-(J2-Pad2)*%
X72390000Y-55320000D03*
%TO.P,R4,2*%
%TO.N,Net-(D1-A)*%
X72390000Y-52780000D03*
%TD*%
D10*
%TO.P,K3,A1*%
%TO.N,Net-(D1-A)*%
X86820000Y-73495000D03*
%TO.P,K3,A2*%
%TO.N,Net-(D1-K)*%
X86820000Y-68745000D03*
D11*
%TO.P,K3,COM*%
%TO.N,Net-(J2-Pad4)*%
X95150000Y-71120000D03*
%TO.P,K3,NC*%
%TO.N,Net-(D4-A)*%
X82890000Y-73495000D03*
%TO.P,K3,NO*%
%TO.N,unconnected-(K3-PadNO)*%
X82890000Y-68745000D03*
%TD*%
D14*
%TO.P,D2,1,K*%
%TO.N,Net-(D1-K)*%
X99710000Y-56070000D03*
D15*
%TO.P,D2,2,A*%
%TO.N,Net-(D1-A)*%
X103520000Y-56070000D03*
%TD*%
D10*
%TO.P,K6,A1*%
%TO.N,Net-(D7-A)*%
X70310000Y-73495000D03*
%TO.P,K6,A2*%
%TO.N,Net-(D5-K)*%
X70310000Y-68745000D03*
D11*
%TO.P,K6,COM*%
%TO.N,Net-(J2-Pad2)*%
X78640000Y-71120000D03*
%TO.P,K6,NC*%
%TO.N,Net-(D8-A)*%
X66380000Y-73495000D03*
%TO.P,K6,NO*%
%TO.N,unconnected-(K6-PadNO)*%
X66380000Y-68745000D03*
%TD*%
D10*
%TO.P,K5,A1*%
%TO.N,Net-(D7-A)*%
X70310000Y-64605000D03*
%TO.P,K5,A2*%
%TO.N,Net-(D5-K)*%
X70310000Y-59855000D03*
D11*
%TO.P,K5,COM*%
%TO.N,Net-(J2-Pad2)*%
X78640000Y-62230000D03*
%TO.P,K5,NC*%
%TO.N,unconnected-(K5-PadNC)*%
X66380000Y-64605000D03*
%TO.P,K5,NO*%
%TO.N,Net-(D5-K)*%
X66380000Y-59855000D03*
%TD*%
D20*
%TO.P,J2,1,1*%
%TO.N,Net-(J2-Pad1)*%
X100370000Y-63500000D03*
D21*
%TO.P,J2,2,2*%
%TO.N,Net-(J2-Pad2)*%
X100370000Y-65500000D03*
%TO.P,J2,3,3*%
%TO.N,Net-(D1-A)*%
X100370000Y-67500000D03*
%TO.P,J2,4,4*%
%TO.N,Net-(J2-Pad4)*%
X100370000Y-69500000D03*
%TO.P,J2,5,5*%
%TO.N,Net-(D1-K)*%
X100370000Y-71500000D03*
%TO.P,J2,6,6*%
%TO.N,Net-(J2-Pad4)*%
X100370000Y-73500000D03*
%TO.P,J2,7,7*%
%TO.N,Net-(D4-A)*%
X100370000Y-75500000D03*
%TO.P,J2,8,8*%
%TO.N,Net-(J2-Pad2)*%
X100370000Y-77500000D03*
%TO.P,J2,9,9*%
%TO.N,Net-(D5-K)*%
X100370000Y-79500000D03*
%TO.P,J2,10,10*%
%TO.N,Net-(D7-A)*%
X100370000Y-81500000D03*
%TO.P,J2,11,11*%
%TO.N,Net-(D8-A)*%
X100370000Y-83500000D03*
%TO.P,J2,12,12*%
%TO.N,Net-(J2-Pad12)*%
X100370000Y-85500000D03*
%TD*%
D19*
%TO.P,R3,1*%
%TO.N,Net-(J2-Pad4)*%
X88900000Y-55320000D03*
%TO.P,R3,2*%
%TO.N,Net-(D1-A)*%
X88900000Y-52780000D03*
%TD*%
D10*
%TO.P,K2,A1*%
%TO.N,Net-(D1-A)*%
X86820000Y-64375000D03*
%TO.P,K2,A2*%
%TO.N,Net-(D1-K)*%
X86820000Y-59625000D03*
D11*
%TO.P,K2,COM*%
%TO.N,Net-(J2-Pad4)*%
X95150000Y-62000000D03*
%TO.P,K2,NC*%
%TO.N,unconnected-(K2-PadNC)*%
X82890000Y-64375000D03*
%TO.P,K2,NO*%
%TO.N,Net-(D1-K)*%
X82890000Y-59625000D03*
%TD*%
D17*
%TO.P,D4,1,K*%
%TO.N,Net-(D4-K)*%
X85190000Y-54610000D03*
D18*
%TO.P,D4,2,A*%
%TO.N,Net-(D4-A)*%
X82650000Y-54610000D03*
%TD*%
D19*
%TO.P,R1,1*%
%TO.N,Net-(D1-A)*%
X85090000Y-50800000D03*
%TO.P,R1,2*%
%TO.N,Net-(D4-K)*%
X82550000Y-50800000D03*
%TD*%
D14*
%TO.P,D1,1,K*%
%TO.N,Net-(D1-K)*%
X99712818Y-59340000D03*
D15*
%TO.P,D1,2,A*%
%TO.N,Net-(D1-A)*%
X103522818Y-59340000D03*
%TD*%
D14*
%TO.P,D6,1,K*%
%TO.N,Net-(D5-K)*%
X99700000Y-49410000D03*
D15*
%TO.P,D6,2,A*%
%TO.N,Net-(D1-A)*%
X103510000Y-49410000D03*
%TD*%
D14*
%TO.P,D3,1,K*%
%TO.N,Net-(D1-K)*%
X82850000Y-86360000D03*
D15*
%TO.P,D3,2,A*%
%TO.N,Net-(D1-A)*%
X93010000Y-86360000D03*
%TD*%
D19*
%TO.P,R2,1*%
%TO.N,Net-(D1-A)*%
X68580000Y-50800000D03*
%TO.P,R2,2*%
%TO.N,Net-(D8-K)*%
X66040000Y-50800000D03*
%TD*%
D16*
%TO.P,P1,1,1*%
%TO.N,N/C*%
X106439377Y-86400738D03*
%TO.P,P1,2,2*%
X106439377Y-83860738D03*
%TO.P,P1,3,3*%
%TO.N,Net-(J3-Pad1)*%
X106439377Y-81320738D03*
%TO.P,P1,4,4*%
%TO.N,N/C*%
X106439377Y-78780738D03*
%TO.P,P1,5,5*%
X106439377Y-76240738D03*
%TO.P,P1,6,6*%
X106439377Y-73700738D03*
%TO.P,P1,7,7*%
%TO.N,Net-(J3-Pad7)*%
X106439377Y-71160738D03*
%TO.P,P1,8,8*%
%TO.N,unconnected-(J3-Pad8)*%
X106439377Y-68620738D03*
%TO.P,P1,9,9*%
%TO.N,unconnected-(J3-Pad9)*%
X106439377Y-66080738D03*
%TO.P,P1,10,10*%
%TO.N,unconnected-(J3-Pad10)*%
X106439377Y-63540738D03*
%TO.P,P1,11,11*%
%TO.N,unconnected-(J3-Pad11)*%
X106439377Y-61000738D03*
%TO.P,P1,12,12*%
%TO.N,unconnected-(J3-Pad12)*%
X106439377Y-58460738D03*
%TO.P,P1,13,13*%
%TO.N,unconnected-(J3-Pad13)*%
X106439377Y-55920738D03*
%TO.P,P1,14,14*%
%TO.N,unconnected-(J3-Pad14)*%
X106439377Y-53380738D03*
%TO.P,P1,15,15*%
%TO.N,unconnected-(J3-Pad15)*%
X106439377Y-50840738D03*
%TO.P,P1,16,16*%
%TO.N,unconnected-(J3-Pad16)*%
X106439377Y-48300738D03*
%TO.P,P1,17,17*%
%TO.N,unconnected-(J3-Pad17)*%
X106439377Y-45760738D03*
%TO.P,P1,18,18*%
%TO.N,unconnected-(J3-Pad18)*%
X106439377Y-43220738D03*
%TO.P,P1,19,19*%
%TO.N,unconnected-(J3-Pad19)*%
X106439377Y-40680738D03*
%TO.P,P1,20,20*%
%TO.N,unconnected-(J3-Pad20)*%
X106439377Y-38140738D03*
%TD*%
D22*
%TO.N,Net-(D1-K)*%
X85090000Y-70475000D02*
X85090000Y-72390000D01*
X99712818Y-56072818D02*
X99710000Y-56070000D01*
X85090000Y-61825000D02*
X85090000Y-62230000D01*
X85090000Y-62230000D02*
X85090000Y-61355000D01*
X99712818Y-59340000D02*
X99712818Y-56072818D01*
X91730000Y-55450000D02*
X95620000Y-59340000D01*
X86820000Y-77800000D02*
X85715000Y-77800000D01*
X85090000Y-84120000D02*
X85090000Y-77175000D01*
X95620000Y-59340000D02*
X98792818Y-59340000D01*
X85090000Y-61355000D02*
X86820000Y-59625000D01*
X85715000Y-77800000D02*
X85090000Y-77175000D01*
X82890000Y-59625000D02*
X85090000Y-61825000D01*
X82850000Y-86360000D02*
X85090000Y-84120000D01*
X85090000Y-72390000D02*
X85090000Y-73660000D01*
X85090000Y-73660000D02*
X85090000Y-62230000D01*
X85090000Y-77175000D02*
X85090000Y-72390000D01*
X86820000Y-68745000D02*
X85090000Y-70475000D01*
%TO.N,Net-(D1-A)*%
X99310000Y-81530000D02*
X95250000Y-77470000D01*
X88900000Y-71415000D02*
X88900000Y-67310000D01*
X86820000Y-64375000D02*
X88900000Y-66455000D01*
X88900000Y-82250000D02*
X88900000Y-76200000D01*
X88900000Y-81575000D02*
X88900000Y-76200000D01*
X87925000Y-82550000D02*
X88900000Y-81575000D01*
X88900000Y-66455000D02*
X88900000Y-67310000D01*
X70410000Y-50800000D02*
X72390000Y-52780000D01*
X86820000Y-73495000D02*
X88900000Y-71415000D01*
X72390000Y-52780000D02*
X83110000Y-52780000D01*
X96019390Y-47110000D02*
X101210000Y-47110000D01*
X86820000Y-82550000D02*
X87925000Y-82550000D01*
X86791000Y-54889000D02*
X86791000Y-56311000D01*
X93010000Y-86360000D02*
X88900000Y-82250000D01*
X103510000Y-49410000D02*
X103522818Y-49422818D01*
X88900000Y-62295000D02*
X86820000Y-64375000D01*
X93005000Y-77470000D02*
X88900000Y-81575000D01*
X88900000Y-52780000D02*
X86791000Y-54889000D01*
X86791000Y-56311000D02*
X88900000Y-58420000D01*
X88900000Y-76200000D02*
X88900000Y-68580000D01*
X83110000Y-52780000D02*
X85090000Y-50800000D01*
X101210000Y-47110000D02*
X103510000Y-49410000D01*
X90349390Y-52780000D02*
X96019390Y-47110000D01*
X95250000Y-77470000D02*
X93005000Y-77470000D01*
X68580000Y-50800000D02*
X70410000Y-50800000D01*
X100370000Y-81530000D02*
X99310000Y-81530000D01*
X103522818Y-49422818D02*
X103522818Y-58420000D01*
X88900000Y-52780000D02*
X90349390Y-52780000D01*
X88900000Y-58420000D02*
X88900000Y-62295000D01*
%TO.N,Net-(J2-Pad2)*%
X78640000Y-71120000D02*
X78640000Y-62230000D01*
X102060000Y-81954892D02*
X102060000Y-72630000D01*
X100960000Y-71530000D02*
X100370000Y-71530000D01*
X72390000Y-55980000D02*
X78640000Y-62230000D01*
X102060000Y-72630000D02*
X100960000Y-71530000D01*
X78640000Y-62230000D02*
X78640000Y-56530000D01*
X100370000Y-83530000D02*
X100484892Y-83530000D01*
X78640000Y-56530000D02*
X79720000Y-55450000D01*
X100484892Y-83530000D02*
X102060000Y-81954892D01*
X72390000Y-55320000D02*
X72390000Y-55980000D01*
%TO.N,Net-(D4-A)*%
X81064000Y-58204000D02*
X82650000Y-56618000D01*
X81064000Y-71669000D02*
X81064000Y-58204000D01*
X82890000Y-73495000D02*
X81064000Y-71669000D01*
X82650000Y-56618000D02*
X82650000Y-54610000D01*
%TO.N,Net-(J2-Pad1)*%
X99400000Y-85530000D02*
X95150000Y-81280000D01*
X95150000Y-81280000D02*
X95150000Y-80175000D01*
X100370000Y-85530000D02*
X99400000Y-85530000D01*
%TO.N,Net-(D5-K)*%
X70310000Y-68745000D02*
X68580000Y-70475000D01*
X68580000Y-71120000D02*
X68580000Y-66040000D01*
X66340000Y-86360000D02*
X68580000Y-84120000D01*
X68580000Y-77175000D02*
X68580000Y-76200000D01*
X69040000Y-77635000D02*
X68580000Y-77175000D01*
X68580000Y-66040000D02*
X68580000Y-61585000D01*
X68580000Y-76200000D02*
X68580000Y-71120000D01*
X68580000Y-61585000D02*
X70310000Y-59855000D01*
X70310000Y-77635000D02*
X69040000Y-77635000D01*
X66380000Y-59855000D02*
X68580000Y-62055000D01*
X99700000Y-52750000D02*
X99700000Y-49410000D01*
X68580000Y-84120000D02*
X68580000Y-76200000D01*
X68580000Y-62055000D02*
X68580000Y-66040000D01*
X68580000Y-70475000D02*
X68580000Y-71120000D01*
%TO.N,Net-(D7-A)*%
X70310000Y-73495000D02*
X72390000Y-71415000D01*
X72390000Y-71415000D02*
X72390000Y-71120000D01*
X71580000Y-82385000D02*
X72390000Y-81575000D01*
X72390000Y-81575000D02*
X72390000Y-71120000D01*
X72390000Y-66685000D02*
X70310000Y-64605000D01*
X72390000Y-71120000D02*
X72390000Y-66685000D01*
X70310000Y-82385000D02*
X71580000Y-82385000D01*
X72390000Y-82250000D02*
X72390000Y-81575000D01*
X76500000Y-86360000D02*
X72390000Y-82250000D01*
%TO.N,Net-(D8-K)*%
X68680000Y-53440000D02*
X66040000Y-50800000D01*
X68680000Y-54610000D02*
X68680000Y-53440000D01*
%TO.N,Net-(K1-PadNO)*%
X81015000Y-78905000D02*
X79910000Y-80010000D01*
X81785000Y-78905000D02*
X81015000Y-78905000D01*
X82890000Y-77800000D02*
X81785000Y-78905000D01*
X79910000Y-80010000D02*
X78640000Y-80010000D01*
%TO.N,Net-(J2-Pad4)*%
X95150000Y-71120000D02*
X99560000Y-75530000D01*
X88900000Y-55320000D02*
X88900000Y-55750000D01*
X95150000Y-74830000D02*
X95150000Y-62000000D01*
X100370000Y-79530000D02*
X99850000Y-79530000D01*
X99560000Y-75530000D02*
X100370000Y-75530000D01*
X88900000Y-55750000D02*
X95150000Y-62000000D01*
X99850000Y-79530000D02*
X95150000Y-74830000D01*
%TD*%
M02*
