%TF.GenerationSoftware,KiCad,Pcbnew,9.0.5*%
%TF.CreationDate,2025-11-14T08:38:20-05:00*%
%TF.ProjectId,IMD & AMS Latches V1.0,494d4420-2620-4414-9d53-204c61746368,rev?*%
%TF.SameCoordinates,Original*%
%TF.FileFunction,Soldermask,Top*%
%TF.FilePolarity,Negative*%
%FSLAX46Y46*%
G04 Gerber Fmt 4.6, Leading zero omitted, Abs format (unit mm)*
G04 Created by KiCad (PCBNEW 9.0.5) date 2025-11-14 08:38:20*
%MOMM*%
%LPD*%
G01*
G04 APERTURE LIST*
G04 Aperture macros list*
%AMRoundRect*
0 Rectangle with rounded corners*
0 $1 Rounding radius*
0 $2 $3 $4 $5 $6 $7 $8 $9 X,Y pos of 4 corners*
0 Add a 4 corners polygon primitive as box body*
4,1,4,$2,$3,$4,$5,$6,$7,$8,$9,$2,$3,0*
0 Add four circle primitives for the rounded corners*
1,1,$1+$1,$2,$3*
1,1,$1+$1,$4,$5*
1,1,$1+$1,$6,$7*
1,1,$1+$1,$8,$9*
0 Add four rect primitives between the rounded corners*
20,1,$1+$1,$2,$3,$4,$5,0*
20,1,$1+$1,$4,$5,$6,$7,0*
20,1,$1+$1,$6,$7,$8,$9,0*
20,1,$1+$1,$8,$9,$2,$3,0*%
G04 Aperture macros list end*
%ADD10C,1.462000*%
%ADD11C,2.454000*%
%ADD12RoundRect,0.102000X0.749000X-0.749000X0.749000X0.749000X-0.749000X0.749000X-0.749000X-0.749000X0*%
%ADD13C,1.702000*%
%ADD14RoundRect,0.249999X-0.850001X-0.850001X0.850001X-0.850001X0.850001X0.850001X-0.850001X0.850001X0*%
%ADD15C,2.200000*%
%ADD16C,1.524000*%
%ADD17R,1.800000X1.800000*%
%ADD18C,1.800000*%
%ADD19C,1.600000*%
%ADD20RoundRect,0.250000X-0.625000X0.350000X-0.625000X-0.350000X0.625000X-0.350000X0.625000X0.350000X0*%
%ADD21O,1.750000X1.200000*%
G04 APERTURE END LIST*
D10*
%TO.C,K4*%
X70310000Y-82385000D03*
X70310000Y-77635000D03*
D11*
X78640000Y-80010000D03*
X66380000Y-82385000D03*
X66380000Y-77635000D03*
%TD*%
D12*
%TO.C,SW1*%
X91730000Y-55450000D03*
D13*
X91730000Y-48950000D03*
X96230000Y-55450000D03*
X96230000Y-48950000D03*
%TD*%
D10*
%TO.C,K1*%
X86820000Y-82550000D03*
X86820000Y-77800000D03*
D11*
X95150000Y-80175000D03*
X82890000Y-82550000D03*
X82890000Y-77800000D03*
%TD*%
D14*
%TO.C,D7*%
X66340000Y-86360000D03*
D15*
X76500000Y-86360000D03*
%TD*%
D12*
%TO.C,SW2*%
X75220000Y-55450000D03*
D13*
X75220000Y-48950000D03*
X79720000Y-55450000D03*
X79720000Y-48950000D03*
%TD*%
D14*
%TO.C,D5*%
X99700000Y-52750000D03*
D15*
X103510000Y-52750000D03*
%TD*%
D16*
%TO.C,P2*%
X63259377Y-86400738D03*
X63259377Y-83860738D03*
X63259377Y-81320738D03*
X63259377Y-78780738D03*
X63259377Y-76240738D03*
X63259377Y-73700738D03*
X63259377Y-71160738D03*
X63259377Y-68620738D03*
X63259377Y-66080738D03*
X63259377Y-63540738D03*
X63259377Y-61000738D03*
X63259377Y-58460738D03*
X63259377Y-55920738D03*
X63259377Y-53380738D03*
X63259377Y-50840738D03*
X63259377Y-48300738D03*
X63259377Y-45760738D03*
X63259377Y-43220738D03*
X63259377Y-40680738D03*
X63259377Y-38140738D03*
%TD*%
D17*
%TO.C,D8*%
X68680000Y-54610000D03*
D18*
X66140000Y-54610000D03*
%TD*%
D19*
%TO.C,R4*%
X72390000Y-55320000D03*
X72390000Y-52780000D03*
%TD*%
D10*
%TO.C,K3*%
X86820000Y-73495000D03*
X86820000Y-68745000D03*
D11*
X95150000Y-71120000D03*
X82890000Y-73495000D03*
X82890000Y-68745000D03*
%TD*%
D14*
%TO.C,D2*%
X99710000Y-56070000D03*
D15*
X103520000Y-56070000D03*
%TD*%
D10*
%TO.C,K6*%
X70310000Y-73495000D03*
X70310000Y-68745000D03*
D11*
X78640000Y-71120000D03*
X66380000Y-73495000D03*
X66380000Y-68745000D03*
%TD*%
D10*
%TO.C,K5*%
X70310000Y-64605000D03*
X70310000Y-59855000D03*
D11*
X78640000Y-62230000D03*
X66380000Y-64605000D03*
X66380000Y-59855000D03*
%TD*%
D20*
%TO.C,J2*%
X100370000Y-63500000D03*
D21*
X100370000Y-65500000D03*
X100370000Y-67500000D03*
X100370000Y-69500000D03*
X100370000Y-71500000D03*
X100370000Y-73500000D03*
X100370000Y-75500000D03*
X100370000Y-77500000D03*
X100370000Y-79500000D03*
X100370000Y-81500000D03*
X100370000Y-83500000D03*
X100370000Y-85500000D03*
%TD*%
D19*
%TO.C,R3*%
X88900000Y-55320000D03*
X88900000Y-52780000D03*
%TD*%
D10*
%TO.C,K2*%
X86820000Y-64375000D03*
X86820000Y-59625000D03*
D11*
X95150000Y-62000000D03*
X82890000Y-64375000D03*
X82890000Y-59625000D03*
%TD*%
D17*
%TO.C,D4*%
X85190000Y-54610000D03*
D18*
X82650000Y-54610000D03*
%TD*%
D19*
%TO.C,R1*%
X85090000Y-50800000D03*
X82550000Y-50800000D03*
%TD*%
D14*
%TO.C,D1*%
X99712818Y-59340000D03*
D15*
X103522818Y-59340000D03*
%TD*%
D14*
%TO.C,D6*%
X99700000Y-49410000D03*
D15*
X103510000Y-49410000D03*
%TD*%
D14*
%TO.C,D3*%
X82850000Y-86360000D03*
D15*
X93010000Y-86360000D03*
%TD*%
D19*
%TO.C,R2*%
X68580000Y-50800000D03*
X66040000Y-50800000D03*
%TD*%
D16*
%TO.C,P1*%
X106439377Y-86400738D03*
X106439377Y-83860738D03*
X106439377Y-81320738D03*
X106439377Y-78780738D03*
X106439377Y-76240738D03*
X106439377Y-73700738D03*
X106439377Y-71160738D03*
X106439377Y-68620738D03*
X106439377Y-66080738D03*
X106439377Y-63540738D03*
X106439377Y-61000738D03*
X106439377Y-58460738D03*
X106439377Y-55920738D03*
X106439377Y-53380738D03*
X106439377Y-50840738D03*
X106439377Y-48300738D03*
X106439377Y-45760738D03*
X106439377Y-43220738D03*
X106439377Y-40680738D03*
X106439377Y-38140738D03*
%TD*%
M02*
