%TF.GenerationSoftware,KiCad,Pcbnew,8.0.8*%
%TF.CreationDate,2025-04-18T11:11:17-04:00*%
%TF.ProjectId,PWM Module 3.0B,50574d20-4d6f-4647-956c-6520332e3042,rev?*%
%TF.SameCoordinates,Original*%
%TF.FileFunction,Soldermask,Bot*%
%TF.FilePolarity,Negative*%
%FSLAX46Y46*%
G04 Gerber Fmt 4.6, Leading zero omitted, Abs format (unit mm)*
G04 Created by KiCad (PCBNEW 8.0.8) date 2025-04-18 11:11:17*
%MOMM*%
%LPD*%
G01*
G04 APERTURE LIST*
%ADD10R,1.700000X1.700000*%
%ADD11O,1.700000X1.700000*%
%ADD12R,1.905000X2.000000*%
%ADD13O,1.905000X2.000000*%
%ADD14C,1.600000*%
%ADD15O,1.600000X1.600000*%
%ADD16R,2.600000X2.600000*%
%ADD17C,2.600000*%
G04 APERTURE END LIST*
D10*
%TO.C,J1*%
X152440000Y-25400000D03*
D11*
X154980000Y-25400000D03*
X157520000Y-25400000D03*
X160060000Y-25400000D03*
X162600000Y-25400000D03*
X165140000Y-25400000D03*
X167680000Y-25400000D03*
X170220000Y-25400000D03*
X172760000Y-25400000D03*
X175300000Y-25400000D03*
X177840000Y-25400000D03*
X180380000Y-25400000D03*
X182920000Y-25400000D03*
X185460000Y-25400000D03*
X188000000Y-25400000D03*
X190540000Y-25400000D03*
X193080000Y-25400000D03*
X195620000Y-25400000D03*
X198160000Y-25400000D03*
X200700000Y-25400000D03*
%TD*%
D12*
%TO.C,U5*%
X167920000Y-32500000D03*
D13*
X170460000Y-32500000D03*
X173000000Y-32500000D03*
%TD*%
D14*
%TO.C,R2*%
X200160000Y-51500000D03*
D15*
X190000000Y-51500000D03*
%TD*%
D14*
%TO.C,R3*%
X180000000Y-41000000D03*
D15*
X169840000Y-41000000D03*
%TD*%
D16*
%TO.C,J4*%
X160000000Y-32000000D03*
D17*
X160000000Y-37000000D03*
%TD*%
D10*
%TO.C,J3*%
X152440000Y-68580000D03*
D11*
X154980000Y-68580000D03*
X157520000Y-68580000D03*
X160060000Y-68580000D03*
X162600000Y-68580000D03*
X165140000Y-68580000D03*
X167680000Y-68580000D03*
X170220000Y-68580000D03*
X172760000Y-68580000D03*
X175300000Y-68580000D03*
X177840000Y-68580000D03*
X180380000Y-68580000D03*
X182920000Y-68580000D03*
X185460000Y-68580000D03*
X188000000Y-68580000D03*
X190540000Y-68580000D03*
X193080000Y-68580000D03*
X195620000Y-68580000D03*
X198160000Y-68580000D03*
X200700000Y-68580000D03*
%TD*%
D14*
%TO.C,R4*%
X169920000Y-54000000D03*
D15*
X180080000Y-54000000D03*
%TD*%
D12*
%TO.C,U6*%
X167960000Y-46715000D03*
D13*
X170500000Y-46715000D03*
X173040000Y-46715000D03*
%TD*%
D16*
%TO.C,J2*%
X160000000Y-54500000D03*
D17*
X160000000Y-59500000D03*
%TD*%
D14*
%TO.C,R6*%
X180000000Y-50270000D03*
D15*
X169840000Y-50270000D03*
%TD*%
D14*
%TO.C,R1*%
X200080000Y-37500000D03*
D15*
X189920000Y-37500000D03*
%TD*%
D14*
%TO.C,R5*%
X176660000Y-36000000D03*
D15*
X166500000Y-36000000D03*
%TD*%
M02*
