%TF.GenerationSoftware,KiCad,Pcbnew,9.0.5*%
%TF.CreationDate,2025-11-14T11:54:45-05:00*%
%TF.ProjectId,Traces V1.0,54726163-6573-4205-9631-2e302e6b6963,rev?*%
%TF.SameCoordinates,Original*%
%TF.FileFunction,Copper,L1,Top*%
%TF.FilePolarity,Positive*%
%FSLAX46Y46*%
G04 Gerber Fmt 4.6, Leading zero omitted, Abs format (unit mm)*
G04 Created by KiCad (PCBNEW 9.0.5) date 2025-11-14 11:54:45*
%MOMM*%
%LPD*%
G01*
G04 APERTURE LIST*
G04 Aperture macros list*
%AMRoundRect*
0 Rectangle with rounded corners*
0 $1 Rounding radius*
0 $2 $3 $4 $5 $6 $7 $8 $9 X,Y pos of 4 corners*
0 Add a 4 corners polygon primitive as box body*
4,1,4,$2,$3,$4,$5,$6,$7,$8,$9,$2,$3,0*
0 Add four circle primitives for the rounded corners*
1,1,$1+$1,$2,$3*
1,1,$1+$1,$4,$5*
1,1,$1+$1,$6,$7*
1,1,$1+$1,$8,$9*
0 Add four rect primitives between the rounded corners*
20,1,$1+$1,$2,$3,$4,$5,0*
20,1,$1+$1,$4,$5,$6,$7,0*
20,1,$1+$1,$6,$7,$8,$9,0*
20,1,$1+$1,$8,$9,$2,$3,0*%
G04 Aperture macros list end*
%TA.AperFunction,ComponentPad*%
%ADD10R,1.308000X1.308000*%
%TD*%
%TA.AperFunction,ComponentPad*%
%ADD11C,1.308000*%
%TD*%
%TA.AperFunction,ComponentPad*%
%ADD12R,1.700000X1.700000*%
%TD*%
%TA.AperFunction,ComponentPad*%
%ADD13C,1.700000*%
%TD*%
%TA.AperFunction,ComponentPad*%
%ADD14C,2.400000*%
%TD*%
%TA.AperFunction,SMDPad,CuDef*%
%ADD15RoundRect,0.250000X-0.375000X-1.075000X0.375000X-1.075000X0.375000X1.075000X-0.375000X1.075000X0*%
%TD*%
%TA.AperFunction,ComponentPad*%
%ADD16C,2.800000*%
%TD*%
%TA.AperFunction,SMDPad,CuDef*%
%ADD17RoundRect,0.250000X0.412500X1.100000X-0.412500X1.100000X-0.412500X-1.100000X0.412500X-1.100000X0*%
%TD*%
%TA.AperFunction,ViaPad*%
%ADD18C,0.600000*%
%TD*%
%TA.AperFunction,Conductor*%
%ADD19C,0.500000*%
%TD*%
%TA.AperFunction,Conductor*%
%ADD20C,1.500000*%
%TD*%
%TA.AperFunction,Conductor*%
%ADD21C,0.200000*%
%TD*%
G04 APERTURE END LIST*
D10*
%TO.P,J7,1,Pin_1*%
%TO.N,unconnected-(J7-Pin_1-Pad1)*%
X90578200Y-142544800D03*
D11*
%TO.P,J7,2,Pin_2*%
%TO.N,unconnected-(J7-Pin_2-Pad2)*%
X88578200Y-142544800D03*
%TO.P,J7,3,Pin_3*%
%TO.N,unconnected-(J7-Pin_3-Pad3)*%
X86578200Y-142544800D03*
%TO.P,J7,4,Pin_4*%
%TO.N,unconnected-(J7-Pin_4-Pad4)*%
X84578200Y-142544800D03*
%TO.P,J7,5,Pin_5*%
%TO.N,Net-(J4-Pin_10)*%
X82578200Y-142544800D03*
%TO.P,J7,6,Pin_6*%
%TO.N,Net-(D2-A)*%
X80578200Y-142544800D03*
%TO.P,J7,7,Pin_7*%
%TO.N,Net-(J7-Pin_7)*%
X78578200Y-142544800D03*
%TO.P,J7,8,Pin_8*%
%TO.N,Net-(J7-Pin_8)*%
X76578200Y-142544800D03*
%TO.P,J7,9,Pin_9*%
%TO.N,Net-(J6-Pin_12)*%
X74578200Y-142544800D03*
%TO.P,J7,10,Pin_10*%
%TO.N,Net-(J7-Pin_10)*%
X72578200Y-142544800D03*
%TO.P,J7,11,Pin_11*%
%TO.N,Net-(J7-Pin_11)*%
X70578200Y-142544800D03*
%TO.P,J7,12,Pin_12*%
%TO.N,Net-(J7-Pin_12)*%
X68578200Y-142544800D03*
%TD*%
D12*
%TO.P,REF\u002A\u002A,1*%
%TO.N,N/C*%
X45720000Y-147574000D03*
D13*
%TO.P,REF\u002A\u002A,2*%
X48260000Y-147574000D03*
%TO.P,REF\u002A\u002A,3*%
X50800000Y-147574000D03*
%TO.P,REF\u002A\u002A,4*%
X53340000Y-147574000D03*
%TO.P,REF\u002A\u002A,5*%
X55880000Y-147574000D03*
%TO.P,REF\u002A\u002A,6*%
X58420000Y-147574000D03*
%TO.P,REF\u002A\u002A,7*%
X60960000Y-147574000D03*
%TO.P,REF\u002A\u002A,8*%
X63500000Y-147574000D03*
%TO.P,REF\u002A\u002A,9*%
X66040000Y-147574000D03*
%TO.P,REF\u002A\u002A,10*%
X68580000Y-147574000D03*
%TO.P,REF\u002A\u002A,11*%
X71120000Y-147574000D03*
%TO.P,REF\u002A\u002A,12*%
X73660000Y-147574000D03*
%TO.P,REF\u002A\u002A,13*%
X76200000Y-147574000D03*
%TO.P,REF\u002A\u002A,14*%
X78740000Y-147574000D03*
%TO.P,REF\u002A\u002A,15*%
X81280000Y-147574000D03*
%TO.P,REF\u002A\u002A,16*%
X83820000Y-147574000D03*
%TO.P,REF\u002A\u002A,17*%
X86360000Y-147574000D03*
%TO.P,REF\u002A\u002A,18*%
X88900000Y-147574000D03*
%TO.P,REF\u002A\u002A,19*%
X91440000Y-147574000D03*
%TO.P,REF\u002A\u002A,20*%
X93980000Y-147574000D03*
%TO.P,REF\u002A\u002A,21*%
X96520000Y-147574000D03*
%TO.P,REF\u002A\u002A,22*%
X99060000Y-147574000D03*
%TO.P,REF\u002A\u002A,23*%
X101600000Y-147574000D03*
%TO.P,REF\u002A\u002A,24*%
X104140000Y-147574000D03*
%TO.P,REF\u002A\u002A,25*%
X106680000Y-147574000D03*
%TO.P,REF\u002A\u002A,26*%
X109220000Y-147574000D03*
%TO.P,REF\u002A\u002A,27*%
X111760000Y-147574000D03*
%TO.P,REF\u002A\u002A,28*%
X114300000Y-147574000D03*
%TO.P,REF\u002A\u002A,29*%
X116840000Y-147574000D03*
%TO.P,REF\u002A\u002A,30*%
X119380000Y-147574000D03*
%TO.P,REF\u002A\u002A,31*%
X121920000Y-147574000D03*
%TO.P,REF\u002A\u002A,32*%
X124460000Y-147574000D03*
%TO.P,REF\u002A\u002A,33*%
X127000000Y-147574000D03*
%TO.P,REF\u002A\u002A,34*%
X129540000Y-147574000D03*
%TO.P,REF\u002A\u002A,35*%
X132080000Y-147574000D03*
%TO.P,REF\u002A\u002A,36*%
X134620000Y-147574000D03*
%TO.P,REF\u002A\u002A,37*%
X137160000Y-147574000D03*
%TO.P,REF\u002A\u002A,38*%
X139700000Y-147574000D03*
%TO.P,REF\u002A\u002A,39*%
X142240000Y-147574000D03*
%TO.P,REF\u002A\u002A,40*%
X144780000Y-147574000D03*
%TD*%
D14*
%TO.P,F1,1,1*%
%TO.N,Net-(D2-K)*%
X81239150Y-120310678D03*
%TO.P,F1,2,2*%
X84639150Y-120310678D03*
%TO.P,F1,3,3*%
%TO.N,Net-(J4-Pin_8)*%
X81239150Y-110390678D03*
%TO.P,F1,4,4*%
X84639150Y-110390678D03*
%TD*%
D12*
%TO.P,REF\u002A\u002A,1*%
%TO.N,N/C*%
X45720000Y-96774000D03*
D13*
%TO.P,REF\u002A\u002A,2*%
X48260000Y-96774000D03*
%TO.P,REF\u002A\u002A,3*%
X50800000Y-96774000D03*
%TO.P,REF\u002A\u002A,4*%
X53340000Y-96774000D03*
%TO.P,REF\u002A\u002A,5*%
X55880000Y-96774000D03*
%TO.P,REF\u002A\u002A,6*%
X58420000Y-96774000D03*
%TO.P,REF\u002A\u002A,7*%
X60960000Y-96774000D03*
%TO.P,REF\u002A\u002A,8*%
X63500000Y-96774000D03*
%TO.P,REF\u002A\u002A,9*%
X66040000Y-96774000D03*
%TO.P,REF\u002A\u002A,10*%
X68580000Y-96774000D03*
%TO.P,REF\u002A\u002A,11*%
X71120000Y-96774000D03*
%TO.P,REF\u002A\u002A,12*%
X73660000Y-96774000D03*
%TO.P,REF\u002A\u002A,13*%
X76200000Y-96774000D03*
%TO.P,REF\u002A\u002A,14*%
X78740000Y-96774000D03*
%TO.P,REF\u002A\u002A,15*%
X81280000Y-96774000D03*
%TO.P,REF\u002A\u002A,16*%
X83820000Y-96774000D03*
%TO.P,REF\u002A\u002A,17*%
X86360000Y-96774000D03*
%TO.P,REF\u002A\u002A,18*%
X88900000Y-96774000D03*
%TO.P,REF\u002A\u002A,19*%
X91440000Y-96774000D03*
%TO.P,REF\u002A\u002A,20*%
X93980000Y-96774000D03*
%TO.P,REF\u002A\u002A,21*%
X96520000Y-96774000D03*
%TO.P,REF\u002A\u002A,22*%
X99060000Y-96774000D03*
%TO.P,REF\u002A\u002A,23*%
X101600000Y-96774000D03*
%TO.P,REF\u002A\u002A,24*%
X104140000Y-96774000D03*
%TO.P,REF\u002A\u002A,25*%
X106680000Y-96774000D03*
%TO.P,REF\u002A\u002A,26*%
X109220000Y-96774000D03*
%TO.P,REF\u002A\u002A,27*%
X111760000Y-96774000D03*
%TO.P,REF\u002A\u002A,28*%
X114300000Y-96774000D03*
%TO.P,REF\u002A\u002A,29*%
X116840000Y-96774000D03*
%TO.P,REF\u002A\u002A,30*%
X119380000Y-96774000D03*
%TO.P,REF\u002A\u002A,31*%
X121920000Y-96774000D03*
%TO.P,REF\u002A\u002A,32*%
X124460000Y-96774000D03*
%TO.P,REF\u002A\u002A,33*%
X127000000Y-96774000D03*
%TO.P,REF\u002A\u002A,34*%
X129540000Y-96774000D03*
%TO.P,REF\u002A\u002A,35*%
X132080000Y-96774000D03*
%TO.P,REF\u002A\u002A,36*%
X134620000Y-96774000D03*
%TO.P,REF\u002A\u002A,37*%
X137160000Y-96774000D03*
%TO.P,REF\u002A\u002A,38*%
X139700000Y-96774000D03*
%TO.P,REF\u002A\u002A,39*%
X142240000Y-96774000D03*
%TO.P,REF\u002A\u002A,40*%
X144780000Y-96774000D03*
%TD*%
D15*
%TO.P,D2,1,K*%
%TO.N,Net-(D2-K)*%
X81559150Y-126526678D03*
%TO.P,D2,2,A*%
%TO.N,Net-(D2-A)*%
X84359150Y-126526678D03*
%TD*%
D10*
%TO.P,J1,1,1*%
%TO.N,Net-(J6-Pin_11)*%
X47741800Y-135296303D03*
D11*
%TO.P,J1,2,2*%
%TO.N,Net-(J4-Pin_10)*%
X47741800Y-133296303D03*
%TO.P,J1,3,3*%
%TO.N,Net-(J6-Pin_12)*%
X47741800Y-131296303D03*
%TO.P,J1,4,4*%
%TO.N,unconnected-(J1-Pad4)*%
X47741800Y-129296303D03*
%TO.P,J1,5,5*%
%TO.N,unconnected-(J1-Pad5)*%
X47741800Y-127296303D03*
%TO.P,J1,6,6*%
%TO.N,unconnected-(J1-Pad6)*%
X47741800Y-125296303D03*
%TO.P,J1,7,7*%
%TO.N,Net-(J7-Pin_11)*%
X47741800Y-123296303D03*
%TO.P,J1,8,8*%
%TO.N,Net-(J4-Pin_1)*%
X47741800Y-121296303D03*
%TO.P,J1,9,9*%
%TO.N,Net-(J6-Pin_10)*%
X47741800Y-119296303D03*
%TO.P,J1,10,10*%
%TO.N,Net-(J6-Pin_8)*%
X47741800Y-117296303D03*
%TO.P,J1,11,11*%
%TO.N,Net-(J6-Pin_9)*%
X47741800Y-115296303D03*
%TO.P,J1,12,12*%
%TO.N,Net-(J6-Pin_7)*%
X47741800Y-113296303D03*
%TO.P,J1,13,13*%
%TO.N,Net-(J6-Pin_6)*%
X47741800Y-111296303D03*
%TO.P,J1,14,14*%
%TO.N,Net-(J6-Pin_4)*%
X47741800Y-109296303D03*
%TO.P,J1,15,15*%
%TO.N,Net-(J6-Pin_5)*%
X47741800Y-107296303D03*
%TD*%
D10*
%TO.P,J4,1,Pin_1*%
%TO.N,Net-(J4-Pin_1)*%
X46527200Y-100482400D03*
D11*
%TO.P,J4,2,Pin_2*%
%TO.N,Net-(D2-K)*%
X48527200Y-100482400D03*
%TO.P,J4,3,Pin_3*%
X50527200Y-100482400D03*
%TO.P,J4,4,Pin_4*%
X52527200Y-100482400D03*
%TO.P,J4,5,Pin_5*%
%TO.N,Net-(J4-Pin_5)*%
X54527200Y-100482400D03*
%TO.P,J4,6,Pin_6*%
X56527200Y-100482400D03*
%TO.P,J4,7,Pin_7*%
X58527200Y-100482400D03*
%TO.P,J4,8,Pin_8*%
%TO.N,Net-(J4-Pin_8)*%
X60527200Y-100482400D03*
%TO.P,J4,9,Pin_9*%
%TO.N,Net-(D2-A)*%
X62527200Y-100482400D03*
%TO.P,J4,10,Pin_10*%
%TO.N,Net-(J4-Pin_10)*%
X64527200Y-100482400D03*
%TO.P,J4,11,Pin_11*%
X66527200Y-100482400D03*
%TO.P,J4,12,Pin_12*%
X68527200Y-100482400D03*
%TD*%
D16*
%TO.P,TP3,1,1*%
%TO.N,Net-(D2-K)*%
X75742800Y-121296303D03*
%TD*%
D10*
%TO.P,J2,1,1*%
%TO.N,unconnected-(J2-Pad1)*%
X67741800Y-135296303D03*
D11*
%TO.P,J2,2,2*%
%TO.N,unconnected-(J2-Pad2)*%
X67741800Y-133296303D03*
%TO.P,J2,3,3*%
%TO.N,unconnected-(J2-Pad3)*%
X67741800Y-131296303D03*
%TO.P,J2,4,4*%
%TO.N,unconnected-(J2-Pad4)*%
X67741800Y-129296303D03*
%TO.P,J2,5,5*%
%TO.N,unconnected-(J2-Pad5)*%
X67741800Y-127296303D03*
%TO.P,J2,6,6*%
%TO.N,unconnected-(J2-Pad6)*%
X67741800Y-125296303D03*
%TO.P,J2,7,7*%
%TO.N,unconnected-(J2-Pad7)*%
X67741800Y-123296303D03*
%TO.P,J2,8,8*%
%TO.N,unconnected-(J2-Pad8)*%
X67741800Y-121296303D03*
%TO.P,J2,9,9*%
%TO.N,unconnected-(J2-Pad9)*%
X67741800Y-119296303D03*
%TO.P,J2,10,10*%
%TO.N,unconnected-(J2-Pad10)*%
X67741800Y-117296303D03*
%TO.P,J2,11,11*%
%TO.N,unconnected-(J2-Pad11)*%
X67741800Y-115296303D03*
%TO.P,J2,12,12*%
%TO.N,unconnected-(J2-Pad12)*%
X67741800Y-113296303D03*
%TO.P,J2,13,13*%
%TO.N,unconnected-(J2-Pad13)*%
X67741800Y-111296303D03*
%TO.P,J2,14,14*%
%TO.N,unconnected-(J2-Pad14)*%
X67741800Y-109296303D03*
%TO.P,J2,15,15*%
%TO.N,unconnected-(J2-Pad15)*%
X67741800Y-107296303D03*
%TD*%
D16*
%TO.P,TP4,1,1*%
%TO.N,Net-(D2-A)*%
X90115500Y-121296303D03*
%TD*%
D10*
%TO.P,J3,1,1*%
%TO.N,Net-(J4-Pin_5)*%
X57741800Y-135296303D03*
D11*
%TO.P,J3,2,2*%
%TO.N,unconnected-(J3-Pad2)*%
X57741800Y-133296303D03*
%TO.P,J3,3,3*%
%TO.N,unconnected-(J3-Pad3)*%
X57741800Y-131296303D03*
%TO.P,J3,4,4*%
%TO.N,Net-(J4-Pin_8)*%
X57741800Y-129296303D03*
%TO.P,J3,5,5*%
%TO.N,Net-(J7-Pin_12)*%
X57741800Y-127296303D03*
%TO.P,J3,6,6*%
%TO.N,Net-(J7-Pin_10)*%
X57741800Y-125296303D03*
%TO.P,J3,7,7*%
%TO.N,Net-(J7-Pin_8)*%
X57741800Y-123296303D03*
%TO.P,J3,8,8*%
%TO.N,Net-(J7-Pin_7)*%
X57741800Y-121296303D03*
%TO.P,J3,9,9*%
%TO.N,Net-(J4-Pin_5)*%
X57741800Y-119296303D03*
%TO.P,J3,10,10*%
X57741800Y-117296303D03*
%TO.P,J3,11,11*%
%TO.N,Net-(D2-K)*%
X57741800Y-115296303D03*
%TO.P,J3,12,12*%
X57741800Y-113296303D03*
%TO.P,J3,13,13*%
X57741800Y-111296303D03*
%TO.P,J3,14,14*%
%TO.N,Net-(D2-A)*%
X57741800Y-109296303D03*
%TO.P,J3,15,15*%
X57741800Y-107296303D03*
%TD*%
D10*
%TO.P,J6,1,Pin_1*%
%TO.N,Net-(J4-Pin_5)*%
X97380000Y-100244900D03*
D11*
%TO.P,J6,2,Pin_2*%
%TO.N,Net-(J4-Pin_8)*%
X99380000Y-100244900D03*
%TO.P,J6,3,Pin_3*%
%TO.N,Net-(D2-A)*%
X101380000Y-100244900D03*
%TO.P,J6,4,Pin_4*%
%TO.N,Net-(J6-Pin_4)*%
X103380000Y-100244900D03*
%TO.P,J6,5,Pin_5*%
%TO.N,Net-(J6-Pin_5)*%
X105380000Y-100244900D03*
%TO.P,J6,6,Pin_6*%
%TO.N,Net-(J6-Pin_6)*%
X107380000Y-100244900D03*
%TO.P,J6,7,Pin_7*%
%TO.N,Net-(J6-Pin_7)*%
X109380000Y-100244900D03*
%TO.P,J6,8,Pin_8*%
%TO.N,Net-(J6-Pin_8)*%
X111380000Y-100244900D03*
%TO.P,J6,9,Pin_9*%
%TO.N,Net-(J6-Pin_9)*%
X113380000Y-100244900D03*
%TO.P,J6,10,Pin_10*%
%TO.N,Net-(J6-Pin_10)*%
X115380000Y-100244900D03*
%TO.P,J6,11,Pin_11*%
%TO.N,Net-(J6-Pin_11)*%
X117380000Y-100244900D03*
%TO.P,J6,12,Pin_12*%
%TO.N,Net-(J6-Pin_12)*%
X119380000Y-100244900D03*
%TD*%
D17*
%TO.P,C2,1*%
%TO.N,Net-(D2-A)*%
X84501650Y-132368678D03*
%TO.P,C2,2*%
%TO.N,Net-(D2-K)*%
X81376650Y-132368678D03*
%TD*%
D18*
%TO.N,Net-(J6-Pin_9)*%
X54254400Y-135636000D03*
X61315600Y-128524000D03*
%TO.N,Net-(J6-Pin_8)*%
X55600600Y-134416800D03*
X59791600Y-128397000D03*
%TO.N,Net-(J6-Pin_6)*%
X87414100Y-102445200D03*
%TO.N,Net-(J6-Pin_5)*%
X90410405Y-103962200D03*
%TO.N,Net-(J6-Pin_7)*%
X85547200Y-101695200D03*
%TO.N,Net-(J6-Pin_4)*%
X94361000Y-103212200D03*
%TO.N,Net-(J4-Pin_10)*%
X48965000Y-128270000D03*
X48961648Y-110397952D03*
%TO.N,Net-(J7-Pin_11)*%
X46456600Y-134035800D03*
%TO.N,Net-(D2-K)*%
X62941200Y-114427000D03*
X84632800Y-137541000D03*
%TO.N,Net-(D2-A)*%
X90055700Y-111594900D03*
%TD*%
D19*
%TO.N,Net-(J6-Pin_9)*%
X49053378Y-127296303D02*
X54254400Y-132497325D01*
X78773163Y-113473849D02*
X100151051Y-113473849D01*
X54254400Y-132497325D02*
X54254400Y-135636000D01*
X66598800Y-105968800D02*
X71268114Y-105968800D01*
X100151051Y-113473849D02*
X113380000Y-100244900D01*
X64871600Y-107696000D02*
X66598800Y-105968800D01*
X71268114Y-105968800D02*
X78773163Y-113473849D01*
X64871600Y-124968000D02*
X64871600Y-107696000D01*
X61315600Y-128524000D02*
X64871600Y-124968000D01*
X47860000Y-127296303D02*
X49053378Y-127296303D01*
%TO.N,Net-(J6-Pin_8)*%
X63855600Y-107289600D02*
X66243200Y-104902000D01*
X55600600Y-130937000D02*
X55600600Y-134416800D01*
X71729600Y-104902000D02*
X79183300Y-112355700D01*
X47860000Y-125296303D02*
X49959903Y-125296303D01*
X59791600Y-128397000D02*
X63855600Y-124333000D01*
X79183300Y-112355700D02*
X99269200Y-112355700D01*
X63855600Y-124333000D02*
X63855600Y-107289600D01*
X49959903Y-125296303D02*
X55600600Y-130937000D01*
X99269200Y-112355700D02*
X111380000Y-100244900D01*
X55600600Y-134416800D02*
X55600600Y-134518400D01*
X66243200Y-104902000D02*
X71729600Y-104902000D01*
%TO.N,Net-(J4-Pin_1)*%
X46527200Y-100482400D02*
X46527200Y-119963503D01*
X46527200Y-119963503D02*
X47860000Y-121296303D01*
D20*
%TO.N,Net-(J4-Pin_5)*%
X58527200Y-100482400D02*
X58527200Y-99557505D01*
X59207305Y-98877400D02*
X96012500Y-98877400D01*
X55143400Y-120849516D02*
X55143400Y-109601000D01*
X55143400Y-109601000D02*
X57448097Y-107296303D01*
X57860000Y-125296303D02*
X57860000Y-123296303D01*
X57860000Y-101815200D02*
X56527200Y-100482400D01*
X57448097Y-107296303D02*
X57860000Y-107296303D01*
X57860000Y-123296303D02*
X57590187Y-123296303D01*
X56527200Y-100482400D02*
X58527200Y-100482400D01*
X56527200Y-100482400D02*
X54527200Y-100482400D01*
X57590187Y-123296303D02*
X55143400Y-120849516D01*
X57860000Y-107296303D02*
X57860000Y-101815200D01*
X58527200Y-99557505D02*
X59207305Y-98877400D01*
X96012500Y-98877400D02*
X97380000Y-100244900D01*
D19*
%TO.N,Net-(J6-Pin_6)*%
X87414100Y-102450900D02*
X89676400Y-104713200D01*
X102911700Y-104713200D02*
X107380000Y-100244900D01*
X89676400Y-104713200D02*
X102911700Y-104713200D01*
X87414100Y-102445200D02*
X87414100Y-102450900D01*
X87414100Y-102445200D02*
X87408400Y-102445200D01*
%TO.N,Net-(J6-Pin_10)*%
X115380000Y-119951000D02*
X90960400Y-144370600D01*
X53844236Y-144370600D02*
X45705600Y-136231964D01*
X45705600Y-136231964D02*
X45705600Y-125450703D01*
X90960400Y-144370600D02*
X53844236Y-144370600D01*
X115380000Y-100244900D02*
X115380000Y-119951000D01*
X45705600Y-125450703D02*
X47860000Y-123296303D01*
%TO.N,Net-(J6-Pin_5)*%
X101662700Y-103962200D02*
X105380000Y-100244900D01*
X90410405Y-103962200D02*
X101662700Y-103962200D01*
%TO.N,Net-(J6-Pin_7)*%
X89183600Y-105414200D02*
X104210700Y-105414200D01*
X85547200Y-101777800D02*
X89183600Y-105414200D01*
X85547200Y-101695200D02*
X85547200Y-101777800D01*
X104210700Y-105414200D02*
X109380000Y-100244900D01*
%TO.N,Net-(J6-Pin_4)*%
X100450100Y-103174800D02*
X103380000Y-100244900D01*
X94398400Y-103174800D02*
X100450100Y-103174800D01*
X94361000Y-103212200D02*
X94398400Y-103174800D01*
%TO.N,Net-(J4-Pin_8)*%
X84639150Y-110390678D02*
X81239150Y-110390678D01*
X60527200Y-110629103D02*
X60527200Y-103073200D01*
X57860000Y-113296303D02*
X60527200Y-110629103D01*
X81239150Y-110390678D02*
X74023272Y-103174800D01*
X74023272Y-103174800D02*
X60628800Y-103174800D01*
X60527200Y-103073200D02*
X60527200Y-100482400D01*
X60628800Y-103174800D02*
X60527200Y-103073200D01*
%TO.N,Net-(J4-Pin_10)*%
X76580000Y-142468600D02*
X75335400Y-141224000D01*
X75335400Y-141224000D02*
X54434991Y-141224000D01*
X64527200Y-100482400D02*
X68527200Y-100482400D01*
X48965000Y-135754009D02*
X48965000Y-128270000D01*
X48965000Y-110401303D02*
X48961648Y-110397952D01*
X54434991Y-141224000D02*
X48965000Y-135754009D01*
X48961648Y-110397952D02*
X47860000Y-109296303D01*
%TO.N,Net-(J7-Pin_11)*%
X87379000Y-143669600D02*
X54134600Y-143669600D01*
X54134600Y-143669600D02*
X46456600Y-135991600D01*
X46456600Y-135991600D02*
X46456600Y-134035800D01*
X88580000Y-142468600D02*
X87379000Y-143669600D01*
%TO.N,Net-(D2-K)*%
X62052200Y-115316000D02*
X57879697Y-115316000D01*
X90580000Y-142468600D02*
X85652400Y-137541000D01*
D20*
X50527200Y-121963503D02*
X57860000Y-129296303D01*
D19*
X57879697Y-115316000D02*
X57860000Y-115296303D01*
X81376650Y-126709178D02*
X81559150Y-126526678D01*
D20*
X48527200Y-100482400D02*
X52527200Y-100482400D01*
D19*
X81559150Y-120630678D02*
X81239150Y-120310678D01*
X81376650Y-132368678D02*
X81376650Y-126709178D01*
X81559150Y-126526678D02*
X81559150Y-120630678D01*
X62941200Y-114427000D02*
X62052200Y-115316000D01*
D20*
X65465000Y-136901303D02*
X76844025Y-136901303D01*
X57860000Y-129296303D02*
X57860000Y-127296303D01*
X57860000Y-129296303D02*
X57860000Y-131296303D01*
D19*
X85652400Y-137541000D02*
X84632800Y-137541000D01*
D20*
X50527200Y-100482400D02*
X50527200Y-121963503D01*
X57860000Y-129296303D02*
X65465000Y-136901303D01*
D19*
X75742800Y-121296303D02*
X80253525Y-121296303D01*
X81239150Y-120310678D02*
X84639150Y-120310678D01*
D20*
X76844025Y-136901303D02*
X81376650Y-132368678D01*
D19*
X80253525Y-121296303D02*
X81239150Y-120310678D01*
D20*
%TO.N,Net-(D2-A)*%
X78266328Y-139954000D02*
X79409328Y-138811000D01*
X57860000Y-135296303D02*
X57860000Y-138047800D01*
D19*
X80048200Y-101587400D02*
X90055700Y-111594900D01*
D21*
X89589525Y-121296303D02*
X90115500Y-121296303D01*
D19*
X84359150Y-126526678D02*
X84359150Y-132226178D01*
D21*
X84359150Y-132226178D02*
X84501650Y-132368678D01*
D19*
X84359150Y-126526678D02*
X89589525Y-121296303D01*
X62527200Y-100482400D02*
X63632200Y-101587400D01*
D20*
X84501650Y-133718678D02*
X84501650Y-132368678D01*
D19*
X63632200Y-101587400D02*
X80048200Y-101587400D01*
D20*
X79409328Y-138811000D02*
X84501650Y-133718678D01*
X57860000Y-135296303D02*
X57860000Y-133296303D01*
X57860000Y-138047800D02*
X59766200Y-139954000D01*
X59766200Y-139954000D02*
X78266328Y-139954000D01*
D19*
X90055700Y-111594900D02*
X90115500Y-111654700D01*
D20*
X78580000Y-139640328D02*
X79409328Y-138811000D01*
X78580000Y-142468600D02*
X78580000Y-139640328D01*
%TD*%
M02*
