M48
; DRILL file {KiCad 9.0.5} date 2025-11-14T11:54:43-0500
; FORMAT={-:-/ absolute / metric / decimal}
; #@! TF.CreationDate,2025-11-14T11:54:43-05:00
; #@! TF.GenerationSoftware,Kicad,Pcbnew,9.0.5
; #@! TF.FileFunction,Plated,1,2,PTH
FMAT,2
METRIC
; #@! TA.AperFunction,Plated,PTH,ViaDrill
T1C0.300
; #@! TA.AperFunction,Plated,PTH,ComponentDrill
T2C0.800
; #@! TA.AperFunction,Plated,PTH,ComponentDrill
T3C1.000
; #@! TA.AperFunction,Plated,PTH,ComponentDrill
T4C1.600
%
G90
G05
T1
X46.457Y-134.036
X48.962Y-110.398
X48.965Y-128.27
X54.254Y-135.636
X55.601Y-134.417
X59.792Y-128.397
X61.316Y-128.524
X62.941Y-114.427
X84.633Y-137.541
X85.547Y-101.695
X87.414Y-102.445
X90.056Y-111.595
X90.41Y-103.962
X94.361Y-103.212
T2
X46.527Y-100.482
X47.742Y-107.296
X47.742Y-109.296
X47.742Y-111.296
X47.742Y-113.296
X47.742Y-115.296
X47.742Y-117.296
X47.742Y-119.296
X47.742Y-121.296
X47.742Y-123.296
X47.742Y-125.296
X47.742Y-127.296
X47.742Y-129.296
X47.742Y-131.296
X47.742Y-133.296
X47.742Y-135.296
X48.527Y-100.482
X50.527Y-100.482
X52.527Y-100.482
X54.527Y-100.482
X56.527Y-100.482
X57.742Y-107.296
X57.742Y-109.296
X57.742Y-111.296
X57.742Y-113.296
X57.742Y-115.296
X57.742Y-117.296
X57.742Y-119.296
X57.742Y-121.296
X57.742Y-123.296
X57.742Y-125.296
X57.742Y-127.296
X57.742Y-129.296
X57.742Y-131.296
X57.742Y-133.296
X57.742Y-135.296
X58.527Y-100.482
X60.527Y-100.482
X62.527Y-100.482
X64.527Y-100.482
X66.527Y-100.482
X67.742Y-107.296
X67.742Y-109.296
X67.742Y-111.296
X67.742Y-113.296
X67.742Y-115.296
X67.742Y-117.296
X67.742Y-119.296
X67.742Y-121.296
X67.742Y-123.296
X67.742Y-125.296
X67.742Y-127.296
X67.742Y-129.296
X67.742Y-131.296
X67.742Y-133.296
X67.742Y-135.296
X68.527Y-100.482
X68.578Y-142.545
X70.578Y-142.545
X72.578Y-142.545
X74.578Y-142.545
X76.578Y-142.545
X78.578Y-142.545
X80.578Y-142.545
X82.578Y-142.545
X84.578Y-142.545
X86.578Y-142.545
X88.578Y-142.545
X90.578Y-142.545
X97.38Y-100.245
X99.38Y-100.245
X101.38Y-100.245
X103.38Y-100.245
X105.38Y-100.245
X107.38Y-100.245
X109.38Y-100.245
X111.38Y-100.245
X113.38Y-100.245
X115.38Y-100.245
X117.38Y-100.245
X119.38Y-100.245
T3
X45.72Y-96.774
X45.72Y-147.574
X48.26Y-96.774
X48.26Y-147.574
X50.8Y-96.774
X50.8Y-147.574
X53.34Y-96.774
X53.34Y-147.574
X55.88Y-96.774
X55.88Y-147.574
X58.42Y-96.774
X58.42Y-147.574
X60.96Y-96.774
X60.96Y-147.574
X63.5Y-96.774
X63.5Y-147.574
X66.04Y-96.774
X66.04Y-147.574
X68.58Y-96.774
X68.58Y-147.574
X71.12Y-96.774
X71.12Y-147.574
X73.66Y-96.774
X73.66Y-147.574
X76.2Y-96.774
X76.2Y-147.574
X78.74Y-96.774
X78.74Y-147.574
X81.28Y-96.774
X81.28Y-147.574
X83.82Y-96.774
X83.82Y-147.574
X86.36Y-96.774
X86.36Y-147.574
X88.9Y-96.774
X88.9Y-147.574
X91.44Y-96.774
X91.44Y-147.574
X93.98Y-96.774
X93.98Y-147.574
X96.52Y-96.774
X96.52Y-147.574
X99.06Y-96.774
X99.06Y-147.574
X101.6Y-96.774
X101.6Y-147.574
X104.14Y-96.774
X104.14Y-147.574
X106.68Y-96.774
X106.68Y-147.574
X109.22Y-96.774
X109.22Y-147.574
X111.76Y-96.774
X111.76Y-147.574
X114.3Y-96.774
X114.3Y-147.574
X116.84Y-96.774
X116.84Y-147.574
X119.38Y-96.774
X119.38Y-147.574
X121.92Y-96.774
X121.92Y-147.574
X124.46Y-96.774
X124.46Y-147.574
X127.0Y-96.774
X127.0Y-147.574
X129.54Y-96.774
X129.54Y-147.574
X132.08Y-96.774
X132.08Y-147.574
X134.62Y-96.774
X134.62Y-147.574
X137.16Y-96.774
X137.16Y-147.574
X139.7Y-96.774
X139.7Y-147.574
X142.24Y-96.774
X142.24Y-147.574
X144.78Y-96.774
X144.78Y-147.574
T4
X75.743Y-121.296
X81.239Y-110.391
X81.239Y-120.311
X84.639Y-110.391
X84.639Y-120.311
X90.115Y-121.296
M30
