%TF.GenerationSoftware,KiCad,Pcbnew,9.0.5*%
%TF.CreationDate,2025-11-14T11:54:45-05:00*%
%TF.ProjectId,Traces V1.0,54726163-6573-4205-9631-2e302e6b6963,rev?*%
%TF.SameCoordinates,Original*%
%TF.FileFunction,Copper,L2,Bot*%
%TF.FilePolarity,Positive*%
%FSLAX46Y46*%
G04 Gerber Fmt 4.6, Leading zero omitted, Abs format (unit mm)*
G04 Created by KiCad (PCBNEW 9.0.5) date 2025-11-14 11:54:45*
%MOMM*%
%LPD*%
G01*
G04 APERTURE LIST*
%TA.AperFunction,ComponentPad*%
%ADD10R,1.308000X1.308000*%
%TD*%
%TA.AperFunction,ComponentPad*%
%ADD11C,1.308000*%
%TD*%
%TA.AperFunction,ComponentPad*%
%ADD12R,1.700000X1.700000*%
%TD*%
%TA.AperFunction,ComponentPad*%
%ADD13C,1.700000*%
%TD*%
%TA.AperFunction,ComponentPad*%
%ADD14C,2.400000*%
%TD*%
%TA.AperFunction,ComponentPad*%
%ADD15C,2.800000*%
%TD*%
%TA.AperFunction,ViaPad*%
%ADD16C,0.600000*%
%TD*%
%TA.AperFunction,Conductor*%
%ADD17C,0.500000*%
%TD*%
G04 APERTURE END LIST*
D10*
%TO.P,J7,1,Pin_1*%
%TO.N,unconnected-(J7-Pin_1-Pad1)*%
X90578200Y-142544800D03*
D11*
%TO.P,J7,2,Pin_2*%
%TO.N,unconnected-(J7-Pin_2-Pad2)*%
X88578200Y-142544800D03*
%TO.P,J7,3,Pin_3*%
%TO.N,unconnected-(J7-Pin_3-Pad3)*%
X86578200Y-142544800D03*
%TO.P,J7,4,Pin_4*%
%TO.N,unconnected-(J7-Pin_4-Pad4)*%
X84578200Y-142544800D03*
%TO.P,J7,5,Pin_5*%
%TO.N,Net-(J4-Pin_10)*%
X82578200Y-142544800D03*
%TO.P,J7,6,Pin_6*%
%TO.N,Net-(D2-A)*%
X80578200Y-142544800D03*
%TO.P,J7,7,Pin_7*%
%TO.N,Net-(J7-Pin_7)*%
X78578200Y-142544800D03*
%TO.P,J7,8,Pin_8*%
%TO.N,Net-(J7-Pin_8)*%
X76578200Y-142544800D03*
%TO.P,J7,9,Pin_9*%
%TO.N,Net-(J6-Pin_12)*%
X74578200Y-142544800D03*
%TO.P,J7,10,Pin_10*%
%TO.N,Net-(J7-Pin_10)*%
X72578200Y-142544800D03*
%TO.P,J7,11,Pin_11*%
%TO.N,Net-(J7-Pin_11)*%
X70578200Y-142544800D03*
%TO.P,J7,12,Pin_12*%
%TO.N,Net-(J7-Pin_12)*%
X68578200Y-142544800D03*
%TD*%
D12*
%TO.P,REF\u002A\u002A,1*%
%TO.N,N/C*%
X45720000Y-147574000D03*
D13*
%TO.P,REF\u002A\u002A,2*%
X48260000Y-147574000D03*
%TO.P,REF\u002A\u002A,3*%
X50800000Y-147574000D03*
%TO.P,REF\u002A\u002A,4*%
X53340000Y-147574000D03*
%TO.P,REF\u002A\u002A,5*%
X55880000Y-147574000D03*
%TO.P,REF\u002A\u002A,6*%
X58420000Y-147574000D03*
%TO.P,REF\u002A\u002A,7*%
X60960000Y-147574000D03*
%TO.P,REF\u002A\u002A,8*%
X63500000Y-147574000D03*
%TO.P,REF\u002A\u002A,9*%
X66040000Y-147574000D03*
%TO.P,REF\u002A\u002A,10*%
X68580000Y-147574000D03*
%TO.P,REF\u002A\u002A,11*%
X71120000Y-147574000D03*
%TO.P,REF\u002A\u002A,12*%
X73660000Y-147574000D03*
%TO.P,REF\u002A\u002A,13*%
X76200000Y-147574000D03*
%TO.P,REF\u002A\u002A,14*%
X78740000Y-147574000D03*
%TO.P,REF\u002A\u002A,15*%
X81280000Y-147574000D03*
%TO.P,REF\u002A\u002A,16*%
X83820000Y-147574000D03*
%TO.P,REF\u002A\u002A,17*%
X86360000Y-147574000D03*
%TO.P,REF\u002A\u002A,18*%
X88900000Y-147574000D03*
%TO.P,REF\u002A\u002A,19*%
X91440000Y-147574000D03*
%TO.P,REF\u002A\u002A,20*%
X93980000Y-147574000D03*
%TO.P,REF\u002A\u002A,21*%
X96520000Y-147574000D03*
%TO.P,REF\u002A\u002A,22*%
X99060000Y-147574000D03*
%TO.P,REF\u002A\u002A,23*%
X101600000Y-147574000D03*
%TO.P,REF\u002A\u002A,24*%
X104140000Y-147574000D03*
%TO.P,REF\u002A\u002A,25*%
X106680000Y-147574000D03*
%TO.P,REF\u002A\u002A,26*%
X109220000Y-147574000D03*
%TO.P,REF\u002A\u002A,27*%
X111760000Y-147574000D03*
%TO.P,REF\u002A\u002A,28*%
X114300000Y-147574000D03*
%TO.P,REF\u002A\u002A,29*%
X116840000Y-147574000D03*
%TO.P,REF\u002A\u002A,30*%
X119380000Y-147574000D03*
%TO.P,REF\u002A\u002A,31*%
X121920000Y-147574000D03*
%TO.P,REF\u002A\u002A,32*%
X124460000Y-147574000D03*
%TO.P,REF\u002A\u002A,33*%
X127000000Y-147574000D03*
%TO.P,REF\u002A\u002A,34*%
X129540000Y-147574000D03*
%TO.P,REF\u002A\u002A,35*%
X132080000Y-147574000D03*
%TO.P,REF\u002A\u002A,36*%
X134620000Y-147574000D03*
%TO.P,REF\u002A\u002A,37*%
X137160000Y-147574000D03*
%TO.P,REF\u002A\u002A,38*%
X139700000Y-147574000D03*
%TO.P,REF\u002A\u002A,39*%
X142240000Y-147574000D03*
%TO.P,REF\u002A\u002A,40*%
X144780000Y-147574000D03*
%TD*%
D14*
%TO.P,F1,1,1*%
%TO.N,Net-(D2-K)*%
X81239150Y-120310678D03*
%TO.P,F1,2,2*%
X84639150Y-120310678D03*
%TO.P,F1,3,3*%
%TO.N,Net-(J4-Pin_8)*%
X81239150Y-110390678D03*
%TO.P,F1,4,4*%
X84639150Y-110390678D03*
%TD*%
D12*
%TO.P,REF\u002A\u002A,1*%
%TO.N,N/C*%
X45720000Y-96774000D03*
D13*
%TO.P,REF\u002A\u002A,2*%
X48260000Y-96774000D03*
%TO.P,REF\u002A\u002A,3*%
X50800000Y-96774000D03*
%TO.P,REF\u002A\u002A,4*%
X53340000Y-96774000D03*
%TO.P,REF\u002A\u002A,5*%
X55880000Y-96774000D03*
%TO.P,REF\u002A\u002A,6*%
X58420000Y-96774000D03*
%TO.P,REF\u002A\u002A,7*%
X60960000Y-96774000D03*
%TO.P,REF\u002A\u002A,8*%
X63500000Y-96774000D03*
%TO.P,REF\u002A\u002A,9*%
X66040000Y-96774000D03*
%TO.P,REF\u002A\u002A,10*%
X68580000Y-96774000D03*
%TO.P,REF\u002A\u002A,11*%
X71120000Y-96774000D03*
%TO.P,REF\u002A\u002A,12*%
X73660000Y-96774000D03*
%TO.P,REF\u002A\u002A,13*%
X76200000Y-96774000D03*
%TO.P,REF\u002A\u002A,14*%
X78740000Y-96774000D03*
%TO.P,REF\u002A\u002A,15*%
X81280000Y-96774000D03*
%TO.P,REF\u002A\u002A,16*%
X83820000Y-96774000D03*
%TO.P,REF\u002A\u002A,17*%
X86360000Y-96774000D03*
%TO.P,REF\u002A\u002A,18*%
X88900000Y-96774000D03*
%TO.P,REF\u002A\u002A,19*%
X91440000Y-96774000D03*
%TO.P,REF\u002A\u002A,20*%
X93980000Y-96774000D03*
%TO.P,REF\u002A\u002A,21*%
X96520000Y-96774000D03*
%TO.P,REF\u002A\u002A,22*%
X99060000Y-96774000D03*
%TO.P,REF\u002A\u002A,23*%
X101600000Y-96774000D03*
%TO.P,REF\u002A\u002A,24*%
X104140000Y-96774000D03*
%TO.P,REF\u002A\u002A,25*%
X106680000Y-96774000D03*
%TO.P,REF\u002A\u002A,26*%
X109220000Y-96774000D03*
%TO.P,REF\u002A\u002A,27*%
X111760000Y-96774000D03*
%TO.P,REF\u002A\u002A,28*%
X114300000Y-96774000D03*
%TO.P,REF\u002A\u002A,29*%
X116840000Y-96774000D03*
%TO.P,REF\u002A\u002A,30*%
X119380000Y-96774000D03*
%TO.P,REF\u002A\u002A,31*%
X121920000Y-96774000D03*
%TO.P,REF\u002A\u002A,32*%
X124460000Y-96774000D03*
%TO.P,REF\u002A\u002A,33*%
X127000000Y-96774000D03*
%TO.P,REF\u002A\u002A,34*%
X129540000Y-96774000D03*
%TO.P,REF\u002A\u002A,35*%
X132080000Y-96774000D03*
%TO.P,REF\u002A\u002A,36*%
X134620000Y-96774000D03*
%TO.P,REF\u002A\u002A,37*%
X137160000Y-96774000D03*
%TO.P,REF\u002A\u002A,38*%
X139700000Y-96774000D03*
%TO.P,REF\u002A\u002A,39*%
X142240000Y-96774000D03*
%TO.P,REF\u002A\u002A,40*%
X144780000Y-96774000D03*
%TD*%
D10*
%TO.P,J1,1,1*%
%TO.N,Net-(J6-Pin_11)*%
X47741800Y-135296303D03*
D11*
%TO.P,J1,2,2*%
%TO.N,Net-(J4-Pin_10)*%
X47741800Y-133296303D03*
%TO.P,J1,3,3*%
%TO.N,Net-(J6-Pin_12)*%
X47741800Y-131296303D03*
%TO.P,J1,4,4*%
%TO.N,unconnected-(J1-Pad4)*%
X47741800Y-129296303D03*
%TO.P,J1,5,5*%
%TO.N,unconnected-(J1-Pad5)*%
X47741800Y-127296303D03*
%TO.P,J1,6,6*%
%TO.N,unconnected-(J1-Pad6)*%
X47741800Y-125296303D03*
%TO.P,J1,7,7*%
%TO.N,Net-(J7-Pin_11)*%
X47741800Y-123296303D03*
%TO.P,J1,8,8*%
%TO.N,Net-(J4-Pin_1)*%
X47741800Y-121296303D03*
%TO.P,J1,9,9*%
%TO.N,Net-(J6-Pin_10)*%
X47741800Y-119296303D03*
%TO.P,J1,10,10*%
%TO.N,Net-(J6-Pin_8)*%
X47741800Y-117296303D03*
%TO.P,J1,11,11*%
%TO.N,Net-(J6-Pin_9)*%
X47741800Y-115296303D03*
%TO.P,J1,12,12*%
%TO.N,Net-(J6-Pin_7)*%
X47741800Y-113296303D03*
%TO.P,J1,13,13*%
%TO.N,Net-(J6-Pin_6)*%
X47741800Y-111296303D03*
%TO.P,J1,14,14*%
%TO.N,Net-(J6-Pin_4)*%
X47741800Y-109296303D03*
%TO.P,J1,15,15*%
%TO.N,Net-(J6-Pin_5)*%
X47741800Y-107296303D03*
%TD*%
D10*
%TO.P,J4,1,Pin_1*%
%TO.N,Net-(J4-Pin_1)*%
X46527200Y-100482400D03*
D11*
%TO.P,J4,2,Pin_2*%
%TO.N,Net-(D2-K)*%
X48527200Y-100482400D03*
%TO.P,J4,3,Pin_3*%
X50527200Y-100482400D03*
%TO.P,J4,4,Pin_4*%
X52527200Y-100482400D03*
%TO.P,J4,5,Pin_5*%
%TO.N,Net-(J4-Pin_5)*%
X54527200Y-100482400D03*
%TO.P,J4,6,Pin_6*%
X56527200Y-100482400D03*
%TO.P,J4,7,Pin_7*%
X58527200Y-100482400D03*
%TO.P,J4,8,Pin_8*%
%TO.N,Net-(J4-Pin_8)*%
X60527200Y-100482400D03*
%TO.P,J4,9,Pin_9*%
%TO.N,Net-(D2-A)*%
X62527200Y-100482400D03*
%TO.P,J4,10,Pin_10*%
%TO.N,Net-(J4-Pin_10)*%
X64527200Y-100482400D03*
%TO.P,J4,11,Pin_11*%
X66527200Y-100482400D03*
%TO.P,J4,12,Pin_12*%
X68527200Y-100482400D03*
%TD*%
D15*
%TO.P,TP3,1,1*%
%TO.N,Net-(D2-K)*%
X75742800Y-121296303D03*
%TD*%
D10*
%TO.P,J2,1,1*%
%TO.N,unconnected-(J2-Pad1)*%
X67741800Y-135296303D03*
D11*
%TO.P,J2,2,2*%
%TO.N,unconnected-(J2-Pad2)*%
X67741800Y-133296303D03*
%TO.P,J2,3,3*%
%TO.N,unconnected-(J2-Pad3)*%
X67741800Y-131296303D03*
%TO.P,J2,4,4*%
%TO.N,unconnected-(J2-Pad4)*%
X67741800Y-129296303D03*
%TO.P,J2,5,5*%
%TO.N,unconnected-(J2-Pad5)*%
X67741800Y-127296303D03*
%TO.P,J2,6,6*%
%TO.N,unconnected-(J2-Pad6)*%
X67741800Y-125296303D03*
%TO.P,J2,7,7*%
%TO.N,unconnected-(J2-Pad7)*%
X67741800Y-123296303D03*
%TO.P,J2,8,8*%
%TO.N,unconnected-(J2-Pad8)*%
X67741800Y-121296303D03*
%TO.P,J2,9,9*%
%TO.N,unconnected-(J2-Pad9)*%
X67741800Y-119296303D03*
%TO.P,J2,10,10*%
%TO.N,unconnected-(J2-Pad10)*%
X67741800Y-117296303D03*
%TO.P,J2,11,11*%
%TO.N,unconnected-(J2-Pad11)*%
X67741800Y-115296303D03*
%TO.P,J2,12,12*%
%TO.N,unconnected-(J2-Pad12)*%
X67741800Y-113296303D03*
%TO.P,J2,13,13*%
%TO.N,unconnected-(J2-Pad13)*%
X67741800Y-111296303D03*
%TO.P,J2,14,14*%
%TO.N,unconnected-(J2-Pad14)*%
X67741800Y-109296303D03*
%TO.P,J2,15,15*%
%TO.N,unconnected-(J2-Pad15)*%
X67741800Y-107296303D03*
%TD*%
D15*
%TO.P,TP4,1,1*%
%TO.N,Net-(D2-A)*%
X90115500Y-121296303D03*
%TD*%
D10*
%TO.P,J3,1,1*%
%TO.N,Net-(J4-Pin_5)*%
X57741800Y-135296303D03*
D11*
%TO.P,J3,2,2*%
%TO.N,unconnected-(J3-Pad2)*%
X57741800Y-133296303D03*
%TO.P,J3,3,3*%
%TO.N,unconnected-(J3-Pad3)*%
X57741800Y-131296303D03*
%TO.P,J3,4,4*%
%TO.N,Net-(J4-Pin_8)*%
X57741800Y-129296303D03*
%TO.P,J3,5,5*%
%TO.N,Net-(J7-Pin_12)*%
X57741800Y-127296303D03*
%TO.P,J3,6,6*%
%TO.N,Net-(J7-Pin_10)*%
X57741800Y-125296303D03*
%TO.P,J3,7,7*%
%TO.N,Net-(J7-Pin_8)*%
X57741800Y-123296303D03*
%TO.P,J3,8,8*%
%TO.N,Net-(J7-Pin_7)*%
X57741800Y-121296303D03*
%TO.P,J3,9,9*%
%TO.N,Net-(J4-Pin_5)*%
X57741800Y-119296303D03*
%TO.P,J3,10,10*%
X57741800Y-117296303D03*
%TO.P,J3,11,11*%
%TO.N,Net-(D2-K)*%
X57741800Y-115296303D03*
%TO.P,J3,12,12*%
X57741800Y-113296303D03*
%TO.P,J3,13,13*%
X57741800Y-111296303D03*
%TO.P,J3,14,14*%
%TO.N,Net-(D2-A)*%
X57741800Y-109296303D03*
%TO.P,J3,15,15*%
X57741800Y-107296303D03*
%TD*%
D10*
%TO.P,J6,1,Pin_1*%
%TO.N,Net-(J4-Pin_5)*%
X97380000Y-100244900D03*
D11*
%TO.P,J6,2,Pin_2*%
%TO.N,Net-(J4-Pin_8)*%
X99380000Y-100244900D03*
%TO.P,J6,3,Pin_3*%
%TO.N,Net-(D2-A)*%
X101380000Y-100244900D03*
%TO.P,J6,4,Pin_4*%
%TO.N,Net-(J6-Pin_4)*%
X103380000Y-100244900D03*
%TO.P,J6,5,Pin_5*%
%TO.N,Net-(J6-Pin_5)*%
X105380000Y-100244900D03*
%TO.P,J6,6,Pin_6*%
%TO.N,Net-(J6-Pin_6)*%
X107380000Y-100244900D03*
%TO.P,J6,7,Pin_7*%
%TO.N,Net-(J6-Pin_7)*%
X109380000Y-100244900D03*
%TO.P,J6,8,Pin_8*%
%TO.N,Net-(J6-Pin_8)*%
X111380000Y-100244900D03*
%TO.P,J6,9,Pin_9*%
%TO.N,Net-(J6-Pin_9)*%
X113380000Y-100244900D03*
%TO.P,J6,10,Pin_10*%
%TO.N,Net-(J6-Pin_10)*%
X115380000Y-100244900D03*
%TO.P,J6,11,Pin_11*%
%TO.N,Net-(J6-Pin_11)*%
X117380000Y-100244900D03*
%TO.P,J6,12,Pin_12*%
%TO.N,Net-(J6-Pin_12)*%
X119380000Y-100244900D03*
%TD*%
D16*
%TO.N,Net-(J6-Pin_9)*%
X54254400Y-135636000D03*
X61315600Y-128524000D03*
%TO.N,Net-(J6-Pin_8)*%
X55600600Y-134416800D03*
X59791600Y-128397000D03*
%TO.N,Net-(J6-Pin_6)*%
X87414100Y-102445200D03*
%TO.N,Net-(J6-Pin_5)*%
X90410405Y-103962200D03*
%TO.N,Net-(J6-Pin_7)*%
X85547200Y-101695200D03*
%TO.N,Net-(J6-Pin_4)*%
X94361000Y-103212200D03*
%TO.N,Net-(J4-Pin_10)*%
X48965000Y-128270000D03*
X48961648Y-110397952D03*
%TO.N,Net-(J7-Pin_11)*%
X46456600Y-134035800D03*
%TO.N,Net-(D2-K)*%
X62941200Y-114427000D03*
X84632800Y-137541000D03*
%TO.N,Net-(D2-A)*%
X90055700Y-111594900D03*
%TD*%
D17*
%TO.N,Net-(J6-Pin_12)*%
X85685000Y-143573600D02*
X84580000Y-142468600D01*
X83475000Y-143573600D02*
X52997200Y-143573600D01*
X52997200Y-143573600D02*
X45516800Y-136093200D01*
X45516800Y-113639503D02*
X47860000Y-111296303D01*
X84580000Y-142468600D02*
X83475000Y-143573600D01*
X119380000Y-116052600D02*
X91859000Y-143573600D01*
X91859000Y-143573600D02*
X85685000Y-143573600D01*
X45516800Y-136093200D02*
X45516800Y-113639503D01*
X119380000Y-100244900D02*
X119380000Y-116052600D01*
%TO.N,Net-(J6-Pin_9)*%
X55720703Y-137102303D02*
X58608070Y-137102303D01*
X58608070Y-137102303D02*
X61315600Y-134394773D01*
X54254400Y-135636000D02*
X55720703Y-137102303D01*
X61315600Y-134394773D02*
X61315600Y-128524000D01*
%TO.N,Net-(J6-Pin_8)*%
X59791600Y-134927409D02*
X59791600Y-128397000D01*
X57402294Y-136401303D02*
X58317706Y-136401303D01*
X55600600Y-134599609D02*
X57402294Y-136401303D01*
X55600600Y-134416800D02*
X55600600Y-134599609D01*
X58317706Y-136401303D02*
X59791600Y-134927409D01*
%TO.N,Net-(J4-Pin_5)*%
X61722000Y-116154200D02*
X60579897Y-117296303D01*
X87071200Y-118846600D02*
X72821800Y-104597200D01*
X67411600Y-104597200D02*
X61722000Y-110286800D01*
X76512703Y-136401303D02*
X66094103Y-136401303D01*
X61722000Y-110286800D02*
X61722000Y-116154200D01*
X82580000Y-142468600D02*
X76512703Y-136401303D01*
X86580000Y-142468600D02*
X87071200Y-141977400D01*
X72821800Y-104597200D02*
X67411600Y-104597200D01*
X63855600Y-125291903D02*
X57860000Y-119296303D01*
X66094103Y-136401303D02*
X63855600Y-134162800D01*
X63855600Y-134162800D02*
X63855600Y-125291903D01*
X60579897Y-117296303D02*
X57860000Y-117296303D01*
X87071200Y-141977400D02*
X87071200Y-118846600D01*
%TO.N,Net-(J6-Pin_6)*%
X53949600Y-129387600D02*
X52040897Y-131296303D01*
X56174272Y-104789303D02*
X53949600Y-107013975D01*
X66395600Y-102565200D02*
X64171497Y-104789303D01*
X52040897Y-131296303D02*
X47860000Y-131296303D01*
X53949600Y-107013975D02*
X53949600Y-129387600D01*
X66589508Y-102445200D02*
X66469508Y-102565200D01*
X87414100Y-102445200D02*
X66589508Y-102445200D01*
X66469508Y-102565200D02*
X66395600Y-102565200D01*
X64171497Y-104789303D02*
X56174272Y-104789303D01*
%TO.N,Net-(J6-Pin_11)*%
X116275000Y-99139900D02*
X45659700Y-99139900D01*
X45422200Y-99377400D02*
X45422200Y-104858503D01*
X45422200Y-104858503D02*
X47860000Y-107296303D01*
X117380000Y-100244900D02*
X116275000Y-99139900D01*
X45659700Y-99139900D02*
X45422200Y-99377400D01*
%TO.N,Net-(J6-Pin_5)*%
X64826133Y-106191303D02*
X56755000Y-106191303D01*
X90410405Y-103962200D02*
X73178164Y-103962200D01*
X55819000Y-107127303D02*
X55819000Y-132293400D01*
X56755000Y-106191303D02*
X55819000Y-107127303D01*
X55819000Y-132293400D02*
X52816097Y-135296303D01*
X73112164Y-103896200D02*
X67121236Y-103896200D01*
X67121236Y-103896200D02*
X64826133Y-106191303D01*
X73178164Y-103962200D02*
X73112164Y-103896200D01*
X52816097Y-135296303D02*
X47860000Y-135296303D01*
%TO.N,Net-(J6-Pin_7)*%
X66105236Y-101864200D02*
X63881133Y-104088303D01*
X66325800Y-101695200D02*
X66156800Y-101864200D01*
X53248600Y-127421600D02*
X51373897Y-129296303D01*
X51373897Y-129296303D02*
X47860000Y-129296303D01*
X53248600Y-106723611D02*
X53248600Y-127421600D01*
X55883908Y-104088303D02*
X53248600Y-106723611D01*
X66156800Y-101864200D02*
X66105236Y-101864200D01*
X85547200Y-101695200D02*
X66325800Y-101695200D01*
X63881133Y-104088303D02*
X55883908Y-104088303D01*
%TO.N,Net-(J6-Pin_4)*%
X55118000Y-106836939D02*
X56464636Y-105490303D01*
X51971297Y-133296303D02*
X55118000Y-130149600D01*
X55118000Y-130149600D02*
X55118000Y-106836939D01*
X56464636Y-105490303D02*
X64535769Y-105490303D01*
X64535769Y-105490303D02*
X66830872Y-103195200D01*
X47860000Y-133296303D02*
X51971297Y-133296303D01*
X66830872Y-103195200D02*
X94344000Y-103195200D01*
X94344000Y-103195200D02*
X94361000Y-103212200D01*
%TO.N,Net-(J4-Pin_8)*%
X99380000Y-100244900D02*
X89234222Y-110390678D01*
X89234222Y-110390678D02*
X84639150Y-110390678D01*
%TO.N,Net-(J4-Pin_10)*%
X64527200Y-100482400D02*
X63079400Y-101930200D01*
X55226104Y-101930200D02*
X47860001Y-109296303D01*
X47860001Y-109296303D02*
X47860000Y-109296303D01*
X63079400Y-101930200D02*
X55226104Y-101930200D01*
X48965000Y-128270000D02*
X48965000Y-110401303D01*
%TO.N,Net-(J7-Pin_11)*%
X46456600Y-134035800D02*
X46456600Y-120699703D01*
X46456600Y-120699703D02*
X47860000Y-119296303D01*
%TO.N,Net-(D2-K)*%
X63017400Y-114350800D02*
X63017400Y-109982764D01*
X67701964Y-105298200D02*
X72531436Y-105298200D01*
X62941200Y-114427000D02*
X63017400Y-114350800D01*
X72531436Y-105298200D02*
X72531436Y-125439636D01*
X63017400Y-109982764D02*
X67701964Y-105298200D01*
X72531436Y-125439636D02*
X84632800Y-137541000D01*
%TO.N,Net-(D2-A)*%
X90055700Y-111594900D02*
X90055700Y-111569200D01*
X90055700Y-111569200D02*
X101380000Y-100244900D01*
X90115500Y-111654700D02*
X90115500Y-121296303D01*
%TO.N,Net-(J7-Pin_7)*%
X62687200Y-126123503D02*
X57860000Y-121296303D01*
X62687200Y-134924800D02*
X62687200Y-126123503D01*
X80580000Y-142468600D02*
X75703200Y-137591800D01*
X75703200Y-137591800D02*
X65354200Y-137591800D01*
X65354200Y-137591800D02*
X62687200Y-134924800D01*
%TD*%
M02*
