%TF.GenerationSoftware,KiCad,Pcbnew,9.0.5*%
%TF.CreationDate,2026-02-03T17:24:59-05:00*%
%TF.ProjectId,Traces V1.0,54726163-6573-4205-9631-2e302e6b6963,rev?*%
%TF.SameCoordinates,Original*%
%TF.FileFunction,Copper,L4,Bot*%
%TF.FilePolarity,Positive*%
%FSLAX46Y46*%
G04 Gerber Fmt 4.6, Leading zero omitted, Abs format (unit mm)*
G04 Created by KiCad (PCBNEW 9.0.5) date 2026-02-03 17:24:59*
%MOMM*%
%LPD*%
G01*
G04 APERTURE LIST*
G04 Aperture macros list*
%AMRoundRect*
0 Rectangle with rounded corners*
0 $1 Rounding radius*
0 $2 $3 $4 $5 $6 $7 $8 $9 X,Y pos of 4 corners*
0 Add a 4 corners polygon primitive as box body*
4,1,4,$2,$3,$4,$5,$6,$7,$8,$9,$2,$3,0*
0 Add four circle primitives for the rounded corners*
1,1,$1+$1,$2,$3*
1,1,$1+$1,$4,$5*
1,1,$1+$1,$6,$7*
1,1,$1+$1,$8,$9*
0 Add four rect primitives between the rounded corners*
20,1,$1+$1,$2,$3,$4,$5,0*
20,1,$1+$1,$4,$5,$6,$7,0*
20,1,$1+$1,$6,$7,$8,$9,0*
20,1,$1+$1,$8,$9,$2,$3,0*%
G04 Aperture macros list end*
%TA.AperFunction,ComponentPad*%
%ADD10RoundRect,0.250000X0.625000X-0.350000X0.625000X0.350000X-0.625000X0.350000X-0.625000X-0.350000X0*%
%TD*%
%TA.AperFunction,ComponentPad*%
%ADD11O,1.750000X1.200000*%
%TD*%
%TA.AperFunction,ComponentPad*%
%ADD12R,1.700000X1.700000*%
%TD*%
%TA.AperFunction,ComponentPad*%
%ADD13C,1.700000*%
%TD*%
%TA.AperFunction,ComponentPad*%
%ADD14RoundRect,0.250000X-0.350000X-0.625000X0.350000X-0.625000X0.350000X0.625000X-0.350000X0.625000X0*%
%TD*%
%TA.AperFunction,ComponentPad*%
%ADD15O,1.200000X1.750000*%
%TD*%
%TA.AperFunction,ComponentPad*%
%ADD16C,2.400000*%
%TD*%
%TA.AperFunction,ViaPad*%
%ADD17C,1.500000*%
%TD*%
%TA.AperFunction,ViaPad*%
%ADD18C,0.600000*%
%TD*%
%TA.AperFunction,Conductor*%
%ADD19C,1.500000*%
%TD*%
%TA.AperFunction,Conductor*%
%ADD20C,0.500000*%
%TD*%
G04 APERTURE END LIST*
D10*
%TO.P,J2,1,1*%
%TO.N,Net-(J7-Pin_3)*%
X76200000Y-99250000D03*
D11*
%TO.P,J2,2,2*%
%TO.N,Net-(J7-Pin_4)*%
X76200000Y-97250000D03*
%TO.P,J2,3,3*%
%TO.N,unconnected-(J2-Pad3)*%
X76200000Y-95250000D03*
%TO.P,J2,4,4*%
%TO.N,unconnected-(J2-Pad4)*%
X76200000Y-93250000D03*
%TO.P,J2,5,5*%
%TO.N,Net-(J5-Pin_9)*%
X76200000Y-91250000D03*
%TO.P,J2,6,6*%
%TO.N,Net-(J5-Pin_8)*%
X76200000Y-89250000D03*
%TO.P,J2,7,7*%
%TO.N,Net-(J5-Pin_7)*%
X76200000Y-87250000D03*
%TO.P,J2,8,8*%
%TO.N,Net-(J5-Pin_6)*%
X76200000Y-85250000D03*
%TO.P,J2,9,9*%
%TO.N,unconnected-(J2-Pad9)*%
X76200000Y-83250000D03*
%TO.P,J2,10,10*%
%TO.N,unconnected-(J2-Pad10)*%
X76200000Y-81250000D03*
%TO.P,J2,11,11*%
%TO.N,unconnected-(J2-Pad11)*%
X76200000Y-79250000D03*
%TO.P,J2,12,12*%
%TO.N,unconnected-(J2-Pad12)*%
X76200000Y-77250000D03*
%TO.P,J2,13,13*%
%TO.N,unconnected-(J2-Pad13)*%
X76200000Y-75250000D03*
%TO.P,J2,14,14*%
%TO.N,unconnected-(J2-Pad14)*%
X76200000Y-73250000D03*
%TO.P,J2,15,15*%
%TO.N,unconnected-(J2-Pad15)*%
X76200000Y-71250000D03*
%TD*%
D12*
%TO.P,REF\u002A\u002A,1*%
%TO.N,N/C*%
X91420000Y-61000000D03*
D13*
%TO.P,REF\u002A\u002A,2*%
X93960000Y-61000000D03*
%TO.P,REF\u002A\u002A,3*%
X96500000Y-61000000D03*
%TO.P,REF\u002A\u002A,4*%
X99040000Y-61000000D03*
%TO.P,REF\u002A\u002A,5*%
X101580000Y-61000000D03*
%TO.P,REF\u002A\u002A,6*%
X104120000Y-61000000D03*
%TO.P,REF\u002A\u002A,7*%
X106660000Y-61000000D03*
%TO.P,REF\u002A\u002A,8*%
X109200000Y-61000000D03*
%TO.P,REF\u002A\u002A,9*%
X111740000Y-61000000D03*
%TO.P,REF\u002A\u002A,10*%
X114280000Y-61000000D03*
%TO.P,REF\u002A\u002A,11*%
X116820000Y-61000000D03*
%TO.P,REF\u002A\u002A,12*%
X119360000Y-61000000D03*
%TO.P,REF\u002A\u002A,13*%
X121900000Y-61000000D03*
%TO.P,REF\u002A\u002A,14*%
X124440000Y-61000000D03*
%TO.P,REF\u002A\u002A,15*%
X126980000Y-61000000D03*
%TO.P,REF\u002A\u002A,16*%
X129520000Y-61000000D03*
%TO.P,REF\u002A\u002A,17*%
X132060000Y-61000000D03*
%TO.P,REF\u002A\u002A,18*%
X134600000Y-61000000D03*
%TO.P,REF\u002A\u002A,19*%
X137140000Y-61000000D03*
%TO.P,REF\u002A\u002A,20*%
X139680000Y-61000000D03*
%TD*%
D14*
%TO.P,J4,1,Pin_1*%
%TO.N,Net-(J4-Pin_1)*%
X92680000Y-64770000D03*
D15*
%TO.P,J4,2,Pin_2*%
X94680000Y-64770000D03*
%TO.P,J4,3,Pin_3*%
X96680000Y-64770000D03*
%TO.P,J4,4,Pin_4*%
%TO.N,Net-(D2-A)*%
X98680000Y-64770000D03*
%TO.P,J4,5,Pin_5*%
%TO.N,Net-(J4-Pin_5)*%
X100680000Y-64770000D03*
%TO.P,J4,6,Pin_6*%
%TO.N,Net-(J4-Pin_6)*%
X102680000Y-64770000D03*
%TO.P,J4,7,Pin_7*%
X104680000Y-64770000D03*
%TO.P,J4,8,Pin_8*%
X106680000Y-64770000D03*
%TO.P,J4,9,Pin_9*%
%TO.N,Net-(D2-K)*%
X108680000Y-64770000D03*
%TO.P,J4,10,Pin_10*%
X110680000Y-64770000D03*
%TO.P,J4,11,Pin_11*%
X112680000Y-64770000D03*
%TO.P,J4,12,Pin_12*%
%TO.N,Net-(J4-Pin_12)*%
X114680000Y-64770000D03*
%TD*%
D12*
%TO.P,REF\u002A\u002A,1*%
%TO.N,N/C*%
X40375000Y-60960000D03*
D13*
%TO.P,REF\u002A\u002A,2*%
X42915000Y-60960000D03*
%TO.P,REF\u002A\u002A,3*%
X45455000Y-60960000D03*
%TO.P,REF\u002A\u002A,4*%
X47995000Y-60960000D03*
%TO.P,REF\u002A\u002A,5*%
X50535000Y-60960000D03*
%TO.P,REF\u002A\u002A,6*%
X53075000Y-60960000D03*
%TO.P,REF\u002A\u002A,7*%
X55615000Y-60960000D03*
%TO.P,REF\u002A\u002A,8*%
X58155000Y-60960000D03*
%TO.P,REF\u002A\u002A,9*%
X60695000Y-60960000D03*
%TO.P,REF\u002A\u002A,10*%
X63235000Y-60960000D03*
%TO.P,REF\u002A\u002A,11*%
X65775000Y-60960000D03*
%TO.P,REF\u002A\u002A,12*%
X68315000Y-60960000D03*
%TO.P,REF\u002A\u002A,13*%
X70855000Y-60960000D03*
%TO.P,REF\u002A\u002A,14*%
X73395000Y-60960000D03*
%TO.P,REF\u002A\u002A,15*%
X75935000Y-60960000D03*
%TO.P,REF\u002A\u002A,16*%
X78475000Y-60960000D03*
%TO.P,REF\u002A\u002A,17*%
X81015000Y-60960000D03*
%TO.P,REF\u002A\u002A,18*%
X83555000Y-60960000D03*
%TO.P,REF\u002A\u002A,19*%
X86095000Y-60960000D03*
%TO.P,REF\u002A\u002A,20*%
X88635000Y-60960000D03*
%TD*%
D14*
%TO.P,J5,1,Pin_1*%
%TO.N,unconnected-(J5-Pin_1-Pad1)*%
X116840000Y-104140000D03*
D15*
%TO.P,J5,2,Pin_2*%
%TO.N,unconnected-(J5-Pin_2-Pad2)*%
X118840000Y-104140000D03*
%TO.P,J5,3,Pin_3*%
%TO.N,unconnected-(J5-Pin_3-Pad3)*%
X120840000Y-104140000D03*
%TO.P,J5,4,Pin_4*%
%TO.N,unconnected-(J5-Pin_4-Pad4)*%
X122840000Y-104140000D03*
%TO.P,J5,5,Pin_5*%
%TO.N,unconnected-(J5-Pin_5-Pad5)*%
X124840000Y-104140000D03*
%TO.P,J5,6,Pin_6*%
%TO.N,Net-(J5-Pin_6)*%
X126840000Y-104140000D03*
%TO.P,J5,7,Pin_7*%
%TO.N,Net-(J5-Pin_7)*%
X128840000Y-104140000D03*
%TO.P,J5,8,Pin_8*%
%TO.N,Net-(J5-Pin_8)*%
X130840000Y-104140000D03*
%TO.P,J5,9,Pin_9*%
%TO.N,Net-(J5-Pin_9)*%
X132840000Y-104140000D03*
%TO.P,J5,10,Pin_10*%
%TO.N,Net-(J4-Pin_1)*%
X134840000Y-104140000D03*
%TO.P,J5,11,Pin_11*%
%TO.N,Net-(D2-A)*%
X136840000Y-104140000D03*
%TO.P,J5,12,Pin_12*%
%TO.N,Net-(J4-Pin_5)*%
X138840000Y-104140000D03*
%TD*%
D12*
%TO.P,REF\u002A\u002A,1*%
%TO.N,N/C*%
X40280000Y-109220000D03*
D13*
%TO.P,REF\u002A\u002A,2*%
X42820000Y-109220000D03*
%TO.P,REF\u002A\u002A,3*%
X45360000Y-109220000D03*
%TO.P,REF\u002A\u002A,4*%
X47900000Y-109220000D03*
%TO.P,REF\u002A\u002A,5*%
X50440000Y-109220000D03*
%TO.P,REF\u002A\u002A,6*%
X52980000Y-109220000D03*
%TO.P,REF\u002A\u002A,7*%
X55520000Y-109220000D03*
%TO.P,REF\u002A\u002A,8*%
X58060000Y-109220000D03*
%TO.P,REF\u002A\u002A,9*%
X60600000Y-109220000D03*
%TO.P,REF\u002A\u002A,10*%
X63140000Y-109220000D03*
%TO.P,REF\u002A\u002A,11*%
X65680000Y-109220000D03*
%TO.P,REF\u002A\u002A,12*%
X68220000Y-109220000D03*
%TO.P,REF\u002A\u002A,13*%
X70760000Y-109220000D03*
%TO.P,REF\u002A\u002A,14*%
X73300000Y-109220000D03*
%TO.P,REF\u002A\u002A,15*%
X75840000Y-109220000D03*
%TO.P,REF\u002A\u002A,16*%
X78380000Y-109220000D03*
%TO.P,REF\u002A\u002A,17*%
X80920000Y-109220000D03*
%TO.P,REF\u002A\u002A,18*%
X83460000Y-109220000D03*
%TO.P,REF\u002A\u002A,19*%
X86000000Y-109220000D03*
%TO.P,REF\u002A\u002A,20*%
X88540000Y-109220000D03*
%TD*%
D10*
%TO.P,J1,1,1*%
%TO.N,Net-(J6-Pin_8)*%
X43180000Y-98740000D03*
D11*
%TO.P,J1,2,2*%
%TO.N,Net-(J6-Pin_9)*%
X43180000Y-96740000D03*
%TO.P,J1,3,3*%
%TO.N,Net-(J6-Pin_7)*%
X43180000Y-94740000D03*
%TO.P,J1,4,4*%
%TO.N,Net-(J6-Pin_6)*%
X43180000Y-92740000D03*
%TO.P,J1,5,5*%
%TO.N,Net-(J6-Pin_4)*%
X43180000Y-90740000D03*
%TO.P,J1,6,6*%
%TO.N,Net-(J6-Pin_5)*%
X43180000Y-88740000D03*
%TO.P,J1,7,7*%
%TO.N,Net-(J6-Pin_3)*%
X43180000Y-86740000D03*
%TO.P,J1,8,8*%
%TO.N,Net-(J4-Pin_12)*%
X43180000Y-84740000D03*
%TO.P,J1,9,9*%
%TO.N,Net-(J7-Pin_11)*%
X43180000Y-82740000D03*
%TO.P,J1,10,10*%
%TO.N,Net-(J1-Pad10)*%
X43180000Y-80740000D03*
%TO.P,J1,11,11*%
%TO.N,Net-(J7-Pin_2)*%
X43180000Y-78740000D03*
%TO.P,J1,12,12*%
%TO.N,Net-(J1-Pad10)*%
X43180000Y-76740000D03*
%TO.P,J1,13,13*%
%TO.N,Net-(J6-Pin_1)*%
X43180000Y-74740000D03*
%TO.P,J1,14,14*%
%TO.N,Net-(J4-Pin_1)*%
X43180000Y-72740000D03*
%TO.P,J1,15,15*%
%TO.N,Net-(J6-Pin_2)*%
X43180000Y-70740000D03*
%TD*%
D16*
%TO.P,F1,1,1*%
%TO.N,Net-(D2-K)*%
X70460000Y-98200000D03*
%TO.P,F1,2,2*%
X60540000Y-98200000D03*
%TO.P,F1,3,3*%
%TO.N,Net-(J4-Pin_5)*%
X70460000Y-94800000D03*
%TO.P,F1,4,4*%
X60540000Y-94800000D03*
%TD*%
D14*
%TO.P,J7,1,Pin_1*%
%TO.N,unconnected-(J7-Pin_1-Pad1)*%
X66040000Y-104140000D03*
D15*
%TO.P,J7,2,Pin_2*%
%TO.N,Net-(J7-Pin_2)*%
X68040000Y-104140000D03*
%TO.P,J7,3,Pin_3*%
%TO.N,Net-(J7-Pin_3)*%
X70040000Y-104140000D03*
%TO.P,J7,4,Pin_4*%
%TO.N,Net-(J7-Pin_4)*%
X72040000Y-104140000D03*
%TO.P,J7,5,Pin_5*%
%TO.N,Net-(J4-Pin_1)*%
X74040000Y-104140000D03*
%TO.P,J7,6,Pin_6*%
%TO.N,Net-(D2-A)*%
X76040000Y-104140000D03*
%TO.P,J7,7,Pin_7*%
%TO.N,Net-(J7-Pin_7)*%
X78040000Y-104140000D03*
%TO.P,J7,8,Pin_8*%
%TO.N,Net-(J7-Pin_8)*%
X80040000Y-104140000D03*
%TO.P,J7,9,Pin_9*%
%TO.N,Net-(J6-Pin_1)*%
X82040000Y-104140000D03*
%TO.P,J7,10,Pin_10*%
%TO.N,Net-(J7-Pin_10)*%
X84040000Y-104140000D03*
%TO.P,J7,11,Pin_11*%
%TO.N,Net-(J7-Pin_11)*%
X86040000Y-104140000D03*
%TO.P,J7,12,Pin_12*%
%TO.N,Net-(J7-Pin_12)*%
X88040000Y-104140000D03*
%TD*%
D10*
%TO.P,J3,1,1*%
%TO.N,Net-(D2-A)*%
X53340000Y-98740000D03*
D11*
%TO.P,J3,2,2*%
X53340000Y-96740000D03*
%TO.P,J3,3,3*%
%TO.N,Net-(D2-K)*%
X53340000Y-94740000D03*
%TO.P,J3,4,4*%
X53340000Y-92740000D03*
%TO.P,J3,5,5*%
X53340000Y-90740000D03*
%TO.P,J3,6,6*%
%TO.N,Net-(J4-Pin_6)*%
X53340000Y-88740000D03*
%TO.P,J3,7,7*%
X53340000Y-86740000D03*
%TO.P,J3,8,8*%
%TO.N,Net-(J7-Pin_7)*%
X53340000Y-84740000D03*
%TO.P,J3,9,9*%
%TO.N,Net-(J7-Pin_8)*%
X53340000Y-82740000D03*
%TO.P,J3,10,10*%
%TO.N,Net-(J7-Pin_10)*%
X53340000Y-80740000D03*
%TO.P,J3,11,11*%
%TO.N,Net-(J7-Pin_12)*%
X53340000Y-78740000D03*
%TO.P,J3,12,12*%
%TO.N,Net-(J4-Pin_5)*%
X53340000Y-76740000D03*
%TO.P,J3,13,13*%
%TO.N,unconnected-(J3-Pad13)*%
X53340000Y-74740000D03*
%TO.P,J3,14,14*%
%TO.N,unconnected-(J3-Pad14)*%
X53340000Y-72740000D03*
%TO.P,J3,15,15*%
%TO.N,Net-(J4-Pin_6)*%
X53340000Y-70740000D03*
%TD*%
D12*
%TO.P,REF\u002A\u002A,1*%
%TO.N,N/C*%
X91440000Y-109220000D03*
D13*
%TO.P,REF\u002A\u002A,2*%
X93980000Y-109220000D03*
%TO.P,REF\u002A\u002A,3*%
X96520000Y-109220000D03*
%TO.P,REF\u002A\u002A,4*%
X99060000Y-109220000D03*
%TO.P,REF\u002A\u002A,5*%
X101600000Y-109220000D03*
%TO.P,REF\u002A\u002A,6*%
X104140000Y-109220000D03*
%TO.P,REF\u002A\u002A,7*%
X106680000Y-109220000D03*
%TO.P,REF\u002A\u002A,8*%
X109220000Y-109220000D03*
%TO.P,REF\u002A\u002A,9*%
X111760000Y-109220000D03*
%TO.P,REF\u002A\u002A,10*%
X114300000Y-109220000D03*
%TO.P,REF\u002A\u002A,11*%
X116840000Y-109220000D03*
%TO.P,REF\u002A\u002A,12*%
X119380000Y-109220000D03*
%TO.P,REF\u002A\u002A,13*%
X121920000Y-109220000D03*
%TO.P,REF\u002A\u002A,14*%
X124460000Y-109220000D03*
%TO.P,REF\u002A\u002A,15*%
X127000000Y-109220000D03*
%TO.P,REF\u002A\u002A,16*%
X129540000Y-109220000D03*
%TO.P,REF\u002A\u002A,17*%
X132080000Y-109220000D03*
%TO.P,REF\u002A\u002A,18*%
X134620000Y-109220000D03*
%TO.P,REF\u002A\u002A,19*%
X137160000Y-109220000D03*
%TO.P,REF\u002A\u002A,20*%
X139700000Y-109220000D03*
%TD*%
D14*
%TO.P,J6,1,Pin_1*%
%TO.N,Net-(J6-Pin_1)*%
X41910000Y-64770000D03*
D15*
%TO.P,J6,2,Pin_2*%
%TO.N,Net-(J6-Pin_2)*%
X43910000Y-64770000D03*
%TO.P,J6,3,Pin_3*%
%TO.N,Net-(J6-Pin_3)*%
X45910000Y-64770000D03*
%TO.P,J6,4,Pin_4*%
%TO.N,Net-(J6-Pin_4)*%
X47910000Y-64770000D03*
%TO.P,J6,5,Pin_5*%
%TO.N,Net-(J6-Pin_5)*%
X49910000Y-64770000D03*
%TO.P,J6,6,Pin_6*%
%TO.N,Net-(J6-Pin_6)*%
X51910000Y-64770000D03*
%TO.P,J6,7,Pin_7*%
%TO.N,Net-(J6-Pin_7)*%
X53910000Y-64770000D03*
%TO.P,J6,8,Pin_8*%
%TO.N,Net-(J6-Pin_8)*%
X55910000Y-64770000D03*
%TO.P,J6,9,Pin_9*%
%TO.N,Net-(J6-Pin_9)*%
X57910000Y-64770000D03*
%TO.P,J6,10,Pin_10*%
%TO.N,Net-(D2-A)*%
X59910000Y-64770000D03*
%TO.P,J6,11,Pin_11*%
%TO.N,Net-(J4-Pin_5)*%
X61910000Y-64770000D03*
%TO.P,J6,12,Pin_12*%
%TO.N,Net-(J4-Pin_6)*%
X63910000Y-64770000D03*
%TD*%
D17*
%TO.N,Net-(J4-Pin_1)*%
X94500000Y-68300000D03*
X81701000Y-92201000D03*
D18*
%TO.N,Net-(J4-Pin_5)*%
X100000000Y-67500000D03*
X55451000Y-75000000D03*
X83500000Y-68500000D03*
X65500000Y-69000000D03*
D17*
%TO.N,Net-(D2-K)*%
X67868778Y-67296000D03*
%TO.N,Net-(D2-A)*%
X95500000Y-70500000D03*
X88500000Y-107419000D03*
D18*
%TO.N,Net-(J6-Pin_1)*%
X78500000Y-69500000D03*
X66500000Y-69000000D03*
X73495337Y-68995337D03*
X65500000Y-63000000D03*
%TD*%
D19*
%TO.N,Net-(J4-Pin_1)*%
X134840000Y-104140000D02*
X134840000Y-103671555D01*
X134840000Y-103671555D02*
X133482445Y-102314000D01*
D20*
X41153000Y-74767000D02*
X41153000Y-100056364D01*
D19*
X81701000Y-94701000D02*
X81701000Y-92500000D01*
X81701000Y-92201000D02*
X81701000Y-73799000D01*
D20*
X41153000Y-100056364D02*
X47268636Y-106172000D01*
X43180000Y-72740000D02*
X41153000Y-74767000D01*
D19*
X85500000Y-70000000D02*
X92800000Y-70000000D01*
X92800000Y-70000000D02*
X94500000Y-68300000D01*
D20*
X72008000Y-106172000D02*
X74040000Y-104140000D01*
D19*
X133482445Y-102314000D02*
X89314000Y-102314000D01*
D20*
X47268636Y-106172000D02*
X72008000Y-106172000D01*
D19*
X89314000Y-102314000D02*
X81701000Y-94701000D01*
X81701000Y-73799000D02*
X85500000Y-70000000D01*
D20*
%TO.N,Net-(J4-Pin_5)*%
X135700000Y-101000000D02*
X89698470Y-101000000D01*
X95198471Y-72500000D02*
X100000000Y-67698471D01*
X90203000Y-66797000D02*
X88500000Y-68500000D01*
X100000000Y-67698471D02*
X100000000Y-67500000D01*
X53760000Y-76740000D02*
X53340000Y-76740000D01*
X55500000Y-70000000D02*
X55500000Y-75000000D01*
X138840000Y-104140000D02*
X135700000Y-101000000D01*
X84698470Y-72500000D02*
X95198471Y-72500000D01*
X65500000Y-69000000D02*
X56500000Y-69000000D01*
X55500000Y-75000000D02*
X53760000Y-76740000D01*
X82902000Y-74296470D02*
X84698470Y-72500000D01*
X88500000Y-68500000D02*
X83500000Y-68500000D01*
X100000000Y-67500000D02*
X98500000Y-67500000D01*
X98500000Y-67500000D02*
X97797000Y-66797000D01*
X97797000Y-66797000D02*
X90203000Y-66797000D01*
X82902000Y-94203530D02*
X82902000Y-74296470D01*
X56500000Y-69000000D02*
X55500000Y-70000000D01*
X89698470Y-101000000D02*
X82902000Y-94203530D01*
D19*
%TO.N,Net-(D2-K)*%
X67854778Y-67310000D02*
X53340000Y-67310000D01*
X67868778Y-67296000D02*
X67854778Y-67310000D01*
X53340000Y-67310000D02*
X50800000Y-69850000D01*
X53340000Y-91440000D02*
X53340000Y-92740000D01*
X50800000Y-88900000D02*
X53340000Y-91440000D01*
X50800000Y-69850000D02*
X50800000Y-88900000D01*
%TO.N,Net-(D2-A)*%
X88500000Y-107419000D02*
X135936000Y-107419000D01*
X136840000Y-106515000D02*
X136840000Y-104140000D01*
X135936000Y-107419000D02*
X136840000Y-106515000D01*
D20*
%TO.N,Net-(J4-Pin_12)*%
X113354000Y-66096000D02*
X114680000Y-64770000D01*
X45212000Y-72644000D02*
X51760000Y-66096000D01*
X45212000Y-82708000D02*
X45212000Y-72644000D01*
X43180000Y-84740000D02*
X45212000Y-82708000D01*
X51760000Y-66096000D02*
X113354000Y-66096000D01*
D19*
%TO.N,Net-(J4-Pin_6)*%
X67866000Y-62944000D02*
X66040000Y-64770000D01*
X102680000Y-64770000D02*
X102680000Y-64301555D01*
X101322445Y-62944000D02*
X67866000Y-62944000D01*
X63910000Y-64770000D02*
X66040000Y-64770000D01*
X106680000Y-64770000D02*
X102680000Y-64770000D01*
X102680000Y-64301555D02*
X101322445Y-62944000D01*
D20*
%TO.N,Net-(J6-Pin_1)*%
X41910000Y-64770000D02*
X43680000Y-63000000D01*
X43680000Y-63000000D02*
X65500000Y-63000000D01*
X78500000Y-100600000D02*
X82040000Y-104140000D01*
X66500000Y-69000000D02*
X73559972Y-69000000D01*
X78500000Y-69500000D02*
X78500000Y-100600000D01*
%TO.N,Net-(J7-Pin_11)*%
X43543338Y-69342000D02*
X42816662Y-69342000D01*
X83307000Y-106873000D02*
X86040000Y-104140000D01*
X43180000Y-82740000D02*
X44506000Y-81414000D01*
X40452000Y-71706662D02*
X40452000Y-100346728D01*
X44506000Y-70304662D02*
X43543338Y-69342000D01*
X46978272Y-106873000D02*
X83307000Y-106873000D01*
X40452000Y-100346728D02*
X46978272Y-106873000D01*
X44506000Y-81414000D02*
X44506000Y-70304662D01*
X42816662Y-69342000D02*
X40452000Y-71706662D01*
%TO.N,Net-(J7-Pin_12)*%
X73551336Y-70000000D02*
X56500000Y-70000000D01*
X56201000Y-75879000D02*
X53340000Y-78740000D01*
X79508636Y-68000000D02*
X75551336Y-68000000D01*
X88040000Y-104140000D02*
X80500000Y-96600000D01*
X75551336Y-68000000D02*
X73551336Y-70000000D01*
X56500000Y-70000000D02*
X56201000Y-70299000D01*
X80500000Y-96600000D02*
X80500000Y-68991364D01*
X80500000Y-68991364D02*
X79508636Y-68000000D01*
X56201000Y-70299000D02*
X56201000Y-75879000D01*
%TO.N,Net-(J7-Pin_7)*%
X55000000Y-86400000D02*
X55000000Y-102000000D01*
X55000000Y-102000000D02*
X75900000Y-102000000D01*
X53340000Y-84740000D02*
X55000000Y-86400000D01*
X75900000Y-102000000D02*
X78040000Y-104140000D01*
%TO.N,Net-(J7-Pin_8)*%
X76900000Y-101000000D02*
X56000000Y-101000000D01*
X80040000Y-104140000D02*
X76900000Y-101000000D01*
X56000000Y-101000000D02*
X56000000Y-85400000D01*
X56000000Y-85400000D02*
X53340000Y-82740000D01*
%TO.N,Net-(J7-Pin_10)*%
X84040000Y-104140000D02*
X79500000Y-99600000D01*
X79500000Y-69000000D02*
X79201000Y-68701000D01*
X75841700Y-68701000D02*
X73841700Y-70701000D01*
X57000000Y-77080000D02*
X53340000Y-80740000D01*
X79201000Y-68701000D02*
X75841700Y-68701000D01*
X73841700Y-70701000D02*
X57799000Y-70701000D01*
X57799000Y-70701000D02*
X57000000Y-71500000D01*
X57000000Y-71500000D02*
X57000000Y-77080000D01*
X79500000Y-99600000D02*
X79500000Y-69000000D01*
%TO.N,Net-(J7-Pin_2)*%
X47554000Y-105466000D02*
X67254000Y-105466000D01*
X41854000Y-80066000D02*
X41854000Y-99766000D01*
X43180000Y-78740000D02*
X41854000Y-80066000D01*
X67254000Y-105466000D02*
X68040000Y-104680000D01*
X68040000Y-104680000D02*
X68040000Y-104140000D01*
X41854000Y-99766000D02*
X47554000Y-105466000D01*
%TD*%
M02*
