M48
; DRILL file {KiCad 9.0.5} date 2026-02-03T17:24:22-0500
; FORMAT={-:-/ absolute / inch / decimal}
; #@! TF.CreationDate,2026-02-03T17:24:22-05:00
; #@! TF.GenerationSoftware,Kicad,Pcbnew,9.0.5
; #@! TF.FileFunction,Plated,1,4,PTH
FMAT,2
INCH
; #@! TA.AperFunction,Plated,PTH,ViaDrill
T1C0.0118
; #@! TA.AperFunction,Plated,PTH,ComponentDrill
T2C0.0295
; #@! TA.AperFunction,Plated,PTH,ViaDrill
T3C0.0394
; #@! TA.AperFunction,Plated,PTH,ComponentDrill
T4C0.0394
; #@! TA.AperFunction,Plated,PTH,ComponentDrill
T5C0.0630
%
G90
G05
T1
X2.1831Y-2.9528
X2.5787Y-2.4803
X2.5787Y-2.7165
X2.6181Y-2.7165
X2.8935Y-2.7164
X3.0906Y-2.7362
X3.2874Y-2.6969
X3.937Y-2.6575
T2
X1.65Y-2.55
X1.7Y-2.785
X1.7Y-2.8638
X1.7Y-2.9425
X1.7Y-3.0213
X1.7Y-3.1
X1.7Y-3.1787
X1.7Y-3.2575
X1.7Y-3.3362
X1.7Y-3.415
X1.7Y-3.4937
X1.7Y-3.5724
X1.7Y-3.6512
X1.7Y-3.7299
X1.7Y-3.8087
X1.7Y-3.8874
X1.7287Y-2.55
X1.8075Y-2.55
X1.8862Y-2.55
X1.965Y-2.55
X2.0437Y-2.55
X2.1Y-2.785
X2.1Y-2.8638
X2.1Y-2.9425
X2.1Y-3.0213
X2.1Y-3.1
X2.1Y-3.1787
X2.1Y-3.2575
X2.1Y-3.3362
X2.1Y-3.415
X2.1Y-3.4937
X2.1Y-3.5724
X2.1Y-3.6512
X2.1Y-3.7299
X2.1Y-3.8087
X2.1Y-3.8874
X2.1224Y-2.55
X2.2012Y-2.55
X2.2799Y-2.55
X2.3587Y-2.55
X2.4374Y-2.55
X2.5161Y-2.55
X2.6Y-4.1
X2.6787Y-4.1
X2.7575Y-4.1
X2.8362Y-4.1
X2.915Y-4.1
X2.9937Y-4.1
X3.0Y-2.8051
X3.0Y-2.8839
X3.0Y-2.9626
X3.0Y-3.0413
X3.0Y-3.1201
X3.0Y-3.1988
X3.0Y-3.2776
X3.0Y-3.3563
X3.0Y-3.435
X3.0Y-3.5138
X3.0Y-3.5925
X3.0Y-3.6713
X3.0Y-3.75
X3.0Y-3.8287
X3.0Y-3.9075
X3.0724Y-4.1
X3.1512Y-4.1
X3.2299Y-4.1
X3.3087Y-4.1
X3.3874Y-4.1
X3.4661Y-4.1
X3.6488Y-2.55
X3.7276Y-2.55
X3.8063Y-2.55
X3.885Y-2.55
X3.9638Y-2.55
X4.0425Y-2.55
X4.1213Y-2.55
X4.2Y-2.55
X4.2787Y-2.55
X4.3575Y-2.55
X4.4362Y-2.55
X4.515Y-2.55
X4.6Y-4.1
X4.6787Y-4.1
X4.7575Y-4.1
X4.8362Y-4.1
X4.915Y-4.1
X4.9937Y-4.1
X5.0724Y-4.1
X5.1512Y-4.1
X5.2299Y-4.1
X5.3087Y-4.1
X5.3874Y-4.1
X5.4661Y-4.1
T3
X2.672Y-2.6494
X3.2166Y-3.63
X3.4843Y-4.2291
X3.7205Y-2.689
X3.7598Y-2.7756
T4
X1.5858Y-4.3
X1.5896Y-2.4
X1.6858Y-4.3
X1.6896Y-2.4
X1.7858Y-4.3
X1.7896Y-2.4
X1.8858Y-4.3
X1.8896Y-2.4
X1.9858Y-4.3
X1.9896Y-2.4
X2.0858Y-4.3
X2.0896Y-2.4
X2.1858Y-4.3
X2.1896Y-2.4
X2.2858Y-4.3
X2.2896Y-2.4
X2.3858Y-4.3
X2.3896Y-2.4
X2.4858Y-4.3
X2.4896Y-2.4
X2.5858Y-4.3
X2.5896Y-2.4
X2.6858Y-4.3
X2.6896Y-2.4
X2.7858Y-4.3
X2.7896Y-2.4
X2.8858Y-4.3
X2.8896Y-2.4
X2.9858Y-4.3
X2.9896Y-2.4
X3.0858Y-4.3
X3.0896Y-2.4
X3.1858Y-4.3
X3.1896Y-2.4
X3.2858Y-4.3
X3.2896Y-2.4
X3.3858Y-4.3
X3.3896Y-2.4
X3.4858Y-4.3
X3.4896Y-2.4
X3.5992Y-2.4016
X3.6Y-4.3
X3.6992Y-2.4016
X3.7Y-4.3
X3.7992Y-2.4016
X3.8Y-4.3
X3.8992Y-2.4016
X3.9Y-4.3
X3.9992Y-2.4016
X4.0Y-4.3
X4.0992Y-2.4016
X4.1Y-4.3
X4.1992Y-2.4016
X4.2Y-4.3
X4.2992Y-2.4016
X4.3Y-4.3
X4.3992Y-2.4016
X4.4Y-4.3
X4.4992Y-2.4016
X4.5Y-4.3
X4.5992Y-2.4016
X4.6Y-4.3
X4.6992Y-2.4016
X4.7Y-4.3
X4.7992Y-2.4016
X4.8Y-4.3
X4.8992Y-2.4016
X4.9Y-4.3
X4.9992Y-2.4016
X5.0Y-4.3
X5.0992Y-2.4016
X5.1Y-4.3
X5.1992Y-2.4016
X5.2Y-4.3
X5.2992Y-2.4016
X5.3Y-4.3
X5.3992Y-2.4016
X5.4Y-4.3
X5.4992Y-2.4016
X5.5Y-4.3
T5
X2.3835Y-3.7323
X2.3835Y-3.8661
X2.774Y-3.7323
X2.774Y-3.8661
M30
