M48
; DRILL file {KiCad 8.0.8} date 2025-02-16T23:45:16-0500
; FORMAT={-:-/ absolute / inch / decimal}
; #@! TF.CreationDate,2025-02-16T23:45:16-05:00
; #@! TF.GenerationSoftware,Kicad,Pcbnew,8.0.8
; #@! TF.FileFunction,Plated,1,2,PTH
FMAT,2
INCH
; #@! TA.AperFunction,Plated,PTH,ViaDrill
T1C0.0197
; #@! TA.AperFunction,Plated,PTH,ComponentDrill
T2C0.0350
; #@! TA.AperFunction,Plated,PTH,ComponentDrill
T3C0.0402
%
G90
G05
T1
X1.2953Y-1.0787
T2
X1.05Y-1.3326
X1.05Y-1.5009
X1.05Y-1.6693
X1.5Y-1.3326
X1.5Y-1.5009
X1.5Y-1.6693
T3
X0.8878Y-0.8878
X0.8878Y-0.9878
X0.8878Y-1.0878
X0.8878Y-1.1878
X0.8878Y-1.2878
X0.8878Y-1.3878
X0.8878Y-1.4878
X0.8878Y-1.5878
X0.8878Y-1.6878
X0.8878Y-1.7878
X2.5878Y-0.8878
X2.5878Y-0.9878
X2.5878Y-1.0878
X2.5878Y-1.1878
X2.5878Y-1.2878
X2.5878Y-1.3878
X2.5878Y-1.4878
X2.5878Y-1.5878
X2.5878Y-1.6878
X2.5878Y-1.7878
M30
