M48
; DRILL file {KiCad 8.0.8} date 2025-04-11T16:16:32-0400
; FORMAT={-:-/ absolute / inch / decimal}
; #@! TF.CreationDate,2025-04-11T16:16:32-04:00
; #@! TF.GenerationSoftware,Kicad,Pcbnew,8.0.8
; #@! TF.FileFunction,Plated,1,2,PTH
FMAT,2
INCH
; #@! TA.AperFunction,Plated,PTH,ComponentDrill
T1C0.0394
; #@! TA.AperFunction,Plated,PTH,ComponentDrill
T2C0.0512
%
G90
G05
T1
X6.0016Y-1.0
X6.0016Y-2.7
X6.1016Y-1.0
X6.1016Y-2.7
X6.2016Y-1.0
X6.2016Y-2.7
X6.3016Y-1.0
X6.3016Y-2.7
X6.4016Y-1.0
X6.4016Y-2.7
X6.5016Y-1.0
X6.5016Y-2.7
X6.6016Y-1.0
X6.6016Y-2.7
X6.7016Y-1.0
X6.7016Y-2.7
X6.8016Y-1.0
X6.8016Y-2.7
X6.9016Y-1.0
X6.9016Y-2.7
X7.0016Y-1.0
X7.0016Y-2.7
X7.1016Y-1.0
X7.1016Y-2.7
X7.2016Y-1.0
X7.2016Y-2.7
X7.3016Y-1.0
X7.3016Y-2.7
X7.4016Y-1.0
X7.4016Y-2.7
X7.5016Y-1.0
X7.5016Y-2.7
X7.6016Y-1.0
X7.6016Y-2.7
X7.7016Y-1.0
X7.7016Y-2.7
X7.8016Y-1.0
X7.8016Y-2.7
X7.9016Y-1.0
X7.9016Y-2.7
T2
X6.2402Y-1.7126
X6.2402Y-1.9094
X6.2402Y-2.2441
X6.2402Y-2.4409
X6.8627Y-1.219
X6.8627Y-2.0064
X6.8627Y-2.2032
X7.158Y-1.219
X7.158Y-2.0064
X7.158Y-2.2032
X7.5123Y-1.219
X7.5123Y-2.0064
X7.5123Y-2.2032
X7.8076Y-1.219
X7.8076Y-2.0064
X7.8076Y-2.2032
M30
