%TF.GenerationSoftware,KiCad,Pcbnew,8.0.7*%
%TF.CreationDate,2025-01-28T21:13:21-05:00*%
%TF.ProjectId,Throttle Latching Module,5468726f-7474-46c6-9520-4c6174636869,rev?*%
%TF.SameCoordinates,Original*%
%TF.FileFunction,Copper,L1,Top*%
%TF.FilePolarity,Positive*%
%FSLAX46Y46*%
G04 Gerber Fmt 4.6, Leading zero omitted, Abs format (unit mm)*
G04 Created by KiCad (PCBNEW 8.0.7) date 2025-01-28 21:13:21*
%MOMM*%
%LPD*%
G01*
G04 APERTURE LIST*
G04 Aperture macros list*
%AMRoundRect*
0 Rectangle with rounded corners*
0 $1 Rounding radius*
0 $2 $3 $4 $5 $6 $7 $8 $9 X,Y pos of 4 corners*
0 Add a 4 corners polygon primitive as box body*
4,1,4,$2,$3,$4,$5,$6,$7,$8,$9,$2,$3,0*
0 Add four circle primitives for the rounded corners*
1,1,$1+$1,$2,$3*
1,1,$1+$1,$4,$5*
1,1,$1+$1,$6,$7*
1,1,$1+$1,$8,$9*
0 Add four rect primitives between the rounded corners*
20,1,$1+$1,$2,$3,$4,$5,0*
20,1,$1+$1,$4,$5,$6,$7,0*
20,1,$1+$1,$6,$7,$8,$9,0*
20,1,$1+$1,$8,$9,$2,$3,0*%
G04 Aperture macros list end*
%TA.AperFunction,SMDPad,CuDef*%
%ADD10RoundRect,0.200000X-0.200000X-0.275000X0.200000X-0.275000X0.200000X0.275000X-0.200000X0.275000X0*%
%TD*%
%TA.AperFunction,ComponentPad*%
%ADD11R,1.700000X1.700000*%
%TD*%
%TA.AperFunction,ComponentPad*%
%ADD12O,1.700000X1.700000*%
%TD*%
%TA.AperFunction,SMDPad,CuDef*%
%ADD13RoundRect,0.250000X-0.262500X-0.450000X0.262500X-0.450000X0.262500X0.450000X-0.262500X0.450000X0*%
%TD*%
%TA.AperFunction,SMDPad,CuDef*%
%ADD14R,1.600200X0.863600*%
%TD*%
%TA.AperFunction,SMDPad,CuDef*%
%ADD15RoundRect,0.200000X0.275000X-0.200000X0.275000X0.200000X-0.275000X0.200000X-0.275000X-0.200000X0*%
%TD*%
%TA.AperFunction,SMDPad,CuDef*%
%ADD16R,0.279400X0.660400*%
%TD*%
%TA.AperFunction,SMDPad,CuDef*%
%ADD17R,0.381000X0.660400*%
%TD*%
%TA.AperFunction,Conductor*%
%ADD18C,0.750000*%
%TD*%
%TA.AperFunction,Conductor*%
%ADD19C,0.200000*%
%TD*%
%TA.AperFunction,Conductor*%
%ADD20C,0.250000*%
%TD*%
G04 APERTURE END LIST*
D10*
%TO.P,R2,1*%
%TO.N,Net-(J1-Pad2)*%
X25302500Y-25150000D03*
%TO.P,R2,2*%
%TO.N,Net-(Q1-G)*%
X26952500Y-25150000D03*
%TD*%
D11*
%TO.P,J1,1,1*%
%TO.N,Net-(Q1-D)*%
X22550000Y-22550000D03*
D12*
%TO.P,J1,2,2*%
%TO.N,Net-(J1-Pad2)*%
X22550000Y-25090000D03*
%TO.P,J1,3,3*%
%TO.N,Net-(J1-Pad3)*%
X22550000Y-27630000D03*
%TO.P,J1,4,4*%
%TO.N,Net-(D1-A)*%
X22550000Y-30170000D03*
%TO.P,J1,5,5*%
%TO.N,unconnected-(J1-Pad5)*%
X22550000Y-32710000D03*
%TO.P,J1,6,6*%
%TO.N,unconnected-(J1-Pad6)*%
X22550000Y-35250000D03*
%TO.P,J1,7,7*%
%TO.N,unconnected-(J1-Pad7)*%
X22550000Y-37790000D03*
%TO.P,J1,8,8*%
%TO.N,unconnected-(J1-Pad8)*%
X22550000Y-40330000D03*
%TO.P,J1,9,9*%
%TO.N,unconnected-(J1-Pad9)*%
X22550000Y-42870000D03*
%TO.P,J1,10,10*%
%TO.N,unconnected-(J1-Pad10)*%
X22550000Y-45410000D03*
%TD*%
D13*
%TO.P,R1,1*%
%TO.N,Net-(J1-Pad3)*%
X26925000Y-28650000D03*
%TO.P,R1,2*%
%TO.N,Net-(D1-K)*%
X28750000Y-28650000D03*
%TD*%
D14*
%TO.P,D1,1,K*%
%TO.N,Net-(D1-K)*%
X31250000Y-28698000D03*
%TO.P,D1,2,A*%
%TO.N,Net-(D1-A)*%
X31250000Y-25650000D03*
%TD*%
D15*
%TO.P,R3,1*%
%TO.N,Net-(J1-Pad3)*%
X28750000Y-26800000D03*
%TO.P,R3,2*%
%TO.N,Net-(Q1-G)*%
X28750000Y-25150000D03*
%TD*%
D16*
%TO.P,Q1,1,G*%
%TO.N,Net-(Q1-G)*%
X29349950Y-23640600D03*
%TO.P,Q1,2,S*%
%TO.N,Net-(D1-A)*%
X30150050Y-23640600D03*
D17*
%TO.P,Q1,3,D*%
%TO.N,Net-(Q1-D)*%
X29750000Y-22650000D03*
%TD*%
D11*
%TO.P,J1,1,1*%
%TO.N,N/C*%
X65730000Y-22550000D03*
D12*
%TO.P,J1,2,2*%
X65730000Y-25090000D03*
%TO.P,J1,3,3*%
X65730000Y-27630000D03*
%TO.P,J1,4,4*%
X65730000Y-30170000D03*
%TO.P,J1,5,5*%
X65730000Y-32710000D03*
%TO.P,J1,6,6*%
X65730000Y-35250000D03*
%TO.P,J1,7,7*%
X65730000Y-37790000D03*
%TO.P,J1,8,8*%
X65730000Y-40330000D03*
%TO.P,J1,9,9*%
X65730000Y-42870000D03*
%TO.P,J1,10,10*%
X65730000Y-45410000D03*
%TD*%
D18*
%TO.N,Net-(D1-A)*%
X31250000Y-24740550D02*
X30150050Y-23640600D01*
X32625100Y-25925100D02*
X32350000Y-25650000D01*
X32625100Y-29704800D02*
X32625100Y-25925100D01*
X31250000Y-25650000D02*
X31250000Y-24740550D01*
X22550000Y-30170000D02*
X32159900Y-30170000D01*
X32350000Y-25650000D02*
X31250000Y-25650000D01*
X32159900Y-30170000D02*
X32625100Y-29704800D01*
D19*
%TO.N,Net-(D1-K)*%
X31250000Y-28698000D02*
X28798000Y-28698000D01*
X28798000Y-28698000D02*
X28750000Y-28650000D01*
%TO.N,Net-(J1-Pad3)*%
X28750000Y-26825000D02*
X26925000Y-28650000D01*
X28750000Y-26800000D02*
X28750000Y-26825000D01*
X26925000Y-28650000D02*
X23570000Y-28650000D01*
X23570000Y-28650000D02*
X22550000Y-27630000D01*
D18*
%TO.N,Net-(Q1-D)*%
X22550000Y-22550000D02*
X29650000Y-22550000D01*
D19*
X29650000Y-22550000D02*
X29750000Y-22650000D01*
X22563800Y-22536200D02*
X22550000Y-22550000D01*
D20*
%TO.N,Net-(J1-Pad2)*%
X22610000Y-25150000D02*
X22550000Y-25090000D01*
X25302500Y-25150000D02*
X22610000Y-25150000D01*
%TO.N,Net-(Q1-G)*%
X29349950Y-23640600D02*
X28461900Y-23640600D01*
D19*
X28750000Y-25150000D02*
X28750000Y-23928700D01*
X28750000Y-23928700D02*
X28461900Y-23640600D01*
D20*
X28461900Y-23640600D02*
X26952500Y-25150000D01*
%TD*%
M02*
