M48
; DRILL file {KiCad 9.0.5} date 2025-11-14T08:38:19-0500
; FORMAT={-:-/ absolute / metric / decimal}
; #@! TF.CreationDate,2025-11-14T08:38:19-05:00
; #@! TF.GenerationSoftware,Kicad,Pcbnew,9.0.5
; #@! TF.FileFunction,Plated,1,2,PTH
FMAT,2
METRIC
; #@! TA.AperFunction,Plated,PTH,ComponentDrill
T1C0.750
; #@! TA.AperFunction,Plated,PTH,ComponentDrill
T2C0.800
; #@! TA.AperFunction,Plated,PTH,ComponentDrill
T3C0.900
; #@! TA.AperFunction,Plated,PTH,ComponentDrill
T4C0.990
; #@! TA.AperFunction,Plated,PTH,ComponentDrill
T5C1.016
; #@! TA.AperFunction,Plated,PTH,ComponentDrill
T6C1.100
; #@! TA.AperFunction,Plated,PTH,ComponentDrill
T7C1.500
%
G90
G05
T1
X70.31Y-59.855
X70.31Y-64.605
X70.31Y-68.745
X70.31Y-73.495
X70.31Y-77.635
X70.31Y-82.385
X86.82Y-59.625
X86.82Y-64.375
X86.82Y-68.745
X86.82Y-73.495
X86.82Y-77.8
X86.82Y-82.55
X100.37Y-63.5
X100.37Y-65.5
X100.37Y-67.5
X100.37Y-69.5
X100.37Y-71.5
X100.37Y-73.5
X100.37Y-75.5
X100.37Y-77.5
X100.37Y-79.5
X100.37Y-81.5
X100.37Y-83.5
X100.37Y-85.5
T2
X66.04Y-50.8
X68.58Y-50.8
X72.39Y-52.78
X72.39Y-55.32
X82.55Y-50.8
X85.09Y-50.8
X88.9Y-52.78
X88.9Y-55.32
T3
X66.14Y-54.61
X68.68Y-54.61
X82.65Y-54.61
X85.19Y-54.61
T4
X75.22Y-48.95
X75.22Y-55.45
X79.72Y-48.95
X79.72Y-55.45
X91.73Y-48.95
X91.73Y-55.45
X96.23Y-48.95
X96.23Y-55.45
T5
X63.259Y-38.141
X63.259Y-40.681
X63.259Y-43.221
X63.259Y-45.761
X63.259Y-48.301
X63.259Y-50.841
X63.259Y-53.381
X63.259Y-55.921
X63.259Y-58.461
X63.259Y-61.001
X63.259Y-63.541
X63.259Y-66.081
X63.259Y-68.621
X63.259Y-71.161
X63.259Y-73.701
X63.259Y-76.241
X63.259Y-78.781
X63.259Y-81.321
X63.259Y-83.861
X63.259Y-86.401
X106.439Y-38.141
X106.439Y-40.681
X106.439Y-43.221
X106.439Y-45.761
X106.439Y-48.301
X106.439Y-50.841
X106.439Y-53.381
X106.439Y-55.921
X106.439Y-58.461
X106.439Y-61.001
X106.439Y-63.541
X106.439Y-66.081
X106.439Y-68.621
X106.439Y-71.161
X106.439Y-73.701
X106.439Y-76.241
X106.439Y-78.781
X106.439Y-81.321
X106.439Y-83.861
X106.439Y-86.401
T6
X66.34Y-86.36
X76.5Y-86.36
X82.85Y-86.36
X93.01Y-86.36
X99.7Y-49.41
X99.7Y-52.75
X99.71Y-56.07
X99.713Y-59.34
X103.51Y-49.41
X103.51Y-52.75
X103.52Y-56.07
X103.523Y-59.34
T7
X66.38Y-59.855
X66.38Y-64.605
X66.38Y-68.745
X66.38Y-73.495
X66.38Y-77.635
X66.38Y-82.385
X78.64Y-62.23
X78.64Y-71.12
X78.64Y-80.01
X82.89Y-59.625
X82.89Y-64.375
X82.89Y-68.745
X82.89Y-73.495
X82.89Y-77.8
X82.89Y-82.55
X95.15Y-62.0
X95.15Y-71.12
X95.15Y-80.175
M30
