%TF.GenerationSoftware,KiCad,Pcbnew,8.0.8*%
%TF.CreationDate,2025-03-02T21:09:30-05:00*%
%TF.ProjectId,VCU Charge Mode Signal Module V3.1,56435520-4368-4617-9267-65204d6f6465,rev?*%
%TF.SameCoordinates,Original*%
%TF.FileFunction,Copper,L1,Top*%
%TF.FilePolarity,Positive*%
%FSLAX46Y46*%
G04 Gerber Fmt 4.6, Leading zero omitted, Abs format (unit mm)*
G04 Created by KiCad (PCBNEW 8.0.8) date 2025-03-02 21:09:30*
%MOMM*%
%LPD*%
G01*
G04 APERTURE LIST*
%TA.AperFunction,ComponentPad*%
%ADD10R,1.397000X1.397000*%
%TD*%
%TA.AperFunction,ComponentPad*%
%ADD11C,1.397000*%
%TD*%
%TA.AperFunction,ComponentPad*%
%ADD12C,1.750000*%
%TD*%
%TA.AperFunction,SMDPad,CuDef*%
%ADD13R,1.600200X0.863600*%
%TD*%
%TA.AperFunction,SMDPad,CuDef*%
%ADD14R,0.558800X0.863600*%
%TD*%
%TA.AperFunction,ViaPad*%
%ADD15C,1.500000*%
%TD*%
%TA.AperFunction,Conductor*%
%ADD16C,0.200000*%
%TD*%
%TA.AperFunction,Conductor*%
%ADD17C,0.750000*%
%TD*%
%TA.AperFunction,Conductor*%
%ADD18C,0.250000*%
%TD*%
G04 APERTURE END LIST*
D10*
%TO.P,R2,1*%
%TO.N,Net-(J1-Pad3)*%
X26670000Y-37300000D03*
D11*
%TO.P,R2,2*%
%TO.N,Net-(U1-G)*%
X38100000Y-37300000D03*
%TD*%
D12*
%TO.P,J1,1,1*%
%TO.N,Net-(U1-D)*%
X22550000Y-22550000D03*
%TO.P,J1,2,2*%
%TO.N,Net-(U1-G)*%
X22550000Y-25090000D03*
%TO.P,J1,3,3*%
%TO.N,Net-(J1-Pad3)*%
X22550000Y-27630000D03*
%TO.P,J1,4,4*%
%TO.N,Net-(D1-A)*%
X22550000Y-30170000D03*
%TO.P,J1,5,5*%
%TO.N,unconnected-(J1-Pad5)*%
X22550000Y-32710000D03*
%TO.P,J1,6,6*%
%TO.N,unconnected-(J1-Pad6)*%
X22550000Y-35250000D03*
%TO.P,J1,7,7*%
%TO.N,unconnected-(J1-Pad7)*%
X22550000Y-37790000D03*
%TO.P,J1,8,8*%
%TO.N,unconnected-(J1-Pad8)*%
X22550000Y-40330000D03*
%TO.P,J1,9,9*%
%TO.N,unconnected-(J1-Pad9)*%
X22550000Y-42870000D03*
%TO.P,J1,10,10*%
%TO.N,unconnected-(J1-Pad10)*%
X22550000Y-45410000D03*
%TD*%
D13*
%TO.P,D1,1,K*%
%TO.N,Net-(D1-K)*%
X35500000Y-30400000D03*
%TO.P,D1,2,A*%
%TO.N,Net-(D1-A)*%
X35500000Y-27352000D03*
%TD*%
D10*
%TO.P,R1,1*%
%TO.N,Net-(J1-Pad3)*%
X26670000Y-33846800D03*
D11*
%TO.P,R1,2*%
%TO.N,Net-(D1-K)*%
X38100000Y-33846800D03*
%TD*%
D12*
%TO.P,J2,1,1*%
%TO.N,N/C*%
X65730000Y-22550000D03*
%TO.P,J2,2,2*%
X65730000Y-25090000D03*
%TO.P,J2,3,3*%
X65730000Y-27630000D03*
%TO.P,J2,4,4*%
X65730000Y-30170000D03*
%TO.P,J2,5,5*%
X65730000Y-32710000D03*
%TO.P,J2,6,6*%
X65730000Y-35250000D03*
%TO.P,J2,7,7*%
X65730000Y-37790000D03*
%TO.P,J2,8,8*%
X65730000Y-40330000D03*
%TO.P,J2,9,9*%
X65730000Y-42870000D03*
%TO.P,J2,10,10*%
X65730000Y-45410000D03*
%TD*%
D14*
%TO.P,U1,1,G*%
%TO.N,Net-(U1-G)*%
X26750000Y-27750000D03*
%TO.P,U1,2,S*%
%TO.N,Net-(D1-A)*%
X28655000Y-27750000D03*
%TO.P,U1,3,D*%
%TO.N,Net-(U1-D)*%
X27702500Y-25362400D03*
%TD*%
D15*
%TO.N,Net-(D1-A)*%
X32900000Y-27400000D03*
%TD*%
D16*
%TO.N,Net-(J1-Pad3)*%
X26670000Y-33846800D02*
X26670000Y-37300000D01*
X26670000Y-31750000D02*
X26670000Y-33846800D01*
X22550000Y-27630000D02*
X26670000Y-31750000D01*
%TO.N,Net-(U1-G)*%
X25210000Y-27750000D02*
X22550000Y-25090000D01*
X26750000Y-27750000D02*
X25210000Y-27750000D01*
X27400000Y-28400000D02*
X26750000Y-27750000D01*
X36300000Y-37300000D02*
X27400000Y-28400000D01*
X38100000Y-37300000D02*
X36300000Y-37300000D01*
D17*
%TO.N,Net-(D1-A)*%
X29005000Y-27400000D02*
X28655000Y-27750000D01*
X32900000Y-27400000D02*
X29005000Y-27400000D01*
X32600000Y-27400000D02*
X32500000Y-27500000D01*
X32900000Y-27400000D02*
X35452000Y-27400000D01*
X32900000Y-27400000D02*
X32600000Y-27400000D01*
X35452000Y-27400000D02*
X35500000Y-27352000D01*
D18*
%TO.N,Net-(D1-K)*%
X35500000Y-30400000D02*
X35500000Y-31246800D01*
X35500000Y-31246800D02*
X38100000Y-33846800D01*
%TO.N,Net-(U1-G)*%
X22610000Y-25150000D02*
X22550000Y-25090000D01*
D17*
%TO.N,Net-(U1-D)*%
X27000050Y-25329200D02*
X24220850Y-22550000D01*
X27669300Y-25329200D02*
X27702500Y-25362400D01*
X27000050Y-25329200D02*
X27669300Y-25329200D01*
D16*
X22563800Y-22536200D02*
X22550000Y-22550000D01*
D17*
X24220850Y-22550000D02*
X22550000Y-22550000D01*
D18*
%TO.N,Net-(U1-G)*%
X26750000Y-27761228D02*
X26750000Y-27750000D01*
%TD*%
M02*
