%TF.GenerationSoftware,KiCad,Pcbnew,8.0.8*%
%TF.CreationDate,2025-03-02T20:22:08-05:00*%
%TF.ProjectId,Precharge Module V3.0,50726563-6861-4726-9765-204d6f64756c,rev?*%
%TF.SameCoordinates,Original*%
%TF.FileFunction,Copper,L2,Bot*%
%TF.FilePolarity,Positive*%
%FSLAX46Y46*%
G04 Gerber Fmt 4.6, Leading zero omitted, Abs format (unit mm)*
G04 Created by KiCad (PCBNEW 8.0.8) date 2025-03-02 20:22:08*
%MOMM*%
%LPD*%
G01*
G04 APERTURE LIST*
%TA.AperFunction,ComponentPad*%
%ADD10R,1.397000X1.397000*%
%TD*%
%TA.AperFunction,ComponentPad*%
%ADD11C,1.397000*%
%TD*%
%TA.AperFunction,ComponentPad*%
%ADD12C,3.000000*%
%TD*%
%TA.AperFunction,ComponentPad*%
%ADD13C,1.750000*%
%TD*%
%TA.AperFunction,ViaPad*%
%ADD14C,1.100000*%
%TD*%
%TA.AperFunction,Conductor*%
%ADD15C,0.250000*%
%TD*%
%TA.AperFunction,Conductor*%
%ADD16C,0.500000*%
%TD*%
%TA.AperFunction,Conductor*%
%ADD17C,0.750000*%
%TD*%
G04 APERTURE END LIST*
D10*
%TO.P,R6,1*%
%TO.N,Net-(U1-VCC)*%
X61250000Y-51000000D03*
D11*
%TO.P,R6,2*%
%TO.N,Net-(Q1-E)*%
X72680000Y-51000000D03*
%TD*%
D12*
%TO.P,PC COIL -,1,1*%
%TO.N,Net-(D3-A)*%
X72250000Y-29500000D03*
%TD*%
D10*
%TO.P,R8,1*%
%TO.N,Net-(Q1-C)*%
X61250000Y-47250000D03*
D11*
%TO.P,R8,2*%
%TO.N,Net-(U2-G)*%
X72680000Y-47250000D03*
%TD*%
D10*
%TO.P,R7,1*%
%TO.N,Net-(U3-G)*%
X72500000Y-33285000D03*
D11*
%TO.P,R7,2*%
%TO.N,Net-(U2-G)*%
X72500000Y-44715000D03*
%TD*%
D13*
%TO.P,J2,1,1*%
%TO.N,N/C*%
X50800000Y-68580000D03*
%TO.P,J2,2,2*%
X53340000Y-68580000D03*
%TO.P,J2,3,3*%
X55880000Y-68580000D03*
%TO.P,J2,4,4*%
X58420000Y-68580000D03*
%TO.P,J2,5,5*%
X60960000Y-68580000D03*
%TO.P,J2,6,6*%
X63500000Y-68580000D03*
%TO.P,J2,7,7*%
X66040000Y-68580000D03*
%TO.P,J2,8,8*%
X68580000Y-68580000D03*
%TO.P,J2,9,9*%
X71120000Y-68580000D03*
%TO.P,J2,10,10*%
X73660000Y-68580000D03*
%TD*%
%TO.P,J1,1,1*%
%TO.N,Net-(U2-D)*%
X50800000Y-25400000D03*
%TO.P,J1,2,2*%
%TO.N,Net-(U3-D)*%
X53340000Y-25400000D03*
%TO.P,J1,3,3*%
%TO.N,Net-(U1-VCC)*%
X55880000Y-25400000D03*
%TO.P,J1,4,4*%
%TO.N,Net-(Q1-C)*%
X58420000Y-25400000D03*
%TO.P,J1,5,5*%
%TO.N,Net-(D3-A)*%
X60960000Y-25400000D03*
%TO.P,J1,6,6*%
%TO.N,unconnected-(J1-Pad6)*%
X63500000Y-25400000D03*
%TO.P,J1,7,7*%
%TO.N,unconnected-(J1-Pad7)*%
X66040000Y-25400000D03*
%TO.P,J1,8,8*%
%TO.N,unconnected-(J1-Pad8)*%
X68580000Y-25400000D03*
%TO.P,J1,9,9*%
%TO.N,unconnected-(J1-Pad9)*%
X71120000Y-25400000D03*
%TO.P,J1,10,10*%
%TO.N,unconnected-(J1-Pad10)*%
X73660000Y-25400000D03*
%TD*%
D14*
%TO.N,Net-(Q1-C)*%
X55500000Y-47000000D03*
X54000000Y-33500000D03*
X59000000Y-41500000D03*
%TO.N,Net-(U1-CV)*%
X61000000Y-39000000D03*
X61000000Y-45500000D03*
%TO.N,Net-(D3-A)*%
X60750000Y-49000000D03*
%TO.N,Net-(U1-THR)*%
X56500000Y-36250000D03*
X59750000Y-33250000D03*
%TO.N,Net-(U3-G)*%
X61000000Y-37500000D03*
%TD*%
D15*
%TO.N,Net-(Q1-C)*%
X54000000Y-33500000D02*
X54000000Y-35000000D01*
D16*
X54000000Y-33500000D02*
X56500000Y-31000000D01*
D15*
X55500000Y-47000000D02*
X55500000Y-40750000D01*
D16*
X56500000Y-27320000D02*
X58420000Y-25400000D01*
X56500000Y-31000000D02*
X56500000Y-27320000D01*
D15*
X54000000Y-35000000D02*
X55500000Y-36500000D01*
X59000000Y-41500000D02*
X58250000Y-40750000D01*
X55500000Y-36500000D02*
X55500000Y-40750000D01*
X58250000Y-40750000D02*
X55500000Y-40750000D01*
%TO.N,Net-(U1-CV)*%
X61000000Y-39000000D02*
X61000000Y-45500000D01*
%TO.N,Net-(D3-A)*%
X64447000Y-49000000D02*
X74138000Y-39309000D01*
X74138000Y-39309000D02*
X74138000Y-29500000D01*
X74138000Y-29500000D02*
X72250000Y-29500000D01*
X60750000Y-49000000D02*
X64447000Y-49000000D01*
%TO.N,Net-(U1-THR)*%
X59750000Y-33250000D02*
X56750000Y-36250000D01*
X56750000Y-36250000D02*
X56500000Y-36250000D01*
D17*
%TO.N,Net-(U1-VCC)*%
X50500000Y-49500000D02*
X50500000Y-30780000D01*
X52000000Y-51000000D02*
X50500000Y-49500000D01*
X52000000Y-51000000D02*
X61250000Y-51000000D01*
X55880000Y-25400000D02*
X50500000Y-30780000D01*
D15*
%TO.N,Net-(U3-G)*%
X61000000Y-37500000D02*
X65215000Y-33285000D01*
X65215000Y-33285000D02*
X72500000Y-33285000D01*
%TD*%
M02*
