M48
; DRILL file {KiCad 8.0.8} date 2025-02-03T20:57:13-0500
; FORMAT={-:-/ absolute / inch / decimal}
; #@! TF.CreationDate,2025-02-03T20:57:13-05:00
; #@! TF.GenerationSoftware,Kicad,Pcbnew,8.0.8
; #@! TF.FileFunction,Plated,1,2,PTH
FMAT,2
INCH
; #@! TA.AperFunction,Plated,PTH,ViaDrill
T1C0.0157
; #@! TA.AperFunction,Plated,PTH,ComponentDrill
T2C0.0402
; #@! TA.AperFunction,Plated,PTH,ComponentDrill
T3C0.0630
%
G90
G05
T1
X2.6118Y-1.1896
X2.6118Y-1.3077
X2.9268Y-1.229
X2.9268Y-1.3865
T2
X2.0Y-1.0
X2.0Y-2.7
X2.1Y-1.0
X2.1Y-2.7
X2.2Y-1.0
X2.2Y-2.7
X2.3Y-1.0
X2.3Y-2.7
X2.4Y-1.0
X2.4Y-2.7
X2.5Y-1.0
X2.5Y-2.7
X2.6Y-1.0
X2.6Y-2.7
X2.7Y-1.0
X2.7Y-2.7
X2.8Y-1.0
X2.8Y-2.7
X2.9Y-1.0
X2.9Y-2.7
T3
X2.0409Y-1.3865
M30
