%TF.GenerationSoftware,KiCad,Pcbnew,8.0.8*%
%TF.CreationDate,2025-02-03T20:57:14-05:00*%
%TF.ProjectId,5V Converter Module,35562043-6f6e-4766-9572-746572204d6f,rev?*%
%TF.SameCoordinates,Original*%
%TF.FileFunction,Profile,NP*%
%FSLAX46Y46*%
G04 Gerber Fmt 4.6, Leading zero omitted, Abs format (unit mm)*
G04 Created by KiCad (PCBNEW 8.0.8) date 2025-02-03 20:57:14*
%MOMM*%
%LPD*%
G01*
G04 APERTURE LIST*
%TA.AperFunction,Profile*%
%ADD10C,0.150000*%
%TD*%
%ADD11C,0.150000*%
%TA.AperFunction,Profile*%
%ADD12C,0.050000*%
%TD*%
G04 APERTURE END LIST*
D10*
X49620000Y-24215850D02*
X74820000Y-24215850D01*
X74820000Y-70215850D01*
X49620000Y-70215850D01*
X49620000Y-24215850D01*
D11*
X84478152Y-51358706D02*
X85144819Y-51358706D01*
X84097200Y-51596801D02*
X84811485Y-51834896D01*
X84811485Y-51834896D02*
X84811485Y-51215849D01*
X84144819Y-50406325D02*
X84144819Y-50596801D01*
X84144819Y-50596801D02*
X84192438Y-50692039D01*
X84192438Y-50692039D02*
X84240057Y-50739658D01*
X84240057Y-50739658D02*
X84382914Y-50834896D01*
X84382914Y-50834896D02*
X84573390Y-50882515D01*
X84573390Y-50882515D02*
X84954342Y-50882515D01*
X84954342Y-50882515D02*
X85049580Y-50834896D01*
X85049580Y-50834896D02*
X85097200Y-50787277D01*
X85097200Y-50787277D02*
X85144819Y-50692039D01*
X85144819Y-50692039D02*
X85144819Y-50501563D01*
X85144819Y-50501563D02*
X85097200Y-50406325D01*
X85097200Y-50406325D02*
X85049580Y-50358706D01*
X85049580Y-50358706D02*
X84954342Y-50311087D01*
X84954342Y-50311087D02*
X84716247Y-50311087D01*
X84716247Y-50311087D02*
X84621009Y-50358706D01*
X84621009Y-50358706D02*
X84573390Y-50406325D01*
X84573390Y-50406325D02*
X84525771Y-50501563D01*
X84525771Y-50501563D02*
X84525771Y-50692039D01*
X84525771Y-50692039D02*
X84573390Y-50787277D01*
X84573390Y-50787277D02*
X84621009Y-50834896D01*
X84621009Y-50834896D02*
X84716247Y-50882515D01*
X85049580Y-49882515D02*
X85097200Y-49834896D01*
X85097200Y-49834896D02*
X85144819Y-49882515D01*
X85144819Y-49882515D02*
X85097200Y-49930134D01*
X85097200Y-49930134D02*
X85049580Y-49882515D01*
X85049580Y-49882515D02*
X85144819Y-49882515D01*
X84144819Y-49215849D02*
X84144819Y-49120611D01*
X84144819Y-49120611D02*
X84192438Y-49025373D01*
X84192438Y-49025373D02*
X84240057Y-48977754D01*
X84240057Y-48977754D02*
X84335295Y-48930135D01*
X84335295Y-48930135D02*
X84525771Y-48882516D01*
X84525771Y-48882516D02*
X84763866Y-48882516D01*
X84763866Y-48882516D02*
X84954342Y-48930135D01*
X84954342Y-48930135D02*
X85049580Y-48977754D01*
X85049580Y-48977754D02*
X85097200Y-49025373D01*
X85097200Y-49025373D02*
X85144819Y-49120611D01*
X85144819Y-49120611D02*
X85144819Y-49215849D01*
X85144819Y-49215849D02*
X85097200Y-49311087D01*
X85097200Y-49311087D02*
X85049580Y-49358706D01*
X85049580Y-49358706D02*
X84954342Y-49406325D01*
X84954342Y-49406325D02*
X84763866Y-49453944D01*
X84763866Y-49453944D02*
X84525771Y-49453944D01*
X84525771Y-49453944D02*
X84335295Y-49406325D01*
X84335295Y-49406325D02*
X84240057Y-49358706D01*
X84240057Y-49358706D02*
X84192438Y-49311087D01*
X84192438Y-49311087D02*
X84144819Y-49215849D01*
X84144819Y-48263468D02*
X84144819Y-48168230D01*
X84144819Y-48168230D02*
X84192438Y-48072992D01*
X84192438Y-48072992D02*
X84240057Y-48025373D01*
X84240057Y-48025373D02*
X84335295Y-47977754D01*
X84335295Y-47977754D02*
X84525771Y-47930135D01*
X84525771Y-47930135D02*
X84763866Y-47930135D01*
X84763866Y-47930135D02*
X84954342Y-47977754D01*
X84954342Y-47977754D02*
X85049580Y-48025373D01*
X85049580Y-48025373D02*
X85097200Y-48072992D01*
X85097200Y-48072992D02*
X85144819Y-48168230D01*
X85144819Y-48168230D02*
X85144819Y-48263468D01*
X85144819Y-48263468D02*
X85097200Y-48358706D01*
X85097200Y-48358706D02*
X85049580Y-48406325D01*
X85049580Y-48406325D02*
X84954342Y-48453944D01*
X84954342Y-48453944D02*
X84763866Y-48501563D01*
X84763866Y-48501563D02*
X84525771Y-48501563D01*
X84525771Y-48501563D02*
X84335295Y-48453944D01*
X84335295Y-48453944D02*
X84240057Y-48406325D01*
X84240057Y-48406325D02*
X84192438Y-48358706D01*
X84192438Y-48358706D02*
X84144819Y-48263468D01*
X84144819Y-47311087D02*
X84144819Y-47215849D01*
X84144819Y-47215849D02*
X84192438Y-47120611D01*
X84192438Y-47120611D02*
X84240057Y-47072992D01*
X84240057Y-47072992D02*
X84335295Y-47025373D01*
X84335295Y-47025373D02*
X84525771Y-46977754D01*
X84525771Y-46977754D02*
X84763866Y-46977754D01*
X84763866Y-46977754D02*
X84954342Y-47025373D01*
X84954342Y-47025373D02*
X85049580Y-47072992D01*
X85049580Y-47072992D02*
X85097200Y-47120611D01*
X85097200Y-47120611D02*
X85144819Y-47215849D01*
X85144819Y-47215849D02*
X85144819Y-47311087D01*
X85144819Y-47311087D02*
X85097200Y-47406325D01*
X85097200Y-47406325D02*
X85049580Y-47453944D01*
X85049580Y-47453944D02*
X84954342Y-47501563D01*
X84954342Y-47501563D02*
X84763866Y-47549182D01*
X84763866Y-47549182D02*
X84525771Y-47549182D01*
X84525771Y-47549182D02*
X84335295Y-47501563D01*
X84335295Y-47501563D02*
X84240057Y-47453944D01*
X84240057Y-47453944D02*
X84192438Y-47406325D01*
X84192438Y-47406325D02*
X84144819Y-47311087D01*
X84144819Y-46358706D02*
X84144819Y-46263468D01*
X84144819Y-46263468D02*
X84192438Y-46168230D01*
X84192438Y-46168230D02*
X84240057Y-46120611D01*
X84240057Y-46120611D02*
X84335295Y-46072992D01*
X84335295Y-46072992D02*
X84525771Y-46025373D01*
X84525771Y-46025373D02*
X84763866Y-46025373D01*
X84763866Y-46025373D02*
X84954342Y-46072992D01*
X84954342Y-46072992D02*
X85049580Y-46120611D01*
X85049580Y-46120611D02*
X85097200Y-46168230D01*
X85097200Y-46168230D02*
X85144819Y-46263468D01*
X85144819Y-46263468D02*
X85144819Y-46358706D01*
X85144819Y-46358706D02*
X85097200Y-46453944D01*
X85097200Y-46453944D02*
X85049580Y-46501563D01*
X85049580Y-46501563D02*
X84954342Y-46549182D01*
X84954342Y-46549182D02*
X84763866Y-46596801D01*
X84763866Y-46596801D02*
X84525771Y-46596801D01*
X84525771Y-46596801D02*
X84335295Y-46549182D01*
X84335295Y-46549182D02*
X84240057Y-46501563D01*
X84240057Y-46501563D02*
X84192438Y-46453944D01*
X84192438Y-46453944D02*
X84144819Y-46358706D01*
X85144819Y-44834896D02*
X84478152Y-44834896D01*
X84573390Y-44834896D02*
X84525771Y-44787277D01*
X84525771Y-44787277D02*
X84478152Y-44692039D01*
X84478152Y-44692039D02*
X84478152Y-44549182D01*
X84478152Y-44549182D02*
X84525771Y-44453944D01*
X84525771Y-44453944D02*
X84621009Y-44406325D01*
X84621009Y-44406325D02*
X85144819Y-44406325D01*
X84621009Y-44406325D02*
X84525771Y-44358706D01*
X84525771Y-44358706D02*
X84478152Y-44263468D01*
X84478152Y-44263468D02*
X84478152Y-44120611D01*
X84478152Y-44120611D02*
X84525771Y-44025372D01*
X84525771Y-44025372D02*
X84621009Y-43977753D01*
X84621009Y-43977753D02*
X85144819Y-43977753D01*
X85144819Y-43501563D02*
X84478152Y-43501563D01*
X84573390Y-43501563D02*
X84525771Y-43453944D01*
X84525771Y-43453944D02*
X84478152Y-43358706D01*
X84478152Y-43358706D02*
X84478152Y-43215849D01*
X84478152Y-43215849D02*
X84525771Y-43120611D01*
X84525771Y-43120611D02*
X84621009Y-43072992D01*
X84621009Y-43072992D02*
X85144819Y-43072992D01*
X84621009Y-43072992D02*
X84525771Y-43025373D01*
X84525771Y-43025373D02*
X84478152Y-42930135D01*
X84478152Y-42930135D02*
X84478152Y-42787278D01*
X84478152Y-42787278D02*
X84525771Y-42692039D01*
X84525771Y-42692039D02*
X84621009Y-42644420D01*
X84621009Y-42644420D02*
X85144819Y-42644420D01*
D12*
X75320000Y-70215850D02*
X86426420Y-70215850D01*
X75320000Y-24215850D02*
X86426420Y-24215850D01*
X85840000Y-70215850D02*
X85840000Y-24215850D01*
X85840000Y-70215850D02*
X85840000Y-24215850D01*
X85840000Y-70215850D02*
X85253579Y-69089346D01*
X85840000Y-70215850D02*
X86426421Y-69089346D01*
X85840000Y-24215850D02*
X86426421Y-25342354D01*
X85840000Y-24215850D02*
X85253579Y-25342354D01*
D11*
X57600953Y-18720058D02*
X57648572Y-18672439D01*
X57648572Y-18672439D02*
X57743810Y-18624820D01*
X57743810Y-18624820D02*
X57981905Y-18624820D01*
X57981905Y-18624820D02*
X58077143Y-18672439D01*
X58077143Y-18672439D02*
X58124762Y-18720058D01*
X58124762Y-18720058D02*
X58172381Y-18815296D01*
X58172381Y-18815296D02*
X58172381Y-18910534D01*
X58172381Y-18910534D02*
X58124762Y-19053391D01*
X58124762Y-19053391D02*
X57553334Y-19624820D01*
X57553334Y-19624820D02*
X58172381Y-19624820D01*
X59077143Y-18624820D02*
X58600953Y-18624820D01*
X58600953Y-18624820D02*
X58553334Y-19101010D01*
X58553334Y-19101010D02*
X58600953Y-19053391D01*
X58600953Y-19053391D02*
X58696191Y-19005772D01*
X58696191Y-19005772D02*
X58934286Y-19005772D01*
X58934286Y-19005772D02*
X59029524Y-19053391D01*
X59029524Y-19053391D02*
X59077143Y-19101010D01*
X59077143Y-19101010D02*
X59124762Y-19196248D01*
X59124762Y-19196248D02*
X59124762Y-19434343D01*
X59124762Y-19434343D02*
X59077143Y-19529581D01*
X59077143Y-19529581D02*
X59029524Y-19577201D01*
X59029524Y-19577201D02*
X58934286Y-19624820D01*
X58934286Y-19624820D02*
X58696191Y-19624820D01*
X58696191Y-19624820D02*
X58600953Y-19577201D01*
X58600953Y-19577201D02*
X58553334Y-19529581D01*
X59553334Y-19529581D02*
X59600953Y-19577201D01*
X59600953Y-19577201D02*
X59553334Y-19624820D01*
X59553334Y-19624820D02*
X59505715Y-19577201D01*
X59505715Y-19577201D02*
X59553334Y-19529581D01*
X59553334Y-19529581D02*
X59553334Y-19624820D01*
X59981905Y-18720058D02*
X60029524Y-18672439D01*
X60029524Y-18672439D02*
X60124762Y-18624820D01*
X60124762Y-18624820D02*
X60362857Y-18624820D01*
X60362857Y-18624820D02*
X60458095Y-18672439D01*
X60458095Y-18672439D02*
X60505714Y-18720058D01*
X60505714Y-18720058D02*
X60553333Y-18815296D01*
X60553333Y-18815296D02*
X60553333Y-18910534D01*
X60553333Y-18910534D02*
X60505714Y-19053391D01*
X60505714Y-19053391D02*
X59934286Y-19624820D01*
X59934286Y-19624820D02*
X60553333Y-19624820D01*
X61172381Y-18624820D02*
X61267619Y-18624820D01*
X61267619Y-18624820D02*
X61362857Y-18672439D01*
X61362857Y-18672439D02*
X61410476Y-18720058D01*
X61410476Y-18720058D02*
X61458095Y-18815296D01*
X61458095Y-18815296D02*
X61505714Y-19005772D01*
X61505714Y-19005772D02*
X61505714Y-19243867D01*
X61505714Y-19243867D02*
X61458095Y-19434343D01*
X61458095Y-19434343D02*
X61410476Y-19529581D01*
X61410476Y-19529581D02*
X61362857Y-19577201D01*
X61362857Y-19577201D02*
X61267619Y-19624820D01*
X61267619Y-19624820D02*
X61172381Y-19624820D01*
X61172381Y-19624820D02*
X61077143Y-19577201D01*
X61077143Y-19577201D02*
X61029524Y-19529581D01*
X61029524Y-19529581D02*
X60981905Y-19434343D01*
X60981905Y-19434343D02*
X60934286Y-19243867D01*
X60934286Y-19243867D02*
X60934286Y-19005772D01*
X60934286Y-19005772D02*
X60981905Y-18815296D01*
X60981905Y-18815296D02*
X61029524Y-18720058D01*
X61029524Y-18720058D02*
X61077143Y-18672439D01*
X61077143Y-18672439D02*
X61172381Y-18624820D01*
X62124762Y-18624820D02*
X62220000Y-18624820D01*
X62220000Y-18624820D02*
X62315238Y-18672439D01*
X62315238Y-18672439D02*
X62362857Y-18720058D01*
X62362857Y-18720058D02*
X62410476Y-18815296D01*
X62410476Y-18815296D02*
X62458095Y-19005772D01*
X62458095Y-19005772D02*
X62458095Y-19243867D01*
X62458095Y-19243867D02*
X62410476Y-19434343D01*
X62410476Y-19434343D02*
X62362857Y-19529581D01*
X62362857Y-19529581D02*
X62315238Y-19577201D01*
X62315238Y-19577201D02*
X62220000Y-19624820D01*
X62220000Y-19624820D02*
X62124762Y-19624820D01*
X62124762Y-19624820D02*
X62029524Y-19577201D01*
X62029524Y-19577201D02*
X61981905Y-19529581D01*
X61981905Y-19529581D02*
X61934286Y-19434343D01*
X61934286Y-19434343D02*
X61886667Y-19243867D01*
X61886667Y-19243867D02*
X61886667Y-19005772D01*
X61886667Y-19005772D02*
X61934286Y-18815296D01*
X61934286Y-18815296D02*
X61981905Y-18720058D01*
X61981905Y-18720058D02*
X62029524Y-18672439D01*
X62029524Y-18672439D02*
X62124762Y-18624820D01*
X63077143Y-18624820D02*
X63172381Y-18624820D01*
X63172381Y-18624820D02*
X63267619Y-18672439D01*
X63267619Y-18672439D02*
X63315238Y-18720058D01*
X63315238Y-18720058D02*
X63362857Y-18815296D01*
X63362857Y-18815296D02*
X63410476Y-19005772D01*
X63410476Y-19005772D02*
X63410476Y-19243867D01*
X63410476Y-19243867D02*
X63362857Y-19434343D01*
X63362857Y-19434343D02*
X63315238Y-19529581D01*
X63315238Y-19529581D02*
X63267619Y-19577201D01*
X63267619Y-19577201D02*
X63172381Y-19624820D01*
X63172381Y-19624820D02*
X63077143Y-19624820D01*
X63077143Y-19624820D02*
X62981905Y-19577201D01*
X62981905Y-19577201D02*
X62934286Y-19529581D01*
X62934286Y-19529581D02*
X62886667Y-19434343D01*
X62886667Y-19434343D02*
X62839048Y-19243867D01*
X62839048Y-19243867D02*
X62839048Y-19005772D01*
X62839048Y-19005772D02*
X62886667Y-18815296D01*
X62886667Y-18815296D02*
X62934286Y-18720058D01*
X62934286Y-18720058D02*
X62981905Y-18672439D01*
X62981905Y-18672439D02*
X63077143Y-18624820D01*
X64600953Y-19624820D02*
X64600953Y-18958153D01*
X64600953Y-19053391D02*
X64648572Y-19005772D01*
X64648572Y-19005772D02*
X64743810Y-18958153D01*
X64743810Y-18958153D02*
X64886667Y-18958153D01*
X64886667Y-18958153D02*
X64981905Y-19005772D01*
X64981905Y-19005772D02*
X65029524Y-19101010D01*
X65029524Y-19101010D02*
X65029524Y-19624820D01*
X65029524Y-19101010D02*
X65077143Y-19005772D01*
X65077143Y-19005772D02*
X65172381Y-18958153D01*
X65172381Y-18958153D02*
X65315238Y-18958153D01*
X65315238Y-18958153D02*
X65410477Y-19005772D01*
X65410477Y-19005772D02*
X65458096Y-19101010D01*
X65458096Y-19101010D02*
X65458096Y-19624820D01*
X65934286Y-19624820D02*
X65934286Y-18958153D01*
X65934286Y-19053391D02*
X65981905Y-19005772D01*
X65981905Y-19005772D02*
X66077143Y-18958153D01*
X66077143Y-18958153D02*
X66220000Y-18958153D01*
X66220000Y-18958153D02*
X66315238Y-19005772D01*
X66315238Y-19005772D02*
X66362857Y-19101010D01*
X66362857Y-19101010D02*
X66362857Y-19624820D01*
X66362857Y-19101010D02*
X66410476Y-19005772D01*
X66410476Y-19005772D02*
X66505714Y-18958153D01*
X66505714Y-18958153D02*
X66648571Y-18958153D01*
X66648571Y-18958153D02*
X66743810Y-19005772D01*
X66743810Y-19005772D02*
X66791429Y-19101010D01*
X66791429Y-19101010D02*
X66791429Y-19624820D01*
D12*
X74820000Y-23715850D02*
X74820000Y-19733581D01*
X49620000Y-23715850D02*
X49620000Y-19733581D01*
X74820000Y-20320001D02*
X49620000Y-20320001D01*
X74820000Y-20320001D02*
X49620000Y-20320001D01*
X74820000Y-20320001D02*
X73693496Y-20906422D01*
X74820000Y-20320001D02*
X73693496Y-19733580D01*
X49620000Y-20320001D02*
X50746504Y-19733580D01*
X49620000Y-20320001D02*
X50746504Y-20906422D01*
D11*
X79918152Y-51132856D02*
X80584819Y-51132856D01*
X79537200Y-51370951D02*
X80251485Y-51609046D01*
X80251485Y-51609046D02*
X80251485Y-50989999D01*
X79584819Y-50704284D02*
X79584819Y-50085237D01*
X79584819Y-50085237D02*
X79965771Y-50418570D01*
X79965771Y-50418570D02*
X79965771Y-50275713D01*
X79965771Y-50275713D02*
X80013390Y-50180475D01*
X80013390Y-50180475D02*
X80061009Y-50132856D01*
X80061009Y-50132856D02*
X80156247Y-50085237D01*
X80156247Y-50085237D02*
X80394342Y-50085237D01*
X80394342Y-50085237D02*
X80489580Y-50132856D01*
X80489580Y-50132856D02*
X80537200Y-50180475D01*
X80537200Y-50180475D02*
X80584819Y-50275713D01*
X80584819Y-50275713D02*
X80584819Y-50561427D01*
X80584819Y-50561427D02*
X80537200Y-50656665D01*
X80537200Y-50656665D02*
X80489580Y-50704284D01*
X80489580Y-49656665D02*
X80537200Y-49609046D01*
X80537200Y-49609046D02*
X80584819Y-49656665D01*
X80584819Y-49656665D02*
X80537200Y-49704284D01*
X80537200Y-49704284D02*
X80489580Y-49656665D01*
X80489580Y-49656665D02*
X80584819Y-49656665D01*
X80584819Y-48656666D02*
X80584819Y-49228094D01*
X80584819Y-48942380D02*
X79584819Y-48942380D01*
X79584819Y-48942380D02*
X79727676Y-49037618D01*
X79727676Y-49037618D02*
X79822914Y-49132856D01*
X79822914Y-49132856D02*
X79870533Y-49228094D01*
X80013390Y-48085237D02*
X79965771Y-48180475D01*
X79965771Y-48180475D02*
X79918152Y-48228094D01*
X79918152Y-48228094D02*
X79822914Y-48275713D01*
X79822914Y-48275713D02*
X79775295Y-48275713D01*
X79775295Y-48275713D02*
X79680057Y-48228094D01*
X79680057Y-48228094D02*
X79632438Y-48180475D01*
X79632438Y-48180475D02*
X79584819Y-48085237D01*
X79584819Y-48085237D02*
X79584819Y-47894761D01*
X79584819Y-47894761D02*
X79632438Y-47799523D01*
X79632438Y-47799523D02*
X79680057Y-47751904D01*
X79680057Y-47751904D02*
X79775295Y-47704285D01*
X79775295Y-47704285D02*
X79822914Y-47704285D01*
X79822914Y-47704285D02*
X79918152Y-47751904D01*
X79918152Y-47751904D02*
X79965771Y-47799523D01*
X79965771Y-47799523D02*
X80013390Y-47894761D01*
X80013390Y-47894761D02*
X80013390Y-48085237D01*
X80013390Y-48085237D02*
X80061009Y-48180475D01*
X80061009Y-48180475D02*
X80108628Y-48228094D01*
X80108628Y-48228094D02*
X80203866Y-48275713D01*
X80203866Y-48275713D02*
X80394342Y-48275713D01*
X80394342Y-48275713D02*
X80489580Y-48228094D01*
X80489580Y-48228094D02*
X80537200Y-48180475D01*
X80537200Y-48180475D02*
X80584819Y-48085237D01*
X80584819Y-48085237D02*
X80584819Y-47894761D01*
X80584819Y-47894761D02*
X80537200Y-47799523D01*
X80537200Y-47799523D02*
X80489580Y-47751904D01*
X80489580Y-47751904D02*
X80394342Y-47704285D01*
X80394342Y-47704285D02*
X80203866Y-47704285D01*
X80203866Y-47704285D02*
X80108628Y-47751904D01*
X80108628Y-47751904D02*
X80061009Y-47799523D01*
X80061009Y-47799523D02*
X80013390Y-47894761D01*
X79584819Y-47085237D02*
X79584819Y-46989999D01*
X79584819Y-46989999D02*
X79632438Y-46894761D01*
X79632438Y-46894761D02*
X79680057Y-46847142D01*
X79680057Y-46847142D02*
X79775295Y-46799523D01*
X79775295Y-46799523D02*
X79965771Y-46751904D01*
X79965771Y-46751904D02*
X80203866Y-46751904D01*
X80203866Y-46751904D02*
X80394342Y-46799523D01*
X80394342Y-46799523D02*
X80489580Y-46847142D01*
X80489580Y-46847142D02*
X80537200Y-46894761D01*
X80537200Y-46894761D02*
X80584819Y-46989999D01*
X80584819Y-46989999D02*
X80584819Y-47085237D01*
X80584819Y-47085237D02*
X80537200Y-47180475D01*
X80537200Y-47180475D02*
X80489580Y-47228094D01*
X80489580Y-47228094D02*
X80394342Y-47275713D01*
X80394342Y-47275713D02*
X80203866Y-47323332D01*
X80203866Y-47323332D02*
X79965771Y-47323332D01*
X79965771Y-47323332D02*
X79775295Y-47275713D01*
X79775295Y-47275713D02*
X79680057Y-47228094D01*
X79680057Y-47228094D02*
X79632438Y-47180475D01*
X79632438Y-47180475D02*
X79584819Y-47085237D01*
X79584819Y-46132856D02*
X79584819Y-46037618D01*
X79584819Y-46037618D02*
X79632438Y-45942380D01*
X79632438Y-45942380D02*
X79680057Y-45894761D01*
X79680057Y-45894761D02*
X79775295Y-45847142D01*
X79775295Y-45847142D02*
X79965771Y-45799523D01*
X79965771Y-45799523D02*
X80203866Y-45799523D01*
X80203866Y-45799523D02*
X80394342Y-45847142D01*
X80394342Y-45847142D02*
X80489580Y-45894761D01*
X80489580Y-45894761D02*
X80537200Y-45942380D01*
X80537200Y-45942380D02*
X80584819Y-46037618D01*
X80584819Y-46037618D02*
X80584819Y-46132856D01*
X80584819Y-46132856D02*
X80537200Y-46228094D01*
X80537200Y-46228094D02*
X80489580Y-46275713D01*
X80489580Y-46275713D02*
X80394342Y-46323332D01*
X80394342Y-46323332D02*
X80203866Y-46370951D01*
X80203866Y-46370951D02*
X79965771Y-46370951D01*
X79965771Y-46370951D02*
X79775295Y-46323332D01*
X79775295Y-46323332D02*
X79680057Y-46275713D01*
X79680057Y-46275713D02*
X79632438Y-46228094D01*
X79632438Y-46228094D02*
X79584819Y-46132856D01*
X80584819Y-44609046D02*
X79918152Y-44609046D01*
X80013390Y-44609046D02*
X79965771Y-44561427D01*
X79965771Y-44561427D02*
X79918152Y-44466189D01*
X79918152Y-44466189D02*
X79918152Y-44323332D01*
X79918152Y-44323332D02*
X79965771Y-44228094D01*
X79965771Y-44228094D02*
X80061009Y-44180475D01*
X80061009Y-44180475D02*
X80584819Y-44180475D01*
X80061009Y-44180475D02*
X79965771Y-44132856D01*
X79965771Y-44132856D02*
X79918152Y-44037618D01*
X79918152Y-44037618D02*
X79918152Y-43894761D01*
X79918152Y-43894761D02*
X79965771Y-43799522D01*
X79965771Y-43799522D02*
X80061009Y-43751903D01*
X80061009Y-43751903D02*
X80584819Y-43751903D01*
X80584819Y-43275713D02*
X79918152Y-43275713D01*
X80013390Y-43275713D02*
X79965771Y-43228094D01*
X79965771Y-43228094D02*
X79918152Y-43132856D01*
X79918152Y-43132856D02*
X79918152Y-42989999D01*
X79918152Y-42989999D02*
X79965771Y-42894761D01*
X79965771Y-42894761D02*
X80061009Y-42847142D01*
X80061009Y-42847142D02*
X80584819Y-42847142D01*
X80061009Y-42847142D02*
X79965771Y-42799523D01*
X79965771Y-42799523D02*
X79918152Y-42704285D01*
X79918152Y-42704285D02*
X79918152Y-42561428D01*
X79918152Y-42561428D02*
X79965771Y-42466189D01*
X79965771Y-42466189D02*
X80061009Y-42418570D01*
X80061009Y-42418570D02*
X80584819Y-42418570D01*
D12*
X74160000Y-68580000D02*
X81866420Y-68580000D01*
X74160000Y-25400000D02*
X81866420Y-25400000D01*
X81280000Y-68580000D02*
X81280000Y-25400000D01*
X81280000Y-68580000D02*
X81280000Y-25400000D01*
X81280000Y-68580000D02*
X80693579Y-67453496D01*
X81280000Y-68580000D02*
X81866421Y-67453496D01*
X81280000Y-25400000D02*
X81866421Y-26526504D01*
X81280000Y-25400000D02*
X80693579Y-26526504D01*
M02*
