M48
; DRILL file {KiCad 8.0.8} date 2025-04-18T11:11:15-0400
; FORMAT={-:-/ absolute / inch / decimal}
; #@! TF.CreationDate,2025-04-18T11:11:15-04:00
; #@! TF.GenerationSoftware,Kicad,Pcbnew,8.0.8
; #@! TF.FileFunction,Plated,1,2,PTH
FMAT,2
INCH
; #@! TA.AperFunction,Plated,PTH,ComponentDrill
T1C0.0315
; #@! TA.AperFunction,Plated,PTH,ComponentDrill
T2C0.0394
; #@! TA.AperFunction,Plated,PTH,ComponentDrill
T3C0.0433
; #@! TA.AperFunction,Plated,PTH,ComponentDrill
T4C0.0512
%
G90
G05
T1
X6.5551Y-1.4173
X6.6866Y-1.6142
X6.6866Y-1.9791
X6.6898Y-2.126
X6.9551Y-1.4173
X7.0866Y-1.6142
X7.0866Y-1.9791
X7.0898Y-2.126
X7.4772Y-1.4764
X7.4803Y-2.0276
X7.8772Y-1.4764
X7.8803Y-2.0276
T2
X6.0016Y-1.0
X6.0016Y-2.7
X6.1016Y-1.0
X6.1016Y-2.7
X6.2016Y-1.0
X6.2016Y-2.7
X6.3016Y-1.0
X6.3016Y-2.7
X6.4016Y-1.0
X6.4016Y-2.7
X6.5016Y-1.0
X6.5016Y-2.7
X6.6016Y-1.0
X6.6016Y-2.7
X6.7016Y-1.0
X6.7016Y-2.7
X6.8016Y-1.0
X6.8016Y-2.7
X6.9016Y-1.0
X6.9016Y-2.7
X7.0016Y-1.0
X7.0016Y-2.7
X7.1016Y-1.0
X7.1016Y-2.7
X7.2016Y-1.0
X7.2016Y-2.7
X7.3016Y-1.0
X7.3016Y-2.7
X7.4016Y-1.0
X7.4016Y-2.7
X7.5016Y-1.0
X7.5016Y-2.7
X7.6016Y-1.0
X7.6016Y-2.7
X7.7016Y-1.0
X7.7016Y-2.7
X7.8016Y-1.0
X7.8016Y-2.7
X7.9016Y-1.0
X7.9016Y-2.7
T3
X6.611Y-1.2795
X6.6126Y-1.8392
X6.711Y-1.2795
X6.7126Y-1.8392
X6.811Y-1.2795
X6.8126Y-1.8392
T4
X6.2992Y-1.2598
X6.2992Y-1.4567
X6.2992Y-2.1457
X6.2992Y-2.3425
M30
