%TF.GenerationSoftware,KiCad,Pcbnew,8.0.8*%
%TF.CreationDate,2025-02-03T20:55:19-05:00*%
%TF.ProjectId,IMD Latching Module V2.0,494d4420-4c61-4746-9368-696e67204d6f,rev?*%
%TF.SameCoordinates,Original*%
%TF.FileFunction,Copper,L1,Top*%
%TF.FilePolarity,Positive*%
%FSLAX46Y46*%
G04 Gerber Fmt 4.6, Leading zero omitted, Abs format (unit mm)*
G04 Created by KiCad (PCBNEW 8.0.8) date 2025-02-03 20:55:19*
%MOMM*%
%LPD*%
G01*
G04 APERTURE LIST*
%TA.AperFunction,SMDPad,CuDef*%
%ADD10R,0.970000X0.900000*%
%TD*%
%TA.AperFunction,ComponentPad*%
%ADD11C,3.000000*%
%TD*%
%TA.AperFunction,ComponentPad*%
%ADD12C,1.524000*%
%TD*%
%TA.AperFunction,ComponentPad*%
%ADD13R,1.498600X1.498600*%
%TD*%
%TA.AperFunction,ComponentPad*%
%ADD14C,1.498600*%
%TD*%
%TA.AperFunction,SMDPad,CuDef*%
%ADD15R,0.660400X1.549400*%
%TD*%
%TA.AperFunction,ComponentPad*%
%ADD16O,5.350000X2.850000*%
%TD*%
%TA.AperFunction,ComponentPad*%
%ADD17C,2.717800*%
%TD*%
%TA.AperFunction,ComponentPad*%
%ADD18C,2.108200*%
%TD*%
%TA.AperFunction,ComponentPad*%
%ADD19R,1.397000X1.397000*%
%TD*%
%TA.AperFunction,ComponentPad*%
%ADD20C,1.397000*%
%TD*%
%TA.AperFunction,ComponentPad*%
%ADD21C,1.950000*%
%TD*%
%TA.AperFunction,ComponentPad*%
%ADD22R,2.200000X2.200000*%
%TD*%
%TA.AperFunction,ComponentPad*%
%ADD23O,2.200000X2.200000*%
%TD*%
%TA.AperFunction,ViaPad*%
%ADD24C,1.000000*%
%TD*%
%TA.AperFunction,ViaPad*%
%ADD25C,1.200000*%
%TD*%
%TA.AperFunction,Conductor*%
%ADD26C,0.250000*%
%TD*%
%TA.AperFunction,Conductor*%
%ADD27C,0.500000*%
%TD*%
%TA.AperFunction,Conductor*%
%ADD28C,2.000000*%
%TD*%
%TA.AperFunction,Conductor*%
%ADD29C,0.200000*%
%TD*%
%TA.AperFunction,Conductor*%
%ADD30C,1.500000*%
%TD*%
%TA.AperFunction,Conductor*%
%ADD31C,5.000000*%
%TD*%
G04 APERTURE END LIST*
D10*
%TO.P,D1,1,K*%
%TO.N,Net-(D1-K)*%
X90620000Y-80270000D03*
%TO.P,D1,2,A*%
%TO.N,/GND*%
X90620000Y-78750000D03*
%TD*%
%TO.P,D2,1,K*%
%TO.N,Net-(D1-K)*%
X88540000Y-80260000D03*
%TO.P,D2,2,A*%
%TO.N,/GND*%
X88540000Y-78740000D03*
%TD*%
D11*
%TO.P,TP2,1,1*%
%TO.N,Net-(J3-Pad7)*%
X86900000Y-62700000D03*
%TD*%
D12*
%TO.P,J3,1,1*%
%TO.N,Net-(J3-Pad1)*%
X50800000Y-99060000D03*
%TO.P,J3,2,2*%
%TO.N,Net-(D1-K)*%
X50800000Y-96520000D03*
%TO.P,J3,3,3*%
%TO.N,/Vs*%
X50800000Y-93980000D03*
%TO.P,J3,4,4*%
%TO.N,Net-(D4-A)*%
X50800000Y-91440000D03*
%TO.P,J3,5,5*%
%TO.N,Net-(J3-Pad1)*%
X50800000Y-88900000D03*
%TO.P,J3,6,6*%
%TO.N,/GND*%
X50800000Y-86360000D03*
%TO.P,J3,7,7*%
%TO.N,Net-(J3-Pad7)*%
X50800000Y-83820000D03*
%TO.P,J3,8,8*%
%TO.N,unconnected-(J3-Pad8)*%
X50800000Y-81280000D03*
%TO.P,J3,9,9*%
%TO.N,unconnected-(J3-Pad9)*%
X50800000Y-78740000D03*
%TO.P,J3,10,10*%
%TO.N,unconnected-(J3-Pad10)*%
X50800000Y-76200000D03*
%TO.P,J3,11,11*%
%TO.N,unconnected-(J3-Pad11)*%
X50800000Y-73660000D03*
%TO.P,J3,12,12*%
%TO.N,unconnected-(J3-Pad12)*%
X50800000Y-71120000D03*
%TO.P,J3,13,13*%
%TO.N,unconnected-(J3-Pad13)*%
X50800000Y-68580000D03*
%TO.P,J3,14,14*%
%TO.N,unconnected-(J3-Pad14)*%
X50800000Y-66040000D03*
%TO.P,J3,15,15*%
%TO.N,unconnected-(J3-Pad15)*%
X50800000Y-63500000D03*
%TO.P,J3,16,16*%
%TO.N,unconnected-(J3-Pad16)*%
X50800000Y-60960000D03*
%TO.P,J3,17,17*%
%TO.N,unconnected-(J3-Pad17)*%
X50800000Y-58420000D03*
%TO.P,J3,18,18*%
%TO.N,unconnected-(J3-Pad18)*%
X50800000Y-55880000D03*
%TO.P,J3,19,19*%
%TO.N,unconnected-(J3-Pad19)*%
X50800000Y-53340000D03*
%TO.P,J3,20,20*%
%TO.N,unconnected-(J3-Pad20)*%
X50800000Y-50800000D03*
%TD*%
D13*
%TO.P,IMD RESET,1,1*%
%TO.N,Net-(D1-K)*%
X85019999Y-90070000D03*
D14*
%TO.P,IMD RESET,2,2*%
%TO.N,N/C*%
X91520000Y-90070000D03*
%TO.P,IMD RESET,3*%
X85019999Y-94570001D03*
%TO.P,IMD RESET,4*%
%TO.N,Net-(J3-Pad1)*%
X91520000Y-94570001D03*
%TD*%
D15*
%TO.P,D4,1,K*%
%TO.N,Net-(D4-K)*%
X84600000Y-69000000D03*
%TO.P,D4,2,A*%
%TO.N,Net-(D4-A)*%
X87444800Y-69000000D03*
%TD*%
D16*
%TO.P,K1,1,1*%
%TO.N,Net-(J4-Pad2)*%
X58920000Y-65159999D03*
%TO.P,K1,2,2*%
%TO.N,Net-(J3-Pad1)*%
X58920000Y-76160000D03*
D17*
%TO.P,K1,3,3*%
%TO.N,/Vs*%
X56970000Y-97460000D03*
D18*
%TO.P,K1,4,4*%
%TO.N,Net-(D1-K)*%
X64620000Y-97460000D03*
%TO.P,K1,5,5*%
%TO.N,/GND*%
X72220000Y-97460000D03*
D17*
%TO.P,K1,6,6*%
%TO.N,Net-(D4-A)*%
X79870000Y-97460000D03*
D16*
%TO.P,K1,7,7*%
%TO.N,Net-(D1-K)*%
X77919998Y-76160000D03*
%TO.P,K1,8,8*%
%TO.N,Net-(J3-Pad7)*%
X77919998Y-65159999D03*
%TD*%
D19*
%TO.P,R2,1*%
%TO.N,/GND*%
X79200000Y-59000000D03*
D20*
%TO.P,R2,2*%
%TO.N,Net-(D4-K)*%
X90630000Y-59000000D03*
%TD*%
D21*
%TO.P,J4,1*%
%TO.N,unconnected-(J4-Pad1)*%
X57130000Y-55150000D03*
%TO.P,J4,2*%
%TO.N,Net-(J4-Pad2)*%
X57130000Y-60150000D03*
%TD*%
D11*
%TO.P,TP1,1,1*%
%TO.N,Net-(J3-Pad1)*%
X88720000Y-97970000D03*
%TD*%
D19*
%TO.P,R1,1*%
%TO.N,/GND*%
X79200000Y-55800000D03*
D20*
%TO.P,R1,2*%
%TO.N,Net-(D4-K)*%
X90630000Y-55800000D03*
%TD*%
D12*
%TO.P,J2,1,1*%
%TO.N,N/C*%
X94000000Y-99060000D03*
%TO.P,J2,2,2*%
X94000000Y-96520000D03*
%TO.P,J2,3,3*%
X94000000Y-93980000D03*
%TO.P,J2,4,4*%
X94000000Y-91440000D03*
%TO.P,J2,5,5*%
X94000000Y-88900000D03*
%TO.P,J2,6,6*%
X94000000Y-86360000D03*
%TO.P,J2,7,7*%
X94000000Y-83820000D03*
%TO.P,J2,8,8*%
X94000000Y-81280000D03*
%TO.P,J2,9,9*%
X94000000Y-78740000D03*
%TO.P,J2,10,10*%
X94000000Y-76200000D03*
%TO.P,J2,11,11*%
X94000000Y-73660000D03*
%TO.P,J2,12,12*%
X94000000Y-71120000D03*
%TO.P,J2,13,13*%
X94000000Y-68580000D03*
%TO.P,J2,14,14*%
X94000000Y-66040000D03*
%TO.P,J2,15,15*%
X94000000Y-63500000D03*
%TO.P,J2,16,16*%
X94000000Y-60960000D03*
%TO.P,J2,17,17*%
X94000000Y-58420000D03*
%TO.P,J2,18,18*%
X94000000Y-55880000D03*
%TO.P,J2,19,19*%
X94000000Y-53340000D03*
%TO.P,J2,20,20*%
X94000000Y-50800000D03*
%TD*%
D22*
%TO.P,D3,1,K*%
%TO.N,Net-(D1-K)*%
X85920000Y-84790000D03*
D23*
%TO.P,D3,2,A*%
%TO.N,/GND*%
X85920000Y-74630000D03*
%TD*%
D19*
%TO.P,R3,1*%
%TO.N,Net-(J3-Pad1)*%
X90600000Y-72730000D03*
D20*
%TO.P,R3,2*%
%TO.N,/GND*%
X90600000Y-61300000D03*
%TD*%
D24*
%TO.N,Net-(D4-A)*%
X88400000Y-70500000D03*
D25*
%TO.N,Net-(J3-Pad1)*%
X87800000Y-71600000D03*
%TD*%
D26*
%TO.N,/GND*%
X88540000Y-77250000D02*
X85920000Y-74630000D01*
X90620000Y-78750000D02*
X88550000Y-78750000D01*
X88550000Y-78750000D02*
X88540000Y-78740000D01*
X79200000Y-59000000D02*
X79200000Y-55800000D01*
X90600000Y-69950000D02*
X90600000Y-61300000D01*
X88540000Y-78740000D02*
X88540000Y-77250000D01*
X85920000Y-74630000D02*
X90600000Y-69950000D01*
D27*
%TO.N,Net-(D1-K)*%
X85920000Y-84790000D02*
X85920000Y-89169999D01*
X72069401Y-90010599D02*
X72128802Y-90070000D01*
D26*
X88540000Y-80260000D02*
X90610000Y-80260000D01*
X88540000Y-82170000D02*
X85920000Y-84790000D01*
X88540000Y-80260000D02*
X88540000Y-82170000D01*
D27*
X64620000Y-97460000D02*
X64620000Y-89459998D01*
X85920000Y-89169999D02*
X85019999Y-90070000D01*
X64620000Y-89459998D02*
X77919998Y-76160000D01*
X90610000Y-80260000D02*
X90620000Y-80270000D01*
X64620000Y-97460000D02*
X72069401Y-90010599D01*
X72128802Y-90070000D02*
X85019999Y-90070000D01*
D26*
%TO.N,Net-(D4-A)*%
X88400000Y-70500000D02*
X88400000Y-69955200D01*
X88400000Y-69955200D02*
X87444800Y-69000000D01*
D28*
%TO.N,/Vs*%
X53490000Y-93980000D02*
X50800000Y-93980000D01*
X56970000Y-97460000D02*
X53490000Y-93980000D01*
D29*
%TO.N,Net-(D4-K)*%
X88700000Y-60930000D02*
X88700000Y-64390278D01*
X88700000Y-64390278D02*
X84600000Y-68490278D01*
X84600000Y-68490278D02*
X84600000Y-69000000D01*
X90630000Y-55800000D02*
X90630000Y-59000000D01*
X90630000Y-59000000D02*
X88700000Y-60930000D01*
D27*
%TO.N,Net-(J3-Pad1)*%
X88720000Y-97970000D02*
X88720000Y-97370001D01*
X61920000Y-99270000D02*
X87420000Y-99270000D01*
X54800000Y-75500000D02*
X55460000Y-76160000D01*
X87420000Y-99270000D02*
X88720000Y-97970000D01*
X88720000Y-97370001D02*
X91520000Y-94570001D01*
X54800000Y-85650000D02*
X54800000Y-75500000D01*
X50800000Y-88900000D02*
X51550000Y-88900000D01*
X58920000Y-76160000D02*
X58920000Y-96270000D01*
X51550000Y-88900000D02*
X54800000Y-85650000D01*
X54800000Y-75500000D02*
X58700000Y-71600000D01*
X61920000Y-99270000D02*
X51010000Y-99270000D01*
X58700000Y-71600000D02*
X87800000Y-71600000D01*
X58920000Y-96270000D02*
X61920000Y-99270000D01*
X51010000Y-99270000D02*
X50800000Y-99060000D01*
X55460000Y-76160000D02*
X58920000Y-76160000D01*
D30*
%TO.N,Net-(J3-Pad7)*%
X80379997Y-62700000D02*
X86900000Y-62700000D01*
X59790000Y-69200000D02*
X56600000Y-69200000D01*
X52512000Y-82278000D02*
X50970000Y-83820000D01*
X56600000Y-69200000D02*
X52512000Y-73288000D01*
X77919998Y-65159999D02*
X63830001Y-65159999D01*
X77919998Y-65159999D02*
X80379997Y-62700000D01*
X52512000Y-73288000D02*
X52512000Y-82278000D01*
X63830001Y-65159999D02*
X59790000Y-69200000D01*
D31*
%TO.N,Net-(J4-Pad2)*%
X57130000Y-63369999D02*
X58920000Y-65159999D01*
X57130000Y-60150000D02*
X57130000Y-63369999D01*
%TD*%
M02*
