%TF.GenerationSoftware,KiCad,Pcbnew,8.0.8*%
%TF.CreationDate,2025-02-03T20:55:20-05:00*%
%TF.ProjectId,IMD Latching Module V2.0,494d4420-4c61-4746-9368-696e67204d6f,rev?*%
%TF.SameCoordinates,Original*%
%TF.FileFunction,Profile,NP*%
%FSLAX46Y46*%
G04 Gerber Fmt 4.6, Leading zero omitted, Abs format (unit mm)*
G04 Created by KiCad (PCBNEW 8.0.8) date 2025-02-03 20:55:20*
%MOMM*%
%LPD*%
G01*
G04 APERTURE LIST*
%TA.AperFunction,Profile*%
%ADD10C,0.050000*%
%TD*%
%ADD11C,0.150000*%
G04 APERTURE END LIST*
D10*
X49720000Y-49670000D02*
X95720000Y-49670000D01*
X95720000Y-100470000D01*
X49720000Y-100470000D01*
X49720000Y-49670000D01*
D11*
X99504819Y-79165237D02*
X99504819Y-79641427D01*
X99504819Y-79641427D02*
X99981009Y-79689046D01*
X99981009Y-79689046D02*
X99933390Y-79641427D01*
X99933390Y-79641427D02*
X99885771Y-79546189D01*
X99885771Y-79546189D02*
X99885771Y-79308094D01*
X99885771Y-79308094D02*
X99933390Y-79212856D01*
X99933390Y-79212856D02*
X99981009Y-79165237D01*
X99981009Y-79165237D02*
X100076247Y-79117618D01*
X100076247Y-79117618D02*
X100314342Y-79117618D01*
X100314342Y-79117618D02*
X100409580Y-79165237D01*
X100409580Y-79165237D02*
X100457200Y-79212856D01*
X100457200Y-79212856D02*
X100504819Y-79308094D01*
X100504819Y-79308094D02*
X100504819Y-79546189D01*
X100504819Y-79546189D02*
X100457200Y-79641427D01*
X100457200Y-79641427D02*
X100409580Y-79689046D01*
X99504819Y-78498570D02*
X99504819Y-78403332D01*
X99504819Y-78403332D02*
X99552438Y-78308094D01*
X99552438Y-78308094D02*
X99600057Y-78260475D01*
X99600057Y-78260475D02*
X99695295Y-78212856D01*
X99695295Y-78212856D02*
X99885771Y-78165237D01*
X99885771Y-78165237D02*
X100123866Y-78165237D01*
X100123866Y-78165237D02*
X100314342Y-78212856D01*
X100314342Y-78212856D02*
X100409580Y-78260475D01*
X100409580Y-78260475D02*
X100457200Y-78308094D01*
X100457200Y-78308094D02*
X100504819Y-78403332D01*
X100504819Y-78403332D02*
X100504819Y-78498570D01*
X100504819Y-78498570D02*
X100457200Y-78593808D01*
X100457200Y-78593808D02*
X100409580Y-78641427D01*
X100409580Y-78641427D02*
X100314342Y-78689046D01*
X100314342Y-78689046D02*
X100123866Y-78736665D01*
X100123866Y-78736665D02*
X99885771Y-78736665D01*
X99885771Y-78736665D02*
X99695295Y-78689046D01*
X99695295Y-78689046D02*
X99600057Y-78641427D01*
X99600057Y-78641427D02*
X99552438Y-78593808D01*
X99552438Y-78593808D02*
X99504819Y-78498570D01*
X100409580Y-77736665D02*
X100457200Y-77689046D01*
X100457200Y-77689046D02*
X100504819Y-77736665D01*
X100504819Y-77736665D02*
X100457200Y-77784284D01*
X100457200Y-77784284D02*
X100409580Y-77736665D01*
X100409580Y-77736665D02*
X100504819Y-77736665D01*
X99933390Y-77117618D02*
X99885771Y-77212856D01*
X99885771Y-77212856D02*
X99838152Y-77260475D01*
X99838152Y-77260475D02*
X99742914Y-77308094D01*
X99742914Y-77308094D02*
X99695295Y-77308094D01*
X99695295Y-77308094D02*
X99600057Y-77260475D01*
X99600057Y-77260475D02*
X99552438Y-77212856D01*
X99552438Y-77212856D02*
X99504819Y-77117618D01*
X99504819Y-77117618D02*
X99504819Y-76927142D01*
X99504819Y-76927142D02*
X99552438Y-76831904D01*
X99552438Y-76831904D02*
X99600057Y-76784285D01*
X99600057Y-76784285D02*
X99695295Y-76736666D01*
X99695295Y-76736666D02*
X99742914Y-76736666D01*
X99742914Y-76736666D02*
X99838152Y-76784285D01*
X99838152Y-76784285D02*
X99885771Y-76831904D01*
X99885771Y-76831904D02*
X99933390Y-76927142D01*
X99933390Y-76927142D02*
X99933390Y-77117618D01*
X99933390Y-77117618D02*
X99981009Y-77212856D01*
X99981009Y-77212856D02*
X100028628Y-77260475D01*
X100028628Y-77260475D02*
X100123866Y-77308094D01*
X100123866Y-77308094D02*
X100314342Y-77308094D01*
X100314342Y-77308094D02*
X100409580Y-77260475D01*
X100409580Y-77260475D02*
X100457200Y-77212856D01*
X100457200Y-77212856D02*
X100504819Y-77117618D01*
X100504819Y-77117618D02*
X100504819Y-76927142D01*
X100504819Y-76927142D02*
X100457200Y-76831904D01*
X100457200Y-76831904D02*
X100409580Y-76784285D01*
X100409580Y-76784285D02*
X100314342Y-76736666D01*
X100314342Y-76736666D02*
X100123866Y-76736666D01*
X100123866Y-76736666D02*
X100028628Y-76784285D01*
X100028628Y-76784285D02*
X99981009Y-76831904D01*
X99981009Y-76831904D02*
X99933390Y-76927142D01*
X99504819Y-76117618D02*
X99504819Y-76022380D01*
X99504819Y-76022380D02*
X99552438Y-75927142D01*
X99552438Y-75927142D02*
X99600057Y-75879523D01*
X99600057Y-75879523D02*
X99695295Y-75831904D01*
X99695295Y-75831904D02*
X99885771Y-75784285D01*
X99885771Y-75784285D02*
X100123866Y-75784285D01*
X100123866Y-75784285D02*
X100314342Y-75831904D01*
X100314342Y-75831904D02*
X100409580Y-75879523D01*
X100409580Y-75879523D02*
X100457200Y-75927142D01*
X100457200Y-75927142D02*
X100504819Y-76022380D01*
X100504819Y-76022380D02*
X100504819Y-76117618D01*
X100504819Y-76117618D02*
X100457200Y-76212856D01*
X100457200Y-76212856D02*
X100409580Y-76260475D01*
X100409580Y-76260475D02*
X100314342Y-76308094D01*
X100314342Y-76308094D02*
X100123866Y-76355713D01*
X100123866Y-76355713D02*
X99885771Y-76355713D01*
X99885771Y-76355713D02*
X99695295Y-76308094D01*
X99695295Y-76308094D02*
X99600057Y-76260475D01*
X99600057Y-76260475D02*
X99552438Y-76212856D01*
X99552438Y-76212856D02*
X99504819Y-76117618D01*
X99504819Y-75165237D02*
X99504819Y-75069999D01*
X99504819Y-75069999D02*
X99552438Y-74974761D01*
X99552438Y-74974761D02*
X99600057Y-74927142D01*
X99600057Y-74927142D02*
X99695295Y-74879523D01*
X99695295Y-74879523D02*
X99885771Y-74831904D01*
X99885771Y-74831904D02*
X100123866Y-74831904D01*
X100123866Y-74831904D02*
X100314342Y-74879523D01*
X100314342Y-74879523D02*
X100409580Y-74927142D01*
X100409580Y-74927142D02*
X100457200Y-74974761D01*
X100457200Y-74974761D02*
X100504819Y-75069999D01*
X100504819Y-75069999D02*
X100504819Y-75165237D01*
X100504819Y-75165237D02*
X100457200Y-75260475D01*
X100457200Y-75260475D02*
X100409580Y-75308094D01*
X100409580Y-75308094D02*
X100314342Y-75355713D01*
X100314342Y-75355713D02*
X100123866Y-75403332D01*
X100123866Y-75403332D02*
X99885771Y-75403332D01*
X99885771Y-75403332D02*
X99695295Y-75355713D01*
X99695295Y-75355713D02*
X99600057Y-75308094D01*
X99600057Y-75308094D02*
X99552438Y-75260475D01*
X99552438Y-75260475D02*
X99504819Y-75165237D01*
X99504819Y-74212856D02*
X99504819Y-74117618D01*
X99504819Y-74117618D02*
X99552438Y-74022380D01*
X99552438Y-74022380D02*
X99600057Y-73974761D01*
X99600057Y-73974761D02*
X99695295Y-73927142D01*
X99695295Y-73927142D02*
X99885771Y-73879523D01*
X99885771Y-73879523D02*
X100123866Y-73879523D01*
X100123866Y-73879523D02*
X100314342Y-73927142D01*
X100314342Y-73927142D02*
X100409580Y-73974761D01*
X100409580Y-73974761D02*
X100457200Y-74022380D01*
X100457200Y-74022380D02*
X100504819Y-74117618D01*
X100504819Y-74117618D02*
X100504819Y-74212856D01*
X100504819Y-74212856D02*
X100457200Y-74308094D01*
X100457200Y-74308094D02*
X100409580Y-74355713D01*
X100409580Y-74355713D02*
X100314342Y-74403332D01*
X100314342Y-74403332D02*
X100123866Y-74450951D01*
X100123866Y-74450951D02*
X99885771Y-74450951D01*
X99885771Y-74450951D02*
X99695295Y-74403332D01*
X99695295Y-74403332D02*
X99600057Y-74355713D01*
X99600057Y-74355713D02*
X99552438Y-74308094D01*
X99552438Y-74308094D02*
X99504819Y-74212856D01*
X100504819Y-72689046D02*
X99838152Y-72689046D01*
X99933390Y-72689046D02*
X99885771Y-72641427D01*
X99885771Y-72641427D02*
X99838152Y-72546189D01*
X99838152Y-72546189D02*
X99838152Y-72403332D01*
X99838152Y-72403332D02*
X99885771Y-72308094D01*
X99885771Y-72308094D02*
X99981009Y-72260475D01*
X99981009Y-72260475D02*
X100504819Y-72260475D01*
X99981009Y-72260475D02*
X99885771Y-72212856D01*
X99885771Y-72212856D02*
X99838152Y-72117618D01*
X99838152Y-72117618D02*
X99838152Y-71974761D01*
X99838152Y-71974761D02*
X99885771Y-71879522D01*
X99885771Y-71879522D02*
X99981009Y-71831903D01*
X99981009Y-71831903D02*
X100504819Y-71831903D01*
X100504819Y-71355713D02*
X99838152Y-71355713D01*
X99933390Y-71355713D02*
X99885771Y-71308094D01*
X99885771Y-71308094D02*
X99838152Y-71212856D01*
X99838152Y-71212856D02*
X99838152Y-71069999D01*
X99838152Y-71069999D02*
X99885771Y-70974761D01*
X99885771Y-70974761D02*
X99981009Y-70927142D01*
X99981009Y-70927142D02*
X100504819Y-70927142D01*
X99981009Y-70927142D02*
X99885771Y-70879523D01*
X99885771Y-70879523D02*
X99838152Y-70784285D01*
X99838152Y-70784285D02*
X99838152Y-70641428D01*
X99838152Y-70641428D02*
X99885771Y-70546189D01*
X99885771Y-70546189D02*
X99981009Y-70498570D01*
X99981009Y-70498570D02*
X100504819Y-70498570D01*
D10*
X96220000Y-49670000D02*
X101786420Y-49670000D01*
X96220000Y-100470000D02*
X101786420Y-100470000D01*
X101200000Y-49670000D02*
X101200000Y-100470000D01*
X101200000Y-49670000D02*
X101200000Y-100470000D01*
X101200000Y-49670000D02*
X101786421Y-50796504D01*
X101200000Y-49670000D02*
X100613579Y-50796504D01*
X101200000Y-100470000D02*
X100613579Y-99343496D01*
X101200000Y-100470000D02*
X101786421Y-99343496D01*
D11*
X68577143Y-41238152D02*
X68577143Y-41904819D01*
X68339048Y-40857200D02*
X68100953Y-41571485D01*
X68100953Y-41571485D02*
X68720000Y-41571485D01*
X69529524Y-40904819D02*
X69339048Y-40904819D01*
X69339048Y-40904819D02*
X69243810Y-40952438D01*
X69243810Y-40952438D02*
X69196191Y-41000057D01*
X69196191Y-41000057D02*
X69100953Y-41142914D01*
X69100953Y-41142914D02*
X69053334Y-41333390D01*
X69053334Y-41333390D02*
X69053334Y-41714342D01*
X69053334Y-41714342D02*
X69100953Y-41809580D01*
X69100953Y-41809580D02*
X69148572Y-41857200D01*
X69148572Y-41857200D02*
X69243810Y-41904819D01*
X69243810Y-41904819D02*
X69434286Y-41904819D01*
X69434286Y-41904819D02*
X69529524Y-41857200D01*
X69529524Y-41857200D02*
X69577143Y-41809580D01*
X69577143Y-41809580D02*
X69624762Y-41714342D01*
X69624762Y-41714342D02*
X69624762Y-41476247D01*
X69624762Y-41476247D02*
X69577143Y-41381009D01*
X69577143Y-41381009D02*
X69529524Y-41333390D01*
X69529524Y-41333390D02*
X69434286Y-41285771D01*
X69434286Y-41285771D02*
X69243810Y-41285771D01*
X69243810Y-41285771D02*
X69148572Y-41333390D01*
X69148572Y-41333390D02*
X69100953Y-41381009D01*
X69100953Y-41381009D02*
X69053334Y-41476247D01*
X70053334Y-41809580D02*
X70100953Y-41857200D01*
X70100953Y-41857200D02*
X70053334Y-41904819D01*
X70053334Y-41904819D02*
X70005715Y-41857200D01*
X70005715Y-41857200D02*
X70053334Y-41809580D01*
X70053334Y-41809580D02*
X70053334Y-41904819D01*
X70720000Y-40904819D02*
X70815238Y-40904819D01*
X70815238Y-40904819D02*
X70910476Y-40952438D01*
X70910476Y-40952438D02*
X70958095Y-41000057D01*
X70958095Y-41000057D02*
X71005714Y-41095295D01*
X71005714Y-41095295D02*
X71053333Y-41285771D01*
X71053333Y-41285771D02*
X71053333Y-41523866D01*
X71053333Y-41523866D02*
X71005714Y-41714342D01*
X71005714Y-41714342D02*
X70958095Y-41809580D01*
X70958095Y-41809580D02*
X70910476Y-41857200D01*
X70910476Y-41857200D02*
X70815238Y-41904819D01*
X70815238Y-41904819D02*
X70720000Y-41904819D01*
X70720000Y-41904819D02*
X70624762Y-41857200D01*
X70624762Y-41857200D02*
X70577143Y-41809580D01*
X70577143Y-41809580D02*
X70529524Y-41714342D01*
X70529524Y-41714342D02*
X70481905Y-41523866D01*
X70481905Y-41523866D02*
X70481905Y-41285771D01*
X70481905Y-41285771D02*
X70529524Y-41095295D01*
X70529524Y-41095295D02*
X70577143Y-41000057D01*
X70577143Y-41000057D02*
X70624762Y-40952438D01*
X70624762Y-40952438D02*
X70720000Y-40904819D01*
X71672381Y-40904819D02*
X71767619Y-40904819D01*
X71767619Y-40904819D02*
X71862857Y-40952438D01*
X71862857Y-40952438D02*
X71910476Y-41000057D01*
X71910476Y-41000057D02*
X71958095Y-41095295D01*
X71958095Y-41095295D02*
X72005714Y-41285771D01*
X72005714Y-41285771D02*
X72005714Y-41523866D01*
X72005714Y-41523866D02*
X71958095Y-41714342D01*
X71958095Y-41714342D02*
X71910476Y-41809580D01*
X71910476Y-41809580D02*
X71862857Y-41857200D01*
X71862857Y-41857200D02*
X71767619Y-41904819D01*
X71767619Y-41904819D02*
X71672381Y-41904819D01*
X71672381Y-41904819D02*
X71577143Y-41857200D01*
X71577143Y-41857200D02*
X71529524Y-41809580D01*
X71529524Y-41809580D02*
X71481905Y-41714342D01*
X71481905Y-41714342D02*
X71434286Y-41523866D01*
X71434286Y-41523866D02*
X71434286Y-41285771D01*
X71434286Y-41285771D02*
X71481905Y-41095295D01*
X71481905Y-41095295D02*
X71529524Y-41000057D01*
X71529524Y-41000057D02*
X71577143Y-40952438D01*
X71577143Y-40952438D02*
X71672381Y-40904819D01*
X72624762Y-40904819D02*
X72720000Y-40904819D01*
X72720000Y-40904819D02*
X72815238Y-40952438D01*
X72815238Y-40952438D02*
X72862857Y-41000057D01*
X72862857Y-41000057D02*
X72910476Y-41095295D01*
X72910476Y-41095295D02*
X72958095Y-41285771D01*
X72958095Y-41285771D02*
X72958095Y-41523866D01*
X72958095Y-41523866D02*
X72910476Y-41714342D01*
X72910476Y-41714342D02*
X72862857Y-41809580D01*
X72862857Y-41809580D02*
X72815238Y-41857200D01*
X72815238Y-41857200D02*
X72720000Y-41904819D01*
X72720000Y-41904819D02*
X72624762Y-41904819D01*
X72624762Y-41904819D02*
X72529524Y-41857200D01*
X72529524Y-41857200D02*
X72481905Y-41809580D01*
X72481905Y-41809580D02*
X72434286Y-41714342D01*
X72434286Y-41714342D02*
X72386667Y-41523866D01*
X72386667Y-41523866D02*
X72386667Y-41285771D01*
X72386667Y-41285771D02*
X72434286Y-41095295D01*
X72434286Y-41095295D02*
X72481905Y-41000057D01*
X72481905Y-41000057D02*
X72529524Y-40952438D01*
X72529524Y-40952438D02*
X72624762Y-40904819D01*
X73577143Y-40904819D02*
X73672381Y-40904819D01*
X73672381Y-40904819D02*
X73767619Y-40952438D01*
X73767619Y-40952438D02*
X73815238Y-41000057D01*
X73815238Y-41000057D02*
X73862857Y-41095295D01*
X73862857Y-41095295D02*
X73910476Y-41285771D01*
X73910476Y-41285771D02*
X73910476Y-41523866D01*
X73910476Y-41523866D02*
X73862857Y-41714342D01*
X73862857Y-41714342D02*
X73815238Y-41809580D01*
X73815238Y-41809580D02*
X73767619Y-41857200D01*
X73767619Y-41857200D02*
X73672381Y-41904819D01*
X73672381Y-41904819D02*
X73577143Y-41904819D01*
X73577143Y-41904819D02*
X73481905Y-41857200D01*
X73481905Y-41857200D02*
X73434286Y-41809580D01*
X73434286Y-41809580D02*
X73386667Y-41714342D01*
X73386667Y-41714342D02*
X73339048Y-41523866D01*
X73339048Y-41523866D02*
X73339048Y-41285771D01*
X73339048Y-41285771D02*
X73386667Y-41095295D01*
X73386667Y-41095295D02*
X73434286Y-41000057D01*
X73434286Y-41000057D02*
X73481905Y-40952438D01*
X73481905Y-40952438D02*
X73577143Y-40904819D01*
X75100953Y-41904819D02*
X75100953Y-41238152D01*
X75100953Y-41333390D02*
X75148572Y-41285771D01*
X75148572Y-41285771D02*
X75243810Y-41238152D01*
X75243810Y-41238152D02*
X75386667Y-41238152D01*
X75386667Y-41238152D02*
X75481905Y-41285771D01*
X75481905Y-41285771D02*
X75529524Y-41381009D01*
X75529524Y-41381009D02*
X75529524Y-41904819D01*
X75529524Y-41381009D02*
X75577143Y-41285771D01*
X75577143Y-41285771D02*
X75672381Y-41238152D01*
X75672381Y-41238152D02*
X75815238Y-41238152D01*
X75815238Y-41238152D02*
X75910477Y-41285771D01*
X75910477Y-41285771D02*
X75958096Y-41381009D01*
X75958096Y-41381009D02*
X75958096Y-41904819D01*
X76434286Y-41904819D02*
X76434286Y-41238152D01*
X76434286Y-41333390D02*
X76481905Y-41285771D01*
X76481905Y-41285771D02*
X76577143Y-41238152D01*
X76577143Y-41238152D02*
X76720000Y-41238152D01*
X76720000Y-41238152D02*
X76815238Y-41285771D01*
X76815238Y-41285771D02*
X76862857Y-41381009D01*
X76862857Y-41381009D02*
X76862857Y-41904819D01*
X76862857Y-41381009D02*
X76910476Y-41285771D01*
X76910476Y-41285771D02*
X77005714Y-41238152D01*
X77005714Y-41238152D02*
X77148571Y-41238152D01*
X77148571Y-41238152D02*
X77243810Y-41285771D01*
X77243810Y-41285771D02*
X77291429Y-41381009D01*
X77291429Y-41381009D02*
X77291429Y-41904819D01*
D10*
X49720000Y-48770000D02*
X49720000Y-42013580D01*
X95720000Y-48770000D02*
X95720000Y-42013580D01*
X49720000Y-42600000D02*
X95720000Y-42600000D01*
X49720000Y-42600000D02*
X95720000Y-42600000D01*
X49720000Y-42600000D02*
X50846504Y-42013579D01*
X49720000Y-42600000D02*
X50846504Y-43186421D01*
X95720000Y-42600000D02*
X94593496Y-43186421D01*
X95720000Y-42600000D02*
X94593496Y-42013579D01*
M02*
