%TF.GenerationSoftware,KiCad,Pcbnew,8.0.8*%
%TF.CreationDate,2025-02-03T20:55:48-05:00*%
%TF.ProjectId,AMS Latching Module V2.0,414d5320-4c61-4746-9368-696e67204d6f,rev?*%
%TF.SameCoordinates,Original*%
%TF.FileFunction,Soldermask,Bot*%
%TF.FilePolarity,Negative*%
%FSLAX46Y46*%
G04 Gerber Fmt 4.6, Leading zero omitted, Abs format (unit mm)*
G04 Created by KiCad (PCBNEW 8.0.8) date 2025-02-03 20:55:48*
%MOMM*%
%LPD*%
G01*
G04 APERTURE LIST*
%ADD10C,3.000000*%
%ADD11C,1.524000*%
%ADD12R,1.498600X1.498600*%
%ADD13C,1.498600*%
%ADD14O,5.350000X2.850000*%
%ADD15C,2.717800*%
%ADD16C,2.108200*%
%ADD17R,1.397000X1.397000*%
%ADD18C,1.397000*%
%ADD19C,2.154000*%
%ADD20R,2.200000X2.200000*%
%ADD21O,2.200000X2.200000*%
G04 APERTURE END LIST*
D10*
%TO.C,Safety Loop*%
X89500000Y-51900000D03*
%TD*%
D11*
%TO.C,J3*%
X50800000Y-99060000D03*
X50800000Y-96520000D03*
X50800000Y-93980000D03*
X50800000Y-91440000D03*
X50800000Y-88900000D03*
X50800000Y-86360000D03*
X50800000Y-83820000D03*
X50800000Y-81280000D03*
X50800000Y-78740000D03*
X50800000Y-76200000D03*
X50800000Y-73660000D03*
X50800000Y-71120000D03*
X50800000Y-68580000D03*
X50800000Y-66040000D03*
X50800000Y-63500000D03*
X50800000Y-60960000D03*
X50800000Y-58420000D03*
X50800000Y-55880000D03*
X50800000Y-53340000D03*
X50800000Y-50800000D03*
%TD*%
D12*
%TO.C,AMS RESET*%
X85019999Y-90070000D03*
D13*
X91520000Y-90070000D03*
X85019999Y-94570001D03*
X91520000Y-94570001D03*
%TD*%
D14*
%TO.C,K1*%
X58920000Y-65159999D03*
X58920000Y-76160000D03*
D15*
X56970000Y-97460000D03*
D16*
X64620000Y-97460000D03*
X72220000Y-97460000D03*
D15*
X79870000Y-97460000D03*
D14*
X77919998Y-76160000D03*
X77919998Y-65159999D03*
%TD*%
D17*
%TO.C,R2*%
X90300000Y-67530000D03*
D18*
X90300000Y-56100000D03*
%TD*%
D19*
%TO.C,J4*%
X57130000Y-55150000D03*
X57130000Y-60150000D03*
%TD*%
D10*
%TO.C,TP1*%
X88720000Y-97970000D03*
%TD*%
D17*
%TO.C,R1*%
X86600000Y-67530000D03*
D18*
X86600000Y-56100000D03*
%TD*%
D11*
%TO.C,J2*%
X94000000Y-99060000D03*
X94000000Y-96520000D03*
X94000000Y-93980000D03*
X94000000Y-91440000D03*
X94000000Y-88900000D03*
X94000000Y-86360000D03*
X94000000Y-83820000D03*
X94000000Y-81280000D03*
X94000000Y-78740000D03*
X94000000Y-76200000D03*
X94000000Y-73660000D03*
X94000000Y-71120000D03*
X94000000Y-68580000D03*
X94000000Y-66040000D03*
X94000000Y-63500000D03*
X94000000Y-60960000D03*
X94000000Y-58420000D03*
X94000000Y-55880000D03*
X94000000Y-53340000D03*
X94000000Y-50800000D03*
%TD*%
D20*
%TO.C,D3*%
X85920000Y-84790000D03*
D21*
X85920000Y-74630000D03*
%TD*%
M02*
