%TF.GenerationSoftware,KiCad,Pcbnew,8.0.8*%
%TF.CreationDate,2025-03-10T22:00:58-04:00*%
%TF.ProjectId,PWM Module 2.0,50574d20-4d6f-4647-956c-6520322e302e,rev?*%
%TF.SameCoordinates,Original*%
%TF.FileFunction,Copper,L1,Top*%
%TF.FilePolarity,Positive*%
%FSLAX46Y46*%
G04 Gerber Fmt 4.6, Leading zero omitted, Abs format (unit mm)*
G04 Created by KiCad (PCBNEW 8.0.8) date 2025-03-10 22:00:58*
%MOMM*%
%LPD*%
G01*
G04 APERTURE LIST*
%TA.AperFunction,SMDPad,CuDef*%
%ADD10R,0.508000X0.977900*%
%TD*%
%TA.AperFunction,SMDPad,CuDef*%
%ADD11R,1.270000X0.558800*%
%TD*%
%TA.AperFunction,SMDPad,CuDef*%
%ADD12R,0.855600X1.600000*%
%TD*%
%TA.AperFunction,ComponentPad*%
%ADD13C,1.950000*%
%TD*%
%TA.AperFunction,ComponentPad*%
%ADD14R,1.625600X1.625600*%
%TD*%
%TA.AperFunction,ComponentPad*%
%ADD15C,1.625600*%
%TD*%
%TA.AperFunction,ComponentPad*%
%ADD16C,1.524000*%
%TD*%
%TA.AperFunction,ComponentPad*%
%ADD17R,1.397000X1.397000*%
%TD*%
%TA.AperFunction,ComponentPad*%
%ADD18C,1.397000*%
%TD*%
%TA.AperFunction,SMDPad,CuDef*%
%ADD19R,1.524000X0.533400*%
%TD*%
%TA.AperFunction,ViaPad*%
%ADD20C,0.900000*%
%TD*%
%TA.AperFunction,ViaPad*%
%ADD21C,0.700000*%
%TD*%
%TA.AperFunction,Conductor*%
%ADD22C,0.400000*%
%TD*%
%TA.AperFunction,Conductor*%
%ADD23C,0.500000*%
%TD*%
%TA.AperFunction,Conductor*%
%ADD24C,0.200000*%
%TD*%
G04 APERTURE END LIST*
D10*
%TO.P,U7,1,VDD*%
%TO.N,12V+*%
X159841502Y-36169500D03*
%TO.P,U7,2,GND*%
%TO.N,GND*%
X158891501Y-36169500D03*
%TO.P,U7,3,IN+*%
%TO.N,Net-(U7-IN+)*%
X157941500Y-36169500D03*
%TO.P,U7,4,IN-*%
%TO.N,GND*%
X157941500Y-38900000D03*
%TO.P,U7,5,OUT*%
%TO.N,Net-(D4-K)*%
X159841502Y-38900000D03*
%TD*%
D11*
%TO.P,Q2,1,G*%
%TO.N,Net-(D2-A)*%
X169640000Y-43594998D03*
%TO.P,Q2,2,S*%
%TO.N,GND*%
X169640000Y-41765000D03*
%TO.P,Q2,3,D*%
%TO.N,Net-(J2-Pin_2)*%
X167709600Y-42679999D03*
%TD*%
D12*
%TO.P,C4,1*%
%TO.N,12V+*%
X166084398Y-38900000D03*
%TO.P,C4,2*%
%TO.N,GND*%
X169140000Y-38900000D03*
%TD*%
%TO.P,C2,1*%
%TO.N,12V+*%
X152913699Y-38900000D03*
%TO.P,C2,2*%
%TO.N,GND*%
X155969301Y-38900000D03*
%TD*%
D13*
%TO.P,J3,1,Pin_1*%
%TO.N,Net-(J3-Pin_1)*%
X187400000Y-62100000D03*
%TO.P,J3,2,Pin_2*%
%TO.N,Net-(J3-Pin_2)*%
X192400000Y-62100000D03*
%TD*%
D14*
%TO.P,D4,1,K*%
%TO.N,Net-(D4-K)*%
X159441500Y-53076000D03*
D15*
%TO.P,D4,2,A*%
%TO.N,Net-(D4-A)*%
X159441500Y-41900000D03*
%TD*%
D14*
%TO.P,D1,1,K*%
%TO.N,Net-(D1-K)*%
X185640000Y-52576000D03*
D15*
%TO.P,D1,2,A*%
%TO.N,Net-(D1-A)*%
X185640000Y-41400000D03*
%TD*%
D11*
%TO.P,Q3,1,G*%
%TO.N,Net-(D3-A)*%
X194640000Y-43729998D03*
%TO.P,Q3,2,S*%
%TO.N,GND*%
X194640000Y-41900000D03*
%TO.P,Q3,3,D*%
%TO.N,Net-(J3-Pin_2)*%
X192709600Y-42814999D03*
%TD*%
D16*
%TO.P,J5,1,1*%
%TO.N,5V+*%
X152400000Y-25400000D03*
%TO.P,J5,2,2*%
%TO.N,VPWM*%
X154940000Y-25400000D03*
%TO.P,J5,3,3*%
%TO.N,GND*%
X157480000Y-25400000D03*
%TO.P,J5,4,4*%
%TO.N,12V+*%
X160020000Y-25400000D03*
%TO.P,J5,5,5*%
%TO.N,unconnected-(J5-Pad5)*%
X162560000Y-25400000D03*
%TO.P,J5,6,6*%
%TO.N,N/C*%
X165100000Y-25400000D03*
%TO.P,J5,7,7*%
%TO.N,unconnected-(J5-Pad7)*%
X167640000Y-25400000D03*
%TO.P,J5,8,8*%
%TO.N,unconnected-(J5-Pad8)*%
X170180000Y-25400000D03*
%TO.P,J5,9,9*%
%TO.N,N/C*%
X172720000Y-25400000D03*
%TO.P,J5,10,10*%
X175260000Y-25400000D03*
%TO.P,J5,11,11*%
X177800000Y-25400000D03*
%TO.P,J5,12,12*%
%TO.N,unconnected-(J5-Pad12)*%
X180340000Y-25400000D03*
%TO.P,J5,13,13*%
%TO.N,unconnected-(J5-Pad13)*%
X182880000Y-25400000D03*
%TO.P,J5,14,14*%
%TO.N,unconnected-(J5-Pad14)*%
X185420000Y-25400000D03*
%TO.P,J5,15,15*%
%TO.N,unconnected-(J5-Pad15)*%
X187960000Y-25400000D03*
%TO.P,J5,16,16*%
%TO.N,unconnected-(J5-Pad16)*%
X190500000Y-25400000D03*
%TO.P,J5,17,17*%
%TO.N,unconnected-(J5-Pad17)*%
X193040000Y-25400000D03*
%TO.P,J5,18,18*%
%TO.N,unconnected-(J5-Pad18)*%
X195580000Y-25400000D03*
%TO.P,J5,19,19*%
%TO.N,unconnected-(J5-Pad19)*%
X198120000Y-25400000D03*
%TO.P,J5,20,20*%
%TO.N,unconnected-(J5-Pad20)*%
X200660000Y-25400000D03*
%TD*%
D17*
%TO.P,R5,1*%
%TO.N,5V+*%
X168965000Y-28750000D03*
D18*
%TO.P,R5,2*%
%TO.N,VPWM*%
X157535000Y-28750000D03*
%TD*%
D13*
%TO.P,J2,1,Pin_1*%
%TO.N,Net-(J2-Pin_1)*%
X159900000Y-62100000D03*
%TO.P,J2,2,Pin_2*%
%TO.N,Net-(J2-Pin_2)*%
X164900000Y-62100000D03*
%TD*%
D10*
%TO.P,U5,1,VDD*%
%TO.N,12V+*%
X198590001Y-36400000D03*
%TO.P,U5,2,GND*%
%TO.N,GND*%
X197640000Y-36400000D03*
%TO.P,U5,3,IN+*%
%TO.N,Net-(U5-IN+)*%
X196689999Y-36400000D03*
%TO.P,U5,4,IN-*%
%TO.N,GND*%
X196689999Y-39130500D03*
%TO.P,U5,5,OUT*%
%TO.N,Net-(D3-K)*%
X198590001Y-39130500D03*
%TD*%
D12*
%TO.P,C3,1*%
%TO.N,12V+*%
X166112199Y-36400000D03*
%TO.P,C3,2*%
%TO.N,GND*%
X169167801Y-36400000D03*
%TD*%
%TO.P,C5,1*%
%TO.N,12V+*%
X179084398Y-36400000D03*
%TO.P,C5,2*%
%TO.N,GND*%
X182140000Y-36400000D03*
%TD*%
%TO.P,C6,1*%
%TO.N,12V+*%
X179084398Y-38900000D03*
%TO.P,C6,2*%
%TO.N,GND*%
X182140000Y-38900000D03*
%TD*%
D11*
%TO.P,Q4,1,G*%
%TO.N,Net-(D4-A)*%
X156371900Y-43814999D03*
%TO.P,Q4,2,S*%
%TO.N,GND*%
X156371900Y-41985001D03*
%TO.P,Q4,3,D*%
%TO.N,Net-(J2-Pin_1)*%
X154441500Y-42900000D03*
%TD*%
D14*
%TO.P,D3,1,K*%
%TO.N,Net-(D3-K)*%
X197640000Y-52576000D03*
D15*
%TO.P,D3,2,A*%
%TO.N,Net-(D3-A)*%
X197640000Y-41400000D03*
%TD*%
D17*
%TO.P,R3,1*%
%TO.N,Net-(D3-K)*%
X194140000Y-57330000D03*
D18*
%TO.P,R3,2*%
%TO.N,Net-(D3-A)*%
X194140000Y-45900000D03*
%TD*%
D19*
%TO.P,U2,1,1*%
%TO.N,5V+*%
X187339000Y-34170000D03*
%TO.P,U2,2,2*%
%TO.N,unconnected-(U2-Pad2)*%
X187339000Y-32900000D03*
%TO.P,U2,3,3*%
%TO.N,GND*%
X187339000Y-31630000D03*
%TO.P,U2,4,4*%
X177941000Y-31630000D03*
%TO.P,U2,5,5*%
%TO.N,Net-(U1-IN+)*%
X177941000Y-32900000D03*
%TO.P,U2,6,6*%
%TO.N,12V+*%
X177941000Y-34170000D03*
%TD*%
D12*
%TO.P,C1,1*%
%TO.N,12V+*%
X152941500Y-36400000D03*
%TO.P,C1,2*%
%TO.N,GND*%
X155997102Y-36400000D03*
%TD*%
D19*
%TO.P,U6,1,1*%
%TO.N,5V+*%
X199839000Y-34170000D03*
%TO.P,U6,2,2*%
%TO.N,unconnected-(U6-Pad2)*%
X199839000Y-32900000D03*
%TO.P,U6,3,3*%
%TO.N,GND*%
X199839000Y-31630000D03*
%TO.P,U6,4,4*%
X190441000Y-31630000D03*
%TO.P,U6,5,5*%
%TO.N,Net-(U5-IN+)*%
X190441000Y-32900000D03*
%TO.P,U6,6,6*%
%TO.N,12V+*%
X190441000Y-34170000D03*
%TD*%
D12*
%TO.P,C7,1*%
%TO.N,12V+*%
X191084398Y-36400000D03*
%TO.P,C7,2*%
%TO.N,GND*%
X194140000Y-36400000D03*
%TD*%
D17*
%TO.P,R1,1*%
%TO.N,Net-(D1-K)*%
X182140000Y-56615000D03*
D18*
%TO.P,R1,2*%
%TO.N,Net-(D1-A)*%
X182140000Y-45185000D03*
%TD*%
D17*
%TO.P,R4,1*%
%TO.N,Net-(D4-K)*%
X155441500Y-58830000D03*
D18*
%TO.P,R4,2*%
%TO.N,Net-(D4-A)*%
X155441500Y-47400000D03*
%TD*%
D10*
%TO.P,U3,1,VDD*%
%TO.N,12V+*%
X172941500Y-36169500D03*
%TO.P,U3,2,GND*%
%TO.N,GND*%
X171991499Y-36169500D03*
%TO.P,U3,3,IN+*%
%TO.N,Net-(U3-IN+)*%
X171041498Y-36169500D03*
%TO.P,U3,4,IN-*%
%TO.N,GND*%
X171041498Y-38900000D03*
%TO.P,U3,5,OUT*%
%TO.N,Net-(D2-K)*%
X172941500Y-38900000D03*
%TD*%
D11*
%TO.P,Q1,1,G*%
%TO.N,Net-(D1-A)*%
X182140000Y-43229998D03*
%TO.P,Q1,2,S*%
%TO.N,GND*%
X182140000Y-41400000D03*
%TO.P,Q1,3,D*%
%TO.N,Net-(J3-Pin_1)*%
X180209600Y-42314999D03*
%TD*%
D17*
%TO.P,R2,1*%
%TO.N,Net-(D2-K)*%
X169140000Y-58115000D03*
D18*
%TO.P,R2,2*%
%TO.N,Net-(D2-A)*%
X169140000Y-46685000D03*
%TD*%
D19*
%TO.P,U8,1,1*%
%TO.N,5V+*%
X162140500Y-34170000D03*
%TO.P,U8,2,2*%
%TO.N,unconnected-(U8-Pad2)*%
X162140500Y-32900000D03*
%TO.P,U8,3,3*%
%TO.N,GND*%
X162140500Y-31630000D03*
%TO.P,U8,4,4*%
X152742500Y-31630000D03*
%TO.P,U8,5,5*%
%TO.N,Net-(U7-IN+)*%
X152742500Y-32900000D03*
%TO.P,U8,6,6*%
%TO.N,12V+*%
X152742500Y-34170000D03*
%TD*%
D10*
%TO.P,U1,1,VDD*%
%TO.N,12V+*%
X186040002Y-36169500D03*
%TO.P,U1,2,GND*%
%TO.N,GND*%
X185090001Y-36169500D03*
%TO.P,U1,3,IN+*%
%TO.N,Net-(U1-IN+)*%
X184140000Y-36169500D03*
%TO.P,U1,4,IN-*%
%TO.N,GND*%
X184140000Y-38900000D03*
%TO.P,U1,5,OUT*%
%TO.N,Net-(D1-K)*%
X186040002Y-38900000D03*
%TD*%
D14*
%TO.P,D2,1,K*%
%TO.N,Net-(D2-K)*%
X172640000Y-53289500D03*
D15*
%TO.P,D2,2,A*%
%TO.N,Net-(D2-A)*%
X172640000Y-42113500D03*
%TD*%
D19*
%TO.P,U4,1,1*%
%TO.N,5V+*%
X174441500Y-34170000D03*
%TO.P,U4,2,2*%
%TO.N,unconnected-(U4-Pad2)*%
X174441500Y-32900000D03*
%TO.P,U4,3,3*%
%TO.N,GND*%
X174441500Y-31630000D03*
%TO.P,U4,4,4*%
X165043500Y-31630000D03*
%TO.P,U4,5,5*%
%TO.N,Net-(U3-IN+)*%
X165043500Y-32900000D03*
%TO.P,U4,6,6*%
%TO.N,12V+*%
X165043500Y-34170000D03*
%TD*%
D16*
%TO.P,J5,1,1*%
%TO.N,N/C*%
X152400000Y-68580000D03*
%TO.P,J5,2,2*%
X154940000Y-68580000D03*
%TO.P,J5,3,3*%
X157480000Y-68580000D03*
%TO.P,J5,4,4*%
X160020000Y-68580000D03*
%TO.P,J5,5,5*%
X162560000Y-68580000D03*
%TO.P,J5,6,6*%
X165100000Y-68580000D03*
%TO.P,J5,7,7*%
X167640000Y-68580000D03*
%TO.P,J5,8,8*%
X170180000Y-68580000D03*
%TO.P,J5,9,9*%
X172720000Y-68580000D03*
%TO.P,J5,10,10*%
X175260000Y-68580000D03*
%TO.P,J5,11,11*%
X177800000Y-68580000D03*
%TO.P,J5,12,12*%
X180340000Y-68580000D03*
%TO.P,J5,13,13*%
X182880000Y-68580000D03*
%TO.P,J5,14,14*%
X185420000Y-68580000D03*
%TO.P,J5,15,15*%
X187960000Y-68580000D03*
%TO.P,J5,16,16*%
X190500000Y-68580000D03*
%TO.P,J5,17,17*%
X193040000Y-68580000D03*
%TO.P,J5,18,18*%
X195580000Y-68580000D03*
%TO.P,J5,19,19*%
X198120000Y-68580000D03*
%TO.P,J5,20,20*%
X200660000Y-68580000D03*
%TD*%
D12*
%TO.P,C8,1*%
%TO.N,12V+*%
X191084398Y-38900000D03*
%TO.P,C8,2*%
%TO.N,GND*%
X194140000Y-38900000D03*
%TD*%
D20*
%TO.N,GND*%
X167140000Y-33900000D03*
X195918959Y-32418959D03*
X171000000Y-32400000D03*
X183640000Y-32400000D03*
X158250000Y-32400000D03*
X153500000Y-27500000D03*
D21*
%TO.N,Net-(U1-VDD)*%
X193000000Y-34000000D03*
%TO.N,12V+*%
X191084398Y-40344398D03*
X166140000Y-40400000D03*
X187688850Y-35448850D03*
X152941500Y-40400000D03*
X174500000Y-37000000D03*
X161191500Y-37150000D03*
X179140000Y-40400000D03*
X199640000Y-36400000D03*
%TD*%
D22*
%TO.N,GND*%
X159020000Y-31630000D02*
X162140500Y-31630000D01*
X182140000Y-38900000D02*
X182140000Y-41400000D01*
X170230000Y-31630000D02*
X171000000Y-32400000D01*
X171991499Y-37949999D02*
X171041498Y-38900000D01*
X152742500Y-31630000D02*
X157480000Y-31630000D01*
X171991499Y-36169500D02*
X171991499Y-37949999D01*
X156371900Y-39774798D02*
X156371900Y-41985001D01*
X194370500Y-39130500D02*
X194140000Y-38900000D01*
X165043500Y-31630000D02*
X170230000Y-31630000D01*
X185090001Y-36169500D02*
X185090001Y-33850001D01*
X155997102Y-36400000D02*
X155997102Y-38872199D01*
X169140000Y-38900000D02*
X171041498Y-38900000D01*
X171991499Y-33391499D02*
X171000000Y-32400000D01*
D23*
X155380000Y-27500000D02*
X157480000Y-25400000D01*
D22*
X196707918Y-31630000D02*
X199839000Y-31630000D01*
X185090001Y-33850001D02*
X183640000Y-32400000D01*
X196689999Y-37850001D02*
X196689999Y-39130500D01*
X171991499Y-36169500D02*
X171991499Y-33391499D01*
X184410000Y-31630000D02*
X187339000Y-31630000D01*
X155969301Y-39372199D02*
X156371900Y-39774798D01*
X169167801Y-35927801D02*
X167140000Y-33900000D01*
X169167801Y-36400000D02*
X169167801Y-35927801D01*
X177941000Y-31630000D02*
X182870000Y-31630000D01*
X158891501Y-33041501D02*
X158250000Y-32400000D01*
X171770000Y-31630000D02*
X174441500Y-31630000D01*
X184140000Y-38900000D02*
X182140000Y-38900000D01*
X158250000Y-32400000D02*
X159020000Y-31630000D01*
X194640000Y-41900000D02*
X194640000Y-39400000D01*
X184140000Y-38900000D02*
X185090001Y-37949999D01*
X169140000Y-41265000D02*
X169640000Y-41765000D01*
X182140000Y-36400000D02*
X182140000Y-38900000D01*
X197640000Y-34140000D02*
X195918959Y-32418959D01*
X197640000Y-36400000D02*
X197640000Y-34140000D01*
D23*
X153500000Y-27500000D02*
X155380000Y-27500000D01*
D22*
X195918959Y-32418959D02*
X196707918Y-31630000D01*
X194140000Y-36400000D02*
X194140000Y-38900000D01*
X195918959Y-32418959D02*
X195130000Y-31630000D01*
X158891501Y-37949999D02*
X158891501Y-36169500D01*
X185090001Y-37949999D02*
X185090001Y-36169500D01*
X194640000Y-39400000D02*
X194140000Y-38900000D01*
X158891501Y-36169500D02*
X158891501Y-33041501D01*
X155969301Y-38900000D02*
X157941500Y-38900000D01*
X155997102Y-38872199D02*
X155969301Y-38900000D01*
X195130000Y-31630000D02*
X190441000Y-31630000D01*
X169167801Y-36400000D02*
X169167801Y-38872199D01*
X157480000Y-31630000D02*
X158250000Y-32400000D01*
X197640000Y-36900000D02*
X196689999Y-37850001D01*
X169140000Y-38900000D02*
X169140000Y-41265000D01*
X196689999Y-39130500D02*
X194370500Y-39130500D01*
X182870000Y-31630000D02*
X183640000Y-32400000D01*
X171000000Y-32400000D02*
X171770000Y-31630000D01*
X155969301Y-38900000D02*
X155969301Y-39372199D01*
X157941500Y-38900000D02*
X158891501Y-37949999D01*
X169167801Y-38872199D02*
X169140000Y-38900000D01*
X197640000Y-36400000D02*
X197640000Y-36900000D01*
X183640000Y-32400000D02*
X184410000Y-31630000D01*
D24*
%TO.N,Net-(D1-A)*%
X182140000Y-45185000D02*
X182140000Y-43229998D01*
X183810002Y-43229998D02*
X185640000Y-41400000D01*
X182140000Y-43229998D02*
X183810002Y-43229998D01*
%TO.N,Net-(D1-K)*%
X182140000Y-56615000D02*
X185640000Y-53115000D01*
X187640000Y-52400000D02*
X187464000Y-52576000D01*
X187640000Y-40499998D02*
X187640000Y-52400000D01*
X186040002Y-38900000D02*
X187640000Y-40499998D01*
X185640000Y-53115000D02*
X185640000Y-52576000D01*
X187464000Y-52576000D02*
X185640000Y-52576000D01*
%TO.N,Net-(D2-K)*%
X172640000Y-53289500D02*
X174140000Y-51789500D01*
X172941500Y-39701500D02*
X172941500Y-38900000D01*
X172640000Y-53289500D02*
X172640000Y-54615000D01*
X172640000Y-54615000D02*
X169140000Y-58115000D01*
X174140000Y-40900000D02*
X172941500Y-39701500D01*
X174140000Y-51789500D02*
X174140000Y-40900000D01*
%TO.N,Net-(D2-A)*%
X169640000Y-43594998D02*
X169640000Y-46185000D01*
X169640000Y-46185000D02*
X169140000Y-46685000D01*
X171158502Y-43594998D02*
X172640000Y-42113500D01*
X169640000Y-43594998D02*
X171158502Y-43594998D01*
%TO.N,Net-(D3-K)*%
X199140000Y-52900000D02*
X198816000Y-52576000D01*
X194140000Y-56076000D02*
X197640000Y-52576000D01*
X198816000Y-52576000D02*
X197640000Y-52576000D01*
X199640000Y-52900000D02*
X199140000Y-52900000D01*
X199640000Y-40180499D02*
X199640000Y-52900000D01*
X198590001Y-39130500D02*
X199640000Y-40180499D01*
X194140000Y-57330000D02*
X194140000Y-56076000D01*
%TO.N,Net-(D3-A)*%
X194640000Y-43729998D02*
X194640000Y-45400000D01*
X194640000Y-43729998D02*
X195310002Y-43729998D01*
X195310002Y-43729998D02*
X197640000Y-41400000D01*
X194640000Y-45400000D02*
X194140000Y-45900000D01*
%TO.N,Net-(D4-K)*%
X160941500Y-52900000D02*
X160765500Y-53076000D01*
X160765500Y-53076000D02*
X159441500Y-53076000D01*
X159841502Y-38900000D02*
X160941500Y-39999998D01*
X159441500Y-53076000D02*
X159441500Y-54830000D01*
X159441500Y-54830000D02*
X155441500Y-58830000D01*
X160941500Y-39999998D02*
X160941500Y-52900000D01*
%TO.N,Net-(D4-A)*%
X155441500Y-44745399D02*
X156371900Y-43814999D01*
X157526501Y-43814999D02*
X159441500Y-41900000D01*
X156371900Y-43814999D02*
X157526501Y-43814999D01*
X155441500Y-47400000D02*
X155441500Y-44745399D01*
D22*
%TO.N,Net-(J2-Pin_2)*%
X164900000Y-44140000D02*
X164900000Y-62100000D01*
X166360001Y-42679999D02*
X164900000Y-44140000D01*
X167709600Y-42679999D02*
X166360001Y-42679999D01*
%TO.N,Net-(J3-Pin_2)*%
X190725001Y-42814999D02*
X190725001Y-60425001D01*
X192709600Y-42814999D02*
X190725001Y-42814999D01*
X190725001Y-60425001D02*
X192400000Y-62100000D01*
%TO.N,Net-(J3-Pin_1)*%
X185428000Y-59716000D02*
X183425500Y-57713500D01*
X187400000Y-62100000D02*
X185428000Y-62100000D01*
X183425500Y-57713500D02*
X181041500Y-57713500D01*
X185428000Y-62100000D02*
X185428000Y-59716000D01*
X180209600Y-56881600D02*
X180209600Y-42314999D01*
X181041500Y-57713500D02*
X180209600Y-56881600D01*
D24*
%TO.N,Net-(U1-IN+)*%
X180870500Y-32900000D02*
X177941000Y-32900000D01*
X184140000Y-36169500D02*
X180870500Y-32900000D01*
%TO.N,Net-(U3-IN+)*%
X167771998Y-32900000D02*
X171041498Y-36169500D01*
X165043500Y-32900000D02*
X167771998Y-32900000D01*
%TO.N,Net-(U5-IN+)*%
X193189999Y-32900000D02*
X190441000Y-32900000D01*
X196689999Y-36400000D02*
X193189999Y-32900000D01*
%TO.N,Net-(U7-IN+)*%
X154672000Y-32900000D02*
X152742500Y-32900000D01*
X157941500Y-36169500D02*
X154672000Y-32900000D01*
D22*
%TO.N,Net-(J2-Pin_1)*%
X156514500Y-62100000D02*
X159900000Y-62100000D01*
X154343000Y-42998500D02*
X154343000Y-59928500D01*
X154343000Y-59928500D02*
X156514500Y-62100000D01*
X154441500Y-42900000D02*
X154343000Y-42998500D01*
%TO.N,5V+*%
X187830000Y-34170000D02*
X187339000Y-34170000D01*
X201001000Y-30963300D02*
X188501000Y-30963300D01*
X201140000Y-31102300D02*
X201140000Y-33364300D01*
X175603500Y-30963300D02*
X175603500Y-33646500D01*
X154463300Y-30963300D02*
X152400000Y-28900000D01*
X152400000Y-28900000D02*
X152400000Y-25400000D01*
X171750000Y-30963300D02*
X171178300Y-30963300D01*
X175603500Y-30963300D02*
X171750000Y-30963300D01*
X175080000Y-34170000D02*
X174441500Y-34170000D01*
X162635800Y-34170000D02*
X162140500Y-34170000D01*
X163881500Y-30963300D02*
X163640000Y-31204800D01*
X174441500Y-34170000D02*
X173946200Y-34170000D01*
X188501000Y-33499000D02*
X187830000Y-34170000D01*
X163640000Y-33165800D02*
X162635800Y-34170000D01*
X188501000Y-30963300D02*
X188501000Y-33499000D01*
X188501000Y-30963300D02*
X175603500Y-30963300D01*
X175603500Y-33646500D02*
X175080000Y-34170000D01*
X171178300Y-30963300D02*
X168965000Y-28750000D01*
X199839000Y-34170000D02*
X199410000Y-34170000D01*
X171750000Y-30963300D02*
X163881500Y-30963300D01*
X200334300Y-34170000D02*
X199839000Y-34170000D01*
X163640000Y-31204800D02*
X163640000Y-33165800D01*
X201140000Y-33364300D02*
X200334300Y-34170000D01*
X163881500Y-30963300D02*
X154463300Y-30963300D01*
X201140000Y-31102300D02*
X201001000Y-30963300D01*
%TO.N,12V+*%
X191084398Y-36400000D02*
X191084398Y-34813398D01*
X179084398Y-40344398D02*
X179140000Y-40400000D01*
X173669500Y-36169500D02*
X172941500Y-36169500D01*
X152742500Y-35701000D02*
X152742500Y-34170000D01*
X160211000Y-36169500D02*
X161191500Y-37150000D01*
X152913699Y-40372199D02*
X152941500Y-40400000D01*
X159841502Y-36169500D02*
X160211000Y-36169500D01*
X166112199Y-35238699D02*
X165043500Y-34170000D01*
X179084398Y-36400000D02*
X179084398Y-38900000D01*
X179084398Y-38900000D02*
X179084398Y-40344398D01*
X166140000Y-40400000D02*
X166084398Y-40344398D01*
X162063500Y-37150000D02*
X161191500Y-37150000D01*
X174500000Y-37000000D02*
X173669500Y-36169500D01*
X191084398Y-34813398D02*
X190441000Y-34170000D01*
X166084398Y-38900000D02*
X166084398Y-36427801D01*
X175111000Y-37000000D02*
X177941000Y-34170000D01*
X152913699Y-36927801D02*
X152913699Y-38900000D01*
X186968200Y-36169500D02*
X187688850Y-35448850D01*
X198590001Y-36400000D02*
X199640000Y-36400000D01*
X152941500Y-36400000D02*
X152941500Y-36900000D01*
X188967700Y-34170000D02*
X190441000Y-34170000D01*
X152941500Y-35900000D02*
X152742500Y-35701000D01*
X152941500Y-36900000D02*
X152913699Y-36927801D01*
X186040002Y-36169500D02*
X186968200Y-36169500D01*
X152913699Y-38900000D02*
X152913699Y-40372199D01*
X166112199Y-36400000D02*
X166112199Y-35238699D01*
X152941500Y-36400000D02*
X152941500Y-35900000D01*
X187688850Y-35448850D02*
X188967700Y-34170000D01*
X191084398Y-36400000D02*
X191084398Y-38900000D01*
X191084398Y-38900000D02*
X191084398Y-40344398D01*
X165043500Y-34170000D02*
X162063500Y-37150000D01*
X187688850Y-35448850D02*
X188401000Y-34736700D01*
X179084398Y-35313398D02*
X177941000Y-34170000D01*
X174500000Y-37000000D02*
X175111000Y-37000000D01*
X166084398Y-40344398D02*
X166084398Y-38900000D01*
X179084398Y-36400000D02*
X179084398Y-35313398D01*
X166084398Y-36427801D02*
X166112199Y-36400000D01*
%TD*%
M02*
