%TF.GenerationSoftware,KiCad,Pcbnew,8.0.7*%
%TF.CreationDate,2025-02-19T16:14:27-05:00*%
%TF.ProjectId,Precharge Module V2.1,50726563-6861-4726-9765-204d6f64756c,rev?*%
%TF.SameCoordinates,Original*%
%TF.FileFunction,Copper,L2,Bot*%
%TF.FilePolarity,Positive*%
%FSLAX46Y46*%
G04 Gerber Fmt 4.6, Leading zero omitted, Abs format (unit mm)*
G04 Created by KiCad (PCBNEW 8.0.7) date 2025-02-19 16:14:27*
%MOMM*%
%LPD*%
G01*
G04 APERTURE LIST*
%TA.AperFunction,ComponentPad*%
%ADD10R,1.397000X1.397000*%
%TD*%
%TA.AperFunction,ComponentPad*%
%ADD11C,1.397000*%
%TD*%
%TA.AperFunction,ComponentPad*%
%ADD12C,3.000000*%
%TD*%
%TA.AperFunction,ComponentPad*%
%ADD13C,1.750000*%
%TD*%
%TA.AperFunction,ViaPad*%
%ADD14C,1.100000*%
%TD*%
%TA.AperFunction,Conductor*%
%ADD15C,0.250000*%
%TD*%
%TA.AperFunction,Conductor*%
%ADD16C,0.500000*%
%TD*%
%TA.AperFunction,Conductor*%
%ADD17C,0.750000*%
%TD*%
G04 APERTURE END LIST*
D10*
X61250000Y-51000000D03*
D11*
X72680000Y-51000000D03*
D12*
X72250000Y-29500000D03*
D10*
X61250000Y-47250000D03*
D11*
X72680000Y-47250000D03*
D10*
X72500000Y-33285000D03*
D11*
X72500000Y-44715000D03*
D13*
X50800000Y-68580000D03*
X53340000Y-68580000D03*
X55880000Y-68580000D03*
X58420000Y-68580000D03*
X60960000Y-68580000D03*
X63500000Y-68580000D03*
X66040000Y-68580000D03*
X68580000Y-68580000D03*
X71120000Y-68580000D03*
X73660000Y-68580000D03*
X50800000Y-25400000D03*
X53340000Y-25400000D03*
X55880000Y-25400000D03*
X58420000Y-25400000D03*
X60960000Y-25400000D03*
X63500000Y-25400000D03*
X66040000Y-25400000D03*
X68580000Y-25400000D03*
X71120000Y-25400000D03*
X73660000Y-25400000D03*
D14*
X55500000Y-47000000D03*
X54000000Y-33500000D03*
X59000000Y-41500000D03*
X61000000Y-39000000D03*
X61000000Y-45500000D03*
X60750000Y-49000000D03*
X56500000Y-36250000D03*
X59750000Y-33250000D03*
D15*
X54000000Y-33500000D02*
X54000000Y-35000000D01*
D16*
X54000000Y-33500000D02*
X56500000Y-31000000D01*
D15*
X55500000Y-47000000D02*
X55500000Y-40750000D01*
D16*
X56500000Y-27320000D02*
X58420000Y-25400000D01*
X56500000Y-31000000D02*
X56500000Y-27320000D01*
D15*
X54000000Y-35000000D02*
X55500000Y-36500000D01*
X59000000Y-41500000D02*
X58250000Y-40750000D01*
X55500000Y-36500000D02*
X55500000Y-40750000D01*
X58250000Y-40750000D02*
X55500000Y-40750000D01*
X61000000Y-39000000D02*
X61000000Y-45500000D01*
X69750000Y-43697000D02*
X69750000Y-31250000D01*
X69750000Y-31250000D02*
X70000000Y-31000000D01*
X60750000Y-49000000D02*
X64447000Y-49000000D01*
X64447000Y-49000000D02*
X69750000Y-43697000D01*
X70750000Y-31000000D02*
X72250000Y-29500000D01*
X70000000Y-31000000D02*
X70750000Y-31000000D01*
X59750000Y-33250000D02*
X56750000Y-36250000D01*
X56750000Y-36250000D02*
X56500000Y-36250000D01*
D17*
X50500000Y-49500000D02*
X50500000Y-30780000D01*
X52000000Y-51000000D02*
X50500000Y-49500000D01*
X52000000Y-51000000D02*
X61250000Y-51000000D01*
X55880000Y-25400000D02*
X50500000Y-30780000D01*
M02*
