%TF.GenerationSoftware,KiCad,Pcbnew,8.0.7*%
%TF.CreationDate,2025-02-19T16:14:27-05:00*%
%TF.ProjectId,Precharge Module V2.1,50726563-6861-4726-9765-204d6f64756c,rev?*%
%TF.SameCoordinates,Original*%
%TF.FileFunction,Copper,L1,Top*%
%TF.FilePolarity,Positive*%
%FSLAX46Y46*%
G04 Gerber Fmt 4.6, Leading zero omitted, Abs format (unit mm)*
G04 Created by KiCad (PCBNEW 8.0.7) date 2025-02-19 16:14:27*
%MOMM*%
%LPD*%
G01*
G04 APERTURE LIST*
%TA.AperFunction,SMDPad,CuDef*%
%ADD10R,1.600200X0.863600*%
%TD*%
%TA.AperFunction,SMDPad,CuDef*%
%ADD11R,0.660400X0.279400*%
%TD*%
%TA.AperFunction,SMDPad,CuDef*%
%ADD12R,0.660400X0.381000*%
%TD*%
%TA.AperFunction,ComponentPad*%
%ADD13R,1.397000X1.397000*%
%TD*%
%TA.AperFunction,ComponentPad*%
%ADD14C,1.397000*%
%TD*%
%TA.AperFunction,SMDPad,CuDef*%
%ADD15R,0.558800X0.863600*%
%TD*%
%TA.AperFunction,ComponentPad*%
%ADD16C,3.000000*%
%TD*%
%TA.AperFunction,SMDPad,CuDef*%
%ADD17R,1.219200X0.558800*%
%TD*%
%TA.AperFunction,SMDPad,CuDef*%
%ADD18R,0.711200X0.939800*%
%TD*%
%TA.AperFunction,SMDPad,CuDef*%
%ADD19R,2.500000X0.955600*%
%TD*%
%TA.AperFunction,SMDPad,CuDef*%
%ADD20R,0.863600X0.558800*%
%TD*%
%TA.AperFunction,SMDPad,CuDef*%
%ADD21R,1.193800X1.016000*%
%TD*%
%TA.AperFunction,SMDPad,CuDef*%
%ADD22R,0.855600X1.600000*%
%TD*%
%TA.AperFunction,ComponentPad*%
%ADD23C,1.750000*%
%TD*%
%TA.AperFunction,SMDPad,CuDef*%
%ADD24R,0.812800X1.346200*%
%TD*%
%TA.AperFunction,ViaPad*%
%ADD25C,1.100000*%
%TD*%
%TA.AperFunction,Conductor*%
%ADD26C,0.250000*%
%TD*%
%TA.AperFunction,Conductor*%
%ADD27C,0.500000*%
%TD*%
%TA.AperFunction,Conductor*%
%ADD28C,0.750000*%
%TD*%
%TA.AperFunction,Conductor*%
%ADD29C,0.200000*%
%TD*%
G04 APERTURE END LIST*
D10*
X55750000Y-49202000D03*
X55750000Y-52250000D03*
D11*
X62000000Y-36699900D03*
X62000000Y-37500000D03*
D12*
X62990600Y-37099950D03*
D13*
X61250000Y-51000000D03*
D14*
X72680000Y-51000000D03*
D15*
X51297500Y-50637600D03*
X53202500Y-50637600D03*
X52250000Y-48250000D03*
D16*
X72250000Y-29500000D03*
D17*
X62433200Y-30369000D03*
X62433200Y-32274000D03*
X64566800Y-31321500D03*
D18*
X64647000Y-39250000D03*
X63250000Y-39250000D03*
D19*
X67750000Y-34227801D03*
X67750000Y-31272199D03*
D20*
X62387600Y-43452500D03*
X62387600Y-41547500D03*
X60000000Y-42500000D03*
D10*
X66750000Y-39274000D03*
X66750000Y-36226000D03*
D21*
X58500000Y-47548200D03*
X58500000Y-49250000D03*
D13*
X61250000Y-47250000D03*
D14*
X72680000Y-47250000D03*
D22*
X53972199Y-41500000D03*
X57027801Y-41500000D03*
X59027801Y-45000000D03*
X55972199Y-45000000D03*
D18*
X58103000Y-30500000D03*
X59500000Y-30500000D03*
D13*
X72500000Y-33285000D03*
D14*
X72500000Y-44715000D03*
D18*
X62103000Y-34250000D03*
X63500000Y-34250000D03*
D23*
X50800000Y-68580000D03*
X53340000Y-68580000D03*
X55880000Y-68580000D03*
X58420000Y-68580000D03*
X60960000Y-68580000D03*
X63500000Y-68580000D03*
X66040000Y-68580000D03*
X68580000Y-68580000D03*
X71120000Y-68580000D03*
X73660000Y-68580000D03*
%TA.AperFunction,SMDPad,CuDef*%
G36*
G01*
X53045000Y-35320000D02*
X53045000Y-34870000D01*
G75*
G02*
X53120000Y-34795000I75000J0D01*
G01*
X54940000Y-34795000D01*
G75*
G02*
X55015000Y-34870000I0J-75000D01*
G01*
X55015000Y-35320000D01*
G75*
G02*
X54940000Y-35395000I-75000J0D01*
G01*
X53120000Y-35395000D01*
G75*
G02*
X53045000Y-35320000I0J75000D01*
G01*
G37*
%TD.AperFunction*%
%TA.AperFunction,SMDPad,CuDef*%
G36*
G01*
X53045000Y-36590000D02*
X53045000Y-36140000D01*
G75*
G02*
X53120000Y-36065000I75000J0D01*
G01*
X54940000Y-36065000D01*
G75*
G02*
X55015000Y-36140000I0J-75000D01*
G01*
X55015000Y-36590000D01*
G75*
G02*
X54940000Y-36665000I-75000J0D01*
G01*
X53120000Y-36665000D01*
G75*
G02*
X53045000Y-36590000I0J75000D01*
G01*
G37*
%TD.AperFunction*%
%TA.AperFunction,SMDPad,CuDef*%
G36*
G01*
X53045000Y-37860000D02*
X53045000Y-37410000D01*
G75*
G02*
X53120000Y-37335000I75000J0D01*
G01*
X54940000Y-37335000D01*
G75*
G02*
X55015000Y-37410000I0J-75000D01*
G01*
X55015000Y-37860000D01*
G75*
G02*
X54940000Y-37935000I-75000J0D01*
G01*
X53120000Y-37935000D01*
G75*
G02*
X53045000Y-37860000I0J75000D01*
G01*
G37*
%TD.AperFunction*%
%TA.AperFunction,SMDPad,CuDef*%
G36*
G01*
X53045000Y-39130000D02*
X53045000Y-38680000D01*
G75*
G02*
X53120000Y-38605000I75000J0D01*
G01*
X54940000Y-38605000D01*
G75*
G02*
X55015000Y-38680000I0J-75000D01*
G01*
X55015000Y-39130000D01*
G75*
G02*
X54940000Y-39205000I-75000J0D01*
G01*
X53120000Y-39205000D01*
G75*
G02*
X53045000Y-39130000I0J75000D01*
G01*
G37*
%TD.AperFunction*%
%TA.AperFunction,SMDPad,CuDef*%
G36*
G01*
X57985000Y-39130000D02*
X57985000Y-38680000D01*
G75*
G02*
X58060000Y-38605000I75000J0D01*
G01*
X59880000Y-38605000D01*
G75*
G02*
X59955000Y-38680000I0J-75000D01*
G01*
X59955000Y-39130000D01*
G75*
G02*
X59880000Y-39205000I-75000J0D01*
G01*
X58060000Y-39205000D01*
G75*
G02*
X57985000Y-39130000I0J75000D01*
G01*
G37*
%TD.AperFunction*%
%TA.AperFunction,SMDPad,CuDef*%
G36*
G01*
X57985000Y-37860000D02*
X57985000Y-37410000D01*
G75*
G02*
X58060000Y-37335000I75000J0D01*
G01*
X59880000Y-37335000D01*
G75*
G02*
X59955000Y-37410000I0J-75000D01*
G01*
X59955000Y-37860000D01*
G75*
G02*
X59880000Y-37935000I-75000J0D01*
G01*
X58060000Y-37935000D01*
G75*
G02*
X57985000Y-37860000I0J75000D01*
G01*
G37*
%TD.AperFunction*%
%TA.AperFunction,SMDPad,CuDef*%
G36*
G01*
X57985000Y-36590000D02*
X57985000Y-36140000D01*
G75*
G02*
X58060000Y-36065000I75000J0D01*
G01*
X59880000Y-36065000D01*
G75*
G02*
X59955000Y-36140000I0J-75000D01*
G01*
X59955000Y-36590000D01*
G75*
G02*
X59880000Y-36665000I-75000J0D01*
G01*
X58060000Y-36665000D01*
G75*
G02*
X57985000Y-36590000I0J75000D01*
G01*
G37*
%TD.AperFunction*%
%TA.AperFunction,SMDPad,CuDef*%
G36*
G01*
X57985000Y-35320000D02*
X57985000Y-34870000D01*
G75*
G02*
X58060000Y-34795000I75000J0D01*
G01*
X59880000Y-34795000D01*
G75*
G02*
X59955000Y-34870000I0J-75000D01*
G01*
X59955000Y-35320000D01*
G75*
G02*
X59880000Y-35395000I-75000J0D01*
G01*
X58060000Y-35395000D01*
G75*
G02*
X57985000Y-35320000I0J75000D01*
G01*
G37*
%TD.AperFunction*%
D24*
X56348300Y-32500000D03*
X58151700Y-32500000D03*
D23*
X50800000Y-25400000D03*
X53340000Y-25400000D03*
X55880000Y-25400000D03*
X58420000Y-25400000D03*
X60960000Y-25400000D03*
X63500000Y-25400000D03*
X66040000Y-25400000D03*
X68580000Y-25400000D03*
X71120000Y-25400000D03*
X73660000Y-25400000D03*
D20*
X51750000Y-43845000D03*
X51750000Y-45750000D03*
X54137600Y-44797500D03*
D25*
X55500000Y-47000000D03*
X54000000Y-33500000D03*
X59000000Y-41500000D03*
X61000000Y-39000000D03*
X61000000Y-45500000D03*
X60750000Y-49000000D03*
X56500000Y-36250000D03*
X59750000Y-33250000D03*
D26*
X58500000Y-47548200D02*
X57653100Y-47548200D01*
X59794900Y-47250000D02*
X59496700Y-47548200D01*
X58420000Y-27420000D02*
X58420000Y-25400000D01*
X67700699Y-31321500D02*
X67750000Y-31272199D01*
X64566800Y-31321500D02*
X64566800Y-30792100D01*
X63250000Y-39250000D02*
X63250000Y-41946300D01*
X55769699Y-44797500D02*
X55972199Y-45000000D01*
X63250000Y-41946300D02*
X62696300Y-42500000D01*
X64566800Y-30792100D02*
X63524700Y-29750000D01*
X63524700Y-29750000D02*
X60750000Y-29750000D01*
X59000000Y-41500000D02*
X60000000Y-42500000D01*
X55500000Y-45472199D02*
X55972199Y-45000000D01*
X57653100Y-47548200D02*
X55972199Y-45867299D01*
X54000000Y-35065000D02*
X54030000Y-35095000D01*
X62696300Y-42500000D02*
X60000000Y-42500000D01*
X61250000Y-47250000D02*
X59794900Y-47250000D01*
X64566800Y-31321500D02*
X67700699Y-31321500D01*
X55972199Y-45867299D02*
X55972199Y-45000000D01*
D27*
X54000000Y-33500000D02*
X54000000Y-35065000D01*
D26*
X54137600Y-44797500D02*
X55769699Y-44797500D01*
X57027801Y-41500000D02*
X59000000Y-41500000D01*
X55500000Y-47000000D02*
X55500000Y-45472199D01*
X60750000Y-29750000D02*
X58420000Y-27420000D01*
X59496700Y-47548200D02*
X58500000Y-47548200D01*
X60500000Y-45000000D02*
X61000000Y-45500000D01*
X59027801Y-45000000D02*
X60500000Y-45000000D01*
X60905000Y-38905000D02*
X61000000Y-39000000D01*
X58970000Y-38905000D02*
X60905000Y-38905000D01*
D27*
X54030000Y-38905000D02*
X53105000Y-38905000D01*
X53250000Y-30250000D02*
X54098300Y-30250000D01*
X54030000Y-41442199D02*
X53972199Y-41500000D01*
X54098300Y-30250000D02*
X56348300Y-32500000D01*
X51700000Y-37500000D02*
X51700000Y-31800000D01*
X54030000Y-38905000D02*
X54030000Y-41442199D01*
X51700000Y-31800000D02*
X53250000Y-30250000D01*
X53105000Y-38905000D02*
X51700000Y-37500000D01*
D26*
X66726000Y-39250000D02*
X66750000Y-39274000D01*
X64647000Y-39250000D02*
X66726000Y-39250000D01*
X62000000Y-40000000D02*
X62000000Y-38250000D01*
X56000000Y-38620001D02*
X56000000Y-40000000D01*
X54030000Y-37635000D02*
X55014999Y-37635000D01*
X62000000Y-40500000D02*
X62387600Y-40887600D01*
X62000000Y-40000000D02*
X62000000Y-40500000D01*
X55014999Y-37635000D02*
X56000000Y-38620001D01*
X62250000Y-38000000D02*
X62000000Y-38250000D01*
X66750000Y-36226000D02*
X65699900Y-36226000D01*
X65250000Y-36675900D02*
X65250000Y-38000000D01*
X56000000Y-40000000D02*
X62000000Y-40000000D01*
X62387600Y-40887600D02*
X62387600Y-41547500D01*
X65699900Y-36226000D02*
X65250000Y-36675900D01*
X65250000Y-38000000D02*
X62250000Y-38000000D01*
X62000000Y-38250000D02*
X62000000Y-37500000D01*
X54875700Y-50875700D02*
X54875700Y-51819178D01*
X52250000Y-48250000D02*
X54875700Y-50875700D01*
X65060000Y-29500000D02*
X60960000Y-25400000D01*
X57500000Y-52250000D02*
X60750000Y-49000000D01*
X55750000Y-52250000D02*
X57500000Y-52250000D01*
X72250000Y-29500000D02*
X65060000Y-29500000D01*
X55306522Y-52250000D02*
X55750000Y-52250000D01*
X54875700Y-51819178D02*
X55306522Y-52250000D01*
X58452000Y-49202000D02*
X58500000Y-49250000D01*
X55750000Y-49202000D02*
X58452000Y-49202000D01*
X50250000Y-25950000D02*
X50800000Y-25400000D01*
X51297500Y-47047500D02*
X50250000Y-46000000D01*
X50250000Y-46000000D02*
X50250000Y-25950000D01*
X51297500Y-50637600D02*
X51297500Y-47047500D01*
X53340000Y-25400000D02*
X50750000Y-27990000D01*
X50750000Y-27990000D02*
X50750000Y-42845000D01*
X50750000Y-42845000D02*
X51750000Y-43845000D01*
X74138000Y-49542000D02*
X74138000Y-32000000D01*
X62433200Y-32274000D02*
X63500000Y-33340800D01*
X63500000Y-33340800D02*
X63500000Y-34250000D01*
X67750000Y-34227801D02*
X63522199Y-34227801D01*
X63522199Y-34227801D02*
X63500000Y-34250000D01*
X74138000Y-32000000D02*
X70825179Y-32000000D01*
X68597378Y-34227801D02*
X67750000Y-34227801D01*
X70825179Y-32000000D02*
X68597378Y-34227801D01*
X72680000Y-51000000D02*
X74138000Y-49542000D01*
X62433200Y-30369000D02*
X59631000Y-30369000D01*
X59631000Y-30369000D02*
X59500000Y-30500000D01*
X54250000Y-52531900D02*
X54250000Y-53500000D01*
X54250000Y-53500000D02*
X67500000Y-53500000D01*
X72680000Y-47250000D02*
X72680000Y-44895000D01*
X53202500Y-50637600D02*
X53202500Y-51484400D01*
X67500000Y-53500000D02*
X72680000Y-48320000D01*
X53202500Y-51484400D02*
X54250000Y-52531900D01*
X72680000Y-44895000D02*
X72500000Y-44715000D01*
X72680000Y-48320000D02*
X72680000Y-47250000D01*
X60750000Y-34250000D02*
X62103000Y-34250000D01*
X56284999Y-37635000D02*
X58970000Y-37635000D01*
X56500000Y-36250000D02*
X56500000Y-37419999D01*
X59750000Y-33250000D02*
X60750000Y-34250000D01*
X54030000Y-36365000D02*
X55014999Y-36365000D01*
X56500000Y-37419999D02*
X56284999Y-37635000D01*
X55014999Y-36365000D02*
X56284999Y-37635000D01*
D28*
X58151700Y-32500000D02*
X58151700Y-34276700D01*
X58151700Y-34276700D02*
X58970000Y-35095000D01*
X58103000Y-29603000D02*
X58103000Y-30500000D01*
X55880000Y-27380000D02*
X58103000Y-29603000D01*
X60395100Y-35095000D02*
X62000000Y-36699900D01*
D29*
X58970000Y-32530000D02*
X59000000Y-32500000D01*
D28*
X55880000Y-25400000D02*
X55880000Y-27380000D01*
X58103000Y-30500000D02*
X58103000Y-32451300D01*
X58970000Y-35095000D02*
X60395100Y-35095000D01*
X58103000Y-32451300D02*
X58151700Y-32500000D01*
D26*
X62990600Y-37099950D02*
X64840550Y-35250000D01*
X54047500Y-43452500D02*
X62387600Y-43452500D01*
X68250000Y-40500000D02*
X64000000Y-40500000D01*
X51750000Y-45750000D02*
X54047500Y-43452500D01*
X64000000Y-40500000D02*
X64000000Y-41840100D01*
X69500000Y-35250000D02*
X68250000Y-35250000D01*
X64000000Y-41840100D02*
X62387600Y-43452500D01*
X71465000Y-33285000D02*
X69500000Y-35250000D01*
X68250000Y-35250000D02*
X68250000Y-40500000D01*
X64840550Y-35250000D02*
X68250000Y-35250000D01*
X72500000Y-33285000D02*
X71465000Y-33285000D01*
X72500000Y-32785000D02*
X71965000Y-32785000D01*
M02*
