M48
; DRILL file {KiCad 8.0.8} date 2025-02-16T23:43:49-0500
; FORMAT={-:-/ absolute / inch / decimal}
; #@! TF.CreationDate,2025-02-16T23:43:49-05:00
; #@! TF.GenerationSoftware,Kicad,Pcbnew,8.0.8
; #@! TF.FileFunction,Plated,1,2,PTH
FMAT,2
INCH
; #@! TA.AperFunction,Plated,PTH,ViaDrill
T1C0.0157
; #@! TA.AperFunction,Plated,PTH,ComponentDrill
T2C0.0350
; #@! TA.AperFunction,Plated,PTH,ComponentDrill
T3C0.0402
; #@! TA.AperFunction,Plated,PTH,ComponentDrill
T4C0.0630
%
G90
G05
T1
X2.0669Y-1.3189
X2.185Y-1.8504
X2.2244Y-1.4272
X2.313Y-1.6043
X2.3524Y-1.3091
X2.3917Y-1.9291
X2.4016Y-1.5354
X2.4016Y-1.7717
T2
X2.4114Y-1.8602
X2.4114Y-2.0079
X2.8543Y-1.3104
X2.8543Y-1.7604
X2.8614Y-1.8602
X2.8614Y-2.0079
T3
X2.0Y-1.0
X2.0Y-2.7
X2.1Y-1.0
X2.1Y-2.7
X2.2Y-1.0
X2.2Y-2.7
X2.3Y-1.0
X2.3Y-2.7
X2.4Y-1.0
X2.4Y-2.7
X2.5Y-1.0
X2.5Y-2.7
X2.6Y-1.0
X2.6Y-2.7
X2.7Y-1.0
X2.7Y-2.7
X2.8Y-1.0
X2.8Y-2.7
X2.9Y-1.0
X2.9Y-2.7
T4
X2.8445Y-1.1614
M30
