%TF.GenerationSoftware,KiCad,Pcbnew,8.0.8*%
%TF.CreationDate,2025-02-16T23:43:51-05:00*%
%TF.ProjectId,Precharge Module V2.1,50726563-6861-4726-9765-204d6f64756c,rev?*%
%TF.SameCoordinates,Original*%
%TF.FileFunction,Copper,L1,Top*%
%TF.FilePolarity,Positive*%
%FSLAX46Y46*%
G04 Gerber Fmt 4.6, Leading zero omitted, Abs format (unit mm)*
G04 Created by KiCad (PCBNEW 8.0.8) date 2025-02-16 23:43:51*
%MOMM*%
%LPD*%
G01*
G04 APERTURE LIST*
G04 Aperture macros list*
%AMRoundRect*
0 Rectangle with rounded corners*
0 $1 Rounding radius*
0 $2 $3 $4 $5 $6 $7 $8 $9 X,Y pos of 4 corners*
0 Add a 4 corners polygon primitive as box body*
4,1,4,$2,$3,$4,$5,$6,$7,$8,$9,$2,$3,0*
0 Add four circle primitives for the rounded corners*
1,1,$1+$1,$2,$3*
1,1,$1+$1,$4,$5*
1,1,$1+$1,$6,$7*
1,1,$1+$1,$8,$9*
0 Add four rect primitives between the rounded corners*
20,1,$1+$1,$2,$3,$4,$5,0*
20,1,$1+$1,$4,$5,$6,$7,0*
20,1,$1+$1,$6,$7,$8,$9,0*
20,1,$1+$1,$8,$9,$2,$3,0*%
G04 Aperture macros list end*
%TA.AperFunction,SMDPad,CuDef*%
%ADD10R,1.600200X0.863600*%
%TD*%
%TA.AperFunction,SMDPad,CuDef*%
%ADD11R,0.660400X0.279400*%
%TD*%
%TA.AperFunction,SMDPad,CuDef*%
%ADD12R,0.660400X0.381000*%
%TD*%
%TA.AperFunction,ComponentPad*%
%ADD13R,1.397000X1.397000*%
%TD*%
%TA.AperFunction,ComponentPad*%
%ADD14C,1.397000*%
%TD*%
%TA.AperFunction,SMDPad,CuDef*%
%ADD15R,0.558800X0.863600*%
%TD*%
%TA.AperFunction,ComponentPad*%
%ADD16C,3.000000*%
%TD*%
%TA.AperFunction,SMDPad,CuDef*%
%ADD17R,1.219200X0.558800*%
%TD*%
%TA.AperFunction,SMDPad,CuDef*%
%ADD18R,0.711200X0.939800*%
%TD*%
%TA.AperFunction,SMDPad,CuDef*%
%ADD19R,2.500000X0.955600*%
%TD*%
%TA.AperFunction,SMDPad,CuDef*%
%ADD20R,0.863600X0.558800*%
%TD*%
%TA.AperFunction,SMDPad,CuDef*%
%ADD21R,1.193800X1.016000*%
%TD*%
%TA.AperFunction,SMDPad,CuDef*%
%ADD22R,0.855600X1.600000*%
%TD*%
%TA.AperFunction,ComponentPad*%
%ADD23C,1.750000*%
%TD*%
%TA.AperFunction,SMDPad,CuDef*%
%ADD24RoundRect,0.075000X-0.910000X-0.225000X0.910000X-0.225000X0.910000X0.225000X-0.910000X0.225000X0*%
%TD*%
%TA.AperFunction,SMDPad,CuDef*%
%ADD25R,0.812800X1.346200*%
%TD*%
%TA.AperFunction,ViaPad*%
%ADD26C,0.800000*%
%TD*%
%TA.AperFunction,Conductor*%
%ADD27C,0.250000*%
%TD*%
%TA.AperFunction,Conductor*%
%ADD28C,0.500000*%
%TD*%
%TA.AperFunction,Conductor*%
%ADD29C,0.750000*%
%TD*%
%TA.AperFunction,Conductor*%
%ADD30C,0.200000*%
%TD*%
G04 APERTURE END LIST*
D10*
%TO.P,D3,1,K*%
%TO.N,Net-(D3-K)*%
X55750000Y-49202000D03*
%TO.P,D3,2,A*%
%TO.N,Net-(D3-A)*%
X55750000Y-52250000D03*
%TD*%
D11*
%TO.P,Q4,1,D*%
%TO.N,Net-(Q4-D)*%
X62000000Y-36699900D03*
%TO.P,Q4,2,G*%
%TO.N,Net-(D2-A)*%
X62000000Y-37500000D03*
D12*
%TO.P,Q4,3,S*%
%TO.N,Net-(Q3-G)*%
X62990600Y-37099950D03*
%TD*%
D13*
%TO.P,R6,1*%
%TO.N,Net-(Q4-D)*%
X61250000Y-51000000D03*
D14*
%TO.P,R6,2*%
%TO.N,Net-(Q1-E)*%
X72680000Y-51000000D03*
%TD*%
D15*
%TO.P,Q2,1,D*%
%TO.N,Net-(Q2-D)*%
X51297500Y-50637600D03*
%TO.P,Q2,2,G*%
%TO.N,Net-(Q2-G)*%
X53202500Y-50637600D03*
%TO.P,Q2,3,S*%
%TO.N,Net-(D3-A)*%
X52250000Y-48250000D03*
%TD*%
D16*
%TO.P,PC COIL -,1,1*%
%TO.N,Net-(D3-A)*%
X72250000Y-29500000D03*
%TD*%
D17*
%TO.P,Q1,1,B*%
%TO.N,Net-(Q1-B)*%
X62433200Y-30369000D03*
%TO.P,Q1,2,E*%
%TO.N,Net-(Q1-E)*%
X62433200Y-32274000D03*
%TO.P,Q1,3,C*%
%TO.N,Net-(Q1-C)*%
X64566800Y-31321500D03*
%TD*%
D18*
%TO.P,R3,1*%
%TO.N,Net-(D2-K)*%
X64647000Y-39250000D03*
%TO.P,R3,2*%
%TO.N,Net-(Q1-C)*%
X63250000Y-39250000D03*
%TD*%
D19*
%TO.P,C3,1*%
%TO.N,Net-(Q1-E)*%
X67750000Y-34227801D03*
%TO.P,C3,2*%
%TO.N,Net-(Q1-C)*%
X67750000Y-31272199D03*
%TD*%
D20*
%TO.P,Q5,1,D*%
%TO.N,Net-(Q3-G)*%
X62387600Y-43452500D03*
%TO.P,Q5,2,G*%
%TO.N,Net-(D2-A)*%
X62387600Y-41547500D03*
%TO.P,Q5,3,S*%
%TO.N,Net-(Q1-C)*%
X60000000Y-42500000D03*
%TD*%
D10*
%TO.P,D2,1,K*%
%TO.N,Net-(D2-K)*%
X66750000Y-39274000D03*
%TO.P,D2,2,A*%
%TO.N,Net-(D2-A)*%
X66750000Y-36226000D03*
%TD*%
D21*
%TO.P,R9,1*%
%TO.N,Net-(Q1-C)*%
X58500000Y-47548200D03*
%TO.P,R9,2*%
%TO.N,Net-(D3-K)*%
X58500000Y-49250000D03*
%TD*%
D13*
%TO.P,R8,1*%
%TO.N,Net-(Q1-C)*%
X61250000Y-47250000D03*
D14*
%TO.P,R8,2*%
%TO.N,Net-(Q2-G)*%
X72680000Y-47250000D03*
%TD*%
D22*
%TO.P,C1,1*%
%TO.N,Net-(U1-R)*%
X53972199Y-41500000D03*
%TO.P,C1,2*%
%TO.N,Net-(Q1-C)*%
X57027801Y-41500000D03*
%TD*%
%TO.P,C2,1*%
%TO.N,Net-(U1-CV)*%
X59027801Y-45000000D03*
%TO.P,C2,2*%
%TO.N,Net-(Q1-C)*%
X55972199Y-45000000D03*
%TD*%
D18*
%TO.P,R5,1*%
%TO.N,Net-(Q4-D)*%
X58103000Y-30500000D03*
%TO.P,R5,2*%
%TO.N,Net-(Q1-B)*%
X59500000Y-30500000D03*
%TD*%
D13*
%TO.P,R7,1*%
%TO.N,Net-(Q3-G)*%
X72500000Y-33285000D03*
D14*
%TO.P,R7,2*%
%TO.N,Net-(Q2-G)*%
X72500000Y-44715000D03*
%TD*%
D18*
%TO.P,R4,1*%
%TO.N,Net-(U1-THR)*%
X62103000Y-34250000D03*
%TO.P,R4,2*%
%TO.N,Net-(Q1-E)*%
X63500000Y-34250000D03*
%TD*%
D23*
%TO.P,J2,1,1*%
%TO.N,N/C*%
X50800000Y-68580000D03*
%TO.P,J2,2,2*%
X53340000Y-68580000D03*
%TO.P,J2,3,3*%
X55880000Y-68580000D03*
%TO.P,J2,4,4*%
X58420000Y-68580000D03*
%TO.P,J2,5,5*%
X60960000Y-68580000D03*
%TO.P,J2,6,6*%
X63500000Y-68580000D03*
%TO.P,J2,7,7*%
X66040000Y-68580000D03*
%TO.P,J2,8,8*%
X68580000Y-68580000D03*
%TO.P,J2,9,9*%
X71120000Y-68580000D03*
%TO.P,J2,10,10*%
X73660000Y-68580000D03*
%TD*%
D24*
%TO.P,U1,1,GND*%
%TO.N,Net-(Q1-C)*%
X54030000Y-35095000D03*
%TO.P,U1,2,TR*%
%TO.N,Net-(U1-THR)*%
X54030000Y-36365000D03*
%TO.P,U1,3,Q*%
%TO.N,Net-(D2-A)*%
X54030000Y-37635000D03*
%TO.P,U1,4,R*%
%TO.N,Net-(U1-R)*%
X54030000Y-38905000D03*
%TO.P,U1,5,CV*%
%TO.N,Net-(U1-CV)*%
X58970000Y-38905000D03*
%TO.P,U1,6,THR*%
%TO.N,Net-(U1-THR)*%
X58970000Y-37635000D03*
%TO.P,U1,7,DIS*%
%TO.N,unconnected-(U1-DIS-Pad7)*%
X58970000Y-36365000D03*
%TO.P,U1,8,VCC*%
%TO.N,Net-(Q4-D)*%
X58970000Y-35095000D03*
%TD*%
D25*
%TO.P,R1,1*%
%TO.N,Net-(U1-R)*%
X56348300Y-32500000D03*
%TO.P,R1,2*%
%TO.N,Net-(Q4-D)*%
X58151700Y-32500000D03*
%TD*%
D23*
%TO.P,J1,1,1*%
%TO.N,Net-(Q2-D)*%
X50800000Y-25400000D03*
%TO.P,J1,2,2*%
%TO.N,Net-(Q3-D)*%
X53340000Y-25400000D03*
%TO.P,J1,3,3*%
%TO.N,Net-(Q4-D)*%
X55880000Y-25400000D03*
%TO.P,J1,4,4*%
%TO.N,Net-(Q1-C)*%
X58420000Y-25400000D03*
%TO.P,J1,5,5*%
%TO.N,Net-(D3-A)*%
X60960000Y-25400000D03*
%TO.P,J1,6,6*%
%TO.N,unconnected-(J1-Pad6)*%
X63500000Y-25400000D03*
%TO.P,J1,7,7*%
%TO.N,unconnected-(J1-Pad7)*%
X66040000Y-25400000D03*
%TO.P,J1,8,8*%
%TO.N,unconnected-(J1-Pad8)*%
X68580000Y-25400000D03*
%TO.P,J1,9,9*%
%TO.N,unconnected-(J1-Pad9)*%
X71120000Y-25400000D03*
%TO.P,J1,10,10*%
%TO.N,unconnected-(J1-Pad10)*%
X73660000Y-25400000D03*
%TD*%
D20*
%TO.P,Q3,1,D*%
%TO.N,Net-(Q3-D)*%
X51750000Y-43845000D03*
%TO.P,Q3,2,G*%
%TO.N,Net-(Q3-G)*%
X51750000Y-45750000D03*
%TO.P,Q3,3,S*%
%TO.N,Net-(Q1-C)*%
X54137600Y-44797500D03*
%TD*%
D26*
%TO.N,Net-(Q1-C)*%
X55500000Y-47000000D03*
X52500000Y-33500000D03*
X58750000Y-40750000D03*
%TO.N,Net-(U1-CV)*%
X61000000Y-39000000D03*
X61000000Y-45000000D03*
%TO.N,Net-(D3-A)*%
X60750000Y-49000000D03*
%TO.N,Net-(U1-THR)*%
X56500000Y-36250000D03*
X59750000Y-33250000D03*
%TD*%
D27*
%TO.N,Net-(Q1-C)*%
X58500000Y-47548200D02*
X57653100Y-47548200D01*
X59794900Y-47250000D02*
X59496700Y-47548200D01*
X58420000Y-27420000D02*
X58420000Y-25400000D01*
X67700699Y-31321500D02*
X67750000Y-31272199D01*
X59000000Y-41000000D02*
X58750000Y-40750000D01*
X64566800Y-31321500D02*
X64566800Y-30792100D01*
X63250000Y-39250000D02*
X63250000Y-41946300D01*
X55769699Y-44797500D02*
X55972199Y-45000000D01*
X63250000Y-41946300D02*
X62696300Y-42500000D01*
X64566800Y-30792100D02*
X63524700Y-29750000D01*
X63524700Y-29750000D02*
X60750000Y-29750000D01*
X59000000Y-41500000D02*
X60000000Y-42500000D01*
X55500000Y-45472199D02*
X55972199Y-45000000D01*
X57653100Y-47548200D02*
X55972199Y-45867299D01*
X54000000Y-35065000D02*
X54030000Y-35095000D01*
X62696300Y-42500000D02*
X60000000Y-42500000D01*
X59000000Y-41500000D02*
X59000000Y-41000000D01*
X61250000Y-47250000D02*
X59794900Y-47250000D01*
X64566800Y-31321500D02*
X67700699Y-31321500D01*
X55972199Y-45867299D02*
X55972199Y-45000000D01*
X54137600Y-44797500D02*
X55769699Y-44797500D01*
D28*
X54000000Y-35000000D02*
X54000000Y-35065000D01*
D27*
X57027801Y-41500000D02*
X59000000Y-41500000D01*
X55500000Y-47000000D02*
X55500000Y-45472199D01*
D28*
X52500000Y-33500000D02*
X54000000Y-35000000D01*
D27*
X60750000Y-29750000D02*
X58420000Y-27420000D01*
X59496700Y-47548200D02*
X58500000Y-47548200D01*
%TO.N,Net-(U1-CV)*%
X59027801Y-45000000D02*
X61000000Y-45000000D01*
X60905000Y-38905000D02*
X61000000Y-39000000D01*
X58970000Y-38905000D02*
X60905000Y-38905000D01*
D28*
%TO.N,Net-(U1-R)*%
X56348300Y-32500000D02*
X52368629Y-32500000D01*
X53105000Y-38905000D02*
X54030000Y-38905000D01*
X52368629Y-32500000D02*
X51700000Y-33168629D01*
X54030000Y-41442199D02*
X53972199Y-41500000D01*
X51700000Y-37500000D02*
X53105000Y-38905000D01*
X54030000Y-38905000D02*
X54030000Y-41442199D01*
X51700000Y-33168629D02*
X51700000Y-37500000D01*
D27*
%TO.N,Net-(D2-K)*%
X66726000Y-39250000D02*
X66750000Y-39274000D01*
X64647000Y-39250000D02*
X66726000Y-39250000D01*
%TO.N,Net-(D2-A)*%
X62000000Y-40000000D02*
X62000000Y-38250000D01*
X56000000Y-38620001D02*
X56000000Y-40000000D01*
X54030000Y-37635000D02*
X55014999Y-37635000D01*
X62000000Y-40500000D02*
X62387600Y-40887600D01*
X62000000Y-40000000D02*
X62000000Y-40500000D01*
X55014999Y-37635000D02*
X56000000Y-38620001D01*
X62250000Y-38000000D02*
X62000000Y-38250000D01*
X66750000Y-36226000D02*
X65699900Y-36226000D01*
X65250000Y-36675900D02*
X65250000Y-38000000D01*
X56000000Y-40000000D02*
X62000000Y-40000000D01*
X62387600Y-40887600D02*
X62387600Y-41547500D01*
X65699900Y-36226000D02*
X65250000Y-36675900D01*
X65250000Y-38000000D02*
X62250000Y-38000000D01*
X62000000Y-38250000D02*
X62000000Y-37500000D01*
%TO.N,Net-(D3-A)*%
X54875700Y-50875700D02*
X54875700Y-51819178D01*
X52250000Y-48250000D02*
X54875700Y-50875700D01*
X65060000Y-29500000D02*
X60960000Y-25400000D01*
X57500000Y-52250000D02*
X60750000Y-49000000D01*
X55750000Y-52250000D02*
X57500000Y-52250000D01*
X72250000Y-29500000D02*
X65060000Y-29500000D01*
X55306522Y-52250000D02*
X55750000Y-52250000D01*
X54875700Y-51819178D02*
X55306522Y-52250000D01*
%TO.N,Net-(D3-K)*%
X58452000Y-49202000D02*
X58500000Y-49250000D01*
X55750000Y-49202000D02*
X58452000Y-49202000D01*
%TO.N,Net-(Q2-D)*%
X50250000Y-25950000D02*
X50800000Y-25400000D01*
X51297500Y-47047500D02*
X50250000Y-46000000D01*
X50250000Y-46000000D02*
X50250000Y-25950000D01*
X51297500Y-50637600D02*
X51297500Y-47047500D01*
%TO.N,Net-(Q3-D)*%
X53340000Y-25400000D02*
X50750000Y-27990000D01*
X50750000Y-27990000D02*
X50750000Y-42845000D01*
X50750000Y-42845000D02*
X51750000Y-43845000D01*
%TO.N,Net-(Q1-E)*%
X74138000Y-49542000D02*
X74138000Y-32000000D01*
X62433200Y-32274000D02*
X63500000Y-33340800D01*
X63500000Y-33340800D02*
X63500000Y-34250000D01*
X67750000Y-34227801D02*
X63522199Y-34227801D01*
X63522199Y-34227801D02*
X63500000Y-34250000D01*
X74138000Y-32000000D02*
X70825179Y-32000000D01*
X68597378Y-34227801D02*
X67750000Y-34227801D01*
X70825179Y-32000000D02*
X68597378Y-34227801D01*
X72680000Y-51000000D02*
X74138000Y-49542000D01*
%TO.N,Net-(Q1-B)*%
X62433200Y-30369000D02*
X59631000Y-30369000D01*
X59631000Y-30369000D02*
X59500000Y-30500000D01*
%TO.N,Net-(Q2-G)*%
X54250000Y-52531900D02*
X54250000Y-53500000D01*
X54250000Y-53500000D02*
X67500000Y-53500000D01*
X72680000Y-47250000D02*
X72680000Y-44895000D01*
X53202500Y-50637600D02*
X53202500Y-51484400D01*
X67500000Y-53500000D02*
X72680000Y-48320000D01*
X53202500Y-51484400D02*
X54250000Y-52531900D01*
X72680000Y-44895000D02*
X72500000Y-44715000D01*
X72680000Y-48320000D02*
X72680000Y-47250000D01*
%TO.N,Net-(U1-THR)*%
X60750000Y-34250000D02*
X62103000Y-34250000D01*
X56284999Y-37635000D02*
X58970000Y-37635000D01*
X56500000Y-36250000D02*
X56500000Y-37419999D01*
X59750000Y-33250000D02*
X60750000Y-34250000D01*
X54030000Y-36365000D02*
X55014999Y-36365000D01*
X56500000Y-37419999D02*
X56284999Y-37635000D01*
X55014999Y-36365000D02*
X56284999Y-37635000D01*
D29*
%TO.N,Net-(Q4-D)*%
X58151700Y-32500000D02*
X58151700Y-34276700D01*
X58151700Y-34276700D02*
X58970000Y-35095000D01*
X58103000Y-29603000D02*
X58103000Y-30500000D01*
X55880000Y-27380000D02*
X58103000Y-29603000D01*
X60395100Y-35095000D02*
X62000000Y-36699900D01*
D30*
X58970000Y-32530000D02*
X59000000Y-32500000D01*
D29*
X55880000Y-25400000D02*
X55880000Y-27380000D01*
X58103000Y-30500000D02*
X58103000Y-32451300D01*
X58970000Y-35095000D02*
X60395100Y-35095000D01*
X58103000Y-32451300D02*
X58151700Y-32500000D01*
D27*
%TO.N,Net-(Q3-G)*%
X62990600Y-37099950D02*
X64840550Y-35250000D01*
X54047500Y-43452500D02*
X62387600Y-43452500D01*
X68250000Y-40500000D02*
X64000000Y-40500000D01*
X51750000Y-45750000D02*
X54047500Y-43452500D01*
X64000000Y-40500000D02*
X64000000Y-41840100D01*
X69500000Y-35250000D02*
X68250000Y-35250000D01*
X64000000Y-41840100D02*
X62387600Y-43452500D01*
X71465000Y-33285000D02*
X69500000Y-35250000D01*
X68250000Y-35250000D02*
X68250000Y-40500000D01*
X64840550Y-35250000D02*
X68250000Y-35250000D01*
X72500000Y-33285000D02*
X71465000Y-33285000D01*
X72500000Y-32785000D02*
X71965000Y-32785000D01*
%TD*%
M02*
