%TF.GenerationSoftware,KiCad,Pcbnew,8.0.8*%
%TF.CreationDate,2025-02-16T23:43:51-05:00*%
%TF.ProjectId,Precharge Module V2.1,50726563-6861-4726-9765-204d6f64756c,rev?*%
%TF.SameCoordinates,Original*%
%TF.FileFunction,Soldermask,Top*%
%TF.FilePolarity,Negative*%
%FSLAX46Y46*%
G04 Gerber Fmt 4.6, Leading zero omitted, Abs format (unit mm)*
G04 Created by KiCad (PCBNEW 8.0.8) date 2025-02-16 23:43:51*
%MOMM*%
%LPD*%
G01*
G04 APERTURE LIST*
G04 Aperture macros list*
%AMRoundRect*
0 Rectangle with rounded corners*
0 $1 Rounding radius*
0 $2 $3 $4 $5 $6 $7 $8 $9 X,Y pos of 4 corners*
0 Add a 4 corners polygon primitive as box body*
4,1,4,$2,$3,$4,$5,$6,$7,$8,$9,$2,$3,0*
0 Add four circle primitives for the rounded corners*
1,1,$1+$1,$2,$3*
1,1,$1+$1,$4,$5*
1,1,$1+$1,$6,$7*
1,1,$1+$1,$8,$9*
0 Add four rect primitives between the rounded corners*
20,1,$1+$1,$2,$3,$4,$5,0*
20,1,$1+$1,$4,$5,$6,$7,0*
20,1,$1+$1,$6,$7,$8,$9,0*
20,1,$1+$1,$8,$9,$2,$3,0*%
G04 Aperture macros list end*
%ADD10R,1.600200X0.863600*%
%ADD11R,0.660400X0.279400*%
%ADD12R,0.660400X0.381000*%
%ADD13R,1.397000X1.397000*%
%ADD14C,1.397000*%
%ADD15R,0.558800X0.863600*%
%ADD16C,3.000000*%
%ADD17R,1.219200X0.558800*%
%ADD18R,0.711200X0.939800*%
%ADD19R,2.500000X0.955600*%
%ADD20R,0.863600X0.558800*%
%ADD21R,1.193800X1.016000*%
%ADD22R,0.855600X1.600000*%
%ADD23C,1.954000*%
%ADD24RoundRect,0.100500X-0.986500X-0.301500X0.986500X-0.301500X0.986500X0.301500X-0.986500X0.301500X0*%
%ADD25R,0.812800X1.346200*%
G04 APERTURE END LIST*
D10*
%TO.C,D3*%
X55750000Y-49202000D03*
X55750000Y-52250000D03*
%TD*%
D11*
%TO.C,Q4*%
X62000000Y-36699900D03*
X62000000Y-37500000D03*
D12*
X62990600Y-37099950D03*
%TD*%
D13*
%TO.C,R6*%
X61250000Y-51000000D03*
D14*
X72680000Y-51000000D03*
%TD*%
D15*
%TO.C,Q2*%
X51297500Y-50637600D03*
X53202500Y-50637600D03*
X52250000Y-48250000D03*
%TD*%
D16*
%TO.C,PC COIL -*%
X72250000Y-29500000D03*
%TD*%
D17*
%TO.C,Q1*%
X62433200Y-30369000D03*
X62433200Y-32274000D03*
X64566800Y-31321500D03*
%TD*%
D18*
%TO.C,R3*%
X64647000Y-39250000D03*
X63250000Y-39250000D03*
%TD*%
D19*
%TO.C,C3*%
X67750000Y-34227801D03*
X67750000Y-31272199D03*
%TD*%
D20*
%TO.C,Q5*%
X62387600Y-43452500D03*
X62387600Y-41547500D03*
X60000000Y-42500000D03*
%TD*%
D10*
%TO.C,D2*%
X66750000Y-39274000D03*
X66750000Y-36226000D03*
%TD*%
D21*
%TO.C,R9*%
X58500000Y-47548200D03*
X58500000Y-49250000D03*
%TD*%
D13*
%TO.C,R8*%
X61250000Y-47250000D03*
D14*
X72680000Y-47250000D03*
%TD*%
D22*
%TO.C,C1*%
X53972199Y-41500000D03*
X57027801Y-41500000D03*
%TD*%
%TO.C,C2*%
X59027801Y-45000000D03*
X55972199Y-45000000D03*
%TD*%
D18*
%TO.C,R5*%
X58103000Y-30500000D03*
X59500000Y-30500000D03*
%TD*%
D13*
%TO.C,R7*%
X72500000Y-33285000D03*
D14*
X72500000Y-44715000D03*
%TD*%
D18*
%TO.C,R4*%
X62103000Y-34250000D03*
X63500000Y-34250000D03*
%TD*%
D23*
%TO.C,J2*%
X50800000Y-68580000D03*
X53340000Y-68580000D03*
X55880000Y-68580000D03*
X58420000Y-68580000D03*
X60960000Y-68580000D03*
X63500000Y-68580000D03*
X66040000Y-68580000D03*
X68580000Y-68580000D03*
X71120000Y-68580000D03*
X73660000Y-68580000D03*
%TD*%
D24*
%TO.C,U1*%
X54030000Y-35095000D03*
X54030000Y-36365000D03*
X54030000Y-37635000D03*
X54030000Y-38905000D03*
X58970000Y-38905000D03*
X58970000Y-37635000D03*
X58970000Y-36365000D03*
X58970000Y-35095000D03*
%TD*%
D25*
%TO.C,R1*%
X56348300Y-32500000D03*
X58151700Y-32500000D03*
%TD*%
D23*
%TO.C,J1*%
X50800000Y-25400000D03*
X53340000Y-25400000D03*
X55880000Y-25400000D03*
X58420000Y-25400000D03*
X60960000Y-25400000D03*
X63500000Y-25400000D03*
X66040000Y-25400000D03*
X68580000Y-25400000D03*
X71120000Y-25400000D03*
X73660000Y-25400000D03*
%TD*%
D20*
%TO.C,Q3*%
X51750000Y-43845000D03*
X51750000Y-45750000D03*
X54137600Y-44797500D03*
%TD*%
M02*
