M48
; DRILL file {KiCad 8.0.8} date 2025-03-02T20:21:28-0500
; FORMAT={-:-/ absolute / inch / decimal}
; #@! TF.CreationDate,2025-03-02T20:21:28-05:00
; #@! TF.GenerationSoftware,Kicad,Pcbnew,8.0.8
; #@! TF.FileFunction,Plated,1,2,PTH
FMAT,2
INCH
; #@! TA.AperFunction,Plated,PTH,ViaDrill
T1C0.0197
; #@! TA.AperFunction,Plated,PTH,ComponentDrill
T2C0.0350
; #@! TA.AperFunction,Plated,PTH,ComponentDrill
T3C0.0390
; #@! TA.AperFunction,Plated,PTH,ComponentDrill
T4C0.0400
; #@! TA.AperFunction,Plated,PTH,ComponentDrill
T5C0.0433
; #@! TA.AperFunction,Plated,PTH,ComponentDrill
T6C0.0512
; #@! TA.AperFunction,Plated,PTH,ComponentDrill
T7C0.0630
; #@! TA.AperFunction,Plated,PTH,ComponentDrill
T8C0.0630
; #@! TA.AperFunction,Plated,PTH,ComponentDrill
T9C0.0830
; #@! TA.AperFunction,Plated,PTH,ComponentDrill
T10C0.0870
%
G90
G05
T1
X3.4567Y-2.8189
X3.4803Y-2.7756
T2
X3.1181Y-2.1969
X3.1181Y-2.3228
X3.5669Y-2.4134
X3.5669Y-2.8634
X3.5681Y-2.1969
X3.5681Y-2.3228
T3
X3.3472Y-3.5461
X3.3472Y-3.7232
X3.6031Y-3.5461
X3.6031Y-3.7232
T4
X2.0Y-2.0
X2.0Y-2.1
X2.0Y-2.2
X2.0Y-2.3
X2.0Y-2.4
X2.0Y-2.5
X2.0Y-2.6
X2.0Y-2.7
X2.0Y-2.8
X2.0Y-2.9
X2.0Y-3.0
X2.0Y-3.1
X2.0Y-3.2
X2.0Y-3.3
X2.0Y-3.4
X2.0Y-3.5
X2.0Y-3.6
X2.0Y-3.7
X2.0Y-3.8
X2.0Y-3.9
X3.7008Y-2.0
X3.7008Y-2.1
X3.7008Y-2.2
X3.7008Y-2.3
X3.7008Y-2.4
X3.7008Y-2.5
X3.7008Y-2.6
X3.7008Y-2.7
X3.7008Y-2.8
X3.7008Y-2.9
X3.7008Y-3.0
X3.7008Y-3.1
X3.7008Y-3.2
X3.7008Y-3.3
X3.7008Y-3.4
X3.7008Y-3.5
X3.7008Y-3.6
X3.7008Y-3.7
X3.7008Y-3.8
X3.7008Y-3.9
T5
X3.3827Y-2.9382
X3.3827Y-3.3382
T6
X2.2492Y-2.1713
X2.2492Y-2.3681
T7
X3.4213Y-2.4685
X3.4929Y-3.8571
T8
X2.5441Y-3.837
X2.8433Y-3.837
T10
X2.2429Y-3.837
X3.1445Y-3.837
T9
G00X2.2727Y-2.5654
M15
G01X2.3667Y-2.5654
M16
G05
G00X2.2727Y-2.9984
M15
G01X2.3667Y-2.9984
M16
G05
G00X3.0207Y-2.5654
M15
G01X3.1147Y-2.5654
M16
G05
G00X3.0207Y-2.9984
M15
G01X3.1147Y-2.9984
M16
G05
M30
