%TF.GenerationSoftware,KiCad,Pcbnew,8.0.8*%
%TF.CreationDate,2025-03-02T20:21:30-05:00*%
%TF.ProjectId,IMD Latching Module V3.0,494d4420-4c61-4746-9368-696e67204d6f,rev?*%
%TF.SameCoordinates,Original*%
%TF.FileFunction,Legend,Top*%
%TF.FilePolarity,Positive*%
%FSLAX46Y46*%
G04 Gerber Fmt 4.6, Leading zero omitted, Abs format (unit mm)*
G04 Created by KiCad (PCBNEW 8.0.8) date 2025-03-02 20:21:30*
%MOMM*%
%LPD*%
G01*
G04 APERTURE LIST*
%ADD10C,0.100000*%
%ADD11C,0.150000*%
%ADD12C,0.187500*%
%ADD13C,0.170000*%
%ADD14C,0.120000*%
%ADD15C,0.152400*%
%ADD16C,0.508000*%
%ADD17C,0.200000*%
%ADD18C,0.400000*%
G04 APERTURE END LIST*
D10*
X61620000Y-50870000D02*
X92020000Y-50870000D01*
X92020000Y-53770000D01*
X61620000Y-53770000D01*
X61620000Y-50870000D01*
X63500000Y-54300000D02*
X78300000Y-54300000D01*
X78300000Y-61600000D01*
X63500000Y-61600000D01*
X63500000Y-54300000D01*
D11*
X89335714Y-70750057D02*
X89378571Y-70702438D01*
X89378571Y-70702438D02*
X89464286Y-70654819D01*
X89464286Y-70654819D02*
X89678571Y-70654819D01*
X89678571Y-70654819D02*
X89764286Y-70702438D01*
X89764286Y-70702438D02*
X89807143Y-70750057D01*
X89807143Y-70750057D02*
X89850000Y-70845295D01*
X89850000Y-70845295D02*
X89850000Y-70940533D01*
X89850000Y-70940533D02*
X89807143Y-71083390D01*
X89807143Y-71083390D02*
X89292857Y-71654819D01*
X89292857Y-71654819D02*
X89850000Y-71654819D01*
X90235714Y-71559580D02*
X90278571Y-71607200D01*
X90278571Y-71607200D02*
X90235714Y-71654819D01*
X90235714Y-71654819D02*
X90192857Y-71607200D01*
X90192857Y-71607200D02*
X90235714Y-71559580D01*
X90235714Y-71559580D02*
X90235714Y-71654819D01*
X90621428Y-70750057D02*
X90664285Y-70702438D01*
X90664285Y-70702438D02*
X90750000Y-70654819D01*
X90750000Y-70654819D02*
X90964285Y-70654819D01*
X90964285Y-70654819D02*
X91050000Y-70702438D01*
X91050000Y-70702438D02*
X91092857Y-70750057D01*
X91092857Y-70750057D02*
X91135714Y-70845295D01*
X91135714Y-70845295D02*
X91135714Y-70940533D01*
X91135714Y-70940533D02*
X91092857Y-71083390D01*
X91092857Y-71083390D02*
X90578571Y-71654819D01*
X90578571Y-71654819D02*
X91135714Y-71654819D01*
X91521428Y-71654819D02*
X91521428Y-70654819D01*
X91607143Y-71273866D02*
X91864285Y-71654819D01*
X91864285Y-70988152D02*
X91521428Y-71369104D01*
D10*
X65205713Y-75652825D02*
X65919999Y-75652825D01*
X65062856Y-76081396D02*
X65562856Y-74581396D01*
X65562856Y-74581396D02*
X66062856Y-76081396D01*
X66348570Y-75081396D02*
X66919998Y-75081396D01*
X66562855Y-74581396D02*
X66562855Y-75867110D01*
X66562855Y-75867110D02*
X66634284Y-76009968D01*
X66634284Y-76009968D02*
X66777141Y-76081396D01*
X66777141Y-76081396D02*
X66919998Y-76081396D01*
X67205713Y-75081396D02*
X67777141Y-75081396D01*
X67419998Y-74581396D02*
X67419998Y-75867110D01*
X67419998Y-75867110D02*
X67491427Y-76009968D01*
X67491427Y-76009968D02*
X67634284Y-76081396D01*
X67634284Y-76081396D02*
X67777141Y-76081396D01*
X68919999Y-76081396D02*
X68919999Y-75295682D01*
X68919999Y-75295682D02*
X68848570Y-75152825D01*
X68848570Y-75152825D02*
X68705713Y-75081396D01*
X68705713Y-75081396D02*
X68419999Y-75081396D01*
X68419999Y-75081396D02*
X68277141Y-75152825D01*
X68919999Y-76009968D02*
X68777141Y-76081396D01*
X68777141Y-76081396D02*
X68419999Y-76081396D01*
X68419999Y-76081396D02*
X68277141Y-76009968D01*
X68277141Y-76009968D02*
X68205713Y-75867110D01*
X68205713Y-75867110D02*
X68205713Y-75724253D01*
X68205713Y-75724253D02*
X68277141Y-75581396D01*
X68277141Y-75581396D02*
X68419999Y-75509968D01*
X68419999Y-75509968D02*
X68777141Y-75509968D01*
X68777141Y-75509968D02*
X68919999Y-75438539D01*
X70277142Y-76009968D02*
X70134284Y-76081396D01*
X70134284Y-76081396D02*
X69848570Y-76081396D01*
X69848570Y-76081396D02*
X69705713Y-76009968D01*
X69705713Y-76009968D02*
X69634284Y-75938539D01*
X69634284Y-75938539D02*
X69562856Y-75795682D01*
X69562856Y-75795682D02*
X69562856Y-75367110D01*
X69562856Y-75367110D02*
X69634284Y-75224253D01*
X69634284Y-75224253D02*
X69705713Y-75152825D01*
X69705713Y-75152825D02*
X69848570Y-75081396D01*
X69848570Y-75081396D02*
X70134284Y-75081396D01*
X70134284Y-75081396D02*
X70277142Y-75152825D01*
X70919998Y-76081396D02*
X70919998Y-74581396D01*
X71562856Y-76081396D02*
X71562856Y-75295682D01*
X71562856Y-75295682D02*
X71491427Y-75152825D01*
X71491427Y-75152825D02*
X71348570Y-75081396D01*
X71348570Y-75081396D02*
X71134284Y-75081396D01*
X71134284Y-75081396D02*
X70991427Y-75152825D01*
X70991427Y-75152825D02*
X70919998Y-75224253D01*
X66598570Y-78496312D02*
X66098570Y-77782026D01*
X65741427Y-78496312D02*
X65741427Y-76996312D01*
X65741427Y-76996312D02*
X66312856Y-76996312D01*
X66312856Y-76996312D02*
X66455713Y-77067741D01*
X66455713Y-77067741D02*
X66527142Y-77139169D01*
X66527142Y-77139169D02*
X66598570Y-77282026D01*
X66598570Y-77282026D02*
X66598570Y-77496312D01*
X66598570Y-77496312D02*
X66527142Y-77639169D01*
X66527142Y-77639169D02*
X66455713Y-77710598D01*
X66455713Y-77710598D02*
X66312856Y-77782026D01*
X66312856Y-77782026D02*
X65741427Y-77782026D01*
X67812856Y-78424884D02*
X67669999Y-78496312D01*
X67669999Y-78496312D02*
X67384285Y-78496312D01*
X67384285Y-78496312D02*
X67241427Y-78424884D01*
X67241427Y-78424884D02*
X67169999Y-78282026D01*
X67169999Y-78282026D02*
X67169999Y-77710598D01*
X67169999Y-77710598D02*
X67241427Y-77567741D01*
X67241427Y-77567741D02*
X67384285Y-77496312D01*
X67384285Y-77496312D02*
X67669999Y-77496312D01*
X67669999Y-77496312D02*
X67812856Y-77567741D01*
X67812856Y-77567741D02*
X67884285Y-77710598D01*
X67884285Y-77710598D02*
X67884285Y-77853455D01*
X67884285Y-77853455D02*
X67169999Y-77996312D01*
X68741427Y-78496312D02*
X68598570Y-78424884D01*
X68598570Y-78424884D02*
X68527141Y-78282026D01*
X68527141Y-78282026D02*
X68527141Y-76996312D01*
X69955713Y-78496312D02*
X69955713Y-77710598D01*
X69955713Y-77710598D02*
X69884284Y-77567741D01*
X69884284Y-77567741D02*
X69741427Y-77496312D01*
X69741427Y-77496312D02*
X69455713Y-77496312D01*
X69455713Y-77496312D02*
X69312855Y-77567741D01*
X69955713Y-78424884D02*
X69812855Y-78496312D01*
X69812855Y-78496312D02*
X69455713Y-78496312D01*
X69455713Y-78496312D02*
X69312855Y-78424884D01*
X69312855Y-78424884D02*
X69241427Y-78282026D01*
X69241427Y-78282026D02*
X69241427Y-78139169D01*
X69241427Y-78139169D02*
X69312855Y-77996312D01*
X69312855Y-77996312D02*
X69455713Y-77924884D01*
X69455713Y-77924884D02*
X69812855Y-77924884D01*
X69812855Y-77924884D02*
X69955713Y-77853455D01*
X70527141Y-77496312D02*
X70884284Y-78496312D01*
X71241427Y-77496312D02*
X70884284Y-78496312D01*
X70884284Y-78496312D02*
X70741427Y-78853455D01*
X70741427Y-78853455D02*
X70669998Y-78924884D01*
X70669998Y-78924884D02*
X70527141Y-78996312D01*
X67169998Y-80911228D02*
X66455712Y-80911228D01*
X66455712Y-80911228D02*
X66455712Y-79411228D01*
X68312856Y-80911228D02*
X68312856Y-80125514D01*
X68312856Y-80125514D02*
X68241427Y-79982657D01*
X68241427Y-79982657D02*
X68098570Y-79911228D01*
X68098570Y-79911228D02*
X67812856Y-79911228D01*
X67812856Y-79911228D02*
X67669998Y-79982657D01*
X68312856Y-80839800D02*
X68169998Y-80911228D01*
X68169998Y-80911228D02*
X67812856Y-80911228D01*
X67812856Y-80911228D02*
X67669998Y-80839800D01*
X67669998Y-80839800D02*
X67598570Y-80696942D01*
X67598570Y-80696942D02*
X67598570Y-80554085D01*
X67598570Y-80554085D02*
X67669998Y-80411228D01*
X67669998Y-80411228D02*
X67812856Y-80339800D01*
X67812856Y-80339800D02*
X68169998Y-80339800D01*
X68169998Y-80339800D02*
X68312856Y-80268371D01*
X68955713Y-80839800D02*
X69098570Y-80911228D01*
X69098570Y-80911228D02*
X69384284Y-80911228D01*
X69384284Y-80911228D02*
X69527141Y-80839800D01*
X69527141Y-80839800D02*
X69598570Y-80696942D01*
X69598570Y-80696942D02*
X69598570Y-80625514D01*
X69598570Y-80625514D02*
X69527141Y-80482657D01*
X69527141Y-80482657D02*
X69384284Y-80411228D01*
X69384284Y-80411228D02*
X69169999Y-80411228D01*
X69169999Y-80411228D02*
X69027141Y-80339800D01*
X69027141Y-80339800D02*
X68955713Y-80196942D01*
X68955713Y-80196942D02*
X68955713Y-80125514D01*
X68955713Y-80125514D02*
X69027141Y-79982657D01*
X69027141Y-79982657D02*
X69169999Y-79911228D01*
X69169999Y-79911228D02*
X69384284Y-79911228D01*
X69384284Y-79911228D02*
X69527141Y-79982657D01*
X70027142Y-79911228D02*
X70598570Y-79911228D01*
X70241427Y-79411228D02*
X70241427Y-80696942D01*
X70241427Y-80696942D02*
X70312856Y-80839800D01*
X70312856Y-80839800D02*
X70455713Y-80911228D01*
X70455713Y-80911228D02*
X70598570Y-80911228D01*
X64622931Y-57652531D02*
X64280074Y-57652531D01*
X64451503Y-57652531D02*
X64451503Y-56652531D01*
X64451503Y-56652531D02*
X64394360Y-56795388D01*
X64394360Y-56795388D02*
X64337217Y-56890626D01*
X64337217Y-56890626D02*
X64280074Y-56938245D01*
X64880075Y-57557292D02*
X64908646Y-57604912D01*
X64908646Y-57604912D02*
X64880075Y-57652531D01*
X64880075Y-57652531D02*
X64851503Y-57604912D01*
X64851503Y-57604912D02*
X64880075Y-57557292D01*
X64880075Y-57557292D02*
X64880075Y-57652531D01*
X64880075Y-57033483D02*
X64908646Y-57081102D01*
X64908646Y-57081102D02*
X64880075Y-57128721D01*
X64880075Y-57128721D02*
X64851503Y-57081102D01*
X64851503Y-57081102D02*
X64880075Y-57033483D01*
X64880075Y-57033483D02*
X64880075Y-57128721D01*
X65965789Y-57652531D02*
X65765789Y-57176340D01*
X65622932Y-57652531D02*
X65622932Y-56652531D01*
X65622932Y-56652531D02*
X65851503Y-56652531D01*
X65851503Y-56652531D02*
X65908646Y-56700150D01*
X65908646Y-56700150D02*
X65937217Y-56747769D01*
X65937217Y-56747769D02*
X65965789Y-56843007D01*
X65965789Y-56843007D02*
X65965789Y-56985864D01*
X65965789Y-56985864D02*
X65937217Y-57081102D01*
X65937217Y-57081102D02*
X65908646Y-57128721D01*
X65908646Y-57128721D02*
X65851503Y-57176340D01*
X65851503Y-57176340D02*
X65622932Y-57176340D01*
X66451503Y-57604912D02*
X66394360Y-57652531D01*
X66394360Y-57652531D02*
X66280075Y-57652531D01*
X66280075Y-57652531D02*
X66222932Y-57604912D01*
X66222932Y-57604912D02*
X66194360Y-57509673D01*
X66194360Y-57509673D02*
X66194360Y-57128721D01*
X66194360Y-57128721D02*
X66222932Y-57033483D01*
X66222932Y-57033483D02*
X66280075Y-56985864D01*
X66280075Y-56985864D02*
X66394360Y-56985864D01*
X66394360Y-56985864D02*
X66451503Y-57033483D01*
X66451503Y-57033483D02*
X66480075Y-57128721D01*
X66480075Y-57128721D02*
X66480075Y-57223959D01*
X66480075Y-57223959D02*
X66194360Y-57319197D01*
X66708646Y-57604912D02*
X66765789Y-57652531D01*
X66765789Y-57652531D02*
X66880075Y-57652531D01*
X66880075Y-57652531D02*
X66937218Y-57604912D01*
X66937218Y-57604912D02*
X66965789Y-57509673D01*
X66965789Y-57509673D02*
X66965789Y-57462054D01*
X66965789Y-57462054D02*
X66937218Y-57366816D01*
X66937218Y-57366816D02*
X66880075Y-57319197D01*
X66880075Y-57319197D02*
X66794361Y-57319197D01*
X66794361Y-57319197D02*
X66737218Y-57271578D01*
X66737218Y-57271578D02*
X66708646Y-57176340D01*
X66708646Y-57176340D02*
X66708646Y-57128721D01*
X66708646Y-57128721D02*
X66737218Y-57033483D01*
X66737218Y-57033483D02*
X66794361Y-56985864D01*
X66794361Y-56985864D02*
X66880075Y-56985864D01*
X66880075Y-56985864D02*
X66937218Y-57033483D01*
X67451503Y-57604912D02*
X67394360Y-57652531D01*
X67394360Y-57652531D02*
X67280075Y-57652531D01*
X67280075Y-57652531D02*
X67222932Y-57604912D01*
X67222932Y-57604912D02*
X67194360Y-57509673D01*
X67194360Y-57509673D02*
X67194360Y-57128721D01*
X67194360Y-57128721D02*
X67222932Y-57033483D01*
X67222932Y-57033483D02*
X67280075Y-56985864D01*
X67280075Y-56985864D02*
X67394360Y-56985864D01*
X67394360Y-56985864D02*
X67451503Y-57033483D01*
X67451503Y-57033483D02*
X67480075Y-57128721D01*
X67480075Y-57128721D02*
X67480075Y-57223959D01*
X67480075Y-57223959D02*
X67194360Y-57319197D01*
X67651503Y-56985864D02*
X67880075Y-56985864D01*
X67737218Y-56652531D02*
X67737218Y-57509673D01*
X67737218Y-57509673D02*
X67765789Y-57604912D01*
X67765789Y-57604912D02*
X67822932Y-57652531D01*
X67822932Y-57652531D02*
X67880075Y-57652531D01*
X68537218Y-57271578D02*
X68994361Y-57271578D01*
X68765789Y-57652531D02*
X68765789Y-56890626D01*
X71622931Y-56985864D02*
X71622931Y-57652531D01*
X71480073Y-56604912D02*
X71337216Y-57319197D01*
X71337216Y-57319197D02*
X71708645Y-57319197D01*
X71937217Y-57557292D02*
X71965788Y-57604912D01*
X71965788Y-57604912D02*
X71937217Y-57652531D01*
X71937217Y-57652531D02*
X71908645Y-57604912D01*
X71908645Y-57604912D02*
X71937217Y-57557292D01*
X71937217Y-57557292D02*
X71937217Y-57652531D01*
X71937217Y-57033483D02*
X71965788Y-57081102D01*
X71965788Y-57081102D02*
X71937217Y-57128721D01*
X71937217Y-57128721D02*
X71908645Y-57081102D01*
X71908645Y-57081102D02*
X71937217Y-57033483D01*
X71937217Y-57033483D02*
X71937217Y-57128721D01*
X72680074Y-57652531D02*
X72680074Y-56652531D01*
X72965788Y-57652531D02*
X72965788Y-56652531D01*
X72965788Y-56652531D02*
X73165788Y-57366816D01*
X73165788Y-57366816D02*
X73365788Y-56652531D01*
X73365788Y-56652531D02*
X73365788Y-57652531D01*
X73651502Y-57652531D02*
X73651502Y-56652531D01*
X73651502Y-56652531D02*
X73794359Y-56652531D01*
X73794359Y-56652531D02*
X73880073Y-56700150D01*
X73880073Y-56700150D02*
X73937216Y-56795388D01*
X73937216Y-56795388D02*
X73965787Y-56890626D01*
X73965787Y-56890626D02*
X73994359Y-57081102D01*
X73994359Y-57081102D02*
X73994359Y-57223959D01*
X73994359Y-57223959D02*
X73965787Y-57414435D01*
X73965787Y-57414435D02*
X73937216Y-57509673D01*
X73937216Y-57509673D02*
X73880073Y-57604912D01*
X73880073Y-57604912D02*
X73794359Y-57652531D01*
X73794359Y-57652531D02*
X73651502Y-57652531D01*
X74994359Y-57652531D02*
X74708645Y-57652531D01*
X74708645Y-57652531D02*
X74708645Y-56652531D01*
X75194359Y-57128721D02*
X75394359Y-57128721D01*
X75480073Y-57652531D02*
X75194359Y-57652531D01*
X75194359Y-57652531D02*
X75194359Y-56652531D01*
X75194359Y-56652531D02*
X75480073Y-56652531D01*
X75737216Y-57652531D02*
X75737216Y-56652531D01*
X75737216Y-56652531D02*
X75880073Y-56652531D01*
X75880073Y-56652531D02*
X75965787Y-56700150D01*
X75965787Y-56700150D02*
X76022930Y-56795388D01*
X76022930Y-56795388D02*
X76051501Y-56890626D01*
X76051501Y-56890626D02*
X76080073Y-57081102D01*
X76080073Y-57081102D02*
X76080073Y-57223959D01*
X76080073Y-57223959D02*
X76051501Y-57414435D01*
X76051501Y-57414435D02*
X76022930Y-57509673D01*
X76022930Y-57509673D02*
X75965787Y-57604912D01*
X75965787Y-57604912D02*
X75880073Y-57652531D01*
X75880073Y-57652531D02*
X75737216Y-57652531D01*
X76794359Y-57271578D02*
X77251502Y-57271578D01*
X77022930Y-57652531D02*
X77022930Y-56890626D01*
X64280074Y-58357713D02*
X64308646Y-58310094D01*
X64308646Y-58310094D02*
X64365789Y-58262475D01*
X64365789Y-58262475D02*
X64508646Y-58262475D01*
X64508646Y-58262475D02*
X64565789Y-58310094D01*
X64565789Y-58310094D02*
X64594360Y-58357713D01*
X64594360Y-58357713D02*
X64622931Y-58452951D01*
X64622931Y-58452951D02*
X64622931Y-58548189D01*
X64622931Y-58548189D02*
X64594360Y-58691046D01*
X64594360Y-58691046D02*
X64251503Y-59262475D01*
X64251503Y-59262475D02*
X64622931Y-59262475D01*
X64880075Y-59167236D02*
X64908646Y-59214856D01*
X64908646Y-59214856D02*
X64880075Y-59262475D01*
X64880075Y-59262475D02*
X64851503Y-59214856D01*
X64851503Y-59214856D02*
X64880075Y-59167236D01*
X64880075Y-59167236D02*
X64880075Y-59262475D01*
X64880075Y-58643427D02*
X64908646Y-58691046D01*
X64908646Y-58691046D02*
X64880075Y-58738665D01*
X64880075Y-58738665D02*
X64851503Y-58691046D01*
X64851503Y-58691046D02*
X64880075Y-58643427D01*
X64880075Y-58643427D02*
X64880075Y-58738665D01*
X65965789Y-59262475D02*
X65765789Y-58786284D01*
X65622932Y-59262475D02*
X65622932Y-58262475D01*
X65622932Y-58262475D02*
X65851503Y-58262475D01*
X65851503Y-58262475D02*
X65908646Y-58310094D01*
X65908646Y-58310094D02*
X65937217Y-58357713D01*
X65937217Y-58357713D02*
X65965789Y-58452951D01*
X65965789Y-58452951D02*
X65965789Y-58595808D01*
X65965789Y-58595808D02*
X65937217Y-58691046D01*
X65937217Y-58691046D02*
X65908646Y-58738665D01*
X65908646Y-58738665D02*
X65851503Y-58786284D01*
X65851503Y-58786284D02*
X65622932Y-58786284D01*
X66451503Y-59214856D02*
X66394360Y-59262475D01*
X66394360Y-59262475D02*
X66280075Y-59262475D01*
X66280075Y-59262475D02*
X66222932Y-59214856D01*
X66222932Y-59214856D02*
X66194360Y-59119617D01*
X66194360Y-59119617D02*
X66194360Y-58738665D01*
X66194360Y-58738665D02*
X66222932Y-58643427D01*
X66222932Y-58643427D02*
X66280075Y-58595808D01*
X66280075Y-58595808D02*
X66394360Y-58595808D01*
X66394360Y-58595808D02*
X66451503Y-58643427D01*
X66451503Y-58643427D02*
X66480075Y-58738665D01*
X66480075Y-58738665D02*
X66480075Y-58833903D01*
X66480075Y-58833903D02*
X66194360Y-58929141D01*
X66708646Y-59214856D02*
X66765789Y-59262475D01*
X66765789Y-59262475D02*
X66880075Y-59262475D01*
X66880075Y-59262475D02*
X66937218Y-59214856D01*
X66937218Y-59214856D02*
X66965789Y-59119617D01*
X66965789Y-59119617D02*
X66965789Y-59071998D01*
X66965789Y-59071998D02*
X66937218Y-58976760D01*
X66937218Y-58976760D02*
X66880075Y-58929141D01*
X66880075Y-58929141D02*
X66794361Y-58929141D01*
X66794361Y-58929141D02*
X66737218Y-58881522D01*
X66737218Y-58881522D02*
X66708646Y-58786284D01*
X66708646Y-58786284D02*
X66708646Y-58738665D01*
X66708646Y-58738665D02*
X66737218Y-58643427D01*
X66737218Y-58643427D02*
X66794361Y-58595808D01*
X66794361Y-58595808D02*
X66880075Y-58595808D01*
X66880075Y-58595808D02*
X66937218Y-58643427D01*
X67451503Y-59214856D02*
X67394360Y-59262475D01*
X67394360Y-59262475D02*
X67280075Y-59262475D01*
X67280075Y-59262475D02*
X67222932Y-59214856D01*
X67222932Y-59214856D02*
X67194360Y-59119617D01*
X67194360Y-59119617D02*
X67194360Y-58738665D01*
X67194360Y-58738665D02*
X67222932Y-58643427D01*
X67222932Y-58643427D02*
X67280075Y-58595808D01*
X67280075Y-58595808D02*
X67394360Y-58595808D01*
X67394360Y-58595808D02*
X67451503Y-58643427D01*
X67451503Y-58643427D02*
X67480075Y-58738665D01*
X67480075Y-58738665D02*
X67480075Y-58833903D01*
X67480075Y-58833903D02*
X67194360Y-58929141D01*
X67651503Y-58595808D02*
X67880075Y-58595808D01*
X67737218Y-58262475D02*
X67737218Y-59119617D01*
X67737218Y-59119617D02*
X67765789Y-59214856D01*
X67765789Y-59214856D02*
X67822932Y-59262475D01*
X67822932Y-59262475D02*
X67880075Y-59262475D01*
X68537218Y-58881522D02*
X68994361Y-58881522D01*
X71851504Y-58262475D02*
X71565790Y-58262475D01*
X71565790Y-58262475D02*
X71537218Y-58738665D01*
X71537218Y-58738665D02*
X71565790Y-58691046D01*
X71565790Y-58691046D02*
X71622933Y-58643427D01*
X71622933Y-58643427D02*
X71765790Y-58643427D01*
X71765790Y-58643427D02*
X71822933Y-58691046D01*
X71822933Y-58691046D02*
X71851504Y-58738665D01*
X71851504Y-58738665D02*
X71880075Y-58833903D01*
X71880075Y-58833903D02*
X71880075Y-59071998D01*
X71880075Y-59071998D02*
X71851504Y-59167236D01*
X71851504Y-59167236D02*
X71822933Y-59214856D01*
X71822933Y-59214856D02*
X71765790Y-59262475D01*
X71765790Y-59262475D02*
X71622933Y-59262475D01*
X71622933Y-59262475D02*
X71565790Y-59214856D01*
X71565790Y-59214856D02*
X71537218Y-59167236D01*
X72137219Y-59167236D02*
X72165790Y-59214856D01*
X72165790Y-59214856D02*
X72137219Y-59262475D01*
X72137219Y-59262475D02*
X72108647Y-59214856D01*
X72108647Y-59214856D02*
X72137219Y-59167236D01*
X72137219Y-59167236D02*
X72137219Y-59262475D01*
X72137219Y-58643427D02*
X72165790Y-58691046D01*
X72165790Y-58691046D02*
X72137219Y-58738665D01*
X72137219Y-58738665D02*
X72108647Y-58691046D01*
X72108647Y-58691046D02*
X72137219Y-58643427D01*
X72137219Y-58643427D02*
X72137219Y-58738665D01*
X72880076Y-59262475D02*
X72880076Y-58262475D01*
X73165790Y-59262475D02*
X73165790Y-58262475D01*
X73165790Y-58262475D02*
X73365790Y-58976760D01*
X73365790Y-58976760D02*
X73565790Y-58262475D01*
X73565790Y-58262475D02*
X73565790Y-59262475D01*
X73851504Y-59262475D02*
X73851504Y-58262475D01*
X73851504Y-58262475D02*
X73994361Y-58262475D01*
X73994361Y-58262475D02*
X74080075Y-58310094D01*
X74080075Y-58310094D02*
X74137218Y-58405332D01*
X74137218Y-58405332D02*
X74165789Y-58500570D01*
X74165789Y-58500570D02*
X74194361Y-58691046D01*
X74194361Y-58691046D02*
X74194361Y-58833903D01*
X74194361Y-58833903D02*
X74165789Y-59024379D01*
X74165789Y-59024379D02*
X74137218Y-59119617D01*
X74137218Y-59119617D02*
X74080075Y-59214856D01*
X74080075Y-59214856D02*
X73994361Y-59262475D01*
X73994361Y-59262475D02*
X73851504Y-59262475D01*
X75022932Y-58262475D02*
X75137218Y-58262475D01*
X75137218Y-58262475D02*
X75194361Y-58310094D01*
X75194361Y-58310094D02*
X75251504Y-58405332D01*
X75251504Y-58405332D02*
X75280075Y-58595808D01*
X75280075Y-58595808D02*
X75280075Y-58929141D01*
X75280075Y-58929141D02*
X75251504Y-59119617D01*
X75251504Y-59119617D02*
X75194361Y-59214856D01*
X75194361Y-59214856D02*
X75137218Y-59262475D01*
X75137218Y-59262475D02*
X75022932Y-59262475D01*
X75022932Y-59262475D02*
X74965790Y-59214856D01*
X74965790Y-59214856D02*
X74908647Y-59119617D01*
X74908647Y-59119617D02*
X74880075Y-58929141D01*
X74880075Y-58929141D02*
X74880075Y-58595808D01*
X74880075Y-58595808D02*
X74908647Y-58405332D01*
X74908647Y-58405332D02*
X74965790Y-58310094D01*
X74965790Y-58310094D02*
X75022932Y-58262475D01*
X75537218Y-59262475D02*
X75537218Y-58262475D01*
X75880075Y-59262475D02*
X75622932Y-58691046D01*
X75880075Y-58262475D02*
X75537218Y-58833903D01*
X76137218Y-59262475D02*
X76137218Y-58262475D01*
X76137218Y-58738665D02*
X76480075Y-58738665D01*
X76480075Y-59262475D02*
X76480075Y-58262475D01*
X76737217Y-59214856D02*
X76822932Y-59262475D01*
X76822932Y-59262475D02*
X76965789Y-59262475D01*
X76965789Y-59262475D02*
X77022932Y-59214856D01*
X77022932Y-59214856D02*
X77051503Y-59167236D01*
X77051503Y-59167236D02*
X77080074Y-59071998D01*
X77080074Y-59071998D02*
X77080074Y-58976760D01*
X77080074Y-58976760D02*
X77051503Y-58881522D01*
X77051503Y-58881522D02*
X77022932Y-58833903D01*
X77022932Y-58833903D02*
X76965789Y-58786284D01*
X76965789Y-58786284D02*
X76851503Y-58738665D01*
X76851503Y-58738665D02*
X76794360Y-58691046D01*
X76794360Y-58691046D02*
X76765789Y-58643427D01*
X76765789Y-58643427D02*
X76737217Y-58548189D01*
X76737217Y-58548189D02*
X76737217Y-58452951D01*
X76737217Y-58452951D02*
X76765789Y-58357713D01*
X76765789Y-58357713D02*
X76794360Y-58310094D01*
X76794360Y-58310094D02*
X76851503Y-58262475D01*
X76851503Y-58262475D02*
X76994360Y-58262475D01*
X76994360Y-58262475D02*
X77080074Y-58310094D01*
X64251503Y-59872419D02*
X64622931Y-59872419D01*
X64622931Y-59872419D02*
X64422931Y-60253371D01*
X64422931Y-60253371D02*
X64508646Y-60253371D01*
X64508646Y-60253371D02*
X64565789Y-60300990D01*
X64565789Y-60300990D02*
X64594360Y-60348609D01*
X64594360Y-60348609D02*
X64622931Y-60443847D01*
X64622931Y-60443847D02*
X64622931Y-60681942D01*
X64622931Y-60681942D02*
X64594360Y-60777180D01*
X64594360Y-60777180D02*
X64565789Y-60824800D01*
X64565789Y-60824800D02*
X64508646Y-60872419D01*
X64508646Y-60872419D02*
X64337217Y-60872419D01*
X64337217Y-60872419D02*
X64280074Y-60824800D01*
X64280074Y-60824800D02*
X64251503Y-60777180D01*
X64880075Y-60777180D02*
X64908646Y-60824800D01*
X64908646Y-60824800D02*
X64880075Y-60872419D01*
X64880075Y-60872419D02*
X64851503Y-60824800D01*
X64851503Y-60824800D02*
X64880075Y-60777180D01*
X64880075Y-60777180D02*
X64880075Y-60872419D01*
X64880075Y-60253371D02*
X64908646Y-60300990D01*
X64908646Y-60300990D02*
X64880075Y-60348609D01*
X64880075Y-60348609D02*
X64851503Y-60300990D01*
X64851503Y-60300990D02*
X64880075Y-60253371D01*
X64880075Y-60253371D02*
X64880075Y-60348609D01*
X65537217Y-59872419D02*
X65737217Y-60872419D01*
X65737217Y-60872419D02*
X65937217Y-59872419D01*
X66108646Y-60824800D02*
X66165789Y-60872419D01*
X66165789Y-60872419D02*
X66280075Y-60872419D01*
X66280075Y-60872419D02*
X66337218Y-60824800D01*
X66337218Y-60824800D02*
X66365789Y-60729561D01*
X66365789Y-60729561D02*
X66365789Y-60681942D01*
X66365789Y-60681942D02*
X66337218Y-60586704D01*
X66337218Y-60586704D02*
X66280075Y-60539085D01*
X66280075Y-60539085D02*
X66194361Y-60539085D01*
X66194361Y-60539085D02*
X66137218Y-60491466D01*
X66137218Y-60491466D02*
X66108646Y-60396228D01*
X66108646Y-60396228D02*
X66108646Y-60348609D01*
X66108646Y-60348609D02*
X66137218Y-60253371D01*
X66137218Y-60253371D02*
X66194361Y-60205752D01*
X66194361Y-60205752D02*
X66280075Y-60205752D01*
X66280075Y-60205752D02*
X66337218Y-60253371D01*
X71908648Y-59872419D02*
X71794362Y-59872419D01*
X71794362Y-59872419D02*
X71737219Y-59920038D01*
X71737219Y-59920038D02*
X71708648Y-59967657D01*
X71708648Y-59967657D02*
X71651505Y-60110514D01*
X71651505Y-60110514D02*
X71622933Y-60300990D01*
X71622933Y-60300990D02*
X71622933Y-60681942D01*
X71622933Y-60681942D02*
X71651505Y-60777180D01*
X71651505Y-60777180D02*
X71680076Y-60824800D01*
X71680076Y-60824800D02*
X71737219Y-60872419D01*
X71737219Y-60872419D02*
X71851505Y-60872419D01*
X71851505Y-60872419D02*
X71908648Y-60824800D01*
X71908648Y-60824800D02*
X71937219Y-60777180D01*
X71937219Y-60777180D02*
X71965790Y-60681942D01*
X71965790Y-60681942D02*
X71965790Y-60443847D01*
X71965790Y-60443847D02*
X71937219Y-60348609D01*
X71937219Y-60348609D02*
X71908648Y-60300990D01*
X71908648Y-60300990D02*
X71851505Y-60253371D01*
X71851505Y-60253371D02*
X71737219Y-60253371D01*
X71737219Y-60253371D02*
X71680076Y-60300990D01*
X71680076Y-60300990D02*
X71651505Y-60348609D01*
X71651505Y-60348609D02*
X71622933Y-60443847D01*
X72222934Y-60777180D02*
X72251505Y-60824800D01*
X72251505Y-60824800D02*
X72222934Y-60872419D01*
X72222934Y-60872419D02*
X72194362Y-60824800D01*
X72194362Y-60824800D02*
X72222934Y-60777180D01*
X72222934Y-60777180D02*
X72222934Y-60872419D01*
X72222934Y-60253371D02*
X72251505Y-60300990D01*
X72251505Y-60300990D02*
X72222934Y-60348609D01*
X72222934Y-60348609D02*
X72194362Y-60300990D01*
X72194362Y-60300990D02*
X72222934Y-60253371D01*
X72222934Y-60253371D02*
X72222934Y-60348609D01*
X73280076Y-59920038D02*
X73222934Y-59872419D01*
X73222934Y-59872419D02*
X73137219Y-59872419D01*
X73137219Y-59872419D02*
X73051505Y-59920038D01*
X73051505Y-59920038D02*
X72994362Y-60015276D01*
X72994362Y-60015276D02*
X72965791Y-60110514D01*
X72965791Y-60110514D02*
X72937219Y-60300990D01*
X72937219Y-60300990D02*
X72937219Y-60443847D01*
X72937219Y-60443847D02*
X72965791Y-60634323D01*
X72965791Y-60634323D02*
X72994362Y-60729561D01*
X72994362Y-60729561D02*
X73051505Y-60824800D01*
X73051505Y-60824800D02*
X73137219Y-60872419D01*
X73137219Y-60872419D02*
X73194362Y-60872419D01*
X73194362Y-60872419D02*
X73280076Y-60824800D01*
X73280076Y-60824800D02*
X73308648Y-60777180D01*
X73308648Y-60777180D02*
X73308648Y-60443847D01*
X73308648Y-60443847D02*
X73194362Y-60443847D01*
X73565791Y-60872419D02*
X73565791Y-59872419D01*
X73565791Y-59872419D02*
X73908648Y-60872419D01*
X73908648Y-60872419D02*
X73908648Y-59872419D01*
X74194362Y-60872419D02*
X74194362Y-59872419D01*
X74194362Y-59872419D02*
X74337219Y-59872419D01*
X74337219Y-59872419D02*
X74422933Y-59920038D01*
X74422933Y-59920038D02*
X74480076Y-60015276D01*
X74480076Y-60015276D02*
X74508647Y-60110514D01*
X74508647Y-60110514D02*
X74537219Y-60300990D01*
X74537219Y-60300990D02*
X74537219Y-60443847D01*
X74537219Y-60443847D02*
X74508647Y-60634323D01*
X74508647Y-60634323D02*
X74480076Y-60729561D01*
X74480076Y-60729561D02*
X74422933Y-60824800D01*
X74422933Y-60824800D02*
X74337219Y-60872419D01*
X74337219Y-60872419D02*
X74194362Y-60872419D01*
D12*
X62137640Y-53169964D02*
X62137640Y-51369964D01*
X62566211Y-53169964D02*
X62566211Y-51369964D01*
X62566211Y-51369964D02*
X62866211Y-52655678D01*
X62866211Y-52655678D02*
X63166211Y-51369964D01*
X63166211Y-51369964D02*
X63166211Y-53169964D01*
X63594782Y-53169964D02*
X63594782Y-51369964D01*
X63594782Y-51369964D02*
X63809068Y-51369964D01*
X63809068Y-51369964D02*
X63937639Y-51455678D01*
X63937639Y-51455678D02*
X64023354Y-51627107D01*
X64023354Y-51627107D02*
X64066211Y-51798535D01*
X64066211Y-51798535D02*
X64109068Y-52141392D01*
X64109068Y-52141392D02*
X64109068Y-52398535D01*
X64109068Y-52398535D02*
X64066211Y-52741392D01*
X64066211Y-52741392D02*
X64023354Y-52912821D01*
X64023354Y-52912821D02*
X63937639Y-53084250D01*
X63937639Y-53084250D02*
X63809068Y-53169964D01*
X63809068Y-53169964D02*
X63594782Y-53169964D01*
X65609068Y-53169964D02*
X65180496Y-53169964D01*
X65180496Y-53169964D02*
X65180496Y-51369964D01*
X65866210Y-52655678D02*
X66294782Y-52655678D01*
X65780496Y-53169964D02*
X66080496Y-51369964D01*
X66080496Y-51369964D02*
X66380496Y-53169964D01*
X66551925Y-51369964D02*
X67066211Y-51369964D01*
X66809068Y-53169964D02*
X66809068Y-51369964D01*
X67880496Y-52998535D02*
X67837639Y-53084250D01*
X67837639Y-53084250D02*
X67709067Y-53169964D01*
X67709067Y-53169964D02*
X67623353Y-53169964D01*
X67623353Y-53169964D02*
X67494782Y-53084250D01*
X67494782Y-53084250D02*
X67409067Y-52912821D01*
X67409067Y-52912821D02*
X67366210Y-52741392D01*
X67366210Y-52741392D02*
X67323353Y-52398535D01*
X67323353Y-52398535D02*
X67323353Y-52141392D01*
X67323353Y-52141392D02*
X67366210Y-51798535D01*
X67366210Y-51798535D02*
X67409067Y-51627107D01*
X67409067Y-51627107D02*
X67494782Y-51455678D01*
X67494782Y-51455678D02*
X67623353Y-51369964D01*
X67623353Y-51369964D02*
X67709067Y-51369964D01*
X67709067Y-51369964D02*
X67837639Y-51455678D01*
X67837639Y-51455678D02*
X67880496Y-51541392D01*
X68266210Y-53169964D02*
X68266210Y-51369964D01*
X68266210Y-52227107D02*
X68780496Y-52227107D01*
X68780496Y-53169964D02*
X68780496Y-51369964D01*
X69209067Y-53169964D02*
X69209067Y-51369964D01*
X69637638Y-53169964D02*
X69637638Y-51369964D01*
X69637638Y-51369964D02*
X70151924Y-53169964D01*
X70151924Y-53169964D02*
X70151924Y-51369964D01*
X71051924Y-51455678D02*
X70966210Y-51369964D01*
X70966210Y-51369964D02*
X70837638Y-51369964D01*
X70837638Y-51369964D02*
X70709067Y-51455678D01*
X70709067Y-51455678D02*
X70623352Y-51627107D01*
X70623352Y-51627107D02*
X70580495Y-51798535D01*
X70580495Y-51798535D02*
X70537638Y-52141392D01*
X70537638Y-52141392D02*
X70537638Y-52398535D01*
X70537638Y-52398535D02*
X70580495Y-52741392D01*
X70580495Y-52741392D02*
X70623352Y-52912821D01*
X70623352Y-52912821D02*
X70709067Y-53084250D01*
X70709067Y-53084250D02*
X70837638Y-53169964D01*
X70837638Y-53169964D02*
X70923352Y-53169964D01*
X70923352Y-53169964D02*
X71051924Y-53084250D01*
X71051924Y-53084250D02*
X71094781Y-52998535D01*
X71094781Y-52998535D02*
X71094781Y-52398535D01*
X71094781Y-52398535D02*
X70923352Y-52398535D01*
X72166209Y-53169964D02*
X72166209Y-51369964D01*
X72166209Y-51369964D02*
X72466209Y-52655678D01*
X72466209Y-52655678D02*
X72766209Y-51369964D01*
X72766209Y-51369964D02*
X72766209Y-53169964D01*
X73366209Y-51369964D02*
X73537637Y-51369964D01*
X73537637Y-51369964D02*
X73623352Y-51455678D01*
X73623352Y-51455678D02*
X73709066Y-51627107D01*
X73709066Y-51627107D02*
X73751923Y-51969964D01*
X73751923Y-51969964D02*
X73751923Y-52569964D01*
X73751923Y-52569964D02*
X73709066Y-52912821D01*
X73709066Y-52912821D02*
X73623352Y-53084250D01*
X73623352Y-53084250D02*
X73537637Y-53169964D01*
X73537637Y-53169964D02*
X73366209Y-53169964D01*
X73366209Y-53169964D02*
X73280495Y-53084250D01*
X73280495Y-53084250D02*
X73194780Y-52912821D01*
X73194780Y-52912821D02*
X73151923Y-52569964D01*
X73151923Y-52569964D02*
X73151923Y-51969964D01*
X73151923Y-51969964D02*
X73194780Y-51627107D01*
X73194780Y-51627107D02*
X73280495Y-51455678D01*
X73280495Y-51455678D02*
X73366209Y-51369964D01*
X74137637Y-53169964D02*
X74137637Y-51369964D01*
X74137637Y-51369964D02*
X74351923Y-51369964D01*
X74351923Y-51369964D02*
X74480494Y-51455678D01*
X74480494Y-51455678D02*
X74566209Y-51627107D01*
X74566209Y-51627107D02*
X74609066Y-51798535D01*
X74609066Y-51798535D02*
X74651923Y-52141392D01*
X74651923Y-52141392D02*
X74651923Y-52398535D01*
X74651923Y-52398535D02*
X74609066Y-52741392D01*
X74609066Y-52741392D02*
X74566209Y-52912821D01*
X74566209Y-52912821D02*
X74480494Y-53084250D01*
X74480494Y-53084250D02*
X74351923Y-53169964D01*
X74351923Y-53169964D02*
X74137637Y-53169964D01*
X75037637Y-51369964D02*
X75037637Y-52827107D01*
X75037637Y-52827107D02*
X75080494Y-52998535D01*
X75080494Y-52998535D02*
X75123352Y-53084250D01*
X75123352Y-53084250D02*
X75209066Y-53169964D01*
X75209066Y-53169964D02*
X75380494Y-53169964D01*
X75380494Y-53169964D02*
X75466209Y-53084250D01*
X75466209Y-53084250D02*
X75509066Y-52998535D01*
X75509066Y-52998535D02*
X75551923Y-52827107D01*
X75551923Y-52827107D02*
X75551923Y-51369964D01*
X76409066Y-53169964D02*
X75980494Y-53169964D01*
X75980494Y-53169964D02*
X75980494Y-51369964D01*
X76709065Y-52227107D02*
X77009065Y-52227107D01*
X77137637Y-53169964D02*
X76709065Y-53169964D01*
X76709065Y-53169964D02*
X76709065Y-51369964D01*
X76709065Y-51369964D02*
X77137637Y-51369964D01*
X78080494Y-51369964D02*
X78380494Y-53169964D01*
X78380494Y-53169964D02*
X78680494Y-51369964D01*
X78894780Y-51369964D02*
X79451923Y-51369964D01*
X79451923Y-51369964D02*
X79151923Y-52055678D01*
X79151923Y-52055678D02*
X79280494Y-52055678D01*
X79280494Y-52055678D02*
X79366209Y-52141392D01*
X79366209Y-52141392D02*
X79409066Y-52227107D01*
X79409066Y-52227107D02*
X79451923Y-52398535D01*
X79451923Y-52398535D02*
X79451923Y-52827107D01*
X79451923Y-52827107D02*
X79409066Y-52998535D01*
X79409066Y-52998535D02*
X79366209Y-53084250D01*
X79366209Y-53084250D02*
X79280494Y-53169964D01*
X79280494Y-53169964D02*
X79023351Y-53169964D01*
X79023351Y-53169964D02*
X78937637Y-53084250D01*
X78937637Y-53084250D02*
X78894780Y-52998535D01*
X79837637Y-52998535D02*
X79880494Y-53084250D01*
X79880494Y-53084250D02*
X79837637Y-53169964D01*
X79837637Y-53169964D02*
X79794780Y-53084250D01*
X79794780Y-53084250D02*
X79837637Y-52998535D01*
X79837637Y-52998535D02*
X79837637Y-53169964D01*
X80437637Y-51369964D02*
X80523351Y-51369964D01*
X80523351Y-51369964D02*
X80609065Y-51455678D01*
X80609065Y-51455678D02*
X80651923Y-51541392D01*
X80651923Y-51541392D02*
X80694780Y-51712821D01*
X80694780Y-51712821D02*
X80737637Y-52055678D01*
X80737637Y-52055678D02*
X80737637Y-52484250D01*
X80737637Y-52484250D02*
X80694780Y-52827107D01*
X80694780Y-52827107D02*
X80651923Y-52998535D01*
X80651923Y-52998535D02*
X80609065Y-53084250D01*
X80609065Y-53084250D02*
X80523351Y-53169964D01*
X80523351Y-53169964D02*
X80437637Y-53169964D01*
X80437637Y-53169964D02*
X80351923Y-53084250D01*
X80351923Y-53084250D02*
X80309065Y-52998535D01*
X80309065Y-52998535D02*
X80266208Y-52827107D01*
X80266208Y-52827107D02*
X80223351Y-52484250D01*
X80223351Y-52484250D02*
X80223351Y-52055678D01*
X80223351Y-52055678D02*
X80266208Y-51712821D01*
X80266208Y-51712821D02*
X80309065Y-51541392D01*
X80309065Y-51541392D02*
X80351923Y-51455678D01*
X80351923Y-51455678D02*
X80437637Y-51369964D01*
X82023351Y-53769964D02*
X82023351Y-51198535D01*
X83651922Y-52227107D02*
X83780494Y-52312821D01*
X83780494Y-52312821D02*
X83823351Y-52398535D01*
X83823351Y-52398535D02*
X83866208Y-52569964D01*
X83866208Y-52569964D02*
X83866208Y-52827107D01*
X83866208Y-52827107D02*
X83823351Y-52998535D01*
X83823351Y-52998535D02*
X83780494Y-53084250D01*
X83780494Y-53084250D02*
X83694779Y-53169964D01*
X83694779Y-53169964D02*
X83351922Y-53169964D01*
X83351922Y-53169964D02*
X83351922Y-51369964D01*
X83351922Y-51369964D02*
X83651922Y-51369964D01*
X83651922Y-51369964D02*
X83737637Y-51455678D01*
X83737637Y-51455678D02*
X83780494Y-51541392D01*
X83780494Y-51541392D02*
X83823351Y-51712821D01*
X83823351Y-51712821D02*
X83823351Y-51884250D01*
X83823351Y-51884250D02*
X83780494Y-52055678D01*
X83780494Y-52055678D02*
X83737637Y-52141392D01*
X83737637Y-52141392D02*
X83651922Y-52227107D01*
X83651922Y-52227107D02*
X83351922Y-52227107D01*
X84251922Y-52998535D02*
X84294779Y-53084250D01*
X84294779Y-53084250D02*
X84251922Y-53169964D01*
X84251922Y-53169964D02*
X84209065Y-53084250D01*
X84209065Y-53084250D02*
X84251922Y-52998535D01*
X84251922Y-52998535D02*
X84251922Y-53169964D01*
X84980493Y-52227107D02*
X84680493Y-52227107D01*
X84680493Y-53169964D02*
X84680493Y-51369964D01*
X84680493Y-51369964D02*
X85109065Y-51369964D01*
X85451922Y-52998535D02*
X85494779Y-53084250D01*
X85494779Y-53084250D02*
X85451922Y-53169964D01*
X85451922Y-53169964D02*
X85409065Y-53084250D01*
X85409065Y-53084250D02*
X85451922Y-52998535D01*
X85451922Y-52998535D02*
X85451922Y-53169964D01*
X86866207Y-52227107D02*
X86566207Y-52227107D01*
X86566207Y-53169964D02*
X86566207Y-51369964D01*
X86566207Y-51369964D02*
X86994779Y-51369964D01*
X87680493Y-53084250D02*
X87594779Y-53169964D01*
X87594779Y-53169964D02*
X87423351Y-53169964D01*
X87423351Y-53169964D02*
X87337636Y-53084250D01*
X87337636Y-53084250D02*
X87294779Y-52912821D01*
X87294779Y-52912821D02*
X87294779Y-52227107D01*
X87294779Y-52227107D02*
X87337636Y-52055678D01*
X87337636Y-52055678D02*
X87423351Y-51969964D01*
X87423351Y-51969964D02*
X87594779Y-51969964D01*
X87594779Y-51969964D02*
X87680493Y-52055678D01*
X87680493Y-52055678D02*
X87723351Y-52227107D01*
X87723351Y-52227107D02*
X87723351Y-52398535D01*
X87723351Y-52398535D02*
X87294779Y-52569964D01*
X88109065Y-53169964D02*
X88109065Y-51369964D01*
X88109065Y-52055678D02*
X88194780Y-51969964D01*
X88194780Y-51969964D02*
X88366208Y-51969964D01*
X88366208Y-51969964D02*
X88451922Y-52055678D01*
X88451922Y-52055678D02*
X88494780Y-52141392D01*
X88494780Y-52141392D02*
X88537637Y-52312821D01*
X88537637Y-52312821D02*
X88537637Y-52827107D01*
X88537637Y-52827107D02*
X88494780Y-52998535D01*
X88494780Y-52998535D02*
X88451922Y-53084250D01*
X88451922Y-53084250D02*
X88366208Y-53169964D01*
X88366208Y-53169964D02*
X88194780Y-53169964D01*
X88194780Y-53169964D02*
X88109065Y-53084250D01*
X89651922Y-51369964D02*
X89566208Y-51712821D01*
X89994779Y-51541392D02*
X90037636Y-51455678D01*
X90037636Y-51455678D02*
X90123351Y-51369964D01*
X90123351Y-51369964D02*
X90337636Y-51369964D01*
X90337636Y-51369964D02*
X90423351Y-51455678D01*
X90423351Y-51455678D02*
X90466208Y-51541392D01*
X90466208Y-51541392D02*
X90509065Y-51712821D01*
X90509065Y-51712821D02*
X90509065Y-51884250D01*
X90509065Y-51884250D02*
X90466208Y-52141392D01*
X90466208Y-52141392D02*
X89951922Y-53169964D01*
X89951922Y-53169964D02*
X90509065Y-53169964D01*
X91323351Y-51369964D02*
X90894779Y-51369964D01*
X90894779Y-51369964D02*
X90851922Y-52227107D01*
X90851922Y-52227107D02*
X90894779Y-52141392D01*
X90894779Y-52141392D02*
X90980494Y-52055678D01*
X90980494Y-52055678D02*
X91194779Y-52055678D01*
X91194779Y-52055678D02*
X91280494Y-52141392D01*
X91280494Y-52141392D02*
X91323351Y-52227107D01*
X91323351Y-52227107D02*
X91366208Y-52398535D01*
X91366208Y-52398535D02*
X91366208Y-52827107D01*
X91366208Y-52827107D02*
X91323351Y-52998535D01*
X91323351Y-52998535D02*
X91280494Y-53084250D01*
X91280494Y-53084250D02*
X91194779Y-53169964D01*
X91194779Y-53169964D02*
X90980494Y-53169964D01*
X90980494Y-53169964D02*
X90894779Y-53084250D01*
X90894779Y-53084250D02*
X90851922Y-52998535D01*
D10*
X52875312Y-50204442D02*
X52927693Y-50152061D01*
X52927693Y-50152061D02*
X53032455Y-50099680D01*
X53032455Y-50099680D02*
X53294360Y-50099680D01*
X53294360Y-50099680D02*
X53399122Y-50152061D01*
X53399122Y-50152061D02*
X53451503Y-50204442D01*
X53451503Y-50204442D02*
X53503884Y-50309204D01*
X53503884Y-50309204D02*
X53503884Y-50413966D01*
X53503884Y-50413966D02*
X53451503Y-50571109D01*
X53451503Y-50571109D02*
X52822931Y-51199680D01*
X52822931Y-51199680D02*
X53503884Y-51199680D01*
X54184836Y-50099680D02*
X54289598Y-50099680D01*
X54289598Y-50099680D02*
X54394360Y-50152061D01*
X54394360Y-50152061D02*
X54446741Y-50204442D01*
X54446741Y-50204442D02*
X54499122Y-50309204D01*
X54499122Y-50309204D02*
X54551503Y-50518728D01*
X54551503Y-50518728D02*
X54551503Y-50780633D01*
X54551503Y-50780633D02*
X54499122Y-50990157D01*
X54499122Y-50990157D02*
X54446741Y-51094919D01*
X54446741Y-51094919D02*
X54394360Y-51147300D01*
X54394360Y-51147300D02*
X54289598Y-51199680D01*
X54289598Y-51199680D02*
X54184836Y-51199680D01*
X54184836Y-51199680D02*
X54080074Y-51147300D01*
X54080074Y-51147300D02*
X54027693Y-51094919D01*
X54027693Y-51094919D02*
X53975312Y-50990157D01*
X53975312Y-50990157D02*
X53922931Y-50780633D01*
X53922931Y-50780633D02*
X53922931Y-50518728D01*
X53922931Y-50518728D02*
X53975312Y-50309204D01*
X53975312Y-50309204D02*
X54027693Y-50204442D01*
X54027693Y-50204442D02*
X54080074Y-50152061D01*
X54080074Y-50152061D02*
X54184836Y-50099680D01*
X62273166Y-54735714D02*
X62244594Y-54821429D01*
X62244594Y-54821429D02*
X62244594Y-54964286D01*
X62244594Y-54964286D02*
X62273166Y-55021429D01*
X62273166Y-55021429D02*
X62301737Y-55050000D01*
X62301737Y-55050000D02*
X62358880Y-55078571D01*
X62358880Y-55078571D02*
X62416023Y-55078571D01*
X62416023Y-55078571D02*
X62473166Y-55050000D01*
X62473166Y-55050000D02*
X62501737Y-55021429D01*
X62501737Y-55021429D02*
X62530308Y-54964286D01*
X62530308Y-54964286D02*
X62558880Y-54850000D01*
X62558880Y-54850000D02*
X62587451Y-54792857D01*
X62587451Y-54792857D02*
X62616023Y-54764286D01*
X62616023Y-54764286D02*
X62673166Y-54735714D01*
X62673166Y-54735714D02*
X62730308Y-54735714D01*
X62730308Y-54735714D02*
X62787451Y-54764286D01*
X62787451Y-54764286D02*
X62816023Y-54792857D01*
X62816023Y-54792857D02*
X62844594Y-54850000D01*
X62844594Y-54850000D02*
X62844594Y-54992857D01*
X62844594Y-54992857D02*
X62816023Y-55078571D01*
X62244594Y-55621429D02*
X62244594Y-55335715D01*
X62244594Y-55335715D02*
X62844594Y-55335715D01*
X61050057Y-54278571D02*
X61078628Y-54250000D01*
X61078628Y-54250000D02*
X61164342Y-54192857D01*
X61164342Y-54192857D02*
X61221485Y-54164286D01*
X61221485Y-54164286D02*
X61307200Y-54135714D01*
X61307200Y-54135714D02*
X61450057Y-54107143D01*
X61450057Y-54107143D02*
X61564342Y-54107143D01*
X61564342Y-54107143D02*
X61707200Y-54135714D01*
X61707200Y-54135714D02*
X61792914Y-54164286D01*
X61792914Y-54164286D02*
X61850057Y-54192857D01*
X61850057Y-54192857D02*
X61935771Y-54250000D01*
X61935771Y-54250000D02*
X61964342Y-54278571D01*
X61278628Y-54507143D02*
X61878628Y-54507143D01*
X61278628Y-54792857D02*
X61878628Y-54792857D01*
X61878628Y-54792857D02*
X61450057Y-54992857D01*
X61450057Y-54992857D02*
X61878628Y-55192857D01*
X61878628Y-55192857D02*
X61278628Y-55192857D01*
X61278628Y-55478571D02*
X61878628Y-55478571D01*
X61878628Y-55478571D02*
X61878628Y-55621428D01*
X61878628Y-55621428D02*
X61850057Y-55707142D01*
X61850057Y-55707142D02*
X61792914Y-55764285D01*
X61792914Y-55764285D02*
X61735771Y-55792856D01*
X61735771Y-55792856D02*
X61621485Y-55821428D01*
X61621485Y-55821428D02*
X61535771Y-55821428D01*
X61535771Y-55821428D02*
X61421485Y-55792856D01*
X61421485Y-55792856D02*
X61364342Y-55764285D01*
X61364342Y-55764285D02*
X61307200Y-55707142D01*
X61307200Y-55707142D02*
X61278628Y-55621428D01*
X61278628Y-55621428D02*
X61278628Y-55478571D01*
X61050057Y-56021428D02*
X61078628Y-56049999D01*
X61078628Y-56049999D02*
X61164342Y-56107142D01*
X61164342Y-56107142D02*
X61221485Y-56135714D01*
X61221485Y-56135714D02*
X61307200Y-56164285D01*
X61307200Y-56164285D02*
X61450057Y-56192856D01*
X61450057Y-56192856D02*
X61564342Y-56192856D01*
X61564342Y-56192856D02*
X61707200Y-56164285D01*
X61707200Y-56164285D02*
X61792914Y-56135714D01*
X61792914Y-56135714D02*
X61850057Y-56107142D01*
X61850057Y-56107142D02*
X61935771Y-56049999D01*
X61935771Y-56049999D02*
X61964342Y-56021428D01*
D11*
X88984398Y-56269819D02*
X88470112Y-56269819D01*
X88727255Y-56269819D02*
X88727255Y-55269819D01*
X88727255Y-55269819D02*
X88641541Y-55412676D01*
X88641541Y-55412676D02*
X88555826Y-55507914D01*
X88555826Y-55507914D02*
X88470112Y-55555533D01*
X89370112Y-56269819D02*
X89370112Y-55269819D01*
X89455827Y-55888866D02*
X89712969Y-56269819D01*
X89712969Y-55603152D02*
X89370112Y-55984104D01*
D10*
X84896428Y-98995556D02*
X84896428Y-98245556D01*
X85253571Y-98995556D02*
X85253571Y-98245556D01*
X85253571Y-98245556D02*
X85503571Y-98781270D01*
X85503571Y-98781270D02*
X85753571Y-98245556D01*
X85753571Y-98245556D02*
X85753571Y-98995556D01*
X86110714Y-98995556D02*
X86110714Y-98245556D01*
X86110714Y-98245556D02*
X86289285Y-98245556D01*
X86289285Y-98245556D02*
X86396428Y-98281270D01*
X86396428Y-98281270D02*
X86467857Y-98352699D01*
X86467857Y-98352699D02*
X86503571Y-98424127D01*
X86503571Y-98424127D02*
X86539285Y-98566984D01*
X86539285Y-98566984D02*
X86539285Y-98674127D01*
X86539285Y-98674127D02*
X86503571Y-98816984D01*
X86503571Y-98816984D02*
X86467857Y-98888413D01*
X86467857Y-98888413D02*
X86396428Y-98959842D01*
X86396428Y-98959842D02*
X86289285Y-98995556D01*
X86289285Y-98995556D02*
X86110714Y-98995556D01*
X83842857Y-100167300D02*
X83950000Y-100203014D01*
X83950000Y-100203014D02*
X84128571Y-100203014D01*
X84128571Y-100203014D02*
X84200000Y-100167300D01*
X84200000Y-100167300D02*
X84235714Y-100131585D01*
X84235714Y-100131585D02*
X84271428Y-100060157D01*
X84271428Y-100060157D02*
X84271428Y-99988728D01*
X84271428Y-99988728D02*
X84235714Y-99917300D01*
X84235714Y-99917300D02*
X84200000Y-99881585D01*
X84200000Y-99881585D02*
X84128571Y-99845871D01*
X84128571Y-99845871D02*
X83985714Y-99810157D01*
X83985714Y-99810157D02*
X83914285Y-99774442D01*
X83914285Y-99774442D02*
X83878571Y-99738728D01*
X83878571Y-99738728D02*
X83842857Y-99667300D01*
X83842857Y-99667300D02*
X83842857Y-99595871D01*
X83842857Y-99595871D02*
X83878571Y-99524442D01*
X83878571Y-99524442D02*
X83914285Y-99488728D01*
X83914285Y-99488728D02*
X83985714Y-99453014D01*
X83985714Y-99453014D02*
X84164285Y-99453014D01*
X84164285Y-99453014D02*
X84271428Y-99488728D01*
X84485714Y-99453014D02*
X84914286Y-99453014D01*
X84700000Y-100203014D02*
X84700000Y-99453014D01*
X85128572Y-99988728D02*
X85485715Y-99988728D01*
X85057143Y-100203014D02*
X85307143Y-99453014D01*
X85307143Y-99453014D02*
X85557143Y-100203014D01*
X85700000Y-99453014D02*
X86128572Y-99453014D01*
X85914286Y-100203014D02*
X85914286Y-99453014D01*
X86378572Y-99453014D02*
X86378572Y-100060157D01*
X86378572Y-100060157D02*
X86414286Y-100131585D01*
X86414286Y-100131585D02*
X86450001Y-100167300D01*
X86450001Y-100167300D02*
X86521429Y-100203014D01*
X86521429Y-100203014D02*
X86664286Y-100203014D01*
X86664286Y-100203014D02*
X86735715Y-100167300D01*
X86735715Y-100167300D02*
X86771429Y-100131585D01*
X86771429Y-100131585D02*
X86807143Y-100060157D01*
X86807143Y-100060157D02*
X86807143Y-99453014D01*
X87128572Y-100167300D02*
X87235715Y-100203014D01*
X87235715Y-100203014D02*
X87414286Y-100203014D01*
X87414286Y-100203014D02*
X87485715Y-100167300D01*
X87485715Y-100167300D02*
X87521429Y-100131585D01*
X87521429Y-100131585D02*
X87557143Y-100060157D01*
X87557143Y-100060157D02*
X87557143Y-99988728D01*
X87557143Y-99988728D02*
X87521429Y-99917300D01*
X87521429Y-99917300D02*
X87485715Y-99881585D01*
X87485715Y-99881585D02*
X87414286Y-99845871D01*
X87414286Y-99845871D02*
X87271429Y-99810157D01*
X87271429Y-99810157D02*
X87200000Y-99774442D01*
X87200000Y-99774442D02*
X87164286Y-99738728D01*
X87164286Y-99738728D02*
X87128572Y-99667300D01*
X87128572Y-99667300D02*
X87128572Y-99595871D01*
X87128572Y-99595871D02*
X87164286Y-99524442D01*
X87164286Y-99524442D02*
X87200000Y-99488728D01*
X87200000Y-99488728D02*
X87271429Y-99453014D01*
X87271429Y-99453014D02*
X87450000Y-99453014D01*
X87450000Y-99453014D02*
X87557143Y-99488728D01*
D11*
X88984398Y-59469819D02*
X88470112Y-59469819D01*
X88727255Y-59469819D02*
X88727255Y-58469819D01*
X88727255Y-58469819D02*
X88641541Y-58612676D01*
X88641541Y-58612676D02*
X88555826Y-58707914D01*
X88555826Y-58707914D02*
X88470112Y-58755533D01*
X89370112Y-59469819D02*
X89370112Y-58469819D01*
X89455827Y-59088866D02*
X89712969Y-59469819D01*
X89712969Y-58803152D02*
X89370112Y-59184104D01*
X68396066Y-55688200D02*
X68434161Y-55631057D01*
X68434161Y-55631057D02*
X68510352Y-55573914D01*
X68510352Y-55573914D02*
X68662733Y-55688200D01*
X68662733Y-55688200D02*
X68738923Y-55631057D01*
X68738923Y-55631057D02*
X68777018Y-55573914D01*
X69081781Y-56145342D02*
X69081781Y-54945342D01*
X69081781Y-54945342D02*
X69386543Y-54945342D01*
X69386543Y-54945342D02*
X69462733Y-55002485D01*
X69462733Y-55002485D02*
X69500828Y-55059628D01*
X69500828Y-55059628D02*
X69538924Y-55173914D01*
X69538924Y-55173914D02*
X69538924Y-55345342D01*
X69538924Y-55345342D02*
X69500828Y-55459628D01*
X69500828Y-55459628D02*
X69462733Y-55516771D01*
X69462733Y-55516771D02*
X69386543Y-55573914D01*
X69386543Y-55573914D02*
X69081781Y-55573914D01*
X69881781Y-56145342D02*
X69881781Y-54945342D01*
X70262733Y-56145342D02*
X70262733Y-54945342D01*
X70262733Y-54945342D02*
X70719876Y-56145342D01*
X70719876Y-56145342D02*
X70719876Y-54945342D01*
X71253209Y-54945342D02*
X71405590Y-54945342D01*
X71405590Y-54945342D02*
X71481780Y-55002485D01*
X71481780Y-55002485D02*
X71557971Y-55116771D01*
X71557971Y-55116771D02*
X71596066Y-55345342D01*
X71596066Y-55345342D02*
X71596066Y-55745342D01*
X71596066Y-55745342D02*
X71557971Y-55973914D01*
X71557971Y-55973914D02*
X71481780Y-56088200D01*
X71481780Y-56088200D02*
X71405590Y-56145342D01*
X71405590Y-56145342D02*
X71253209Y-56145342D01*
X71253209Y-56145342D02*
X71177018Y-56088200D01*
X71177018Y-56088200D02*
X71100828Y-55973914D01*
X71100828Y-55973914D02*
X71062732Y-55745342D01*
X71062732Y-55745342D02*
X71062732Y-55345342D01*
X71062732Y-55345342D02*
X71100828Y-55116771D01*
X71100828Y-55116771D02*
X71177018Y-55002485D01*
X71177018Y-55002485D02*
X71253209Y-54945342D01*
X71938923Y-54945342D02*
X71938923Y-55916771D01*
X71938923Y-55916771D02*
X71977018Y-56031057D01*
X71977018Y-56031057D02*
X72015113Y-56088200D01*
X72015113Y-56088200D02*
X72091304Y-56145342D01*
X72091304Y-56145342D02*
X72243685Y-56145342D01*
X72243685Y-56145342D02*
X72319875Y-56088200D01*
X72319875Y-56088200D02*
X72357970Y-56031057D01*
X72357970Y-56031057D02*
X72396066Y-55916771D01*
X72396066Y-55916771D02*
X72396066Y-54945342D01*
X72662732Y-54945342D02*
X73119875Y-54945342D01*
X72891303Y-56145342D02*
X72891303Y-54945342D01*
X73272256Y-55688200D02*
X73310351Y-55631057D01*
X73310351Y-55631057D02*
X73386542Y-55573914D01*
X73386542Y-55573914D02*
X73538923Y-55688200D01*
X73538923Y-55688200D02*
X73615113Y-55631057D01*
X73615113Y-55631057D02*
X73653208Y-55573914D01*
D10*
X53103884Y-99459680D02*
X52475312Y-99459680D01*
X52789598Y-99459680D02*
X52789598Y-98359680D01*
X52789598Y-98359680D02*
X52684836Y-98516823D01*
X52684836Y-98516823D02*
X52580074Y-98621585D01*
X52580074Y-98621585D02*
X52475312Y-98673966D01*
X61978628Y-58397217D02*
X61378628Y-58597217D01*
X61378628Y-58597217D02*
X61978628Y-58797217D01*
X61378628Y-58997218D02*
X61978628Y-58997218D01*
X61750057Y-58997218D02*
X61778628Y-59054361D01*
X61778628Y-59054361D02*
X61778628Y-59168646D01*
X61778628Y-59168646D02*
X61750057Y-59225789D01*
X61750057Y-59225789D02*
X61721485Y-59254361D01*
X61721485Y-59254361D02*
X61664342Y-59282932D01*
X61664342Y-59282932D02*
X61492914Y-59282932D01*
X61492914Y-59282932D02*
X61435771Y-59254361D01*
X61435771Y-59254361D02*
X61407200Y-59225789D01*
X61407200Y-59225789D02*
X61378628Y-59168646D01*
X61378628Y-59168646D02*
X61378628Y-59054361D01*
X61378628Y-59054361D02*
X61407200Y-58997218D01*
X61378628Y-59797218D02*
X61692914Y-59797218D01*
X61692914Y-59797218D02*
X61750057Y-59768646D01*
X61750057Y-59768646D02*
X61778628Y-59711503D01*
X61778628Y-59711503D02*
X61778628Y-59597218D01*
X61778628Y-59597218D02*
X61750057Y-59540075D01*
X61407200Y-59797218D02*
X61378628Y-59740075D01*
X61378628Y-59740075D02*
X61378628Y-59597218D01*
X61378628Y-59597218D02*
X61407200Y-59540075D01*
X61407200Y-59540075D02*
X61464342Y-59511503D01*
X61464342Y-59511503D02*
X61521485Y-59511503D01*
X61521485Y-59511503D02*
X61578628Y-59540075D01*
X61578628Y-59540075D02*
X61607200Y-59597218D01*
X61607200Y-59597218D02*
X61607200Y-59740075D01*
X61607200Y-59740075D02*
X61635771Y-59797218D01*
X61778628Y-59997217D02*
X61778628Y-60225789D01*
X61978628Y-60082932D02*
X61464342Y-60082932D01*
X61464342Y-60082932D02*
X61407200Y-60111503D01*
X61407200Y-60111503D02*
X61378628Y-60168646D01*
X61378628Y-60168646D02*
X61378628Y-60225789D01*
X61778628Y-60340074D02*
X61778628Y-60568646D01*
X61978628Y-60425789D02*
X61464342Y-60425789D01*
X61464342Y-60425789D02*
X61407200Y-60454360D01*
X61407200Y-60454360D02*
X61378628Y-60511503D01*
X61378628Y-60511503D02*
X61378628Y-60568646D01*
X61378628Y-61225789D02*
X61978628Y-61225789D01*
X61778628Y-61511503D02*
X61378628Y-61511503D01*
X61721485Y-61511503D02*
X61750057Y-61540074D01*
X61750057Y-61540074D02*
X61778628Y-61597217D01*
X61778628Y-61597217D02*
X61778628Y-61682931D01*
X61778628Y-61682931D02*
X61750057Y-61740074D01*
X61750057Y-61740074D02*
X61692914Y-61768646D01*
X61692914Y-61768646D02*
X61378628Y-61768646D01*
X81396429Y-62059842D02*
X81503572Y-62095556D01*
X81503572Y-62095556D02*
X81682143Y-62095556D01*
X81682143Y-62095556D02*
X81753572Y-62059842D01*
X81753572Y-62059842D02*
X81789286Y-62024127D01*
X81789286Y-62024127D02*
X81825000Y-61952699D01*
X81825000Y-61952699D02*
X81825000Y-61881270D01*
X81825000Y-61881270D02*
X81789286Y-61809842D01*
X81789286Y-61809842D02*
X81753572Y-61774127D01*
X81753572Y-61774127D02*
X81682143Y-61738413D01*
X81682143Y-61738413D02*
X81539286Y-61702699D01*
X81539286Y-61702699D02*
X81467857Y-61666984D01*
X81467857Y-61666984D02*
X81432143Y-61631270D01*
X81432143Y-61631270D02*
X81396429Y-61559842D01*
X81396429Y-61559842D02*
X81396429Y-61488413D01*
X81396429Y-61488413D02*
X81432143Y-61416984D01*
X81432143Y-61416984D02*
X81467857Y-61381270D01*
X81467857Y-61381270D02*
X81539286Y-61345556D01*
X81539286Y-61345556D02*
X81717857Y-61345556D01*
X81717857Y-61345556D02*
X81825000Y-61381270D01*
X82110715Y-61881270D02*
X82467858Y-61881270D01*
X82039286Y-62095556D02*
X82289286Y-61345556D01*
X82289286Y-61345556D02*
X82539286Y-62095556D01*
X83039286Y-61702699D02*
X82789286Y-61702699D01*
X82789286Y-62095556D02*
X82789286Y-61345556D01*
X82789286Y-61345556D02*
X83146429Y-61345556D01*
X83432143Y-61702699D02*
X83682143Y-61702699D01*
X83789286Y-62095556D02*
X83432143Y-62095556D01*
X83432143Y-62095556D02*
X83432143Y-61345556D01*
X83432143Y-61345556D02*
X83789286Y-61345556D01*
X84003571Y-61345556D02*
X84432143Y-61345556D01*
X84217857Y-62095556D02*
X84217857Y-61345556D01*
X84825000Y-61738413D02*
X84825000Y-62095556D01*
X84575000Y-61345556D02*
X84825000Y-61738413D01*
X84825000Y-61738413D02*
X85075000Y-61345556D01*
X82271429Y-63303014D02*
X81914286Y-63303014D01*
X81914286Y-63303014D02*
X81914286Y-62553014D01*
X82664286Y-62553014D02*
X82807143Y-62553014D01*
X82807143Y-62553014D02*
X82878572Y-62588728D01*
X82878572Y-62588728D02*
X82950000Y-62660157D01*
X82950000Y-62660157D02*
X82985715Y-62803014D01*
X82985715Y-62803014D02*
X82985715Y-63053014D01*
X82985715Y-63053014D02*
X82950000Y-63195871D01*
X82950000Y-63195871D02*
X82878572Y-63267300D01*
X82878572Y-63267300D02*
X82807143Y-63303014D01*
X82807143Y-63303014D02*
X82664286Y-63303014D01*
X82664286Y-63303014D02*
X82592858Y-63267300D01*
X82592858Y-63267300D02*
X82521429Y-63195871D01*
X82521429Y-63195871D02*
X82485715Y-63053014D01*
X82485715Y-63053014D02*
X82485715Y-62803014D01*
X82485715Y-62803014D02*
X82521429Y-62660157D01*
X82521429Y-62660157D02*
X82592858Y-62588728D01*
X82592858Y-62588728D02*
X82664286Y-62553014D01*
X83450000Y-62553014D02*
X83592857Y-62553014D01*
X83592857Y-62553014D02*
X83664286Y-62588728D01*
X83664286Y-62588728D02*
X83735714Y-62660157D01*
X83735714Y-62660157D02*
X83771429Y-62803014D01*
X83771429Y-62803014D02*
X83771429Y-63053014D01*
X83771429Y-63053014D02*
X83735714Y-63195871D01*
X83735714Y-63195871D02*
X83664286Y-63267300D01*
X83664286Y-63267300D02*
X83592857Y-63303014D01*
X83592857Y-63303014D02*
X83450000Y-63303014D01*
X83450000Y-63303014D02*
X83378572Y-63267300D01*
X83378572Y-63267300D02*
X83307143Y-63195871D01*
X83307143Y-63195871D02*
X83271429Y-63053014D01*
X83271429Y-63053014D02*
X83271429Y-62803014D01*
X83271429Y-62803014D02*
X83307143Y-62660157D01*
X83307143Y-62660157D02*
X83378572Y-62588728D01*
X83378572Y-62588728D02*
X83450000Y-62553014D01*
X84092857Y-63303014D02*
X84092857Y-62553014D01*
X84092857Y-62553014D02*
X84378571Y-62553014D01*
X84378571Y-62553014D02*
X84450000Y-62588728D01*
X84450000Y-62588728D02*
X84485714Y-62624442D01*
X84485714Y-62624442D02*
X84521428Y-62695871D01*
X84521428Y-62695871D02*
X84521428Y-62803014D01*
X84521428Y-62803014D02*
X84485714Y-62874442D01*
X84485714Y-62874442D02*
X84450000Y-62910157D01*
X84450000Y-62910157D02*
X84378571Y-62945871D01*
X84378571Y-62945871D02*
X84092857Y-62945871D01*
X90177143Y-81672371D02*
X90177143Y-81072371D01*
X90177143Y-81072371D02*
X90320000Y-81072371D01*
X90320000Y-81072371D02*
X90405714Y-81100942D01*
X90405714Y-81100942D02*
X90462857Y-81158085D01*
X90462857Y-81158085D02*
X90491428Y-81215228D01*
X90491428Y-81215228D02*
X90520000Y-81329514D01*
X90520000Y-81329514D02*
X90520000Y-81415228D01*
X90520000Y-81415228D02*
X90491428Y-81529514D01*
X90491428Y-81529514D02*
X90462857Y-81586657D01*
X90462857Y-81586657D02*
X90405714Y-81643800D01*
X90405714Y-81643800D02*
X90320000Y-81672371D01*
X90320000Y-81672371D02*
X90177143Y-81672371D01*
X91091428Y-81672371D02*
X90748571Y-81672371D01*
X90920000Y-81672371D02*
X90920000Y-81072371D01*
X90920000Y-81072371D02*
X90862857Y-81158085D01*
X90862857Y-81158085D02*
X90805714Y-81215228D01*
X90805714Y-81215228D02*
X90748571Y-81243800D01*
X88077143Y-81672371D02*
X88077143Y-81072371D01*
X88077143Y-81072371D02*
X88220000Y-81072371D01*
X88220000Y-81072371D02*
X88305714Y-81100942D01*
X88305714Y-81100942D02*
X88362857Y-81158085D01*
X88362857Y-81158085D02*
X88391428Y-81215228D01*
X88391428Y-81215228D02*
X88420000Y-81329514D01*
X88420000Y-81329514D02*
X88420000Y-81415228D01*
X88420000Y-81415228D02*
X88391428Y-81529514D01*
X88391428Y-81529514D02*
X88362857Y-81586657D01*
X88362857Y-81586657D02*
X88305714Y-81643800D01*
X88305714Y-81643800D02*
X88220000Y-81672371D01*
X88220000Y-81672371D02*
X88077143Y-81672371D01*
X88648571Y-81129514D02*
X88677143Y-81100942D01*
X88677143Y-81100942D02*
X88734286Y-81072371D01*
X88734286Y-81072371D02*
X88877143Y-81072371D01*
X88877143Y-81072371D02*
X88934286Y-81100942D01*
X88934286Y-81100942D02*
X88962857Y-81129514D01*
X88962857Y-81129514D02*
X88991428Y-81186657D01*
X88991428Y-81186657D02*
X88991428Y-81243800D01*
X88991428Y-81243800D02*
X88962857Y-81329514D01*
X88962857Y-81329514D02*
X88620000Y-81672371D01*
X88620000Y-81672371D02*
X88991428Y-81672371D01*
D11*
X86766667Y-88677200D02*
X86909524Y-88724819D01*
X86909524Y-88724819D02*
X87147619Y-88724819D01*
X87147619Y-88724819D02*
X87242857Y-88677200D01*
X87242857Y-88677200D02*
X87290476Y-88629580D01*
X87290476Y-88629580D02*
X87338095Y-88534342D01*
X87338095Y-88534342D02*
X87338095Y-88439104D01*
X87338095Y-88439104D02*
X87290476Y-88343866D01*
X87290476Y-88343866D02*
X87242857Y-88296247D01*
X87242857Y-88296247D02*
X87147619Y-88248628D01*
X87147619Y-88248628D02*
X86957143Y-88201009D01*
X86957143Y-88201009D02*
X86861905Y-88153390D01*
X86861905Y-88153390D02*
X86814286Y-88105771D01*
X86814286Y-88105771D02*
X86766667Y-88010533D01*
X86766667Y-88010533D02*
X86766667Y-87915295D01*
X86766667Y-87915295D02*
X86814286Y-87820057D01*
X86814286Y-87820057D02*
X86861905Y-87772438D01*
X86861905Y-87772438D02*
X86957143Y-87724819D01*
X86957143Y-87724819D02*
X87195238Y-87724819D01*
X87195238Y-87724819D02*
X87338095Y-87772438D01*
X87671429Y-87724819D02*
X87909524Y-88724819D01*
X87909524Y-88724819D02*
X88100000Y-88010533D01*
X88100000Y-88010533D02*
X88290476Y-88724819D01*
X88290476Y-88724819D02*
X88528572Y-87724819D01*
X89433333Y-88724819D02*
X88861905Y-88724819D01*
X89147619Y-88724819D02*
X89147619Y-87724819D01*
X89147619Y-87724819D02*
X89052381Y-87867676D01*
X89052381Y-87867676D02*
X88957143Y-87962914D01*
X88957143Y-87962914D02*
X88861905Y-88010533D01*
X86220000Y-89824819D02*
X86220000Y-90062914D01*
X85981905Y-89967676D02*
X86220000Y-90062914D01*
X86220000Y-90062914D02*
X86458095Y-89967676D01*
X86077143Y-90253390D02*
X86220000Y-90062914D01*
X86220000Y-90062914D02*
X86362857Y-90253390D01*
D10*
X85579543Y-67879971D02*
X85579543Y-67279971D01*
X85579543Y-67279971D02*
X85722400Y-67279971D01*
X85722400Y-67279971D02*
X85808114Y-67308542D01*
X85808114Y-67308542D02*
X85865257Y-67365685D01*
X85865257Y-67365685D02*
X85893828Y-67422828D01*
X85893828Y-67422828D02*
X85922400Y-67537114D01*
X85922400Y-67537114D02*
X85922400Y-67622828D01*
X85922400Y-67622828D02*
X85893828Y-67737114D01*
X85893828Y-67737114D02*
X85865257Y-67794257D01*
X85865257Y-67794257D02*
X85808114Y-67851400D01*
X85808114Y-67851400D02*
X85722400Y-67879971D01*
X85722400Y-67879971D02*
X85579543Y-67879971D01*
X86436686Y-67479971D02*
X86436686Y-67879971D01*
X86293828Y-67251400D02*
X86150971Y-67679971D01*
X86150971Y-67679971D02*
X86522400Y-67679971D01*
D13*
X67761905Y-63553779D02*
X67761905Y-62553779D01*
X68333333Y-63553779D02*
X67904762Y-62982350D01*
X68333333Y-62553779D02*
X67761905Y-63125207D01*
X69285714Y-63553779D02*
X68714286Y-63553779D01*
X69000000Y-63553779D02*
X69000000Y-62553779D01*
X69000000Y-62553779D02*
X68904762Y-62696636D01*
X68904762Y-62696636D02*
X68809524Y-62791874D01*
X68809524Y-62791874D02*
X68714286Y-62839493D01*
X58920000Y-63123779D02*
X58920000Y-63361874D01*
X58681905Y-63266636D02*
X58920000Y-63361874D01*
X58920000Y-63361874D02*
X59158095Y-63266636D01*
X58777143Y-63552350D02*
X58920000Y-63361874D01*
X58920000Y-63361874D02*
X59062857Y-63552350D01*
D11*
X80550000Y-59554819D02*
X80250000Y-59078628D01*
X80035714Y-59554819D02*
X80035714Y-58554819D01*
X80035714Y-58554819D02*
X80378571Y-58554819D01*
X80378571Y-58554819D02*
X80464286Y-58602438D01*
X80464286Y-58602438D02*
X80507143Y-58650057D01*
X80507143Y-58650057D02*
X80550000Y-58745295D01*
X80550000Y-58745295D02*
X80550000Y-58888152D01*
X80550000Y-58888152D02*
X80507143Y-58983390D01*
X80507143Y-58983390D02*
X80464286Y-59031009D01*
X80464286Y-59031009D02*
X80378571Y-59078628D01*
X80378571Y-59078628D02*
X80035714Y-59078628D01*
X80892857Y-58650057D02*
X80935714Y-58602438D01*
X80935714Y-58602438D02*
X81021429Y-58554819D01*
X81021429Y-58554819D02*
X81235714Y-58554819D01*
X81235714Y-58554819D02*
X81321429Y-58602438D01*
X81321429Y-58602438D02*
X81364286Y-58650057D01*
X81364286Y-58650057D02*
X81407143Y-58745295D01*
X81407143Y-58745295D02*
X81407143Y-58840533D01*
X81407143Y-58840533D02*
X81364286Y-58983390D01*
X81364286Y-58983390D02*
X80850000Y-59554819D01*
X80850000Y-59554819D02*
X81407143Y-59554819D01*
X56400000Y-50547342D02*
X56400000Y-51404485D01*
X56400000Y-51404485D02*
X56342857Y-51575914D01*
X56342857Y-51575914D02*
X56228571Y-51690200D01*
X56228571Y-51690200D02*
X56057143Y-51747342D01*
X56057143Y-51747342D02*
X55942857Y-51747342D01*
X57485715Y-50947342D02*
X57485715Y-51747342D01*
X57200000Y-50490200D02*
X56914286Y-51347342D01*
X56914286Y-51347342D02*
X57657143Y-51347342D01*
X80550000Y-56254819D02*
X80250000Y-55778628D01*
X80035714Y-56254819D02*
X80035714Y-55254819D01*
X80035714Y-55254819D02*
X80378571Y-55254819D01*
X80378571Y-55254819D02*
X80464286Y-55302438D01*
X80464286Y-55302438D02*
X80507143Y-55350057D01*
X80507143Y-55350057D02*
X80550000Y-55445295D01*
X80550000Y-55445295D02*
X80550000Y-55588152D01*
X80550000Y-55588152D02*
X80507143Y-55683390D01*
X80507143Y-55683390D02*
X80464286Y-55731009D01*
X80464286Y-55731009D02*
X80378571Y-55778628D01*
X80378571Y-55778628D02*
X80035714Y-55778628D01*
X81407143Y-56254819D02*
X80892857Y-56254819D01*
X81150000Y-56254819D02*
X81150000Y-55254819D01*
X81150000Y-55254819D02*
X81064286Y-55397676D01*
X81064286Y-55397676D02*
X80978571Y-55492914D01*
X80978571Y-55492914D02*
X80892857Y-55540533D01*
X85181905Y-73124819D02*
X85181905Y-72124819D01*
X85181905Y-72124819D02*
X85420000Y-72124819D01*
X85420000Y-72124819D02*
X85562857Y-72172438D01*
X85562857Y-72172438D02*
X85658095Y-72267676D01*
X85658095Y-72267676D02*
X85705714Y-72362914D01*
X85705714Y-72362914D02*
X85753333Y-72553390D01*
X85753333Y-72553390D02*
X85753333Y-72696247D01*
X85753333Y-72696247D02*
X85705714Y-72886723D01*
X85705714Y-72886723D02*
X85658095Y-72981961D01*
X85658095Y-72981961D02*
X85562857Y-73077200D01*
X85562857Y-73077200D02*
X85420000Y-73124819D01*
X85420000Y-73124819D02*
X85181905Y-73124819D01*
X86086667Y-72124819D02*
X86705714Y-72124819D01*
X86705714Y-72124819D02*
X86372381Y-72505771D01*
X86372381Y-72505771D02*
X86515238Y-72505771D01*
X86515238Y-72505771D02*
X86610476Y-72553390D01*
X86610476Y-72553390D02*
X86658095Y-72601009D01*
X86658095Y-72601009D02*
X86705714Y-72696247D01*
X86705714Y-72696247D02*
X86705714Y-72934342D01*
X86705714Y-72934342D02*
X86658095Y-73029580D01*
X86658095Y-73029580D02*
X86610476Y-73077200D01*
X86610476Y-73077200D02*
X86515238Y-73124819D01*
X86515238Y-73124819D02*
X86229524Y-73124819D01*
X86229524Y-73124819D02*
X86134286Y-73077200D01*
X86134286Y-73077200D02*
X86086667Y-73029580D01*
X84058095Y-85224819D02*
X84058095Y-84224819D01*
X84629523Y-85224819D02*
X84200952Y-84653390D01*
X84629523Y-84224819D02*
X84058095Y-84796247D01*
X90433333Y-63454819D02*
X90100000Y-62978628D01*
X89861905Y-63454819D02*
X89861905Y-62454819D01*
X89861905Y-62454819D02*
X90242857Y-62454819D01*
X90242857Y-62454819D02*
X90338095Y-62502438D01*
X90338095Y-62502438D02*
X90385714Y-62550057D01*
X90385714Y-62550057D02*
X90433333Y-62645295D01*
X90433333Y-62645295D02*
X90433333Y-62788152D01*
X90433333Y-62788152D02*
X90385714Y-62883390D01*
X90385714Y-62883390D02*
X90338095Y-62931009D01*
X90338095Y-62931009D02*
X90242857Y-62978628D01*
X90242857Y-62978628D02*
X89861905Y-62978628D01*
X90766667Y-62454819D02*
X91385714Y-62454819D01*
X91385714Y-62454819D02*
X91052381Y-62835771D01*
X91052381Y-62835771D02*
X91195238Y-62835771D01*
X91195238Y-62835771D02*
X91290476Y-62883390D01*
X91290476Y-62883390D02*
X91338095Y-62931009D01*
X91338095Y-62931009D02*
X91385714Y-63026247D01*
X91385714Y-63026247D02*
X91385714Y-63264342D01*
X91385714Y-63264342D02*
X91338095Y-63359580D01*
X91338095Y-63359580D02*
X91290476Y-63407200D01*
X91290476Y-63407200D02*
X91195238Y-63454819D01*
X91195238Y-63454819D02*
X90909524Y-63454819D01*
X90909524Y-63454819D02*
X90814286Y-63407200D01*
X90814286Y-63407200D02*
X90766667Y-63359580D01*
D14*
%TO.C,TP2*%
X88600000Y-62700000D02*
G75*
G02*
X85200000Y-62700000I-1700000J0D01*
G01*
X85200000Y-62700000D02*
G75*
G02*
X88600000Y-62700000I1700000J0D01*
G01*
D15*
%TO.C,J3*%
X49428400Y-49403000D02*
X49428400Y-100457000D01*
X49428400Y-100457000D02*
X52171600Y-100457000D01*
X52171600Y-49403000D02*
X49428400Y-49403000D01*
X52171600Y-100457000D02*
X52171600Y-49403000D01*
D16*
X51181000Y-102235000D02*
G75*
G02*
X50419000Y-102235000I-381000J0D01*
G01*
X50419000Y-102235000D02*
G75*
G02*
X51181000Y-102235000I381000J0D01*
G01*
D15*
%TO.C,SW1*%
X85145800Y-91152040D02*
X85145800Y-93495299D01*
X85657640Y-95444200D02*
X90882360Y-95444200D01*
X90882360Y-89195800D02*
X86077708Y-89195800D01*
X91394200Y-93495299D02*
X91394200Y-91144702D01*
%TO.C,D4*%
X85225987Y-69927100D02*
X86818813Y-69927100D01*
X86818813Y-68072900D02*
X85225987Y-68072900D01*
X83457000Y-69000000D02*
G75*
G02*
X83304600Y-69000000I-76200J0D01*
G01*
X83304600Y-69000000D02*
G75*
G02*
X83457000Y-69000000I76200J0D01*
G01*
%TO.C,K1*%
X53294299Y-64032999D02*
X53294299Y-100278799D01*
X53294299Y-100278799D02*
X83545699Y-100278799D01*
X56917995Y-64032999D02*
X53294299Y-64032999D01*
X75917993Y-64032999D02*
X60922005Y-64032999D01*
X83545699Y-64032999D02*
X79922003Y-64032999D01*
X83545699Y-100278799D02*
X83545699Y-64032999D01*
%TO.C,R2*%
X81638400Y-57564900D02*
X81638400Y-60435100D01*
X81638400Y-60435100D02*
X88191600Y-60435100D01*
X88191600Y-57564900D02*
X81638400Y-57564900D01*
X88191600Y-60435100D02*
X88191600Y-57564900D01*
D17*
%TO.C,J4*%
X53030000Y-52550000D02*
X60730000Y-52550000D01*
X53030000Y-62750000D02*
X53030000Y-52550000D01*
X60730000Y-52550000D02*
X60730000Y-62750000D01*
X60730000Y-62750000D02*
X53030000Y-62750000D01*
D18*
X58630000Y-54250000D02*
G75*
G02*
X58430000Y-54250000I-100000J0D01*
G01*
X58430000Y-54250000D02*
G75*
G02*
X58630000Y-54250000I100000J0D01*
G01*
D14*
%TO.C,TP1*%
X90420000Y-97970000D02*
G75*
G02*
X87020000Y-97970000I-1700000J0D01*
G01*
X87020000Y-97970000D02*
G75*
G02*
X90420000Y-97970000I1700000J0D01*
G01*
D15*
%TO.C,R1*%
X81638400Y-54364900D02*
X81638400Y-57235100D01*
X81638400Y-57235100D02*
X88191600Y-57235100D01*
X88191600Y-54364900D02*
X81638400Y-54364900D01*
X88191600Y-57235100D02*
X88191600Y-54364900D01*
%TO.C,J2*%
X92628400Y-49403000D02*
X92628400Y-100457000D01*
X92628400Y-100457000D02*
X95371600Y-100457000D01*
X95371600Y-49403000D02*
X92628400Y-49403000D01*
X95371600Y-100457000D02*
X95371600Y-49403000D01*
D16*
X94381000Y-102235000D02*
G75*
G02*
X93619000Y-102235000I-381000J0D01*
G01*
X93619000Y-102235000D02*
G75*
G02*
X94381000Y-102235000I381000J0D01*
G01*
D14*
%TO.C,D3*%
X84450000Y-76990000D02*
X84450000Y-82430000D01*
X84450000Y-81410000D02*
X87390000Y-81410000D01*
X84450000Y-81530000D02*
X87390000Y-81530000D01*
X84450000Y-81650000D02*
X87390000Y-81650000D01*
X84450000Y-82430000D02*
X87390000Y-82430000D01*
X85920000Y-75970000D02*
X85920000Y-76990000D01*
X85920000Y-83450000D02*
X85920000Y-82430000D01*
X87390000Y-76990000D02*
X84450000Y-76990000D01*
X87390000Y-82430000D02*
X87390000Y-76990000D01*
D15*
%TO.C,R3*%
X89164900Y-63738400D02*
X89164900Y-70291600D01*
X89164900Y-70291600D02*
X92035100Y-70291600D01*
X92035100Y-63738400D02*
X89164900Y-63738400D01*
X92035100Y-70291600D02*
X92035100Y-63738400D01*
%TD*%
M02*
