%TF.GenerationSoftware,KiCad,Pcbnew,8.0.8*%
%TF.CreationDate,2025-03-02T20:21:30-05:00*%
%TF.ProjectId,IMD Latching Module V3.0,494d4420-4c61-4746-9368-696e67204d6f,rev?*%
%TF.SameCoordinates,Original*%
%TF.FileFunction,Soldermask,Top*%
%TF.FilePolarity,Negative*%
%FSLAX46Y46*%
G04 Gerber Fmt 4.6, Leading zero omitted, Abs format (unit mm)*
G04 Created by KiCad (PCBNEW 8.0.8) date 2025-03-02 20:21:30*
%MOMM*%
%LPD*%
G01*
G04 APERTURE LIST*
G04 Aperture macros list*
%AMRoundRect*
0 Rectangle with rounded corners*
0 $1 Rounding radius*
0 $2 $3 $4 $5 $6 $7 $8 $9 X,Y pos of 4 corners*
0 Add a 4 corners polygon primitive as box body*
4,1,4,$2,$3,$4,$5,$6,$7,$8,$9,$2,$3,0*
0 Add four circle primitives for the rounded corners*
1,1,$1+$1,$2,$3*
1,1,$1+$1,$4,$5*
1,1,$1+$1,$6,$7*
1,1,$1+$1,$8,$9*
0 Add four rect primitives between the rounded corners*
20,1,$1+$1,$2,$3,$4,$5,0*
20,1,$1+$1,$4,$5,$6,$7,0*
20,1,$1+$1,$6,$7,$8,$9,0*
20,1,$1+$1,$8,$9,$2,$3,0*%
G04 Aperture macros list end*
%ADD10RoundRect,0.102000X0.485000X-0.450000X0.485000X0.450000X-0.485000X0.450000X-0.485000X-0.450000X0*%
%ADD11C,3.000000*%
%ADD12C,1.524000*%
%ADD13R,1.498600X1.498600*%
%ADD14C,1.498600*%
%ADD15R,0.660400X1.549400*%
%ADD16O,5.350000X2.850000*%
%ADD17C,2.717800*%
%ADD18C,2.108200*%
%ADD19R,1.397000X1.397000*%
%ADD20C,1.397000*%
%ADD21C,2.154000*%
%ADD22R,2.200000X2.200000*%
%ADD23O,2.200000X2.200000*%
G04 APERTURE END LIST*
D10*
%TO.C,D1*%
X90620000Y-80270000D03*
X90620000Y-78750000D03*
%TD*%
%TO.C,D2*%
X88540000Y-80260000D03*
X88540000Y-78740000D03*
%TD*%
D11*
%TO.C,TP2*%
X86900000Y-62700000D03*
%TD*%
D12*
%TO.C,J3*%
X50800000Y-99060000D03*
X50800000Y-96520000D03*
X50800000Y-93980000D03*
X50800000Y-91440000D03*
X50800000Y-88900000D03*
X50800000Y-86360000D03*
X50800000Y-83820000D03*
X50800000Y-81280000D03*
X50800000Y-78740000D03*
X50800000Y-76200000D03*
X50800000Y-73660000D03*
X50800000Y-71120000D03*
X50800000Y-68580000D03*
X50800000Y-66040000D03*
X50800000Y-63500000D03*
X50800000Y-60960000D03*
X50800000Y-58420000D03*
X50800000Y-55880000D03*
X50800000Y-53340000D03*
X50800000Y-50800000D03*
%TD*%
D13*
%TO.C,SW1*%
X85019999Y-90070000D03*
D14*
X91520000Y-90070000D03*
X85019999Y-94570001D03*
X91520000Y-94570001D03*
%TD*%
D15*
%TO.C,D4*%
X84600000Y-69000000D03*
X87444800Y-69000000D03*
%TD*%
D16*
%TO.C,K1*%
X58920000Y-65159999D03*
X58920000Y-76160000D03*
D17*
X56970000Y-97460000D03*
D18*
X64620000Y-97460000D03*
X72220000Y-97460000D03*
D17*
X79870000Y-97460000D03*
D16*
X77919998Y-76160000D03*
X77919998Y-65159999D03*
%TD*%
D19*
%TO.C,R2*%
X79200000Y-59000000D03*
D20*
X90630000Y-59000000D03*
%TD*%
D21*
%TO.C,J4*%
X57130000Y-55150000D03*
X57130000Y-60150000D03*
%TD*%
D11*
%TO.C,TP1*%
X88720000Y-97970000D03*
%TD*%
D19*
%TO.C,R1*%
X79200000Y-55800000D03*
D20*
X90630000Y-55800000D03*
%TD*%
D12*
%TO.C,J2*%
X94000000Y-99060000D03*
X94000000Y-96520000D03*
X94000000Y-93980000D03*
X94000000Y-91440000D03*
X94000000Y-88900000D03*
X94000000Y-86360000D03*
X94000000Y-83820000D03*
X94000000Y-81280000D03*
X94000000Y-78740000D03*
X94000000Y-76200000D03*
X94000000Y-73660000D03*
X94000000Y-71120000D03*
X94000000Y-68580000D03*
X94000000Y-66040000D03*
X94000000Y-63500000D03*
X94000000Y-60960000D03*
X94000000Y-58420000D03*
X94000000Y-55880000D03*
X94000000Y-53340000D03*
X94000000Y-50800000D03*
%TD*%
D22*
%TO.C,D3*%
X85920000Y-84790000D03*
D23*
X85920000Y-74630000D03*
%TD*%
D19*
%TO.C,R3*%
X90600000Y-72730000D03*
D20*
X90600000Y-61300000D03*
%TD*%
M02*
