%TF.GenerationSoftware,KiCad,Pcbnew,8.0.8*%
%TF.CreationDate,2025-03-10T22:00:58-04:00*%
%TF.ProjectId,PWM Module 2.0,50574d20-4d6f-4647-956c-6520322e302e,rev?*%
%TF.SameCoordinates,Original*%
%TF.FileFunction,Paste,Top*%
%TF.FilePolarity,Positive*%
%FSLAX46Y46*%
G04 Gerber Fmt 4.6, Leading zero omitted, Abs format (unit mm)*
G04 Created by KiCad (PCBNEW 8.0.8) date 2025-03-10 22:00:58*
%MOMM*%
%LPD*%
G01*
G04 APERTURE LIST*
%ADD10R,0.508000X0.977900*%
%ADD11R,1.270000X0.558800*%
%ADD12R,0.855600X1.600000*%
%ADD13R,1.524000X0.533400*%
G04 APERTURE END LIST*
D10*
%TO.C,U7*%
X159841502Y-36169500D03*
X158891501Y-36169500D03*
X157941500Y-36169500D03*
X157941500Y-38900000D03*
X159841502Y-38900000D03*
%TD*%
D11*
%TO.C,Q2*%
X169640000Y-43594998D03*
X169640000Y-41765000D03*
X167709600Y-42679999D03*
%TD*%
D12*
%TO.C,C4*%
X166084398Y-38900000D03*
X169140000Y-38900000D03*
%TD*%
%TO.C,C2*%
X152913699Y-38900000D03*
X155969301Y-38900000D03*
%TD*%
D11*
%TO.C,Q3*%
X194640000Y-43729998D03*
X194640000Y-41900000D03*
X192709600Y-42814999D03*
%TD*%
D10*
%TO.C,U5*%
X198590001Y-36400000D03*
X197640000Y-36400000D03*
X196689999Y-36400000D03*
X196689999Y-39130500D03*
X198590001Y-39130500D03*
%TD*%
D12*
%TO.C,C3*%
X166112199Y-36400000D03*
X169167801Y-36400000D03*
%TD*%
%TO.C,C5*%
X179084398Y-36400000D03*
X182140000Y-36400000D03*
%TD*%
%TO.C,C6*%
X179084398Y-38900000D03*
X182140000Y-38900000D03*
%TD*%
D11*
%TO.C,Q4*%
X156371900Y-43814999D03*
X156371900Y-41985001D03*
X154441500Y-42900000D03*
%TD*%
D13*
%TO.C,U2*%
X187339000Y-34170000D03*
X187339000Y-32900000D03*
X187339000Y-31630000D03*
X177941000Y-31630000D03*
X177941000Y-32900000D03*
X177941000Y-34170000D03*
%TD*%
D12*
%TO.C,C1*%
X152941500Y-36400000D03*
X155997102Y-36400000D03*
%TD*%
D13*
%TO.C,U6*%
X199839000Y-34170000D03*
X199839000Y-32900000D03*
X199839000Y-31630000D03*
X190441000Y-31630000D03*
X190441000Y-32900000D03*
X190441000Y-34170000D03*
%TD*%
D12*
%TO.C,C7*%
X191084398Y-36400000D03*
X194140000Y-36400000D03*
%TD*%
D10*
%TO.C,U3*%
X172941500Y-36169500D03*
X171991499Y-36169500D03*
X171041498Y-36169500D03*
X171041498Y-38900000D03*
X172941500Y-38900000D03*
%TD*%
D11*
%TO.C,Q1*%
X182140000Y-43229998D03*
X182140000Y-41400000D03*
X180209600Y-42314999D03*
%TD*%
D13*
%TO.C,U8*%
X162140500Y-34170000D03*
X162140500Y-32900000D03*
X162140500Y-31630000D03*
X152742500Y-31630000D03*
X152742500Y-32900000D03*
X152742500Y-34170000D03*
%TD*%
D10*
%TO.C,U1*%
X186040002Y-36169500D03*
X185090001Y-36169500D03*
X184140000Y-36169500D03*
X184140000Y-38900000D03*
X186040002Y-38900000D03*
%TD*%
D13*
%TO.C,U4*%
X174441500Y-34170000D03*
X174441500Y-32900000D03*
X174441500Y-31630000D03*
X165043500Y-31630000D03*
X165043500Y-32900000D03*
X165043500Y-34170000D03*
%TD*%
D12*
%TO.C,C8*%
X191084398Y-38900000D03*
X194140000Y-38900000D03*
%TD*%
M02*
