%TF.GenerationSoftware,KiCad,Pcbnew,9.0.4*%
%TF.CreationDate,2026-02-17T16:16:26-05:00*%
%TF.ProjectId,LVChargeNEW,4c564368-6172-4676-954e-45572e6b6963,1*%
%TF.SameCoordinates,Original*%
%TF.FileFunction,Paste,Top*%
%TF.FilePolarity,Positive*%
%FSLAX46Y46*%
G04 Gerber Fmt 4.6, Leading zero omitted, Abs format (unit mm)*
G04 Created by KiCad (PCBNEW 9.0.4) date 2026-02-17 16:16:26*
%MOMM*%
%LPD*%
G01*
G04 APERTURE LIST*
G04 Aperture macros list*
%AMRoundRect*
0 Rectangle with rounded corners*
0 $1 Rounding radius*
0 $2 $3 $4 $5 $6 $7 $8 $9 X,Y pos of 4 corners*
0 Add a 4 corners polygon primitive as box body*
4,1,4,$2,$3,$4,$5,$6,$7,$8,$9,$2,$3,0*
0 Add four circle primitives for the rounded corners*
1,1,$1+$1,$2,$3*
1,1,$1+$1,$4,$5*
1,1,$1+$1,$6,$7*
1,1,$1+$1,$8,$9*
0 Add four rect primitives between the rounded corners*
20,1,$1+$1,$2,$3,$4,$5,0*
20,1,$1+$1,$4,$5,$6,$7,0*
20,1,$1+$1,$6,$7,$8,$9,0*
20,1,$1+$1,$8,$9,$2,$3,0*%
G04 Aperture macros list end*
%ADD10C,0.010000*%
%ADD11RoundRect,0.250000X0.325000X1.100000X-0.325000X1.100000X-0.325000X-1.100000X0.325000X-1.100000X0*%
%ADD12RoundRect,0.250000X-1.100000X0.325000X-1.100000X-0.325000X1.100000X-0.325000X1.100000X0.325000X0*%
%ADD13RoundRect,0.250000X-0.412500X-1.100000X0.412500X-1.100000X0.412500X1.100000X-0.412500X1.100000X0*%
%ADD14RoundRect,0.250000X0.312500X0.625000X-0.312500X0.625000X-0.312500X-0.625000X0.312500X-0.625000X0*%
%ADD15RoundRect,0.250000X-0.262500X-0.450000X0.262500X-0.450000X0.262500X0.450000X-0.262500X0.450000X0*%
%ADD16RoundRect,0.250000X-0.325000X-1.100000X0.325000X-1.100000X0.325000X1.100000X-0.325000X1.100000X0*%
%ADD17RoundRect,0.250000X1.100000X-0.325000X1.100000X0.325000X-1.100000X0.325000X-1.100000X-0.325000X0*%
%ADD18RoundRect,0.250000X-0.400000X-0.625000X0.400000X-0.625000X0.400000X0.625000X-0.400000X0.625000X0*%
%ADD19RoundRect,0.250000X0.625000X-0.375000X0.625000X0.375000X-0.625000X0.375000X-0.625000X-0.375000X0*%
%ADD20RoundRect,0.160000X-0.197500X-0.160000X0.197500X-0.160000X0.197500X0.160000X-0.197500X0.160000X0*%
%ADD21RoundRect,0.135000X0.185000X-0.135000X0.185000X0.135000X-0.185000X0.135000X-0.185000X-0.135000X0*%
%ADD22R,0.970000X1.380000*%
%ADD23R,1.380000X0.970000*%
%ADD24R,2.921000X12.141200*%
%ADD25R,0.812800X0.254000*%
%ADD26R,0.254000X0.812800*%
%ADD27R,3.708400X4.699000*%
%ADD28RoundRect,0.250000X-0.450000X0.262500X-0.450000X-0.262500X0.450000X-0.262500X0.450000X0.262500X0*%
%ADD29RoundRect,0.250000X-0.312500X-0.625000X0.312500X-0.625000X0.312500X0.625000X-0.312500X0.625000X0*%
%ADD30RoundRect,0.250000X-0.625000X0.400000X-0.625000X-0.400000X0.625000X-0.400000X0.625000X0.400000X0*%
G04 APERTURE END LIST*
D10*
%TO.C,Q4*%
X125850000Y-119459000D02*
X125150000Y-119459000D01*
X125150000Y-119219000D01*
X125850000Y-119219000D01*
X125850000Y-119459000D01*
G36*
X125850000Y-119459000D02*
G01*
X125150000Y-119459000D01*
X125150000Y-119219000D01*
X125850000Y-119219000D01*
X125850000Y-119459000D01*
G37*
X125455000Y-117509000D02*
X125155000Y-117509000D01*
X125155000Y-117269000D01*
X125455000Y-117269000D01*
X125455000Y-117509000D01*
G36*
X125455000Y-117509000D02*
G01*
X125155000Y-117509000D01*
X125155000Y-117269000D01*
X125455000Y-117269000D01*
X125455000Y-117509000D01*
G37*
X125455000Y-118159000D02*
X125155000Y-118159000D01*
X125155000Y-117919000D01*
X125455000Y-117919000D01*
X125455000Y-118159000D01*
G36*
X125455000Y-118159000D02*
G01*
X125155000Y-118159000D01*
X125155000Y-117919000D01*
X125455000Y-117919000D01*
X125455000Y-118159000D01*
G37*
X125455000Y-118809000D02*
X125155000Y-118809000D01*
X125155000Y-118569000D01*
X125455000Y-118569000D01*
X125455000Y-118809000D01*
G36*
X125455000Y-118809000D02*
G01*
X125155000Y-118809000D01*
X125155000Y-118569000D01*
X125455000Y-118569000D01*
X125455000Y-118809000D01*
G37*
X125955000Y-117939000D02*
X125605000Y-117939000D01*
X125605000Y-117269000D01*
X125955000Y-117269000D01*
X125955000Y-117939000D01*
G36*
X125955000Y-117939000D02*
G01*
X125605000Y-117939000D01*
X125605000Y-117269000D01*
X125955000Y-117269000D01*
X125955000Y-117939000D01*
G37*
X125955000Y-118809000D02*
X125605000Y-118809000D01*
X125605000Y-118139000D01*
X125955000Y-118139000D01*
X125955000Y-118809000D01*
G36*
X125955000Y-118809000D02*
G01*
X125605000Y-118809000D01*
X125605000Y-118139000D01*
X125955000Y-118139000D01*
X125955000Y-118809000D01*
G37*
X128050000Y-117509000D02*
X126650000Y-117509000D01*
X126650000Y-117269000D01*
X128050000Y-117269000D01*
X128050000Y-117509000D01*
G36*
X128050000Y-117509000D02*
G01*
X126650000Y-117509000D01*
X126650000Y-117269000D01*
X128050000Y-117269000D01*
X128050000Y-117509000D01*
G37*
X128050000Y-118909000D02*
X126650000Y-118909000D01*
X126650000Y-117819000D01*
X128050000Y-117819000D01*
X128050000Y-118909000D01*
G36*
X128050000Y-118909000D02*
G01*
X126650000Y-118909000D01*
X126650000Y-117819000D01*
X128050000Y-117819000D01*
X128050000Y-118909000D01*
G37*
X128050000Y-119459000D02*
X126650000Y-119459000D01*
X126650000Y-119219000D01*
X128050000Y-119219000D01*
X128050000Y-119459000D01*
G36*
X128050000Y-119459000D02*
G01*
X126650000Y-119459000D01*
X126650000Y-119219000D01*
X128050000Y-119219000D01*
X128050000Y-119459000D01*
G37*
X128850000Y-117509000D02*
X128250000Y-117509000D01*
X128250000Y-117269000D01*
X128850000Y-117269000D01*
X128850000Y-117509000D01*
G36*
X128850000Y-117509000D02*
G01*
X128250000Y-117509000D01*
X128250000Y-117269000D01*
X128850000Y-117269000D01*
X128850000Y-117509000D01*
G37*
X128850000Y-118159000D02*
X128250000Y-118159000D01*
X128250000Y-117919000D01*
X128850000Y-117919000D01*
X128850000Y-118159000D01*
G36*
X128850000Y-118159000D02*
G01*
X128250000Y-118159000D01*
X128250000Y-117919000D01*
X128850000Y-117919000D01*
X128850000Y-118159000D01*
G37*
X128850000Y-118809000D02*
X128250000Y-118809000D01*
X128250000Y-118569000D01*
X128850000Y-118569000D01*
X128850000Y-118809000D01*
G36*
X128850000Y-118809000D02*
G01*
X128250000Y-118809000D01*
X128250000Y-118569000D01*
X128850000Y-118569000D01*
X128850000Y-118809000D01*
G37*
X128850000Y-119459000D02*
X128250000Y-119459000D01*
X128250000Y-119219000D01*
X128850000Y-119219000D01*
X128850000Y-119459000D01*
G36*
X128850000Y-119459000D02*
G01*
X128250000Y-119459000D01*
X128250000Y-119219000D01*
X128850000Y-119219000D01*
X128850000Y-119459000D01*
G37*
%TO.C,Q3*%
X142930000Y-101679000D02*
X142230000Y-101679000D01*
X142230000Y-101439000D01*
X142930000Y-101439000D01*
X142930000Y-101679000D01*
G36*
X142930000Y-101679000D02*
G01*
X142230000Y-101679000D01*
X142230000Y-101439000D01*
X142930000Y-101439000D01*
X142930000Y-101679000D01*
G37*
X142535000Y-99729000D02*
X142235000Y-99729000D01*
X142235000Y-99489000D01*
X142535000Y-99489000D01*
X142535000Y-99729000D01*
G36*
X142535000Y-99729000D02*
G01*
X142235000Y-99729000D01*
X142235000Y-99489000D01*
X142535000Y-99489000D01*
X142535000Y-99729000D01*
G37*
X142535000Y-100379000D02*
X142235000Y-100379000D01*
X142235000Y-100139000D01*
X142535000Y-100139000D01*
X142535000Y-100379000D01*
G36*
X142535000Y-100379000D02*
G01*
X142235000Y-100379000D01*
X142235000Y-100139000D01*
X142535000Y-100139000D01*
X142535000Y-100379000D01*
G37*
X142535000Y-101029000D02*
X142235000Y-101029000D01*
X142235000Y-100789000D01*
X142535000Y-100789000D01*
X142535000Y-101029000D01*
G36*
X142535000Y-101029000D02*
G01*
X142235000Y-101029000D01*
X142235000Y-100789000D01*
X142535000Y-100789000D01*
X142535000Y-101029000D01*
G37*
X143035000Y-100159000D02*
X142685000Y-100159000D01*
X142685000Y-99489000D01*
X143035000Y-99489000D01*
X143035000Y-100159000D01*
G36*
X143035000Y-100159000D02*
G01*
X142685000Y-100159000D01*
X142685000Y-99489000D01*
X143035000Y-99489000D01*
X143035000Y-100159000D01*
G37*
X143035000Y-101029000D02*
X142685000Y-101029000D01*
X142685000Y-100359000D01*
X143035000Y-100359000D01*
X143035000Y-101029000D01*
G36*
X143035000Y-101029000D02*
G01*
X142685000Y-101029000D01*
X142685000Y-100359000D01*
X143035000Y-100359000D01*
X143035000Y-101029000D01*
G37*
X145130000Y-99729000D02*
X143730000Y-99729000D01*
X143730000Y-99489000D01*
X145130000Y-99489000D01*
X145130000Y-99729000D01*
G36*
X145130000Y-99729000D02*
G01*
X143730000Y-99729000D01*
X143730000Y-99489000D01*
X145130000Y-99489000D01*
X145130000Y-99729000D01*
G37*
X145130000Y-101129000D02*
X143730000Y-101129000D01*
X143730000Y-100039000D01*
X145130000Y-100039000D01*
X145130000Y-101129000D01*
G36*
X145130000Y-101129000D02*
G01*
X143730000Y-101129000D01*
X143730000Y-100039000D01*
X145130000Y-100039000D01*
X145130000Y-101129000D01*
G37*
X145130000Y-101679000D02*
X143730000Y-101679000D01*
X143730000Y-101439000D01*
X145130000Y-101439000D01*
X145130000Y-101679000D01*
G36*
X145130000Y-101679000D02*
G01*
X143730000Y-101679000D01*
X143730000Y-101439000D01*
X145130000Y-101439000D01*
X145130000Y-101679000D01*
G37*
X145930000Y-99729000D02*
X145330000Y-99729000D01*
X145330000Y-99489000D01*
X145930000Y-99489000D01*
X145930000Y-99729000D01*
G36*
X145930000Y-99729000D02*
G01*
X145330000Y-99729000D01*
X145330000Y-99489000D01*
X145930000Y-99489000D01*
X145930000Y-99729000D01*
G37*
X145930000Y-100379000D02*
X145330000Y-100379000D01*
X145330000Y-100139000D01*
X145930000Y-100139000D01*
X145930000Y-100379000D01*
G36*
X145930000Y-100379000D02*
G01*
X145330000Y-100379000D01*
X145330000Y-100139000D01*
X145930000Y-100139000D01*
X145930000Y-100379000D01*
G37*
X145930000Y-101029000D02*
X145330000Y-101029000D01*
X145330000Y-100789000D01*
X145930000Y-100789000D01*
X145930000Y-101029000D01*
G36*
X145930000Y-101029000D02*
G01*
X145330000Y-101029000D01*
X145330000Y-100789000D01*
X145930000Y-100789000D01*
X145930000Y-101029000D01*
G37*
X145930000Y-101679000D02*
X145330000Y-101679000D01*
X145330000Y-101439000D01*
X145930000Y-101439000D01*
X145930000Y-101679000D01*
G36*
X145930000Y-101679000D02*
G01*
X145330000Y-101679000D01*
X145330000Y-101439000D01*
X145930000Y-101439000D01*
X145930000Y-101679000D01*
G37*
%TO.C,Q1*%
X109930000Y-105504000D02*
X109690000Y-105504000D01*
X109690000Y-104904000D01*
X109930000Y-104904000D01*
X109930000Y-105504000D01*
G36*
X109930000Y-105504000D02*
G01*
X109690000Y-105504000D01*
X109690000Y-104904000D01*
X109930000Y-104904000D01*
X109930000Y-105504000D01*
G37*
X109930000Y-107104000D02*
X109690000Y-107104000D01*
X109690000Y-105704000D01*
X109930000Y-105704000D01*
X109930000Y-107104000D01*
G36*
X109930000Y-107104000D02*
G01*
X109690000Y-107104000D01*
X109690000Y-105704000D01*
X109930000Y-105704000D01*
X109930000Y-107104000D01*
G37*
X110360000Y-108149000D02*
X109690000Y-108149000D01*
X109690000Y-107799000D01*
X110360000Y-107799000D01*
X110360000Y-108149000D01*
G36*
X110360000Y-108149000D02*
G01*
X109690000Y-108149000D01*
X109690000Y-107799000D01*
X110360000Y-107799000D01*
X110360000Y-108149000D01*
G37*
X109930000Y-108599000D02*
X109690000Y-108599000D01*
X109690000Y-108299000D01*
X109930000Y-108299000D01*
X109930000Y-108599000D01*
G36*
X109930000Y-108599000D02*
G01*
X109690000Y-108599000D01*
X109690000Y-108299000D01*
X109930000Y-108299000D01*
X109930000Y-108599000D01*
G37*
X111330000Y-107104000D02*
X110240000Y-107104000D01*
X110240000Y-105704000D01*
X111330000Y-105704000D01*
X111330000Y-107104000D01*
G36*
X111330000Y-107104000D02*
G01*
X110240000Y-107104000D01*
X110240000Y-105704000D01*
X111330000Y-105704000D01*
X111330000Y-107104000D01*
G37*
X110580000Y-105504000D02*
X110340000Y-105504000D01*
X110340000Y-104904000D01*
X110580000Y-104904000D01*
X110580000Y-105504000D01*
G36*
X110580000Y-105504000D02*
G01*
X110340000Y-105504000D01*
X110340000Y-104904000D01*
X110580000Y-104904000D01*
X110580000Y-105504000D01*
G37*
X110580000Y-108599000D02*
X110340000Y-108599000D01*
X110340000Y-108299000D01*
X110580000Y-108299000D01*
X110580000Y-108599000D01*
G36*
X110580000Y-108599000D02*
G01*
X110340000Y-108599000D01*
X110340000Y-108299000D01*
X110580000Y-108299000D01*
X110580000Y-108599000D01*
G37*
X111230000Y-108149000D02*
X110560000Y-108149000D01*
X110560000Y-107799000D01*
X111230000Y-107799000D01*
X111230000Y-108149000D01*
G36*
X111230000Y-108149000D02*
G01*
X110560000Y-108149000D01*
X110560000Y-107799000D01*
X111230000Y-107799000D01*
X111230000Y-108149000D01*
G37*
X111230000Y-105504000D02*
X110990000Y-105504000D01*
X110990000Y-104904000D01*
X111230000Y-104904000D01*
X111230000Y-105504000D01*
G36*
X111230000Y-105504000D02*
G01*
X110990000Y-105504000D01*
X110990000Y-104904000D01*
X111230000Y-104904000D01*
X111230000Y-105504000D01*
G37*
X111230000Y-108599000D02*
X110990000Y-108599000D01*
X110990000Y-108299000D01*
X111230000Y-108299000D01*
X111230000Y-108599000D01*
G36*
X111230000Y-108599000D02*
G01*
X110990000Y-108599000D01*
X110990000Y-108299000D01*
X111230000Y-108299000D01*
X111230000Y-108599000D01*
G37*
X111880000Y-105504000D02*
X111640000Y-105504000D01*
X111640000Y-104904000D01*
X111880000Y-104904000D01*
X111880000Y-105504000D01*
G36*
X111880000Y-105504000D02*
G01*
X111640000Y-105504000D01*
X111640000Y-104904000D01*
X111880000Y-104904000D01*
X111880000Y-105504000D01*
G37*
X111880000Y-107104000D02*
X111640000Y-107104000D01*
X111640000Y-105704000D01*
X111880000Y-105704000D01*
X111880000Y-107104000D01*
G36*
X111880000Y-107104000D02*
G01*
X111640000Y-107104000D01*
X111640000Y-105704000D01*
X111880000Y-105704000D01*
X111880000Y-107104000D01*
G37*
X111880000Y-108604000D02*
X111640000Y-108604000D01*
X111640000Y-107904000D01*
X111880000Y-107904000D01*
X111880000Y-108604000D01*
G36*
X111880000Y-108604000D02*
G01*
X111640000Y-108604000D01*
X111640000Y-107904000D01*
X111880000Y-107904000D01*
X111880000Y-108604000D01*
G37*
%TO.C,Q2*%
X108365000Y-97494000D02*
X108125000Y-97494000D01*
X108125000Y-96894000D01*
X108365000Y-96894000D01*
X108365000Y-97494000D01*
G36*
X108365000Y-97494000D02*
G01*
X108125000Y-97494000D01*
X108125000Y-96894000D01*
X108365000Y-96894000D01*
X108365000Y-97494000D01*
G37*
X108365000Y-99094000D02*
X108125000Y-99094000D01*
X108125000Y-97694000D01*
X108365000Y-97694000D01*
X108365000Y-99094000D01*
G36*
X108365000Y-99094000D02*
G01*
X108125000Y-99094000D01*
X108125000Y-97694000D01*
X108365000Y-97694000D01*
X108365000Y-99094000D01*
G37*
X108795000Y-100139000D02*
X108125000Y-100139000D01*
X108125000Y-99789000D01*
X108795000Y-99789000D01*
X108795000Y-100139000D01*
G36*
X108795000Y-100139000D02*
G01*
X108125000Y-100139000D01*
X108125000Y-99789000D01*
X108795000Y-99789000D01*
X108795000Y-100139000D01*
G37*
X108365000Y-100589000D02*
X108125000Y-100589000D01*
X108125000Y-100289000D01*
X108365000Y-100289000D01*
X108365000Y-100589000D01*
G36*
X108365000Y-100589000D02*
G01*
X108125000Y-100589000D01*
X108125000Y-100289000D01*
X108365000Y-100289000D01*
X108365000Y-100589000D01*
G37*
X109765000Y-99094000D02*
X108675000Y-99094000D01*
X108675000Y-97694000D01*
X109765000Y-97694000D01*
X109765000Y-99094000D01*
G36*
X109765000Y-99094000D02*
G01*
X108675000Y-99094000D01*
X108675000Y-97694000D01*
X109765000Y-97694000D01*
X109765000Y-99094000D01*
G37*
X109015000Y-97494000D02*
X108775000Y-97494000D01*
X108775000Y-96894000D01*
X109015000Y-96894000D01*
X109015000Y-97494000D01*
G36*
X109015000Y-97494000D02*
G01*
X108775000Y-97494000D01*
X108775000Y-96894000D01*
X109015000Y-96894000D01*
X109015000Y-97494000D01*
G37*
X109015000Y-100589000D02*
X108775000Y-100589000D01*
X108775000Y-100289000D01*
X109015000Y-100289000D01*
X109015000Y-100589000D01*
G36*
X109015000Y-100589000D02*
G01*
X108775000Y-100589000D01*
X108775000Y-100289000D01*
X109015000Y-100289000D01*
X109015000Y-100589000D01*
G37*
X109665000Y-100139000D02*
X108995000Y-100139000D01*
X108995000Y-99789000D01*
X109665000Y-99789000D01*
X109665000Y-100139000D01*
G36*
X109665000Y-100139000D02*
G01*
X108995000Y-100139000D01*
X108995000Y-99789000D01*
X109665000Y-99789000D01*
X109665000Y-100139000D01*
G37*
X109665000Y-97494000D02*
X109425000Y-97494000D01*
X109425000Y-96894000D01*
X109665000Y-96894000D01*
X109665000Y-97494000D01*
G36*
X109665000Y-97494000D02*
G01*
X109425000Y-97494000D01*
X109425000Y-96894000D01*
X109665000Y-96894000D01*
X109665000Y-97494000D01*
G37*
X109665000Y-100589000D02*
X109425000Y-100589000D01*
X109425000Y-100289000D01*
X109665000Y-100289000D01*
X109665000Y-100589000D01*
G36*
X109665000Y-100589000D02*
G01*
X109425000Y-100589000D01*
X109425000Y-100289000D01*
X109665000Y-100289000D01*
X109665000Y-100589000D01*
G37*
X110315000Y-97494000D02*
X110075000Y-97494000D01*
X110075000Y-96894000D01*
X110315000Y-96894000D01*
X110315000Y-97494000D01*
G36*
X110315000Y-97494000D02*
G01*
X110075000Y-97494000D01*
X110075000Y-96894000D01*
X110315000Y-96894000D01*
X110315000Y-97494000D01*
G37*
X110315000Y-99094000D02*
X110075000Y-99094000D01*
X110075000Y-97694000D01*
X110315000Y-97694000D01*
X110315000Y-99094000D01*
G36*
X110315000Y-99094000D02*
G01*
X110075000Y-99094000D01*
X110075000Y-97694000D01*
X110315000Y-97694000D01*
X110315000Y-99094000D01*
G37*
X110315000Y-100594000D02*
X110075000Y-100594000D01*
X110075000Y-99894000D01*
X110315000Y-99894000D01*
X110315000Y-100594000D01*
G36*
X110315000Y-100594000D02*
G01*
X110075000Y-100594000D01*
X110075000Y-99894000D01*
X110315000Y-99894000D01*
X110315000Y-100594000D01*
G37*
%TD*%
D11*
%TO.C,C40*%
X57658000Y-70104000D03*
X54708000Y-70104000D03*
%TD*%
D12*
%TO.C,C18*%
X56591200Y-117979400D03*
X56591200Y-120929400D03*
%TD*%
D13*
%TO.C,C_sys7*%
X41617500Y-82804000D03*
X44742500Y-82804000D03*
%TD*%
D14*
%TO.C,R5*%
X91327700Y-62458600D03*
X88402700Y-62458600D03*
%TD*%
D15*
%TO.C,R2*%
X76227300Y-67564000D03*
X78052300Y-67564000D03*
%TD*%
D13*
%TO.C,C_sys5*%
X41617500Y-92964000D03*
X44742500Y-92964000D03*
%TD*%
D16*
%TO.C,C5*%
X49579000Y-66548000D03*
X52529000Y-66548000D03*
%TD*%
D17*
%TO.C,C21*%
X83820000Y-122174000D03*
X83820000Y-119224000D03*
%TD*%
D13*
%TO.C,C_sys4*%
X41617500Y-98044000D03*
X44742500Y-98044000D03*
%TD*%
D16*
%TO.C,C12*%
X136906000Y-84836000D03*
X139856000Y-84836000D03*
%TD*%
D18*
%TO.C,R10*%
X133070000Y-110744000D03*
X136170000Y-110744000D03*
%TD*%
D11*
%TO.C,C38*%
X57707000Y-73914000D03*
X54757000Y-73914000D03*
%TD*%
D16*
%TO.C,C34*%
X131826000Y-91948000D03*
X134776000Y-91948000D03*
%TD*%
D19*
%TO.C,D2*%
X91440000Y-103124000D03*
X91440000Y-100324000D03*
%TD*%
D20*
%TO.C,R19*%
X80010000Y-84074000D03*
X81205000Y-84074000D03*
%TD*%
D12*
%TO.C,C19*%
X51993800Y-118055600D03*
X51993800Y-121005600D03*
%TD*%
D11*
%TO.C,C35*%
X52627000Y-77724000D03*
X49677000Y-77724000D03*
%TD*%
D12*
%TO.C,C17*%
X60604400Y-118081000D03*
X60604400Y-121031000D03*
%TD*%
%TO.C,C16*%
X60629800Y-123084800D03*
X60629800Y-126034800D03*
%TD*%
%TO.C,C20*%
X52070000Y-123135600D03*
X52070000Y-126085600D03*
%TD*%
%TO.C,C26*%
X87376000Y-119224000D03*
X87376000Y-122174000D03*
%TD*%
D16*
%TO.C,C30*%
X131826000Y-84836000D03*
X134776000Y-84836000D03*
%TD*%
D21*
%TO.C,R6*%
X104165400Y-81282000D03*
X104165400Y-80262000D03*
%TD*%
D12*
%TO.C,C24*%
X91186000Y-119224000D03*
X91186000Y-122174000D03*
%TD*%
D13*
%TO.C,C_sys2*%
X41617500Y-108204000D03*
X44742500Y-108204000D03*
%TD*%
D22*
%TO.C,R_bat_sns1*%
X81874000Y-115570000D03*
X83734000Y-115570000D03*
%TD*%
D12*
%TO.C,C27*%
X87376000Y-114349000D03*
X87376000Y-117299000D03*
%TD*%
D16*
%TO.C,C33*%
X136906000Y-91948000D03*
X139856000Y-91948000D03*
%TD*%
D23*
%TO.C,R_bat_ac1*%
X101600000Y-98974000D03*
X101600000Y-97114000D03*
%TD*%
D17*
%TO.C,C22*%
X48260000Y-126189000D03*
X48260000Y-123239000D03*
%TD*%
D24*
%TO.C,L2*%
X146913600Y-57404000D03*
X131216400Y-57404000D03*
%TD*%
D25*
%TO.C,U1*%
X86448900Y-85633433D03*
X86448900Y-86133559D03*
X86448900Y-86633685D03*
X86448900Y-87133811D03*
X86448900Y-87633937D03*
X86448900Y-88134063D03*
X86448900Y-88634189D03*
X86448900Y-89134315D03*
X86448900Y-89634441D03*
X86448900Y-90134567D03*
D26*
X87149559Y-90830400D03*
X87649685Y-90830400D03*
X88149811Y-90830400D03*
X88649937Y-90830400D03*
X89150063Y-90830400D03*
X89650189Y-90830400D03*
X90150315Y-90830400D03*
X90650441Y-90830400D03*
D25*
X91351100Y-90134567D03*
X91351100Y-89634441D03*
X91351100Y-89134315D03*
X91351100Y-88634189D03*
X91351100Y-88134063D03*
X91351100Y-87633937D03*
X91351100Y-87133811D03*
X91351100Y-86633685D03*
X91351100Y-86133559D03*
X91351100Y-85633433D03*
D26*
X90650441Y-84937600D03*
X90150315Y-84937600D03*
X89650189Y-84937600D03*
X89150063Y-84937600D03*
X88649937Y-84937600D03*
X88149811Y-84937600D03*
X87649685Y-84937600D03*
X87149559Y-84937600D03*
D27*
X88900000Y-87884000D03*
%TD*%
D13*
%TO.C,C_sys1*%
X41617500Y-113284000D03*
X44742500Y-113284000D03*
%TD*%
D12*
%TO.C,C29*%
X94742000Y-114398000D03*
X94742000Y-117348000D03*
%TD*%
D18*
%TO.C,R11*%
X60527600Y-110794800D03*
X63627600Y-110794800D03*
%TD*%
D11*
%TO.C,C37*%
X52627000Y-73914000D03*
X49677000Y-73914000D03*
%TD*%
D28*
%TO.C,R9*%
X68580000Y-104751500D03*
X68580000Y-106576500D03*
%TD*%
D13*
%TO.C,C_sys3*%
X41617500Y-103124000D03*
X44742500Y-103124000D03*
%TD*%
D11*
%TO.C,C39*%
X52627000Y-70104000D03*
X49677000Y-70104000D03*
%TD*%
D16*
%TO.C,C31*%
X136906000Y-88392000D03*
X139856000Y-88392000D03*
%TD*%
D29*
%TO.C,R3*%
X76286900Y-80721200D03*
X79211900Y-80721200D03*
%TD*%
D16*
%TO.C,C32*%
X131826000Y-88392000D03*
X134776000Y-88392000D03*
%TD*%
D30*
%TO.C,R7*%
X92760800Y-76351800D03*
X92760800Y-79451800D03*
%TD*%
D18*
%TO.C,R8*%
X124611800Y-102920800D03*
X127711800Y-102920800D03*
%TD*%
D11*
%TO.C,C36*%
X57658000Y-77706000D03*
X54708000Y-77706000D03*
%TD*%
D12*
%TO.C,C25*%
X91186000Y-114349000D03*
X91186000Y-117299000D03*
%TD*%
D19*
%TO.C,D3*%
X86360000Y-103124000D03*
X86360000Y-100324000D03*
%TD*%
D13*
%TO.C,C_sys9*%
X41617500Y-72644000D03*
X44742500Y-72644000D03*
%TD*%
%TO.C,C_sys8*%
X41617500Y-77724000D03*
X44742500Y-77724000D03*
%TD*%
D11*
%TO.C,C9*%
X134776000Y-95504000D03*
X131826000Y-95504000D03*
%TD*%
D12*
%TO.C,C28*%
X94742000Y-119224000D03*
X94742000Y-122174000D03*
%TD*%
D13*
%TO.C,C_sys6*%
X41617500Y-87884000D03*
X44742500Y-87884000D03*
%TD*%
D19*
%TO.C,D1*%
X96520000Y-103124000D03*
X96520000Y-100324000D03*
%TD*%
D12*
%TO.C,C23*%
X56565800Y-123084800D03*
X56565800Y-126034800D03*
%TD*%
M02*
