M48
; DRILL file {KiCad 9.0.4} date 2026-02-05T17:31:23-0500
; FORMAT={-:-/ absolute / metric / decimal}
; #@! TF.CreationDate,2026-02-05T17:31:23-05:00
; #@! TF.GenerationSoftware,Kicad,Pcbnew,9.0.4
; #@! TF.FileFunction,Plated,1,4,PTH
FMAT,2
METRIC
; #@! TA.AperFunction,Plated,PTH,ViaDrill
T1C0.300
; #@! TA.AperFunction,Plated,PTH,ComponentDrill
T2C0.700
; #@! TA.AperFunction,Plated,PTH,ComponentDrill
T3C0.800
; #@! TA.AperFunction,Plated,PTH,ComponentDrill
T4C1.320
%
G90
G05
T1
X44.075Y-118.11
X44.742Y-117.175
X44.958Y-118.11
X58.126Y-113.284
X58.596Y-113.754
X58.63Y-112.78
X65.532Y-128.778
X66.052Y-129.298
X66.055Y-128.255
X67.031Y-104.673
X68.58Y-108.65
X72.898Y-65.278
X72.898Y-85.09
X76.2Y-78.486
X78.232Y-115.824
X78.74Y-65.024
X78.74Y-84.074
X78.74Y-87.884
X80.331Y-87.834
X81.096Y-88.068
X81.28Y-65.024
X81.28Y-80.264
X82.042Y-95.504
X82.121Y-88.734
X83.82Y-65.024
X83.82Y-89.234
X83.871Y-90.932
X86.449Y-92.125
X87.55Y-80.265
X87.757Y-96.19
X88.9Y-92.964
X89.916Y-78.74
X91.44Y-80.264
X91.44Y-95.504
X94.996Y-74.676
X96.48Y-80.224
X96.52Y-75.184
X97.85Y-115.824
X98.552Y-95.25
X98.552Y-115.824
X99.225Y-115.824
X99.626Y-73.21
X101.6Y-87.534
X101.6Y-100.584
X102.362Y-78.486
X104.14Y-70.104
X108.817Y-112.417
X109.22Y-111.35
X109.22Y-112.014
X109.9Y-112.014
X110.49Y-103.124
X112.649Y-96.393
X113.899Y-111.5
X113.899Y-112.282
X114.675Y-111.76
X124.699Y-100.853
X124.699Y-105.156
X124.875Y-115.985
X127.61Y-104.673
X128.55Y-114.046
X129.114Y-113.71
X129.549Y-113.274
X130.302Y-118.364
X131.826Y-97.79
X132.588Y-102.87
X132.66Y-102.035
X132.982Y-117.488
X133.059Y-103.341
X133.07Y-112.925
X133.07Y-113.538
X134.62Y-98.0
X134.62Y-98.552
X134.62Y-103.124
X137.068Y-106.865
X144.78Y-103.124
X144.78Y-103.775
X144.78Y-104.525
X150.696Y-68.654
X151.13Y-69.342
X151.656Y-69.868
X152.146Y-94.525
X152.146Y-95.25
X152.146Y-95.95
T2
X40.64Y-62.484
X45.72Y-62.484
X53.467Y-105.791
X58.547Y-105.791
X67.564Y-95.529
X72.644Y-95.529
X83.82Y-98.044
X86.36Y-67.564
X86.36Y-77.724
X86.36Y-82.804
X86.36Y-105.664
X86.36Y-110.744
X88.9Y-98.044
X91.44Y-67.564
X91.44Y-105.664
X91.44Y-110.744
X96.52Y-105.664
X96.52Y-110.744
X105.41Y-46.736
X106.68Y-46.736
X106.68Y-87.884
X107.95Y-46.736
X109.22Y-46.736
X110.49Y-46.736
X111.76Y-46.736
X111.76Y-87.884
T3
X50.88Y-56.134
X53.34Y-83.9
X53.34Y-88.9
X53.34Y-95.504
X53.34Y-100.504
X55.88Y-56.134
X66.04Y-68.58
X66.04Y-73.58
X73.334Y-104.75
X73.74Y-120.904
X76.397Y-57.15
X78.334Y-104.75
X78.74Y-120.904
X81.397Y-57.15
X106.68Y-120.904
X111.68Y-120.904
X111.84Y-77.724
X116.84Y-77.724
X116.84Y-87.884
X119.38Y-98.044
X119.38Y-103.044
X121.84Y-87.884
X142.32Y-120.904
X147.32Y-120.904
T4
X39.171Y-48.768
X44.171Y-48.768
X154.229Y-128.016
X159.229Y-128.016
M30
