%TF.GenerationSoftware,KiCad,Pcbnew,9.0.4*%
%TF.CreationDate,2026-02-17T16:16:26-05:00*%
%TF.ProjectId,LVChargeNEW,4c564368-6172-4676-954e-45572e6b6963,1*%
%TF.SameCoordinates,Original*%
%TF.FileFunction,Soldermask,Bot*%
%TF.FilePolarity,Negative*%
%FSLAX46Y46*%
G04 Gerber Fmt 4.6, Leading zero omitted, Abs format (unit mm)*
G04 Created by KiCad (PCBNEW 9.0.4) date 2026-02-17 16:16:26*
%MOMM*%
%LPD*%
G01*
G04 APERTURE LIST*
G04 Aperture macros list*
%AMRoundRect*
0 Rectangle with rounded corners*
0 $1 Rounding radius*
0 $2 $3 $4 $5 $6 $7 $8 $9 X,Y pos of 4 corners*
0 Add a 4 corners polygon primitive as box body*
4,1,4,$2,$3,$4,$5,$6,$7,$8,$9,$2,$3,0*
0 Add four circle primitives for the rounded corners*
1,1,$1+$1,$2,$3*
1,1,$1+$1,$4,$5*
1,1,$1+$1,$6,$7*
1,1,$1+$1,$8,$9*
0 Add four rect primitives between the rounded corners*
20,1,$1+$1,$2,$3,$4,$5,0*
20,1,$1+$1,$4,$5,$6,$7,0*
20,1,$1+$1,$6,$7,$8,$9,0*
20,1,$1+$1,$8,$9,$2,$3,0*%
G04 Aperture macros list end*
%ADD10RoundRect,0.250000X0.550000X-0.550000X0.550000X0.550000X-0.550000X0.550000X-0.550000X-0.550000X0*%
%ADD11C,1.600000*%
%ADD12RoundRect,0.250000X0.550000X0.550000X-0.550000X0.550000X-0.550000X-0.550000X0.550000X-0.550000X0*%
%ADD13C,1.400000*%
%ADD14R,1.980000X3.960000*%
%ADD15O,1.980000X3.960000*%
%ADD16RoundRect,0.250000X-0.550000X-0.550000X0.550000X-0.550000X0.550000X0.550000X-0.550000X0.550000X0*%
%ADD17R,1.000000X1.000000*%
%ADD18C,1.000000*%
G04 APERTURE END LIST*
D10*
%TO.C,C7*%
X66040000Y-73580000D03*
D11*
X66040000Y-68580000D03*
%TD*%
D12*
%TO.C,C15*%
X111680000Y-120904000D03*
D11*
X106680000Y-120904000D03*
%TD*%
D13*
%TO.C,R17*%
X86360000Y-105664000D03*
X86360000Y-110744000D03*
%TD*%
%TO.C,R18*%
X58547000Y-105791000D03*
X53467000Y-105791000D03*
%TD*%
D14*
%TO.C,J1*%
X44170600Y-48768000D03*
D15*
X39170600Y-48768000D03*
%TD*%
D13*
%TO.C,R13*%
X83820000Y-98044000D03*
X88900000Y-98044000D03*
%TD*%
%TO.C,R1*%
X86360000Y-67564000D03*
X91440000Y-67564000D03*
%TD*%
D10*
%TO.C,C8*%
X53340000Y-88900000D03*
D11*
X53340000Y-83900000D03*
%TD*%
D13*
%TO.C,R12*%
X72644000Y-95529400D03*
X67564000Y-95529400D03*
%TD*%
D16*
%TO.C,C2*%
X111840000Y-77724000D03*
D11*
X116840000Y-77724000D03*
%TD*%
D17*
%TO.C,J3*%
X105410000Y-46736000D03*
D18*
X106680000Y-46736000D03*
X107950000Y-46736000D03*
X109220000Y-46736000D03*
X110490000Y-46736000D03*
X111760000Y-46736000D03*
%TD*%
D13*
%TO.C,R4*%
X106680000Y-87884000D03*
X111760000Y-87884000D03*
%TD*%
%TO.C,R14*%
X86360000Y-77724000D03*
X86360000Y-82804000D03*
%TD*%
D12*
%TO.C,C13*%
X78333600Y-104749600D03*
D11*
X73333600Y-104749600D03*
%TD*%
D13*
%TO.C,R20*%
X40640000Y-62484000D03*
X45720000Y-62484000D03*
%TD*%
%TO.C,R16*%
X91440000Y-105664000D03*
X91440000Y-110744000D03*
%TD*%
D14*
%TO.C,J2*%
X154228800Y-128016000D03*
D15*
X159228800Y-128016000D03*
%TD*%
D12*
%TO.C,C4*%
X81396651Y-57150000D03*
D11*
X76396651Y-57150000D03*
%TD*%
D10*
%TO.C,C10*%
X119380000Y-103044000D03*
D11*
X119380000Y-98044000D03*
%TD*%
D16*
%TO.C,C3*%
X116840000Y-87884000D03*
D11*
X121840000Y-87884000D03*
%TD*%
D10*
%TO.C,C6*%
X53340000Y-100504000D03*
D11*
X53340000Y-95504000D03*
%TD*%
D13*
%TO.C,R15*%
X96520000Y-105664000D03*
X96520000Y-110744000D03*
%TD*%
D16*
%TO.C,C14*%
X73740000Y-120904000D03*
D11*
X78740000Y-120904000D03*
%TD*%
D16*
%TO.C,C11*%
X142320000Y-120904000D03*
D11*
X147320000Y-120904000D03*
%TD*%
D12*
%TO.C,C1*%
X55880000Y-56134000D03*
D11*
X50880000Y-56134000D03*
%TD*%
M02*
