%TF.GenerationSoftware,KiCad,Pcbnew,9.0.4*%
%TF.CreationDate,2026-02-18T11:03:29-05:00*%
%TF.ProjectId,LVChargeNEW,4c564368-6172-4676-954e-45572e6b6963,1*%
%TF.SameCoordinates,Original*%
%TF.FileFunction,Copper,L1,Top*%
%TF.FilePolarity,Positive*%
%FSLAX46Y46*%
G04 Gerber Fmt 4.6, Leading zero omitted, Abs format (unit mm)*
G04 Created by KiCad (PCBNEW 9.0.4) date 2026-02-18 11:03:29*
%MOMM*%
%LPD*%
G01*
G04 APERTURE LIST*
G04 Aperture macros list*
%AMRoundRect*
0 Rectangle with rounded corners*
0 $1 Rounding radius*
0 $2 $3 $4 $5 $6 $7 $8 $9 X,Y pos of 4 corners*
0 Add a 4 corners polygon primitive as box body*
4,1,4,$2,$3,$4,$5,$6,$7,$8,$9,$2,$3,0*
0 Add four circle primitives for the rounded corners*
1,1,$1+$1,$2,$3*
1,1,$1+$1,$4,$5*
1,1,$1+$1,$6,$7*
1,1,$1+$1,$8,$9*
0 Add four rect primitives between the rounded corners*
20,1,$1+$1,$2,$3,$4,$5,0*
20,1,$1+$1,$4,$5,$6,$7,0*
20,1,$1+$1,$6,$7,$8,$9,0*
20,1,$1+$1,$8,$9,$2,$3,0*%
G04 Aperture macros list end*
%TA.AperFunction,ComponentPad*%
%ADD10R,1.700000X1.700000*%
%TD*%
%TA.AperFunction,ComponentPad*%
%ADD11O,1.700000X1.700000*%
%TD*%
%TA.AperFunction,SMDPad,CuDef*%
%ADD12RoundRect,0.250000X0.325000X1.100000X-0.325000X1.100000X-0.325000X-1.100000X0.325000X-1.100000X0*%
%TD*%
%TA.AperFunction,ComponentPad*%
%ADD13RoundRect,0.250000X0.550000X-0.550000X0.550000X0.550000X-0.550000X0.550000X-0.550000X-0.550000X0*%
%TD*%
%TA.AperFunction,ComponentPad*%
%ADD14C,1.600000*%
%TD*%
%TA.AperFunction,ComponentPad*%
%ADD15RoundRect,0.250000X0.550000X0.550000X-0.550000X0.550000X-0.550000X-0.550000X0.550000X-0.550000X0*%
%TD*%
%TA.AperFunction,SMDPad,CuDef*%
%ADD16R,1.000000X1.740000*%
%TD*%
%TA.AperFunction,SMDPad,CuDef*%
%ADD17R,1.000000X0.440000*%
%TD*%
%TA.AperFunction,SMDPad,CuDef*%
%ADD18R,2.460000X2.390000*%
%TD*%
%TA.AperFunction,SMDPad,CuDef*%
%ADD19RoundRect,0.250000X-1.100000X0.325000X-1.100000X-0.325000X1.100000X-0.325000X1.100000X0.325000X0*%
%TD*%
%TA.AperFunction,SMDPad,CuDef*%
%ADD20RoundRect,0.250000X-0.412500X-1.100000X0.412500X-1.100000X0.412500X1.100000X-0.412500X1.100000X0*%
%TD*%
%TA.AperFunction,SMDPad,CuDef*%
%ADD21RoundRect,0.250000X0.312500X0.625000X-0.312500X0.625000X-0.312500X-0.625000X0.312500X-0.625000X0*%
%TD*%
%TA.AperFunction,SMDPad,CuDef*%
%ADD22RoundRect,0.250000X-0.262500X-0.450000X0.262500X-0.450000X0.262500X0.450000X-0.262500X0.450000X0*%
%TD*%
%TA.AperFunction,SMDPad,CuDef*%
%ADD23RoundRect,0.250000X-0.325000X-1.100000X0.325000X-1.100000X0.325000X1.100000X-0.325000X1.100000X0*%
%TD*%
%TA.AperFunction,ComponentPad*%
%ADD24C,1.400000*%
%TD*%
%TA.AperFunction,SMDPad,CuDef*%
%ADD25RoundRect,0.250000X1.100000X-0.325000X1.100000X0.325000X-1.100000X0.325000X-1.100000X-0.325000X0*%
%TD*%
%TA.AperFunction,ComponentPad*%
%ADD26R,1.980000X3.960000*%
%TD*%
%TA.AperFunction,ComponentPad*%
%ADD27O,1.980000X3.960000*%
%TD*%
%TA.AperFunction,SMDPad,CuDef*%
%ADD28RoundRect,0.250000X-0.400000X-0.625000X0.400000X-0.625000X0.400000X0.625000X-0.400000X0.625000X0*%
%TD*%
%TA.AperFunction,SMDPad,CuDef*%
%ADD29RoundRect,0.250000X0.625000X-0.375000X0.625000X0.375000X-0.625000X0.375000X-0.625000X-0.375000X0*%
%TD*%
%TA.AperFunction,SMDPad,CuDef*%
%ADD30RoundRect,0.160000X-0.197500X-0.160000X0.197500X-0.160000X0.197500X0.160000X-0.197500X0.160000X0*%
%TD*%
%TA.AperFunction,SMDPad,CuDef*%
%ADD31R,1.740000X1.000000*%
%TD*%
%TA.AperFunction,SMDPad,CuDef*%
%ADD32R,0.440000X1.000000*%
%TD*%
%TA.AperFunction,SMDPad,CuDef*%
%ADD33R,2.390000X2.460000*%
%TD*%
%TA.AperFunction,SMDPad,CuDef*%
%ADD34RoundRect,0.135000X0.185000X-0.135000X0.185000X0.135000X-0.185000X0.135000X-0.185000X-0.135000X0*%
%TD*%
%TA.AperFunction,ComponentPad*%
%ADD35RoundRect,0.250000X-0.550000X-0.550000X0.550000X-0.550000X0.550000X0.550000X-0.550000X0.550000X0*%
%TD*%
%TA.AperFunction,SMDPad,CuDef*%
%ADD36R,0.970000X1.380000*%
%TD*%
%TA.AperFunction,SMDPad,CuDef*%
%ADD37R,1.380000X0.970000*%
%TD*%
%TA.AperFunction,SMDPad,CuDef*%
%ADD38R,2.921000X12.141200*%
%TD*%
%TA.AperFunction,SMDPad,CuDef*%
%ADD39R,0.812800X0.254000*%
%TD*%
%TA.AperFunction,SMDPad,CuDef*%
%ADD40R,0.254000X0.812800*%
%TD*%
%TA.AperFunction,SMDPad,CuDef*%
%ADD41R,3.708400X4.699000*%
%TD*%
%TA.AperFunction,SMDPad,CuDef*%
%ADD42RoundRect,0.250000X-0.450000X0.262500X-0.450000X-0.262500X0.450000X-0.262500X0.450000X0.262500X0*%
%TD*%
%TA.AperFunction,ComponentPad*%
%ADD43R,1.000000X1.000000*%
%TD*%
%TA.AperFunction,ComponentPad*%
%ADD44C,1.000000*%
%TD*%
%TA.AperFunction,SMDPad,CuDef*%
%ADD45RoundRect,0.250000X-0.312500X-0.625000X0.312500X-0.625000X0.312500X0.625000X-0.312500X0.625000X0*%
%TD*%
%TA.AperFunction,SMDPad,CuDef*%
%ADD46RoundRect,0.250000X-0.625000X0.400000X-0.625000X-0.400000X0.625000X-0.400000X0.625000X0.400000X0*%
%TD*%
%TA.AperFunction,ViaPad*%
%ADD47C,0.600000*%
%TD*%
%TA.AperFunction,Conductor*%
%ADD48C,0.200000*%
%TD*%
%TA.AperFunction,Conductor*%
%ADD49C,1.000000*%
%TD*%
%TA.AperFunction,Conductor*%
%ADD50C,1.500000*%
%TD*%
%TA.AperFunction,Conductor*%
%ADD51C,0.500000*%
%TD*%
%TA.AperFunction,Conductor*%
%ADD52C,0.300000*%
%TD*%
%TA.AperFunction,Conductor*%
%ADD53C,0.600000*%
%TD*%
%TA.AperFunction,Conductor*%
%ADD54C,1.300000*%
%TD*%
G04 APERTURE END LIST*
D10*
%TO.P,J1,1,1*%
%TO.N,N/C*%
X25225000Y-86050000D03*
D11*
%TO.P,J1,2,2*%
X25225000Y-88590000D03*
%TO.P,J1,3,3*%
X25225000Y-91130000D03*
%TO.P,J1,4,4*%
X25225000Y-93670000D03*
%TO.P,J1,5,5*%
X25225000Y-96210000D03*
%TO.P,J1,6,6*%
X25225000Y-98750000D03*
%TO.P,J1,7,7*%
X25225000Y-101290000D03*
%TO.P,J1,8,8*%
X25225000Y-103830000D03*
%TO.P,J1,9,9*%
X25225000Y-106370000D03*
%TO.P,J1,10,10*%
X25225000Y-108910000D03*
%TO.P,J1,11,11*%
X25225000Y-111450000D03*
%TO.P,J1,12,12*%
X25225000Y-113990000D03*
%TO.P,J1,13,13*%
X25225000Y-116530000D03*
%TO.P,J1,14,14*%
X25225000Y-119070000D03*
%TO.P,J1,15,15*%
X25225000Y-121610000D03*
%TO.P,J1,16,16*%
X25225000Y-124150000D03*
%TO.P,J1,17,17*%
X25225000Y-126690000D03*
%TO.P,J1,18,18*%
X25225000Y-129230000D03*
%TO.P,J1,19,19*%
X25225000Y-131770000D03*
%TO.P,J1,20,20*%
X25225000Y-134310000D03*
%TD*%
D10*
%TO.P,J1,1,1*%
%TO.N,N/C*%
X25225000Y-42870000D03*
D11*
%TO.P,J1,2,2*%
X25225000Y-45410000D03*
%TO.P,J1,3,3*%
X25225000Y-47950000D03*
%TO.P,J1,4,4*%
X25225000Y-50490000D03*
%TO.P,J1,5,5*%
X25225000Y-53030000D03*
%TO.P,J1,6,6*%
X25225000Y-55570000D03*
%TO.P,J1,7,7*%
X25225000Y-58110000D03*
%TO.P,J1,8,8*%
X25225000Y-60650000D03*
%TO.P,J1,9,9*%
X25225000Y-63190000D03*
%TO.P,J1,10,10*%
X25225000Y-65730000D03*
%TO.P,J1,11,11*%
X25225000Y-68270000D03*
%TO.P,J1,12,12*%
X25225000Y-70810000D03*
%TO.P,J1,13,13*%
X25225000Y-73350000D03*
%TO.P,J1,14,14*%
X25225000Y-75890000D03*
%TO.P,J1,15,15*%
X25225000Y-78430000D03*
%TO.P,J1,16,16*%
X25225000Y-80970000D03*
%TO.P,J1,17,17*%
X25225000Y-83510000D03*
%TD*%
D10*
%TO.P,J1,1,1*%
%TO.N,N/C*%
X165225000Y-86050000D03*
D11*
%TO.P,J1,2,2*%
X165225000Y-88590000D03*
%TO.P,J1,3,3*%
X165225000Y-91130000D03*
%TO.P,J1,4,4*%
X165225000Y-93670000D03*
%TO.P,J1,5,5*%
X165225000Y-96210000D03*
%TO.P,J1,6,6*%
X165225000Y-98750000D03*
%TO.P,J1,7,7*%
X165225000Y-101290000D03*
%TO.P,J1,8,8*%
X165225000Y-103830000D03*
%TO.P,J1,9,9*%
X165225000Y-106370000D03*
%TO.P,J1,10,10*%
X165225000Y-108910000D03*
%TO.P,J1,11,11*%
X165225000Y-111450000D03*
%TO.P,J1,12,12*%
X165225000Y-113990000D03*
%TO.P,J1,13,13*%
X165225000Y-116530000D03*
%TO.P,J1,14,14*%
X165225000Y-119070000D03*
%TO.P,J1,15,15*%
X165225000Y-121610000D03*
%TO.P,J1,16,16*%
X165225000Y-124150000D03*
%TO.P,J1,17,17*%
X165225000Y-126690000D03*
%TO.P,J1,18,18*%
X165225000Y-129230000D03*
%TO.P,J1,19,19*%
X165225000Y-131770000D03*
%TO.P,J1,20,20*%
X165225000Y-134310000D03*
%TD*%
D10*
%TO.P,J1,1,1*%
%TO.N,N/C*%
X165225000Y-42870000D03*
D11*
%TO.P,J1,2,2*%
X165225000Y-45410000D03*
%TO.P,J1,3,3*%
X165225000Y-47950000D03*
%TO.P,J1,4,4*%
X165225000Y-50490000D03*
%TO.P,J1,5,5*%
X165225000Y-53030000D03*
%TO.P,J1,6,6*%
X165225000Y-55570000D03*
%TO.P,J1,7,7*%
X165225000Y-58110000D03*
%TO.P,J1,8,8*%
X165225000Y-60650000D03*
%TO.P,J1,9,9*%
X165225000Y-63190000D03*
%TO.P,J1,10,10*%
X165225000Y-65730000D03*
%TO.P,J1,11,11*%
X165225000Y-68270000D03*
%TO.P,J1,12,12*%
X165225000Y-70810000D03*
%TO.P,J1,13,13*%
X165225000Y-73350000D03*
%TO.P,J1,14,14*%
X165225000Y-75890000D03*
%TO.P,J1,15,15*%
X165225000Y-78430000D03*
%TO.P,J1,16,16*%
X165225000Y-80970000D03*
%TO.P,J1,17,17*%
X165225000Y-83510000D03*
%TD*%
D12*
%TO.P,C40,1*%
%TO.N,Buck Input*%
X57658000Y-70104000D03*
%TO.P,C40,2*%
%TO.N,Net-(C39-Pad1)*%
X54708000Y-70104000D03*
%TD*%
D13*
%TO.P,C7,1*%
%TO.N,Net-(U1-ACN)*%
X66040000Y-73580000D03*
D14*
%TO.P,C7,2*%
%TO.N,Batt-*%
X66040000Y-68580000D03*
%TD*%
D15*
%TO.P,C15,1*%
%TO.N,Net-(U1-SRP)*%
X111680000Y-120904000D03*
D14*
%TO.P,C15,2*%
%TO.N,Net-(U1-SRN)*%
X106680000Y-120904000D03*
%TD*%
D16*
%TO.P,Q4,1*%
%TO.N,Batt-*%
X125550000Y-118039000D03*
D17*
%TO.P,Q4,4*%
%TO.N,Net-(U1-LODRV2)*%
X125550000Y-119339000D03*
D18*
%TO.P,Q4,5*%
%TO.N,Net-(U1-SW2)*%
X127700000Y-118364000D03*
%TD*%
D19*
%TO.P,C18,1*%
%TO.N,Batt+*%
X56591200Y-117979400D03*
%TO.P,C18,2*%
%TO.N,Net-(C18-Pad2)*%
X56591200Y-120929400D03*
%TD*%
D20*
%TO.P,C_sys7,1*%
%TO.N,Net-(C_sys1-Pad1)*%
X41617500Y-82804000D03*
%TO.P,C_sys7,2*%
%TO.N,Batt+*%
X44742500Y-82804000D03*
%TD*%
D21*
%TO.P,R5,1*%
%TO.N,Buck Input*%
X91327700Y-62458600D03*
%TO.P,R5,2*%
%TO.N,Net-(C4-Pad1)*%
X88402700Y-62458600D03*
%TD*%
D22*
%TO.P,R2,1*%
%TO.N,Net-(U1-ACOV)*%
X76227300Y-67564000D03*
%TO.P,R2,2*%
%TO.N,Net-(U1-ACUV)*%
X78052300Y-67564000D03*
%TD*%
D20*
%TO.P,C_sys5,1*%
%TO.N,Net-(C_sys1-Pad1)*%
X41617500Y-92964000D03*
%TO.P,C_sys5,2*%
%TO.N,Batt+*%
X44742500Y-92964000D03*
%TD*%
D23*
%TO.P,C5,1*%
%TO.N,Batt-*%
X49579000Y-66548000D03*
%TO.P,C5,2*%
%TO.N,Buck Input*%
X52529000Y-66548000D03*
%TD*%
D24*
%TO.P,R17,1*%
%TO.N,Net-(D3-K)*%
X86360000Y-105664000D03*
%TO.P,R17,2*%
%TO.N,Net-(U1-\u002APG)*%
X86360000Y-110744000D03*
%TD*%
%TO.P,R18,1*%
%TO.N,Net-(U1-TS)*%
X58547000Y-105791000D03*
%TO.P,R18,2*%
%TO.N,Batt-*%
X53467000Y-105791000D03*
%TD*%
D25*
%TO.P,C21,1*%
%TO.N,Batt-*%
X83820000Y-122174000D03*
%TO.P,C21,2*%
%TO.N,Net-(C21-Pad2)*%
X83820000Y-119224000D03*
%TD*%
D26*
%TO.P,J1,1,Pin_1*%
%TO.N,Batt-*%
X44170600Y-48768000D03*
D27*
%TO.P,J1,2,Pin_2*%
%TO.N,Batt+*%
X39170600Y-48768000D03*
%TD*%
D20*
%TO.P,C_sys4,1*%
%TO.N,Net-(C_sys1-Pad1)*%
X41617500Y-98044000D03*
%TO.P,C_sys4,2*%
%TO.N,Batt+*%
X44742500Y-98044000D03*
%TD*%
D23*
%TO.P,C12,1*%
%TO.N,Net-(C12-Pad1)*%
X136906000Y-84836000D03*
%TO.P,C12,2*%
%TO.N,Batt-*%
X139856000Y-84836000D03*
%TD*%
D28*
%TO.P,R10,1*%
%TO.N,Net-(C21-Pad2)*%
X133070000Y-110744000D03*
%TO.P,R10,2*%
%TO.N,Net-(U1-SRP)*%
X136170000Y-110744000D03*
%TD*%
D12*
%TO.P,C38,1*%
%TO.N,Buck Input*%
X57707000Y-73914000D03*
%TO.P,C38,2*%
%TO.N,Net-(C37-Pad1)*%
X54757000Y-73914000D03*
%TD*%
D23*
%TO.P,C34,1*%
%TO.N,Net-(C30-Pad1)*%
X131826000Y-91948000D03*
%TO.P,C34,2*%
%TO.N,Net-(C33-Pad1)*%
X134776000Y-91948000D03*
%TD*%
D24*
%TO.P,R13,1*%
%TO.N,Net-(U1-FBG)*%
X83820000Y-98044000D03*
%TO.P,R13,2*%
%TO.N,Net-(U1-FB)*%
X88900000Y-98044000D03*
%TD*%
D29*
%TO.P,D2,1,K*%
%TO.N,Net-(D2-K)*%
X91440000Y-103124000D03*
%TO.P,D2,2,A*%
%TO.N,Net-(D1-A)*%
X91440000Y-100324000D03*
%TD*%
D30*
%TO.P,R19,1*%
%TO.N,Net-(U1-ICHG)*%
X80010000Y-84074000D03*
%TO.P,R19,2*%
%TO.N,Batt-*%
X81205000Y-84074000D03*
%TD*%
D19*
%TO.P,C19,1*%
%TO.N,Batt+*%
X51993800Y-118055600D03*
%TO.P,C19,2*%
%TO.N,Net-(C19-Pad2)*%
X51993800Y-121005600D03*
%TD*%
D12*
%TO.P,C35,1*%
%TO.N,Net-(C35-Pad1)*%
X52627000Y-77724000D03*
%TO.P,C35,2*%
%TO.N,Batt-*%
X49677000Y-77724000D03*
%TD*%
D19*
%TO.P,C17,1*%
%TO.N,Batt+*%
X60604400Y-118081000D03*
%TO.P,C17,2*%
%TO.N,Net-(C16-Pad1)*%
X60604400Y-121031000D03*
%TD*%
D16*
%TO.P,Q3,1*%
%TO.N,Net-(U1-SW2)*%
X142630000Y-100259000D03*
D17*
%TO.P,Q3,4*%
%TO.N,Net-(U1-HIDRV2)*%
X142630000Y-101559000D03*
D18*
%TO.P,Q3,5*%
%TO.N,Net-(C21-Pad2)*%
X144780000Y-100584000D03*
%TD*%
D24*
%TO.P,R1,1*%
%TO.N,Net-(U1-ACUV)*%
X86360000Y-67564000D03*
%TO.P,R1,2*%
%TO.N,Buck Input*%
X91440000Y-67564000D03*
%TD*%
D13*
%TO.P,C8,1*%
%TO.N,Net-(U1-ACN)*%
X53340000Y-88900000D03*
D14*
%TO.P,C8,2*%
%TO.N,Net-(U1-ACP)*%
X53340000Y-83900000D03*
%TD*%
D19*
%TO.P,C16,1*%
%TO.N,Net-(C16-Pad1)*%
X60629800Y-123084800D03*
%TO.P,C16,2*%
%TO.N,Batt-*%
X60629800Y-126034800D03*
%TD*%
%TO.P,C20,1*%
%TO.N,Net-(C19-Pad2)*%
X52070000Y-123135600D03*
%TO.P,C20,2*%
%TO.N,Batt-*%
X52070000Y-126085600D03*
%TD*%
D24*
%TO.P,R12,1*%
%TO.N,Net-(U1-FB)*%
X72644000Y-95529400D03*
%TO.P,R12,2*%
%TO.N,Batt+*%
X67564000Y-95529400D03*
%TD*%
D19*
%TO.P,C26,1*%
%TO.N,Net-(C26-Pad1)*%
X87376000Y-119224000D03*
%TO.P,C26,2*%
%TO.N,Batt-*%
X87376000Y-122174000D03*
%TD*%
D23*
%TO.P,C30,1*%
%TO.N,Net-(C30-Pad1)*%
X131826000Y-84836000D03*
%TO.P,C30,2*%
%TO.N,Net-(C12-Pad1)*%
X134776000Y-84836000D03*
%TD*%
D31*
%TO.P,Q1,1*%
%TO.N,Net-(U1-SW1)*%
X110460000Y-108204000D03*
D32*
%TO.P,Q1,4*%
%TO.N,Net-(U1-HIDRV1)*%
X111760000Y-108204000D03*
D33*
%TO.P,Q1,5*%
%TO.N,Net-(C30-Pad1)*%
X110785000Y-106054000D03*
%TD*%
D34*
%TO.P,R6,1*%
%TO.N,Net-(D1-A)*%
X104165400Y-81282000D03*
%TO.P,R6,2*%
%TO.N,Net-(U1-TS)*%
X104165400Y-80262000D03*
%TD*%
D19*
%TO.P,C24,1*%
%TO.N,Net-(C24-Pad1)*%
X91186000Y-119224000D03*
%TO.P,C24,2*%
%TO.N,Batt-*%
X91186000Y-122174000D03*
%TD*%
D20*
%TO.P,C_sys2,1*%
%TO.N,Net-(C_sys1-Pad1)*%
X41617500Y-108204000D03*
%TO.P,C_sys2,2*%
%TO.N,Batt+*%
X44742500Y-108204000D03*
%TD*%
D35*
%TO.P,C2,1*%
%TO.N,Net-(U1-DRV_SUP)*%
X111840000Y-77724000D03*
D14*
%TO.P,C2,2*%
%TO.N,Batt-*%
X116840000Y-77724000D03*
%TD*%
D36*
%TO.P,R_bat_sns1,1*%
%TO.N,Batt+*%
X81874000Y-115570000D03*
%TO.P,R_bat_sns1,2*%
%TO.N,Net-(C21-Pad2)*%
X83734000Y-115570000D03*
%TD*%
D19*
%TO.P,C27,1*%
%TO.N,Net-(C21-Pad2)*%
X87376000Y-114349000D03*
%TO.P,C27,2*%
%TO.N,Net-(C26-Pad1)*%
X87376000Y-117299000D03*
%TD*%
D23*
%TO.P,C33,1*%
%TO.N,Net-(C33-Pad1)*%
X136906000Y-91948000D03*
%TO.P,C33,2*%
%TO.N,Batt-*%
X139856000Y-91948000D03*
%TD*%
D37*
%TO.P,R_bat_ac1,1*%
%TO.N,Net-(C30-Pad1)*%
X101600000Y-98974000D03*
%TO.P,R_bat_ac1,2*%
%TO.N,Buck Input*%
X101600000Y-97114000D03*
%TD*%
D25*
%TO.P,C22,1*%
%TO.N,Batt-*%
X48260000Y-126189000D03*
%TO.P,C22,2*%
%TO.N,Batt+*%
X48260000Y-123239000D03*
%TD*%
D38*
%TO.P,L2,1,1*%
%TO.N,Net-(U1-SW2)*%
X146913600Y-57404000D03*
%TO.P,L2,2,2*%
%TO.N,Net-(U1-SW1)*%
X131216400Y-57404000D03*
%TD*%
D39*
%TO.P,U1,1,SCL*%
%TO.N,SCL*%
X86448900Y-85633433D03*
%TO.P,U1,2,SDA*%
%TO.N,SDL*%
X86448900Y-86133559D03*
%TO.P,U1,3,\u002AINT*%
%TO.N,INT*%
X86448900Y-86633685D03*
%TO.P,U1,4,STAT1*%
%TO.N,Net-(U1-STAT1)*%
X86448900Y-87133811D03*
%TO.P,U1,5,STAT2*%
%TO.N,Net-(U1-STAT2)*%
X86448900Y-87633937D03*
%TO.P,U1,6,\u002APG*%
%TO.N,Net-(U1-\u002APG)*%
X86448900Y-88134063D03*
%TO.P,U1,7,\u002ACE*%
%TO.N,CE*%
X86448900Y-88634189D03*
%TO.P,U1,8,TS*%
%TO.N,Net-(U1-TS)*%
X86448900Y-89134315D03*
%TO.P,U1,9,ICHG*%
%TO.N,Net-(U1-ICHG)*%
X86448900Y-89634441D03*
%TO.P,U1,10,ILIM_HIZ*%
%TO.N,Batt-*%
X86448900Y-90134567D03*
D40*
%TO.P,U1,11,FBG*%
%TO.N,Net-(U1-FBG)*%
X87149559Y-90830400D03*
%TO.P,U1,12,FB*%
%TO.N,Net-(U1-FB)*%
X87649685Y-90830400D03*
%TO.P,U1,13,SRN*%
%TO.N,Net-(U1-SRN)*%
X88149811Y-90830400D03*
%TO.P,U1,14,SRP*%
%TO.N,Net-(U1-SRP)*%
X88649937Y-90830400D03*
%TO.P,U1,15,NC*%
%TO.N,unconnected-(U1-NC-Pad15)*%
X89150063Y-90830400D03*
%TO.P,U1,16,NC*%
%TO.N,unconnected-(U1-NC-Pad16)*%
X89650189Y-90830400D03*
%TO.P,U1,17,PGND*%
%TO.N,Batt-*%
X90150315Y-90830400D03*
%TO.P,U1,18,SW2*%
%TO.N,Net-(U1-SW2)*%
X90650441Y-90830400D03*
D39*
%TO.P,U1,19,HIDRV2*%
%TO.N,Net-(U1-HIDRV2)*%
X91351100Y-90134567D03*
%TO.P,U1,20,BTST2*%
%TO.N,Net-(U1-BTST2)*%
X91351100Y-89634441D03*
%TO.P,U1,21,LODRV2*%
%TO.N,Net-(U1-LODRV2)*%
X91351100Y-89134315D03*
%TO.P,U1,22,PGND*%
%TO.N,Batt-*%
X91351100Y-88634189D03*
%TO.P,U1,23,DRV_SUP*%
%TO.N,Net-(U1-DRV_SUP)*%
X91351100Y-88134063D03*
%TO.P,U1,24,REGN*%
%TO.N,Net-(D1-A)*%
X91351100Y-87633937D03*
%TO.P,U1,25,LODRV1*%
%TO.N,Net-(U1-LODRV1)*%
X91351100Y-87133811D03*
%TO.P,U1,26,BTST1*%
%TO.N,Net-(U1-BTST1)*%
X91351100Y-86633685D03*
%TO.P,U1,27,HIDRV1*%
%TO.N,Net-(U1-HIDRV1)*%
X91351100Y-86133559D03*
%TO.P,U1,28,SW1*%
%TO.N,Net-(U1-SW1)*%
X91351100Y-85633433D03*
D40*
%TO.P,U1,29,ACN*%
%TO.N,Net-(U1-ACN)*%
X90650441Y-84937600D03*
%TO.P,U1,30,ACP*%
%TO.N,Net-(U1-ACP)*%
X90150315Y-84937600D03*
%TO.P,U1,31,NC*%
%TO.N,unconnected-(U1-NC-Pad31)*%
X89650189Y-84937600D03*
%TO.P,U1,32,VAC*%
%TO.N,unconnected-(U1-VAC-Pad32)*%
X89150063Y-84937600D03*
%TO.P,U1,33,VAC*%
%TO.N,Buck Input*%
X88649937Y-84937600D03*
%TO.P,U1,34,ACUV*%
%TO.N,Net-(U1-ACUV)*%
X88149811Y-84937600D03*
%TO.P,U1,35,ACOV*%
%TO.N,Net-(U1-ACOV)*%
X87649685Y-84937600D03*
%TO.P,U1,36,FSW_SYNC*%
%TO.N,Net-(U1-FSW_SYNC)*%
X87149559Y-84937600D03*
D41*
%TO.P,U1,37,EPAD*%
%TO.N,Batt-*%
X88900000Y-87884000D03*
%TD*%
D20*
%TO.P,C_sys1,1*%
%TO.N,Net-(C_sys1-Pad1)*%
X41617500Y-113284000D03*
%TO.P,C_sys1,2*%
%TO.N,Batt+*%
X44742500Y-113284000D03*
%TD*%
D19*
%TO.P,C29,1*%
%TO.N,Net-(C21-Pad2)*%
X94742000Y-114398000D03*
%TO.P,C29,2*%
%TO.N,Net-(C28-Pad1)*%
X94742000Y-117348000D03*
%TD*%
D28*
%TO.P,R11,1*%
%TO.N,Batt+*%
X60527600Y-110794800D03*
%TO.P,R11,2*%
%TO.N,Net-(U1-SRN)*%
X63627600Y-110794800D03*
%TD*%
D12*
%TO.P,C37,1*%
%TO.N,Net-(C37-Pad1)*%
X52627000Y-73914000D03*
%TO.P,C37,2*%
%TO.N,Batt-*%
X49677000Y-73914000D03*
%TD*%
D42*
%TO.P,R9,1*%
%TO.N,Net-(U1-TS)*%
X68580000Y-104751500D03*
%TO.P,R9,2*%
%TO.N,Batt-*%
X68580000Y-106576500D03*
%TD*%
D20*
%TO.P,C_sys3,1*%
%TO.N,Net-(C_sys1-Pad1)*%
X41617500Y-103124000D03*
%TO.P,C_sys3,2*%
%TO.N,Batt+*%
X44742500Y-103124000D03*
%TD*%
D43*
%TO.P,J3,1,Pin_1*%
%TO.N,Batt-*%
X105410000Y-46736000D03*
D44*
%TO.P,J3,2,Pin_2*%
%TO.N,CE*%
X106680000Y-46736000D03*
%TO.P,J3,3,Pin_3*%
%TO.N,INT*%
X107950000Y-46736000D03*
%TO.P,J3,4,Pin_4*%
%TO.N,SDL*%
X109220000Y-46736000D03*
%TO.P,J3,5,Pin_5*%
%TO.N,SCL*%
X110490000Y-46736000D03*
%TO.P,J3,6*%
%TO.N,N/C*%
X111760000Y-46736000D03*
%TD*%
D12*
%TO.P,C39,1*%
%TO.N,Net-(C39-Pad1)*%
X52627000Y-70104000D03*
%TO.P,C39,2*%
%TO.N,Batt-*%
X49677000Y-70104000D03*
%TD*%
D24*
%TO.P,R4,1*%
%TO.N,Net-(U1-DRV_SUP)*%
X106680000Y-87884000D03*
%TO.P,R4,2*%
%TO.N,Net-(D1-A)*%
X111760000Y-87884000D03*
%TD*%
D23*
%TO.P,C31,1*%
%TO.N,Net-(C31-Pad1)*%
X136906000Y-88392000D03*
%TO.P,C31,2*%
%TO.N,Batt-*%
X139856000Y-88392000D03*
%TD*%
D24*
%TO.P,R14,1*%
%TO.N,Batt-*%
X86360000Y-77724000D03*
%TO.P,R14,2*%
%TO.N,Net-(U1-FSW_SYNC)*%
X86360000Y-82804000D03*
%TD*%
D15*
%TO.P,C13,1*%
%TO.N,Net-(U1-SRP)*%
X78333600Y-104749600D03*
D14*
%TO.P,C13,2*%
%TO.N,Batt-*%
X73333600Y-104749600D03*
%TD*%
D45*
%TO.P,R3,1*%
%TO.N,Net-(U1-ACOV)*%
X76286900Y-80721200D03*
%TO.P,R3,2*%
%TO.N,Batt-*%
X79211900Y-80721200D03*
%TD*%
D24*
%TO.P,R20,1*%
%TO.N,Net-(C_sys1-Pad1)*%
X40640000Y-62484000D03*
%TO.P,R20,2*%
%TO.N,Batt-*%
X45720000Y-62484000D03*
%TD*%
D23*
%TO.P,C32,1*%
%TO.N,Net-(C30-Pad1)*%
X131826000Y-88392000D03*
%TO.P,C32,2*%
%TO.N,Net-(C31-Pad1)*%
X134776000Y-88392000D03*
%TD*%
D24*
%TO.P,R16,1*%
%TO.N,Net-(D2-K)*%
X91440000Y-105664000D03*
%TO.P,R16,2*%
%TO.N,Net-(U1-STAT2)*%
X91440000Y-110744000D03*
%TD*%
D26*
%TO.P,J2,1,Pin_1*%
%TO.N,Batt-*%
X154228800Y-128016000D03*
D27*
%TO.P,J2,2,Pin_2*%
%TO.N,Buck Input*%
X159228800Y-128016000D03*
%TD*%
D15*
%TO.P,C4,1*%
%TO.N,Net-(C4-Pad1)*%
X81396651Y-57150000D03*
D14*
%TO.P,C4,2*%
%TO.N,Batt-*%
X76396651Y-57150000D03*
%TD*%
D46*
%TO.P,R7,1*%
%TO.N,Buck Input*%
X92760800Y-76351800D03*
%TO.P,R7,2*%
%TO.N,Net-(U1-ACP)*%
X92760800Y-79451800D03*
%TD*%
D28*
%TO.P,R8,1*%
%TO.N,Net-(C30-Pad1)*%
X124611800Y-102920800D03*
%TO.P,R8,2*%
%TO.N,Net-(U1-ACN)*%
X127711800Y-102920800D03*
%TD*%
D13*
%TO.P,C10,1*%
%TO.N,Net-(U1-BTST1)*%
X119380000Y-103044000D03*
D14*
%TO.P,C10,2*%
%TO.N,Net-(U1-SW1)*%
X119380000Y-98044000D03*
%TD*%
D35*
%TO.P,C3,1*%
%TO.N,Net-(D1-A)*%
X116840000Y-87884000D03*
D14*
%TO.P,C3,2*%
%TO.N,Batt-*%
X121840000Y-87884000D03*
%TD*%
D12*
%TO.P,C36,1*%
%TO.N,Buck Input*%
X57658000Y-77706000D03*
%TO.P,C36,2*%
%TO.N,Net-(C35-Pad1)*%
X54708000Y-77706000D03*
%TD*%
D19*
%TO.P,C25,1*%
%TO.N,Net-(C21-Pad2)*%
X91186000Y-114349000D03*
%TO.P,C25,2*%
%TO.N,Net-(C24-Pad1)*%
X91186000Y-117299000D03*
%TD*%
D29*
%TO.P,D3,1,K*%
%TO.N,Net-(D3-K)*%
X86360000Y-103124000D03*
%TO.P,D3,2,A*%
%TO.N,Net-(D1-A)*%
X86360000Y-100324000D03*
%TD*%
D20*
%TO.P,C_sys9,1*%
%TO.N,Net-(C_sys1-Pad1)*%
X41617500Y-72644000D03*
%TO.P,C_sys9,2*%
%TO.N,Batt+*%
X44742500Y-72644000D03*
%TD*%
%TO.P,C_sys8,1*%
%TO.N,Net-(C_sys1-Pad1)*%
X41617500Y-77724000D03*
%TO.P,C_sys8,2*%
%TO.N,Batt+*%
X44742500Y-77724000D03*
%TD*%
D13*
%TO.P,C6,1*%
%TO.N,Batt-*%
X53340000Y-100504000D03*
D14*
%TO.P,C6,2*%
%TO.N,Net-(U1-ACP)*%
X53340000Y-95504000D03*
%TD*%
D24*
%TO.P,R15,1*%
%TO.N,Net-(D1-K)*%
X96520000Y-105664000D03*
%TO.P,R15,2*%
%TO.N,Net-(U1-STAT1)*%
X96520000Y-110744000D03*
%TD*%
D12*
%TO.P,C9,1*%
%TO.N,Batt-*%
X134776000Y-95504000D03*
%TO.P,C9,2*%
%TO.N,Net-(C30-Pad1)*%
X131826000Y-95504000D03*
%TD*%
D19*
%TO.P,C28,1*%
%TO.N,Net-(C28-Pad1)*%
X94742000Y-119224000D03*
%TO.P,C28,2*%
%TO.N,Batt-*%
X94742000Y-122174000D03*
%TD*%
D31*
%TO.P,Q2,1*%
%TO.N,Batt-*%
X108895000Y-100194000D03*
D32*
%TO.P,Q2,4*%
%TO.N,Net-(U1-LODRV1)*%
X110195000Y-100194000D03*
D33*
%TO.P,Q2,5*%
%TO.N,Net-(U1-SW1)*%
X109220000Y-98044000D03*
%TD*%
D35*
%TO.P,C14,1*%
%TO.N,Batt-*%
X73740000Y-120904000D03*
D14*
%TO.P,C14,2*%
%TO.N,Net-(U1-SRN)*%
X78740000Y-120904000D03*
%TD*%
D20*
%TO.P,C_sys6,1*%
%TO.N,Net-(C_sys1-Pad1)*%
X41617500Y-87884000D03*
%TO.P,C_sys6,2*%
%TO.N,Batt+*%
X44742500Y-87884000D03*
%TD*%
D35*
%TO.P,C11,1*%
%TO.N,Net-(U1-BTST2)*%
X142320000Y-120904000D03*
D14*
%TO.P,C11,2*%
%TO.N,Net-(U1-SW2)*%
X147320000Y-120904000D03*
%TD*%
D15*
%TO.P,C1,1*%
%TO.N,Batt-*%
X55880000Y-56134000D03*
D14*
%TO.P,C1,2*%
%TO.N,Buck Input*%
X50880000Y-56134000D03*
%TD*%
D29*
%TO.P,D1,1,K*%
%TO.N,Net-(D1-K)*%
X96520000Y-103124000D03*
%TO.P,D1,2,A*%
%TO.N,Net-(D1-A)*%
X96520000Y-100324000D03*
%TD*%
D19*
%TO.P,C23,1*%
%TO.N,Net-(C18-Pad2)*%
X56565800Y-123084800D03*
%TO.P,C23,2*%
%TO.N,Batt-*%
X56565800Y-126034800D03*
%TD*%
D47*
%TO.N,Buck Input*%
X94996000Y-74676000D03*
X89916000Y-78740000D03*
X98552000Y-95250000D03*
%TO.N,Batt-*%
X108817000Y-112417000D03*
X65532000Y-128778000D03*
X134620000Y-98000000D03*
X109220000Y-112014000D03*
X86448900Y-92125000D03*
X109900000Y-112014000D03*
X66055000Y-128255000D03*
X81280000Y-81375000D03*
X134620000Y-103124000D03*
X124875000Y-115985000D03*
X109220000Y-111350000D03*
X66052000Y-129298000D03*
X89154000Y-88900000D03*
X134620000Y-98552000D03*
%TO.N,Net-(D1-A)*%
X101600000Y-87534063D03*
X91440000Y-95504000D03*
%TO.N,Net-(U1-ACP)*%
X91440000Y-80264000D03*
%TO.N,Net-(U1-ACN)*%
X127609600Y-104673400D03*
X104140000Y-70104000D03*
X96480152Y-80224152D03*
%TO.N,Net-(U1-SW1)*%
X112649000Y-96393000D03*
X132588000Y-102870000D03*
X113899000Y-112282000D03*
X114675000Y-111760000D03*
X113899000Y-111500000D03*
%TO.N,Net-(U1-SW2)*%
X152146000Y-94525000D03*
X150696000Y-68654000D03*
X151656500Y-69868500D03*
X152146000Y-95950000D03*
X130302000Y-118364000D03*
X152146000Y-95250000D03*
X151130000Y-69342000D03*
%TO.N,Net-(U1-SRP)*%
X88900000Y-92964000D03*
X137067737Y-106865000D03*
X87757000Y-96189800D03*
X132981700Y-117487700D03*
%TO.N,Batt+*%
X44958000Y-118110000D03*
X44742500Y-117175000D03*
X58595950Y-113754050D03*
X44075000Y-118110000D03*
X58629950Y-112779950D03*
X78232000Y-115824000D03*
X58125900Y-113284000D03*
%TO.N,Net-(U1-TS)*%
X67030600Y-104673400D03*
X102362000Y-78486000D03*
X83820000Y-89234189D03*
%TO.N,Net-(U1-FB)*%
X82042000Y-95504000D03*
%TO.N,Net-(U1-STAT1)*%
X78740000Y-87884000D03*
%TO.N,Net-(U1-STAT2)*%
X80330991Y-87833790D03*
%TO.N,Net-(U1-\u002APG)*%
X81095916Y-88068084D03*
%TO.N,CE*%
X82121410Y-88734063D03*
X72898000Y-65278000D03*
X72898000Y-85090000D03*
%TO.N,SCL*%
X83820000Y-65024000D03*
%TO.N,INT*%
X78740000Y-65024000D03*
%TO.N,SDL*%
X81280000Y-65024000D03*
%TO.N,Net-(U1-ICHG)*%
X83870800Y-90932000D03*
X78740000Y-84074000D03*
%TO.N,Net-(C30-Pad1)*%
X124699300Y-100852700D03*
X124699300Y-105156000D03*
X101600000Y-100584000D03*
X110490000Y-103124000D03*
X131826000Y-97790000D03*
%TO.N,Net-(C21-Pad2)*%
X99225000Y-115824000D03*
X144780000Y-103124000D03*
X98552000Y-115824000D03*
X133070000Y-113538000D03*
X129114100Y-113709900D03*
X133070000Y-112925000D03*
X129549500Y-113274500D03*
X97850000Y-115824000D03*
X128550000Y-114046000D03*
%TD*%
D48*
%TO.N,Net-(U1-ACOV)*%
X82589748Y-80264748D02*
X87549811Y-80264748D01*
X77875000Y-75550000D02*
X82589748Y-80264748D01*
X76200000Y-67564000D02*
X76200000Y-75125000D01*
X76200000Y-75125000D02*
X76625000Y-75550000D01*
X76200000Y-75125000D02*
X76200000Y-78486000D01*
X76625000Y-75550000D02*
X77875000Y-75550000D01*
%TO.N,Batt-*%
X80822800Y-80721200D02*
X79211900Y-80721200D01*
X81280000Y-81178400D02*
X80822800Y-80721200D01*
X81280000Y-84074000D02*
X81280000Y-81375000D01*
X81280000Y-81375000D02*
X81280000Y-81178400D01*
%TO.N,Net-(U1-LODRV1)*%
X92120322Y-87133811D02*
X91351100Y-87133811D01*
X107947133Y-71307000D02*
X92120322Y-87133811D01*
X128598000Y-81023300D02*
X118881700Y-71307000D01*
X128598000Y-90424000D02*
X128598000Y-81023300D01*
X114300000Y-90825000D02*
X122086100Y-90825000D01*
X114300000Y-96089000D02*
X114300000Y-90825000D01*
X122086100Y-90825000D02*
X122487100Y-90424000D01*
X110195000Y-100194000D02*
X114300000Y-96089000D01*
X118881700Y-71307000D02*
X107947133Y-71307000D01*
X122487100Y-90424000D02*
X128598000Y-90424000D01*
%TO.N,Batt-*%
X104040874Y-88634189D02*
X91351100Y-88634189D01*
X105750685Y-90344000D02*
X104040874Y-88634189D01*
X121840000Y-90344000D02*
X105750685Y-90344000D01*
X121840000Y-87884000D02*
X121840000Y-90344000D01*
D49*
%TO.N,Batt+*%
X51700000Y-115331000D02*
X54450000Y-118081000D01*
D50*
X54450000Y-118081000D02*
X52019200Y-118081000D01*
D49*
X51700000Y-113284000D02*
X44742500Y-113284000D01*
X51700000Y-113284000D02*
X51700000Y-115331000D01*
D50*
%TO.N,Buck Input*%
X52529000Y-63803000D02*
X52529000Y-66548000D01*
X57658000Y-68933000D02*
X55273000Y-66548000D01*
X91298300Y-77901800D02*
X92760800Y-76439300D01*
X91327700Y-50772300D02*
X91327700Y-62458600D01*
D51*
X50880000Y-56134000D02*
X50800000Y-56214000D01*
D50*
X91440000Y-75118500D02*
X92760800Y-76439300D01*
D52*
X88649937Y-84937600D02*
X88649937Y-80006063D01*
D53*
X98599160Y-95297160D02*
X98552000Y-95250000D01*
D51*
X52578000Y-63754000D02*
X52529000Y-63803000D01*
D50*
X88550000Y-47950000D02*
X91350000Y-50750000D01*
X93192600Y-62458600D02*
X91327700Y-62458600D01*
X50880000Y-56134000D02*
X59064000Y-47950000D01*
X100416000Y-97114000D02*
X101600000Y-97114000D01*
X55273000Y-66548000D02*
X52529000Y-66548000D01*
X90754200Y-77901800D02*
X91298300Y-77901800D01*
X93218000Y-62484000D02*
X93218000Y-66802000D01*
D51*
X57658000Y-70104000D02*
X57658000Y-68933000D01*
D50*
X91350000Y-50750000D02*
X91327700Y-50772300D01*
X50800000Y-61976000D02*
X52578000Y-63754000D01*
X93320200Y-76351800D02*
X94996000Y-74676000D01*
X57658000Y-77706000D02*
X57658000Y-70104000D01*
X98599160Y-95297160D02*
X100416000Y-97114000D01*
X92456000Y-67564000D02*
X93218000Y-66802000D01*
X50800000Y-56214000D02*
X50800000Y-61976000D01*
D48*
X93192600Y-62458600D02*
X93218000Y-62484000D01*
D50*
X89916000Y-78740000D02*
X90754200Y-77901800D01*
D52*
X88649937Y-80006063D02*
X89916000Y-78740000D01*
D50*
X91440000Y-67564000D02*
X91440000Y-75118500D01*
X59064000Y-47950000D02*
X88550000Y-47950000D01*
X91440000Y-67564000D02*
X92456000Y-67564000D01*
%TO.N,Batt-*%
X124875000Y-115825000D02*
X124875000Y-115985000D01*
X109220000Y-110490000D02*
X109220000Y-111350000D01*
D48*
X86521026Y-90062441D02*
X87156300Y-90062441D01*
D50*
X134620000Y-98000000D02*
X134620000Y-95660000D01*
X52070000Y-126085600D02*
X50038000Y-126085600D01*
D49*
X133636241Y-107155759D02*
X133636241Y-104187759D01*
D50*
X124875000Y-117250000D02*
X124086000Y-118039000D01*
D49*
X115245000Y-118039000D02*
X115245000Y-116149000D01*
X109220000Y-112014000D02*
X109900000Y-112014000D01*
X115245000Y-116149000D02*
X117475000Y-113919000D01*
D48*
X88900000Y-87884000D02*
X89650189Y-88634189D01*
D50*
X108895000Y-100294428D02*
X105797518Y-103391910D01*
D51*
X49677000Y-66646000D02*
X49579000Y-66548000D01*
D53*
X154004000Y-128016000D02*
X154020000Y-128000000D01*
D50*
X68580000Y-106576500D02*
X68580000Y-108650000D01*
D53*
X134620000Y-95660000D02*
X134776000Y-95504000D01*
D48*
X76200000Y-57346651D02*
X76396651Y-57150000D01*
D49*
X133636241Y-104187759D02*
X134700000Y-103124000D01*
D50*
X49579000Y-66548000D02*
X45720000Y-62689000D01*
X139856000Y-94029000D02*
X139856000Y-84836000D01*
D48*
X86448900Y-94667632D02*
X86013532Y-95103000D01*
D51*
X45720000Y-62689000D02*
X45720000Y-62484000D01*
D48*
X89650189Y-88634189D02*
X91351100Y-88634189D01*
D53*
X44390000Y-47558000D02*
X44450000Y-47498000D01*
D50*
X64975000Y-128778000D02*
X63373000Y-128778000D01*
X50038000Y-126085600D02*
X49934600Y-126189000D01*
D48*
X108895000Y-100194000D02*
X108525692Y-99824692D01*
X83312000Y-96774000D02*
X82042000Y-98044000D01*
D50*
X70535800Y-113868200D02*
X70535800Y-117699800D01*
D49*
X124086000Y-118039000D02*
X115245000Y-118039000D01*
D48*
X87156300Y-90062441D02*
X88900000Y-88318741D01*
X88900000Y-87884000D02*
X88900000Y-88646000D01*
D49*
X82550000Y-122936000D02*
X75772000Y-122936000D01*
D50*
X63373000Y-128778000D02*
X60629800Y-126034800D01*
D48*
X70510400Y-113893600D02*
X71120000Y-113284000D01*
D50*
X138381000Y-95504000D02*
X139856000Y-94029000D01*
D48*
X116984830Y-85488830D02*
X116984830Y-77868830D01*
D49*
X109900000Y-112014000D02*
X111110000Y-112014000D01*
D48*
X73740000Y-120904000D02*
X73660000Y-120904000D01*
X90150315Y-90830400D02*
X90150315Y-89134315D01*
D50*
X134776000Y-95504000D02*
X138381000Y-95504000D01*
D49*
X122231172Y-112972828D02*
X127819172Y-112972828D01*
D48*
X80039200Y-98044000D02*
X76200000Y-101883200D01*
X88900000Y-87884000D02*
X87149559Y-89634441D01*
D49*
X91186000Y-122174000D02*
X87376000Y-122174000D01*
X94742000Y-122174000D02*
X91186000Y-122174000D01*
D48*
X83312000Y-95444900D02*
X83312000Y-96774000D01*
D50*
X60629800Y-126034800D02*
X52120800Y-126034800D01*
D49*
X127819172Y-112972828D02*
X133636241Y-107155759D01*
D53*
X154020000Y-128000000D02*
X154330000Y-128310000D01*
D50*
X105797518Y-107067518D02*
X109220000Y-110490000D01*
X49934600Y-126189000D02*
X48260000Y-126189000D01*
D48*
X88900000Y-88318741D02*
X88900000Y-87884000D01*
D50*
X70535800Y-117699800D02*
X73740000Y-120904000D01*
X124875000Y-115985000D02*
X124875000Y-117250000D01*
D48*
X86448900Y-90134567D02*
X86448900Y-92125000D01*
D50*
X68580000Y-108650000D02*
X68580000Y-111912400D01*
D49*
X117475000Y-113919000D02*
X121285000Y-113919000D01*
D48*
X76200000Y-108204000D02*
X71120000Y-113284000D01*
D50*
X68580000Y-111912400D02*
X70535800Y-113868200D01*
D53*
X134700000Y-103124000D02*
X134620000Y-103124000D01*
D49*
X87376000Y-122174000D02*
X83312000Y-122174000D01*
D48*
X71120000Y-113284000D02*
X70535800Y-113868200D01*
D50*
X105797518Y-103391910D02*
X105797518Y-107067518D01*
D49*
X111110000Y-112014000D02*
X115245000Y-116149000D01*
D50*
X109220000Y-111350000D02*
X109220000Y-112014000D01*
D48*
X86448900Y-90134567D02*
X86521026Y-90062441D01*
D49*
X121285000Y-113919000D02*
X122231172Y-112972828D01*
D50*
X49677000Y-77724000D02*
X49677000Y-70104000D01*
X134620000Y-98552000D02*
X134620000Y-98000000D01*
D48*
X121840000Y-87884000D02*
X119380000Y-87884000D01*
D50*
X124086000Y-118039000D02*
X125519000Y-118039000D01*
X65532000Y-128778000D02*
X64975000Y-128778000D01*
D48*
X119380000Y-87884000D02*
X116984830Y-85488830D01*
D49*
X75772000Y-122936000D02*
X73740000Y-120904000D01*
D48*
X86448900Y-92125000D02*
X86448900Y-94667632D01*
X82042000Y-98044000D02*
X80039200Y-98044000D01*
X88900000Y-88646000D02*
X89154000Y-88900000D01*
D49*
X83312000Y-122174000D02*
X82550000Y-122936000D01*
D53*
X52120800Y-126034800D02*
X52070000Y-126085600D01*
D48*
X90150315Y-89134315D02*
X88900000Y-87884000D01*
X76200000Y-101883200D02*
X76200000Y-108204000D01*
D50*
X49677000Y-70104000D02*
X49677000Y-66646000D01*
D48*
X83653900Y-95103000D02*
X83312000Y-95444900D01*
X116984830Y-77868830D02*
X116840000Y-77724000D01*
X86013532Y-95103000D02*
X83653900Y-95103000D01*
%TO.N,Net-(U1-DRV_SUP)*%
X106680000Y-85344000D02*
X112008245Y-80015755D01*
X91351100Y-88134063D02*
X106429937Y-88134063D01*
X106680000Y-87884000D02*
X106680000Y-85344000D01*
X112008245Y-77892245D02*
X111840000Y-77724000D01*
X106429937Y-88134063D02*
X106680000Y-87884000D01*
X112008245Y-80015755D02*
X112008245Y-77892245D01*
%TO.N,Net-(D1-A)*%
X96520000Y-100324000D02*
X91440000Y-100324000D01*
X91423226Y-87561811D02*
X92259422Y-87561811D01*
X88900000Y-100324000D02*
X91440000Y-100324000D01*
X91440000Y-95504000D02*
X91440000Y-100324000D01*
X101949937Y-87534063D02*
X104165400Y-85318600D01*
X86360000Y-100324000D02*
X88900000Y-100324000D01*
X104637233Y-75184000D02*
X114300000Y-75184000D01*
X101600000Y-87534063D02*
X101949937Y-87534063D01*
X92259422Y-87561811D02*
X104637233Y-75184000D01*
X114300000Y-87884000D02*
X111760000Y-87884000D01*
X91351100Y-87633937D02*
X91423226Y-87561811D01*
X101572252Y-87561811D02*
X101600000Y-87534063D01*
X92259422Y-87561811D02*
X101572252Y-87561811D01*
X114300000Y-75184000D02*
X114300000Y-87884000D01*
X104165400Y-85318600D02*
X104165400Y-81282000D01*
X114300000Y-87884000D02*
X116840000Y-87884000D01*
%TO.N,Net-(C4-Pad1)*%
X86360000Y-62484000D02*
X81280000Y-57404000D01*
X86360000Y-62484000D02*
X88138000Y-62484000D01*
%TO.N,Net-(U1-ACP)*%
X92760800Y-79364300D02*
X92339700Y-79364300D01*
X91440000Y-80264000D02*
X90150315Y-81553685D01*
X53340000Y-95504000D02*
X53340000Y-93980000D01*
X92339700Y-79364300D02*
X91440000Y-80264000D01*
X53340000Y-93980000D02*
X50800000Y-91440000D01*
X50800000Y-91440000D02*
X50800000Y-86440000D01*
X50800000Y-86440000D02*
X53340000Y-83900000D01*
X90150315Y-81553685D02*
X90150315Y-84937600D01*
%TO.N,Net-(U1-ACN)*%
X53340000Y-88900000D02*
X55880000Y-88900000D01*
X91846400Y-84937600D02*
X91440000Y-84937600D01*
X91440000Y-84937600D02*
X90650441Y-84937600D01*
X104140000Y-72564304D02*
X104140000Y-70104000D01*
X96480152Y-80224152D02*
X104140000Y-72564304D01*
X127624300Y-104658700D02*
X127609600Y-104673400D01*
X66040000Y-78740000D02*
X66040000Y-73580000D01*
X96520000Y-80264000D02*
X91846400Y-84937600D01*
X55880000Y-88900000D02*
X66040000Y-78740000D01*
X96480152Y-80224152D02*
X96520000Y-80264000D01*
X127624300Y-102920800D02*
X127624300Y-104658700D01*
%TO.N,Net-(U1-BTST1)*%
X119380000Y-103044000D02*
X119380000Y-103973943D01*
X107781034Y-70906000D02*
X119047800Y-70906000D01*
X91351100Y-86633685D02*
X92053348Y-86633685D01*
X125831900Y-108805000D02*
X126599000Y-108037900D01*
X128999000Y-105637900D02*
X126599000Y-108037900D01*
X119047800Y-70906000D02*
X128999000Y-80857200D01*
X119380000Y-103973943D02*
X124211057Y-108805000D01*
X92053348Y-86633685D02*
X107781034Y-70906000D01*
X124211057Y-108805000D02*
X125831900Y-108805000D01*
X128999000Y-80857200D02*
X128999000Y-105637900D01*
D50*
%TO.N,Net-(U1-SW1)*%
X110460000Y-109110000D02*
X110460000Y-108345999D01*
X132588000Y-102108000D02*
X134429278Y-100266722D01*
X137223278Y-100266722D02*
X143764000Y-93726000D01*
D49*
X143764000Y-93726000D02*
X143764000Y-70104000D01*
D50*
X113538000Y-111760000D02*
X111760000Y-109982000D01*
D53*
X110871000Y-96393000D02*
X109220000Y-98044000D01*
X110460000Y-108345999D02*
X110460000Y-108204000D01*
D48*
X91919400Y-85633433D02*
X91351100Y-85633433D01*
D53*
X131318000Y-70104000D02*
X131318000Y-69418200D01*
D50*
X111332000Y-109982000D02*
X110460000Y-109110000D01*
D48*
X131318000Y-70104000D02*
X107448833Y-70104000D01*
X107448833Y-70104000D02*
X91919400Y-85633433D01*
D53*
X114153000Y-112282000D02*
X114675000Y-111760000D01*
X113899000Y-112282000D02*
X114153000Y-112282000D01*
X131318000Y-70104000D02*
X143764000Y-70104000D01*
D50*
X111760000Y-109982000D02*
X111332000Y-109982000D01*
X114675000Y-111760000D02*
X113538000Y-111760000D01*
D53*
X112649000Y-96393000D02*
X110871000Y-96393000D01*
X131216400Y-69316600D02*
X131216400Y-54102000D01*
X131318000Y-69418200D02*
X131216400Y-69316600D01*
D48*
X118979000Y-97643000D02*
X119380000Y-98044000D01*
D50*
X134429278Y-100266722D02*
X137223278Y-100266722D01*
X132588000Y-102870000D02*
X132588000Y-102108000D01*
%TO.N,Net-(U1-SW2)*%
X130302000Y-118364000D02*
X127700000Y-118364000D01*
X146913600Y-57404000D02*
X146913600Y-64871600D01*
X150696000Y-68654000D02*
X151130000Y-69088000D01*
D48*
X106573000Y-112302300D02*
X106573000Y-113685000D01*
X96520000Y-90830400D02*
X95546500Y-90830400D01*
X100872200Y-90830400D02*
X103418000Y-93376200D01*
D54*
X142630000Y-98720000D02*
X146100000Y-95250000D01*
D50*
X151130000Y-69088000D02*
X151130000Y-69342000D01*
D54*
X146100000Y-95250000D02*
X146569000Y-95250000D01*
D48*
X103418000Y-93376200D02*
X103418000Y-109147300D01*
X145505000Y-122719000D02*
X147320000Y-120904000D01*
X106573000Y-113685000D02*
X115607000Y-122719000D01*
X92058500Y-90830400D02*
X96520000Y-90830400D01*
X92058500Y-90830400D02*
X100872200Y-90830400D01*
D50*
X146913600Y-64871600D02*
X150696000Y-68654000D01*
D54*
X142630000Y-100259000D02*
X142630000Y-98720000D01*
D48*
X115607000Y-122719000D02*
X145505000Y-122719000D01*
X103418000Y-109147300D02*
X106573000Y-112302300D01*
D50*
X146569000Y-95250000D02*
X152146000Y-95250000D01*
D48*
X92058500Y-90830400D02*
X90650441Y-90830400D01*
%TO.N,Net-(U1-BTST2)*%
X116134100Y-121917000D02*
X141307000Y-121917000D01*
X100810441Y-89634441D02*
X104220000Y-93044000D01*
X141307000Y-121917000D02*
X142320000Y-120904000D01*
X91351100Y-89634441D02*
X100810441Y-89634441D01*
X104220000Y-93044000D02*
X104220000Y-108815100D01*
X107442000Y-113224900D02*
X116134100Y-121917000D01*
X107442000Y-112037100D02*
X107442000Y-113224900D01*
X104220000Y-108815100D02*
X107442000Y-112037100D01*
%TO.N,Net-(U1-SRP)*%
X136082500Y-114289300D02*
X136082500Y-109096974D01*
X79197200Y-104749600D02*
X87757000Y-96189800D01*
X132981700Y-117390100D02*
X136082500Y-114289300D01*
X137067737Y-108111737D02*
X137067737Y-106865000D01*
X136082500Y-109096974D02*
X137067737Y-108111737D01*
X88649937Y-90830400D02*
X88649937Y-92713937D01*
X78333600Y-104749600D02*
X79197200Y-104749600D01*
X132981700Y-117487700D02*
X132981700Y-117390100D01*
X88649937Y-92713937D02*
X88900000Y-92964000D01*
%TO.N,Net-(U1-SRN)*%
X89638378Y-94996000D02*
X88392000Y-93749622D01*
X92710000Y-92964000D02*
X90678000Y-94996000D01*
X90678000Y-94996000D02*
X89638378Y-94996000D01*
X88392000Y-93749622D02*
X88392000Y-93726000D01*
X63500000Y-117094000D02*
X70866000Y-124460000D01*
X78740000Y-120904000D02*
X99060000Y-120904000D01*
X99060000Y-120904000D02*
X106680000Y-120904000D01*
X102438700Y-92964000D02*
X92710000Y-92964000D01*
X106172000Y-120396000D02*
X106172000Y-112468400D01*
X103017000Y-109313400D02*
X103017000Y-93542300D01*
X70866000Y-124460000D02*
X95504000Y-124460000D01*
X63500000Y-110744000D02*
X63500000Y-117094000D01*
X88149811Y-93483811D02*
X88149811Y-90830400D01*
X88392000Y-93726000D02*
X88149811Y-93483811D01*
X106680000Y-120904000D02*
X106172000Y-120396000D01*
X103017000Y-93542300D02*
X102438700Y-92964000D01*
X95504000Y-124460000D02*
X99060000Y-120904000D01*
X106172000Y-112468400D02*
X103017000Y-109313400D01*
D50*
%TO.N,Batt+*%
X44742500Y-92964000D02*
X44742500Y-87884000D01*
X44742500Y-98044000D02*
X44742500Y-92964000D01*
D49*
X58629950Y-112779950D02*
X61976000Y-109433900D01*
D50*
X51993800Y-118055600D02*
X51394400Y-118055600D01*
X60604400Y-118081000D02*
X54450000Y-118081000D01*
X44742500Y-117175000D02*
X44742500Y-113284000D01*
X44742500Y-77724000D02*
X44742500Y-72644000D01*
D49*
X58125900Y-113284000D02*
X51700000Y-113284000D01*
D48*
X44958000Y-118110000D02*
X44742500Y-117894500D01*
D49*
X61976000Y-109433900D02*
X61976000Y-101117400D01*
D53*
X52019200Y-118081000D02*
X51993800Y-118055600D01*
D50*
X44742500Y-113284000D02*
X44742500Y-108204000D01*
X48920400Y-120529600D02*
X48920400Y-122578600D01*
D49*
X78232000Y-115824000D02*
X81620000Y-115824000D01*
X58125900Y-113284000D02*
X58629950Y-112779950D01*
D50*
X51394400Y-118055600D02*
X48920400Y-120529600D01*
X44742500Y-108204000D02*
X44742500Y-103124000D01*
X44742500Y-117894500D02*
X44742500Y-117175000D01*
D49*
X61976000Y-101117400D02*
X67564000Y-95529400D01*
D50*
X44742500Y-87884000D02*
X44742500Y-82804000D01*
D53*
X81620000Y-115824000D02*
X81874000Y-115570000D01*
D50*
X44742500Y-82804000D02*
X44742500Y-77724000D01*
X48920400Y-122578600D02*
X48260000Y-123239000D01*
X44742500Y-103124000D02*
X44742500Y-98044000D01*
D48*
%TO.N,Net-(D1-K)*%
X96520000Y-105664000D02*
X96520000Y-103124000D01*
%TO.N,Net-(D2-K)*%
X91440000Y-105664000D02*
X91440000Y-103124000D01*
%TO.N,Net-(D3-K)*%
X86360000Y-105664000D02*
X86360000Y-103124000D01*
%TO.N,Net-(U1-HIDRV1)*%
X122505000Y-108204000D02*
X123507000Y-109206000D01*
X119213900Y-70505000D02*
X107614933Y-70505000D01*
X91986374Y-86133559D02*
X91351100Y-86133559D01*
X111760000Y-108204000D02*
X122505000Y-108204000D01*
X129400000Y-105804000D02*
X129400000Y-80691100D01*
X125998000Y-109206000D02*
X129400000Y-105804000D01*
X129400000Y-80691100D02*
X119213900Y-70505000D01*
X107614933Y-70505000D02*
X91986374Y-86133559D01*
X123507000Y-109206000D02*
X125998000Y-109206000D01*
%TO.N,Net-(U1-LODRV2)*%
X114123200Y-119339000D02*
X107843000Y-113058800D01*
X104621000Y-92810000D02*
X100945315Y-89134315D01*
X104621000Y-108649000D02*
X107714000Y-111742000D01*
X104621000Y-108649000D02*
X104621000Y-92810000D01*
X125550000Y-119339000D02*
X114123200Y-119339000D01*
X107843000Y-111871000D02*
X107714000Y-111742000D01*
X107843000Y-113058800D02*
X107843000Y-111871000D01*
X100945315Y-89134315D02*
X91351100Y-89134315D01*
%TO.N,Net-(U1-HIDRV2)*%
X144780000Y-118364000D02*
X144780000Y-120904000D01*
X106974000Y-112136200D02*
X103819000Y-108981200D01*
X100743467Y-90134567D02*
X91351100Y-90134567D01*
X142630000Y-106130999D02*
X141639000Y-107121999D01*
X103819000Y-108981200D02*
X103819000Y-93210100D01*
X144780000Y-120904000D02*
X143366000Y-122318000D01*
X141639000Y-115223000D02*
X144780000Y-118364000D01*
X103819000Y-93210100D02*
X100743467Y-90134567D01*
X115968000Y-122318000D02*
X106974000Y-113324000D01*
X142630000Y-101559000D02*
X142630000Y-106130999D01*
X143366000Y-122318000D02*
X115968000Y-122318000D01*
X141639000Y-107121999D02*
X141639000Y-115223000D01*
X106974000Y-113324000D02*
X106974000Y-112136200D01*
%TO.N,Net-(U1-ACUV)*%
X86360000Y-72124189D02*
X88149811Y-73914000D01*
X88149811Y-73914000D02*
X88149811Y-84937600D01*
X86360000Y-67564000D02*
X86360000Y-72124189D01*
X86360000Y-67564000D02*
X78052300Y-67564000D01*
%TO.N,Net-(U1-ACOV)*%
X87649685Y-80363874D02*
X87550559Y-80264748D01*
X76200000Y-78486000D02*
X76200000Y-80264000D01*
X87550559Y-80264748D02*
X87549811Y-80264748D01*
X87649685Y-84937600D02*
X87649685Y-80363874D01*
%TO.N,Net-(U1-TS)*%
X102362000Y-78486000D02*
X104138000Y-80262000D01*
X67030600Y-104673400D02*
X68501900Y-104673400D01*
X82804000Y-90250189D02*
X82804000Y-96266000D01*
X82804000Y-96266000D02*
X82042000Y-97028000D01*
X83919874Y-89134315D02*
X86448900Y-89134315D01*
X83820000Y-89234189D02*
X83919874Y-89134315D01*
X76303500Y-97028000D02*
X68580000Y-104751500D01*
X68501900Y-104673400D02*
X68580000Y-104751500D01*
X104138000Y-80262000D02*
X104165400Y-80262000D01*
X83820000Y-89234189D02*
X82804000Y-90250189D01*
X82042000Y-97028000D02*
X76303500Y-97028000D01*
%TO.N,Net-(U1-FB)*%
X78740000Y-95504000D02*
X78714600Y-95529400D01*
X88900000Y-98044000D02*
X88900000Y-95250000D01*
X88900000Y-95250000D02*
X87649685Y-93999685D01*
X87649685Y-93999685D02*
X87649685Y-90830400D01*
X82042000Y-95504000D02*
X78740000Y-95504000D01*
X78714600Y-95529400D02*
X72644000Y-95529400D01*
%TO.N,Net-(U1-FBG)*%
X85852000Y-96012000D02*
X87149559Y-94714441D01*
X87149559Y-94714441D02*
X87149559Y-90830400D01*
X83820000Y-98044000D02*
X83820000Y-96012000D01*
X83820000Y-96012000D02*
X85852000Y-96012000D01*
%TO.N,Net-(U1-FSW_SYNC)*%
X86360000Y-82804000D02*
X86360000Y-84148041D01*
X86360000Y-84148041D02*
X87149559Y-84937600D01*
%TO.N,Net-(U1-STAT1)*%
X86381173Y-87066084D02*
X86448900Y-87133811D01*
X78740000Y-87884000D02*
X79557916Y-87066084D01*
X79557916Y-87066084D02*
X86381173Y-87066084D01*
%TO.N,Net-(U1-STAT2)*%
X83720874Y-87633937D02*
X86448900Y-87633937D01*
X83554021Y-87467084D02*
X83720874Y-87633937D01*
X80330991Y-87833790D02*
X80697697Y-87467084D01*
X80697697Y-87467084D02*
X83554021Y-87467084D01*
%TO.N,Net-(U1-\u002APG)*%
X86448900Y-88134063D02*
X81161895Y-88134063D01*
X81161895Y-88134063D02*
X81095916Y-88068084D01*
%TO.N,CE*%
X82121410Y-88734063D02*
X82221284Y-88634189D01*
X82221284Y-88634189D02*
X86448900Y-88634189D01*
X72898000Y-85090000D02*
X72898000Y-65278000D01*
%TO.N,SCL*%
X74639800Y-65826000D02*
X74639800Y-85633433D01*
X75833900Y-65826000D02*
X74639800Y-65826000D01*
X74639800Y-85633433D02*
X86448900Y-85633433D01*
X83018000Y-65826000D02*
X81646100Y-65826000D01*
X81646100Y-65826000D02*
X81446100Y-66026000D01*
X83820000Y-65024000D02*
X83018000Y-65826000D01*
X81446100Y-66026000D02*
X76033900Y-66026000D01*
X76033900Y-66026000D02*
X75833900Y-65826000D01*
%TO.N,INT*%
X73837800Y-65024000D02*
X73837800Y-86633685D01*
X73837800Y-86633685D02*
X86448900Y-86633685D01*
X78740000Y-65024000D02*
X73837800Y-65024000D01*
%TO.N,SDL*%
X74238800Y-65425000D02*
X76000000Y-65425000D01*
X86448900Y-86133559D02*
X74238800Y-86133559D01*
X74238800Y-86133559D02*
X74238800Y-65425000D01*
X76200000Y-65625000D02*
X81280000Y-65625000D01*
X81280000Y-65625000D02*
X81280000Y-65024000D01*
X76000000Y-65425000D02*
X76200000Y-65625000D01*
%TO.N,Net-(U1-ICHG)*%
X83870800Y-90932000D02*
X84302600Y-90932000D01*
X84812759Y-89634441D02*
X86047900Y-89634441D01*
X84302600Y-90932000D02*
X84609559Y-90625041D01*
X84609559Y-89837641D02*
X84812759Y-89634441D01*
X78740000Y-84074000D02*
X80010000Y-84074000D01*
X84609559Y-90625041D02*
X84609559Y-89837641D01*
D53*
%TO.N,Net-(C_sys1-Pad1)*%
X40640000Y-66294000D02*
X41617500Y-67271500D01*
X41617500Y-92964000D02*
X41617500Y-87884000D01*
X41617500Y-108204000D02*
X41617500Y-103124000D01*
X41617500Y-103124000D02*
X41617500Y-98044000D01*
X41617500Y-113284000D02*
X41617500Y-108204000D01*
X41617500Y-67271500D02*
X41617500Y-72644000D01*
X41617500Y-87884000D02*
X41617500Y-82804000D01*
X41617500Y-82804000D02*
X41617500Y-77724000D01*
X41617500Y-72644000D02*
X41617500Y-77724000D01*
X40640000Y-62484000D02*
X40640000Y-66294000D01*
X41617500Y-98044000D02*
X41617500Y-92964000D01*
%TO.N,Net-(C16-Pad1)*%
X60629800Y-123084800D02*
X60629800Y-121056400D01*
X60629800Y-121056400D02*
X60604400Y-121031000D01*
%TO.N,Net-(C18-Pad2)*%
X56565800Y-120954800D02*
X56591200Y-120929400D01*
X56565800Y-123084800D02*
X56565800Y-120954800D01*
%TO.N,Net-(C19-Pad2)*%
X52070000Y-121081800D02*
X51993800Y-121005600D01*
X52070000Y-123135600D02*
X52070000Y-121081800D01*
D50*
%TO.N,Net-(C30-Pad1)*%
X131826000Y-97255454D02*
X131826000Y-95504000D01*
X110490000Y-103124000D02*
X110490000Y-105759000D01*
X124699300Y-105156000D02*
X124699300Y-102920800D01*
D53*
X110490000Y-105759000D02*
X110785000Y-106054000D01*
X124714000Y-100838000D02*
X124699300Y-100852700D01*
D50*
X131826000Y-97255454D02*
X131826000Y-97790000D01*
X131826000Y-84836000D02*
X131826000Y-95504000D01*
X101600000Y-98974000D02*
X101600000Y-100584000D01*
X124699300Y-100852700D02*
X124699300Y-102920800D01*
%TO.N,Net-(C12-Pad1)*%
X136906000Y-84836000D02*
X134776000Y-84836000D01*
D49*
%TO.N,Net-(C21-Pad2)*%
X133070000Y-112925000D02*
X133070000Y-110744000D01*
X83820000Y-119224000D02*
X83820000Y-115656000D01*
X132080000Y-110744000D02*
X133070000Y-110744000D01*
X129114100Y-113709900D02*
X129549500Y-113274500D01*
D53*
X128976885Y-113709900D02*
X129114100Y-113709900D01*
D49*
X96168000Y-115824000D02*
X94742000Y-114398000D01*
X133070000Y-113538000D02*
X133070000Y-112925000D01*
D50*
X144780000Y-103124000D02*
X144780000Y-100584000D01*
D53*
X128976886Y-113709900D02*
X128912958Y-113773828D01*
X128912958Y-113773828D02*
X128976885Y-113709900D01*
X129050172Y-113773828D02*
X128912958Y-113773828D01*
D51*
X83734000Y-115570000D02*
X83820000Y-115570000D01*
D49*
X83820000Y-115570000D02*
X85041000Y-114349000D01*
D51*
X83820000Y-115656000D02*
X83734000Y-115570000D01*
D49*
X85041000Y-114349000D02*
X87376000Y-114349000D01*
D53*
X129114100Y-113709900D02*
X128976886Y-113709900D01*
D49*
X98552000Y-115824000D02*
X97850000Y-115824000D01*
D53*
X129114100Y-113709900D02*
X129050172Y-113773828D01*
D49*
X87376000Y-114349000D02*
X94693000Y-114349000D01*
X97850000Y-115824000D02*
X96168000Y-115824000D01*
X129549500Y-113274500D02*
X132080000Y-110744000D01*
D51*
X94693000Y-114349000D02*
X94742000Y-114398000D01*
D49*
%TO.N,Net-(C24-Pad1)*%
X91186000Y-117299000D02*
X91186000Y-119224000D01*
%TO.N,Net-(C26-Pad1)*%
X87376000Y-117299000D02*
X87376000Y-119224000D01*
%TO.N,Net-(C28-Pad1)*%
X94742000Y-117348000D02*
X94742000Y-119224000D01*
D50*
%TO.N,Net-(C31-Pad1)*%
X136906000Y-88392000D02*
X134776000Y-88392000D01*
%TO.N,Net-(C33-Pad1)*%
X136906000Y-91948000D02*
X134776000Y-91948000D01*
D51*
%TO.N,Net-(C35-Pad1)*%
X52627000Y-77724000D02*
X54690000Y-77724000D01*
X54690000Y-77724000D02*
X54708000Y-77706000D01*
%TO.N,Net-(C37-Pad1)*%
X52627000Y-73914000D02*
X54757000Y-73914000D01*
%TO.N,Net-(C39-Pad1)*%
X52627000Y-70104000D02*
X54708000Y-70104000D01*
%TD*%
M02*
