%TF.GenerationSoftware,KiCad,Pcbnew,8.0.8*%
%TF.CreationDate,2025-04-04T13:22:33-04:00*%
%TF.ProjectId,Precharge Module V4.0,50726563-6861-4726-9765-204d6f64756c,rev?*%
%TF.SameCoordinates,Original*%
%TF.FileFunction,Paste,Top*%
%TF.FilePolarity,Positive*%
%FSLAX46Y46*%
G04 Gerber Fmt 4.6, Leading zero omitted, Abs format (unit mm)*
G04 Created by KiCad (PCBNEW 8.0.8) date 2025-04-04 13:22:33*
%MOMM*%
%LPD*%
G01*
G04 APERTURE LIST*
G04 Aperture macros list*
%AMRoundRect*
0 Rectangle with rounded corners*
0 $1 Rounding radius*
0 $2 $3 $4 $5 $6 $7 $8 $9 X,Y pos of 4 corners*
0 Add a 4 corners polygon primitive as box body*
4,1,4,$2,$3,$4,$5,$6,$7,$8,$9,$2,$3,0*
0 Add four circle primitives for the rounded corners*
1,1,$1+$1,$2,$3*
1,1,$1+$1,$4,$5*
1,1,$1+$1,$6,$7*
1,1,$1+$1,$8,$9*
0 Add four rect primitives between the rounded corners*
20,1,$1+$1,$2,$3,$4,$5,0*
20,1,$1+$1,$4,$5,$6,$7,0*
20,1,$1+$1,$6,$7,$8,$9,0*
20,1,$1+$1,$8,$9,$2,$3,0*%
G04 Aperture macros list end*
%ADD10R,0.863600X1.600200*%
%ADD11R,1.219200X0.558800*%
%ADD12R,0.711200X0.939800*%
%ADD13R,2.500000X0.955600*%
%ADD14R,0.533400X1.168400*%
%ADD15R,1.016000X1.193800*%
%ADD16R,0.855600X1.600000*%
%ADD17R,0.863600X0.558800*%
%ADD18R,0.939800X0.711200*%
%ADD19RoundRect,0.075000X-0.910000X-0.225000X0.910000X-0.225000X0.910000X0.225000X-0.910000X0.225000X0*%
%ADD20R,0.558800X0.863600*%
%ADD21R,0.812800X1.346200*%
G04 APERTURE END LIST*
D10*
%TO.C,D3*%
X70100000Y-31800000D03*
X67052000Y-31800000D03*
%TD*%
D11*
%TO.C,Q1*%
X61033200Y-28519000D03*
X61033200Y-30424000D03*
X63166800Y-29471500D03*
%TD*%
D12*
%TO.C,R3*%
X72500000Y-29000000D03*
X73897000Y-29000000D03*
%TD*%
D13*
%TO.C,C3*%
X65900000Y-53355602D03*
X65900000Y-50400000D03*
%TD*%
D10*
%TO.C,D2*%
X70100000Y-29300000D03*
X67052000Y-29300000D03*
%TD*%
D14*
%TO.C,U5*%
X54752500Y-36684000D03*
X52847500Y-36684000D03*
X53800000Y-38716000D03*
%TD*%
D15*
%TO.C,R9*%
X73750900Y-32000000D03*
X72049100Y-32000000D03*
%TD*%
D16*
%TO.C,C1*%
X61672199Y-38400000D03*
X64727801Y-38400000D03*
%TD*%
%TO.C,C2*%
X66672199Y-38400000D03*
X69727801Y-38400000D03*
%TD*%
D12*
%TO.C,R5*%
X56001500Y-28100000D03*
X57398500Y-28100000D03*
%TD*%
D17*
%TO.C,U2*%
X58200000Y-46405000D03*
X58200000Y-44500000D03*
X55812400Y-45452500D03*
%TD*%
%TO.C,U3*%
X53593800Y-46352500D03*
X53593800Y-44447500D03*
X51206200Y-45400000D03*
%TD*%
D18*
%TO.C,R4*%
X61000000Y-33398500D03*
X61000000Y-32001500D03*
%TD*%
D19*
%TO.C,U1*%
X53530000Y-30895000D03*
X53530000Y-32165000D03*
X53530000Y-33435000D03*
X53530000Y-34705000D03*
X58470000Y-34705000D03*
X58470000Y-33435000D03*
X58470000Y-32165000D03*
X58470000Y-30895000D03*
%TD*%
D20*
%TO.C,U4*%
X58981000Y-36506200D03*
X57076000Y-36506200D03*
X58028500Y-38893800D03*
%TD*%
D21*
%TO.C,R1*%
X52100000Y-27900000D03*
X53903400Y-27900000D03*
%TD*%
M02*
