M48
; DRILL file {KiCad 8.0.8} date 2025-04-04T13:22:31-0400
; FORMAT={-:-/ absolute / inch / decimal}
; #@! TF.CreationDate,2025-04-04T13:22:31-04:00
; #@! TF.GenerationSoftware,Kicad,Pcbnew,8.0.8
; #@! TF.FileFunction,Plated,1,2,PTH
FMAT,2
INCH
; #@! TA.AperFunction,Plated,PTH,ViaDrill
T1C0.0276
; #@! TA.AperFunction,Plated,PTH,ComponentDrill
T2C0.0350
; #@! TA.AperFunction,Plated,PTH,ComponentDrill
T3C0.0402
; #@! TA.AperFunction,Plated,PTH,ComponentDrill
T4C0.0630
%
G90
G05
T1
X2.0344Y-1.4094
X2.1102Y-1.1693
X2.2047Y-1.3189
X2.3622Y-1.7953
X2.4764Y-1.2559
X2.5709Y-1.2047
X2.5748Y-1.126
T2
X1.9915Y-2.0906
X1.9921Y-1.9646
X2.4089Y-1.3937
X2.4398Y-1.6575
X2.4404Y-1.8071
X2.4415Y-2.0906
X2.4421Y-1.9646
X2.8589Y-1.3937
X2.8898Y-1.6575
X2.8904Y-1.8071
T3
X2.0Y-1.0
X2.0Y-2.7
X2.1Y-1.0
X2.1Y-2.7
X2.2Y-1.0
X2.2Y-2.7
X2.3Y-1.0
X2.3Y-2.7
X2.4Y-1.0
X2.4Y-2.7
X2.5Y-1.0
X2.5Y-2.7
X2.6Y-1.0
X2.6Y-2.7
X2.7Y-1.0
X2.7Y-2.7
X2.8Y-1.0
X2.8Y-2.7
X2.9Y-1.0
X2.9Y-2.7
T4
X2.8268Y-2.0551
M30
