%TF.GenerationSoftware,KiCad,Pcbnew,8.0.8*%
%TF.CreationDate,2025-03-02T20:22:08-05:00*%
%TF.ProjectId,Precharge Module V3.0,50726563-6861-4726-9765-204d6f64756c,rev?*%
%TF.SameCoordinates,Original*%
%TF.FileFunction,Soldermask,Top*%
%TF.FilePolarity,Negative*%
%FSLAX46Y46*%
G04 Gerber Fmt 4.6, Leading zero omitted, Abs format (unit mm)*
G04 Created by KiCad (PCBNEW 8.0.8) date 2025-03-02 20:22:08*
%MOMM*%
%LPD*%
G01*
G04 APERTURE LIST*
G04 Aperture macros list*
%AMRoundRect*
0 Rectangle with rounded corners*
0 $1 Rounding radius*
0 $2 $3 $4 $5 $6 $7 $8 $9 X,Y pos of 4 corners*
0 Add a 4 corners polygon primitive as box body*
4,1,4,$2,$3,$4,$5,$6,$7,$8,$9,$2,$3,0*
0 Add four circle primitives for the rounded corners*
1,1,$1+$1,$2,$3*
1,1,$1+$1,$4,$5*
1,1,$1+$1,$6,$7*
1,1,$1+$1,$8,$9*
0 Add four rect primitives between the rounded corners*
20,1,$1+$1,$2,$3,$4,$5,0*
20,1,$1+$1,$4,$5,$6,$7,0*
20,1,$1+$1,$6,$7,$8,$9,0*
20,1,$1+$1,$8,$9,$2,$3,0*%
G04 Aperture macros list end*
%ADD10R,1.600200X0.863600*%
%ADD11R,1.397000X1.397000*%
%ADD12C,1.397000*%
%ADD13C,3.000000*%
%ADD14R,1.219200X0.558800*%
%ADD15R,0.711200X0.939800*%
%ADD16R,2.500000X0.955600*%
%ADD17R,1.193800X1.016000*%
%ADD18R,0.855600X1.600000*%
%ADD19R,0.558800X0.863600*%
%ADD20C,1.954000*%
%ADD21RoundRect,0.100500X-0.986500X-0.301500X0.986500X-0.301500X0.986500X0.301500X-0.986500X0.301500X0*%
%ADD22R,0.812800X1.346200*%
%ADD23R,0.279400X0.660400*%
%ADD24R,0.381000X0.660400*%
G04 APERTURE END LIST*
D10*
%TO.C,D3*%
X55750000Y-49202000D03*
X55750000Y-52250000D03*
%TD*%
D11*
%TO.C,R6*%
X61250000Y-51000000D03*
D12*
X72680000Y-51000000D03*
%TD*%
D13*
%TO.C,PC COIL -*%
X72250000Y-29500000D03*
%TD*%
D14*
%TO.C,Q1*%
X62433200Y-30369000D03*
X62433200Y-32274000D03*
X64566800Y-31321500D03*
%TD*%
D15*
%TO.C,R3*%
X67448500Y-41750000D03*
X66051500Y-41750000D03*
%TD*%
D16*
%TO.C,C3*%
X67750000Y-34227801D03*
X67750000Y-31272199D03*
%TD*%
D10*
%TO.C,D2*%
X67000000Y-39548000D03*
X67000000Y-36500000D03*
%TD*%
D17*
%TO.C,R9*%
X58500000Y-47548200D03*
X58500000Y-49250000D03*
%TD*%
D11*
%TO.C,R8*%
X61250000Y-47250000D03*
D12*
X72680000Y-47250000D03*
%TD*%
D18*
%TO.C,C1*%
X53972199Y-41500000D03*
X57027801Y-41500000D03*
%TD*%
%TO.C,C2*%
X59027801Y-45000000D03*
X55972199Y-45000000D03*
%TD*%
D15*
%TO.C,R5*%
X58103000Y-30500000D03*
X59500000Y-30500000D03*
%TD*%
D19*
%TO.C,U2*%
X51797500Y-49443800D03*
X53702500Y-49443800D03*
X52750000Y-47056200D03*
%TD*%
D11*
%TO.C,R7*%
X72500000Y-33285000D03*
D12*
X72500000Y-44715000D03*
%TD*%
D19*
%TO.C,U3*%
X51750000Y-45387600D03*
X53655000Y-45387600D03*
X52702500Y-43000000D03*
%TD*%
D15*
%TO.C,R4*%
X62103000Y-34250000D03*
X63500000Y-34250000D03*
%TD*%
D20*
%TO.C,J2*%
X50800000Y-68580000D03*
X53340000Y-68580000D03*
X55880000Y-68580000D03*
X58420000Y-68580000D03*
X60960000Y-68580000D03*
X63500000Y-68580000D03*
X66040000Y-68580000D03*
X68580000Y-68580000D03*
X71120000Y-68580000D03*
X73660000Y-68580000D03*
%TD*%
D21*
%TO.C,U1*%
X54030000Y-35095000D03*
X54030000Y-36365000D03*
X54030000Y-37635000D03*
X54030000Y-38905000D03*
X58970000Y-38905000D03*
X58970000Y-37635000D03*
X58970000Y-36365000D03*
X58970000Y-35095000D03*
%TD*%
D19*
%TO.C,U4*%
X62500000Y-41137600D03*
X64405000Y-41137600D03*
X63452500Y-38750000D03*
%TD*%
D22*
%TO.C,R1*%
X56348300Y-32500000D03*
X58151700Y-32500000D03*
%TD*%
D20*
%TO.C,J1*%
X50800000Y-25400000D03*
X53340000Y-25400000D03*
X55880000Y-25400000D03*
X58420000Y-25400000D03*
X60960000Y-25400000D03*
X63500000Y-25400000D03*
X66040000Y-25400000D03*
X68580000Y-25400000D03*
X71120000Y-25400000D03*
X73660000Y-25400000D03*
%TD*%
D23*
%TO.C,U5*%
X62900050Y-36009400D03*
X62099950Y-36009400D03*
D24*
X62500000Y-37000000D03*
%TD*%
M02*
