%TF.GenerationSoftware,KiCad,Pcbnew,8.0.8*%
%TF.CreationDate,2025-02-03T20:53:05-05:00*%
%TF.ProjectId,IO Module V2.0,494f204d-6f64-4756-9c65-2056322e302e,rev?*%
%TF.SameCoordinates,Original*%
%TF.FileFunction,Soldermask,Bot*%
%TF.FilePolarity,Negative*%
%FSLAX46Y46*%
G04 Gerber Fmt 4.6, Leading zero omitted, Abs format (unit mm)*
G04 Created by KiCad (PCBNEW 8.0.8) date 2025-02-03 20:53:05*
%MOMM*%
%LPD*%
G01*
G04 APERTURE LIST*
G04 Aperture macros list*
%AMRoundRect*
0 Rectangle with rounded corners*
0 $1 Rounding radius*
0 $2 $3 $4 $5 $6 $7 $8 $9 X,Y pos of 4 corners*
0 Add a 4 corners polygon primitive as box body*
4,1,4,$2,$3,$4,$5,$6,$7,$8,$9,$2,$3,0*
0 Add four circle primitives for the rounded corners*
1,1,$1+$1,$2,$3*
1,1,$1+$1,$4,$5*
1,1,$1+$1,$6,$7*
1,1,$1+$1,$8,$9*
0 Add four rect primitives between the rounded corners*
20,1,$1+$1,$2,$3,$4,$5,0*
20,1,$1+$1,$4,$5,$6,$7,0*
20,1,$1+$1,$6,$7,$8,$9,0*
20,1,$1+$1,$8,$9,$2,$3,0*%
G04 Aperture macros list end*
%ADD10R,2.108200X2.108200*%
%ADD11C,2.108200*%
%ADD12C,2.154000*%
%ADD13RoundRect,0.102000X-0.825000X0.825000X-0.825000X-0.825000X0.825000X-0.825000X0.825000X0.825000X0*%
%ADD14C,1.854000*%
%ADD15C,4.420000*%
%ADD16R,1.397000X1.397000*%
%ADD17C,1.397000*%
%ADD18C,1.954000*%
%ADD19C,1.447800*%
%ADD20R,1.371600X1.371600*%
%ADD21C,1.371600*%
G04 APERTURE END LIST*
D10*
%TO.C,F1*%
X108200000Y-84100000D03*
D11*
X108200000Y-87503600D03*
X118106000Y-87503600D03*
X118106000Y-84100000D03*
%TD*%
D12*
%TO.C,J8*%
X118400000Y-62850000D03*
X123400000Y-62850000D03*
%TD*%
%TO.C,J10*%
X126800000Y-86940000D03*
X126800000Y-91940000D03*
%TD*%
D13*
%TO.C,J4*%
X96930000Y-122615000D03*
D14*
X96930000Y-125385000D03*
X96930000Y-128155000D03*
X96930000Y-130925000D03*
X96930000Y-133695000D03*
X96930000Y-136465000D03*
X96930000Y-139235000D03*
X96930000Y-142005000D03*
X94390000Y-124000000D03*
X94390000Y-126770000D03*
X94390000Y-129540000D03*
X94390000Y-132310000D03*
X94390000Y-135080000D03*
X94390000Y-137850000D03*
X94390000Y-140620000D03*
D15*
X95660000Y-115650000D03*
X95660000Y-148970000D03*
%TD*%
D16*
%TO.C,R23*%
X102700000Y-142000000D03*
D17*
X114130000Y-142000000D03*
%TD*%
D18*
%TO.C,REF\u002A\u002A*%
X99060000Y-160020000D03*
X101600000Y-160020000D03*
X104140000Y-160020000D03*
X106680000Y-160020000D03*
X109220000Y-160020000D03*
X111760000Y-160020000D03*
X114300000Y-160020000D03*
X116840000Y-160020000D03*
X119380000Y-160020000D03*
X121920000Y-160020000D03*
%TD*%
D12*
%TO.C,J11*%
X126800000Y-99700000D03*
X126800000Y-104700000D03*
%TD*%
D19*
%TO.C,J5*%
X129540000Y-20340500D03*
X129540000Y-22880500D03*
X129540000Y-25420500D03*
X129540000Y-27960500D03*
X129540000Y-30500500D03*
X129540000Y-33040500D03*
X129540000Y-35580500D03*
X129540000Y-38120500D03*
X129540000Y-40660500D03*
X129540000Y-43200500D03*
X129540000Y-45740500D03*
X129540000Y-48280500D03*
X129540000Y-50820500D03*
X129540000Y-53360500D03*
X129540000Y-55900500D03*
X129540000Y-58440500D03*
X129540000Y-60980500D03*
X129540000Y-63520500D03*
X129540000Y-66060500D03*
X129540000Y-68600500D03*
%TD*%
%TO.C,J6*%
X129540000Y-111760000D03*
X129540000Y-114300000D03*
X129540000Y-116840000D03*
X129540000Y-119380000D03*
X129540000Y-121920000D03*
X129540000Y-124460000D03*
X129540000Y-127000000D03*
X129540000Y-129540000D03*
X129540000Y-132080000D03*
X129540000Y-134620000D03*
X129540000Y-137160000D03*
X129540000Y-139700000D03*
X129540000Y-142240000D03*
X129540000Y-144780000D03*
X129540000Y-147320000D03*
X129540000Y-149860000D03*
X129540000Y-152400000D03*
X129540000Y-154940000D03*
X129540000Y-157480000D03*
X129540000Y-160020000D03*
%TD*%
D13*
%TO.C,J2*%
X96930000Y-36640750D03*
D14*
X96930000Y-39410750D03*
X96930000Y-42180750D03*
X96930000Y-44950750D03*
X96930000Y-47720750D03*
X96930000Y-50490750D03*
X96930000Y-53260750D03*
X96930000Y-56030750D03*
X94390000Y-38025750D03*
X94390000Y-40795750D03*
X94390000Y-43565750D03*
X94390000Y-46335750D03*
X94390000Y-49105750D03*
X94390000Y-51875750D03*
X94390000Y-54645750D03*
D15*
X95660000Y-29675750D03*
X95660000Y-62995750D03*
%TD*%
D13*
%TO.C,J3*%
X96930000Y-79580750D03*
D14*
X96930000Y-82350750D03*
X96930000Y-85120750D03*
X96930000Y-87890750D03*
X96930000Y-90660750D03*
X96930000Y-93430750D03*
X96930000Y-96200750D03*
X96930000Y-98970750D03*
X94390000Y-80965750D03*
X94390000Y-83735750D03*
X94390000Y-86505750D03*
X94390000Y-89275750D03*
X94390000Y-92045750D03*
X94390000Y-94815750D03*
X94390000Y-97585750D03*
D15*
X95660000Y-72615750D03*
X95660000Y-105935750D03*
%TD*%
D12*
%TO.C,J7*%
X103100000Y-62850000D03*
X108100000Y-62850000D03*
%TD*%
D20*
%TO.C,R26*%
X108500000Y-113300000D03*
D21*
X120184000Y-113300000D03*
%TD*%
D18*
%TO.C,J1*%
X99060000Y-20320000D03*
X101600000Y-20320000D03*
X104140000Y-20320000D03*
X106680000Y-20320000D03*
X109220000Y-20320000D03*
X111760000Y-20320000D03*
X114300000Y-20320000D03*
X116840000Y-20320000D03*
X119380000Y-20320000D03*
X121920000Y-20320000D03*
%TD*%
D12*
%TO.C,J9*%
X126800000Y-74280000D03*
X126800000Y-79280000D03*
%TD*%
M02*
