%TF.GenerationSoftware,KiCad,Pcbnew,8.0.8*%
%TF.CreationDate,2025-02-03T20:53:04-05:00*%
%TF.ProjectId,IO Module V2.0,494f204d-6f64-4756-9c65-2056322e302e,rev?*%
%TF.SameCoordinates,Original*%
%TF.FileFunction,Copper,L1,Top*%
%TF.FilePolarity,Positive*%
%FSLAX46Y46*%
G04 Gerber Fmt 4.6, Leading zero omitted, Abs format (unit mm)*
G04 Created by KiCad (PCBNEW 8.0.8) date 2025-02-03 20:53:04*
%MOMM*%
%LPD*%
G01*
G04 APERTURE LIST*
%TA.AperFunction,ComponentPad*%
%ADD10R,2.108200X2.108200*%
%TD*%
%TA.AperFunction,ComponentPad*%
%ADD11C,2.108200*%
%TD*%
%TA.AperFunction,SMDPad,CuDef*%
%ADD12R,1.117600X1.752600*%
%TD*%
%TA.AperFunction,ComponentPad*%
%ADD13C,1.950000*%
%TD*%
%TA.AperFunction,ComponentPad*%
%ADD14R,1.650000X1.650000*%
%TD*%
%TA.AperFunction,ComponentPad*%
%ADD15C,1.650000*%
%TD*%
%TA.AperFunction,ComponentPad*%
%ADD16C,4.216000*%
%TD*%
%TA.AperFunction,ComponentPad*%
%ADD17R,1.397000X1.397000*%
%TD*%
%TA.AperFunction,ComponentPad*%
%ADD18C,1.397000*%
%TD*%
%TA.AperFunction,ComponentPad*%
%ADD19C,1.750000*%
%TD*%
%TA.AperFunction,ComponentPad*%
%ADD20C,1.447800*%
%TD*%
%TA.AperFunction,ComponentPad*%
%ADD21R,1.371600X1.371600*%
%TD*%
%TA.AperFunction,ComponentPad*%
%ADD22C,1.371600*%
%TD*%
%TA.AperFunction,ViaPad*%
%ADD23C,0.800000*%
%TD*%
%TA.AperFunction,ViaPad*%
%ADD24C,1.250000*%
%TD*%
%TA.AperFunction,Conductor*%
%ADD25C,0.200000*%
%TD*%
%TA.AperFunction,Conductor*%
%ADD26C,1.000000*%
%TD*%
%TA.AperFunction,Conductor*%
%ADD27C,0.250000*%
%TD*%
%TA.AperFunction,Conductor*%
%ADD28C,0.500000*%
%TD*%
%TA.AperFunction,Conductor*%
%ADD29C,0.750000*%
%TD*%
%TA.AperFunction,Conductor*%
%ADD30C,1.500000*%
%TD*%
%TA.AperFunction,Conductor*%
%ADD31C,8.000000*%
%TD*%
G04 APERTURE END LIST*
D10*
%TO.P,F1,1,1*%
%TO.N,Net-(F1-Pad1)*%
X108200000Y-84100000D03*
D11*
%TO.P,F1,2,2*%
X108200000Y-87503600D03*
%TO.P,F1,3,3*%
%TO.N,Net-(F1-Pad3)*%
X118106000Y-87503600D03*
%TO.P,F1,4,4*%
X118106000Y-84100000D03*
%TD*%
D12*
%TO.P,R31,1*%
%TO.N,Net-(J4-Pad14)*%
X106324400Y-137000000D03*
%TO.P,R31,2*%
%TO.N,Net-(J4-Pad15)*%
X109220000Y-137000000D03*
%TD*%
D13*
%TO.P,J8,1*%
%TO.N,Net-(J1-Pad1)*%
X118400000Y-62850000D03*
%TO.P,J8,2*%
X123400000Y-62850000D03*
%TD*%
%TO.P,J10,1*%
%TO.N,Net-(F1-Pad3)*%
X126800000Y-86940000D03*
%TO.P,J10,2*%
X126800000Y-91940000D03*
%TD*%
D14*
%TO.P,J4,01,01*%
%TO.N,Net-(J4-Pad01)*%
X96930000Y-122615000D03*
D15*
%TO.P,J4,02,02*%
%TO.N,unconnected-(J4-Pad02)*%
X96930000Y-125385000D03*
%TO.P,J4,03,03*%
%TO.N,unconnected-(J4-Pad03)*%
X96930000Y-128155000D03*
%TO.P,J4,04,04*%
%TO.N,Net-(J4-Pad04)*%
X96930000Y-130925000D03*
%TO.P,J4,05,05*%
%TO.N,Net-(J4-Pad05)*%
X96930000Y-133695000D03*
%TO.P,J4,06,06*%
%TO.N,Net-(J4-Pad06)*%
X96930000Y-136465000D03*
%TO.P,J4,07,07*%
%TO.N,Net-(J4-Pad07)*%
X96930000Y-139235000D03*
%TO.P,J4,08,08*%
%TO.N,Net-(J4-Pad08)*%
X96930000Y-142005000D03*
%TO.P,J4,09,09*%
%TO.N,Net-(J4-Pad09)*%
X94390000Y-124000000D03*
%TO.P,J4,10,10*%
%TO.N,Net-(J4-Pad10)*%
X94390000Y-126770000D03*
%TO.P,J4,11,11*%
%TO.N,Net-(J4-Pad11)*%
X94390000Y-129540000D03*
%TO.P,J4,12,12*%
%TO.N,Net-(J4-Pad12)*%
X94390000Y-132310000D03*
%TO.P,J4,13,13*%
%TO.N,Net-(J4-Pad13)*%
X94390000Y-135080000D03*
%TO.P,J4,14,14*%
%TO.N,Net-(J4-Pad14)*%
X94390000Y-137850000D03*
%TO.P,J4,15,15*%
%TO.N,Net-(J4-Pad15)*%
X94390000Y-140620000D03*
D16*
%TO.P,J4,S1,SHIELD*%
%TO.N,Net-(J1-Pad1)*%
X95660000Y-115650000D03*
%TO.P,J4,S2,SHIELD*%
X95660000Y-148970000D03*
%TD*%
D12*
%TO.P,R28,1*%
%TO.N,Net-(J4-Pad10)*%
X106324400Y-131000000D03*
%TO.P,R28,2*%
%TO.N,Net-(J4-Pad11)*%
X109220000Y-131000000D03*
%TD*%
%TO.P,R30,1*%
%TO.N,Net-(J4-Pad12)*%
X106324400Y-134000000D03*
%TO.P,R30,2*%
%TO.N,Net-(J4-Pad13)*%
X109220000Y-134000000D03*
%TD*%
D17*
%TO.P,R23,1*%
%TO.N,Net-(J4-Pad08)*%
X102700000Y-142000000D03*
D18*
%TO.P,R23,2*%
%TO.N,Net-(J6-Pad8)*%
X114130000Y-142000000D03*
%TD*%
D19*
%TO.P,REF\u002A\u002A,1*%
%TO.N,N/C*%
X99060000Y-160020000D03*
%TO.P,REF\u002A\u002A,2*%
X101600000Y-160020000D03*
%TO.P,REF\u002A\u002A,3*%
X104140000Y-160020000D03*
%TO.P,REF\u002A\u002A,4*%
X106680000Y-160020000D03*
%TO.P,REF\u002A\u002A,5*%
X109220000Y-160020000D03*
%TO.P,REF\u002A\u002A,6*%
X111760000Y-160020000D03*
%TO.P,REF\u002A\u002A,7*%
X114300000Y-160020000D03*
%TO.P,REF\u002A\u002A,8*%
X116840000Y-160020000D03*
%TO.P,REF\u002A\u002A,9*%
X119380000Y-160020000D03*
%TO.P,REF\u002A\u002A,10*%
X121920000Y-160020000D03*
%TD*%
D13*
%TO.P,J11,1*%
%TO.N,Net-(F1-Pad1)*%
X126800000Y-99700000D03*
%TO.P,J11,2*%
X126800000Y-104700000D03*
%TD*%
D20*
%TO.P,J5,1,1*%
%TO.N,Net-(J2-Pad01)*%
X129540000Y-20340500D03*
%TO.P,J5,2,2*%
%TO.N,Net-(J2-Pad02)*%
X129540000Y-22880500D03*
%TO.P,J5,3,3*%
%TO.N,Net-(J2-Pad03)*%
X129540000Y-25420500D03*
%TO.P,J5,4,4*%
%TO.N,Net-(J2-Pad04)*%
X129540000Y-27960500D03*
%TO.P,J5,5,5*%
%TO.N,unconnected-(J5-Pad5)*%
X129540000Y-30500500D03*
%TO.P,J5,6,6*%
%TO.N,Net-(J2-Pad06)*%
X129540000Y-33040500D03*
%TO.P,J5,7,7*%
%TO.N,Net-(J2-Pad07)*%
X129540000Y-35580500D03*
%TO.P,J5,8,8*%
%TO.N,Net-(J2-Pad08)*%
X129540000Y-38120500D03*
%TO.P,J5,9,9*%
%TO.N,Net-(J2-Pad09)*%
X129540000Y-40660500D03*
%TO.P,J5,10,10*%
%TO.N,Net-(J2-Pad10)*%
X129540000Y-43200500D03*
%TO.P,J5,11,11*%
%TO.N,Net-(J2-Pad11)*%
X129540000Y-45740500D03*
%TO.P,J5,12,12*%
%TO.N,Net-(J2-Pad12)*%
X129540000Y-48280500D03*
%TO.P,J5,13,13*%
%TO.N,Net-(J2-Pad13)*%
X129540000Y-50820500D03*
%TO.P,J5,14,14*%
%TO.N,Net-(J2-Pad14)*%
X129540000Y-53360500D03*
%TO.P,J5,15,15*%
%TO.N,Net-(J2-Pad15)*%
X129540000Y-55900500D03*
%TO.P,J5,16,16*%
%TO.N,unconnected-(J5-Pad16)*%
X129540000Y-58440500D03*
%TO.P,J5,17,17*%
%TO.N,unconnected-(J5-Pad17)*%
X129540000Y-60980500D03*
%TO.P,J5,18,18*%
%TO.N,unconnected-(J5-Pad18)*%
X129540000Y-63520500D03*
%TO.P,J5,19,19*%
%TO.N,unconnected-(J5-Pad19)*%
X129540000Y-66060500D03*
%TO.P,J5,20,20*%
%TO.N,unconnected-(J5-Pad20)*%
X129540000Y-68600500D03*
%TD*%
%TO.P,J6,1,1*%
%TO.N,unconnected-(J6-Pad1)*%
X129540000Y-111760000D03*
%TO.P,J6,2,2*%
%TO.N,unconnected-(J4-Pad02)*%
X129540000Y-114300000D03*
%TO.P,J6,3,3*%
%TO.N,unconnected-(J6-Pad3)*%
X129540000Y-116840000D03*
%TO.P,J6,4,4*%
%TO.N,Net-(J6-Pad4)*%
X129540000Y-119380000D03*
%TO.P,J6,5,5*%
%TO.N,Net-(J4-Pad05)*%
X129540000Y-121920000D03*
%TO.P,J6,6,6*%
%TO.N,Net-(J4-Pad06)*%
X129540000Y-124460000D03*
%TO.P,J6,7,7*%
%TO.N,Net-(J4-Pad07)*%
X129540000Y-127000000D03*
%TO.P,J6,8,8*%
%TO.N,Net-(J6-Pad8)*%
X129540000Y-129540000D03*
%TO.P,J6,9,9*%
%TO.N,Net-(J3-Pad12)*%
X129540000Y-132080000D03*
%TO.P,J6,10,10*%
%TO.N,Net-(J3-Pad13)*%
X129540000Y-134620000D03*
%TO.P,J6,11,11*%
%TO.N,Net-(J3-Pad14)*%
X129540000Y-137160000D03*
%TO.P,J6,12,12*%
%TO.N,Net-(J3-Pad15)*%
X129540000Y-139700000D03*
%TO.P,J6,13,13*%
%TO.N,unconnected-(J6-Pad13)*%
X129540000Y-142240000D03*
%TO.P,J6,14,14*%
%TO.N,unconnected-(J6-Pad14)*%
X129540000Y-144780000D03*
%TO.P,J6,15,15*%
%TO.N,unconnected-(J6-Pad15)*%
X129540000Y-147320000D03*
%TO.P,J6,16,16*%
%TO.N,unconnected-(J6-Pad16)*%
X129540000Y-149860000D03*
%TO.P,J6,17,17*%
%TO.N,unconnected-(J6-Pad17)*%
X129540000Y-152400000D03*
%TO.P,J6,18,18*%
%TO.N,unconnected-(J6-Pad18)*%
X129540000Y-154940000D03*
%TO.P,J6,19,19*%
%TO.N,unconnected-(J6-Pad19)*%
X129540000Y-157480000D03*
%TO.P,J6,20,20*%
%TO.N,unconnected-(J6-Pad20)*%
X129540000Y-160020000D03*
%TD*%
D14*
%TO.P,J2,01,01*%
%TO.N,Net-(J2-Pad01)*%
X96930000Y-36640750D03*
D15*
%TO.P,J2,02,02*%
%TO.N,Net-(J2-Pad02)*%
X96930000Y-39410750D03*
%TO.P,J2,03,03*%
%TO.N,Net-(J2-Pad03)*%
X96930000Y-42180750D03*
%TO.P,J2,04,04*%
%TO.N,Net-(J2-Pad04)*%
X96930000Y-44950750D03*
%TO.P,J2,05,05*%
%TO.N,unconnected-(J2-Pad05)*%
X96930000Y-47720750D03*
%TO.P,J2,06,06*%
%TO.N,Net-(J2-Pad06)*%
X96930000Y-50490750D03*
%TO.P,J2,07,07*%
%TO.N,Net-(J2-Pad07)*%
X96930000Y-53260750D03*
%TO.P,J2,08,08*%
%TO.N,Net-(J2-Pad08)*%
X96930000Y-56030750D03*
%TO.P,J2,09,09*%
%TO.N,Net-(J2-Pad09)*%
X94390000Y-38025750D03*
%TO.P,J2,10,10*%
%TO.N,Net-(J2-Pad10)*%
X94390000Y-40795750D03*
%TO.P,J2,11,11*%
%TO.N,Net-(J2-Pad11)*%
X94390000Y-43565750D03*
%TO.P,J2,12,12*%
%TO.N,Net-(J2-Pad12)*%
X94390000Y-46335750D03*
%TO.P,J2,13,13*%
%TO.N,Net-(J2-Pad13)*%
X94390000Y-49105750D03*
%TO.P,J2,14,14*%
%TO.N,Net-(J2-Pad14)*%
X94390000Y-51875750D03*
%TO.P,J2,15,15*%
%TO.N,Net-(J2-Pad15)*%
X94390000Y-54645750D03*
D16*
%TO.P,J2,S1,SHIELD*%
%TO.N,Net-(J1-Pad1)*%
X95660000Y-29675750D03*
%TO.P,J2,S2,SHIELD*%
X95660000Y-62995750D03*
%TD*%
D12*
%TO.P,R29,1*%
%TO.N,Net-(J4-Pad01)*%
X109220000Y-128000000D03*
%TO.P,R29,2*%
%TO.N,Net-(J4-Pad09)*%
X106324400Y-128000000D03*
%TD*%
D14*
%TO.P,J3,01,01*%
%TO.N,unconnected-(J3-Pad01)*%
X96930000Y-79580750D03*
D15*
%TO.P,J3,02,02*%
%TO.N,unconnected-(J3-Pad02)*%
X96930000Y-82350750D03*
%TO.P,J3,03,03*%
%TO.N,unconnected-(J3-Pad03)*%
X96930000Y-85120750D03*
%TO.P,J3,04,04*%
%TO.N,unconnected-(J3-Pad04)*%
X96930000Y-87890750D03*
%TO.P,J3,05,05*%
%TO.N,unconnected-(J3-Pad05)*%
X96930000Y-90660750D03*
%TO.P,J3,06,06*%
%TO.N,unconnected-(J3-Pad06)*%
X96930000Y-93430750D03*
%TO.P,J3,07,07*%
%TO.N,unconnected-(J3-Pad07)*%
X96930000Y-96200750D03*
%TO.P,J3,08,08*%
%TO.N,unconnected-(J3-Pad08)*%
X96930000Y-98970750D03*
%TO.P,J3,09,09*%
%TO.N,unconnected-(J3-Pad09)*%
X94390000Y-80965750D03*
%TO.P,J3,10,10*%
%TO.N,unconnected-(J3-Pad10)*%
X94390000Y-83735750D03*
%TO.P,J3,11,11*%
%TO.N,unconnected-(J3-Pad11)*%
X94390000Y-86505750D03*
%TO.P,J3,12,12*%
%TO.N,Net-(J3-Pad12)*%
X94390000Y-89275750D03*
%TO.P,J3,13,13*%
%TO.N,Net-(J3-Pad13)*%
X94390000Y-92045750D03*
%TO.P,J3,14,14*%
%TO.N,Net-(J3-Pad14)*%
X94390000Y-94815750D03*
%TO.P,J3,15,15*%
%TO.N,Net-(J3-Pad15)*%
X94390000Y-97585750D03*
D16*
%TO.P,J3,S1,SHIELD*%
%TO.N,Net-(J1-Pad1)*%
X95660000Y-72615750D03*
%TO.P,J3,S2,SHIELD*%
X95660000Y-105935750D03*
%TD*%
D13*
%TO.P,J7,1*%
%TO.N,Net-(F1-Pad1)*%
X103100000Y-62850000D03*
%TO.P,J7,2*%
X108100000Y-62850000D03*
%TD*%
D21*
%TO.P,R26,1*%
%TO.N,Net-(J4-Pad04)*%
X108500000Y-113300000D03*
D22*
%TO.P,R26,2*%
%TO.N,Net-(J6-Pad4)*%
X120184000Y-113300000D03*
%TD*%
D19*
%TO.P,J1,1,1*%
%TO.N,Net-(J1-Pad1)*%
X99060000Y-20320000D03*
%TO.P,J1,2,2*%
X101600000Y-20320000D03*
%TO.P,J1,3,3*%
X104140000Y-20320000D03*
%TO.P,J1,4,4*%
%TO.N,unconnected-(J1-Pad4)*%
X106680000Y-20320000D03*
%TO.P,J1,5,5*%
%TO.N,unconnected-(J1-Pad5)*%
X109220000Y-20320000D03*
%TO.P,J1,6,6*%
%TO.N,unconnected-(J1-Pad6)*%
X111760000Y-20320000D03*
%TO.P,J1,7,7*%
%TO.N,unconnected-(J1-Pad7)*%
X114300000Y-20320000D03*
%TO.P,J1,8,8*%
%TO.N,unconnected-(J1-Pad8)*%
X116840000Y-20320000D03*
%TO.P,J1,9,9*%
%TO.N,unconnected-(J1-Pad9)*%
X119380000Y-20320000D03*
%TO.P,J1,10,10*%
%TO.N,unconnected-(J1-Pad10)*%
X121920000Y-20320000D03*
%TD*%
D13*
%TO.P,J9,1*%
%TO.N,Net-(J1-Pad1)*%
X126800000Y-74280000D03*
%TO.P,J9,2*%
X126800000Y-79280000D03*
%TD*%
D23*
%TO.N,Net-(J3-Pad12)*%
X106172000Y-115824000D03*
%TO.N,Net-(J3-Pad13)*%
X105156000Y-117348000D03*
%TO.N,Net-(J3-Pad15)*%
X103124000Y-120396000D03*
%TO.N,Net-(J3-Pad14)*%
X104140000Y-118872000D03*
%TO.N,Net-(J4-Pad04)*%
X101500000Y-121490000D03*
D24*
%TO.N,Net-(J6-Pad8)*%
X117094000Y-141986000D03*
%TD*%
D25*
%TO.N,*%
X-16595000Y-36640750D02*
X-16740000Y-36495750D01*
X-23590000Y-54645750D02*
X-23740000Y-54495750D01*
D26*
%TO.N,Net-(J2-Pad02)*%
X96930000Y-39410750D02*
X112989250Y-39410750D01*
X112989250Y-39410750D02*
X129540000Y-22860000D01*
%TO.N,Net-(J2-Pad04)*%
X112529250Y-44950750D02*
X129540000Y-27940000D01*
X96930000Y-44950750D02*
X112529250Y-44950750D01*
D27*
%TO.N,Net-(J3-Pad12)*%
X106172000Y-115824000D02*
X119888000Y-115824000D01*
X119888000Y-115824000D02*
X123444000Y-119380000D01*
X124968000Y-132080000D02*
X129540000Y-132080000D01*
X124968000Y-132080000D02*
X123444000Y-130556000D01*
X123444000Y-130556000D02*
X123444000Y-119380000D01*
%TO.N,Net-(J3-Pad13)*%
X121920000Y-120396000D02*
X121920000Y-133604000D01*
X118872000Y-117348000D02*
X121920000Y-120396000D01*
X121920000Y-133604000D02*
X122936000Y-134620000D01*
X122936000Y-134620000D02*
X129540000Y-134620000D01*
X105156000Y-117348000D02*
X118872000Y-117348000D01*
%TO.N,Net-(J3-Pad15)*%
X103124000Y-120396000D02*
X117856000Y-120396000D01*
X121920000Y-139700000D02*
X129540000Y-139700000D01*
X117856000Y-120396000D02*
X117856000Y-135636000D01*
X117856000Y-135636000D02*
X121920000Y-139700000D01*
%TO.N,Net-(J3-Pad14)*%
X118364000Y-118872000D02*
X119888000Y-120396000D01*
X104140000Y-118872000D02*
X118364000Y-118872000D01*
X119888000Y-120396000D02*
X119888000Y-135128000D01*
X121920000Y-137160000D02*
X129540000Y-137160000D01*
X119888000Y-135128000D02*
X121920000Y-137160000D01*
D28*
%TO.N,Net-(J2-Pad01)*%
X96930000Y-36640750D02*
X113219250Y-36640750D01*
X113219250Y-36640750D02*
X129540000Y-20320000D01*
X97030000Y-36640750D02*
X97170750Y-36500000D01*
D26*
%TO.N,Net-(J2-Pad07)*%
X111839250Y-53260750D02*
X129540000Y-35560000D01*
X96930000Y-53260750D02*
X111839250Y-53260750D01*
D29*
%TO.N,Net-(J2-Pad08)*%
X96930000Y-56030750D02*
X111609250Y-56030750D01*
X111609250Y-56030750D02*
X129540000Y-38100000D01*
D30*
%TO.N,Net-(J2-Pad03)*%
X96930000Y-42180750D02*
X112759250Y-42180750D01*
X112759250Y-42180750D02*
X129540000Y-25400000D01*
D29*
%TO.N,Net-(J2-Pad06)*%
X112069250Y-50490750D02*
X129540000Y-33020000D01*
X96930000Y-50490750D02*
X112069250Y-50490750D01*
D27*
%TO.N,Net-(J4-Pad12)*%
X95450000Y-133900000D02*
X95450000Y-133370000D01*
X106324400Y-134000000D02*
X105504400Y-134820000D01*
X95450000Y-133370000D02*
X94390000Y-132310000D01*
X105504400Y-134820000D02*
X96370000Y-134820000D01*
X96370000Y-134820000D02*
X95450000Y-133900000D01*
%TO.N,Net-(J4-Pad04)*%
X101500000Y-121490000D02*
X101510000Y-121500000D01*
X101500000Y-121490000D02*
X101500000Y-119470695D01*
X101500000Y-119470695D02*
X107670695Y-113300000D01*
X107670695Y-113300000D02*
X108500000Y-113300000D01*
%TO.N,Net-(J4-Pad10)*%
X102800000Y-129450000D02*
X104350000Y-131000000D01*
X104350000Y-131000000D02*
X106324400Y-131000000D01*
X96200000Y-129450000D02*
X102800000Y-129450000D01*
D25*
X94390000Y-126770000D02*
X94390000Y-127640000D01*
D27*
X94390000Y-127640000D02*
X96200000Y-129450000D01*
%TO.N,Net-(J4-Pad01)*%
X108615000Y-122615000D02*
X109220000Y-123220000D01*
X96930000Y-122615000D02*
X108615000Y-122615000D01*
X109220000Y-123220000D02*
X109220000Y-128000000D01*
D29*
%TO.N,Net-(J4-Pad08)*%
X102695000Y-142005000D02*
X102700000Y-142000000D01*
X96930000Y-142005000D02*
X102695000Y-142005000D01*
D27*
%TO.N,Net-(J4-Pad15)*%
X94390000Y-140620000D02*
X108280000Y-140620000D01*
X109220000Y-139680000D02*
X109220000Y-137000000D01*
X108280000Y-140620000D02*
X109220000Y-139680000D01*
%TO.N,Net-(J4-Pad14)*%
X94390000Y-137850000D02*
X105474400Y-137850000D01*
X105474400Y-137850000D02*
X106324400Y-137000000D01*
%TO.N,Net-(J4-Pad11)*%
X109400000Y-132450000D02*
X109400000Y-131180000D01*
D25*
X109400000Y-131180000D02*
X109220000Y-131000000D01*
D27*
X94390000Y-129540000D02*
X94390000Y-130706726D01*
X96133274Y-132450000D02*
X109400000Y-132450000D01*
X94390000Y-130706726D02*
X96133274Y-132450000D01*
%TO.N,Net-(J4-Pad13)*%
X94650000Y-135340000D02*
X104590000Y-135340000D01*
X109220000Y-135076300D02*
X109220000Y-134000000D01*
X104590000Y-135340000D02*
X104850000Y-135600000D01*
X104850000Y-135600000D02*
X108696300Y-135600000D01*
X108696300Y-135600000D02*
X109220000Y-135076300D01*
D25*
X94390000Y-135080000D02*
X94650000Y-135340000D01*
D27*
%TO.N,Net-(J4-Pad09)*%
X106324400Y-124324400D02*
X106324400Y-128000000D01*
X106000000Y-124000000D02*
X106324400Y-124324400D01*
X94390000Y-124000000D02*
X106000000Y-124000000D01*
D28*
%TO.N,Net-(J6-Pad8)*%
X117094000Y-141986000D02*
X114144000Y-141986000D01*
X114144000Y-141986000D02*
X114130000Y-142000000D01*
D31*
%TO.N,Net-(F1-Pad1)*%
X110698200Y-95647000D02*
X114101800Y-95647000D01*
X108200000Y-87503600D02*
X108200000Y-93148800D01*
X108100000Y-62850000D02*
X103100000Y-62850000D01*
X108200000Y-93148800D02*
X110698200Y-95647000D01*
X114101800Y-105553000D02*
X125947000Y-105553000D01*
X103100000Y-62850000D02*
X103100000Y-79000000D01*
X125947000Y-105553000D02*
X126800000Y-104700000D01*
X103100000Y-79000000D02*
X108200000Y-84100000D01*
X114101800Y-95647000D02*
X114101800Y-105553000D01*
X108200000Y-84100000D02*
X108200000Y-87503600D01*
X126800000Y-104700000D02*
X126800000Y-99700000D01*
%TO.N,Net-(F1-Pad3)*%
X121707048Y-87503600D02*
X122103448Y-87900000D01*
X118106000Y-87503600D02*
X121707048Y-87503600D01*
X122103448Y-87900000D02*
X126800000Y-87900000D01*
X126800000Y-87900000D02*
X126800000Y-91500000D01*
X118106000Y-84100000D02*
X118106000Y-87503600D01*
%TO.N,Net-(J1-Pad1)*%
X118400000Y-62850000D02*
X118400000Y-65880000D01*
X126800000Y-74280000D02*
X126800000Y-79280000D01*
X118400000Y-65880000D02*
X126800000Y-74280000D01*
X123400000Y-62850000D02*
X118400000Y-62850000D01*
D28*
%TO.N,Net-(J6-Pad4)*%
X120184000Y-113300000D02*
X126264000Y-119380000D01*
X126264000Y-119380000D02*
X129540000Y-119380000D01*
%TD*%
M02*
