%TF.GenerationSoftware,KiCad,Pcbnew,8.0.8*%
%TF.CreationDate,2025-02-03T23:35:19-05:00*%
%TF.ProjectId,Precharge Module,50726563-6861-4726-9765-204d6f64756c,rev?*%
%TF.SameCoordinates,Original*%
%TF.FileFunction,Copper,L2,Bot*%
%TF.FilePolarity,Positive*%
%FSLAX46Y46*%
G04 Gerber Fmt 4.6, Leading zero omitted, Abs format (unit mm)*
G04 Created by KiCad (PCBNEW 8.0.8) date 2025-02-03 23:35:19*
%MOMM*%
%LPD*%
G01*
G04 APERTURE LIST*
%TA.AperFunction,ComponentPad*%
%ADD10R,1.397000X1.397000*%
%TD*%
%TA.AperFunction,ComponentPad*%
%ADD11C,1.397000*%
%TD*%
%TA.AperFunction,ComponentPad*%
%ADD12C,3.000000*%
%TD*%
%TA.AperFunction,ComponentPad*%
%ADD13C,1.750000*%
%TD*%
%TA.AperFunction,ViaPad*%
%ADD14C,0.800000*%
%TD*%
%TA.AperFunction,ViaPad*%
%ADD15C,1.000000*%
%TD*%
%TA.AperFunction,Conductor*%
%ADD16C,0.250000*%
%TD*%
%TA.AperFunction,Conductor*%
%ADD17C,0.200000*%
%TD*%
G04 APERTURE END LIST*
D10*
%TO.P,R6,1*%
%TO.N,Net-(U1-VCC)*%
X53470000Y-47600000D03*
D11*
%TO.P,R6,2*%
%TO.N,Net-(Q1-E)*%
X64900000Y-47600000D03*
%TD*%
D12*
%TO.P,PC COIL -,1,1*%
%TO.N,Net-(J1-Pad9)*%
X70863000Y-45308400D03*
%TD*%
D10*
%TO.P,R8,1*%
%TO.N,Net-(Q1-C)*%
X53470000Y-51000000D03*
D11*
%TO.P,R8,2*%
%TO.N,Net-(Q2-G)*%
X64900000Y-51000000D03*
%TD*%
D10*
%TO.P,R7,1*%
%TO.N,Net-(D2-A)*%
X53470000Y-54400000D03*
D11*
%TO.P,R7,2*%
%TO.N,Net-(Q2-G)*%
X64900000Y-54400000D03*
%TD*%
D13*
%TO.P,J1,1,1*%
%TO.N,N/C*%
X50800000Y-68580000D03*
%TO.P,J1,2,2*%
X53340000Y-68580000D03*
%TO.P,J1,3,3*%
X55880000Y-68580000D03*
%TO.P,J1,4,4*%
X58420000Y-68580000D03*
%TO.P,J1,5,5*%
X60960000Y-68580000D03*
%TO.P,J1,6,6*%
X63500000Y-68580000D03*
%TO.P,J1,7,7*%
X66040000Y-68580000D03*
%TO.P,J1,8,8*%
X68580000Y-68580000D03*
%TO.P,J1,9,9*%
X71120000Y-68580000D03*
%TO.P,J1,10,10*%
X73660000Y-68580000D03*
%TD*%
%TO.P,J1,1,1*%
%TO.N,Net-(U1-VCC)*%
X50800000Y-25400000D03*
%TO.P,J1,2,2*%
%TO.N,Net-(Q2-D)*%
X53340000Y-25400000D03*
%TO.P,J1,3,3*%
%TO.N,unconnected-(J1-Pad3)*%
X55880000Y-25400000D03*
%TO.P,J1,4,4*%
%TO.N,Net-(D3-A)*%
X58420000Y-25400000D03*
%TO.P,J1,5,5*%
%TO.N,unconnected-(J1-Pad5)*%
X60960000Y-25400000D03*
%TO.P,J1,6,6*%
%TO.N,unconnected-(J1-Pad6)*%
X63500000Y-25400000D03*
%TO.P,J1,7,7*%
%TO.N,unconnected-(J1-Pad7)*%
X66040000Y-25400000D03*
%TO.P,J1,8,8*%
%TO.N,unconnected-(J1-Pad8)*%
X68580000Y-25400000D03*
%TO.P,J1,9,9*%
%TO.N,Net-(J1-Pad9)*%
X71120000Y-25400000D03*
%TO.P,J1,10,10*%
%TO.N,Net-(Q1-C)*%
X73660000Y-25400000D03*
%TD*%
D14*
%TO.N,Net-(Q1-C)*%
X71663000Y-35208400D03*
X53163000Y-40708400D03*
X50663000Y-33208400D03*
X64663000Y-31208400D03*
X51663000Y-27708400D03*
X56663000Y-36708400D03*
X70663000Y-32708400D03*
X68663000Y-40208400D03*
D15*
%TO.N,Net-(D2-A)*%
X62102300Y-40997700D03*
%TO.N,Net-(U1-VCC)*%
X61059102Y-30740898D03*
%TO.N,Net-(Q1-E)*%
X64800000Y-37613400D03*
%TO.N,Net-(Q2-G)*%
X63400000Y-30200000D03*
%TD*%
D16*
%TO.N,Net-(Q1-C)*%
X53163000Y-40708400D02*
X56663000Y-37208400D01*
X51163000Y-32708400D02*
X51163000Y-28208400D01*
X51163000Y-28208400D02*
X51663000Y-27708400D01*
X50663000Y-33208400D02*
X53163000Y-33208400D01*
X51663000Y-27708400D02*
X64663000Y-27708400D01*
X50663000Y-33208400D02*
X51163000Y-32708400D01*
X64663000Y-27708400D02*
X70163000Y-27708400D01*
X72163000Y-35708400D02*
X72163000Y-36708400D01*
X70163000Y-27708400D02*
X70163000Y-32208400D01*
X72163000Y-36708400D02*
X68663000Y-40208400D01*
X56663000Y-37208400D02*
X56663000Y-36708400D01*
X70163000Y-32208400D02*
X70663000Y-32708400D01*
X70163000Y-27708400D02*
X71351600Y-27708400D01*
X53163000Y-33208400D02*
X56663000Y-36708400D01*
X71663000Y-33708400D02*
X71663000Y-35208400D01*
X70663000Y-32708400D02*
X71663000Y-33708400D01*
X71351600Y-27708400D02*
X73660000Y-25400000D01*
X71663000Y-35208400D02*
X72163000Y-35708400D01*
X64663000Y-31208400D02*
X64663000Y-27708400D01*
D17*
%TO.N,Net-(D2-A)*%
X53470000Y-54400000D02*
X61500000Y-46370000D01*
X61500000Y-41600000D02*
X62102300Y-40997700D01*
X61500000Y-46370000D02*
X61500000Y-41600000D01*
D16*
%TO.N,Net-(U1-VCC)*%
X61059102Y-34540898D02*
X53500000Y-42100000D01*
X53500000Y-42100000D02*
X53500000Y-42300000D01*
X61059102Y-30740898D02*
X61059102Y-34540898D01*
X53470000Y-42330000D02*
X53470000Y-47600000D01*
X53500000Y-42300000D02*
X53470000Y-42330000D01*
%TO.N,Net-(Q1-E)*%
X64800000Y-37613400D02*
X64900000Y-37713400D01*
X64900000Y-37713400D02*
X64900000Y-47600000D01*
D17*
%TO.N,Net-(Q2-G)*%
X63400000Y-30200000D02*
X63400000Y-49500000D01*
X63400000Y-49500000D02*
X64900000Y-51000000D01*
%TD*%
M02*
