M48
; DRILL file {KiCad 7.0.7} date Thu Oct  3 20:26:02 2024
; FORMAT={-:-/ absolute / inch / decimal}
; #@! TF.CreationDate,2024-10-03T20:26:02-04:00
; #@! TF.GenerationSoftware,Kicad,Pcbnew,7.0.7
; #@! TF.FileFunction,Plated,1,2,PTH
FMAT,2
INCH
; #@! TA.AperFunction,Plated,PTH,ViaDrill
T1C0.0157
; #@! TA.AperFunction,Plated,PTH,ComponentDrill
T2C0.0315
; #@! TA.AperFunction,Plated,PTH,ComponentDrill
T3C0.0354
; #@! TA.AperFunction,Plated,PTH,ComponentDrill
T4C0.0394
%
G90
G05
T1
X4.5357Y-2.095
X4.6807Y-2.165
T2
X4.1057Y-1.29
X4.1057Y-1.69
X4.322Y-1.96
X4.3657Y-1.29
X4.3657Y-1.69
X4.4007Y-1.96
X4.6057Y-1.29
X4.6057Y-1.69
X4.6213Y-1.96
X4.7Y-1.96
X4.8457Y-1.29
X4.8457Y-1.69
T3
X4.0357Y-1.89
X4.0357Y-1.99
X4.9507Y-1.905
X4.9507Y-2.005
T4
G00X3.6688Y-1.2933
M15
G01X3.7476Y-1.2933
M16
G05
G00X3.6688Y-1.5374
M15
G01X3.7476Y-1.5374
M16
G05
G00X3.8165Y-1.498
M15
G01X3.8755Y-1.498
M16
G05
T0
M30
