%TF.GenerationSoftware,KiCad,Pcbnew,9.0.4*%
%TF.CreationDate,2026-02-05T17:30:51-05:00*%
%TF.ProjectId,LVChargeNEW,4c564368-6172-4676-954e-45572e6b6963,1*%
%TF.SameCoordinates,Original*%
%TF.FileFunction,Copper,L2,Inr*%
%TF.FilePolarity,Positive*%
%FSLAX46Y46*%
G04 Gerber Fmt 4.6, Leading zero omitted, Abs format (unit mm)*
G04 Created by KiCad (PCBNEW 9.0.4) date 2026-02-05 17:30:51*
%MOMM*%
%LPD*%
G01*
G04 APERTURE LIST*
G04 Aperture macros list*
%AMRoundRect*
0 Rectangle with rounded corners*
0 $1 Rounding radius*
0 $2 $3 $4 $5 $6 $7 $8 $9 X,Y pos of 4 corners*
0 Add a 4 corners polygon primitive as box body*
4,1,4,$2,$3,$4,$5,$6,$7,$8,$9,$2,$3,0*
0 Add four circle primitives for the rounded corners*
1,1,$1+$1,$2,$3*
1,1,$1+$1,$4,$5*
1,1,$1+$1,$6,$7*
1,1,$1+$1,$8,$9*
0 Add four rect primitives between the rounded corners*
20,1,$1+$1,$2,$3,$4,$5,0*
20,1,$1+$1,$4,$5,$6,$7,0*
20,1,$1+$1,$6,$7,$8,$9,0*
20,1,$1+$1,$8,$9,$2,$3,0*%
G04 Aperture macros list end*
%TA.AperFunction,ComponentPad*%
%ADD10RoundRect,0.250000X0.550000X-0.550000X0.550000X0.550000X-0.550000X0.550000X-0.550000X-0.550000X0*%
%TD*%
%TA.AperFunction,ComponentPad*%
%ADD11C,1.600000*%
%TD*%
%TA.AperFunction,ComponentPad*%
%ADD12RoundRect,0.250000X0.550000X0.550000X-0.550000X0.550000X-0.550000X-0.550000X0.550000X-0.550000X0*%
%TD*%
%TA.AperFunction,ComponentPad*%
%ADD13C,1.400000*%
%TD*%
%TA.AperFunction,ComponentPad*%
%ADD14R,1.980000X3.960000*%
%TD*%
%TA.AperFunction,ComponentPad*%
%ADD15O,1.980000X3.960000*%
%TD*%
%TA.AperFunction,ComponentPad*%
%ADD16RoundRect,0.250000X-0.550000X-0.550000X0.550000X-0.550000X0.550000X0.550000X-0.550000X0.550000X0*%
%TD*%
%TA.AperFunction,ComponentPad*%
%ADD17R,1.000000X1.000000*%
%TD*%
%TA.AperFunction,ComponentPad*%
%ADD18C,1.000000*%
%TD*%
%TA.AperFunction,ViaPad*%
%ADD19C,0.600000*%
%TD*%
G04 APERTURE END LIST*
D10*
%TO.N,Net-(U1-ACN)*%
%TO.C,C7*%
X66040000Y-73580000D03*
D11*
%TO.N,Batt-*%
X66040000Y-68580000D03*
%TD*%
D12*
%TO.N,Net-(U1-SRP)*%
%TO.C,C15*%
X111680000Y-120904000D03*
D11*
%TO.N,Net-(U1-SRN)*%
X106680000Y-120904000D03*
%TD*%
D13*
%TO.N,Net-(D3-K)*%
%TO.C,R17*%
X86360000Y-105664000D03*
%TO.N,Net-(U1-\u002APG)*%
X86360000Y-110744000D03*
%TD*%
%TO.N,Net-(U1-TS)*%
%TO.C,R18*%
X58547000Y-105791000D03*
%TO.N,Batt-*%
X53467000Y-105791000D03*
%TD*%
D14*
%TO.N,Batt-*%
%TO.C,J1*%
X44170600Y-48768000D03*
D15*
%TO.N,Batt+*%
X39170600Y-48768000D03*
%TD*%
D13*
%TO.N,Net-(U1-FBG)*%
%TO.C,R13*%
X83820000Y-98044000D03*
%TO.N,Net-(U1-FB)*%
X88900000Y-98044000D03*
%TD*%
%TO.N,Net-(U1-ACUV)*%
%TO.C,R1*%
X86360000Y-67564000D03*
%TO.N,Buck Input*%
X91440000Y-67564000D03*
%TD*%
D10*
%TO.N,Net-(U1-ACN)*%
%TO.C,C8*%
X53340000Y-88900000D03*
D11*
%TO.N,Net-(U1-ACP)*%
X53340000Y-83900000D03*
%TD*%
D13*
%TO.N,Net-(U1-FB)*%
%TO.C,R12*%
X72644000Y-95529400D03*
%TO.N,Batt+*%
X67564000Y-95529400D03*
%TD*%
D16*
%TO.N,Net-(U1-DRV_SUP)*%
%TO.C,C2*%
X111840000Y-77724000D03*
D11*
%TO.N,Batt-*%
X116840000Y-77724000D03*
%TD*%
D17*
%TO.N,Batt-*%
%TO.C,J3*%
X105410000Y-46736000D03*
D18*
%TO.N,CE*%
X106680000Y-46736000D03*
%TO.N,INT*%
X107950000Y-46736000D03*
%TO.N,SDL*%
X109220000Y-46736000D03*
%TO.N,SCL*%
X110490000Y-46736000D03*
%TO.N,N/C*%
X111760000Y-46736000D03*
%TD*%
D13*
%TO.N,Net-(U1-DRV_SUP)*%
%TO.C,R4*%
X106680000Y-87884000D03*
%TO.N,Net-(D1-A)*%
X111760000Y-87884000D03*
%TD*%
%TO.N,Batt-*%
%TO.C,R14*%
X86360000Y-77724000D03*
%TO.N,Net-(U1-FSW_SYNC)*%
X86360000Y-82804000D03*
%TD*%
D12*
%TO.N,Net-(U1-SRP)*%
%TO.C,C13*%
X78333600Y-104749600D03*
D11*
%TO.N,Batt-*%
X73333600Y-104749600D03*
%TD*%
D13*
%TO.N,Net-(C_sys1-Pad1)*%
%TO.C,R20*%
X40640000Y-62484000D03*
%TO.N,Batt-*%
X45720000Y-62484000D03*
%TD*%
%TO.N,Net-(D2-K)*%
%TO.C,R16*%
X91440000Y-105664000D03*
%TO.N,Net-(U1-STAT2)*%
X91440000Y-110744000D03*
%TD*%
D14*
%TO.N,Batt-*%
%TO.C,J2*%
X154228800Y-128016000D03*
D15*
%TO.N,Buck Input*%
X159228800Y-128016000D03*
%TD*%
D12*
%TO.N,Net-(C4-Pad1)*%
%TO.C,C4*%
X81396651Y-57150000D03*
D11*
%TO.N,Batt-*%
X76396651Y-57150000D03*
%TD*%
D10*
%TO.N,Net-(U1-BTST1)*%
%TO.C,C10*%
X119380000Y-103044000D03*
D11*
%TO.N,Net-(U1-SW1)*%
X119380000Y-98044000D03*
%TD*%
D16*
%TO.N,Net-(D1-A)*%
%TO.C,C3*%
X116840000Y-87884000D03*
D11*
%TO.N,Batt-*%
X121840000Y-87884000D03*
%TD*%
D10*
%TO.N,Batt-*%
%TO.C,C6*%
X53340000Y-100504000D03*
D11*
%TO.N,Net-(U1-ACP)*%
X53340000Y-95504000D03*
%TD*%
D13*
%TO.N,Net-(D1-K)*%
%TO.C,R15*%
X96520000Y-105664000D03*
%TO.N,Net-(U1-STAT1)*%
X96520000Y-110744000D03*
%TD*%
D16*
%TO.N,Batt-*%
%TO.C,C14*%
X73740000Y-120904000D03*
D11*
%TO.N,Net-(U1-SRN)*%
X78740000Y-120904000D03*
%TD*%
D16*
%TO.N,Net-(U1-BTST2)*%
%TO.C,C11*%
X142320000Y-120904000D03*
D11*
%TO.N,Net-(U1-SW2)*%
X147320000Y-120904000D03*
%TD*%
D12*
%TO.N,Batt-*%
%TO.C,C1*%
X55880000Y-56134000D03*
D11*
%TO.N,Buck Input*%
X50880000Y-56134000D03*
%TD*%
D19*
%TO.N,Batt-*%
X124875000Y-115985000D03*
X86448900Y-92125000D03*
X68580000Y-108650000D03*
X66052000Y-129298000D03*
X66055000Y-128255000D03*
X134620000Y-98000000D03*
%TO.N,Net-(U1-SW1)*%
X132660500Y-102035500D03*
X133059000Y-103341000D03*
%TO.N,Batt+*%
X44742500Y-117175000D03*
X44075000Y-118110000D03*
X58595950Y-113754050D03*
%TO.N,Net-(C21-Pad2)*%
X99225000Y-115824000D03*
X97850000Y-115824000D03*
%TO.N,Batt-*%
X108817000Y-112417000D03*
X109900000Y-112014000D03*
X109220000Y-111350000D03*
%TO.N,Net-(U1-SW1)*%
X114675000Y-111760000D03*
X113899000Y-111500000D03*
%TO.N,Net-(C21-Pad2)*%
X128550000Y-114046000D03*
X129549500Y-113274500D03*
X133070000Y-112925000D03*
X144780000Y-103775000D03*
X144780000Y-104525000D03*
%TO.N,Net-(U1-SW2)*%
X150696000Y-68654000D03*
X151656500Y-69868500D03*
X152146000Y-95950000D03*
X152146000Y-94525000D03*
%TO.N,Buck Input*%
X94996000Y-74676000D03*
X89916000Y-78740000D03*
X98552000Y-95250000D03*
%TO.N,Batt-*%
X65532000Y-128778000D03*
X109220000Y-112014000D03*
X81280000Y-80264000D03*
X134620000Y-103124000D03*
X134620000Y-98552000D03*
%TO.N,Net-(D1-A)*%
X101600000Y-87534063D03*
X91440000Y-95504000D03*
%TO.N,Net-(U1-ACP)*%
X91440000Y-80264000D03*
%TO.N,Net-(U1-ACN)*%
X127609600Y-104673400D03*
X104140000Y-70104000D03*
X96480152Y-80224152D03*
%TO.N,Net-(U1-SW1)*%
X112649000Y-96393000D03*
X132588000Y-102870000D03*
X113899000Y-112282000D03*
%TO.N,Net-(U1-SW2)*%
X130302000Y-118364000D03*
X152146000Y-95250000D03*
X151130000Y-69342000D03*
%TO.N,Net-(U1-SRP)*%
X88900000Y-92964000D03*
X137067737Y-106865000D03*
X87757000Y-96189800D03*
X132981700Y-117487700D03*
%TO.N,Batt+*%
X44958000Y-118110000D03*
X78232000Y-115824000D03*
X58125900Y-113284000D03*
%TO.N,Net-(U1-ACOV)*%
X99625688Y-73209687D03*
X87549811Y-80264748D03*
X76200000Y-78486000D03*
X96520000Y-75184000D03*
%TO.N,Net-(U1-TS)*%
X67030600Y-104673400D03*
X102362000Y-78486000D03*
X83820000Y-89234189D03*
%TO.N,Net-(U1-FB)*%
X82042000Y-95504000D03*
%TO.N,Net-(U1-STAT1)*%
X78740000Y-87884000D03*
%TO.N,Net-(U1-STAT2)*%
X80330991Y-87833790D03*
%TO.N,Net-(U1-\u002APG)*%
X81095916Y-88068084D03*
%TO.N,CE*%
X82121410Y-88734063D03*
X72898000Y-65278000D03*
X72898000Y-85090000D03*
%TO.N,SCL*%
X83820000Y-65024000D03*
%TO.N,INT*%
X78740000Y-65024000D03*
%TO.N,SDL*%
X81280000Y-65024000D03*
%TO.N,Net-(U1-ICHG)*%
X83870800Y-90932000D03*
X78740000Y-84074000D03*
%TO.N,Net-(C30-Pad1)*%
X124699300Y-100852700D03*
X124699300Y-105156000D03*
X101600000Y-100584000D03*
X110490000Y-103124000D03*
X131826000Y-97790000D03*
%TO.N,Net-(C21-Pad2)*%
X144780000Y-103124000D03*
X98552000Y-115824000D03*
X133070000Y-113538000D03*
X129114100Y-113709900D03*
%TO.N,Batt+*%
X58629950Y-112779950D03*
%TD*%
M02*
