%TF.GenerationSoftware,KiCad,Pcbnew,9.0.5*%
%TF.CreationDate,2025-11-14T12:07:08-05:00*%
%TF.ProjectId,LVChargeNEW,4c564368-6172-4676-954e-45572e6b6963,1*%
%TF.SameCoordinates,Original*%
%TF.FileFunction,Copper,L2,Bot*%
%TF.FilePolarity,Positive*%
%FSLAX46Y46*%
G04 Gerber Fmt 4.6, Leading zero omitted, Abs format (unit mm)*
G04 Created by KiCad (PCBNEW 9.0.5) date 2025-11-14 12:07:08*
%MOMM*%
%LPD*%
G01*
G04 APERTURE LIST*
G04 Aperture macros list*
%AMRoundRect*
0 Rectangle with rounded corners*
0 $1 Rounding radius*
0 $2 $3 $4 $5 $6 $7 $8 $9 X,Y pos of 4 corners*
0 Add a 4 corners polygon primitive as box body*
4,1,4,$2,$3,$4,$5,$6,$7,$8,$9,$2,$3,0*
0 Add four circle primitives for the rounded corners*
1,1,$1+$1,$2,$3*
1,1,$1+$1,$4,$5*
1,1,$1+$1,$6,$7*
1,1,$1+$1,$8,$9*
0 Add four rect primitives between the rounded corners*
20,1,$1+$1,$2,$3,$4,$5,0*
20,1,$1+$1,$4,$5,$6,$7,0*
20,1,$1+$1,$6,$7,$8,$9,0*
20,1,$1+$1,$8,$9,$2,$3,0*%
G04 Aperture macros list end*
%TA.AperFunction,ComponentPad*%
%ADD10RoundRect,0.250000X0.550000X-0.550000X0.550000X0.550000X-0.550000X0.550000X-0.550000X-0.550000X0*%
%TD*%
%TA.AperFunction,ComponentPad*%
%ADD11C,1.600000*%
%TD*%
%TA.AperFunction,ComponentPad*%
%ADD12RoundRect,0.250000X0.550000X0.550000X-0.550000X0.550000X-0.550000X-0.550000X0.550000X-0.550000X0*%
%TD*%
%TA.AperFunction,ComponentPad*%
%ADD13C,1.400000*%
%TD*%
%TA.AperFunction,ComponentPad*%
%ADD14RoundRect,0.250000X-0.550000X-0.550000X0.550000X-0.550000X0.550000X0.550000X-0.550000X0.550000X0*%
%TD*%
%TA.AperFunction,ComponentPad*%
%ADD15RoundRect,0.250000X0.750000X0.750000X-0.750000X0.750000X-0.750000X-0.750000X0.750000X-0.750000X0*%
%TD*%
%TA.AperFunction,ComponentPad*%
%ADD16C,2.000000*%
%TD*%
%TA.AperFunction,ComponentPad*%
%ADD17R,1.700000X1.700000*%
%TD*%
%TA.AperFunction,ComponentPad*%
%ADD18O,1.700000X1.700000*%
%TD*%
%TA.AperFunction,ComponentPad*%
%ADD19R,1.000000X1.000000*%
%TD*%
%TA.AperFunction,ComponentPad*%
%ADD20C,1.000000*%
%TD*%
%TA.AperFunction,ComponentPad*%
%ADD21RoundRect,0.250000X-0.750000X-0.750000X0.750000X-0.750000X0.750000X0.750000X-0.750000X0.750000X0*%
%TD*%
%TA.AperFunction,ViaPad*%
%ADD22C,0.600000*%
%TD*%
%TA.AperFunction,Conductor*%
%ADD23C,0.200000*%
%TD*%
%TA.AperFunction,Conductor*%
%ADD24C,0.600000*%
%TD*%
G04 APERTURE END LIST*
D10*
%TO.P,C7,1*%
%TO.N,Net-(U1-ACN)*%
X66040000Y-73580000D03*
D11*
%TO.P,C7,2*%
%TO.N,Batt-*%
X66040000Y-68580000D03*
%TD*%
D12*
%TO.P,C15,1*%
%TO.N,Net-(U1-SRP)*%
X111680000Y-120904000D03*
D11*
%TO.P,C15,2*%
%TO.N,Net-(U1-SRN)*%
X106680000Y-120904000D03*
%TD*%
D13*
%TO.P,R5,1*%
%TO.N,Buck Input*%
X93218000Y-62484000D03*
%TO.P,R5,2*%
%TO.N,Net-(C4-Pad1)*%
X88138000Y-62484000D03*
%TD*%
%TO.P,R2,1*%
%TO.N,Net-(U1-ACOV)*%
X76200000Y-67564000D03*
%TO.P,R2,2*%
%TO.N,Net-(U1-ACUV)*%
X81280000Y-67564000D03*
%TD*%
D14*
%TO.P,C5,1*%
%TO.N,Buck Input*%
X50880000Y-71120000D03*
D11*
%TO.P,C5,2*%
%TO.N,Batt-*%
X55880000Y-71120000D03*
%TD*%
D13*
%TO.P,R17,1*%
%TO.N,Net-(D3-K)*%
X86360000Y-105664000D03*
%TO.P,R17,2*%
%TO.N,Net-(U1-\u002APG)*%
X86360000Y-110744000D03*
%TD*%
%TO.P,R18,1*%
%TO.N,Net-(U1-TS)*%
X58547000Y-105791000D03*
%TO.P,R18,2*%
%TO.N,Batt-*%
X53467000Y-105791000D03*
%TD*%
D15*
%TO.P,J1,1,Pin_1*%
%TO.N,Batt-*%
X44390000Y-47540000D03*
D16*
%TO.P,J1,2,Pin_2*%
%TO.N,Batt+*%
X41850000Y-47540000D03*
%TD*%
D10*
%TO.P,C12,1*%
%TO.N,Batt-*%
X91440000Y-123364000D03*
D11*
%TO.P,C12,2*%
%TO.N,Net-(C12-Pad2)*%
X91440000Y-118364000D03*
%TD*%
D13*
%TO.P,R10,1*%
%TO.N,Net-(C12-Pad2)*%
X134620000Y-110744000D03*
%TO.P,R10,2*%
%TO.N,Net-(U1-SRP)*%
X139700000Y-110744000D03*
%TD*%
%TO.P,R13,1*%
%TO.N,Net-(U1-FBG)*%
X83820000Y-98044000D03*
%TO.P,R13,2*%
%TO.N,Net-(U1-FB)*%
X88900000Y-98044000D03*
%TD*%
D17*
%TO.P,J1,1,1*%
%TO.N,N/C*%
X25400000Y-86360000D03*
D18*
%TO.P,J1,2,2*%
X25400000Y-88900000D03*
%TO.P,J1,3,3*%
X25400000Y-91440000D03*
%TO.P,J1,4,4*%
X25400000Y-93980000D03*
%TO.P,J1,5,5*%
X25400000Y-96520000D03*
%TO.P,J1,6,6*%
X25400000Y-99060000D03*
%TO.P,J1,7,7*%
X25400000Y-101600000D03*
%TO.P,J1,8,8*%
X25400000Y-104140000D03*
%TO.P,J1,9,9*%
X25400000Y-106680000D03*
%TO.P,J1,10,10*%
X25400000Y-109220000D03*
%TO.P,J1,11,11*%
X25400000Y-111760000D03*
%TO.P,J1,12,12*%
X25400000Y-114300000D03*
%TO.P,J1,13,13*%
X25400000Y-116840000D03*
%TO.P,J1,14,14*%
X25400000Y-119380000D03*
%TO.P,J1,15,15*%
X25400000Y-121920000D03*
%TO.P,J1,16,16*%
X25400000Y-124460000D03*
%TO.P,J1,17,17*%
X25400000Y-127000000D03*
%TO.P,J1,18,18*%
X25400000Y-129540000D03*
%TO.P,J1,19,19*%
X25400000Y-132080000D03*
%TO.P,J1,20,20*%
X25400000Y-134620000D03*
%TD*%
D13*
%TO.P,R19,1*%
%TO.N,Net-(U1-ICHG)*%
X76200000Y-84074000D03*
%TO.P,R19,2*%
%TO.N,Batt-*%
X81280000Y-84074000D03*
%TD*%
D17*
%TO.P,J1,1,1*%
%TO.N,N/C*%
X165100000Y-43180000D03*
D18*
%TO.P,J1,2,2*%
X165100000Y-45720000D03*
%TO.P,J1,3,3*%
X165100000Y-48260000D03*
%TO.P,J1,4,4*%
X165100000Y-50800000D03*
%TO.P,J1,5,5*%
X165100000Y-53340000D03*
%TO.P,J1,6,6*%
X165100000Y-55880000D03*
%TO.P,J1,7,7*%
X165100000Y-58420000D03*
%TO.P,J1,8,8*%
X165100000Y-60960000D03*
%TO.P,J1,9,9*%
X165100000Y-63500000D03*
%TO.P,J1,10,10*%
X165100000Y-66040000D03*
%TO.P,J1,11,11*%
X165100000Y-68580000D03*
%TO.P,J1,12,12*%
X165100000Y-71120000D03*
%TO.P,J1,13,13*%
X165100000Y-73660000D03*
%TO.P,J1,14,14*%
X165100000Y-76200000D03*
%TO.P,J1,15,15*%
X165100000Y-78740000D03*
%TO.P,J1,16,16*%
X165100000Y-81280000D03*
%TO.P,J1,17,17*%
X165100000Y-83820000D03*
%TD*%
D13*
%TO.P,R1,1*%
%TO.N,Net-(U1-ACUV)*%
X86360000Y-67564000D03*
%TO.P,R1,2*%
%TO.N,Buck Input*%
X91440000Y-67564000D03*
%TD*%
D10*
%TO.P,C8,1*%
%TO.N,Net-(U1-ACN)*%
X53340000Y-88900000D03*
D11*
%TO.P,C8,2*%
%TO.N,Net-(U1-ACP)*%
X53340000Y-83900000D03*
%TD*%
D12*
%TO.P,C16,1*%
%TO.N,Batt-*%
X68500000Y-98044000D03*
D11*
%TO.P,C16,2*%
%TO.N,Batt+*%
X63500000Y-98044000D03*
%TD*%
D13*
%TO.P,R12,1*%
%TO.N,Net-(U1-FB)*%
X73660000Y-90424000D03*
%TO.P,R12,2*%
%TO.N,Batt+*%
X68580000Y-90424000D03*
%TD*%
%TO.P,R6,1*%
%TO.N,Net-(D1-A)*%
X104140000Y-85344000D03*
%TO.P,R6,2*%
%TO.N,Net-(U1-TS)*%
X104140000Y-80264000D03*
%TD*%
D17*
%TO.P,J1,1,1*%
%TO.N,N/C*%
X25400000Y-43180000D03*
D18*
%TO.P,J1,2,2*%
X25400000Y-45720000D03*
%TO.P,J1,3,3*%
X25400000Y-48260000D03*
%TO.P,J1,4,4*%
X25400000Y-50800000D03*
%TO.P,J1,5,5*%
X25400000Y-53340000D03*
%TO.P,J1,6,6*%
X25400000Y-55880000D03*
%TO.P,J1,7,7*%
X25400000Y-58420000D03*
%TO.P,J1,8,8*%
X25400000Y-60960000D03*
%TO.P,J1,9,9*%
X25400000Y-63500000D03*
%TO.P,J1,10,10*%
X25400000Y-66040000D03*
%TO.P,J1,11,11*%
X25400000Y-68580000D03*
%TO.P,J1,12,12*%
X25400000Y-71120000D03*
%TO.P,J1,13,13*%
X25400000Y-73660000D03*
%TO.P,J1,14,14*%
X25400000Y-76200000D03*
%TO.P,J1,15,15*%
X25400000Y-78740000D03*
%TO.P,J1,16,16*%
X25400000Y-81280000D03*
%TO.P,J1,17,17*%
X25400000Y-83820000D03*
%TD*%
D14*
%TO.P,C2,1*%
%TO.N,Net-(U1-DRV_SUP)*%
X111840000Y-77724000D03*
D11*
%TO.P,C2,2*%
%TO.N,Batt-*%
X116840000Y-77724000D03*
%TD*%
D13*
%TO.P,R11,1*%
%TO.N,Batt+*%
X63500000Y-105664000D03*
%TO.P,R11,2*%
%TO.N,Net-(U1-SRN)*%
X63500000Y-110744000D03*
%TD*%
%TO.P,R9,1*%
%TO.N,Net-(U1-TS)*%
X68580000Y-105664000D03*
%TO.P,R9,2*%
%TO.N,Batt-*%
X68580000Y-110744000D03*
%TD*%
D19*
%TO.P,J3,1,Pin_1*%
%TO.N,Batt-*%
X105410000Y-46736000D03*
D20*
%TO.P,J3,2,Pin_2*%
%TO.N,CE*%
X106680000Y-46736000D03*
%TO.P,J3,3,Pin_3*%
%TO.N,INT*%
X107950000Y-46736000D03*
%TO.P,J3,4,Pin_4*%
%TO.N,SDL*%
X109220000Y-46736000D03*
%TO.P,J3,5,Pin_5*%
%TO.N,SCL*%
X110490000Y-46736000D03*
%TO.P,J3,6*%
%TO.N,N/C*%
X111760000Y-46736000D03*
%TD*%
D13*
%TO.P,R4,1*%
%TO.N,Net-(U1-DRV_SUP)*%
X106680000Y-87884000D03*
%TO.P,R4,2*%
%TO.N,Net-(D1-A)*%
X111760000Y-87884000D03*
%TD*%
%TO.P,R14,1*%
%TO.N,Batt-*%
X86360000Y-77724000D03*
%TO.P,R14,2*%
%TO.N,Net-(U1-FSW_SYNC)*%
X86360000Y-82804000D03*
%TD*%
D10*
%TO.P,C13,1*%
%TO.N,Net-(U1-SRP)*%
X76200000Y-110744000D03*
D11*
%TO.P,C13,2*%
%TO.N,Batt-*%
X76200000Y-105744000D03*
%TD*%
D13*
%TO.P,R3,1*%
%TO.N,Net-(U1-ACOV)*%
X76200000Y-80264000D03*
%TO.P,R3,2*%
%TO.N,Batt-*%
X81280000Y-80264000D03*
%TD*%
%TO.P,R20,1*%
%TO.N,Net-(C_sys1-Pad1)*%
X40640000Y-62484000D03*
%TO.P,R20,2*%
%TO.N,Batt-*%
X45720000Y-62484000D03*
%TD*%
%TO.P,R16,1*%
%TO.N,Net-(D2-K)*%
X91440000Y-105664000D03*
%TO.P,R16,2*%
%TO.N,Net-(U1-STAT2)*%
X91440000Y-110744000D03*
%TD*%
D21*
%TO.P,J2,1,Pin_1*%
%TO.N,Batt-*%
X156870000Y-128310000D03*
D16*
%TO.P,J2,2,Pin_2*%
%TO.N,Buck Input*%
X159410000Y-128310000D03*
%TD*%
D12*
%TO.P,C4,1*%
%TO.N,Net-(C4-Pad1)*%
X81396651Y-57150000D03*
D11*
%TO.P,C4,2*%
%TO.N,Batt-*%
X76396651Y-57150000D03*
%TD*%
D13*
%TO.P,R7,1*%
%TO.N,Buck Input*%
X91440000Y-75184000D03*
%TO.P,R7,2*%
%TO.N,Net-(U1-ACP)*%
X91440000Y-80264000D03*
%TD*%
%TO.P,R8,1*%
%TO.N,Net-(C9-Pad2)*%
X127000000Y-103124000D03*
%TO.P,R8,2*%
%TO.N,Net-(U1-ACN)*%
X127000000Y-98044000D03*
%TD*%
D10*
%TO.P,C10,1*%
%TO.N,Net-(U1-BTST1)*%
X119380000Y-103044000D03*
D11*
%TO.P,C10,2*%
%TO.N,Net-(U1-SW1)*%
X119380000Y-98044000D03*
%TD*%
D14*
%TO.P,C3,1*%
%TO.N,Net-(D1-A)*%
X116840000Y-87884000D03*
D11*
%TO.P,C3,2*%
%TO.N,Batt-*%
X121840000Y-87884000D03*
%TD*%
D10*
%TO.P,C6,1*%
%TO.N,Batt-*%
X53340000Y-100504000D03*
D11*
%TO.P,C6,2*%
%TO.N,Net-(U1-ACP)*%
X53340000Y-95504000D03*
%TD*%
D13*
%TO.P,R15,1*%
%TO.N,Net-(D1-K)*%
X96520000Y-105664000D03*
%TO.P,R15,2*%
%TO.N,Net-(U1-STAT1)*%
X96520000Y-110744000D03*
%TD*%
D10*
%TO.P,C9,1*%
%TO.N,Batt-*%
X134700000Y-103124000D03*
D11*
%TO.P,C9,2*%
%TO.N,Net-(C9-Pad2)*%
X134700000Y-98124000D03*
%TD*%
D14*
%TO.P,C14,1*%
%TO.N,Batt-*%
X73740000Y-120904000D03*
D11*
%TO.P,C14,2*%
%TO.N,Net-(U1-SRN)*%
X78740000Y-120904000D03*
%TD*%
D14*
%TO.P,C11,1*%
%TO.N,Net-(U1-BTST2)*%
X142320000Y-120904000D03*
D11*
%TO.P,C11,2*%
%TO.N,Net-(U1-SW2)*%
X147320000Y-120904000D03*
%TD*%
D12*
%TO.P,C1,1*%
%TO.N,Batt-*%
X55800000Y-59944000D03*
D11*
%TO.P,C1,2*%
%TO.N,Buck Input*%
X50800000Y-59944000D03*
%TD*%
D17*
%TO.P,J1,1,1*%
%TO.N,N/C*%
X165100000Y-86360000D03*
D18*
%TO.P,J1,2,2*%
X165100000Y-88900000D03*
%TO.P,J1,3,3*%
X165100000Y-91440000D03*
%TO.P,J1,4,4*%
X165100000Y-93980000D03*
%TO.P,J1,5,5*%
X165100000Y-96520000D03*
%TO.P,J1,6,6*%
X165100000Y-99060000D03*
%TO.P,J1,7,7*%
X165100000Y-101600000D03*
%TO.P,J1,8,8*%
X165100000Y-104140000D03*
%TO.P,J1,9,9*%
X165100000Y-106680000D03*
%TO.P,J1,10,10*%
X165100000Y-109220000D03*
%TO.P,J1,11,11*%
X165100000Y-111760000D03*
%TO.P,J1,12,12*%
X165100000Y-114300000D03*
%TO.P,J1,13,13*%
X165100000Y-116840000D03*
%TO.P,J1,14,14*%
X165100000Y-119380000D03*
%TO.P,J1,15,15*%
X165100000Y-121920000D03*
%TO.P,J1,16,16*%
X165100000Y-124460000D03*
%TO.P,J1,17,17*%
X165100000Y-127000000D03*
%TO.P,J1,18,18*%
X165100000Y-129540000D03*
%TO.P,J1,19,19*%
X165100000Y-132080000D03*
%TO.P,J1,20,20*%
X165100000Y-134620000D03*
%TD*%
D22*
%TO.N,Buck Input*%
X93980000Y-91831400D03*
X72009000Y-52781200D03*
X93218000Y-56388000D03*
%TO.N,Batt-*%
X109220000Y-112014000D03*
X30734000Y-56642000D03*
X98352186Y-75891814D03*
X100330000Y-73914000D03*
X77978000Y-128016000D03*
%TO.N,Net-(D1-A)*%
X101600000Y-87534063D03*
X91440000Y-95504000D03*
%TO.N,Net-(U1-ACN)*%
X104140000Y-70104000D03*
X96480152Y-80224152D03*
%TO.N,Net-(C9-Pad2)*%
X124460000Y-108204000D03*
X126581835Y-110325835D03*
X101600000Y-100584000D03*
X110490000Y-103124000D03*
%TO.N,Net-(U1-SW1)*%
X112649000Y-96393000D03*
X113899000Y-112282000D03*
%TO.N,Net-(U1-SW2)*%
X139700000Y-115824000D03*
%TO.N,Net-(C12-Pad2)*%
X144780000Y-103124000D03*
X119380000Y-115824000D03*
X139700000Y-103124000D03*
%TO.N,Net-(U1-SRP)*%
X88900000Y-92964000D03*
X137067737Y-106865000D03*
%TO.N,Batt+*%
X81280000Y-115824000D03*
%TO.N,Net-(U1-ACOV)*%
X99625688Y-73209687D03*
X87549811Y-80264748D03*
X96520000Y-75184000D03*
%TO.N,Net-(U1-TS)*%
X83018000Y-90424000D03*
%TO.N,Net-(U1-FB)*%
X82418000Y-95504000D03*
%TO.N,Net-(U1-STAT1)*%
X78740000Y-87884000D03*
%TO.N,Net-(U1-STAT2)*%
X80330991Y-87833790D03*
%TO.N,Net-(U1-\u002APG)*%
X81095916Y-88068084D03*
%TO.N,CE*%
X82121410Y-88734063D03*
%TO.N,SCL*%
X83820000Y-65024000D03*
%TO.N,INT*%
X78740000Y-65024000D03*
%TO.N,SDL*%
X81280000Y-65024000D03*
%TO.N,Net-(U1-ICHG)*%
X83820000Y-91694000D03*
%TD*%
D23*
%TO.N,Buck Input*%
X52070000Y-54864000D02*
X50800000Y-56134000D01*
X55118000Y-54864000D02*
X69926200Y-54864000D01*
X50800000Y-56134000D02*
X50800000Y-59944000D01*
D24*
X89228775Y-80592775D02*
X89228775Y-77395225D01*
D23*
X69926200Y-54864000D02*
X72009000Y-52781200D01*
X93218000Y-56388000D02*
X93218000Y-62484000D01*
D24*
X93980000Y-85344000D02*
X89228775Y-80592775D01*
X89228775Y-77395225D02*
X91440000Y-75184000D01*
X93980000Y-91831400D02*
X93980000Y-85344000D01*
D23*
X55118000Y-54864000D02*
X52070000Y-54864000D01*
%TO.N,Batt-*%
X97506450Y-75046078D02*
X98352186Y-75891814D01*
X68580000Y-92964000D02*
X68580000Y-95504000D01*
X86360000Y-77724000D02*
X84221000Y-77724000D01*
X97506450Y-74197550D02*
X97506450Y-75046078D01*
X68500000Y-95584000D02*
X68500000Y-98044000D01*
X105410000Y-48609557D02*
X105410000Y-47244000D01*
D24*
X109220000Y-112014000D02*
X106948000Y-114286000D01*
D23*
X76396651Y-49942949D02*
X76956600Y-49383000D01*
X96353900Y-73045000D02*
X97506450Y-74197550D01*
X68580000Y-95504000D02*
X68500000Y-95584000D01*
X83653900Y-72243000D02*
X83419000Y-72477900D01*
X53467000Y-105791000D02*
X53467000Y-100631000D01*
D24*
X30734000Y-56642000D02*
X39878000Y-56642000D01*
D23*
X84221000Y-73279900D02*
X84455900Y-73045000D01*
X53467000Y-100631000D02*
X53340000Y-100504000D01*
X83419000Y-78125000D02*
X81280000Y-80264000D01*
X76240000Y-57404000D02*
X76280000Y-57404000D01*
X76956600Y-49383000D02*
X104636557Y-49383000D01*
X96686100Y-72243000D02*
X83653900Y-72243000D01*
X104636557Y-49383000D02*
X105410000Y-48609557D01*
X84455900Y-73045000D02*
X96353900Y-73045000D01*
X98357100Y-73914000D02*
X96686100Y-72243000D01*
X84221000Y-77724000D02*
X84221000Y-73279900D01*
X53340000Y-100504000D02*
X55960000Y-100504000D01*
X76396651Y-57150000D02*
X76396651Y-49942949D01*
X100330000Y-73914000D02*
X98357100Y-73914000D01*
D24*
X93678108Y-114286000D02*
X80010000Y-127954108D01*
D23*
X55960000Y-100504000D02*
X63500000Y-92964000D01*
X63500000Y-92964000D02*
X68580000Y-92964000D01*
X83419000Y-72477900D02*
X83419000Y-78125000D01*
D24*
X78039892Y-127954108D02*
X77978000Y-128016000D01*
X80010000Y-127954108D02*
X78039892Y-127954108D01*
X106948000Y-114286000D02*
X93678108Y-114286000D01*
X39878000Y-56642000D02*
X45720000Y-62484000D01*
D23*
%TO.N,Net-(D1-A)*%
X136818794Y-107466000D02*
X138258900Y-107466000D01*
X91440000Y-95504000D02*
X93111000Y-93833000D01*
X130574900Y-107266000D02*
X136618794Y-107266000D01*
X129139000Y-93833000D02*
X129139000Y-105830100D01*
X129941000Y-93265900D02*
X129639100Y-92964000D01*
X138191100Y-106264000D02*
X136818794Y-106264000D01*
X101600000Y-92964000D02*
X101600000Y-87534063D01*
X129139000Y-105830100D02*
X130574900Y-107266000D01*
X130907100Y-106464000D02*
X129941000Y-105497900D01*
X138430000Y-107294900D02*
X138430000Y-106502900D01*
X129941000Y-105497900D02*
X129941000Y-93265900D01*
X138430000Y-106502900D02*
X138191100Y-106264000D01*
X93111000Y-93833000D02*
X129139000Y-93833000D01*
X136618794Y-106464000D02*
X130907100Y-106464000D01*
X129639100Y-92964000D02*
X101600000Y-92964000D01*
X136818794Y-106264000D02*
X136618794Y-106464000D01*
X136618794Y-107266000D02*
X136818794Y-107466000D01*
X138258900Y-107466000D02*
X138430000Y-107294900D01*
%TO.N,Net-(U1-ACP)*%
X106680000Y-78846956D02*
X99969044Y-72136000D01*
X106680000Y-82804000D02*
X106680000Y-78846956D01*
X91440000Y-80264000D02*
X92080848Y-79623152D01*
X92080848Y-79623152D02*
X100959152Y-79623152D01*
X77978000Y-73406000D02*
X55880000Y-95504000D01*
X82617000Y-72145700D02*
X82617000Y-73406000D01*
X82617000Y-73406000D02*
X77978000Y-73406000D01*
X97713300Y-72136000D02*
X97018300Y-71441000D01*
X100959152Y-79623152D02*
X104140000Y-82804000D01*
X55880000Y-95504000D02*
X53340000Y-95504000D01*
X104140000Y-82804000D02*
X106680000Y-82804000D01*
X99969044Y-72136000D02*
X97713300Y-72136000D01*
X83321700Y-71441000D02*
X82617000Y-72145700D01*
X97018300Y-71441000D02*
X83321700Y-71441000D01*
%TO.N,Net-(U1-ACN)*%
X138357200Y-105863000D02*
X136358000Y-105863000D01*
X131073200Y-106063000D02*
X130342000Y-105331800D01*
X73660000Y-70104000D02*
X104140000Y-70104000D01*
X130342000Y-93099800D02*
X129805200Y-92563000D01*
X127000000Y-98044000D02*
X128738000Y-99782000D01*
X102201000Y-85945000D02*
X96480152Y-80224152D01*
X70184000Y-73580000D02*
X66040000Y-73580000D01*
X128738000Y-105996200D02*
X130408800Y-107667000D01*
X130342000Y-105331800D02*
X130342000Y-93099800D01*
X138831000Y-107461000D02*
X138831000Y-106336800D01*
X138425000Y-107867000D02*
X138831000Y-107461000D01*
X73660000Y-70104000D02*
X70184000Y-73580000D01*
X102201000Y-92363000D02*
X102201000Y-85945000D01*
X136652694Y-107867000D02*
X138425000Y-107867000D01*
X136358000Y-105863000D02*
X136158000Y-106063000D01*
X130408800Y-107667000D02*
X136452694Y-107667000D01*
X102401000Y-92563000D02*
X102201000Y-92363000D01*
X136158000Y-106063000D02*
X131073200Y-106063000D01*
X138831000Y-106336800D02*
X138357200Y-105863000D01*
X129805200Y-92563000D02*
X102401000Y-92563000D01*
X128738000Y-99782000D02*
X128738000Y-105996200D01*
X136452694Y-107667000D02*
X136652694Y-107867000D01*
D24*
%TO.N,Net-(C9-Pad2)*%
X126581835Y-108293835D02*
X126492000Y-108204000D01*
X126492000Y-108204000D02*
X124460000Y-108204000D01*
X126581835Y-110325835D02*
X126581835Y-108293835D01*
X104140000Y-103124000D02*
X101600000Y-100584000D01*
X110490000Y-103124000D02*
X104140000Y-103124000D01*
D23*
%TO.N,Net-(U1-SW1)*%
X119380000Y-98044000D02*
X116693000Y-98044000D01*
D24*
X112649000Y-96393000D02*
X113899000Y-97643000D01*
X113899000Y-97643000D02*
X113899000Y-100838000D01*
X113899000Y-100838000D02*
X113899000Y-112282000D01*
D23*
X116693000Y-98044000D02*
X113899000Y-100838000D01*
D24*
%TO.N,Net-(U1-SW2)*%
X149860000Y-118364000D02*
X149860000Y-119634000D01*
X148590000Y-120904000D02*
X147320000Y-120904000D01*
X139700000Y-115824000D02*
X147320000Y-115824000D01*
X147320000Y-115824000D02*
X149860000Y-118364000D01*
X149860000Y-119634000D02*
X148590000Y-120904000D01*
%TO.N,Net-(C12-Pad2)*%
X139700000Y-103124000D02*
X144780000Y-103124000D01*
X119380000Y-115824000D02*
X93980000Y-115824000D01*
X93980000Y-115824000D02*
X91440000Y-118364000D01*
D23*
%TO.N,Net-(U1-SRP)*%
X71521000Y-110577900D02*
X71687100Y-110744000D01*
X111680000Y-120904000D02*
X129540000Y-120904000D01*
X137067737Y-106865000D02*
X130741000Y-106865000D01*
X129540000Y-93432000D02*
X89368000Y-93432000D01*
X88900000Y-92964000D02*
X86360000Y-92964000D01*
X73943550Y-103525000D02*
X71521000Y-105947550D01*
X130741000Y-106865000D02*
X129540000Y-105664000D01*
X85090000Y-94234000D02*
X81496916Y-94234000D01*
X81496916Y-102655200D02*
X80627116Y-103525000D01*
X71687100Y-110744000D02*
X76200000Y-110744000D01*
X129540000Y-105664000D02*
X129540000Y-93432000D01*
X81496916Y-94234000D02*
X81496916Y-102655200D01*
X89368000Y-93432000D02*
X88900000Y-92964000D01*
X71521000Y-105947550D02*
X71521000Y-110577900D01*
X86360000Y-92964000D02*
X85090000Y-94234000D01*
X80627116Y-103525000D02*
X73943550Y-103525000D01*
X129540000Y-120904000D02*
X139700000Y-110744000D01*
D24*
%TO.N,Batt+*%
X63500000Y-113822000D02*
X66040000Y-113822000D01*
X63113761Y-113435761D02*
X63500000Y-113822000D01*
X63500000Y-108204000D02*
X60960000Y-110744000D01*
X60960000Y-110744000D02*
X60960000Y-113435761D01*
X68042000Y-115824000D02*
X81280000Y-115824000D01*
X63500000Y-105664000D02*
X63500000Y-108204000D01*
X66040000Y-113822000D02*
X68042000Y-115824000D01*
X60960000Y-113435761D02*
X63113761Y-113435761D01*
D23*
%TO.N,Net-(U1-ACOV)*%
X83018000Y-77890100D02*
X83018000Y-72311800D01*
X84622000Y-75399628D02*
X84622000Y-73446000D01*
X88098000Y-76723000D02*
X85945372Y-76723000D01*
X77216000Y-78486000D02*
X80518000Y-78486000D01*
X96187800Y-73446000D02*
X96520000Y-73778200D01*
X80518000Y-78486000D02*
X80879000Y-78125000D01*
X85945372Y-76723000D02*
X84622000Y-75399628D01*
X83487800Y-71842000D02*
X96852200Y-71842000D01*
X84622000Y-73446000D02*
X96187800Y-73446000D01*
X80879000Y-78125000D02*
X82783100Y-78125000D01*
X88098000Y-79716559D02*
X88098000Y-76723000D01*
X82783100Y-78125000D02*
X83018000Y-77890100D01*
X83018000Y-72311800D02*
X83487800Y-71842000D01*
X76200000Y-79502000D02*
X77216000Y-78486000D01*
X96852200Y-71842000D02*
X98219887Y-73209687D01*
X98219887Y-73209687D02*
X99625688Y-73209687D01*
X96520000Y-73778200D02*
X96520000Y-75184000D01*
X87549811Y-80264748D02*
X88098000Y-79716559D01*
X76200000Y-80264000D02*
X76200000Y-79502000D01*
%TO.N,Net-(U1-TS)*%
X59675000Y-104663000D02*
X67579000Y-104663000D01*
X83018000Y-90424000D02*
X83058000Y-90424000D01*
X83058000Y-89657130D02*
X83820000Y-88895130D01*
X83058000Y-90424000D02*
X83058000Y-89657130D01*
X96520000Y-72644000D02*
X104140000Y-80264000D01*
X83585100Y-84943000D02*
X83058000Y-84943000D01*
X83820000Y-72644000D02*
X96520000Y-72644000D01*
X83058000Y-84943000D02*
X83058000Y-79053100D01*
X83820000Y-78291100D02*
X83820000Y-72644000D01*
X83820000Y-88895130D02*
X83820000Y-85177900D01*
X83058000Y-79053100D02*
X83820000Y-78291100D01*
X83820000Y-85177900D02*
X83585100Y-84943000D01*
X58547000Y-105791000D02*
X59675000Y-104663000D01*
X67579000Y-104663000D02*
X68580000Y-105664000D01*
%TO.N,Net-(U1-FB)*%
X86360000Y-98044000D02*
X88900000Y-98044000D01*
X83820000Y-95504000D02*
X82418000Y-95504000D01*
X86360000Y-98044000D02*
X83820000Y-95504000D01*
%TO.N,Net-(U1-STAT1)*%
X70318000Y-105331800D02*
X70318000Y-111076200D01*
X86526100Y-113685000D02*
X93579000Y-113685000D01*
X70318000Y-111076200D02*
X73327800Y-114086000D01*
X93579000Y-113685000D02*
X96520000Y-110744000D01*
X86125100Y-114086000D02*
X86526100Y-113685000D01*
X73327800Y-114086000D02*
X86125100Y-114086000D01*
X80293916Y-89437916D02*
X80293916Y-102156900D01*
X80128816Y-102322000D02*
X73327800Y-102322000D01*
X78740000Y-87884000D02*
X80293916Y-89437916D01*
X80293916Y-102156900D02*
X80128816Y-102322000D01*
X73327800Y-102322000D02*
X70318000Y-105331800D01*
%TO.N,Net-(U1-STAT2)*%
X80494916Y-87884000D02*
X80381201Y-87884000D01*
X73493900Y-102723000D02*
X80294916Y-102723000D01*
X70719000Y-110910100D02*
X70719000Y-105497900D01*
X80381201Y-87884000D02*
X80330991Y-87833790D01*
X73493900Y-113685000D02*
X70719000Y-110910100D01*
X86360000Y-113284000D02*
X85959000Y-113685000D01*
X70719000Y-105497900D02*
X73493900Y-102723000D01*
X88900000Y-113284000D02*
X86360000Y-113284000D01*
X91440000Y-110744000D02*
X88900000Y-113284000D01*
X80694916Y-102323000D02*
X80694916Y-88517027D01*
X80694916Y-88517027D02*
X80494916Y-88317027D01*
X85959000Y-113685000D02*
X73493900Y-113685000D01*
X80494916Y-88317027D02*
X80494916Y-87884000D01*
X80294916Y-102723000D02*
X80694916Y-102323000D01*
%TO.N,Net-(U1-\u002APG)*%
X73660000Y-113284000D02*
X83820000Y-113284000D01*
X81095916Y-88068084D02*
X81095916Y-102489100D01*
X81095916Y-102489100D02*
X80461016Y-103124000D01*
X71120000Y-105664000D02*
X71120000Y-110744000D01*
X80461016Y-103124000D02*
X73660000Y-103124000D01*
X71120000Y-110744000D02*
X73660000Y-113284000D01*
X83820000Y-113284000D02*
X86360000Y-110744000D01*
X73660000Y-103124000D02*
X71120000Y-105664000D01*
%TO.N,CE*%
X48768000Y-81280000D02*
X49276000Y-80772000D01*
X103477552Y-51816000D02*
X106679999Y-48613553D01*
X106680000Y-48613553D02*
X106680000Y-47244000D01*
X84903000Y-63246000D02*
X84903000Y-53916800D01*
X60960000Y-77470000D02*
X60960000Y-68580000D01*
X78740000Y-64262000D02*
X79756000Y-63246000D01*
X50800000Y-89662000D02*
X48768000Y-87630000D01*
X57658000Y-80772000D02*
X60960000Y-77470000D01*
X82121410Y-88734063D02*
X82550000Y-88305473D01*
X48768000Y-87630000D02*
X48768000Y-81280000D01*
X60960000Y-68580000D02*
X65278000Y-64262000D01*
X65278000Y-64262000D02*
X78740000Y-64262000D01*
X84903000Y-53916800D02*
X87003800Y-51816000D01*
X53907100Y-98044000D02*
X50800000Y-98044000D01*
X82550000Y-87010979D02*
X64940121Y-87010979D01*
X64940121Y-87010979D02*
X53907100Y-98044000D01*
X79756000Y-63246000D02*
X84903000Y-63246000D01*
X82550000Y-88305473D02*
X82550000Y-87010979D01*
X87003800Y-51816000D02*
X103477552Y-51816000D01*
X49276000Y-80772000D02*
X57658000Y-80772000D01*
X106679999Y-48613553D02*
X106680000Y-48613553D01*
X50800000Y-98044000D02*
X50800000Y-89662000D01*
%TO.N,SCL*%
X83820000Y-65024000D02*
X86106000Y-65024000D01*
X110490000Y-47371000D02*
X110490000Y-47244000D01*
X86106000Y-65024000D02*
X86106000Y-54610000D01*
X87376000Y-53340000D02*
X104521000Y-53340000D01*
X86106000Y-54610000D02*
X87376000Y-53340000D01*
X104521000Y-53340000D02*
X110490000Y-47371000D01*
%TO.N,INT*%
X85304000Y-63988900D02*
X85270900Y-64022000D01*
X87062900Y-52324000D02*
X85304000Y-54082900D01*
X79742000Y-64022000D02*
X78740000Y-65024000D01*
X107950000Y-48260000D02*
X103886000Y-52324000D01*
X85304000Y-54082900D02*
X85304000Y-63988900D01*
X103886000Y-52324000D02*
X87062900Y-52324000D01*
X107950000Y-47244000D02*
X107950000Y-48260000D01*
X85270900Y-64022000D02*
X79742000Y-64022000D01*
%TO.N,SDL*%
X85705000Y-54249000D02*
X85705000Y-64409000D01*
X87122000Y-52832000D02*
X85705000Y-54249000D01*
X81881000Y-64423000D02*
X81280000Y-65024000D01*
X109220000Y-47244000D02*
X109220000Y-47752000D01*
X104140000Y-52832000D02*
X87122000Y-52832000D01*
X85705000Y-64409000D02*
X85691000Y-64423000D01*
X109220000Y-47752000D02*
X104140000Y-52832000D01*
X85691000Y-64423000D02*
X81881000Y-64423000D01*
%TO.N,Net-(U1-ICHG)*%
X83419000Y-85344000D02*
X83419000Y-88729030D01*
X81496916Y-90651114D02*
X81496916Y-91694000D01*
X77470000Y-85344000D02*
X83419000Y-85344000D01*
X76200000Y-84074000D02*
X77470000Y-85344000D01*
X83419000Y-88729030D02*
X81496916Y-90651114D01*
X81496916Y-91694000D02*
X83820000Y-91694000D01*
%TD*%
M02*
