%TF.GenerationSoftware,KiCad,Pcbnew,9.0.5*%
%TF.CreationDate,2025-11-14T12:07:09-05:00*%
%TF.ProjectId,LVChargeNEW,4c564368-6172-4676-954e-45572e6b6963,1*%
%TF.SameCoordinates,Original*%
%TF.FileFunction,Soldermask,Top*%
%TF.FilePolarity,Negative*%
%FSLAX46Y46*%
G04 Gerber Fmt 4.6, Leading zero omitted, Abs format (unit mm)*
G04 Created by KiCad (PCBNEW 9.0.5) date 2025-11-14 12:07:09*
%MOMM*%
%LPD*%
G01*
G04 APERTURE LIST*
G04 Aperture macros list*
%AMRoundRect*
0 Rectangle with rounded corners*
0 $1 Rounding radius*
0 $2 $3 $4 $5 $6 $7 $8 $9 X,Y pos of 4 corners*
0 Add a 4 corners polygon primitive as box body*
4,1,4,$2,$3,$4,$5,$6,$7,$8,$9,$2,$3,0*
0 Add four circle primitives for the rounded corners*
1,1,$1+$1,$2,$3*
1,1,$1+$1,$4,$5*
1,1,$1+$1,$6,$7*
1,1,$1+$1,$8,$9*
0 Add four rect primitives between the rounded corners*
20,1,$1+$1,$2,$3,$4,$5,0*
20,1,$1+$1,$4,$5,$6,$7,0*
20,1,$1+$1,$6,$7,$8,$9,0*
20,1,$1+$1,$8,$9,$2,$3,0*%
G04 Aperture macros list end*
%ADD10C,0.010000*%
%ADD11RoundRect,0.102000X-0.485000X-0.690000X0.485000X-0.690000X0.485000X0.690000X-0.485000X0.690000X0*%
%ADD12RoundRect,0.250000X0.550000X-0.550000X0.550000X0.550000X-0.550000X0.550000X-0.550000X-0.550000X0*%
%ADD13C,1.600000*%
%ADD14RoundRect,0.250000X0.550000X0.550000X-0.550000X0.550000X-0.550000X-0.550000X0.550000X-0.550000X0*%
%ADD15RoundRect,0.250000X-0.412500X-1.100000X0.412500X-1.100000X0.412500X1.100000X-0.412500X1.100000X0*%
%ADD16C,1.400000*%
%ADD17RoundRect,0.250000X-0.550000X-0.550000X0.550000X-0.550000X0.550000X0.550000X-0.550000X0.550000X0*%
%ADD18RoundRect,0.250000X0.750000X0.750000X-0.750000X0.750000X-0.750000X-0.750000X0.750000X-0.750000X0*%
%ADD19C,2.000000*%
%ADD20R,1.700000X1.700000*%
%ADD21O,1.700000X1.700000*%
%ADD22RoundRect,0.250000X0.625000X-0.375000X0.625000X0.375000X-0.625000X0.375000X-0.625000X-0.375000X0*%
%ADD23RoundRect,0.102000X0.690000X-0.485000X0.690000X0.485000X-0.690000X0.485000X-0.690000X-0.485000X0*%
%ADD24R,2.921000X12.141200*%
%ADD25R,0.812800X0.254000*%
%ADD26R,0.254000X0.812800*%
%ADD27R,3.708400X4.699000*%
%ADD28R,1.000000X1.000000*%
%ADD29C,1.000000*%
%ADD30RoundRect,0.250000X-0.750000X-0.750000X0.750000X-0.750000X0.750000X0.750000X-0.750000X0.750000X0*%
G04 APERTURE END LIST*
D10*
%TO.C,Q4*%
X126000000Y-119509000D02*
X125100000Y-119509000D01*
X125100000Y-119169000D01*
X126000000Y-119169000D01*
X126000000Y-119509000D01*
G36*
X126000000Y-119509000D02*
G01*
X125100000Y-119509000D01*
X125100000Y-119169000D01*
X126000000Y-119169000D01*
X126000000Y-119509000D01*
G37*
X126000000Y-118859000D02*
X125100000Y-118859000D01*
X125100000Y-118519000D01*
X125550000Y-118519000D01*
X125550000Y-118209000D01*
X125100000Y-118209000D01*
X125100000Y-117869000D01*
X125550000Y-117869000D01*
X125550000Y-117559000D01*
X125100000Y-117559000D01*
X125100000Y-117219000D01*
X126000000Y-117219000D01*
X126000000Y-118859000D01*
G36*
X126000000Y-118859000D02*
G01*
X125100000Y-118859000D01*
X125100000Y-118519000D01*
X125550000Y-118519000D01*
X125550000Y-118209000D01*
X125100000Y-118209000D01*
X125100000Y-117869000D01*
X125550000Y-117869000D01*
X125550000Y-117559000D01*
X125100000Y-117559000D01*
X125100000Y-117219000D01*
X126000000Y-117219000D01*
X126000000Y-118859000D01*
G37*
X128880000Y-117559000D02*
X128230000Y-117559000D01*
X128230000Y-117869000D01*
X128880000Y-117869000D01*
X128880000Y-118209000D01*
X128230000Y-118209000D01*
X128230000Y-118519000D01*
X128880000Y-118519000D01*
X128880000Y-118859000D01*
X128230000Y-118859000D01*
X128230000Y-119169000D01*
X128880000Y-119169000D01*
X128880000Y-119509000D01*
X126520000Y-119509000D01*
X126520000Y-117219000D01*
X128880000Y-117219000D01*
X128880000Y-117559000D01*
G36*
X128880000Y-117559000D02*
G01*
X128230000Y-117559000D01*
X128230000Y-117869000D01*
X128880000Y-117869000D01*
X128880000Y-118209000D01*
X128230000Y-118209000D01*
X128230000Y-118519000D01*
X128880000Y-118519000D01*
X128880000Y-118859000D01*
X128230000Y-118859000D01*
X128230000Y-119169000D01*
X128880000Y-119169000D01*
X128880000Y-119509000D01*
X126520000Y-119509000D01*
X126520000Y-117219000D01*
X128880000Y-117219000D01*
X128880000Y-117559000D01*
G37*
%TO.C,Q3*%
X143080000Y-101729000D02*
X142180000Y-101729000D01*
X142180000Y-101389000D01*
X143080000Y-101389000D01*
X143080000Y-101729000D01*
G36*
X143080000Y-101729000D02*
G01*
X142180000Y-101729000D01*
X142180000Y-101389000D01*
X143080000Y-101389000D01*
X143080000Y-101729000D01*
G37*
X143080000Y-101079000D02*
X142180000Y-101079000D01*
X142180000Y-100739000D01*
X142630000Y-100739000D01*
X142630000Y-100429000D01*
X142180000Y-100429000D01*
X142180000Y-100089000D01*
X142630000Y-100089000D01*
X142630000Y-99779000D01*
X142180000Y-99779000D01*
X142180000Y-99439000D01*
X143080000Y-99439000D01*
X143080000Y-101079000D01*
G36*
X143080000Y-101079000D02*
G01*
X142180000Y-101079000D01*
X142180000Y-100739000D01*
X142630000Y-100739000D01*
X142630000Y-100429000D01*
X142180000Y-100429000D01*
X142180000Y-100089000D01*
X142630000Y-100089000D01*
X142630000Y-99779000D01*
X142180000Y-99779000D01*
X142180000Y-99439000D01*
X143080000Y-99439000D01*
X143080000Y-101079000D01*
G37*
X145960000Y-99779000D02*
X145310000Y-99779000D01*
X145310000Y-100089000D01*
X145960000Y-100089000D01*
X145960000Y-100429000D01*
X145310000Y-100429000D01*
X145310000Y-100739000D01*
X145960000Y-100739000D01*
X145960000Y-101079000D01*
X145310000Y-101079000D01*
X145310000Y-101389000D01*
X145960000Y-101389000D01*
X145960000Y-101729000D01*
X143600000Y-101729000D01*
X143600000Y-99439000D01*
X145960000Y-99439000D01*
X145960000Y-99779000D01*
G36*
X145960000Y-99779000D02*
G01*
X145310000Y-99779000D01*
X145310000Y-100089000D01*
X145960000Y-100089000D01*
X145960000Y-100429000D01*
X145310000Y-100429000D01*
X145310000Y-100739000D01*
X145960000Y-100739000D01*
X145960000Y-101079000D01*
X145310000Y-101079000D01*
X145310000Y-101389000D01*
X145960000Y-101389000D01*
X145960000Y-101729000D01*
X143600000Y-101729000D01*
X143600000Y-99439000D01*
X145960000Y-99439000D01*
X145960000Y-99779000D01*
G37*
%TO.C,Q1*%
X111930000Y-108654000D02*
X111590000Y-108654000D01*
X111590000Y-107754000D01*
X111930000Y-107754000D01*
X111930000Y-108654000D01*
G36*
X111930000Y-108654000D02*
G01*
X111590000Y-108654000D01*
X111590000Y-107754000D01*
X111930000Y-107754000D01*
X111930000Y-108654000D01*
G37*
X111280000Y-108654000D02*
X110940000Y-108654000D01*
X110940000Y-108204000D01*
X110630000Y-108204000D01*
X110630000Y-108654000D01*
X110290000Y-108654000D01*
X110290000Y-108204000D01*
X109980000Y-108204000D01*
X109980000Y-108654000D01*
X109640000Y-108654000D01*
X109640000Y-107754000D01*
X111280000Y-107754000D01*
X111280000Y-108654000D01*
G36*
X111280000Y-108654000D02*
G01*
X110940000Y-108654000D01*
X110940000Y-108204000D01*
X110630000Y-108204000D01*
X110630000Y-108654000D01*
X110290000Y-108654000D01*
X110290000Y-108204000D01*
X109980000Y-108204000D01*
X109980000Y-108654000D01*
X109640000Y-108654000D01*
X109640000Y-107754000D01*
X111280000Y-107754000D01*
X111280000Y-108654000D01*
G37*
X109980000Y-105524000D02*
X110290000Y-105524000D01*
X110290000Y-104874000D01*
X110630000Y-104874000D01*
X110630000Y-105524000D01*
X110940000Y-105524000D01*
X110940000Y-104874000D01*
X111280000Y-104874000D01*
X111280000Y-105524000D01*
X111590000Y-105524000D01*
X111590000Y-104874000D01*
X111930000Y-104874000D01*
X111930000Y-107234000D01*
X109640000Y-107234000D01*
X109640000Y-104874000D01*
X109980000Y-104874000D01*
X109980000Y-105524000D01*
G36*
X109980000Y-105524000D02*
G01*
X110290000Y-105524000D01*
X110290000Y-104874000D01*
X110630000Y-104874000D01*
X110630000Y-105524000D01*
X110940000Y-105524000D01*
X110940000Y-104874000D01*
X111280000Y-104874000D01*
X111280000Y-105524000D01*
X111590000Y-105524000D01*
X111590000Y-104874000D01*
X111930000Y-104874000D01*
X111930000Y-107234000D01*
X109640000Y-107234000D01*
X109640000Y-104874000D01*
X109980000Y-104874000D01*
X109980000Y-105524000D01*
G37*
%TO.C,Q2*%
X110365000Y-100644000D02*
X110025000Y-100644000D01*
X110025000Y-99744000D01*
X110365000Y-99744000D01*
X110365000Y-100644000D01*
G36*
X110365000Y-100644000D02*
G01*
X110025000Y-100644000D01*
X110025000Y-99744000D01*
X110365000Y-99744000D01*
X110365000Y-100644000D01*
G37*
X109715000Y-100644000D02*
X109375000Y-100644000D01*
X109375000Y-100194000D01*
X109065000Y-100194000D01*
X109065000Y-100644000D01*
X108725000Y-100644000D01*
X108725000Y-100194000D01*
X108415000Y-100194000D01*
X108415000Y-100644000D01*
X108075000Y-100644000D01*
X108075000Y-99744000D01*
X109715000Y-99744000D01*
X109715000Y-100644000D01*
G36*
X109715000Y-100644000D02*
G01*
X109375000Y-100644000D01*
X109375000Y-100194000D01*
X109065000Y-100194000D01*
X109065000Y-100644000D01*
X108725000Y-100644000D01*
X108725000Y-100194000D01*
X108415000Y-100194000D01*
X108415000Y-100644000D01*
X108075000Y-100644000D01*
X108075000Y-99744000D01*
X109715000Y-99744000D01*
X109715000Y-100644000D01*
G37*
X108415000Y-97514000D02*
X108725000Y-97514000D01*
X108725000Y-96864000D01*
X109065000Y-96864000D01*
X109065000Y-97514000D01*
X109375000Y-97514000D01*
X109375000Y-96864000D01*
X109715000Y-96864000D01*
X109715000Y-97514000D01*
X110025000Y-97514000D01*
X110025000Y-96864000D01*
X110365000Y-96864000D01*
X110365000Y-99224000D01*
X108075000Y-99224000D01*
X108075000Y-96864000D01*
X108415000Y-96864000D01*
X108415000Y-97514000D01*
G36*
X108415000Y-97514000D02*
G01*
X108725000Y-97514000D01*
X108725000Y-96864000D01*
X109065000Y-96864000D01*
X109065000Y-97514000D01*
X109375000Y-97514000D01*
X109375000Y-96864000D01*
X109715000Y-96864000D01*
X109715000Y-97514000D01*
X110025000Y-97514000D01*
X110025000Y-96864000D01*
X110365000Y-96864000D01*
X110365000Y-99224000D01*
X108075000Y-99224000D01*
X108075000Y-96864000D01*
X108415000Y-96864000D01*
X108415000Y-97514000D01*
G37*
%TD*%
D11*
%TO.C,R_bat_sns1*%
X83820000Y-118364000D03*
X81960000Y-118364000D03*
%TD*%
D12*
%TO.C,C7*%
X66040000Y-73580000D03*
D13*
X66040000Y-68580000D03*
%TD*%
D14*
%TO.C,C15*%
X111680000Y-120904000D03*
D13*
X106680000Y-120904000D03*
%TD*%
D15*
%TO.C,C_sys7*%
X41617500Y-82804000D03*
X44742500Y-82804000D03*
%TD*%
D16*
%TO.C,R5*%
X93218000Y-62484000D03*
X88138000Y-62484000D03*
%TD*%
%TO.C,R2*%
X76200000Y-67564000D03*
X81280000Y-67564000D03*
%TD*%
D15*
%TO.C,C_sys5*%
X41617500Y-92964000D03*
X44742500Y-92964000D03*
%TD*%
D17*
%TO.C,C5*%
X50880000Y-71120000D03*
D13*
X55880000Y-71120000D03*
%TD*%
D16*
%TO.C,R17*%
X86360000Y-105664000D03*
X86360000Y-110744000D03*
%TD*%
%TO.C,R18*%
X58547000Y-105791000D03*
X53467000Y-105791000D03*
%TD*%
D18*
%TO.C,J1*%
X44390000Y-47540000D03*
D19*
X41850000Y-47540000D03*
%TD*%
D15*
%TO.C,C_sys4*%
X41617500Y-98044000D03*
X44742500Y-98044000D03*
%TD*%
D12*
%TO.C,C12*%
X91440000Y-123364000D03*
D13*
X91440000Y-118364000D03*
%TD*%
D16*
%TO.C,R10*%
X134620000Y-110744000D03*
X139700000Y-110744000D03*
%TD*%
%TO.C,R13*%
X83820000Y-98044000D03*
X88900000Y-98044000D03*
%TD*%
D20*
%TO.C,J1*%
X25400000Y-86360000D03*
D21*
X25400000Y-88900000D03*
X25400000Y-91440000D03*
X25400000Y-93980000D03*
X25400000Y-96520000D03*
X25400000Y-99060000D03*
X25400000Y-101600000D03*
X25400000Y-104140000D03*
X25400000Y-106680000D03*
X25400000Y-109220000D03*
X25400000Y-111760000D03*
X25400000Y-114300000D03*
X25400000Y-116840000D03*
X25400000Y-119380000D03*
X25400000Y-121920000D03*
X25400000Y-124460000D03*
X25400000Y-127000000D03*
X25400000Y-129540000D03*
X25400000Y-132080000D03*
X25400000Y-134620000D03*
%TD*%
D22*
%TO.C,D2*%
X91440000Y-103124000D03*
X91440000Y-100324000D03*
%TD*%
D16*
%TO.C,R19*%
X76200000Y-84074000D03*
X81280000Y-84074000D03*
%TD*%
D20*
%TO.C,J1*%
X165100000Y-43180000D03*
D21*
X165100000Y-45720000D03*
X165100000Y-48260000D03*
X165100000Y-50800000D03*
X165100000Y-53340000D03*
X165100000Y-55880000D03*
X165100000Y-58420000D03*
X165100000Y-60960000D03*
X165100000Y-63500000D03*
X165100000Y-66040000D03*
X165100000Y-68580000D03*
X165100000Y-71120000D03*
X165100000Y-73660000D03*
X165100000Y-76200000D03*
X165100000Y-78740000D03*
X165100000Y-81280000D03*
X165100000Y-83820000D03*
%TD*%
D16*
%TO.C,R1*%
X86360000Y-67564000D03*
X91440000Y-67564000D03*
%TD*%
D12*
%TO.C,C8*%
X53340000Y-88900000D03*
D13*
X53340000Y-83900000D03*
%TD*%
D14*
%TO.C,C16*%
X68500000Y-98044000D03*
D13*
X63500000Y-98044000D03*
%TD*%
D16*
%TO.C,R12*%
X73660000Y-90424000D03*
X68580000Y-90424000D03*
%TD*%
%TO.C,R6*%
X104140000Y-85344000D03*
X104140000Y-80264000D03*
%TD*%
D20*
%TO.C,J1*%
X25400000Y-43180000D03*
D21*
X25400000Y-45720000D03*
X25400000Y-48260000D03*
X25400000Y-50800000D03*
X25400000Y-53340000D03*
X25400000Y-55880000D03*
X25400000Y-58420000D03*
X25400000Y-60960000D03*
X25400000Y-63500000D03*
X25400000Y-66040000D03*
X25400000Y-68580000D03*
X25400000Y-71120000D03*
X25400000Y-73660000D03*
X25400000Y-76200000D03*
X25400000Y-78740000D03*
X25400000Y-81280000D03*
X25400000Y-83820000D03*
%TD*%
D15*
%TO.C,C_sys2*%
X41617500Y-108204000D03*
X44742500Y-108204000D03*
%TD*%
D17*
%TO.C,C2*%
X111840000Y-77724000D03*
D13*
X116840000Y-77724000D03*
%TD*%
D23*
%TO.C,R_bat_ac1*%
X101600000Y-98974000D03*
X101600000Y-97114000D03*
%TD*%
D24*
%TO.C,L2*%
X146913600Y-57404000D03*
X131216400Y-57404000D03*
%TD*%
D25*
%TO.C,U1*%
X86448900Y-85633433D03*
X86448900Y-86133559D03*
X86448900Y-86633685D03*
X86448900Y-87133811D03*
X86448900Y-87633937D03*
X86448900Y-88134063D03*
X86448900Y-88634189D03*
X86448900Y-89134315D03*
X86448900Y-89634441D03*
X86448900Y-90134567D03*
D26*
X87149559Y-90830400D03*
X87649685Y-90830400D03*
X88149811Y-90830400D03*
X88649937Y-90830400D03*
X89150063Y-90830400D03*
X89650189Y-90830400D03*
X90150315Y-90830400D03*
X90650441Y-90830400D03*
D25*
X91351100Y-90134567D03*
X91351100Y-89634441D03*
X91351100Y-89134315D03*
X91351100Y-88634189D03*
X91351100Y-88134063D03*
X91351100Y-87633937D03*
X91351100Y-87133811D03*
X91351100Y-86633685D03*
X91351100Y-86133559D03*
X91351100Y-85633433D03*
D26*
X90650441Y-84937600D03*
X90150315Y-84937600D03*
X89650189Y-84937600D03*
X89150063Y-84937600D03*
X88649937Y-84937600D03*
X88149811Y-84937600D03*
X87649685Y-84937600D03*
X87149559Y-84937600D03*
D27*
X88900000Y-87884000D03*
%TD*%
D15*
%TO.C,C_sys1*%
X41617500Y-113284000D03*
X44742500Y-113284000D03*
%TD*%
D16*
%TO.C,R11*%
X63500000Y-105664000D03*
X63500000Y-110744000D03*
%TD*%
%TO.C,R9*%
X68580000Y-105664000D03*
X68580000Y-110744000D03*
%TD*%
D15*
%TO.C,C_sys3*%
X41617500Y-103124000D03*
X44742500Y-103124000D03*
%TD*%
D28*
%TO.C,J3*%
X105410000Y-46736000D03*
D29*
X106680000Y-46736000D03*
X107950000Y-46736000D03*
X109220000Y-46736000D03*
X110490000Y-46736000D03*
X111760000Y-46736000D03*
%TD*%
D16*
%TO.C,R4*%
X106680000Y-87884000D03*
X111760000Y-87884000D03*
%TD*%
%TO.C,R14*%
X86360000Y-77724000D03*
X86360000Y-82804000D03*
%TD*%
D12*
%TO.C,C13*%
X76200000Y-110744000D03*
D13*
X76200000Y-105744000D03*
%TD*%
D16*
%TO.C,R3*%
X76200000Y-80264000D03*
X81280000Y-80264000D03*
%TD*%
%TO.C,R20*%
X40640000Y-62484000D03*
X45720000Y-62484000D03*
%TD*%
%TO.C,R16*%
X91440000Y-105664000D03*
X91440000Y-110744000D03*
%TD*%
D30*
%TO.C,J2*%
X156870000Y-128310000D03*
D19*
X159410000Y-128310000D03*
%TD*%
D14*
%TO.C,C4*%
X81396651Y-57150000D03*
D13*
X76396651Y-57150000D03*
%TD*%
D16*
%TO.C,R7*%
X91440000Y-75184000D03*
X91440000Y-80264000D03*
%TD*%
%TO.C,R8*%
X127000000Y-103124000D03*
X127000000Y-98044000D03*
%TD*%
D12*
%TO.C,C10*%
X119380000Y-103044000D03*
D13*
X119380000Y-98044000D03*
%TD*%
D17*
%TO.C,C3*%
X116840000Y-87884000D03*
D13*
X121840000Y-87884000D03*
%TD*%
D22*
%TO.C,D3*%
X86360000Y-103124000D03*
X86360000Y-100324000D03*
%TD*%
D15*
%TO.C,C_sys9*%
X41617500Y-72644000D03*
X44742500Y-72644000D03*
%TD*%
%TO.C,C_sys8*%
X41617500Y-77724000D03*
X44742500Y-77724000D03*
%TD*%
D12*
%TO.C,C6*%
X53340000Y-100504000D03*
D13*
X53340000Y-95504000D03*
%TD*%
D16*
%TO.C,R15*%
X96520000Y-105664000D03*
X96520000Y-110744000D03*
%TD*%
D12*
%TO.C,C9*%
X134700000Y-103124000D03*
D13*
X134700000Y-98124000D03*
%TD*%
D17*
%TO.C,C14*%
X73740000Y-120904000D03*
D13*
X78740000Y-120904000D03*
%TD*%
D15*
%TO.C,C_sys6*%
X41617500Y-87884000D03*
X44742500Y-87884000D03*
%TD*%
D17*
%TO.C,C11*%
X142320000Y-120904000D03*
D13*
X147320000Y-120904000D03*
%TD*%
D14*
%TO.C,C1*%
X55800000Y-59944000D03*
D13*
X50800000Y-59944000D03*
%TD*%
D22*
%TO.C,D1*%
X96520000Y-103124000D03*
X96520000Y-100324000D03*
%TD*%
D20*
%TO.C,J1*%
X165100000Y-86360000D03*
D21*
X165100000Y-88900000D03*
X165100000Y-91440000D03*
X165100000Y-93980000D03*
X165100000Y-96520000D03*
X165100000Y-99060000D03*
X165100000Y-101600000D03*
X165100000Y-104140000D03*
X165100000Y-106680000D03*
X165100000Y-109220000D03*
X165100000Y-111760000D03*
X165100000Y-114300000D03*
X165100000Y-116840000D03*
X165100000Y-119380000D03*
X165100000Y-121920000D03*
X165100000Y-124460000D03*
X165100000Y-127000000D03*
X165100000Y-129540000D03*
X165100000Y-132080000D03*
X165100000Y-134620000D03*
%TD*%
M02*
