%TF.GenerationSoftware,KiCad,Pcbnew,9.0.4*%
%TF.CreationDate,2025-11-20T17:33:31-05:00*%
%TF.ProjectId,LVChargeNEW,4c564368-6172-4676-954e-45572e6b6963,1*%
%TF.SameCoordinates,Original*%
%TF.FileFunction,Paste,Top*%
%TF.FilePolarity,Positive*%
%FSLAX46Y46*%
G04 Gerber Fmt 4.6, Leading zero omitted, Abs format (unit mm)*
G04 Created by KiCad (PCBNEW 9.0.4) date 2025-11-20 17:33:31*
%MOMM*%
%LPD*%
G01*
G04 APERTURE LIST*
%ADD10C,0.010000*%
%ADD11R,3.708400X4.699000*%
%ADD12R,0.254000X0.812800*%
%ADD13R,0.812800X0.254000*%
G04 APERTURE END LIST*
D10*
%TO.C,Q2*%
X91095000Y-72850000D02*
X90855000Y-72850000D01*
X90855000Y-72150000D01*
X91095000Y-72150000D01*
X91095000Y-72850000D01*
G36*
X91095000Y-72850000D02*
G01*
X90855000Y-72850000D01*
X90855000Y-72150000D01*
X91095000Y-72150000D01*
X91095000Y-72850000D01*
G37*
X91095000Y-71350000D02*
X90855000Y-71350000D01*
X90855000Y-69950000D01*
X91095000Y-69950000D01*
X91095000Y-71350000D01*
G36*
X91095000Y-71350000D02*
G01*
X90855000Y-71350000D01*
X90855000Y-69950000D01*
X91095000Y-69950000D01*
X91095000Y-71350000D01*
G37*
X91095000Y-69750000D02*
X90855000Y-69750000D01*
X90855000Y-69150000D01*
X91095000Y-69150000D01*
X91095000Y-69750000D01*
G36*
X91095000Y-69750000D02*
G01*
X90855000Y-69750000D01*
X90855000Y-69150000D01*
X91095000Y-69150000D01*
X91095000Y-69750000D01*
G37*
X90445000Y-72845000D02*
X90205000Y-72845000D01*
X90205000Y-72545000D01*
X90445000Y-72545000D01*
X90445000Y-72845000D01*
G36*
X90445000Y-72845000D02*
G01*
X90205000Y-72845000D01*
X90205000Y-72545000D01*
X90445000Y-72545000D01*
X90445000Y-72845000D01*
G37*
X90445000Y-69750000D02*
X90205000Y-69750000D01*
X90205000Y-69150000D01*
X90445000Y-69150000D01*
X90445000Y-69750000D01*
G36*
X90445000Y-69750000D02*
G01*
X90205000Y-69750000D01*
X90205000Y-69150000D01*
X90445000Y-69150000D01*
X90445000Y-69750000D01*
G37*
X90445000Y-72395000D02*
X89775000Y-72395000D01*
X89775000Y-72045000D01*
X90445000Y-72045000D01*
X90445000Y-72395000D01*
G36*
X90445000Y-72395000D02*
G01*
X89775000Y-72395000D01*
X89775000Y-72045000D01*
X90445000Y-72045000D01*
X90445000Y-72395000D01*
G37*
X89795000Y-72845000D02*
X89555000Y-72845000D01*
X89555000Y-72545000D01*
X89795000Y-72545000D01*
X89795000Y-72845000D01*
G36*
X89795000Y-72845000D02*
G01*
X89555000Y-72845000D01*
X89555000Y-72545000D01*
X89795000Y-72545000D01*
X89795000Y-72845000D01*
G37*
X89795000Y-69750000D02*
X89555000Y-69750000D01*
X89555000Y-69150000D01*
X89795000Y-69150000D01*
X89795000Y-69750000D01*
G36*
X89795000Y-69750000D02*
G01*
X89555000Y-69750000D01*
X89555000Y-69150000D01*
X89795000Y-69150000D01*
X89795000Y-69750000D01*
G37*
X90545000Y-71350000D02*
X89455000Y-71350000D01*
X89455000Y-69950000D01*
X90545000Y-69950000D01*
X90545000Y-71350000D01*
G36*
X90545000Y-71350000D02*
G01*
X89455000Y-71350000D01*
X89455000Y-69950000D01*
X90545000Y-69950000D01*
X90545000Y-71350000D01*
G37*
X89145000Y-72845000D02*
X88905000Y-72845000D01*
X88905000Y-72545000D01*
X89145000Y-72545000D01*
X89145000Y-72845000D01*
G36*
X89145000Y-72845000D02*
G01*
X88905000Y-72845000D01*
X88905000Y-72545000D01*
X89145000Y-72545000D01*
X89145000Y-72845000D01*
G37*
X89575000Y-72395000D02*
X88905000Y-72395000D01*
X88905000Y-72045000D01*
X89575000Y-72045000D01*
X89575000Y-72395000D01*
G36*
X89575000Y-72395000D02*
G01*
X88905000Y-72395000D01*
X88905000Y-72045000D01*
X89575000Y-72045000D01*
X89575000Y-72395000D01*
G37*
X89145000Y-71350000D02*
X88905000Y-71350000D01*
X88905000Y-69950000D01*
X89145000Y-69950000D01*
X89145000Y-71350000D01*
G36*
X89145000Y-71350000D02*
G01*
X88905000Y-71350000D01*
X88905000Y-69950000D01*
X89145000Y-69950000D01*
X89145000Y-71350000D01*
G37*
X89145000Y-69750000D02*
X88905000Y-69750000D01*
X88905000Y-69150000D01*
X89145000Y-69150000D01*
X89145000Y-69750000D01*
G36*
X89145000Y-69750000D02*
G01*
X88905000Y-69750000D01*
X88905000Y-69150000D01*
X89145000Y-69150000D01*
X89145000Y-69750000D01*
G37*
%TD*%
D11*
%TO.C,U1*%
X71451100Y-71250567D03*
D12*
X69700659Y-68304167D03*
X70200785Y-68304167D03*
X70700911Y-68304167D03*
X71201037Y-68304167D03*
X71701163Y-68304167D03*
X72201289Y-68304167D03*
X72701415Y-68304167D03*
X73201541Y-68304167D03*
D13*
X73902200Y-69000000D03*
X73902200Y-69500126D03*
X73902200Y-70000252D03*
X73902200Y-70500378D03*
X73902200Y-71000504D03*
X73902200Y-71500630D03*
X73902200Y-72000756D03*
X73902200Y-72500882D03*
X73902200Y-73001008D03*
X73902200Y-73501134D03*
D12*
X73201541Y-74196967D03*
X72701415Y-74196967D03*
X72201289Y-74196967D03*
X71701163Y-74196967D03*
X71201037Y-74196967D03*
X70700911Y-74196967D03*
X70200785Y-74196967D03*
X69700659Y-74196967D03*
D13*
X69000000Y-73501134D03*
X69000000Y-73001008D03*
X69000000Y-72500882D03*
X69000000Y-72000756D03*
X69000000Y-71500630D03*
X69000000Y-71000504D03*
X69000000Y-70500378D03*
X69000000Y-70000252D03*
X69000000Y-69500126D03*
X69000000Y-69000000D03*
%TD*%
M02*
