%TF.GenerationSoftware,KiCad,Pcbnew,9.0.5*%
%TF.CreationDate,2025-11-14T12:07:08-05:00*%
%TF.ProjectId,LVChargeNEW,4c564368-6172-4676-954e-45572e6b6963,1*%
%TF.SameCoordinates,Original*%
%TF.FileFunction,Copper,L1,Top*%
%TF.FilePolarity,Positive*%
%FSLAX46Y46*%
G04 Gerber Fmt 4.6, Leading zero omitted, Abs format (unit mm)*
G04 Created by KiCad (PCBNEW 9.0.5) date 2025-11-14 12:07:08*
%MOMM*%
%LPD*%
G01*
G04 APERTURE LIST*
G04 Aperture macros list*
%AMRoundRect*
0 Rectangle with rounded corners*
0 $1 Rounding radius*
0 $2 $3 $4 $5 $6 $7 $8 $9 X,Y pos of 4 corners*
0 Add a 4 corners polygon primitive as box body*
4,1,4,$2,$3,$4,$5,$6,$7,$8,$9,$2,$3,0*
0 Add four circle primitives for the rounded corners*
1,1,$1+$1,$2,$3*
1,1,$1+$1,$4,$5*
1,1,$1+$1,$6,$7*
1,1,$1+$1,$8,$9*
0 Add four rect primitives between the rounded corners*
20,1,$1+$1,$2,$3,$4,$5,0*
20,1,$1+$1,$4,$5,$6,$7,0*
20,1,$1+$1,$6,$7,$8,$9,0*
20,1,$1+$1,$8,$9,$2,$3,0*%
G04 Aperture macros list end*
%TA.AperFunction,SMDPad,CuDef*%
%ADD10R,0.970000X1.380000*%
%TD*%
%TA.AperFunction,ComponentPad*%
%ADD11RoundRect,0.250000X0.550000X-0.550000X0.550000X0.550000X-0.550000X0.550000X-0.550000X-0.550000X0*%
%TD*%
%TA.AperFunction,ComponentPad*%
%ADD12C,1.600000*%
%TD*%
%TA.AperFunction,ComponentPad*%
%ADD13RoundRect,0.250000X0.550000X0.550000X-0.550000X0.550000X-0.550000X-0.550000X0.550000X-0.550000X0*%
%TD*%
%TA.AperFunction,SMDPad,CuDef*%
%ADD14R,1.000000X1.740000*%
%TD*%
%TA.AperFunction,SMDPad,CuDef*%
%ADD15R,1.000000X0.440000*%
%TD*%
%TA.AperFunction,SMDPad,CuDef*%
%ADD16R,2.460000X2.390000*%
%TD*%
%TA.AperFunction,SMDPad,CuDef*%
%ADD17RoundRect,0.250000X-0.412500X-1.100000X0.412500X-1.100000X0.412500X1.100000X-0.412500X1.100000X0*%
%TD*%
%TA.AperFunction,ComponentPad*%
%ADD18C,1.400000*%
%TD*%
%TA.AperFunction,ComponentPad*%
%ADD19RoundRect,0.250000X-0.550000X-0.550000X0.550000X-0.550000X0.550000X0.550000X-0.550000X0.550000X0*%
%TD*%
%TA.AperFunction,ComponentPad*%
%ADD20RoundRect,0.250000X0.750000X0.750000X-0.750000X0.750000X-0.750000X-0.750000X0.750000X-0.750000X0*%
%TD*%
%TA.AperFunction,ComponentPad*%
%ADD21C,2.000000*%
%TD*%
%TA.AperFunction,ComponentPad*%
%ADD22R,1.700000X1.700000*%
%TD*%
%TA.AperFunction,ComponentPad*%
%ADD23O,1.700000X1.700000*%
%TD*%
%TA.AperFunction,SMDPad,CuDef*%
%ADD24RoundRect,0.250000X0.625000X-0.375000X0.625000X0.375000X-0.625000X0.375000X-0.625000X-0.375000X0*%
%TD*%
%TA.AperFunction,SMDPad,CuDef*%
%ADD25R,1.740000X1.000000*%
%TD*%
%TA.AperFunction,SMDPad,CuDef*%
%ADD26R,0.440000X1.000000*%
%TD*%
%TA.AperFunction,SMDPad,CuDef*%
%ADD27R,2.390000X2.460000*%
%TD*%
%TA.AperFunction,SMDPad,CuDef*%
%ADD28R,1.380000X0.970000*%
%TD*%
%TA.AperFunction,SMDPad,CuDef*%
%ADD29R,2.921000X12.141200*%
%TD*%
%TA.AperFunction,SMDPad,CuDef*%
%ADD30R,0.812800X0.254000*%
%TD*%
%TA.AperFunction,SMDPad,CuDef*%
%ADD31R,0.254000X0.812800*%
%TD*%
%TA.AperFunction,SMDPad,CuDef*%
%ADD32R,3.708400X4.699000*%
%TD*%
%TA.AperFunction,ComponentPad*%
%ADD33R,1.000000X1.000000*%
%TD*%
%TA.AperFunction,ComponentPad*%
%ADD34C,1.000000*%
%TD*%
%TA.AperFunction,ComponentPad*%
%ADD35RoundRect,0.250000X-0.750000X-0.750000X0.750000X-0.750000X0.750000X0.750000X-0.750000X0.750000X0*%
%TD*%
%TA.AperFunction,ViaPad*%
%ADD36C,0.600000*%
%TD*%
%TA.AperFunction,Conductor*%
%ADD37C,0.200000*%
%TD*%
%TA.AperFunction,Conductor*%
%ADD38C,0.600000*%
%TD*%
%TA.AperFunction,Conductor*%
%ADD39C,0.400000*%
%TD*%
G04 APERTURE END LIST*
D10*
%TO.P,R_bat_sns1,2*%
%TO.N,Net-(C12-Pad2)*%
X83820000Y-118364000D03*
%TO.P,R_bat_sns1,1*%
%TO.N,Batt+*%
X81960000Y-118364000D03*
%TD*%
D11*
%TO.P,C7,1*%
%TO.N,Net-(U1-ACN)*%
X66040000Y-73580000D03*
D12*
%TO.P,C7,2*%
%TO.N,Batt-*%
X66040000Y-68580000D03*
%TD*%
D13*
%TO.P,C15,1*%
%TO.N,Net-(U1-SRP)*%
X111680000Y-120904000D03*
D12*
%TO.P,C15,2*%
%TO.N,Net-(U1-SRN)*%
X106680000Y-120904000D03*
%TD*%
D14*
%TO.P,Q4,1*%
%TO.N,Batt-*%
X125550000Y-118039000D03*
D15*
%TO.P,Q4,4*%
%TO.N,Net-(U1-LODRV2)*%
X125550000Y-119339000D03*
D16*
%TO.P,Q4,5*%
%TO.N,Net-(U1-SW2)*%
X127700000Y-118364000D03*
%TD*%
D17*
%TO.P,C_sys7,1*%
%TO.N,Net-(C_sys1-Pad1)*%
X41617500Y-82804000D03*
%TO.P,C_sys7,2*%
%TO.N,Batt+*%
X44742500Y-82804000D03*
%TD*%
D18*
%TO.P,R5,1*%
%TO.N,Buck Input*%
X93218000Y-62484000D03*
%TO.P,R5,2*%
%TO.N,Net-(C4-Pad1)*%
X88138000Y-62484000D03*
%TD*%
%TO.P,R2,1*%
%TO.N,Net-(U1-ACOV)*%
X76200000Y-67564000D03*
%TO.P,R2,2*%
%TO.N,Net-(U1-ACUV)*%
X81280000Y-67564000D03*
%TD*%
D17*
%TO.P,C_sys5,1*%
%TO.N,Net-(C_sys1-Pad1)*%
X41617500Y-92964000D03*
%TO.P,C_sys5,2*%
%TO.N,Batt+*%
X44742500Y-92964000D03*
%TD*%
D19*
%TO.P,C5,1*%
%TO.N,Buck Input*%
X50880000Y-71120000D03*
D12*
%TO.P,C5,2*%
%TO.N,Batt-*%
X55880000Y-71120000D03*
%TD*%
D18*
%TO.P,R17,1*%
%TO.N,Net-(D3-K)*%
X86360000Y-105664000D03*
%TO.P,R17,2*%
%TO.N,Net-(U1-\u002APG)*%
X86360000Y-110744000D03*
%TD*%
%TO.P,R18,1*%
%TO.N,Net-(U1-TS)*%
X58547000Y-105791000D03*
%TO.P,R18,2*%
%TO.N,Batt-*%
X53467000Y-105791000D03*
%TD*%
D20*
%TO.P,J1,1,Pin_1*%
%TO.N,Batt-*%
X44390000Y-47540000D03*
D21*
%TO.P,J1,2,Pin_2*%
%TO.N,Batt+*%
X41850000Y-47540000D03*
%TD*%
D17*
%TO.P,C_sys4,1*%
%TO.N,Net-(C_sys1-Pad1)*%
X41617500Y-98044000D03*
%TO.P,C_sys4,2*%
%TO.N,Batt+*%
X44742500Y-98044000D03*
%TD*%
D11*
%TO.P,C12,1*%
%TO.N,Batt-*%
X91440000Y-123364000D03*
D12*
%TO.P,C12,2*%
%TO.N,Net-(C12-Pad2)*%
X91440000Y-118364000D03*
%TD*%
D18*
%TO.P,R10,1*%
%TO.N,Net-(C12-Pad2)*%
X134620000Y-110744000D03*
%TO.P,R10,2*%
%TO.N,Net-(U1-SRP)*%
X139700000Y-110744000D03*
%TD*%
%TO.P,R13,1*%
%TO.N,Net-(U1-FBG)*%
X83820000Y-98044000D03*
%TO.P,R13,2*%
%TO.N,Net-(U1-FB)*%
X88900000Y-98044000D03*
%TD*%
D22*
%TO.P,J1,1,1*%
%TO.N,N/C*%
X25400000Y-86360000D03*
D23*
%TO.P,J1,2,2*%
X25400000Y-88900000D03*
%TO.P,J1,3,3*%
X25400000Y-91440000D03*
%TO.P,J1,4,4*%
X25400000Y-93980000D03*
%TO.P,J1,5,5*%
X25400000Y-96520000D03*
%TO.P,J1,6,6*%
X25400000Y-99060000D03*
%TO.P,J1,7,7*%
X25400000Y-101600000D03*
%TO.P,J1,8,8*%
X25400000Y-104140000D03*
%TO.P,J1,9,9*%
X25400000Y-106680000D03*
%TO.P,J1,10,10*%
X25400000Y-109220000D03*
%TO.P,J1,11,11*%
X25400000Y-111760000D03*
%TO.P,J1,12,12*%
X25400000Y-114300000D03*
%TO.P,J1,13,13*%
X25400000Y-116840000D03*
%TO.P,J1,14,14*%
X25400000Y-119380000D03*
%TO.P,J1,15,15*%
X25400000Y-121920000D03*
%TO.P,J1,16,16*%
X25400000Y-124460000D03*
%TO.P,J1,17,17*%
X25400000Y-127000000D03*
%TO.P,J1,18,18*%
X25400000Y-129540000D03*
%TO.P,J1,19,19*%
X25400000Y-132080000D03*
%TO.P,J1,20,20*%
X25400000Y-134620000D03*
%TD*%
D24*
%TO.P,D2,1,K*%
%TO.N,Net-(D2-K)*%
X91440000Y-103124000D03*
%TO.P,D2,2,A*%
%TO.N,Net-(D1-A)*%
X91440000Y-100324000D03*
%TD*%
D18*
%TO.P,R19,1*%
%TO.N,Net-(U1-ICHG)*%
X76200000Y-84074000D03*
%TO.P,R19,2*%
%TO.N,Batt-*%
X81280000Y-84074000D03*
%TD*%
D22*
%TO.P,J1,1,1*%
%TO.N,N/C*%
X165100000Y-43180000D03*
D23*
%TO.P,J1,2,2*%
X165100000Y-45720000D03*
%TO.P,J1,3,3*%
X165100000Y-48260000D03*
%TO.P,J1,4,4*%
X165100000Y-50800000D03*
%TO.P,J1,5,5*%
X165100000Y-53340000D03*
%TO.P,J1,6,6*%
X165100000Y-55880000D03*
%TO.P,J1,7,7*%
X165100000Y-58420000D03*
%TO.P,J1,8,8*%
X165100000Y-60960000D03*
%TO.P,J1,9,9*%
X165100000Y-63500000D03*
%TO.P,J1,10,10*%
X165100000Y-66040000D03*
%TO.P,J1,11,11*%
X165100000Y-68580000D03*
%TO.P,J1,12,12*%
X165100000Y-71120000D03*
%TO.P,J1,13,13*%
X165100000Y-73660000D03*
%TO.P,J1,14,14*%
X165100000Y-76200000D03*
%TO.P,J1,15,15*%
X165100000Y-78740000D03*
%TO.P,J1,16,16*%
X165100000Y-81280000D03*
%TO.P,J1,17,17*%
X165100000Y-83820000D03*
%TD*%
D14*
%TO.P,Q3,1*%
%TO.N,Net-(U1-SW2)*%
X142630000Y-100259000D03*
D15*
%TO.P,Q3,4*%
%TO.N,Net-(U1-HIDRV2)*%
X142630000Y-101559000D03*
D16*
%TO.P,Q3,5*%
%TO.N,Net-(C12-Pad2)*%
X144780000Y-100584000D03*
%TD*%
D18*
%TO.P,R1,1*%
%TO.N,Net-(U1-ACUV)*%
X86360000Y-67564000D03*
%TO.P,R1,2*%
%TO.N,Buck Input*%
X91440000Y-67564000D03*
%TD*%
D11*
%TO.P,C8,1*%
%TO.N,Net-(U1-ACN)*%
X53340000Y-88900000D03*
D12*
%TO.P,C8,2*%
%TO.N,Net-(U1-ACP)*%
X53340000Y-83900000D03*
%TD*%
D13*
%TO.P,C16,1*%
%TO.N,Batt-*%
X68500000Y-98044000D03*
D12*
%TO.P,C16,2*%
%TO.N,Batt+*%
X63500000Y-98044000D03*
%TD*%
D18*
%TO.P,R12,1*%
%TO.N,Net-(U1-FB)*%
X73660000Y-90424000D03*
%TO.P,R12,2*%
%TO.N,Batt+*%
X68580000Y-90424000D03*
%TD*%
D25*
%TO.P,Q1,1*%
%TO.N,Net-(U1-SW1)*%
X110460000Y-108204000D03*
D26*
%TO.P,Q1,4*%
%TO.N,Net-(U1-HIDRV1)*%
X111760000Y-108204000D03*
D27*
%TO.P,Q1,5*%
%TO.N,Net-(C9-Pad2)*%
X110785000Y-106054000D03*
%TD*%
D18*
%TO.P,R6,1*%
%TO.N,Net-(D1-A)*%
X104140000Y-85344000D03*
%TO.P,R6,2*%
%TO.N,Net-(U1-TS)*%
X104140000Y-80264000D03*
%TD*%
D22*
%TO.P,J1,1,1*%
%TO.N,N/C*%
X25400000Y-43180000D03*
D23*
%TO.P,J1,2,2*%
X25400000Y-45720000D03*
%TO.P,J1,3,3*%
X25400000Y-48260000D03*
%TO.P,J1,4,4*%
X25400000Y-50800000D03*
%TO.P,J1,5,5*%
X25400000Y-53340000D03*
%TO.P,J1,6,6*%
X25400000Y-55880000D03*
%TO.P,J1,7,7*%
X25400000Y-58420000D03*
%TO.P,J1,8,8*%
X25400000Y-60960000D03*
%TO.P,J1,9,9*%
X25400000Y-63500000D03*
%TO.P,J1,10,10*%
X25400000Y-66040000D03*
%TO.P,J1,11,11*%
X25400000Y-68580000D03*
%TO.P,J1,12,12*%
X25400000Y-71120000D03*
%TO.P,J1,13,13*%
X25400000Y-73660000D03*
%TO.P,J1,14,14*%
X25400000Y-76200000D03*
%TO.P,J1,15,15*%
X25400000Y-78740000D03*
%TO.P,J1,16,16*%
X25400000Y-81280000D03*
%TO.P,J1,17,17*%
X25400000Y-83820000D03*
%TD*%
D17*
%TO.P,C_sys2,1*%
%TO.N,Net-(C_sys1-Pad1)*%
X41617500Y-108204000D03*
%TO.P,C_sys2,2*%
%TO.N,Batt+*%
X44742500Y-108204000D03*
%TD*%
D19*
%TO.P,C2,1*%
%TO.N,Net-(U1-DRV_SUP)*%
X111840000Y-77724000D03*
D12*
%TO.P,C2,2*%
%TO.N,Batt-*%
X116840000Y-77724000D03*
%TD*%
D28*
%TO.P,R_bat_ac1,1*%
%TO.N,Net-(C9-Pad2)*%
X101600000Y-98974000D03*
%TO.P,R_bat_ac1,2*%
%TO.N,Buck Input*%
X101600000Y-97114000D03*
%TD*%
D29*
%TO.P,L2,1,1*%
%TO.N,Net-(U1-SW2)*%
X146913600Y-57404000D03*
%TO.P,L2,2,2*%
%TO.N,Net-(U1-SW1)*%
X131216400Y-57404000D03*
%TD*%
D30*
%TO.P,U1,1,SCL*%
%TO.N,SCL*%
X86448900Y-85633433D03*
%TO.P,U1,2,SDA*%
%TO.N,SDL*%
X86448900Y-86133559D03*
%TO.P,U1,3,\u002AINT*%
%TO.N,INT*%
X86448900Y-86633685D03*
%TO.P,U1,4,STAT1*%
%TO.N,Net-(U1-STAT1)*%
X86448900Y-87133811D03*
%TO.P,U1,5,STAT2*%
%TO.N,Net-(U1-STAT2)*%
X86448900Y-87633937D03*
%TO.P,U1,6,\u002APG*%
%TO.N,Net-(U1-\u002APG)*%
X86448900Y-88134063D03*
%TO.P,U1,7,\u002ACE*%
%TO.N,CE*%
X86448900Y-88634189D03*
%TO.P,U1,8,TS*%
%TO.N,Net-(U1-TS)*%
X86448900Y-89134315D03*
%TO.P,U1,9,ICHG*%
%TO.N,Net-(U1-ICHG)*%
X86448900Y-89634441D03*
%TO.P,U1,10,ILIM_HIZ*%
%TO.N,Batt-*%
X86448900Y-90134567D03*
D31*
%TO.P,U1,11,FBG*%
%TO.N,Net-(U1-FBG)*%
X87149559Y-90830400D03*
%TO.P,U1,12,FB*%
%TO.N,Net-(U1-FB)*%
X87649685Y-90830400D03*
%TO.P,U1,13,SRN*%
%TO.N,Net-(U1-SRN)*%
X88149811Y-90830400D03*
%TO.P,U1,14,SRP*%
%TO.N,Net-(U1-SRP)*%
X88649937Y-90830400D03*
%TO.P,U1,15,NC*%
%TO.N,unconnected-(U1-NC-Pad15)*%
X89150063Y-90830400D03*
%TO.P,U1,16,NC*%
%TO.N,unconnected-(U1-NC-Pad16)*%
X89650189Y-90830400D03*
%TO.P,U1,17,PGND*%
%TO.N,Batt-*%
X90150315Y-90830400D03*
%TO.P,U1,18,SW2*%
%TO.N,Net-(U1-SW2)*%
X90650441Y-90830400D03*
D30*
%TO.P,U1,19,HIDRV2*%
%TO.N,Net-(U1-HIDRV2)*%
X91351100Y-90134567D03*
%TO.P,U1,20,BTST2*%
%TO.N,Net-(U1-BTST2)*%
X91351100Y-89634441D03*
%TO.P,U1,21,LODRV2*%
%TO.N,Net-(U1-LODRV2)*%
X91351100Y-89134315D03*
%TO.P,U1,22,PGND*%
%TO.N,Batt-*%
X91351100Y-88634189D03*
%TO.P,U1,23,DRV_SUP*%
%TO.N,Net-(U1-DRV_SUP)*%
X91351100Y-88134063D03*
%TO.P,U1,24,REGN*%
%TO.N,Net-(D1-A)*%
X91351100Y-87633937D03*
%TO.P,U1,25,LODRV1*%
%TO.N,Net-(U1-LODRV1)*%
X91351100Y-87133811D03*
%TO.P,U1,26,BTST1*%
%TO.N,Net-(U1-BTST1)*%
X91351100Y-86633685D03*
%TO.P,U1,27,HIDRV1*%
%TO.N,Net-(U1-HIDRV1)*%
X91351100Y-86133559D03*
%TO.P,U1,28,SW1*%
%TO.N,Net-(U1-SW1)*%
X91351100Y-85633433D03*
D31*
%TO.P,U1,29,ACN*%
%TO.N,Net-(U1-ACN)*%
X90650441Y-84937600D03*
%TO.P,U1,30,ACP*%
%TO.N,Net-(U1-ACP)*%
X90150315Y-84937600D03*
%TO.P,U1,31,NC*%
%TO.N,unconnected-(U1-NC-Pad31)*%
X89650189Y-84937600D03*
%TO.P,U1,32,VAC*%
%TO.N,unconnected-(U1-VAC-Pad32)*%
X89150063Y-84937600D03*
%TO.P,U1,33,VAC*%
%TO.N,Buck Input*%
X88649937Y-84937600D03*
%TO.P,U1,34,ACUV*%
%TO.N,Net-(U1-ACUV)*%
X88149811Y-84937600D03*
%TO.P,U1,35,ACOV*%
%TO.N,Net-(U1-ACOV)*%
X87649685Y-84937600D03*
%TO.P,U1,36,FSW_SYNC*%
%TO.N,Net-(U1-FSW_SYNC)*%
X87149559Y-84937600D03*
D32*
%TO.P,U1,37,EPAD*%
%TO.N,Batt-*%
X88900000Y-87884000D03*
%TD*%
D17*
%TO.P,C_sys1,1*%
%TO.N,Net-(C_sys1-Pad1)*%
X41617500Y-113284000D03*
%TO.P,C_sys1,2*%
%TO.N,Batt+*%
X44742500Y-113284000D03*
%TD*%
D18*
%TO.P,R11,1*%
%TO.N,Batt+*%
X63500000Y-105664000D03*
%TO.P,R11,2*%
%TO.N,Net-(U1-SRN)*%
X63500000Y-110744000D03*
%TD*%
%TO.P,R9,1*%
%TO.N,Net-(U1-TS)*%
X68580000Y-105664000D03*
%TO.P,R9,2*%
%TO.N,Batt-*%
X68580000Y-110744000D03*
%TD*%
D17*
%TO.P,C_sys3,1*%
%TO.N,Net-(C_sys1-Pad1)*%
X41617500Y-103124000D03*
%TO.P,C_sys3,2*%
%TO.N,Batt+*%
X44742500Y-103124000D03*
%TD*%
D33*
%TO.P,J3,1,Pin_1*%
%TO.N,Batt-*%
X105410000Y-46736000D03*
D34*
%TO.P,J3,2,Pin_2*%
%TO.N,CE*%
X106680000Y-46736000D03*
%TO.P,J3,3,Pin_3*%
%TO.N,INT*%
X107950000Y-46736000D03*
%TO.P,J3,4,Pin_4*%
%TO.N,SDL*%
X109220000Y-46736000D03*
%TO.P,J3,5,Pin_5*%
%TO.N,SCL*%
X110490000Y-46736000D03*
%TO.P,J3,6*%
%TO.N,N/C*%
X111760000Y-46736000D03*
%TD*%
D18*
%TO.P,R4,1*%
%TO.N,Net-(U1-DRV_SUP)*%
X106680000Y-87884000D03*
%TO.P,R4,2*%
%TO.N,Net-(D1-A)*%
X111760000Y-87884000D03*
%TD*%
%TO.P,R14,1*%
%TO.N,Batt-*%
X86360000Y-77724000D03*
%TO.P,R14,2*%
%TO.N,Net-(U1-FSW_SYNC)*%
X86360000Y-82804000D03*
%TD*%
D11*
%TO.P,C13,1*%
%TO.N,Net-(U1-SRP)*%
X76200000Y-110744000D03*
D12*
%TO.P,C13,2*%
%TO.N,Batt-*%
X76200000Y-105744000D03*
%TD*%
D18*
%TO.P,R3,1*%
%TO.N,Net-(U1-ACOV)*%
X76200000Y-80264000D03*
%TO.P,R3,2*%
%TO.N,Batt-*%
X81280000Y-80264000D03*
%TD*%
%TO.P,R20,1*%
%TO.N,Net-(C_sys1-Pad1)*%
X40640000Y-62484000D03*
%TO.P,R20,2*%
%TO.N,Batt-*%
X45720000Y-62484000D03*
%TD*%
%TO.P,R16,1*%
%TO.N,Net-(D2-K)*%
X91440000Y-105664000D03*
%TO.P,R16,2*%
%TO.N,Net-(U1-STAT2)*%
X91440000Y-110744000D03*
%TD*%
D35*
%TO.P,J2,1,Pin_1*%
%TO.N,Batt-*%
X156870000Y-128310000D03*
D21*
%TO.P,J2,2,Pin_2*%
%TO.N,Buck Input*%
X159410000Y-128310000D03*
%TD*%
D13*
%TO.P,C4,1*%
%TO.N,Net-(C4-Pad1)*%
X81396651Y-57150000D03*
D12*
%TO.P,C4,2*%
%TO.N,Batt-*%
X76396651Y-57150000D03*
%TD*%
D18*
%TO.P,R7,1*%
%TO.N,Buck Input*%
X91440000Y-75184000D03*
%TO.P,R7,2*%
%TO.N,Net-(U1-ACP)*%
X91440000Y-80264000D03*
%TD*%
%TO.P,R8,1*%
%TO.N,Net-(C9-Pad2)*%
X127000000Y-103124000D03*
%TO.P,R8,2*%
%TO.N,Net-(U1-ACN)*%
X127000000Y-98044000D03*
%TD*%
D11*
%TO.P,C10,1*%
%TO.N,Net-(U1-BTST1)*%
X119380000Y-103044000D03*
D12*
%TO.P,C10,2*%
%TO.N,Net-(U1-SW1)*%
X119380000Y-98044000D03*
%TD*%
D19*
%TO.P,C3,1*%
%TO.N,Net-(D1-A)*%
X116840000Y-87884000D03*
D12*
%TO.P,C3,2*%
%TO.N,Batt-*%
X121840000Y-87884000D03*
%TD*%
D24*
%TO.P,D3,1,K*%
%TO.N,Net-(D3-K)*%
X86360000Y-103124000D03*
%TO.P,D3,2,A*%
%TO.N,Net-(D1-A)*%
X86360000Y-100324000D03*
%TD*%
D17*
%TO.P,C_sys9,1*%
%TO.N,Net-(C_sys1-Pad1)*%
X41617500Y-72644000D03*
%TO.P,C_sys9,2*%
%TO.N,Batt+*%
X44742500Y-72644000D03*
%TD*%
%TO.P,C_sys8,1*%
%TO.N,Net-(C_sys1-Pad1)*%
X41617500Y-77724000D03*
%TO.P,C_sys8,2*%
%TO.N,Batt+*%
X44742500Y-77724000D03*
%TD*%
D11*
%TO.P,C6,1*%
%TO.N,Batt-*%
X53340000Y-100504000D03*
D12*
%TO.P,C6,2*%
%TO.N,Net-(U1-ACP)*%
X53340000Y-95504000D03*
%TD*%
D18*
%TO.P,R15,1*%
%TO.N,Net-(D1-K)*%
X96520000Y-105664000D03*
%TO.P,R15,2*%
%TO.N,Net-(U1-STAT1)*%
X96520000Y-110744000D03*
%TD*%
D11*
%TO.P,C9,1*%
%TO.N,Batt-*%
X134700000Y-103124000D03*
D12*
%TO.P,C9,2*%
%TO.N,Net-(C9-Pad2)*%
X134700000Y-98124000D03*
%TD*%
D25*
%TO.P,Q2,1*%
%TO.N,Batt-*%
X108895000Y-100194000D03*
D26*
%TO.P,Q2,4*%
%TO.N,Net-(U1-LODRV1)*%
X110195000Y-100194000D03*
D27*
%TO.P,Q2,5*%
%TO.N,Net-(U1-SW1)*%
X109220000Y-98044000D03*
%TD*%
D19*
%TO.P,C14,1*%
%TO.N,Batt-*%
X73740000Y-120904000D03*
D12*
%TO.P,C14,2*%
%TO.N,Net-(U1-SRN)*%
X78740000Y-120904000D03*
%TD*%
D17*
%TO.P,C_sys6,1*%
%TO.N,Net-(C_sys1-Pad1)*%
X41617500Y-87884000D03*
%TO.P,C_sys6,2*%
%TO.N,Batt+*%
X44742500Y-87884000D03*
%TD*%
D19*
%TO.P,C11,1*%
%TO.N,Net-(U1-BTST2)*%
X142320000Y-120904000D03*
D12*
%TO.P,C11,2*%
%TO.N,Net-(U1-SW2)*%
X147320000Y-120904000D03*
%TD*%
D13*
%TO.P,C1,1*%
%TO.N,Batt-*%
X55800000Y-59944000D03*
D12*
%TO.P,C1,2*%
%TO.N,Buck Input*%
X50800000Y-59944000D03*
%TD*%
D24*
%TO.P,D1,1,K*%
%TO.N,Net-(D1-K)*%
X96520000Y-103124000D03*
%TO.P,D1,2,A*%
%TO.N,Net-(D1-A)*%
X96520000Y-100324000D03*
%TD*%
D22*
%TO.P,J1,1,1*%
%TO.N,N/C*%
X165100000Y-86360000D03*
D23*
%TO.P,J1,2,2*%
X165100000Y-88900000D03*
%TO.P,J1,3,3*%
X165100000Y-91440000D03*
%TO.P,J1,4,4*%
X165100000Y-93980000D03*
%TO.P,J1,5,5*%
X165100000Y-96520000D03*
%TO.P,J1,6,6*%
X165100000Y-99060000D03*
%TO.P,J1,7,7*%
X165100000Y-101600000D03*
%TO.P,J1,8,8*%
X165100000Y-104140000D03*
%TO.P,J1,9,9*%
X165100000Y-106680000D03*
%TO.P,J1,10,10*%
X165100000Y-109220000D03*
%TO.P,J1,11,11*%
X165100000Y-111760000D03*
%TO.P,J1,12,12*%
X165100000Y-114300000D03*
%TO.P,J1,13,13*%
X165100000Y-116840000D03*
%TO.P,J1,14,14*%
X165100000Y-119380000D03*
%TO.P,J1,15,15*%
X165100000Y-121920000D03*
%TO.P,J1,16,16*%
X165100000Y-124460000D03*
%TO.P,J1,17,17*%
X165100000Y-127000000D03*
%TO.P,J1,18,18*%
X165100000Y-129540000D03*
%TO.P,J1,19,19*%
X165100000Y-132080000D03*
%TO.P,J1,20,20*%
X165100000Y-134620000D03*
%TD*%
D36*
%TO.N,Buck Input*%
X93980000Y-91831400D03*
X72009000Y-52781200D03*
X93218000Y-56388000D03*
%TO.N,Batt-*%
X109220000Y-112014000D03*
X30734000Y-56642000D03*
X98352186Y-75891814D03*
X100330000Y-73914000D03*
X77978000Y-128016000D03*
%TO.N,Net-(D1-A)*%
X101600000Y-87534063D03*
X91440000Y-95504000D03*
%TO.N,Net-(U1-ACN)*%
X104140000Y-70104000D03*
X96480152Y-80224152D03*
%TO.N,Net-(C9-Pad2)*%
X124460000Y-108204000D03*
X126581835Y-110325835D03*
X101600000Y-100584000D03*
X110490000Y-103124000D03*
%TO.N,Net-(U1-SW1)*%
X112649000Y-96393000D03*
X113899000Y-112282000D03*
%TO.N,Net-(U1-SW2)*%
X139700000Y-115824000D03*
%TO.N,Net-(C12-Pad2)*%
X144780000Y-103124000D03*
X119380000Y-115824000D03*
X139700000Y-103124000D03*
%TO.N,Net-(U1-SRP)*%
X88900000Y-92964000D03*
X137067737Y-106865000D03*
%TO.N,Batt+*%
X81280000Y-115824000D03*
%TO.N,Net-(U1-ACOV)*%
X99625688Y-73209687D03*
X87549811Y-80264748D03*
X96520000Y-75184000D03*
%TO.N,Net-(U1-TS)*%
X83018000Y-90424000D03*
%TO.N,Net-(U1-FB)*%
X82418000Y-95504000D03*
%TO.N,Net-(U1-STAT1)*%
X78740000Y-87884000D03*
%TO.N,Net-(U1-STAT2)*%
X80330991Y-87833790D03*
%TO.N,Net-(U1-\u002APG)*%
X81095916Y-88068084D03*
%TO.N,CE*%
X82121410Y-88734063D03*
%TO.N,SCL*%
X83820000Y-65024000D03*
%TO.N,INT*%
X78740000Y-65024000D03*
%TO.N,SDL*%
X81280000Y-65024000D03*
%TO.N,Net-(U1-ICHG)*%
X83820000Y-91694000D03*
%TD*%
D37*
%TO.N,Buck Input*%
X91440000Y-67564000D02*
X91440000Y-75184000D01*
X93218000Y-56388000D02*
X93218000Y-51384200D01*
D38*
X99783160Y-95297160D02*
X101600000Y-97114000D01*
X91440000Y-75184000D02*
X93795937Y-77539937D01*
X98069011Y-77539937D02*
X102546602Y-73062346D01*
X93795937Y-77539937D02*
X98069011Y-77539937D01*
D37*
X88650000Y-75184000D02*
X88650000Y-84302263D01*
X93218000Y-66802000D02*
X93218000Y-62484000D01*
D38*
X150560000Y-45550000D02*
X159410000Y-54400000D01*
D37*
X50880000Y-60024000D02*
X50800000Y-59944000D01*
X92303600Y-50469800D02*
X74320400Y-50469800D01*
X88649937Y-84302326D02*
X88649937Y-84937600D01*
X50880000Y-71120000D02*
X50880000Y-60024000D01*
D38*
X159410000Y-54400000D02*
X159410000Y-128310000D01*
X102546602Y-73062346D02*
X102546602Y-67800927D01*
X102546602Y-67800927D02*
X107319073Y-67800927D01*
D37*
X91440000Y-75184000D02*
X88650000Y-75184000D01*
X93218000Y-51384200D02*
X92303600Y-50469800D01*
D38*
X129570000Y-45550000D02*
X150560000Y-45550000D01*
D37*
X74320400Y-50469800D02*
X72009000Y-52781200D01*
D38*
X107319073Y-67800927D02*
X129570000Y-45550000D01*
D37*
X92456000Y-67564000D02*
X93218000Y-66802000D01*
D38*
X99783160Y-92475934D02*
X99783160Y-95297160D01*
X93980000Y-91831400D02*
X94624534Y-92475934D01*
D37*
X88650000Y-84302263D02*
X88649937Y-84302326D01*
D38*
X94624534Y-92475934D02*
X99783160Y-92475934D01*
D37*
X91440000Y-67564000D02*
X92456000Y-67564000D01*
D38*
%TO.N,Batt-*%
X133636241Y-107917759D02*
X133636241Y-104187759D01*
D37*
X105830684Y-90424000D02*
X104040874Y-88634189D01*
X81280000Y-84074000D02*
X81280000Y-80264000D01*
D38*
X55880000Y-75184000D02*
X50800000Y-80264000D01*
D37*
X86521026Y-90062441D02*
X87156300Y-90062441D01*
X83653900Y-95103000D02*
X86013532Y-95103000D01*
D38*
X63420000Y-59944000D02*
X55800000Y-59944000D01*
D37*
X66242197Y-100301803D02*
X66242197Y-108001803D01*
X66242197Y-108001803D02*
X66040000Y-108204000D01*
X68500000Y-98044000D02*
X66242197Y-100301803D01*
X90424000Y-59944000D02*
X90424000Y-63797099D01*
X82266450Y-98044000D02*
X83419000Y-96891450D01*
D38*
X122231172Y-112972828D02*
X128581172Y-112972828D01*
X115245000Y-118039000D02*
X115245000Y-116149000D01*
X109220000Y-112014000D02*
X111110000Y-112014000D01*
X117475000Y-113919000D02*
X121285000Y-113919000D01*
D37*
X96012000Y-65640372D02*
X96012000Y-62230000D01*
D38*
X50800000Y-80264000D02*
X48006000Y-80264000D01*
D37*
X86448900Y-94667633D02*
X86448900Y-90134567D01*
X68580000Y-113284000D02*
X71120000Y-113284000D01*
D38*
X71120000Y-62564000D02*
X66040000Y-62564000D01*
D37*
X88900000Y-87884000D02*
X89650189Y-88634189D01*
X91440000Y-123444000D02*
X76280000Y-123444000D01*
D38*
X154004000Y-128016000D02*
X154020000Y-128000000D01*
D37*
X76200000Y-98044000D02*
X82266450Y-98044000D01*
X100330000Y-73914000D02*
X101600000Y-72644000D01*
D38*
X66040000Y-68580000D02*
X54356000Y-80264000D01*
X33528000Y-123444000D02*
X30734000Y-120650000D01*
X106187518Y-100194000D02*
X108895000Y-100194000D01*
D37*
X96012000Y-62230000D02*
X93726000Y-59944000D01*
X89650189Y-88634189D02*
X91351100Y-88634189D01*
D38*
X45720000Y-62484000D02*
X45720000Y-56896000D01*
D37*
X108895000Y-100194000D02*
X108525692Y-99824692D01*
D38*
X77978000Y-128016000D02*
X65278000Y-128016000D01*
X133636241Y-104187759D02*
X134700000Y-103124000D01*
D37*
X121840000Y-87884000D02*
X121840000Y-90344000D01*
X87156300Y-90062441D02*
X88900000Y-88318741D01*
D38*
X48006000Y-103759000D02*
X50038000Y-105791000D01*
D37*
X116984830Y-85488830D02*
X116984830Y-77868830D01*
X73740000Y-120904000D02*
X73660000Y-120904000D01*
D38*
X60706000Y-123444000D02*
X33528000Y-123444000D01*
D37*
X66040000Y-108204000D02*
X66040000Y-110744000D01*
X86013532Y-95103000D02*
X86448900Y-94667633D01*
X90150315Y-90830400D02*
X90150315Y-89134315D01*
X76200000Y-105744000D02*
X76200000Y-108204000D01*
X98352186Y-75891814D02*
X100330000Y-73914000D01*
X88900000Y-87884000D02*
X87149559Y-89634441D01*
X71120000Y-113284000D02*
X71120000Y-118284000D01*
D38*
X71120000Y-62564000D02*
X76280000Y-57404000D01*
D37*
X72353099Y-63797099D02*
X71120000Y-62564000D01*
D38*
X66040000Y-62564000D02*
X63420000Y-59944000D01*
D37*
X90424000Y-63797099D02*
X72353099Y-63797099D01*
D38*
X55800000Y-71040000D02*
X55880000Y-71120000D01*
D37*
X101600000Y-71228372D02*
X96012000Y-65640372D01*
D38*
X105797518Y-100584000D02*
X106187518Y-100194000D01*
X121285000Y-113919000D02*
X122231172Y-112972828D01*
D37*
X104040874Y-88634189D02*
X91351100Y-88634189D01*
X76280000Y-123444000D02*
X73740000Y-120904000D01*
D38*
X77978000Y-128016000D02*
X154004000Y-128016000D01*
X76396651Y-57150000D02*
X67564000Y-57150000D01*
X67564000Y-57150000D02*
X57912000Y-47498000D01*
X154020000Y-128000000D02*
X154330000Y-128310000D01*
D37*
X73740000Y-120904000D02*
X71120000Y-118284000D01*
D38*
X48006000Y-80264000D02*
X48006000Y-64770000D01*
D37*
X93726000Y-59944000D02*
X90424000Y-59944000D01*
D38*
X48006000Y-64770000D02*
X45720000Y-62484000D01*
X115245000Y-118039000D02*
X125550000Y-118039000D01*
D37*
X88900000Y-88318741D02*
X88900000Y-87884000D01*
D38*
X50038000Y-105791000D02*
X53467000Y-105791000D01*
X48006000Y-80264000D02*
X48006000Y-103759000D01*
D37*
X121920000Y-90424000D02*
X105830684Y-90424000D01*
D38*
X55880000Y-71120000D02*
X55880000Y-75184000D01*
X45720000Y-56896000D02*
X55118000Y-47498000D01*
X54356000Y-80264000D02*
X53420000Y-80264000D01*
X55800000Y-59944000D02*
X55800000Y-71040000D01*
X111110000Y-112014000D02*
X115245000Y-116149000D01*
D37*
X86448900Y-90134567D02*
X86521026Y-90062441D01*
D38*
X45720000Y-56896000D02*
X45720000Y-48768000D01*
D37*
X121840000Y-87884000D02*
X119380000Y-87884000D01*
D38*
X128581172Y-112972828D02*
X133636241Y-107917759D01*
X45720000Y-48768000D02*
X44450000Y-47498000D01*
D37*
X101600000Y-72644000D02*
X101600000Y-71228372D01*
X119380000Y-87884000D02*
X116984830Y-85488830D01*
X121840000Y-90344000D02*
X121920000Y-90424000D01*
X76200000Y-108204000D02*
X71120000Y-113284000D01*
X83419000Y-95337900D02*
X83653900Y-95103000D01*
D38*
X154330000Y-128310000D02*
X156870000Y-128310000D01*
D37*
X91440000Y-123364000D02*
X91440000Y-123444000D01*
X83419000Y-96891450D02*
X83419000Y-95337900D01*
D38*
X50800000Y-80264000D02*
X53420000Y-80264000D01*
X30734000Y-120650000D02*
X30734000Y-56642000D01*
X115245000Y-116149000D02*
X117475000Y-113919000D01*
D37*
X76200000Y-105744000D02*
X76200000Y-98044000D01*
X90150315Y-89134315D02*
X88900000Y-87884000D01*
D38*
X65278000Y-128016000D02*
X60706000Y-123444000D01*
X105797518Y-100584000D02*
X105797518Y-108591518D01*
D37*
X71120000Y-113284000D02*
X68580000Y-110744000D01*
X116984830Y-77868830D02*
X116840000Y-77724000D01*
D38*
X55118000Y-47498000D02*
X57912000Y-47498000D01*
X105797518Y-108591518D02*
X109220000Y-112014000D01*
D37*
X66040000Y-110744000D02*
X68580000Y-113284000D01*
%TO.N,Net-(U1-DRV_SUP)*%
X106680000Y-85344000D02*
X112008245Y-80015755D01*
X91351100Y-88134063D02*
X106429937Y-88134063D01*
X106680000Y-87884000D02*
X106680000Y-85344000D01*
X112008245Y-77892245D02*
X111840000Y-77724000D01*
X106429937Y-88134063D02*
X106680000Y-87884000D01*
X112008245Y-80015755D02*
X112008245Y-77892245D01*
%TO.N,Net-(D1-A)*%
X96520000Y-100324000D02*
X91440000Y-100324000D01*
X91423226Y-87561811D02*
X92259422Y-87561811D01*
X88900000Y-100324000D02*
X91440000Y-100324000D01*
X91440000Y-95504000D02*
X91440000Y-100324000D01*
X86360000Y-100324000D02*
X88900000Y-100324000D01*
X104637233Y-75184000D02*
X114300000Y-75184000D01*
X92259422Y-87561811D02*
X104637233Y-75184000D01*
X114300000Y-87884000D02*
X111760000Y-87884000D01*
X91351100Y-87633937D02*
X91423226Y-87561811D01*
X101572252Y-87561811D02*
X101600000Y-87534063D01*
X92259422Y-87561811D02*
X101572252Y-87561811D01*
X104140000Y-85344000D02*
X101949937Y-87534063D01*
X114300000Y-75184000D02*
X114300000Y-87884000D01*
X114300000Y-87884000D02*
X116840000Y-87884000D01*
X101949937Y-87534063D02*
X101600000Y-87534063D01*
%TO.N,Net-(C4-Pad1)*%
X86360000Y-62484000D02*
X81280000Y-57404000D01*
X86360000Y-62484000D02*
X88138000Y-62484000D01*
%TO.N,Net-(U1-ACP)*%
X53340000Y-95504000D02*
X53340000Y-93980000D01*
X90150315Y-81553685D02*
X90150315Y-84937600D01*
X53340000Y-93980000D02*
X50800000Y-91440000D01*
X50800000Y-91440000D02*
X50800000Y-86440000D01*
X50800000Y-86440000D02*
X53340000Y-83900000D01*
X91440000Y-80264000D02*
X90150315Y-81553685D01*
%TO.N,Net-(U1-ACN)*%
X53340000Y-88900000D02*
X55880000Y-88900000D01*
X91846400Y-84937600D02*
X91440000Y-84937600D01*
X91440000Y-84937600D02*
X90650441Y-84937600D01*
X104140000Y-72564304D02*
X104140000Y-70104000D01*
X96480152Y-80224152D02*
X104140000Y-72564304D01*
X66040000Y-78740000D02*
X66040000Y-73580000D01*
X96520000Y-80264000D02*
X91846400Y-84937600D01*
X55880000Y-88900000D02*
X66040000Y-78740000D01*
X96480152Y-80224152D02*
X96520000Y-80264000D01*
%TO.N,Net-(C9-Pad2)*%
X126722550Y-110466550D02*
X126581835Y-110325835D01*
D38*
X124460000Y-108204000D02*
X124460000Y-105664000D01*
X124714000Y-94234000D02*
X124714000Y-100838000D01*
X110490000Y-104394000D02*
X110785000Y-104689000D01*
X126581835Y-110325835D02*
X127418165Y-110325835D01*
X130957454Y-98124000D02*
X130419227Y-98662227D01*
X124460000Y-105664000D02*
X127000000Y-103124000D01*
X130419227Y-107324773D02*
X127955900Y-109788100D01*
X117856000Y-94234000D02*
X124714000Y-94234000D01*
X124714000Y-100838000D02*
X127000000Y-103124000D01*
D39*
X110785000Y-104689000D02*
X110785000Y-106054000D01*
D38*
X110490000Y-101600000D02*
X117856000Y-94234000D01*
X110490000Y-103124000D02*
X110490000Y-101600000D01*
X101600000Y-98974000D02*
X101600000Y-100584000D01*
X110490000Y-103124000D02*
X110490000Y-104394000D01*
X127418165Y-110325835D02*
X127955900Y-109788100D01*
X130419227Y-98662227D02*
X130419227Y-107324773D01*
X134700000Y-98124000D02*
X130957454Y-98124000D01*
D37*
%TO.N,Net-(U1-BTST1)*%
X119380000Y-103044000D02*
X119380000Y-103973943D01*
X107781034Y-70906000D02*
X119047800Y-70906000D01*
X91351100Y-86633685D02*
X92053348Y-86633685D01*
X125831900Y-108805000D02*
X126599000Y-108037900D01*
X128999000Y-105637900D02*
X126599000Y-108037900D01*
X119047800Y-70906000D02*
X128999000Y-80857200D01*
X119380000Y-103973943D02*
X124211057Y-108805000D01*
X92053348Y-86633685D02*
X107781034Y-70906000D01*
X124211057Y-108805000D02*
X125831900Y-108805000D01*
X128999000Y-80857200D02*
X128999000Y-105637900D01*
D38*
%TO.N,Net-(U1-SW1)*%
X111760000Y-111181139D02*
X111760000Y-109645999D01*
X112860861Y-112282000D02*
X111760000Y-111181139D01*
X139700000Y-70104000D02*
X139700000Y-100266722D01*
X110871000Y-96393000D02*
X109220000Y-98044000D01*
X139700000Y-100266722D02*
X131982215Y-100266722D01*
D37*
X91919400Y-85633433D02*
X91351100Y-85633433D01*
D38*
X131318000Y-70104000D02*
X131318000Y-69418200D01*
D37*
X131318000Y-70104000D02*
X107448833Y-70104000D01*
D38*
X121736231Y-112014000D02*
X127473956Y-112014000D01*
X110460000Y-108345999D02*
X110460000Y-108204000D01*
D37*
X107448833Y-70104000D02*
X91919400Y-85633433D01*
D38*
X114402157Y-112785157D02*
X120965074Y-112785157D01*
X113899000Y-112282000D02*
X112860861Y-112282000D01*
X127473956Y-112014000D02*
X131120227Y-108367729D01*
X131318000Y-70104000D02*
X139700000Y-70104000D01*
X113899000Y-112282000D02*
X114402157Y-112785157D01*
X120965074Y-112785157D02*
X121736231Y-112014000D01*
X112649000Y-96393000D02*
X110871000Y-96393000D01*
X131216400Y-69316600D02*
X131216400Y-54102000D01*
X131318000Y-69418200D02*
X131216400Y-69316600D01*
X131982215Y-107451843D02*
X131099073Y-108334985D01*
X131982215Y-100266722D02*
X131982215Y-107451843D01*
X111760000Y-109645999D02*
X110460000Y-108345999D01*
D37*
X118979000Y-97643000D02*
X119380000Y-98044000D01*
%TO.N,Net-(U1-SW2)*%
X100872200Y-90830400D02*
X92058500Y-90830400D01*
D38*
X142630000Y-100259000D02*
X142630000Y-99189000D01*
D37*
X103418000Y-109147300D02*
X116989700Y-122719000D01*
X92058500Y-90830400D02*
X92058500Y-90562567D01*
X90918274Y-90562567D02*
X90650441Y-90830400D01*
X96520000Y-90830400D02*
X95546500Y-90830400D01*
X145505000Y-122719000D02*
X147320000Y-120904000D01*
D38*
X149860000Y-113284000D02*
X147320000Y-115824000D01*
X147320000Y-115824000D02*
X147320000Y-120904000D01*
X137160000Y-118364000D02*
X139700000Y-115824000D01*
D37*
X116989700Y-122719000D02*
X145505000Y-122719000D01*
D38*
X127700000Y-118364000D02*
X133495628Y-118364000D01*
X142630000Y-99189000D02*
X146315000Y-95504000D01*
X133495628Y-118364000D02*
X137160000Y-118364000D01*
X147320000Y-95504000D02*
X147320000Y-105435400D01*
D37*
X92058500Y-90562567D02*
X90918274Y-90562567D01*
D38*
X147320000Y-57632600D02*
X147320000Y-95504000D01*
D37*
X92058500Y-90830400D02*
X96520000Y-90830400D01*
X103418000Y-93376200D02*
X103418000Y-109147300D01*
D38*
X147320000Y-105435400D02*
X149860000Y-107975400D01*
X149860000Y-107975400D02*
X149860000Y-113284000D01*
D37*
X103418000Y-93376200D02*
X100872200Y-90830400D01*
D38*
X146315000Y-95504000D02*
X147320000Y-95504000D01*
D37*
%TO.N,Net-(U1-BTST2)*%
X91351100Y-89634441D02*
X100810441Y-89634441D01*
X141307000Y-121917000D02*
X142320000Y-120904000D01*
X117321900Y-121917000D02*
X141307000Y-121917000D01*
X100810441Y-89634441D02*
X104220000Y-93044000D01*
X104220000Y-93044000D02*
X104220000Y-108815100D01*
X104220000Y-108815100D02*
X117321900Y-121917000D01*
D38*
%TO.N,Net-(C12-Pad2)*%
X128912958Y-113773828D02*
X128976885Y-113709900D01*
X119380000Y-115824000D02*
X121920000Y-115824000D01*
X144780000Y-103124000D02*
X144780000Y-100584000D01*
X132080000Y-110744000D02*
X134620000Y-110744000D01*
X134620000Y-110744000D02*
X134620000Y-106934000D01*
X129114100Y-113709900D02*
X132080000Y-110744000D01*
X134620000Y-106934000D02*
X138430000Y-103124000D01*
X123970172Y-113773828D02*
X128912958Y-113773828D01*
X121920000Y-115824000D02*
X123970172Y-113773828D01*
X128976885Y-113709900D02*
X129114100Y-113709900D01*
X138430000Y-103124000D02*
X139700000Y-103124000D01*
X83820000Y-118364000D02*
X91440000Y-118364000D01*
D37*
%TO.N,Net-(U1-SRP)*%
X88649937Y-90830400D02*
X88649937Y-92713937D01*
X139700000Y-110744000D02*
X137067737Y-108111737D01*
X88649937Y-92713937D02*
X88900000Y-92964000D01*
X137067737Y-108111737D02*
X137067737Y-106865000D01*
%TO.N,Net-(U1-SRN)*%
X100706100Y-91231400D02*
X92041000Y-91231400D01*
X106680000Y-112976400D02*
X103017000Y-109313400D01*
X93980000Y-125984000D02*
X99060000Y-120904000D01*
X106680000Y-120904000D02*
X106680000Y-112976400D01*
X88149811Y-94003622D02*
X88149811Y-90830400D01*
X91440000Y-92964000D02*
X90400378Y-92964000D01*
X78740000Y-120904000D02*
X99060000Y-120904000D01*
X92041000Y-91231400D02*
X92041000Y-92363000D01*
X99060000Y-120904000D02*
X106680000Y-120904000D01*
X103017000Y-100584000D02*
X103017000Y-93542300D01*
X90400378Y-92964000D02*
X89360756Y-94003622D01*
X63500000Y-117094000D02*
X72390000Y-125984000D01*
X92041000Y-92363000D02*
X91440000Y-92964000D01*
X72390000Y-125984000D02*
X93980000Y-125984000D01*
X89360756Y-94003622D02*
X88149811Y-94003622D01*
X103017000Y-109313400D02*
X103017000Y-100584000D01*
X103017000Y-93542300D02*
X100706100Y-91231400D01*
X63500000Y-110744000D02*
X63500000Y-117094000D01*
D38*
%TO.N,Batt+*%
X44742500Y-92964000D02*
X44742500Y-87884000D01*
X44742500Y-98044000D02*
X44742500Y-92964000D01*
X81280000Y-115824000D02*
X81960000Y-116504000D01*
X33020000Y-54864000D02*
X33020000Y-118364000D01*
X81960000Y-116504000D02*
X81960000Y-118364000D01*
X35560000Y-120904000D02*
X43180000Y-120904000D01*
X44742500Y-77724000D02*
X44742500Y-72644000D01*
D37*
X63500000Y-95504000D02*
X63500000Y-98044000D01*
D38*
X33020000Y-54864000D02*
X40386000Y-47498000D01*
X33020000Y-118364000D02*
X35560000Y-120904000D01*
X44742500Y-113284000D02*
X44742500Y-108204000D01*
D37*
X68580000Y-90424000D02*
X63500000Y-95504000D01*
D38*
X44742500Y-113284000D02*
X55880000Y-113284000D01*
X40386000Y-47498000D02*
X41910000Y-47498000D01*
D37*
X63500000Y-98044000D02*
X63500000Y-105664000D01*
D38*
X43180000Y-120904000D02*
X50800000Y-113284000D01*
X55880000Y-113284000D02*
X63500000Y-105664000D01*
D37*
X50800000Y-113284000D02*
X55880000Y-113284000D01*
D38*
X44742500Y-108204000D02*
X44742500Y-103124000D01*
X44742500Y-87884000D02*
X44742500Y-82804000D01*
X44742500Y-82804000D02*
X44742500Y-77724000D01*
X44742500Y-103124000D02*
X44742500Y-98044000D01*
D37*
%TO.N,Net-(D1-K)*%
X96520000Y-105664000D02*
X96520000Y-103124000D01*
%TO.N,Net-(D2-K)*%
X91440000Y-105664000D02*
X91440000Y-103124000D01*
%TO.N,Net-(D3-K)*%
X86360000Y-105664000D02*
X86360000Y-103124000D01*
%TO.N,Net-(U1-HIDRV1)*%
X122505000Y-108204000D02*
X123507000Y-109206000D01*
X119213900Y-70505000D02*
X107614933Y-70505000D01*
X91986374Y-86133559D02*
X91351100Y-86133559D01*
X111760000Y-108204000D02*
X122505000Y-108204000D01*
X129400000Y-105804000D02*
X129400000Y-80691100D01*
X125998000Y-109206000D02*
X129400000Y-105804000D01*
X129400000Y-80691100D02*
X119213900Y-70505000D01*
X107614933Y-70505000D02*
X91986374Y-86133559D01*
X123507000Y-109206000D02*
X125998000Y-109206000D01*
%TO.N,Net-(U1-LODRV1)*%
X114300000Y-95504000D02*
X114300000Y-90825000D01*
X92120322Y-87133811D02*
X91351100Y-87133811D01*
X122321000Y-90590100D02*
X122321000Y-90424000D01*
X110195000Y-100194000D02*
X114300000Y-96089000D01*
X122086100Y-90825000D02*
X122321000Y-90590100D01*
X114300000Y-90825000D02*
X122086100Y-90825000D01*
X107947133Y-71307000D02*
X92120322Y-87133811D01*
X118881700Y-71307000D02*
X107947133Y-71307000D01*
X122321000Y-90424000D02*
X128598000Y-90424000D01*
X114300000Y-96089000D02*
X114300000Y-95504000D01*
X128598000Y-90424000D02*
X128598000Y-81023300D01*
X128598000Y-81023300D02*
X118881700Y-71307000D01*
%TO.N,Net-(U1-LODRV2)*%
X115311000Y-119339000D02*
X114318000Y-118346000D01*
X103973900Y-90825000D02*
X104140000Y-90825000D01*
X103739000Y-90590100D02*
X103973900Y-90825000D01*
X104140000Y-92396900D02*
X104621000Y-92877900D01*
X91351100Y-89134315D02*
X103739000Y-89134315D01*
X104621000Y-108649000D02*
X114318000Y-118346000D01*
X104621000Y-92877900D02*
X104621000Y-108649000D01*
X103739000Y-89134315D02*
X103739000Y-90590100D01*
X125550000Y-119339000D02*
X115311000Y-119339000D01*
X104140000Y-90825000D02*
X104140000Y-92396900D01*
%TO.N,Net-(U1-HIDRV2)*%
X117155800Y-122318000D02*
X103819000Y-108981200D01*
X142630000Y-106130999D02*
X141639000Y-107121999D01*
X144780000Y-120904000D02*
X143366000Y-122318000D01*
X103819000Y-108981200D02*
X103819000Y-93210100D01*
X100743467Y-90134567D02*
X91351100Y-90134567D01*
X141639000Y-115223000D02*
X144780000Y-118364000D01*
X141639000Y-107121999D02*
X141639000Y-115223000D01*
X142630000Y-101559000D02*
X142630000Y-106130999D01*
X143366000Y-122318000D02*
X117155800Y-122318000D01*
X144780000Y-118364000D02*
X144780000Y-120904000D01*
X103819000Y-93210100D02*
X100743467Y-90134567D01*
%TO.N,Net-(U1-ACUV)*%
X86360000Y-72124189D02*
X88149811Y-73914000D01*
X88149811Y-73914000D02*
X88149811Y-84937600D01*
X86360000Y-67564000D02*
X86360000Y-72124189D01*
X81280000Y-67564000D02*
X86360000Y-67564000D01*
%TO.N,Net-(U1-ACOV)*%
X76200000Y-67564000D02*
X76200000Y-80264000D01*
X87649685Y-80363874D02*
X87550559Y-80264748D01*
X97651375Y-75184000D02*
X99625688Y-73209687D01*
X96520000Y-75184000D02*
X97651375Y-75184000D01*
X87550559Y-80264748D02*
X87549811Y-80264748D01*
X87649685Y-84937600D02*
X87649685Y-80363874D01*
%TO.N,Net-(U1-TS)*%
X76033900Y-97643000D02*
X82100350Y-97643000D01*
X83018000Y-90424000D02*
X83018000Y-89337063D01*
X83018000Y-89337063D02*
X83220748Y-89134315D01*
X68580000Y-105664000D02*
X73660000Y-100584000D01*
X75799000Y-100584000D02*
X75799000Y-97877900D01*
X73660000Y-100584000D02*
X75799000Y-100584000D01*
X75799000Y-97877900D02*
X76033900Y-97643000D01*
X83220748Y-89134315D02*
X86448900Y-89134315D01*
X82100350Y-97643000D02*
X83018000Y-96725350D01*
X83018000Y-96725350D02*
X83018000Y-90424000D01*
%TO.N,Net-(U1-FB)*%
X78740000Y-95504000D02*
X82418000Y-95504000D01*
X87748811Y-94169722D02*
X87748811Y-91812811D01*
X88900000Y-98044000D02*
X88900000Y-94404622D01*
X87649685Y-91713685D02*
X87649685Y-90830400D01*
X73660000Y-90424000D02*
X78740000Y-95504000D01*
X87983711Y-94404622D02*
X87748811Y-94169722D01*
X88900000Y-94404622D02*
X87983711Y-94404622D01*
X87748811Y-91812811D02*
X87649685Y-91713685D01*
%TO.N,Net-(U1-FBG)*%
X87347811Y-94335821D02*
X87347811Y-91978911D01*
X83820000Y-95504000D02*
X86179632Y-95504000D01*
X87149559Y-91780659D02*
X87149559Y-90830400D01*
X86179632Y-95504000D02*
X87347811Y-94335821D01*
X83820000Y-98044000D02*
X83820000Y-95504000D01*
X87347811Y-91978911D02*
X87149559Y-91780659D01*
%TO.N,Net-(U1-FSW_SYNC)*%
X86360000Y-82804000D02*
X86360000Y-84148041D01*
X86360000Y-84148041D02*
X87149559Y-84937600D01*
%TO.N,Net-(U1-STAT1)*%
X86381173Y-87066084D02*
X86448900Y-87133811D01*
X78740000Y-87884000D02*
X79557916Y-87066084D01*
X79557916Y-87066084D02*
X86381173Y-87066084D01*
%TO.N,Net-(U1-STAT2)*%
X83720874Y-87633937D02*
X86448900Y-87633937D01*
X83554021Y-87467084D02*
X83720874Y-87633937D01*
X80330991Y-87833790D02*
X80697697Y-87467084D01*
X80697697Y-87467084D02*
X83554021Y-87467084D01*
%TO.N,Net-(U1-\u002APG)*%
X86448900Y-88134063D02*
X81161895Y-88134063D01*
X81161895Y-88134063D02*
X81095916Y-88068084D01*
%TO.N,CE*%
X82121410Y-88734063D02*
X82221284Y-88634189D01*
X82221284Y-88634189D02*
X86448900Y-88634189D01*
%TO.N,SCL*%
X75833900Y-65826000D02*
X71922000Y-65826000D01*
X81646100Y-65826000D02*
X81446100Y-66026000D01*
X81446100Y-66026000D02*
X76033900Y-66026000D01*
X71922000Y-65826000D02*
X71922000Y-85633433D01*
X76033900Y-66026000D02*
X75833900Y-65826000D01*
X71922000Y-85633433D02*
X86448900Y-85633433D01*
X83018000Y-65826000D02*
X81646100Y-65826000D01*
X83820000Y-65024000D02*
X83018000Y-65826000D01*
%TO.N,INT*%
X71120000Y-65024000D02*
X71120000Y-86633685D01*
X78740000Y-65024000D02*
X71120000Y-65024000D01*
X71120000Y-86633685D02*
X86448900Y-86633685D01*
%TO.N,SDL*%
X76200000Y-65625000D02*
X81280000Y-65625000D01*
X71521000Y-86133559D02*
X71521000Y-65425000D01*
X71521000Y-65425000D02*
X76000000Y-65425000D01*
X76000000Y-65425000D02*
X76200000Y-65625000D01*
X86448900Y-86133559D02*
X71521000Y-86133559D01*
X81280000Y-65625000D02*
X81280000Y-65024000D01*
%TO.N,Net-(U1-ICHG)*%
X84609559Y-89634441D02*
X86047900Y-89634441D01*
X84609559Y-90904441D02*
X84609559Y-89634441D01*
X83820000Y-91694000D02*
X84609559Y-90904441D01*
D38*
%TO.N,Net-(C_sys1-Pad1)*%
X40640000Y-66294000D02*
X41617500Y-67271500D01*
X41617500Y-92964000D02*
X41617500Y-87884000D01*
X41617500Y-108204000D02*
X41617500Y-103124000D01*
X41617500Y-103124000D02*
X41617500Y-98044000D01*
X41617500Y-113284000D02*
X41617500Y-108204000D01*
X41617500Y-67271500D02*
X41617500Y-72644000D01*
X41617500Y-87884000D02*
X41617500Y-82804000D01*
X41617500Y-82804000D02*
X41617500Y-77724000D01*
X41617500Y-72644000D02*
X41617500Y-77724000D01*
X40640000Y-62484000D02*
X40640000Y-66294000D01*
X41617500Y-98044000D02*
X41617500Y-92964000D01*
%TD*%
M02*
