M48
; DRILL file {KiCad 9.0.5} date 2025-11-14T12:07:07-0500
; FORMAT={-:-/ absolute / metric / decimal}
; #@! TF.CreationDate,2025-11-14T12:07:07-05:00
; #@! TF.GenerationSoftware,Kicad,Pcbnew,9.0.5
; #@! TF.FileFunction,Plated,1,2,PTH
FMAT,2
METRIC
; #@! TA.AperFunction,Plated,PTH,ViaDrill
T1C0.300
; #@! TA.AperFunction,Plated,PTH,ComponentDrill
T2C0.700
; #@! TA.AperFunction,Plated,PTH,ComponentDrill
T3C0.800
; #@! TA.AperFunction,Plated,PTH,ComponentDrill
T4C1.000
; #@! TA.AperFunction,Plated,PTH,ComponentDrill
T5C1.200
%
G90
G05
T1
X30.734Y-56.642
X72.009Y-52.781
X77.978Y-128.016
X78.74Y-65.024
X78.74Y-87.884
X80.331Y-87.834
X81.096Y-88.068
X81.28Y-65.024
X81.28Y-115.824
X82.121Y-88.734
X82.418Y-95.504
X83.018Y-90.424
X83.82Y-65.024
X83.82Y-91.694
X87.55Y-80.265
X88.9Y-92.964
X91.44Y-95.504
X93.218Y-56.388
X93.98Y-91.831
X96.48Y-80.224
X96.52Y-75.184
X98.352Y-75.892
X99.626Y-73.21
X100.33Y-73.914
X101.6Y-87.534
X101.6Y-100.584
X104.14Y-70.104
X109.22Y-112.014
X110.49Y-103.124
X112.649Y-96.393
X113.899Y-112.282
X119.38Y-115.824
X124.46Y-108.204
X126.582Y-110.326
X137.068Y-106.865
X139.7Y-103.124
X139.7Y-115.824
X144.78Y-103.124
T2
X40.64Y-62.484
X45.72Y-62.484
X53.467Y-105.791
X58.547Y-105.791
X63.5Y-105.664
X63.5Y-110.744
X68.58Y-90.424
X68.58Y-105.664
X68.58Y-110.744
X73.66Y-90.424
X76.2Y-67.564
X76.2Y-80.264
X76.2Y-84.074
X81.28Y-67.564
X81.28Y-80.264
X81.28Y-84.074
X83.82Y-98.044
X86.36Y-67.564
X86.36Y-77.724
X86.36Y-82.804
X86.36Y-105.664
X86.36Y-110.744
X88.138Y-62.484
X88.9Y-98.044
X91.44Y-67.564
X91.44Y-75.184
X91.44Y-80.264
X91.44Y-105.664
X91.44Y-110.744
X93.218Y-62.484
X96.52Y-105.664
X96.52Y-110.744
X104.14Y-80.264
X104.14Y-85.344
X105.41Y-46.736
X106.68Y-46.736
X106.68Y-87.884
X107.95Y-46.736
X109.22Y-46.736
X110.49Y-46.736
X111.76Y-46.736
X111.76Y-87.884
X127.0Y-98.044
X127.0Y-103.124
X134.62Y-110.744
X139.7Y-110.744
T3
X50.8Y-59.944
X50.88Y-71.12
X53.34Y-83.9
X53.34Y-88.9
X53.34Y-95.504
X53.34Y-100.504
X55.8Y-59.944
X55.88Y-71.12
X63.5Y-98.044
X66.04Y-68.58
X66.04Y-73.58
X68.5Y-98.044
X73.74Y-120.904
X76.2Y-105.744
X76.2Y-110.744
X76.397Y-57.15
X78.74Y-120.904
X81.397Y-57.15
X91.44Y-118.364
X91.44Y-123.364
X106.68Y-120.904
X111.68Y-120.904
X111.84Y-77.724
X116.84Y-77.724
X116.84Y-87.884
X119.38Y-98.044
X119.38Y-103.044
X121.84Y-87.884
X134.7Y-98.124
X134.7Y-103.124
X142.32Y-120.904
X147.32Y-120.904
T4
X25.4Y-43.18
X25.4Y-45.72
X25.4Y-48.26
X25.4Y-50.8
X25.4Y-53.34
X25.4Y-55.88
X25.4Y-58.42
X25.4Y-60.96
X25.4Y-63.5
X25.4Y-66.04
X25.4Y-68.58
X25.4Y-71.12
X25.4Y-73.66
X25.4Y-76.2
X25.4Y-78.74
X25.4Y-81.28
X25.4Y-83.82
X25.4Y-86.36
X25.4Y-88.9
X25.4Y-91.44
X25.4Y-93.98
X25.4Y-96.52
X25.4Y-99.06
X25.4Y-101.6
X25.4Y-104.14
X25.4Y-106.68
X25.4Y-109.22
X25.4Y-111.76
X25.4Y-114.3
X25.4Y-116.84
X25.4Y-119.38
X25.4Y-121.92
X25.4Y-124.46
X25.4Y-127.0
X25.4Y-129.54
X25.4Y-132.08
X25.4Y-134.62
X165.1Y-43.18
X165.1Y-45.72
X165.1Y-48.26
X165.1Y-50.8
X165.1Y-53.34
X165.1Y-55.88
X165.1Y-58.42
X165.1Y-60.96
X165.1Y-63.5
X165.1Y-66.04
X165.1Y-68.58
X165.1Y-71.12
X165.1Y-73.66
X165.1Y-76.2
X165.1Y-78.74
X165.1Y-81.28
X165.1Y-83.82
X165.1Y-86.36
X165.1Y-88.9
X165.1Y-91.44
X165.1Y-93.98
X165.1Y-96.52
X165.1Y-99.06
X165.1Y-101.6
X165.1Y-104.14
X165.1Y-106.68
X165.1Y-109.22
X165.1Y-111.76
X165.1Y-114.3
X165.1Y-116.84
X165.1Y-119.38
X165.1Y-121.92
X165.1Y-124.46
X165.1Y-127.0
X165.1Y-129.54
X165.1Y-132.08
X165.1Y-134.62
T5
X41.85Y-47.54
X44.39Y-47.54
X156.87Y-128.31
X159.41Y-128.31
M30
