%TF.GenerationSoftware,KiCad,Pcbnew,9.0.4*%
%TF.CreationDate,2026-02-05T17:30:51-05:00*%
%TF.ProjectId,LVChargeNEW,4c564368-6172-4676-954e-45572e6b6963,1*%
%TF.SameCoordinates,Original*%
%TF.FileFunction,Soldermask,Top*%
%TF.FilePolarity,Negative*%
%FSLAX46Y46*%
G04 Gerber Fmt 4.6, Leading zero omitted, Abs format (unit mm)*
G04 Created by KiCad (PCBNEW 9.0.4) date 2026-02-05 17:30:51*
%MOMM*%
%LPD*%
G01*
G04 APERTURE LIST*
G04 Aperture macros list*
%AMRoundRect*
0 Rectangle with rounded corners*
0 $1 Rounding radius*
0 $2 $3 $4 $5 $6 $7 $8 $9 X,Y pos of 4 corners*
0 Add a 4 corners polygon primitive as box body*
4,1,4,$2,$3,$4,$5,$6,$7,$8,$9,$2,$3,0*
0 Add four circle primitives for the rounded corners*
1,1,$1+$1,$2,$3*
1,1,$1+$1,$4,$5*
1,1,$1+$1,$6,$7*
1,1,$1+$1,$8,$9*
0 Add four rect primitives between the rounded corners*
20,1,$1+$1,$2,$3,$4,$5,0*
20,1,$1+$1,$4,$5,$6,$7,0*
20,1,$1+$1,$6,$7,$8,$9,0*
20,1,$1+$1,$8,$9,$2,$3,0*%
G04 Aperture macros list end*
%ADD10C,0.010000*%
%ADD11RoundRect,0.250000X0.325000X1.100000X-0.325000X1.100000X-0.325000X-1.100000X0.325000X-1.100000X0*%
%ADD12RoundRect,0.250000X0.550000X-0.550000X0.550000X0.550000X-0.550000X0.550000X-0.550000X-0.550000X0*%
%ADD13C,1.600000*%
%ADD14RoundRect,0.250000X0.550000X0.550000X-0.550000X0.550000X-0.550000X-0.550000X0.550000X-0.550000X0*%
%ADD15RoundRect,0.250000X-1.100000X0.325000X-1.100000X-0.325000X1.100000X-0.325000X1.100000X0.325000X0*%
%ADD16RoundRect,0.250000X-0.412500X-1.100000X0.412500X-1.100000X0.412500X1.100000X-0.412500X1.100000X0*%
%ADD17RoundRect,0.250000X0.312500X0.625000X-0.312500X0.625000X-0.312500X-0.625000X0.312500X-0.625000X0*%
%ADD18RoundRect,0.250000X-0.262500X-0.450000X0.262500X-0.450000X0.262500X0.450000X-0.262500X0.450000X0*%
%ADD19RoundRect,0.250000X-0.325000X-1.100000X0.325000X-1.100000X0.325000X1.100000X-0.325000X1.100000X0*%
%ADD20C,1.400000*%
%ADD21RoundRect,0.250000X1.100000X-0.325000X1.100000X0.325000X-1.100000X0.325000X-1.100000X-0.325000X0*%
%ADD22R,1.980000X3.960000*%
%ADD23O,1.980000X3.960000*%
%ADD24RoundRect,0.250000X-0.400000X-0.625000X0.400000X-0.625000X0.400000X0.625000X-0.400000X0.625000X0*%
%ADD25RoundRect,0.250000X0.625000X-0.375000X0.625000X0.375000X-0.625000X0.375000X-0.625000X-0.375000X0*%
%ADD26RoundRect,0.160000X-0.197500X-0.160000X0.197500X-0.160000X0.197500X0.160000X-0.197500X0.160000X0*%
%ADD27RoundRect,0.135000X0.185000X-0.135000X0.185000X0.135000X-0.185000X0.135000X-0.185000X-0.135000X0*%
%ADD28RoundRect,0.250000X-0.550000X-0.550000X0.550000X-0.550000X0.550000X0.550000X-0.550000X0.550000X0*%
%ADD29RoundRect,0.102000X-0.485000X-0.690000X0.485000X-0.690000X0.485000X0.690000X-0.485000X0.690000X0*%
%ADD30RoundRect,0.102000X0.690000X-0.485000X0.690000X0.485000X-0.690000X0.485000X-0.690000X-0.485000X0*%
%ADD31R,2.921000X12.141200*%
%ADD32R,0.812800X0.254000*%
%ADD33R,0.254000X0.812800*%
%ADD34R,3.708400X4.699000*%
%ADD35RoundRect,0.250000X-0.450000X0.262500X-0.450000X-0.262500X0.450000X-0.262500X0.450000X0.262500X0*%
%ADD36R,1.000000X1.000000*%
%ADD37C,1.000000*%
%ADD38RoundRect,0.250000X-0.312500X-0.625000X0.312500X-0.625000X0.312500X0.625000X-0.312500X0.625000X0*%
%ADD39RoundRect,0.250000X-0.625000X0.400000X-0.625000X-0.400000X0.625000X-0.400000X0.625000X0.400000X0*%
G04 APERTURE END LIST*
D10*
%TO.C,Q4*%
X126000000Y-119509000D02*
X125100000Y-119509000D01*
X125100000Y-119169000D01*
X126000000Y-119169000D01*
X126000000Y-119509000D01*
G36*
X126000000Y-119509000D02*
G01*
X125100000Y-119509000D01*
X125100000Y-119169000D01*
X126000000Y-119169000D01*
X126000000Y-119509000D01*
G37*
X126000000Y-118859000D02*
X125100000Y-118859000D01*
X125100000Y-118519000D01*
X125550000Y-118519000D01*
X125550000Y-118209000D01*
X125100000Y-118209000D01*
X125100000Y-117869000D01*
X125550000Y-117869000D01*
X125550000Y-117559000D01*
X125100000Y-117559000D01*
X125100000Y-117219000D01*
X126000000Y-117219000D01*
X126000000Y-118859000D01*
G36*
X126000000Y-118859000D02*
G01*
X125100000Y-118859000D01*
X125100000Y-118519000D01*
X125550000Y-118519000D01*
X125550000Y-118209000D01*
X125100000Y-118209000D01*
X125100000Y-117869000D01*
X125550000Y-117869000D01*
X125550000Y-117559000D01*
X125100000Y-117559000D01*
X125100000Y-117219000D01*
X126000000Y-117219000D01*
X126000000Y-118859000D01*
G37*
X128880000Y-117559000D02*
X128230000Y-117559000D01*
X128230000Y-117869000D01*
X128880000Y-117869000D01*
X128880000Y-118209000D01*
X128230000Y-118209000D01*
X128230000Y-118519000D01*
X128880000Y-118519000D01*
X128880000Y-118859000D01*
X128230000Y-118859000D01*
X128230000Y-119169000D01*
X128880000Y-119169000D01*
X128880000Y-119509000D01*
X126520000Y-119509000D01*
X126520000Y-117219000D01*
X128880000Y-117219000D01*
X128880000Y-117559000D01*
G36*
X128880000Y-117559000D02*
G01*
X128230000Y-117559000D01*
X128230000Y-117869000D01*
X128880000Y-117869000D01*
X128880000Y-118209000D01*
X128230000Y-118209000D01*
X128230000Y-118519000D01*
X128880000Y-118519000D01*
X128880000Y-118859000D01*
X128230000Y-118859000D01*
X128230000Y-119169000D01*
X128880000Y-119169000D01*
X128880000Y-119509000D01*
X126520000Y-119509000D01*
X126520000Y-117219000D01*
X128880000Y-117219000D01*
X128880000Y-117559000D01*
G37*
%TO.C,Q3*%
X143080000Y-101729000D02*
X142180000Y-101729000D01*
X142180000Y-101389000D01*
X143080000Y-101389000D01*
X143080000Y-101729000D01*
G36*
X143080000Y-101729000D02*
G01*
X142180000Y-101729000D01*
X142180000Y-101389000D01*
X143080000Y-101389000D01*
X143080000Y-101729000D01*
G37*
X143080000Y-101079000D02*
X142180000Y-101079000D01*
X142180000Y-100739000D01*
X142630000Y-100739000D01*
X142630000Y-100429000D01*
X142180000Y-100429000D01*
X142180000Y-100089000D01*
X142630000Y-100089000D01*
X142630000Y-99779000D01*
X142180000Y-99779000D01*
X142180000Y-99439000D01*
X143080000Y-99439000D01*
X143080000Y-101079000D01*
G36*
X143080000Y-101079000D02*
G01*
X142180000Y-101079000D01*
X142180000Y-100739000D01*
X142630000Y-100739000D01*
X142630000Y-100429000D01*
X142180000Y-100429000D01*
X142180000Y-100089000D01*
X142630000Y-100089000D01*
X142630000Y-99779000D01*
X142180000Y-99779000D01*
X142180000Y-99439000D01*
X143080000Y-99439000D01*
X143080000Y-101079000D01*
G37*
X145960000Y-99779000D02*
X145310000Y-99779000D01*
X145310000Y-100089000D01*
X145960000Y-100089000D01*
X145960000Y-100429000D01*
X145310000Y-100429000D01*
X145310000Y-100739000D01*
X145960000Y-100739000D01*
X145960000Y-101079000D01*
X145310000Y-101079000D01*
X145310000Y-101389000D01*
X145960000Y-101389000D01*
X145960000Y-101729000D01*
X143600000Y-101729000D01*
X143600000Y-99439000D01*
X145960000Y-99439000D01*
X145960000Y-99779000D01*
G36*
X145960000Y-99779000D02*
G01*
X145310000Y-99779000D01*
X145310000Y-100089000D01*
X145960000Y-100089000D01*
X145960000Y-100429000D01*
X145310000Y-100429000D01*
X145310000Y-100739000D01*
X145960000Y-100739000D01*
X145960000Y-101079000D01*
X145310000Y-101079000D01*
X145310000Y-101389000D01*
X145960000Y-101389000D01*
X145960000Y-101729000D01*
X143600000Y-101729000D01*
X143600000Y-99439000D01*
X145960000Y-99439000D01*
X145960000Y-99779000D01*
G37*
%TO.C,Q1*%
X111930000Y-108654000D02*
X111590000Y-108654000D01*
X111590000Y-107754000D01*
X111930000Y-107754000D01*
X111930000Y-108654000D01*
G36*
X111930000Y-108654000D02*
G01*
X111590000Y-108654000D01*
X111590000Y-107754000D01*
X111930000Y-107754000D01*
X111930000Y-108654000D01*
G37*
X111280000Y-108654000D02*
X110940000Y-108654000D01*
X110940000Y-108204000D01*
X110630000Y-108204000D01*
X110630000Y-108654000D01*
X110290000Y-108654000D01*
X110290000Y-108204000D01*
X109980000Y-108204000D01*
X109980000Y-108654000D01*
X109640000Y-108654000D01*
X109640000Y-107754000D01*
X111280000Y-107754000D01*
X111280000Y-108654000D01*
G36*
X111280000Y-108654000D02*
G01*
X110940000Y-108654000D01*
X110940000Y-108204000D01*
X110630000Y-108204000D01*
X110630000Y-108654000D01*
X110290000Y-108654000D01*
X110290000Y-108204000D01*
X109980000Y-108204000D01*
X109980000Y-108654000D01*
X109640000Y-108654000D01*
X109640000Y-107754000D01*
X111280000Y-107754000D01*
X111280000Y-108654000D01*
G37*
X109980000Y-105524000D02*
X110290000Y-105524000D01*
X110290000Y-104874000D01*
X110630000Y-104874000D01*
X110630000Y-105524000D01*
X110940000Y-105524000D01*
X110940000Y-104874000D01*
X111280000Y-104874000D01*
X111280000Y-105524000D01*
X111590000Y-105524000D01*
X111590000Y-104874000D01*
X111930000Y-104874000D01*
X111930000Y-107234000D01*
X109640000Y-107234000D01*
X109640000Y-104874000D01*
X109980000Y-104874000D01*
X109980000Y-105524000D01*
G36*
X109980000Y-105524000D02*
G01*
X110290000Y-105524000D01*
X110290000Y-104874000D01*
X110630000Y-104874000D01*
X110630000Y-105524000D01*
X110940000Y-105524000D01*
X110940000Y-104874000D01*
X111280000Y-104874000D01*
X111280000Y-105524000D01*
X111590000Y-105524000D01*
X111590000Y-104874000D01*
X111930000Y-104874000D01*
X111930000Y-107234000D01*
X109640000Y-107234000D01*
X109640000Y-104874000D01*
X109980000Y-104874000D01*
X109980000Y-105524000D01*
G37*
%TO.C,Q2*%
X110365000Y-100644000D02*
X110025000Y-100644000D01*
X110025000Y-99744000D01*
X110365000Y-99744000D01*
X110365000Y-100644000D01*
G36*
X110365000Y-100644000D02*
G01*
X110025000Y-100644000D01*
X110025000Y-99744000D01*
X110365000Y-99744000D01*
X110365000Y-100644000D01*
G37*
X109715000Y-100644000D02*
X109375000Y-100644000D01*
X109375000Y-100194000D01*
X109065000Y-100194000D01*
X109065000Y-100644000D01*
X108725000Y-100644000D01*
X108725000Y-100194000D01*
X108415000Y-100194000D01*
X108415000Y-100644000D01*
X108075000Y-100644000D01*
X108075000Y-99744000D01*
X109715000Y-99744000D01*
X109715000Y-100644000D01*
G36*
X109715000Y-100644000D02*
G01*
X109375000Y-100644000D01*
X109375000Y-100194000D01*
X109065000Y-100194000D01*
X109065000Y-100644000D01*
X108725000Y-100644000D01*
X108725000Y-100194000D01*
X108415000Y-100194000D01*
X108415000Y-100644000D01*
X108075000Y-100644000D01*
X108075000Y-99744000D01*
X109715000Y-99744000D01*
X109715000Y-100644000D01*
G37*
X108415000Y-97514000D02*
X108725000Y-97514000D01*
X108725000Y-96864000D01*
X109065000Y-96864000D01*
X109065000Y-97514000D01*
X109375000Y-97514000D01*
X109375000Y-96864000D01*
X109715000Y-96864000D01*
X109715000Y-97514000D01*
X110025000Y-97514000D01*
X110025000Y-96864000D01*
X110365000Y-96864000D01*
X110365000Y-99224000D01*
X108075000Y-99224000D01*
X108075000Y-96864000D01*
X108415000Y-96864000D01*
X108415000Y-97514000D01*
G36*
X108415000Y-97514000D02*
G01*
X108725000Y-97514000D01*
X108725000Y-96864000D01*
X109065000Y-96864000D01*
X109065000Y-97514000D01*
X109375000Y-97514000D01*
X109375000Y-96864000D01*
X109715000Y-96864000D01*
X109715000Y-97514000D01*
X110025000Y-97514000D01*
X110025000Y-96864000D01*
X110365000Y-96864000D01*
X110365000Y-99224000D01*
X108075000Y-99224000D01*
X108075000Y-96864000D01*
X108415000Y-96864000D01*
X108415000Y-97514000D01*
G37*
%TD*%
D11*
%TO.C,C40*%
X57658000Y-70104000D03*
X54708000Y-70104000D03*
%TD*%
D12*
%TO.C,C7*%
X66040000Y-73580000D03*
D13*
X66040000Y-68580000D03*
%TD*%
D14*
%TO.C,C15*%
X111680000Y-120904000D03*
D13*
X106680000Y-120904000D03*
%TD*%
D15*
%TO.C,C18*%
X56591200Y-117979400D03*
X56591200Y-120929400D03*
%TD*%
D16*
%TO.C,C_sys7*%
X41617500Y-82804000D03*
X44742500Y-82804000D03*
%TD*%
D17*
%TO.C,R5*%
X91327700Y-62458600D03*
X88402700Y-62458600D03*
%TD*%
D18*
%TO.C,R2*%
X76227300Y-67564000D03*
X78052300Y-67564000D03*
%TD*%
D16*
%TO.C,C_sys5*%
X41617500Y-92964000D03*
X44742500Y-92964000D03*
%TD*%
D19*
%TO.C,C5*%
X49579000Y-66548000D03*
X52529000Y-66548000D03*
%TD*%
D20*
%TO.C,R17*%
X86360000Y-105664000D03*
X86360000Y-110744000D03*
%TD*%
%TO.C,R18*%
X58547000Y-105791000D03*
X53467000Y-105791000D03*
%TD*%
D21*
%TO.C,C21*%
X83820000Y-122174000D03*
X83820000Y-119224000D03*
%TD*%
D22*
%TO.C,J1*%
X44170600Y-48768000D03*
D23*
X39170600Y-48768000D03*
%TD*%
D16*
%TO.C,C_sys4*%
X41617500Y-98044000D03*
X44742500Y-98044000D03*
%TD*%
D19*
%TO.C,C12*%
X136906000Y-84836000D03*
X139856000Y-84836000D03*
%TD*%
D24*
%TO.C,R10*%
X133070000Y-110744000D03*
X136170000Y-110744000D03*
%TD*%
D11*
%TO.C,C38*%
X57707000Y-73914000D03*
X54757000Y-73914000D03*
%TD*%
D19*
%TO.C,C34*%
X131826000Y-91948000D03*
X134776000Y-91948000D03*
%TD*%
D20*
%TO.C,R13*%
X83820000Y-98044000D03*
X88900000Y-98044000D03*
%TD*%
D25*
%TO.C,D2*%
X91440000Y-103124000D03*
X91440000Y-100324000D03*
%TD*%
D26*
%TO.C,R19*%
X80010000Y-84074000D03*
X81205000Y-84074000D03*
%TD*%
D15*
%TO.C,C19*%
X51993800Y-118055600D03*
X51993800Y-121005600D03*
%TD*%
D11*
%TO.C,C35*%
X52627000Y-77724000D03*
X49677000Y-77724000D03*
%TD*%
D15*
%TO.C,C17*%
X60604400Y-118081000D03*
X60604400Y-121031000D03*
%TD*%
D20*
%TO.C,R1*%
X86360000Y-67564000D03*
X91440000Y-67564000D03*
%TD*%
D12*
%TO.C,C8*%
X53340000Y-88900000D03*
D13*
X53340000Y-83900000D03*
%TD*%
D15*
%TO.C,C16*%
X60629800Y-123084800D03*
X60629800Y-126034800D03*
%TD*%
%TO.C,C20*%
X52070000Y-123135600D03*
X52070000Y-126085600D03*
%TD*%
D20*
%TO.C,R12*%
X72644000Y-95529400D03*
X67564000Y-95529400D03*
%TD*%
D15*
%TO.C,C26*%
X87376000Y-119224000D03*
X87376000Y-122174000D03*
%TD*%
D19*
%TO.C,C30*%
X131826000Y-84836000D03*
X134776000Y-84836000D03*
%TD*%
D27*
%TO.C,R6*%
X104165400Y-81282000D03*
X104165400Y-80262000D03*
%TD*%
D15*
%TO.C,C24*%
X91186000Y-119224000D03*
X91186000Y-122174000D03*
%TD*%
D16*
%TO.C,C_sys2*%
X41617500Y-108204000D03*
X44742500Y-108204000D03*
%TD*%
D28*
%TO.C,C2*%
X111840000Y-77724000D03*
D13*
X116840000Y-77724000D03*
%TD*%
D29*
%TO.C,R_bat_sns1*%
X81874000Y-115570000D03*
X83734000Y-115570000D03*
%TD*%
D15*
%TO.C,C27*%
X87376000Y-114349000D03*
X87376000Y-117299000D03*
%TD*%
D19*
%TO.C,C33*%
X136906000Y-91948000D03*
X139856000Y-91948000D03*
%TD*%
D30*
%TO.C,R_bat_ac1*%
X101600000Y-98974000D03*
X101600000Y-97114000D03*
%TD*%
D21*
%TO.C,C22*%
X48260000Y-126189000D03*
X48260000Y-123239000D03*
%TD*%
D31*
%TO.C,L2*%
X146913600Y-57404000D03*
X131216400Y-57404000D03*
%TD*%
D32*
%TO.C,U1*%
X86448900Y-85633433D03*
X86448900Y-86133559D03*
X86448900Y-86633685D03*
X86448900Y-87133811D03*
X86448900Y-87633937D03*
X86448900Y-88134063D03*
X86448900Y-88634189D03*
X86448900Y-89134315D03*
X86448900Y-89634441D03*
X86448900Y-90134567D03*
D33*
X87149559Y-90830400D03*
X87649685Y-90830400D03*
X88149811Y-90830400D03*
X88649937Y-90830400D03*
X89150063Y-90830400D03*
X89650189Y-90830400D03*
X90150315Y-90830400D03*
X90650441Y-90830400D03*
D32*
X91351100Y-90134567D03*
X91351100Y-89634441D03*
X91351100Y-89134315D03*
X91351100Y-88634189D03*
X91351100Y-88134063D03*
X91351100Y-87633937D03*
X91351100Y-87133811D03*
X91351100Y-86633685D03*
X91351100Y-86133559D03*
X91351100Y-85633433D03*
D33*
X90650441Y-84937600D03*
X90150315Y-84937600D03*
X89650189Y-84937600D03*
X89150063Y-84937600D03*
X88649937Y-84937600D03*
X88149811Y-84937600D03*
X87649685Y-84937600D03*
X87149559Y-84937600D03*
D34*
X88900000Y-87884000D03*
%TD*%
D16*
%TO.C,C_sys1*%
X41617500Y-113284000D03*
X44742500Y-113284000D03*
%TD*%
D15*
%TO.C,C29*%
X94742000Y-114398000D03*
X94742000Y-117348000D03*
%TD*%
D24*
%TO.C,R11*%
X60527600Y-110794800D03*
X63627600Y-110794800D03*
%TD*%
D11*
%TO.C,C37*%
X52627000Y-73914000D03*
X49677000Y-73914000D03*
%TD*%
D35*
%TO.C,R9*%
X68580000Y-104751500D03*
X68580000Y-106576500D03*
%TD*%
D16*
%TO.C,C_sys3*%
X41617500Y-103124000D03*
X44742500Y-103124000D03*
%TD*%
D36*
%TO.C,J3*%
X105410000Y-46736000D03*
D37*
X106680000Y-46736000D03*
X107950000Y-46736000D03*
X109220000Y-46736000D03*
X110490000Y-46736000D03*
X111760000Y-46736000D03*
%TD*%
D11*
%TO.C,C39*%
X52627000Y-70104000D03*
X49677000Y-70104000D03*
%TD*%
D20*
%TO.C,R4*%
X106680000Y-87884000D03*
X111760000Y-87884000D03*
%TD*%
D19*
%TO.C,C31*%
X136906000Y-88392000D03*
X139856000Y-88392000D03*
%TD*%
D20*
%TO.C,R14*%
X86360000Y-77724000D03*
X86360000Y-82804000D03*
%TD*%
D14*
%TO.C,C13*%
X78333600Y-104749600D03*
D13*
X73333600Y-104749600D03*
%TD*%
D38*
%TO.C,R3*%
X76286900Y-80721200D03*
X79211900Y-80721200D03*
%TD*%
D20*
%TO.C,R20*%
X40640000Y-62484000D03*
X45720000Y-62484000D03*
%TD*%
D19*
%TO.C,C32*%
X131826000Y-88392000D03*
X134776000Y-88392000D03*
%TD*%
D20*
%TO.C,R16*%
X91440000Y-105664000D03*
X91440000Y-110744000D03*
%TD*%
D22*
%TO.C,J2*%
X154228800Y-128016000D03*
D23*
X159228800Y-128016000D03*
%TD*%
D14*
%TO.C,C4*%
X81396651Y-57150000D03*
D13*
X76396651Y-57150000D03*
%TD*%
D39*
%TO.C,R7*%
X92760800Y-76351800D03*
X92760800Y-79451800D03*
%TD*%
D24*
%TO.C,R8*%
X124611800Y-102920800D03*
X127711800Y-102920800D03*
%TD*%
D12*
%TO.C,C10*%
X119380000Y-103044000D03*
D13*
X119380000Y-98044000D03*
%TD*%
D28*
%TO.C,C3*%
X116840000Y-87884000D03*
D13*
X121840000Y-87884000D03*
%TD*%
D11*
%TO.C,C36*%
X57658000Y-77706000D03*
X54708000Y-77706000D03*
%TD*%
D15*
%TO.C,C25*%
X91186000Y-114349000D03*
X91186000Y-117299000D03*
%TD*%
D25*
%TO.C,D3*%
X86360000Y-103124000D03*
X86360000Y-100324000D03*
%TD*%
D16*
%TO.C,C_sys9*%
X41617500Y-72644000D03*
X44742500Y-72644000D03*
%TD*%
%TO.C,C_sys8*%
X41617500Y-77724000D03*
X44742500Y-77724000D03*
%TD*%
D12*
%TO.C,C6*%
X53340000Y-100504000D03*
D13*
X53340000Y-95504000D03*
%TD*%
D20*
%TO.C,R15*%
X96520000Y-105664000D03*
X96520000Y-110744000D03*
%TD*%
D11*
%TO.C,C9*%
X134776000Y-95504000D03*
X131826000Y-95504000D03*
%TD*%
D15*
%TO.C,C28*%
X94742000Y-119224000D03*
X94742000Y-122174000D03*
%TD*%
D28*
%TO.C,C14*%
X73740000Y-120904000D03*
D13*
X78740000Y-120904000D03*
%TD*%
D16*
%TO.C,C_sys6*%
X41617500Y-87884000D03*
X44742500Y-87884000D03*
%TD*%
D28*
%TO.C,C11*%
X142320000Y-120904000D03*
D13*
X147320000Y-120904000D03*
%TD*%
D14*
%TO.C,C1*%
X55880000Y-56134000D03*
D13*
X50880000Y-56134000D03*
%TD*%
D25*
%TO.C,D1*%
X96520000Y-103124000D03*
X96520000Y-100324000D03*
%TD*%
D15*
%TO.C,C23*%
X56565800Y-123084800D03*
X56565800Y-126034800D03*
%TD*%
M02*
