%TF.GenerationSoftware,KiCad,Pcbnew,9.0.4*%
%TF.CreationDate,2025-11-20T17:33:31-05:00*%
%TF.ProjectId,LVChargeNEW,4c564368-6172-4676-954e-45572e6b6963,1*%
%TF.SameCoordinates,Original*%
%TF.FileFunction,Copper,L1,Top*%
%TF.FilePolarity,Positive*%
%FSLAX46Y46*%
G04 Gerber Fmt 4.6, Leading zero omitted, Abs format (unit mm)*
G04 Created by KiCad (PCBNEW 9.0.4) date 2025-11-20 17:33:31*
%MOMM*%
%LPD*%
G01*
G04 APERTURE LIST*
%TA.AperFunction,SMDPad,CuDef*%
%ADD10R,2.390000X2.460000*%
%TD*%
%TA.AperFunction,SMDPad,CuDef*%
%ADD11R,0.440000X1.000000*%
%TD*%
%TA.AperFunction,SMDPad,CuDef*%
%ADD12R,1.740000X1.000000*%
%TD*%
%TA.AperFunction,SMDPad,CuDef*%
%ADD13R,3.708400X4.699000*%
%TD*%
%TA.AperFunction,SMDPad,CuDef*%
%ADD14R,0.254000X0.812800*%
%TD*%
%TA.AperFunction,SMDPad,CuDef*%
%ADD15R,0.812800X0.254000*%
%TD*%
G04 APERTURE END LIST*
D10*
%TO.P,Q2,5*%
%TO.N,Net-(U1-SW1)*%
X90000000Y-70300000D03*
D11*
%TO.P,Q2,4*%
%TO.N,Net-(U1-LODRV1)*%
X90975000Y-72450000D03*
D12*
%TO.P,Q2,1*%
%TO.N,Batt-*%
X89675000Y-72450000D03*
%TD*%
D13*
%TO.P,U1,37,EPAD*%
%TO.N,Batt-*%
X71451100Y-71250567D03*
D14*
%TO.P,U1,36,FSW_SYNC*%
%TO.N,Net-(U1-FSW_SYNC)*%
X69700659Y-68304167D03*
%TO.P,U1,35,ACOV*%
%TO.N,Net-(U1-ACOV)*%
X70200785Y-68304167D03*
%TO.P,U1,34,ACUV*%
%TO.N,Net-(U1-ACUV)*%
X70700911Y-68304167D03*
%TO.P,U1,33,VAC*%
%TO.N,Buck Input*%
X71201037Y-68304167D03*
%TO.P,U1,32,VAC*%
%TO.N,unconnected-(U1-VAC-Pad32)*%
X71701163Y-68304167D03*
%TO.P,U1,31,NC*%
%TO.N,unconnected-(U1-NC-Pad31)*%
X72201289Y-68304167D03*
%TO.P,U1,30,ACP*%
%TO.N,Net-(U1-ACP)*%
X72701415Y-68304167D03*
%TO.P,U1,29,ACN*%
%TO.N,Net-(U1-ACN)*%
X73201541Y-68304167D03*
D15*
%TO.P,U1,28,SW1*%
%TO.N,Net-(U1-SW1)*%
X73902200Y-69000000D03*
%TO.P,U1,27,HIDRV1*%
%TO.N,Net-(U1-HIDRV1)*%
X73902200Y-69500126D03*
%TO.P,U1,26,BTST1*%
%TO.N,Net-(U1-BTST1)*%
X73902200Y-70000252D03*
%TO.P,U1,25,LODRV1*%
%TO.N,Net-(U1-LODRV1)*%
X73902200Y-70500378D03*
%TO.P,U1,24,REGN*%
%TO.N,Net-(D1-A)*%
X73902200Y-71000504D03*
%TO.P,U1,23,DRV_SUP*%
%TO.N,Net-(U1-DRV_SUP)*%
X73902200Y-71500630D03*
%TO.P,U1,22,PGND*%
%TO.N,Batt-*%
X73902200Y-72000756D03*
%TO.P,U1,21,LODRV2*%
%TO.N,Net-(U1-LODRV2)*%
X73902200Y-72500882D03*
%TO.P,U1,20,BTST2*%
%TO.N,Net-(U1-BTST2)*%
X73902200Y-73001008D03*
%TO.P,U1,19,HIDRV2*%
%TO.N,Net-(U1-HIDRV2)*%
X73902200Y-73501134D03*
D14*
%TO.P,U1,18,SW2*%
%TO.N,Net-(U1-SW2)*%
X73201541Y-74196967D03*
%TO.P,U1,17,PGND*%
%TO.N,Batt-*%
X72701415Y-74196967D03*
%TO.P,U1,16,NC*%
%TO.N,unconnected-(U1-NC-Pad16)*%
X72201289Y-74196967D03*
%TO.P,U1,15,NC*%
%TO.N,unconnected-(U1-NC-Pad15)*%
X71701163Y-74196967D03*
%TO.P,U1,14,SRP*%
%TO.N,Net-(U1-SRP)*%
X71201037Y-74196967D03*
%TO.P,U1,13,SRN*%
%TO.N,Net-(U1-SRN)*%
X70700911Y-74196967D03*
%TO.P,U1,12,FB*%
%TO.N,Net-(U1-FB)*%
X70200785Y-74196967D03*
%TO.P,U1,11,FBG*%
%TO.N,Net-(U1-FBG)*%
X69700659Y-74196967D03*
D15*
%TO.P,U1,10,ILIM_HIZ*%
%TO.N,Batt-*%
X69000000Y-73501134D03*
%TO.P,U1,9,ICHG*%
%TO.N,Net-(U1-ICHG)*%
X69000000Y-73001008D03*
%TO.P,U1,8,TS*%
%TO.N,Net-(U1-TS)*%
X69000000Y-72500882D03*
%TO.P,U1,7,\u002ACE*%
%TO.N,CE*%
X69000000Y-72000756D03*
%TO.P,U1,6,\u002APG*%
%TO.N,Net-(U1-\u002APG)*%
X69000000Y-71500630D03*
%TO.P,U1,5,STAT2*%
%TO.N,Net-(U1-STAT2)*%
X69000000Y-71000504D03*
%TO.P,U1,4,STAT1*%
%TO.N,Net-(U1-STAT1)*%
X69000000Y-70500378D03*
%TO.P,U1,3,\u002AINT*%
%TO.N,INT*%
X69000000Y-70000252D03*
%TO.P,U1,2,SDA*%
%TO.N,SDL*%
X69000000Y-69500126D03*
%TO.P,U1,1,SCL*%
%TO.N,SCL*%
X69000000Y-69000000D03*
%TD*%
M02*
