%TF.GenerationSoftware,KiCad,Pcbnew,8.0.7*%
%TF.CreationDate,2025-01-14T17:05:08-05:00*%
%TF.ProjectId,Circuit Power Module,43697263-7569-4742-9050-6f776572204d,rev?*%
%TF.SameCoordinates,Original*%
%TF.FileFunction,Legend,Top*%
%TF.FilePolarity,Positive*%
%FSLAX46Y46*%
G04 Gerber Fmt 4.6, Leading zero omitted, Abs format (unit mm)*
G04 Created by KiCad (PCBNEW 8.0.7) date 2025-01-14 17:05:08*
%MOMM*%
%LPD*%
G01*
G04 APERTURE LIST*
%ADD10C,0.100000*%
%ADD11C,0.050000*%
%ADD12C,0.150000*%
%ADD13C,0.062500*%
%ADD14C,0.076200*%
%ADD15C,0.254000*%
%ADD16C,0.152400*%
%ADD17C,0.127000*%
%ADD18C,0.200000*%
%ADD19C,0.400000*%
G04 APERTURE END LIST*
D10*
X69050000Y-53960000D02*
X75740000Y-53960000D01*
X75740000Y-54840000D01*
X69050000Y-54840000D01*
X69050000Y-53960000D01*
X69498842Y-68607932D02*
X69520271Y-68565075D01*
X69520271Y-68565075D02*
X69520271Y-68500789D01*
X69520271Y-68500789D02*
X69498842Y-68436503D01*
X69498842Y-68436503D02*
X69455985Y-68393646D01*
X69455985Y-68393646D02*
X69413128Y-68372217D01*
X69413128Y-68372217D02*
X69327414Y-68350789D01*
X69327414Y-68350789D02*
X69263128Y-68350789D01*
X69263128Y-68350789D02*
X69177414Y-68372217D01*
X69177414Y-68372217D02*
X69134557Y-68393646D01*
X69134557Y-68393646D02*
X69091700Y-68436503D01*
X69091700Y-68436503D02*
X69070271Y-68500789D01*
X69070271Y-68500789D02*
X69070271Y-68543646D01*
X69070271Y-68543646D02*
X69091700Y-68607932D01*
X69091700Y-68607932D02*
X69113128Y-68629360D01*
X69113128Y-68629360D02*
X69263128Y-68629360D01*
X69263128Y-68629360D02*
X69263128Y-68543646D01*
X69070271Y-68822217D02*
X69520271Y-68822217D01*
X69520271Y-68822217D02*
X69070271Y-69079360D01*
X69070271Y-69079360D02*
X69520271Y-69079360D01*
X69070271Y-69293646D02*
X69520271Y-69293646D01*
X69520271Y-69293646D02*
X69520271Y-69400789D01*
X69520271Y-69400789D02*
X69498842Y-69465075D01*
X69498842Y-69465075D02*
X69455985Y-69507932D01*
X69455985Y-69507932D02*
X69413128Y-69529361D01*
X69413128Y-69529361D02*
X69327414Y-69550789D01*
X69327414Y-69550789D02*
X69263128Y-69550789D01*
X69263128Y-69550789D02*
X69177414Y-69529361D01*
X69177414Y-69529361D02*
X69134557Y-69507932D01*
X69134557Y-69507932D02*
X69091700Y-69465075D01*
X69091700Y-69465075D02*
X69070271Y-69400789D01*
X69070271Y-69400789D02*
X69070271Y-69293646D01*
X70737218Y-56323609D02*
X70903884Y-56823609D01*
X70903884Y-56823609D02*
X71070551Y-56323609D01*
X71403884Y-56561704D02*
X71475312Y-56585514D01*
X71475312Y-56585514D02*
X71499122Y-56609323D01*
X71499122Y-56609323D02*
X71522931Y-56656942D01*
X71522931Y-56656942D02*
X71522931Y-56728371D01*
X71522931Y-56728371D02*
X71499122Y-56775990D01*
X71499122Y-56775990D02*
X71475312Y-56799800D01*
X71475312Y-56799800D02*
X71427693Y-56823609D01*
X71427693Y-56823609D02*
X71237217Y-56823609D01*
X71237217Y-56823609D02*
X71237217Y-56323609D01*
X71237217Y-56323609D02*
X71403884Y-56323609D01*
X71403884Y-56323609D02*
X71451503Y-56347419D01*
X71451503Y-56347419D02*
X71475312Y-56371228D01*
X71475312Y-56371228D02*
X71499122Y-56418847D01*
X71499122Y-56418847D02*
X71499122Y-56466466D01*
X71499122Y-56466466D02*
X71475312Y-56514085D01*
X71475312Y-56514085D02*
X71451503Y-56537895D01*
X71451503Y-56537895D02*
X71403884Y-56561704D01*
X71403884Y-56561704D02*
X71237217Y-56561704D01*
X71951503Y-56823609D02*
X71951503Y-56561704D01*
X71951503Y-56561704D02*
X71927693Y-56514085D01*
X71927693Y-56514085D02*
X71880074Y-56490276D01*
X71880074Y-56490276D02*
X71784836Y-56490276D01*
X71784836Y-56490276D02*
X71737217Y-56514085D01*
X71951503Y-56799800D02*
X71903884Y-56823609D01*
X71903884Y-56823609D02*
X71784836Y-56823609D01*
X71784836Y-56823609D02*
X71737217Y-56799800D01*
X71737217Y-56799800D02*
X71713408Y-56752180D01*
X71713408Y-56752180D02*
X71713408Y-56704561D01*
X71713408Y-56704561D02*
X71737217Y-56656942D01*
X71737217Y-56656942D02*
X71784836Y-56633133D01*
X71784836Y-56633133D02*
X71903884Y-56633133D01*
X71903884Y-56633133D02*
X71951503Y-56609323D01*
X72118170Y-56490276D02*
X72308646Y-56490276D01*
X72189598Y-56323609D02*
X72189598Y-56752180D01*
X72189598Y-56752180D02*
X72213408Y-56799800D01*
X72213408Y-56799800D02*
X72261027Y-56823609D01*
X72261027Y-56823609D02*
X72308646Y-56823609D01*
X72403884Y-56490276D02*
X72594360Y-56490276D01*
X72475312Y-56323609D02*
X72475312Y-56752180D01*
X72475312Y-56752180D02*
X72499122Y-56799800D01*
X72499122Y-56799800D02*
X72546741Y-56823609D01*
X72546741Y-56823609D02*
X72594360Y-56823609D01*
X93283609Y-64393258D02*
X93783609Y-64226592D01*
X93783609Y-64226592D02*
X93283609Y-64059925D01*
X93759800Y-63917068D02*
X93783609Y-63869449D01*
X93783609Y-63869449D02*
X93783609Y-63774211D01*
X93783609Y-63774211D02*
X93759800Y-63726592D01*
X93759800Y-63726592D02*
X93712180Y-63702783D01*
X93712180Y-63702783D02*
X93688371Y-63702783D01*
X93688371Y-63702783D02*
X93640752Y-63726592D01*
X93640752Y-63726592D02*
X93616942Y-63774211D01*
X93616942Y-63774211D02*
X93616942Y-63845640D01*
X93616942Y-63845640D02*
X93593133Y-63893259D01*
X93593133Y-63893259D02*
X93545514Y-63917068D01*
X93545514Y-63917068D02*
X93521704Y-63917068D01*
X93521704Y-63917068D02*
X93474085Y-63893259D01*
X93474085Y-63893259D02*
X93450276Y-63845640D01*
X93450276Y-63845640D02*
X93450276Y-63774211D01*
X93450276Y-63774211D02*
X93474085Y-63726592D01*
X69490271Y-63115075D02*
X69040271Y-63265075D01*
X69040271Y-63265075D02*
X69490271Y-63415075D01*
X69275985Y-63715074D02*
X69254557Y-63779360D01*
X69254557Y-63779360D02*
X69233128Y-63800789D01*
X69233128Y-63800789D02*
X69190271Y-63822217D01*
X69190271Y-63822217D02*
X69125985Y-63822217D01*
X69125985Y-63822217D02*
X69083128Y-63800789D01*
X69083128Y-63800789D02*
X69061700Y-63779360D01*
X69061700Y-63779360D02*
X69040271Y-63736503D01*
X69040271Y-63736503D02*
X69040271Y-63565074D01*
X69040271Y-63565074D02*
X69490271Y-63565074D01*
X69490271Y-63565074D02*
X69490271Y-63715074D01*
X69490271Y-63715074D02*
X69468842Y-63757932D01*
X69468842Y-63757932D02*
X69447414Y-63779360D01*
X69447414Y-63779360D02*
X69404557Y-63800789D01*
X69404557Y-63800789D02*
X69361700Y-63800789D01*
X69361700Y-63800789D02*
X69318842Y-63779360D01*
X69318842Y-63779360D02*
X69297414Y-63757932D01*
X69297414Y-63757932D02*
X69275985Y-63715074D01*
X69275985Y-63715074D02*
X69275985Y-63565074D01*
X69040271Y-64207932D02*
X69275985Y-64207932D01*
X69275985Y-64207932D02*
X69318842Y-64186503D01*
X69318842Y-64186503D02*
X69340271Y-64143646D01*
X69340271Y-64143646D02*
X69340271Y-64057932D01*
X69340271Y-64057932D02*
X69318842Y-64015074D01*
X69061700Y-64207932D02*
X69040271Y-64165074D01*
X69040271Y-64165074D02*
X69040271Y-64057932D01*
X69040271Y-64057932D02*
X69061700Y-64015074D01*
X69061700Y-64015074D02*
X69104557Y-63993646D01*
X69104557Y-63993646D02*
X69147414Y-63993646D01*
X69147414Y-63993646D02*
X69190271Y-64015074D01*
X69190271Y-64015074D02*
X69211700Y-64057932D01*
X69211700Y-64057932D02*
X69211700Y-64165074D01*
X69211700Y-64165074D02*
X69233128Y-64207932D01*
X69340271Y-64357932D02*
X69340271Y-64529360D01*
X69490271Y-64422217D02*
X69104557Y-64422217D01*
X69104557Y-64422217D02*
X69061700Y-64443646D01*
X69061700Y-64443646D02*
X69040271Y-64486503D01*
X69040271Y-64486503D02*
X69040271Y-64529360D01*
X69340271Y-64615075D02*
X69340271Y-64786503D01*
X69490271Y-64679360D02*
X69104557Y-64679360D01*
X69104557Y-64679360D02*
X69061700Y-64700789D01*
X69061700Y-64700789D02*
X69040271Y-64743646D01*
X69040271Y-64743646D02*
X69040271Y-64786503D01*
D11*
X69334798Y-54540352D02*
X69325274Y-54559400D01*
X69325274Y-54559400D02*
X69296703Y-54578447D01*
X69296703Y-54578447D02*
X69277655Y-54578447D01*
X69277655Y-54578447D02*
X69249084Y-54559400D01*
X69249084Y-54559400D02*
X69230036Y-54521304D01*
X69230036Y-54521304D02*
X69220513Y-54483209D01*
X69220513Y-54483209D02*
X69210989Y-54407019D01*
X69210989Y-54407019D02*
X69210989Y-54349876D01*
X69210989Y-54349876D02*
X69220513Y-54273685D01*
X69220513Y-54273685D02*
X69230036Y-54235590D01*
X69230036Y-54235590D02*
X69249084Y-54197495D01*
X69249084Y-54197495D02*
X69277655Y-54178447D01*
X69277655Y-54178447D02*
X69296703Y-54178447D01*
X69296703Y-54178447D02*
X69325274Y-54197495D01*
X69325274Y-54197495D02*
X69334798Y-54216542D01*
X69420513Y-54578447D02*
X69420513Y-54311780D01*
X69420513Y-54178447D02*
X69410989Y-54197495D01*
X69410989Y-54197495D02*
X69420513Y-54216542D01*
X69420513Y-54216542D02*
X69430036Y-54197495D01*
X69430036Y-54197495D02*
X69420513Y-54178447D01*
X69420513Y-54178447D02*
X69420513Y-54216542D01*
X69515751Y-54578447D02*
X69515751Y-54311780D01*
X69515751Y-54387971D02*
X69525274Y-54349876D01*
X69525274Y-54349876D02*
X69534798Y-54330828D01*
X69534798Y-54330828D02*
X69553846Y-54311780D01*
X69553846Y-54311780D02*
X69572893Y-54311780D01*
X69725275Y-54559400D02*
X69706227Y-54578447D01*
X69706227Y-54578447D02*
X69668132Y-54578447D01*
X69668132Y-54578447D02*
X69649084Y-54559400D01*
X69649084Y-54559400D02*
X69639561Y-54540352D01*
X69639561Y-54540352D02*
X69630037Y-54502257D01*
X69630037Y-54502257D02*
X69630037Y-54387971D01*
X69630037Y-54387971D02*
X69639561Y-54349876D01*
X69639561Y-54349876D02*
X69649084Y-54330828D01*
X69649084Y-54330828D02*
X69668132Y-54311780D01*
X69668132Y-54311780D02*
X69706227Y-54311780D01*
X69706227Y-54311780D02*
X69725275Y-54330828D01*
X69896704Y-54311780D02*
X69896704Y-54578447D01*
X69810990Y-54311780D02*
X69810990Y-54521304D01*
X69810990Y-54521304D02*
X69820513Y-54559400D01*
X69820513Y-54559400D02*
X69839561Y-54578447D01*
X69839561Y-54578447D02*
X69868132Y-54578447D01*
X69868132Y-54578447D02*
X69887180Y-54559400D01*
X69887180Y-54559400D02*
X69896704Y-54540352D01*
X69991942Y-54578447D02*
X69991942Y-54311780D01*
X69991942Y-54178447D02*
X69982418Y-54197495D01*
X69982418Y-54197495D02*
X69991942Y-54216542D01*
X69991942Y-54216542D02*
X70001465Y-54197495D01*
X70001465Y-54197495D02*
X69991942Y-54178447D01*
X69991942Y-54178447D02*
X69991942Y-54216542D01*
X70058608Y-54311780D02*
X70134799Y-54311780D01*
X70087180Y-54178447D02*
X70087180Y-54521304D01*
X70087180Y-54521304D02*
X70096703Y-54559400D01*
X70096703Y-54559400D02*
X70115751Y-54578447D01*
X70115751Y-54578447D02*
X70134799Y-54578447D01*
X70353847Y-54578447D02*
X70353847Y-54178447D01*
X70353847Y-54178447D02*
X70430037Y-54178447D01*
X70430037Y-54178447D02*
X70449085Y-54197495D01*
X70449085Y-54197495D02*
X70458608Y-54216542D01*
X70458608Y-54216542D02*
X70468132Y-54254638D01*
X70468132Y-54254638D02*
X70468132Y-54311780D01*
X70468132Y-54311780D02*
X70458608Y-54349876D01*
X70458608Y-54349876D02*
X70449085Y-54368923D01*
X70449085Y-54368923D02*
X70430037Y-54387971D01*
X70430037Y-54387971D02*
X70353847Y-54387971D01*
X70582418Y-54578447D02*
X70563370Y-54559400D01*
X70563370Y-54559400D02*
X70553847Y-54540352D01*
X70553847Y-54540352D02*
X70544323Y-54502257D01*
X70544323Y-54502257D02*
X70544323Y-54387971D01*
X70544323Y-54387971D02*
X70553847Y-54349876D01*
X70553847Y-54349876D02*
X70563370Y-54330828D01*
X70563370Y-54330828D02*
X70582418Y-54311780D01*
X70582418Y-54311780D02*
X70610989Y-54311780D01*
X70610989Y-54311780D02*
X70630037Y-54330828D01*
X70630037Y-54330828D02*
X70639561Y-54349876D01*
X70639561Y-54349876D02*
X70649085Y-54387971D01*
X70649085Y-54387971D02*
X70649085Y-54502257D01*
X70649085Y-54502257D02*
X70639561Y-54540352D01*
X70639561Y-54540352D02*
X70630037Y-54559400D01*
X70630037Y-54559400D02*
X70610989Y-54578447D01*
X70610989Y-54578447D02*
X70582418Y-54578447D01*
X70715751Y-54311780D02*
X70753846Y-54578447D01*
X70753846Y-54578447D02*
X70791941Y-54387971D01*
X70791941Y-54387971D02*
X70830037Y-54578447D01*
X70830037Y-54578447D02*
X70868132Y-54311780D01*
X71020513Y-54559400D02*
X71001465Y-54578447D01*
X71001465Y-54578447D02*
X70963370Y-54578447D01*
X70963370Y-54578447D02*
X70944323Y-54559400D01*
X70944323Y-54559400D02*
X70934799Y-54521304D01*
X70934799Y-54521304D02*
X70934799Y-54368923D01*
X70934799Y-54368923D02*
X70944323Y-54330828D01*
X70944323Y-54330828D02*
X70963370Y-54311780D01*
X70963370Y-54311780D02*
X71001465Y-54311780D01*
X71001465Y-54311780D02*
X71020513Y-54330828D01*
X71020513Y-54330828D02*
X71030037Y-54368923D01*
X71030037Y-54368923D02*
X71030037Y-54407019D01*
X71030037Y-54407019D02*
X70934799Y-54445114D01*
X71115752Y-54578447D02*
X71115752Y-54311780D01*
X71115752Y-54387971D02*
X71125275Y-54349876D01*
X71125275Y-54349876D02*
X71134799Y-54330828D01*
X71134799Y-54330828D02*
X71153847Y-54311780D01*
X71153847Y-54311780D02*
X71172894Y-54311780D01*
X71391943Y-54578447D02*
X71391943Y-54178447D01*
X71391943Y-54178447D02*
X71458609Y-54464161D01*
X71458609Y-54464161D02*
X71525276Y-54178447D01*
X71525276Y-54178447D02*
X71525276Y-54578447D01*
X71649085Y-54578447D02*
X71630037Y-54559400D01*
X71630037Y-54559400D02*
X71620514Y-54540352D01*
X71620514Y-54540352D02*
X71610990Y-54502257D01*
X71610990Y-54502257D02*
X71610990Y-54387971D01*
X71610990Y-54387971D02*
X71620514Y-54349876D01*
X71620514Y-54349876D02*
X71630037Y-54330828D01*
X71630037Y-54330828D02*
X71649085Y-54311780D01*
X71649085Y-54311780D02*
X71677656Y-54311780D01*
X71677656Y-54311780D02*
X71696704Y-54330828D01*
X71696704Y-54330828D02*
X71706228Y-54349876D01*
X71706228Y-54349876D02*
X71715752Y-54387971D01*
X71715752Y-54387971D02*
X71715752Y-54502257D01*
X71715752Y-54502257D02*
X71706228Y-54540352D01*
X71706228Y-54540352D02*
X71696704Y-54559400D01*
X71696704Y-54559400D02*
X71677656Y-54578447D01*
X71677656Y-54578447D02*
X71649085Y-54578447D01*
X71887180Y-54578447D02*
X71887180Y-54178447D01*
X71887180Y-54559400D02*
X71868132Y-54578447D01*
X71868132Y-54578447D02*
X71830037Y-54578447D01*
X71830037Y-54578447D02*
X71810989Y-54559400D01*
X71810989Y-54559400D02*
X71801466Y-54540352D01*
X71801466Y-54540352D02*
X71791942Y-54502257D01*
X71791942Y-54502257D02*
X71791942Y-54387971D01*
X71791942Y-54387971D02*
X71801466Y-54349876D01*
X71801466Y-54349876D02*
X71810989Y-54330828D01*
X71810989Y-54330828D02*
X71830037Y-54311780D01*
X71830037Y-54311780D02*
X71868132Y-54311780D01*
X71868132Y-54311780D02*
X71887180Y-54330828D01*
X72068132Y-54311780D02*
X72068132Y-54578447D01*
X71982418Y-54311780D02*
X71982418Y-54521304D01*
X71982418Y-54521304D02*
X71991941Y-54559400D01*
X71991941Y-54559400D02*
X72010989Y-54578447D01*
X72010989Y-54578447D02*
X72039560Y-54578447D01*
X72039560Y-54578447D02*
X72058608Y-54559400D01*
X72058608Y-54559400D02*
X72068132Y-54540352D01*
X72191941Y-54578447D02*
X72172893Y-54559400D01*
X72172893Y-54559400D02*
X72163370Y-54521304D01*
X72163370Y-54521304D02*
X72163370Y-54178447D01*
X72344322Y-54559400D02*
X72325274Y-54578447D01*
X72325274Y-54578447D02*
X72287179Y-54578447D01*
X72287179Y-54578447D02*
X72268132Y-54559400D01*
X72268132Y-54559400D02*
X72258608Y-54521304D01*
X72258608Y-54521304D02*
X72258608Y-54368923D01*
X72258608Y-54368923D02*
X72268132Y-54330828D01*
X72268132Y-54330828D02*
X72287179Y-54311780D01*
X72287179Y-54311780D02*
X72325274Y-54311780D01*
X72325274Y-54311780D02*
X72344322Y-54330828D01*
X72344322Y-54330828D02*
X72353846Y-54368923D01*
X72353846Y-54368923D02*
X72353846Y-54407019D01*
X72353846Y-54407019D02*
X72258608Y-54445114D01*
X72563370Y-54178447D02*
X72630037Y-54578447D01*
X72630037Y-54578447D02*
X72696703Y-54178447D01*
X72868132Y-54578447D02*
X72753847Y-54578447D01*
X72810990Y-54578447D02*
X72810990Y-54178447D01*
X72810990Y-54178447D02*
X72791942Y-54235590D01*
X72791942Y-54235590D02*
X72772894Y-54273685D01*
X72772894Y-54273685D02*
X72753847Y-54292733D01*
X72953847Y-54540352D02*
X72963370Y-54559400D01*
X72963370Y-54559400D02*
X72953847Y-54578447D01*
X72953847Y-54578447D02*
X72944323Y-54559400D01*
X72944323Y-54559400D02*
X72953847Y-54540352D01*
X72953847Y-54540352D02*
X72953847Y-54578447D01*
X73087180Y-54178447D02*
X73106227Y-54178447D01*
X73106227Y-54178447D02*
X73125275Y-54197495D01*
X73125275Y-54197495D02*
X73134799Y-54216542D01*
X73134799Y-54216542D02*
X73144323Y-54254638D01*
X73144323Y-54254638D02*
X73153846Y-54330828D01*
X73153846Y-54330828D02*
X73153846Y-54426066D01*
X73153846Y-54426066D02*
X73144323Y-54502257D01*
X73144323Y-54502257D02*
X73134799Y-54540352D01*
X73134799Y-54540352D02*
X73125275Y-54559400D01*
X73125275Y-54559400D02*
X73106227Y-54578447D01*
X73106227Y-54578447D02*
X73087180Y-54578447D01*
X73087180Y-54578447D02*
X73068132Y-54559400D01*
X73068132Y-54559400D02*
X73058608Y-54540352D01*
X73058608Y-54540352D02*
X73049085Y-54502257D01*
X73049085Y-54502257D02*
X73039561Y-54426066D01*
X73039561Y-54426066D02*
X73039561Y-54330828D01*
X73039561Y-54330828D02*
X73049085Y-54254638D01*
X73049085Y-54254638D02*
X73058608Y-54216542D01*
X73058608Y-54216542D02*
X73068132Y-54197495D01*
X73068132Y-54197495D02*
X73087180Y-54178447D01*
X73439561Y-54711780D02*
X73439561Y-54140352D01*
X73801465Y-54368923D02*
X73830037Y-54387971D01*
X73830037Y-54387971D02*
X73839560Y-54407019D01*
X73839560Y-54407019D02*
X73849084Y-54445114D01*
X73849084Y-54445114D02*
X73849084Y-54502257D01*
X73849084Y-54502257D02*
X73839560Y-54540352D01*
X73839560Y-54540352D02*
X73830037Y-54559400D01*
X73830037Y-54559400D02*
X73810989Y-54578447D01*
X73810989Y-54578447D02*
X73734799Y-54578447D01*
X73734799Y-54578447D02*
X73734799Y-54178447D01*
X73734799Y-54178447D02*
X73801465Y-54178447D01*
X73801465Y-54178447D02*
X73820513Y-54197495D01*
X73820513Y-54197495D02*
X73830037Y-54216542D01*
X73830037Y-54216542D02*
X73839560Y-54254638D01*
X73839560Y-54254638D02*
X73839560Y-54292733D01*
X73839560Y-54292733D02*
X73830037Y-54330828D01*
X73830037Y-54330828D02*
X73820513Y-54349876D01*
X73820513Y-54349876D02*
X73801465Y-54368923D01*
X73801465Y-54368923D02*
X73734799Y-54368923D01*
X73934799Y-54540352D02*
X73944322Y-54559400D01*
X73944322Y-54559400D02*
X73934799Y-54578447D01*
X73934799Y-54578447D02*
X73925275Y-54559400D01*
X73925275Y-54559400D02*
X73934799Y-54540352D01*
X73934799Y-54540352D02*
X73934799Y-54578447D01*
X74096703Y-54368923D02*
X74030037Y-54368923D01*
X74030037Y-54578447D02*
X74030037Y-54178447D01*
X74030037Y-54178447D02*
X74125275Y-54178447D01*
X74201466Y-54540352D02*
X74210989Y-54559400D01*
X74210989Y-54559400D02*
X74201466Y-54578447D01*
X74201466Y-54578447D02*
X74191942Y-54559400D01*
X74191942Y-54559400D02*
X74201466Y-54540352D01*
X74201466Y-54540352D02*
X74201466Y-54578447D01*
X74506227Y-54178447D02*
X74506227Y-54464161D01*
X74506227Y-54464161D02*
X74496704Y-54521304D01*
X74496704Y-54521304D02*
X74477656Y-54559400D01*
X74477656Y-54559400D02*
X74449085Y-54578447D01*
X74449085Y-54578447D02*
X74430037Y-54578447D01*
X74687180Y-54578447D02*
X74687180Y-54368923D01*
X74687180Y-54368923D02*
X74677656Y-54330828D01*
X74677656Y-54330828D02*
X74658608Y-54311780D01*
X74658608Y-54311780D02*
X74620513Y-54311780D01*
X74620513Y-54311780D02*
X74601466Y-54330828D01*
X74687180Y-54559400D02*
X74668132Y-54578447D01*
X74668132Y-54578447D02*
X74620513Y-54578447D01*
X74620513Y-54578447D02*
X74601466Y-54559400D01*
X74601466Y-54559400D02*
X74591942Y-54521304D01*
X74591942Y-54521304D02*
X74591942Y-54483209D01*
X74591942Y-54483209D02*
X74601466Y-54445114D01*
X74601466Y-54445114D02*
X74620513Y-54426066D01*
X74620513Y-54426066D02*
X74668132Y-54426066D01*
X74668132Y-54426066D02*
X74687180Y-54407019D01*
X74782418Y-54311780D02*
X74782418Y-54578447D01*
X74782418Y-54349876D02*
X74791941Y-54330828D01*
X74791941Y-54330828D02*
X74810989Y-54311780D01*
X74810989Y-54311780D02*
X74839560Y-54311780D01*
X74839560Y-54311780D02*
X74858608Y-54330828D01*
X74858608Y-54330828D02*
X74868132Y-54368923D01*
X74868132Y-54368923D02*
X74868132Y-54578447D01*
X74963370Y-54540352D02*
X74972893Y-54559400D01*
X74972893Y-54559400D02*
X74963370Y-54578447D01*
X74963370Y-54578447D02*
X74953846Y-54559400D01*
X74953846Y-54559400D02*
X74963370Y-54540352D01*
X74963370Y-54540352D02*
X74963370Y-54578447D01*
X75220512Y-54178447D02*
X75201465Y-54254638D01*
X75296703Y-54216542D02*
X75306227Y-54197495D01*
X75306227Y-54197495D02*
X75325274Y-54178447D01*
X75325274Y-54178447D02*
X75372893Y-54178447D01*
X75372893Y-54178447D02*
X75391941Y-54197495D01*
X75391941Y-54197495D02*
X75401465Y-54216542D01*
X75401465Y-54216542D02*
X75410988Y-54254638D01*
X75410988Y-54254638D02*
X75410988Y-54292733D01*
X75410988Y-54292733D02*
X75401465Y-54349876D01*
X75401465Y-54349876D02*
X75287179Y-54578447D01*
X75287179Y-54578447D02*
X75410988Y-54578447D01*
X75591941Y-54178447D02*
X75496703Y-54178447D01*
X75496703Y-54178447D02*
X75487179Y-54368923D01*
X75487179Y-54368923D02*
X75496703Y-54349876D01*
X75496703Y-54349876D02*
X75515750Y-54330828D01*
X75515750Y-54330828D02*
X75563369Y-54330828D01*
X75563369Y-54330828D02*
X75582417Y-54349876D01*
X75582417Y-54349876D02*
X75591941Y-54368923D01*
X75591941Y-54368923D02*
X75601464Y-54407019D01*
X75601464Y-54407019D02*
X75601464Y-54502257D01*
X75601464Y-54502257D02*
X75591941Y-54540352D01*
X75591941Y-54540352D02*
X75582417Y-54559400D01*
X75582417Y-54559400D02*
X75563369Y-54578447D01*
X75563369Y-54578447D02*
X75515750Y-54578447D01*
X75515750Y-54578447D02*
X75496703Y-54559400D01*
X75496703Y-54559400D02*
X75487179Y-54540352D01*
D10*
X82616741Y-69927419D02*
X82569122Y-69903609D01*
X82569122Y-69903609D02*
X82497693Y-69903609D01*
X82497693Y-69903609D02*
X82426265Y-69927419D01*
X82426265Y-69927419D02*
X82378646Y-69975038D01*
X82378646Y-69975038D02*
X82354836Y-70022657D01*
X82354836Y-70022657D02*
X82331027Y-70117895D01*
X82331027Y-70117895D02*
X82331027Y-70189323D01*
X82331027Y-70189323D02*
X82354836Y-70284561D01*
X82354836Y-70284561D02*
X82378646Y-70332180D01*
X82378646Y-70332180D02*
X82426265Y-70379800D01*
X82426265Y-70379800D02*
X82497693Y-70403609D01*
X82497693Y-70403609D02*
X82545312Y-70403609D01*
X82545312Y-70403609D02*
X82616741Y-70379800D01*
X82616741Y-70379800D02*
X82640550Y-70355990D01*
X82640550Y-70355990D02*
X82640550Y-70189323D01*
X82640550Y-70189323D02*
X82545312Y-70189323D01*
X82854836Y-70403609D02*
X82854836Y-69903609D01*
X82854836Y-69903609D02*
X83140550Y-70403609D01*
X83140550Y-70403609D02*
X83140550Y-69903609D01*
X83378646Y-70403609D02*
X83378646Y-69903609D01*
X83378646Y-69903609D02*
X83497694Y-69903609D01*
X83497694Y-69903609D02*
X83569122Y-69927419D01*
X83569122Y-69927419D02*
X83616741Y-69975038D01*
X83616741Y-69975038D02*
X83640551Y-70022657D01*
X83640551Y-70022657D02*
X83664360Y-70117895D01*
X83664360Y-70117895D02*
X83664360Y-70189323D01*
X83664360Y-70189323D02*
X83640551Y-70284561D01*
X83640551Y-70284561D02*
X83616741Y-70332180D01*
X83616741Y-70332180D02*
X83569122Y-70379800D01*
X83569122Y-70379800D02*
X83497694Y-70403609D01*
X83497694Y-70403609D02*
X83378646Y-70403609D01*
X93307419Y-69405163D02*
X93283609Y-69452782D01*
X93283609Y-69452782D02*
X93283609Y-69524211D01*
X93283609Y-69524211D02*
X93307419Y-69595639D01*
X93307419Y-69595639D02*
X93355038Y-69643258D01*
X93355038Y-69643258D02*
X93402657Y-69667068D01*
X93402657Y-69667068D02*
X93497895Y-69690877D01*
X93497895Y-69690877D02*
X93569323Y-69690877D01*
X93569323Y-69690877D02*
X93664561Y-69667068D01*
X93664561Y-69667068D02*
X93712180Y-69643258D01*
X93712180Y-69643258D02*
X93759800Y-69595639D01*
X93759800Y-69595639D02*
X93783609Y-69524211D01*
X93783609Y-69524211D02*
X93783609Y-69476592D01*
X93783609Y-69476592D02*
X93759800Y-69405163D01*
X93759800Y-69405163D02*
X93735990Y-69381354D01*
X93735990Y-69381354D02*
X93569323Y-69381354D01*
X93569323Y-69381354D02*
X93569323Y-69476592D01*
X93783609Y-69167068D02*
X93283609Y-69167068D01*
X93283609Y-69167068D02*
X93783609Y-68881354D01*
X93783609Y-68881354D02*
X93283609Y-68881354D01*
X93783609Y-68643258D02*
X93283609Y-68643258D01*
X93283609Y-68643258D02*
X93283609Y-68524210D01*
X93283609Y-68524210D02*
X93307419Y-68452782D01*
X93307419Y-68452782D02*
X93355038Y-68405163D01*
X93355038Y-68405163D02*
X93402657Y-68381353D01*
X93402657Y-68381353D02*
X93497895Y-68357544D01*
X93497895Y-68357544D02*
X93569323Y-68357544D01*
X93569323Y-68357544D02*
X93664561Y-68381353D01*
X93664561Y-68381353D02*
X93712180Y-68405163D01*
X93712180Y-68405163D02*
X93759800Y-68452782D01*
X93759800Y-68452782D02*
X93783609Y-68524210D01*
X93783609Y-68524210D02*
X93783609Y-68643258D01*
D12*
X74082268Y-57620057D02*
X74129887Y-57572438D01*
X74129887Y-57572438D02*
X74225125Y-57524819D01*
X74225125Y-57524819D02*
X74463220Y-57524819D01*
X74463220Y-57524819D02*
X74558458Y-57572438D01*
X74558458Y-57572438D02*
X74606077Y-57620057D01*
X74606077Y-57620057D02*
X74653696Y-57715295D01*
X74653696Y-57715295D02*
X74653696Y-57810533D01*
X74653696Y-57810533D02*
X74606077Y-57953390D01*
X74606077Y-57953390D02*
X74034649Y-58524819D01*
X74034649Y-58524819D02*
X74653696Y-58524819D01*
X75034649Y-58239104D02*
X75510839Y-58239104D01*
X74939411Y-58524819D02*
X75272744Y-57524819D01*
X75272744Y-57524819D02*
X75606077Y-58524819D01*
D10*
X81283333Y-65041752D02*
X81264285Y-65060800D01*
X81264285Y-65060800D02*
X81207143Y-65079847D01*
X81207143Y-65079847D02*
X81169047Y-65079847D01*
X81169047Y-65079847D02*
X81111904Y-65060800D01*
X81111904Y-65060800D02*
X81073809Y-65022704D01*
X81073809Y-65022704D02*
X81054762Y-64984609D01*
X81054762Y-64984609D02*
X81035714Y-64908419D01*
X81035714Y-64908419D02*
X81035714Y-64851276D01*
X81035714Y-64851276D02*
X81054762Y-64775085D01*
X81054762Y-64775085D02*
X81073809Y-64736990D01*
X81073809Y-64736990D02*
X81111904Y-64698895D01*
X81111904Y-64698895D02*
X81169047Y-64679847D01*
X81169047Y-64679847D02*
X81207143Y-64679847D01*
X81207143Y-64679847D02*
X81264285Y-64698895D01*
X81264285Y-64698895D02*
X81283333Y-64717942D01*
X81435714Y-64717942D02*
X81454762Y-64698895D01*
X81454762Y-64698895D02*
X81492857Y-64679847D01*
X81492857Y-64679847D02*
X81588095Y-64679847D01*
X81588095Y-64679847D02*
X81626190Y-64698895D01*
X81626190Y-64698895D02*
X81645238Y-64717942D01*
X81645238Y-64717942D02*
X81664285Y-64756038D01*
X81664285Y-64756038D02*
X81664285Y-64794133D01*
X81664285Y-64794133D02*
X81645238Y-64851276D01*
X81645238Y-64851276D02*
X81416666Y-65079847D01*
X81416666Y-65079847D02*
X81664285Y-65079847D01*
D13*
X81054762Y-67611797D02*
X81054762Y-67211797D01*
X81054762Y-67211797D02*
X81150000Y-67211797D01*
X81150000Y-67211797D02*
X81207143Y-67230845D01*
X81207143Y-67230845D02*
X81245238Y-67268940D01*
X81245238Y-67268940D02*
X81264285Y-67307035D01*
X81264285Y-67307035D02*
X81283333Y-67383226D01*
X81283333Y-67383226D02*
X81283333Y-67440369D01*
X81283333Y-67440369D02*
X81264285Y-67516559D01*
X81264285Y-67516559D02*
X81245238Y-67554654D01*
X81245238Y-67554654D02*
X81207143Y-67592750D01*
X81207143Y-67592750D02*
X81150000Y-67611797D01*
X81150000Y-67611797D02*
X81054762Y-67611797D01*
X81664285Y-67611797D02*
X81435714Y-67611797D01*
X81550000Y-67611797D02*
X81550000Y-67211797D01*
X81550000Y-67211797D02*
X81511904Y-67268940D01*
X81511904Y-67268940D02*
X81473809Y-67307035D01*
X81473809Y-67307035D02*
X81435714Y-67326083D01*
D12*
X70892381Y-55328276D02*
X71258095Y-55328276D01*
X71075238Y-55968276D02*
X71075238Y-55328276D01*
X71471428Y-55968276D02*
X71471428Y-55328276D01*
X71471428Y-55328276D02*
X71715238Y-55328276D01*
X71715238Y-55328276D02*
X71776190Y-55358752D01*
X71776190Y-55358752D02*
X71806667Y-55389228D01*
X71806667Y-55389228D02*
X71837143Y-55450180D01*
X71837143Y-55450180D02*
X71837143Y-55541609D01*
X71837143Y-55541609D02*
X71806667Y-55602561D01*
X71806667Y-55602561D02*
X71776190Y-55633038D01*
X71776190Y-55633038D02*
X71715238Y-55663514D01*
X71715238Y-55663514D02*
X71471428Y-55663514D01*
X72446667Y-55968276D02*
X72080952Y-55968276D01*
X72263809Y-55968276D02*
X72263809Y-55328276D01*
X72263809Y-55328276D02*
X72202857Y-55419704D01*
X72202857Y-55419704D02*
X72141905Y-55480657D01*
X72141905Y-55480657D02*
X72080952Y-55511133D01*
X83590000Y-67309164D02*
X83590000Y-67844878D01*
X83590000Y-67844878D02*
X83554285Y-67952021D01*
X83554285Y-67952021D02*
X83482857Y-68023450D01*
X83482857Y-68023450D02*
X83375714Y-68059164D01*
X83375714Y-68059164D02*
X83304285Y-68059164D01*
X83911429Y-67380592D02*
X83947143Y-67344878D01*
X83947143Y-67344878D02*
X84018572Y-67309164D01*
X84018572Y-67309164D02*
X84197143Y-67309164D01*
X84197143Y-67309164D02*
X84268572Y-67344878D01*
X84268572Y-67344878D02*
X84304286Y-67380592D01*
X84304286Y-67380592D02*
X84340000Y-67452021D01*
X84340000Y-67452021D02*
X84340000Y-67523450D01*
X84340000Y-67523450D02*
X84304286Y-67630592D01*
X84304286Y-67630592D02*
X83875714Y-68059164D01*
X83875714Y-68059164D02*
X84340000Y-68059164D01*
X78620000Y-67309164D02*
X78620000Y-67844878D01*
X78620000Y-67844878D02*
X78584285Y-67952021D01*
X78584285Y-67952021D02*
X78512857Y-68023450D01*
X78512857Y-68023450D02*
X78405714Y-68059164D01*
X78405714Y-68059164D02*
X78334285Y-68059164D01*
X79370000Y-68059164D02*
X78941429Y-68059164D01*
X79155714Y-68059164D02*
X79155714Y-67309164D01*
X79155714Y-67309164D02*
X79084286Y-67416307D01*
X79084286Y-67416307D02*
X79012857Y-67487735D01*
X79012857Y-67487735D02*
X78941429Y-67523450D01*
X74463220Y-56571009D02*
X74129887Y-56571009D01*
X74129887Y-57094819D02*
X74129887Y-56094819D01*
X74129887Y-56094819D02*
X74606077Y-56094819D01*
X75510839Y-57094819D02*
X74939411Y-57094819D01*
X75225125Y-57094819D02*
X75225125Y-56094819D01*
X75225125Y-56094819D02*
X75129887Y-56237676D01*
X75129887Y-56237676D02*
X75034649Y-56332914D01*
X75034649Y-56332914D02*
X74939411Y-56380533D01*
X82102381Y-68908276D02*
X82468095Y-68908276D01*
X82285238Y-69548276D02*
X82285238Y-68908276D01*
X82681428Y-69548276D02*
X82681428Y-68908276D01*
X82681428Y-68908276D02*
X82925238Y-68908276D01*
X82925238Y-68908276D02*
X82986190Y-68938752D01*
X82986190Y-68938752D02*
X83016667Y-68969228D01*
X83016667Y-68969228D02*
X83047143Y-69030180D01*
X83047143Y-69030180D02*
X83047143Y-69121609D01*
X83047143Y-69121609D02*
X83016667Y-69182561D01*
X83016667Y-69182561D02*
X82986190Y-69213038D01*
X82986190Y-69213038D02*
X82925238Y-69243514D01*
X82925238Y-69243514D02*
X82681428Y-69243514D01*
X83290952Y-68969228D02*
X83321428Y-68938752D01*
X83321428Y-68938752D02*
X83382381Y-68908276D01*
X83382381Y-68908276D02*
X83534762Y-68908276D01*
X83534762Y-68908276D02*
X83595714Y-68938752D01*
X83595714Y-68938752D02*
X83626190Y-68969228D01*
X83626190Y-68969228D02*
X83656667Y-69030180D01*
X83656667Y-69030180D02*
X83656667Y-69091133D01*
X83656667Y-69091133D02*
X83626190Y-69182561D01*
X83626190Y-69182561D02*
X83260476Y-69548276D01*
X83260476Y-69548276D02*
X83656667Y-69548276D01*
D14*
%TO.C,REF\u002A\u002A*%
X68710000Y-72004150D02*
X68710000Y-74544150D01*
X68710000Y-72004150D02*
X94110000Y-72004150D01*
X94110000Y-72004150D02*
X94110000Y-74544150D01*
X94110000Y-74544150D02*
X68710000Y-74544150D01*
D15*
X69091000Y-71623150D02*
G75*
G02*
X68837000Y-71623150I-127000J0D01*
G01*
X68837000Y-71623150D02*
G75*
G02*
X69091000Y-71623150I127000J0D01*
G01*
D14*
X68710000Y-50734150D02*
X68710000Y-53274150D01*
X68710000Y-50734150D02*
X94110000Y-50734150D01*
X94110000Y-50734150D02*
X94110000Y-53274150D01*
X94110000Y-53274150D02*
X68710000Y-53274150D01*
D15*
X69091000Y-50353150D02*
G75*
G02*
X68837000Y-50353150I-127000J0D01*
G01*
X68837000Y-50353150D02*
G75*
G02*
X69091000Y-50353150I127000J0D01*
G01*
D16*
%TO.C,C2*%
X80587447Y-64413100D02*
X81953751Y-64413100D01*
X81953751Y-61659100D02*
X80587447Y-61659100D01*
X84343800Y-63036100D02*
G75*
G02*
X84191400Y-63036100I-76200J0D01*
G01*
X84191400Y-63036100D02*
G75*
G02*
X84343800Y-63036100I76200J0D01*
G01*
D17*
%TO.C,D1*%
X80545000Y-65470000D02*
X82205000Y-65470000D01*
X80545000Y-66970000D02*
X82205000Y-66970000D01*
D18*
X78475000Y-66220000D02*
G75*
G02*
X78275000Y-66220000I-100000J0D01*
G01*
X78275000Y-66220000D02*
G75*
G02*
X78475000Y-66220000I100000J0D01*
G01*
D17*
%TO.C,TP1*%
X73290000Y-59000000D02*
G75*
G02*
X70110000Y-59000000I-1590000J0D01*
G01*
X70110000Y-59000000D02*
G75*
G02*
X73290000Y-59000000I1590000J0D01*
G01*
D18*
%TO.C,J2*%
X84940000Y-61310000D02*
X92640000Y-61310000D01*
X84940000Y-71510000D02*
X84940000Y-61310000D01*
X92640000Y-61310000D02*
X92640000Y-71510000D01*
X92640000Y-71510000D02*
X84940000Y-71510000D01*
D19*
X90540000Y-63010000D02*
G75*
G02*
X90340000Y-63010000I-100000J0D01*
G01*
X90340000Y-63010000D02*
G75*
G02*
X90540000Y-63010000I100000J0D01*
G01*
D18*
%TO.C,J1*%
X70200000Y-61310000D02*
X77900000Y-61310000D01*
X70200000Y-71510000D02*
X70200000Y-61310000D01*
X77900000Y-61310000D02*
X77900000Y-71510000D01*
X77900000Y-71510000D02*
X70200000Y-71510000D01*
D19*
X72500000Y-69810000D02*
G75*
G02*
X72300000Y-69810000I-100000J0D01*
G01*
X72300000Y-69810000D02*
G75*
G02*
X72500000Y-69810000I100000J0D01*
G01*
D16*
%TO.C,F1*%
X76162000Y-53617500D02*
X76162000Y-60602500D01*
X92418000Y-53617500D02*
X76162000Y-53617500D01*
X92418000Y-53617500D02*
X92418000Y-60602500D01*
X92418000Y-60602500D02*
X76162000Y-60602500D01*
D17*
%TO.C,TP2*%
X81680000Y-69860000D02*
G75*
G02*
X78500000Y-69860000I-1590000J0D01*
G01*
X78500000Y-69860000D02*
G75*
G02*
X81680000Y-69860000I1590000J0D01*
G01*
%TD*%
M02*
