%TF.GenerationSoftware,KiCad,Pcbnew,8.0.8*%
%TF.CreationDate,2025-04-18T10:54:44-04:00*%
%TF.ProjectId,RTDS Control Module V4.0,52544453-2043-46f6-9e74-726f6c204d6f,rev?*%
%TF.SameCoordinates,Original*%
%TF.FileFunction,Legend,Top*%
%TF.FilePolarity,Positive*%
%FSLAX46Y46*%
G04 Gerber Fmt 4.6, Leading zero omitted, Abs format (unit mm)*
G04 Created by KiCad (PCBNEW 8.0.8) date 2025-04-18 10:54:44*
%MOMM*%
%LPD*%
G01*
G04 APERTURE LIST*
%ADD10C,0.150000*%
%ADD11C,0.100000*%
%ADD12C,0.120000*%
%ADD13C,0.152400*%
%ADD14C,0.127000*%
%ADD15C,0.200000*%
%ADD16C,0.076200*%
%ADD17C,0.254000*%
G04 APERTURE END LIST*
D10*
X59142856Y-49154819D02*
X58799999Y-49154819D01*
X58971428Y-49154819D02*
X58971428Y-48154819D01*
X58971428Y-48154819D02*
X58914285Y-48297676D01*
X58914285Y-48297676D02*
X58857142Y-48392914D01*
X58857142Y-48392914D02*
X58799999Y-48440533D01*
X59514285Y-48154819D02*
X59571428Y-48154819D01*
X59571428Y-48154819D02*
X59628571Y-48202438D01*
X59628571Y-48202438D02*
X59657143Y-48250057D01*
X59657143Y-48250057D02*
X59685714Y-48345295D01*
X59685714Y-48345295D02*
X59714285Y-48535771D01*
X59714285Y-48535771D02*
X59714285Y-48773866D01*
X59714285Y-48773866D02*
X59685714Y-48964342D01*
X59685714Y-48964342D02*
X59657143Y-49059580D01*
X59657143Y-49059580D02*
X59628571Y-49107200D01*
X59628571Y-49107200D02*
X59571428Y-49154819D01*
X59571428Y-49154819D02*
X59514285Y-49154819D01*
X59514285Y-49154819D02*
X59457143Y-49107200D01*
X59457143Y-49107200D02*
X59428571Y-49059580D01*
X59428571Y-49059580D02*
X59400000Y-48964342D01*
X59400000Y-48964342D02*
X59371428Y-48773866D01*
X59371428Y-48773866D02*
X59371428Y-48535771D01*
X59371428Y-48535771D02*
X59400000Y-48345295D01*
X59400000Y-48345295D02*
X59428571Y-48250057D01*
X59428571Y-48250057D02*
X59457143Y-48202438D01*
X59457143Y-48202438D02*
X59514285Y-48154819D01*
X59971429Y-49154819D02*
X59971429Y-48154819D01*
X60028572Y-48773866D02*
X60200000Y-49154819D01*
X60200000Y-48488152D02*
X59971429Y-48869104D01*
D11*
X49600000Y-54250000D02*
X74700000Y-54250000D01*
X74700000Y-57150000D01*
X49600000Y-57150000D01*
X49600000Y-54250000D01*
X55800000Y-58050000D02*
X68500000Y-58050000D01*
X68500000Y-64150000D01*
X55800000Y-64150000D01*
X55800000Y-58050000D01*
X73485312Y-27872419D02*
X72913884Y-27872419D01*
X73199598Y-27872419D02*
X73199598Y-26872419D01*
X73199598Y-26872419D02*
X73104360Y-27015276D01*
X73104360Y-27015276D02*
X73009122Y-27110514D01*
X73009122Y-27110514D02*
X72913884Y-27158133D01*
X74104360Y-26872419D02*
X74199598Y-26872419D01*
X74199598Y-26872419D02*
X74294836Y-26920038D01*
X74294836Y-26920038D02*
X74342455Y-26967657D01*
X74342455Y-26967657D02*
X74390074Y-27062895D01*
X74390074Y-27062895D02*
X74437693Y-27253371D01*
X74437693Y-27253371D02*
X74437693Y-27491466D01*
X74437693Y-27491466D02*
X74390074Y-27681942D01*
X74390074Y-27681942D02*
X74342455Y-27777180D01*
X74342455Y-27777180D02*
X74294836Y-27824800D01*
X74294836Y-27824800D02*
X74199598Y-27872419D01*
X74199598Y-27872419D02*
X74104360Y-27872419D01*
X74104360Y-27872419D02*
X74009122Y-27824800D01*
X74009122Y-27824800D02*
X73961503Y-27777180D01*
X73961503Y-27777180D02*
X73913884Y-27681942D01*
X73913884Y-27681942D02*
X73866265Y-27491466D01*
X73866265Y-27491466D02*
X73866265Y-27253371D01*
X73866265Y-27253371D02*
X73913884Y-27062895D01*
X73913884Y-27062895D02*
X73961503Y-26967657D01*
X73961503Y-26967657D02*
X74009122Y-26920038D01*
X74009122Y-26920038D02*
X74104360Y-26872419D01*
X56822931Y-61512475D02*
X56480074Y-61512475D01*
X56651503Y-61512475D02*
X56651503Y-60512475D01*
X56651503Y-60512475D02*
X56594360Y-60655332D01*
X56594360Y-60655332D02*
X56537217Y-60750570D01*
X56537217Y-60750570D02*
X56480074Y-60798189D01*
X57080075Y-61417236D02*
X57108646Y-61464856D01*
X57108646Y-61464856D02*
X57080075Y-61512475D01*
X57080075Y-61512475D02*
X57051503Y-61464856D01*
X57051503Y-61464856D02*
X57080075Y-61417236D01*
X57080075Y-61417236D02*
X57080075Y-61512475D01*
X57080075Y-60893427D02*
X57108646Y-60941046D01*
X57108646Y-60941046D02*
X57080075Y-60988665D01*
X57080075Y-60988665D02*
X57051503Y-60941046D01*
X57051503Y-60941046D02*
X57080075Y-60893427D01*
X57080075Y-60893427D02*
X57080075Y-60988665D01*
X57737217Y-60512475D02*
X57937217Y-61512475D01*
X57937217Y-61512475D02*
X58137217Y-60512475D01*
X58308646Y-61464856D02*
X58365789Y-61512475D01*
X58365789Y-61512475D02*
X58480075Y-61512475D01*
X58480075Y-61512475D02*
X58537218Y-61464856D01*
X58537218Y-61464856D02*
X58565789Y-61369617D01*
X58565789Y-61369617D02*
X58565789Y-61321998D01*
X58565789Y-61321998D02*
X58537218Y-61226760D01*
X58537218Y-61226760D02*
X58480075Y-61179141D01*
X58480075Y-61179141D02*
X58394361Y-61179141D01*
X58394361Y-61179141D02*
X58337218Y-61131522D01*
X58337218Y-61131522D02*
X58308646Y-61036284D01*
X58308646Y-61036284D02*
X58308646Y-60988665D01*
X58308646Y-60988665D02*
X58337218Y-60893427D01*
X58337218Y-60893427D02*
X58394361Y-60845808D01*
X58394361Y-60845808D02*
X58480075Y-60845808D01*
X58480075Y-60845808D02*
X58537218Y-60893427D01*
X61051504Y-60512475D02*
X61422932Y-60512475D01*
X61422932Y-60512475D02*
X61222932Y-60893427D01*
X61222932Y-60893427D02*
X61308647Y-60893427D01*
X61308647Y-60893427D02*
X61365790Y-60941046D01*
X61365790Y-60941046D02*
X61394361Y-60988665D01*
X61394361Y-60988665D02*
X61422932Y-61083903D01*
X61422932Y-61083903D02*
X61422932Y-61321998D01*
X61422932Y-61321998D02*
X61394361Y-61417236D01*
X61394361Y-61417236D02*
X61365790Y-61464856D01*
X61365790Y-61464856D02*
X61308647Y-61512475D01*
X61308647Y-61512475D02*
X61137218Y-61512475D01*
X61137218Y-61512475D02*
X61080075Y-61464856D01*
X61080075Y-61464856D02*
X61051504Y-61417236D01*
X61680076Y-61417236D02*
X61708647Y-61464856D01*
X61708647Y-61464856D02*
X61680076Y-61512475D01*
X61680076Y-61512475D02*
X61651504Y-61464856D01*
X61651504Y-61464856D02*
X61680076Y-61417236D01*
X61680076Y-61417236D02*
X61680076Y-61512475D01*
X61680076Y-60893427D02*
X61708647Y-60941046D01*
X61708647Y-60941046D02*
X61680076Y-60988665D01*
X61680076Y-60988665D02*
X61651504Y-60941046D01*
X61651504Y-60941046D02*
X61680076Y-60893427D01*
X61680076Y-60893427D02*
X61680076Y-60988665D01*
X62765790Y-61512475D02*
X62565790Y-61036284D01*
X62422933Y-61512475D02*
X62422933Y-60512475D01*
X62422933Y-60512475D02*
X62651504Y-60512475D01*
X62651504Y-60512475D02*
X62708647Y-60560094D01*
X62708647Y-60560094D02*
X62737218Y-60607713D01*
X62737218Y-60607713D02*
X62765790Y-60702951D01*
X62765790Y-60702951D02*
X62765790Y-60845808D01*
X62765790Y-60845808D02*
X62737218Y-60941046D01*
X62737218Y-60941046D02*
X62708647Y-60988665D01*
X62708647Y-60988665D02*
X62651504Y-61036284D01*
X62651504Y-61036284D02*
X62422933Y-61036284D01*
X62937218Y-60512475D02*
X63280076Y-60512475D01*
X63108647Y-61512475D02*
X63108647Y-60512475D01*
X63480076Y-61512475D02*
X63480076Y-60512475D01*
X63480076Y-60512475D02*
X63622933Y-60512475D01*
X63622933Y-60512475D02*
X63708647Y-60560094D01*
X63708647Y-60560094D02*
X63765790Y-60655332D01*
X63765790Y-60655332D02*
X63794361Y-60750570D01*
X63794361Y-60750570D02*
X63822933Y-60941046D01*
X63822933Y-60941046D02*
X63822933Y-61083903D01*
X63822933Y-61083903D02*
X63794361Y-61274379D01*
X63794361Y-61274379D02*
X63765790Y-61369617D01*
X63765790Y-61369617D02*
X63708647Y-61464856D01*
X63708647Y-61464856D02*
X63622933Y-61512475D01*
X63622933Y-61512475D02*
X63480076Y-61512475D01*
X64051504Y-61464856D02*
X64137219Y-61512475D01*
X64137219Y-61512475D02*
X64280076Y-61512475D01*
X64280076Y-61512475D02*
X64337219Y-61464856D01*
X64337219Y-61464856D02*
X64365790Y-61417236D01*
X64365790Y-61417236D02*
X64394361Y-61321998D01*
X64394361Y-61321998D02*
X64394361Y-61226760D01*
X64394361Y-61226760D02*
X64365790Y-61131522D01*
X64365790Y-61131522D02*
X64337219Y-61083903D01*
X64337219Y-61083903D02*
X64280076Y-61036284D01*
X64280076Y-61036284D02*
X64165790Y-60988665D01*
X64165790Y-60988665D02*
X64108647Y-60941046D01*
X64108647Y-60941046D02*
X64080076Y-60893427D01*
X64080076Y-60893427D02*
X64051504Y-60798189D01*
X64051504Y-60798189D02*
X64051504Y-60702951D01*
X64051504Y-60702951D02*
X64080076Y-60607713D01*
X64080076Y-60607713D02*
X64108647Y-60560094D01*
X64108647Y-60560094D02*
X64165790Y-60512475D01*
X64165790Y-60512475D02*
X64308647Y-60512475D01*
X64308647Y-60512475D02*
X64394361Y-60560094D01*
X65451505Y-61417236D02*
X65422933Y-61464856D01*
X65422933Y-61464856D02*
X65337219Y-61512475D01*
X65337219Y-61512475D02*
X65280076Y-61512475D01*
X65280076Y-61512475D02*
X65194362Y-61464856D01*
X65194362Y-61464856D02*
X65137219Y-61369617D01*
X65137219Y-61369617D02*
X65108648Y-61274379D01*
X65108648Y-61274379D02*
X65080076Y-61083903D01*
X65080076Y-61083903D02*
X65080076Y-60941046D01*
X65080076Y-60941046D02*
X65108648Y-60750570D01*
X65108648Y-60750570D02*
X65137219Y-60655332D01*
X65137219Y-60655332D02*
X65194362Y-60560094D01*
X65194362Y-60560094D02*
X65280076Y-60512475D01*
X65280076Y-60512475D02*
X65337219Y-60512475D01*
X65337219Y-60512475D02*
X65422933Y-60560094D01*
X65422933Y-60560094D02*
X65451505Y-60607713D01*
X65794362Y-61512475D02*
X65737219Y-61464856D01*
X65737219Y-61464856D02*
X65708648Y-61417236D01*
X65708648Y-61417236D02*
X65680076Y-61321998D01*
X65680076Y-61321998D02*
X65680076Y-61036284D01*
X65680076Y-61036284D02*
X65708648Y-60941046D01*
X65708648Y-60941046D02*
X65737219Y-60893427D01*
X65737219Y-60893427D02*
X65794362Y-60845808D01*
X65794362Y-60845808D02*
X65880076Y-60845808D01*
X65880076Y-60845808D02*
X65937219Y-60893427D01*
X65937219Y-60893427D02*
X65965791Y-60941046D01*
X65965791Y-60941046D02*
X65994362Y-61036284D01*
X65994362Y-61036284D02*
X65994362Y-61321998D01*
X65994362Y-61321998D02*
X65965791Y-61417236D01*
X65965791Y-61417236D02*
X65937219Y-61464856D01*
X65937219Y-61464856D02*
X65880076Y-61512475D01*
X65880076Y-61512475D02*
X65794362Y-61512475D01*
X66251505Y-61512475D02*
X66251505Y-60845808D01*
X66251505Y-60512475D02*
X66222933Y-60560094D01*
X66222933Y-60560094D02*
X66251505Y-60607713D01*
X66251505Y-60607713D02*
X66280076Y-60560094D01*
X66280076Y-60560094D02*
X66251505Y-60512475D01*
X66251505Y-60512475D02*
X66251505Y-60607713D01*
X66622933Y-61512475D02*
X66565790Y-61464856D01*
X66565790Y-61464856D02*
X66537219Y-61369617D01*
X66537219Y-61369617D02*
X66537219Y-60512475D01*
X67308648Y-61131522D02*
X67765791Y-61131522D01*
X56480074Y-62217657D02*
X56508646Y-62170038D01*
X56508646Y-62170038D02*
X56565789Y-62122419D01*
X56565789Y-62122419D02*
X56708646Y-62122419D01*
X56708646Y-62122419D02*
X56765789Y-62170038D01*
X56765789Y-62170038D02*
X56794360Y-62217657D01*
X56794360Y-62217657D02*
X56822931Y-62312895D01*
X56822931Y-62312895D02*
X56822931Y-62408133D01*
X56822931Y-62408133D02*
X56794360Y-62550990D01*
X56794360Y-62550990D02*
X56451503Y-63122419D01*
X56451503Y-63122419D02*
X56822931Y-63122419D01*
X57080075Y-63027180D02*
X57108646Y-63074800D01*
X57108646Y-63074800D02*
X57080075Y-63122419D01*
X57080075Y-63122419D02*
X57051503Y-63074800D01*
X57051503Y-63074800D02*
X57080075Y-63027180D01*
X57080075Y-63027180D02*
X57080075Y-63122419D01*
X57080075Y-62503371D02*
X57108646Y-62550990D01*
X57108646Y-62550990D02*
X57080075Y-62598609D01*
X57080075Y-62598609D02*
X57051503Y-62550990D01*
X57051503Y-62550990D02*
X57080075Y-62503371D01*
X57080075Y-62503371D02*
X57080075Y-62598609D01*
X58137217Y-62170038D02*
X58080075Y-62122419D01*
X58080075Y-62122419D02*
X57994360Y-62122419D01*
X57994360Y-62122419D02*
X57908646Y-62170038D01*
X57908646Y-62170038D02*
X57851503Y-62265276D01*
X57851503Y-62265276D02*
X57822932Y-62360514D01*
X57822932Y-62360514D02*
X57794360Y-62550990D01*
X57794360Y-62550990D02*
X57794360Y-62693847D01*
X57794360Y-62693847D02*
X57822932Y-62884323D01*
X57822932Y-62884323D02*
X57851503Y-62979561D01*
X57851503Y-62979561D02*
X57908646Y-63074800D01*
X57908646Y-63074800D02*
X57994360Y-63122419D01*
X57994360Y-63122419D02*
X58051503Y-63122419D01*
X58051503Y-63122419D02*
X58137217Y-63074800D01*
X58137217Y-63074800D02*
X58165789Y-63027180D01*
X58165789Y-63027180D02*
X58165789Y-62693847D01*
X58165789Y-62693847D02*
X58051503Y-62693847D01*
X58422932Y-63122419D02*
X58422932Y-62122419D01*
X58422932Y-62122419D02*
X58765789Y-63122419D01*
X58765789Y-63122419D02*
X58765789Y-62122419D01*
X59051503Y-63122419D02*
X59051503Y-62122419D01*
X59051503Y-62122419D02*
X59194360Y-62122419D01*
X59194360Y-62122419D02*
X59280074Y-62170038D01*
X59280074Y-62170038D02*
X59337217Y-62265276D01*
X59337217Y-62265276D02*
X59365788Y-62360514D01*
X59365788Y-62360514D02*
X59394360Y-62550990D01*
X59394360Y-62550990D02*
X59394360Y-62693847D01*
X59394360Y-62693847D02*
X59365788Y-62884323D01*
X59365788Y-62884323D02*
X59337217Y-62979561D01*
X59337217Y-62979561D02*
X59280074Y-63074800D01*
X59280074Y-63074800D02*
X59194360Y-63122419D01*
X59194360Y-63122419D02*
X59051503Y-63122419D01*
X61280075Y-62455752D02*
X61280075Y-63122419D01*
X61137217Y-62074800D02*
X60994360Y-62789085D01*
X60994360Y-62789085D02*
X61365789Y-62789085D01*
X61594361Y-63027180D02*
X61622932Y-63074800D01*
X61622932Y-63074800D02*
X61594361Y-63122419D01*
X61594361Y-63122419D02*
X61565789Y-63074800D01*
X61565789Y-63074800D02*
X61594361Y-63027180D01*
X61594361Y-63027180D02*
X61594361Y-63122419D01*
X61594361Y-62503371D02*
X61622932Y-62550990D01*
X61622932Y-62550990D02*
X61594361Y-62598609D01*
X61594361Y-62598609D02*
X61565789Y-62550990D01*
X61565789Y-62550990D02*
X61594361Y-62503371D01*
X61594361Y-62503371D02*
X61594361Y-62598609D01*
X62680075Y-63122419D02*
X62480075Y-62646228D01*
X62337218Y-63122419D02*
X62337218Y-62122419D01*
X62337218Y-62122419D02*
X62565789Y-62122419D01*
X62565789Y-62122419D02*
X62622932Y-62170038D01*
X62622932Y-62170038D02*
X62651503Y-62217657D01*
X62651503Y-62217657D02*
X62680075Y-62312895D01*
X62680075Y-62312895D02*
X62680075Y-62455752D01*
X62680075Y-62455752D02*
X62651503Y-62550990D01*
X62651503Y-62550990D02*
X62622932Y-62598609D01*
X62622932Y-62598609D02*
X62565789Y-62646228D01*
X62565789Y-62646228D02*
X62337218Y-62646228D01*
X62851503Y-62122419D02*
X63194361Y-62122419D01*
X63022932Y-63122419D02*
X63022932Y-62122419D01*
X63394361Y-63122419D02*
X63394361Y-62122419D01*
X63394361Y-62122419D02*
X63537218Y-62122419D01*
X63537218Y-62122419D02*
X63622932Y-62170038D01*
X63622932Y-62170038D02*
X63680075Y-62265276D01*
X63680075Y-62265276D02*
X63708646Y-62360514D01*
X63708646Y-62360514D02*
X63737218Y-62550990D01*
X63737218Y-62550990D02*
X63737218Y-62693847D01*
X63737218Y-62693847D02*
X63708646Y-62884323D01*
X63708646Y-62884323D02*
X63680075Y-62979561D01*
X63680075Y-62979561D02*
X63622932Y-63074800D01*
X63622932Y-63074800D02*
X63537218Y-63122419D01*
X63537218Y-63122419D02*
X63394361Y-63122419D01*
X63965789Y-63074800D02*
X64051504Y-63122419D01*
X64051504Y-63122419D02*
X64194361Y-63122419D01*
X64194361Y-63122419D02*
X64251504Y-63074800D01*
X64251504Y-63074800D02*
X64280075Y-63027180D01*
X64280075Y-63027180D02*
X64308646Y-62931942D01*
X64308646Y-62931942D02*
X64308646Y-62836704D01*
X64308646Y-62836704D02*
X64280075Y-62741466D01*
X64280075Y-62741466D02*
X64251504Y-62693847D01*
X64251504Y-62693847D02*
X64194361Y-62646228D01*
X64194361Y-62646228D02*
X64080075Y-62598609D01*
X64080075Y-62598609D02*
X64022932Y-62550990D01*
X64022932Y-62550990D02*
X63994361Y-62503371D01*
X63994361Y-62503371D02*
X63965789Y-62408133D01*
X63965789Y-62408133D02*
X63965789Y-62312895D01*
X63965789Y-62312895D02*
X63994361Y-62217657D01*
X63994361Y-62217657D02*
X64022932Y-62170038D01*
X64022932Y-62170038D02*
X64080075Y-62122419D01*
X64080075Y-62122419D02*
X64222932Y-62122419D01*
X64222932Y-62122419D02*
X64308646Y-62170038D01*
X65022933Y-63122419D02*
X65022933Y-62122419D01*
X65022933Y-62122419D02*
X65251504Y-62122419D01*
X65251504Y-62122419D02*
X65308647Y-62170038D01*
X65308647Y-62170038D02*
X65337218Y-62217657D01*
X65337218Y-62217657D02*
X65365790Y-62312895D01*
X65365790Y-62312895D02*
X65365790Y-62455752D01*
X65365790Y-62455752D02*
X65337218Y-62550990D01*
X65337218Y-62550990D02*
X65308647Y-62598609D01*
X65308647Y-62598609D02*
X65251504Y-62646228D01*
X65251504Y-62646228D02*
X65022933Y-62646228D01*
X65565790Y-62122419D02*
X65708647Y-63122419D01*
X65708647Y-63122419D02*
X65822933Y-62408133D01*
X65822933Y-62408133D02*
X65937218Y-63122419D01*
X65937218Y-63122419D02*
X66080076Y-62122419D01*
X66651504Y-63122419D02*
X66451504Y-62646228D01*
X66308647Y-63122419D02*
X66308647Y-62122419D01*
X66308647Y-62122419D02*
X66537218Y-62122419D01*
X66537218Y-62122419D02*
X66594361Y-62170038D01*
X66594361Y-62170038D02*
X66622932Y-62217657D01*
X66622932Y-62217657D02*
X66651504Y-62312895D01*
X66651504Y-62312895D02*
X66651504Y-62455752D01*
X66651504Y-62455752D02*
X66622932Y-62550990D01*
X66622932Y-62550990D02*
X66594361Y-62598609D01*
X66594361Y-62598609D02*
X66537218Y-62646228D01*
X66537218Y-62646228D02*
X66308647Y-62646228D01*
X67365790Y-62741466D02*
X67822933Y-62741466D01*
D10*
X59456065Y-59438200D02*
X59494160Y-59381057D01*
X59494160Y-59381057D02*
X59570351Y-59323914D01*
X59570351Y-59323914D02*
X59722732Y-59438200D01*
X59722732Y-59438200D02*
X59798922Y-59381057D01*
X59798922Y-59381057D02*
X59837017Y-59323914D01*
X60141780Y-59895342D02*
X60141780Y-58695342D01*
X60141780Y-58695342D02*
X60446542Y-58695342D01*
X60446542Y-58695342D02*
X60522732Y-58752485D01*
X60522732Y-58752485D02*
X60560827Y-58809628D01*
X60560827Y-58809628D02*
X60598923Y-58923914D01*
X60598923Y-58923914D02*
X60598923Y-59095342D01*
X60598923Y-59095342D02*
X60560827Y-59209628D01*
X60560827Y-59209628D02*
X60522732Y-59266771D01*
X60522732Y-59266771D02*
X60446542Y-59323914D01*
X60446542Y-59323914D02*
X60141780Y-59323914D01*
X60941780Y-59895342D02*
X60941780Y-58695342D01*
X61322732Y-59895342D02*
X61322732Y-58695342D01*
X61322732Y-58695342D02*
X61779875Y-59895342D01*
X61779875Y-59895342D02*
X61779875Y-58695342D01*
X62313208Y-58695342D02*
X62465589Y-58695342D01*
X62465589Y-58695342D02*
X62541779Y-58752485D01*
X62541779Y-58752485D02*
X62617970Y-58866771D01*
X62617970Y-58866771D02*
X62656065Y-59095342D01*
X62656065Y-59095342D02*
X62656065Y-59495342D01*
X62656065Y-59495342D02*
X62617970Y-59723914D01*
X62617970Y-59723914D02*
X62541779Y-59838200D01*
X62541779Y-59838200D02*
X62465589Y-59895342D01*
X62465589Y-59895342D02*
X62313208Y-59895342D01*
X62313208Y-59895342D02*
X62237017Y-59838200D01*
X62237017Y-59838200D02*
X62160827Y-59723914D01*
X62160827Y-59723914D02*
X62122731Y-59495342D01*
X62122731Y-59495342D02*
X62122731Y-59095342D01*
X62122731Y-59095342D02*
X62160827Y-58866771D01*
X62160827Y-58866771D02*
X62237017Y-58752485D01*
X62237017Y-58752485D02*
X62313208Y-58695342D01*
X62998922Y-58695342D02*
X62998922Y-59666771D01*
X62998922Y-59666771D02*
X63037017Y-59781057D01*
X63037017Y-59781057D02*
X63075112Y-59838200D01*
X63075112Y-59838200D02*
X63151303Y-59895342D01*
X63151303Y-59895342D02*
X63303684Y-59895342D01*
X63303684Y-59895342D02*
X63379874Y-59838200D01*
X63379874Y-59838200D02*
X63417969Y-59781057D01*
X63417969Y-59781057D02*
X63456065Y-59666771D01*
X63456065Y-59666771D02*
X63456065Y-58695342D01*
X63722731Y-58695342D02*
X64179874Y-58695342D01*
X63951302Y-59895342D02*
X63951302Y-58695342D01*
X64332255Y-59438200D02*
X64370350Y-59381057D01*
X64370350Y-59381057D02*
X64446541Y-59323914D01*
X64446541Y-59323914D02*
X64598922Y-59438200D01*
X64598922Y-59438200D02*
X64675112Y-59381057D01*
X64675112Y-59381057D02*
X64713207Y-59323914D01*
X51142856Y-49054819D02*
X50799999Y-49054819D01*
X50971428Y-49054819D02*
X50971428Y-48054819D01*
X50971428Y-48054819D02*
X50914285Y-48197676D01*
X50914285Y-48197676D02*
X50857142Y-48292914D01*
X50857142Y-48292914D02*
X50799999Y-48340533D01*
X51514285Y-48054819D02*
X51571428Y-48054819D01*
X51571428Y-48054819D02*
X51628571Y-48102438D01*
X51628571Y-48102438D02*
X51657143Y-48150057D01*
X51657143Y-48150057D02*
X51685714Y-48245295D01*
X51685714Y-48245295D02*
X51714285Y-48435771D01*
X51714285Y-48435771D02*
X51714285Y-48673866D01*
X51714285Y-48673866D02*
X51685714Y-48864342D01*
X51685714Y-48864342D02*
X51657143Y-48959580D01*
X51657143Y-48959580D02*
X51628571Y-49007200D01*
X51628571Y-49007200D02*
X51571428Y-49054819D01*
X51571428Y-49054819D02*
X51514285Y-49054819D01*
X51514285Y-49054819D02*
X51457143Y-49007200D01*
X51457143Y-49007200D02*
X51428571Y-48959580D01*
X51428571Y-48959580D02*
X51400000Y-48864342D01*
X51400000Y-48864342D02*
X51371428Y-48673866D01*
X51371428Y-48673866D02*
X51371428Y-48435771D01*
X51371428Y-48435771D02*
X51400000Y-48245295D01*
X51400000Y-48245295D02*
X51428571Y-48150057D01*
X51428571Y-48150057D02*
X51457143Y-48102438D01*
X51457143Y-48102438D02*
X51514285Y-48054819D01*
X51971429Y-49054819D02*
X51971429Y-48054819D01*
X52028572Y-48673866D02*
X52200000Y-49054819D01*
X52200000Y-48388152D02*
X51971429Y-48769104D01*
D11*
X51101503Y-27772419D02*
X50530075Y-27772419D01*
X50815789Y-27772419D02*
X50815789Y-26772419D01*
X50815789Y-26772419D02*
X50720551Y-26915276D01*
X50720551Y-26915276D02*
X50625313Y-27010514D01*
X50625313Y-27010514D02*
X50530075Y-27058133D01*
X50522931Y-56361228D02*
X50272931Y-55646942D01*
X50094360Y-56361228D02*
X50094360Y-54861228D01*
X50094360Y-54861228D02*
X50380074Y-54861228D01*
X50380074Y-54861228D02*
X50451503Y-54932657D01*
X50451503Y-54932657D02*
X50487217Y-55004085D01*
X50487217Y-55004085D02*
X50522931Y-55146942D01*
X50522931Y-55146942D02*
X50522931Y-55361228D01*
X50522931Y-55361228D02*
X50487217Y-55504085D01*
X50487217Y-55504085D02*
X50451503Y-55575514D01*
X50451503Y-55575514D02*
X50380074Y-55646942D01*
X50380074Y-55646942D02*
X50094360Y-55646942D01*
X50737217Y-54861228D02*
X51165789Y-54861228D01*
X50951503Y-56361228D02*
X50951503Y-54861228D01*
X51415789Y-56361228D02*
X51415789Y-54861228D01*
X51415789Y-54861228D02*
X51594360Y-54861228D01*
X51594360Y-54861228D02*
X51701503Y-54932657D01*
X51701503Y-54932657D02*
X51772932Y-55075514D01*
X51772932Y-55075514D02*
X51808646Y-55218371D01*
X51808646Y-55218371D02*
X51844360Y-55504085D01*
X51844360Y-55504085D02*
X51844360Y-55718371D01*
X51844360Y-55718371D02*
X51808646Y-56004085D01*
X51808646Y-56004085D02*
X51772932Y-56146942D01*
X51772932Y-56146942D02*
X51701503Y-56289800D01*
X51701503Y-56289800D02*
X51594360Y-56361228D01*
X51594360Y-56361228D02*
X51415789Y-56361228D01*
X52130075Y-56289800D02*
X52237218Y-56361228D01*
X52237218Y-56361228D02*
X52415789Y-56361228D01*
X52415789Y-56361228D02*
X52487218Y-56289800D01*
X52487218Y-56289800D02*
X52522932Y-56218371D01*
X52522932Y-56218371D02*
X52558646Y-56075514D01*
X52558646Y-56075514D02*
X52558646Y-55932657D01*
X52558646Y-55932657D02*
X52522932Y-55789800D01*
X52522932Y-55789800D02*
X52487218Y-55718371D01*
X52487218Y-55718371D02*
X52415789Y-55646942D01*
X52415789Y-55646942D02*
X52272932Y-55575514D01*
X52272932Y-55575514D02*
X52201503Y-55504085D01*
X52201503Y-55504085D02*
X52165789Y-55432657D01*
X52165789Y-55432657D02*
X52130075Y-55289800D01*
X52130075Y-55289800D02*
X52130075Y-55146942D01*
X52130075Y-55146942D02*
X52165789Y-55004085D01*
X52165789Y-55004085D02*
X52201503Y-54932657D01*
X52201503Y-54932657D02*
X52272932Y-54861228D01*
X52272932Y-54861228D02*
X52451503Y-54861228D01*
X52451503Y-54861228D02*
X52558646Y-54932657D01*
X53880075Y-56218371D02*
X53844361Y-56289800D01*
X53844361Y-56289800D02*
X53737218Y-56361228D01*
X53737218Y-56361228D02*
X53665790Y-56361228D01*
X53665790Y-56361228D02*
X53558647Y-56289800D01*
X53558647Y-56289800D02*
X53487218Y-56146942D01*
X53487218Y-56146942D02*
X53451504Y-56004085D01*
X53451504Y-56004085D02*
X53415790Y-55718371D01*
X53415790Y-55718371D02*
X53415790Y-55504085D01*
X53415790Y-55504085D02*
X53451504Y-55218371D01*
X53451504Y-55218371D02*
X53487218Y-55075514D01*
X53487218Y-55075514D02*
X53558647Y-54932657D01*
X53558647Y-54932657D02*
X53665790Y-54861228D01*
X53665790Y-54861228D02*
X53737218Y-54861228D01*
X53737218Y-54861228D02*
X53844361Y-54932657D01*
X53844361Y-54932657D02*
X53880075Y-55004085D01*
X54308647Y-56361228D02*
X54237218Y-56289800D01*
X54237218Y-56289800D02*
X54201504Y-56218371D01*
X54201504Y-56218371D02*
X54165790Y-56075514D01*
X54165790Y-56075514D02*
X54165790Y-55646942D01*
X54165790Y-55646942D02*
X54201504Y-55504085D01*
X54201504Y-55504085D02*
X54237218Y-55432657D01*
X54237218Y-55432657D02*
X54308647Y-55361228D01*
X54308647Y-55361228D02*
X54415790Y-55361228D01*
X54415790Y-55361228D02*
X54487218Y-55432657D01*
X54487218Y-55432657D02*
X54522933Y-55504085D01*
X54522933Y-55504085D02*
X54558647Y-55646942D01*
X54558647Y-55646942D02*
X54558647Y-56075514D01*
X54558647Y-56075514D02*
X54522933Y-56218371D01*
X54522933Y-56218371D02*
X54487218Y-56289800D01*
X54487218Y-56289800D02*
X54415790Y-56361228D01*
X54415790Y-56361228D02*
X54308647Y-56361228D01*
X54880075Y-55361228D02*
X54880075Y-56361228D01*
X54880075Y-55504085D02*
X54915789Y-55432657D01*
X54915789Y-55432657D02*
X54987218Y-55361228D01*
X54987218Y-55361228D02*
X55094361Y-55361228D01*
X55094361Y-55361228D02*
X55165789Y-55432657D01*
X55165789Y-55432657D02*
X55201504Y-55575514D01*
X55201504Y-55575514D02*
X55201504Y-56361228D01*
X55451503Y-55361228D02*
X55737217Y-55361228D01*
X55558646Y-54861228D02*
X55558646Y-56146942D01*
X55558646Y-56146942D02*
X55594360Y-56289800D01*
X55594360Y-56289800D02*
X55665789Y-56361228D01*
X55665789Y-56361228D02*
X55737217Y-56361228D01*
X55987217Y-56361228D02*
X55987217Y-55361228D01*
X55987217Y-55646942D02*
X56022931Y-55504085D01*
X56022931Y-55504085D02*
X56058646Y-55432657D01*
X56058646Y-55432657D02*
X56130074Y-55361228D01*
X56130074Y-55361228D02*
X56201503Y-55361228D01*
X56558646Y-56361228D02*
X56487217Y-56289800D01*
X56487217Y-56289800D02*
X56451503Y-56218371D01*
X56451503Y-56218371D02*
X56415789Y-56075514D01*
X56415789Y-56075514D02*
X56415789Y-55646942D01*
X56415789Y-55646942D02*
X56451503Y-55504085D01*
X56451503Y-55504085D02*
X56487217Y-55432657D01*
X56487217Y-55432657D02*
X56558646Y-55361228D01*
X56558646Y-55361228D02*
X56665789Y-55361228D01*
X56665789Y-55361228D02*
X56737217Y-55432657D01*
X56737217Y-55432657D02*
X56772932Y-55504085D01*
X56772932Y-55504085D02*
X56808646Y-55646942D01*
X56808646Y-55646942D02*
X56808646Y-56075514D01*
X56808646Y-56075514D02*
X56772932Y-56218371D01*
X56772932Y-56218371D02*
X56737217Y-56289800D01*
X56737217Y-56289800D02*
X56665789Y-56361228D01*
X56665789Y-56361228D02*
X56558646Y-56361228D01*
X57237217Y-56361228D02*
X57165788Y-56289800D01*
X57165788Y-56289800D02*
X57130074Y-56146942D01*
X57130074Y-56146942D02*
X57130074Y-54861228D01*
X58094360Y-56361228D02*
X58094360Y-54861228D01*
X58094360Y-54861228D02*
X58344360Y-55932657D01*
X58344360Y-55932657D02*
X58594360Y-54861228D01*
X58594360Y-54861228D02*
X58594360Y-56361228D01*
X59058646Y-56361228D02*
X58987217Y-56289800D01*
X58987217Y-56289800D02*
X58951503Y-56218371D01*
X58951503Y-56218371D02*
X58915789Y-56075514D01*
X58915789Y-56075514D02*
X58915789Y-55646942D01*
X58915789Y-55646942D02*
X58951503Y-55504085D01*
X58951503Y-55504085D02*
X58987217Y-55432657D01*
X58987217Y-55432657D02*
X59058646Y-55361228D01*
X59058646Y-55361228D02*
X59165789Y-55361228D01*
X59165789Y-55361228D02*
X59237217Y-55432657D01*
X59237217Y-55432657D02*
X59272932Y-55504085D01*
X59272932Y-55504085D02*
X59308646Y-55646942D01*
X59308646Y-55646942D02*
X59308646Y-56075514D01*
X59308646Y-56075514D02*
X59272932Y-56218371D01*
X59272932Y-56218371D02*
X59237217Y-56289800D01*
X59237217Y-56289800D02*
X59165789Y-56361228D01*
X59165789Y-56361228D02*
X59058646Y-56361228D01*
X59951503Y-56361228D02*
X59951503Y-54861228D01*
X59951503Y-56289800D02*
X59880074Y-56361228D01*
X59880074Y-56361228D02*
X59737217Y-56361228D01*
X59737217Y-56361228D02*
X59665788Y-56289800D01*
X59665788Y-56289800D02*
X59630074Y-56218371D01*
X59630074Y-56218371D02*
X59594360Y-56075514D01*
X59594360Y-56075514D02*
X59594360Y-55646942D01*
X59594360Y-55646942D02*
X59630074Y-55504085D01*
X59630074Y-55504085D02*
X59665788Y-55432657D01*
X59665788Y-55432657D02*
X59737217Y-55361228D01*
X59737217Y-55361228D02*
X59880074Y-55361228D01*
X59880074Y-55361228D02*
X59951503Y-55432657D01*
X60630074Y-55361228D02*
X60630074Y-56361228D01*
X60308645Y-55361228D02*
X60308645Y-56146942D01*
X60308645Y-56146942D02*
X60344359Y-56289800D01*
X60344359Y-56289800D02*
X60415788Y-56361228D01*
X60415788Y-56361228D02*
X60522931Y-56361228D01*
X60522931Y-56361228D02*
X60594359Y-56289800D01*
X60594359Y-56289800D02*
X60630074Y-56218371D01*
X61094359Y-56361228D02*
X61022930Y-56289800D01*
X61022930Y-56289800D02*
X60987216Y-56146942D01*
X60987216Y-56146942D02*
X60987216Y-54861228D01*
X61665787Y-56289800D02*
X61594359Y-56361228D01*
X61594359Y-56361228D02*
X61451502Y-56361228D01*
X61451502Y-56361228D02*
X61380073Y-56289800D01*
X61380073Y-56289800D02*
X61344359Y-56146942D01*
X61344359Y-56146942D02*
X61344359Y-55575514D01*
X61344359Y-55575514D02*
X61380073Y-55432657D01*
X61380073Y-55432657D02*
X61451502Y-55361228D01*
X61451502Y-55361228D02*
X61594359Y-55361228D01*
X61594359Y-55361228D02*
X61665787Y-55432657D01*
X61665787Y-55432657D02*
X61701502Y-55575514D01*
X61701502Y-55575514D02*
X61701502Y-55718371D01*
X61701502Y-55718371D02*
X61344359Y-55861228D01*
X62487216Y-54861228D02*
X62737216Y-56361228D01*
X62737216Y-56361228D02*
X62987216Y-54861228D01*
X63558645Y-55361228D02*
X63558645Y-56361228D01*
X63380073Y-54789800D02*
X63201502Y-55861228D01*
X63201502Y-55861228D02*
X63665787Y-55861228D01*
X63951502Y-56218371D02*
X63987216Y-56289800D01*
X63987216Y-56289800D02*
X63951502Y-56361228D01*
X63951502Y-56361228D02*
X63915788Y-56289800D01*
X63915788Y-56289800D02*
X63951502Y-56218371D01*
X63951502Y-56218371D02*
X63951502Y-56361228D01*
X64451502Y-54861228D02*
X64522931Y-54861228D01*
X64522931Y-54861228D02*
X64594359Y-54932657D01*
X64594359Y-54932657D02*
X64630074Y-55004085D01*
X64630074Y-55004085D02*
X64665788Y-55146942D01*
X64665788Y-55146942D02*
X64701502Y-55432657D01*
X64701502Y-55432657D02*
X64701502Y-55789800D01*
X64701502Y-55789800D02*
X64665788Y-56075514D01*
X64665788Y-56075514D02*
X64630074Y-56218371D01*
X64630074Y-56218371D02*
X64594359Y-56289800D01*
X64594359Y-56289800D02*
X64522931Y-56361228D01*
X64522931Y-56361228D02*
X64451502Y-56361228D01*
X64451502Y-56361228D02*
X64380074Y-56289800D01*
X64380074Y-56289800D02*
X64344359Y-56218371D01*
X64344359Y-56218371D02*
X64308645Y-56075514D01*
X64308645Y-56075514D02*
X64272931Y-55789800D01*
X64272931Y-55789800D02*
X64272931Y-55432657D01*
X64272931Y-55432657D02*
X64308645Y-55146942D01*
X64308645Y-55146942D02*
X64344359Y-55004085D01*
X64344359Y-55004085D02*
X64380074Y-54932657D01*
X64380074Y-54932657D02*
X64451502Y-54861228D01*
X65772931Y-56861228D02*
X65772931Y-54718371D01*
X66880075Y-56361228D02*
X66880075Y-54861228D01*
X66880075Y-54861228D02*
X67130075Y-55932657D01*
X67130075Y-55932657D02*
X67380075Y-54861228D01*
X67380075Y-54861228D02*
X67380075Y-56361228D01*
X67737218Y-56218371D02*
X67772932Y-56289800D01*
X67772932Y-56289800D02*
X67737218Y-56361228D01*
X67737218Y-56361228D02*
X67701504Y-56289800D01*
X67701504Y-56289800D02*
X67737218Y-56218371D01*
X67737218Y-56218371D02*
X67737218Y-56361228D01*
X68522932Y-56361228D02*
X68272932Y-55646942D01*
X68094361Y-56361228D02*
X68094361Y-54861228D01*
X68094361Y-54861228D02*
X68380075Y-54861228D01*
X68380075Y-54861228D02*
X68451504Y-54932657D01*
X68451504Y-54932657D02*
X68487218Y-55004085D01*
X68487218Y-55004085D02*
X68522932Y-55146942D01*
X68522932Y-55146942D02*
X68522932Y-55361228D01*
X68522932Y-55361228D02*
X68487218Y-55504085D01*
X68487218Y-55504085D02*
X68451504Y-55575514D01*
X68451504Y-55575514D02*
X68380075Y-55646942D01*
X68380075Y-55646942D02*
X68094361Y-55646942D01*
X68844361Y-56218371D02*
X68880075Y-56289800D01*
X68880075Y-56289800D02*
X68844361Y-56361228D01*
X68844361Y-56361228D02*
X68808647Y-56289800D01*
X68808647Y-56289800D02*
X68844361Y-56218371D01*
X68844361Y-56218371D02*
X68844361Y-56361228D01*
X69737219Y-55932657D02*
X70094362Y-55932657D01*
X69665790Y-56361228D02*
X69915790Y-54861228D01*
X69915790Y-54861228D02*
X70165790Y-56361228D01*
X70415790Y-55361228D02*
X70415790Y-56861228D01*
X70415790Y-55432657D02*
X70487219Y-55361228D01*
X70487219Y-55361228D02*
X70630076Y-55361228D01*
X70630076Y-55361228D02*
X70701504Y-55432657D01*
X70701504Y-55432657D02*
X70737219Y-55504085D01*
X70737219Y-55504085D02*
X70772933Y-55646942D01*
X70772933Y-55646942D02*
X70772933Y-56075514D01*
X70772933Y-56075514D02*
X70737219Y-56218371D01*
X70737219Y-56218371D02*
X70701504Y-56289800D01*
X70701504Y-56289800D02*
X70630076Y-56361228D01*
X70630076Y-56361228D02*
X70487219Y-56361228D01*
X70487219Y-56361228D02*
X70415790Y-56289800D01*
X71094361Y-56361228D02*
X71094361Y-55361228D01*
X71094361Y-55646942D02*
X71130075Y-55504085D01*
X71130075Y-55504085D02*
X71165790Y-55432657D01*
X71165790Y-55432657D02*
X71237218Y-55361228D01*
X71237218Y-55361228D02*
X71308647Y-55361228D01*
X72165790Y-54861228D02*
X72094362Y-55146942D01*
X72451505Y-55004085D02*
X72487219Y-54932657D01*
X72487219Y-54932657D02*
X72558648Y-54861228D01*
X72558648Y-54861228D02*
X72737219Y-54861228D01*
X72737219Y-54861228D02*
X72808648Y-54932657D01*
X72808648Y-54932657D02*
X72844362Y-55004085D01*
X72844362Y-55004085D02*
X72880076Y-55146942D01*
X72880076Y-55146942D02*
X72880076Y-55289800D01*
X72880076Y-55289800D02*
X72844362Y-55504085D01*
X72844362Y-55504085D02*
X72415790Y-56361228D01*
X72415790Y-56361228D02*
X72880076Y-56361228D01*
X73558648Y-54861228D02*
X73201505Y-54861228D01*
X73201505Y-54861228D02*
X73165791Y-55575514D01*
X73165791Y-55575514D02*
X73201505Y-55504085D01*
X73201505Y-55504085D02*
X73272934Y-55432657D01*
X73272934Y-55432657D02*
X73451505Y-55432657D01*
X73451505Y-55432657D02*
X73522934Y-55504085D01*
X73522934Y-55504085D02*
X73558648Y-55575514D01*
X73558648Y-55575514D02*
X73594362Y-55718371D01*
X73594362Y-55718371D02*
X73594362Y-56075514D01*
X73594362Y-56075514D02*
X73558648Y-56218371D01*
X73558648Y-56218371D02*
X73522934Y-56289800D01*
X73522934Y-56289800D02*
X73451505Y-56361228D01*
X73451505Y-56361228D02*
X73272934Y-56361228D01*
X73272934Y-56361228D02*
X73201505Y-56289800D01*
X73201505Y-56289800D02*
X73165791Y-56218371D01*
X45452380Y-43841764D02*
X45223809Y-43841764D01*
X45338095Y-43841764D02*
X45338095Y-43091764D01*
X45338095Y-43091764D02*
X45299999Y-43198907D01*
X45299999Y-43198907D02*
X45261904Y-43270335D01*
X45261904Y-43270335D02*
X45223809Y-43306050D01*
X45623809Y-43841764D02*
X45623809Y-43091764D01*
X45661904Y-43556050D02*
X45776190Y-43841764D01*
X45776190Y-43341764D02*
X45623809Y-43627478D01*
X55057143Y-48391764D02*
X54866667Y-48391764D01*
X54866667Y-48391764D02*
X54847619Y-48748907D01*
X54847619Y-48748907D02*
X54866667Y-48713192D01*
X54866667Y-48713192D02*
X54904762Y-48677478D01*
X54904762Y-48677478D02*
X55000000Y-48677478D01*
X55000000Y-48677478D02*
X55038095Y-48713192D01*
X55038095Y-48713192D02*
X55057143Y-48748907D01*
X55057143Y-48748907D02*
X55076190Y-48820335D01*
X55076190Y-48820335D02*
X55076190Y-48998907D01*
X55076190Y-48998907D02*
X55057143Y-49070335D01*
X55057143Y-49070335D02*
X55038095Y-49106050D01*
X55038095Y-49106050D02*
X55000000Y-49141764D01*
X55000000Y-49141764D02*
X54904762Y-49141764D01*
X54904762Y-49141764D02*
X54866667Y-49106050D01*
X54866667Y-49106050D02*
X54847619Y-49070335D01*
X55209523Y-48391764D02*
X55476190Y-48391764D01*
X55476190Y-48391764D02*
X55304761Y-49141764D01*
X55628571Y-49070335D02*
X55647618Y-49106050D01*
X55647618Y-49106050D02*
X55628571Y-49141764D01*
X55628571Y-49141764D02*
X55609523Y-49106050D01*
X55609523Y-49106050D02*
X55628571Y-49070335D01*
X55628571Y-49070335D02*
X55628571Y-49141764D01*
X55990475Y-48391764D02*
X55914285Y-48391764D01*
X55914285Y-48391764D02*
X55876189Y-48427478D01*
X55876189Y-48427478D02*
X55857142Y-48463192D01*
X55857142Y-48463192D02*
X55819047Y-48570335D01*
X55819047Y-48570335D02*
X55799999Y-48713192D01*
X55799999Y-48713192D02*
X55799999Y-48998907D01*
X55799999Y-48998907D02*
X55819047Y-49070335D01*
X55819047Y-49070335D02*
X55838094Y-49106050D01*
X55838094Y-49106050D02*
X55876189Y-49141764D01*
X55876189Y-49141764D02*
X55952380Y-49141764D01*
X55952380Y-49141764D02*
X55990475Y-49106050D01*
X55990475Y-49106050D02*
X56009523Y-49070335D01*
X56009523Y-49070335D02*
X56028570Y-48998907D01*
X56028570Y-48998907D02*
X56028570Y-48820335D01*
X56028570Y-48820335D02*
X56009523Y-48748907D01*
X56009523Y-48748907D02*
X55990475Y-48713192D01*
X55990475Y-48713192D02*
X55952380Y-48677478D01*
X55952380Y-48677478D02*
X55876189Y-48677478D01*
X55876189Y-48677478D02*
X55838094Y-48713192D01*
X55838094Y-48713192D02*
X55819047Y-48748907D01*
X55819047Y-48748907D02*
X55799999Y-48820335D01*
X56199999Y-49141764D02*
X56199999Y-48391764D01*
X56238094Y-48856050D02*
X56352380Y-49141764D01*
X56352380Y-48641764D02*
X56199999Y-48927478D01*
X68150000Y-29132371D02*
X67950000Y-28846657D01*
X67807143Y-29132371D02*
X67807143Y-28532371D01*
X67807143Y-28532371D02*
X68035714Y-28532371D01*
X68035714Y-28532371D02*
X68092857Y-28560942D01*
X68092857Y-28560942D02*
X68121428Y-28589514D01*
X68121428Y-28589514D02*
X68150000Y-28646657D01*
X68150000Y-28646657D02*
X68150000Y-28732371D01*
X68150000Y-28732371D02*
X68121428Y-28789514D01*
X68121428Y-28789514D02*
X68092857Y-28818085D01*
X68092857Y-28818085D02*
X68035714Y-28846657D01*
X68035714Y-28846657D02*
X67807143Y-28846657D01*
X68664286Y-28732371D02*
X68664286Y-29132371D01*
X68521428Y-28503800D02*
X68378571Y-28932371D01*
X68378571Y-28932371D02*
X68750000Y-28932371D01*
D10*
X71895833Y-42509580D02*
X71848214Y-42557200D01*
X71848214Y-42557200D02*
X71705357Y-42604819D01*
X71705357Y-42604819D02*
X71610119Y-42604819D01*
X71610119Y-42604819D02*
X71467262Y-42557200D01*
X71467262Y-42557200D02*
X71372024Y-42461961D01*
X71372024Y-42461961D02*
X71324405Y-42366723D01*
X71324405Y-42366723D02*
X71276786Y-42176247D01*
X71276786Y-42176247D02*
X71276786Y-42033390D01*
X71276786Y-42033390D02*
X71324405Y-41842914D01*
X71324405Y-41842914D02*
X71372024Y-41747676D01*
X71372024Y-41747676D02*
X71467262Y-41652438D01*
X71467262Y-41652438D02*
X71610119Y-41604819D01*
X71610119Y-41604819D02*
X71705357Y-41604819D01*
X71705357Y-41604819D02*
X71848214Y-41652438D01*
X71848214Y-41652438D02*
X71895833Y-41700057D01*
X72229167Y-41604819D02*
X72848214Y-41604819D01*
X72848214Y-41604819D02*
X72514881Y-41985771D01*
X72514881Y-41985771D02*
X72657738Y-41985771D01*
X72657738Y-41985771D02*
X72752976Y-42033390D01*
X72752976Y-42033390D02*
X72800595Y-42081009D01*
X72800595Y-42081009D02*
X72848214Y-42176247D01*
X72848214Y-42176247D02*
X72848214Y-42414342D01*
X72848214Y-42414342D02*
X72800595Y-42509580D01*
X72800595Y-42509580D02*
X72752976Y-42557200D01*
X72752976Y-42557200D02*
X72657738Y-42604819D01*
X72657738Y-42604819D02*
X72372024Y-42604819D01*
X72372024Y-42604819D02*
X72276786Y-42557200D01*
X72276786Y-42557200D02*
X72229167Y-42509580D01*
X64738095Y-27654819D02*
X64738095Y-28464342D01*
X64738095Y-28464342D02*
X64785714Y-28559580D01*
X64785714Y-28559580D02*
X64833333Y-28607200D01*
X64833333Y-28607200D02*
X64928571Y-28654819D01*
X64928571Y-28654819D02*
X65119047Y-28654819D01*
X65119047Y-28654819D02*
X65214285Y-28607200D01*
X65214285Y-28607200D02*
X65261904Y-28559580D01*
X65261904Y-28559580D02*
X65309523Y-28464342D01*
X65309523Y-28464342D02*
X65309523Y-27654819D01*
X65738095Y-27750057D02*
X65785714Y-27702438D01*
X65785714Y-27702438D02*
X65880952Y-27654819D01*
X65880952Y-27654819D02*
X66119047Y-27654819D01*
X66119047Y-27654819D02*
X66214285Y-27702438D01*
X66214285Y-27702438D02*
X66261904Y-27750057D01*
X66261904Y-27750057D02*
X66309523Y-27845295D01*
X66309523Y-27845295D02*
X66309523Y-27940533D01*
X66309523Y-27940533D02*
X66261904Y-28083390D01*
X66261904Y-28083390D02*
X65690476Y-28654819D01*
X65690476Y-28654819D02*
X66309523Y-28654819D01*
D11*
X66957143Y-34972371D02*
X66957143Y-34372371D01*
X66957143Y-34372371D02*
X67100000Y-34372371D01*
X67100000Y-34372371D02*
X67185714Y-34400942D01*
X67185714Y-34400942D02*
X67242857Y-34458085D01*
X67242857Y-34458085D02*
X67271428Y-34515228D01*
X67271428Y-34515228D02*
X67300000Y-34629514D01*
X67300000Y-34629514D02*
X67300000Y-34715228D01*
X67300000Y-34715228D02*
X67271428Y-34829514D01*
X67271428Y-34829514D02*
X67242857Y-34886657D01*
X67242857Y-34886657D02*
X67185714Y-34943800D01*
X67185714Y-34943800D02*
X67100000Y-34972371D01*
X67100000Y-34972371D02*
X66957143Y-34972371D01*
X67871428Y-34972371D02*
X67528571Y-34972371D01*
X67700000Y-34972371D02*
X67700000Y-34372371D01*
X67700000Y-34372371D02*
X67642857Y-34458085D01*
X67642857Y-34458085D02*
X67585714Y-34515228D01*
X67585714Y-34515228D02*
X67528571Y-34543800D01*
D10*
X55374999Y-40954819D02*
X55124999Y-40478628D01*
X54946428Y-40954819D02*
X54946428Y-39954819D01*
X54946428Y-39954819D02*
X55232142Y-39954819D01*
X55232142Y-39954819D02*
X55303571Y-40002438D01*
X55303571Y-40002438D02*
X55339285Y-40050057D01*
X55339285Y-40050057D02*
X55374999Y-40145295D01*
X55374999Y-40145295D02*
X55374999Y-40288152D01*
X55374999Y-40288152D02*
X55339285Y-40383390D01*
X55339285Y-40383390D02*
X55303571Y-40431009D01*
X55303571Y-40431009D02*
X55232142Y-40478628D01*
X55232142Y-40478628D02*
X54946428Y-40478628D01*
X55660714Y-40050057D02*
X55696428Y-40002438D01*
X55696428Y-40002438D02*
X55767857Y-39954819D01*
X55767857Y-39954819D02*
X55946428Y-39954819D01*
X55946428Y-39954819D02*
X56017857Y-40002438D01*
X56017857Y-40002438D02*
X56053571Y-40050057D01*
X56053571Y-40050057D02*
X56089285Y-40145295D01*
X56089285Y-40145295D02*
X56089285Y-40240533D01*
X56089285Y-40240533D02*
X56053571Y-40383390D01*
X56053571Y-40383390D02*
X55624999Y-40954819D01*
X55624999Y-40954819D02*
X56089285Y-40954819D01*
D11*
X60909524Y-32264895D02*
X60909524Y-31464895D01*
X61366667Y-32264895D02*
X61023809Y-31807752D01*
X61366667Y-31464895D02*
X60909524Y-31922038D01*
X62128571Y-32264895D02*
X61671428Y-32264895D01*
X61900000Y-32264895D02*
X61900000Y-31464895D01*
X61900000Y-31464895D02*
X61823809Y-31579180D01*
X61823809Y-31579180D02*
X61747619Y-31655371D01*
X61747619Y-31655371D02*
X61671428Y-31693466D01*
X72340000Y-32715228D02*
X72311428Y-32743800D01*
X72311428Y-32743800D02*
X72225714Y-32772371D01*
X72225714Y-32772371D02*
X72168571Y-32772371D01*
X72168571Y-32772371D02*
X72082857Y-32743800D01*
X72082857Y-32743800D02*
X72025714Y-32686657D01*
X72025714Y-32686657D02*
X71997143Y-32629514D01*
X71997143Y-32629514D02*
X71968571Y-32515228D01*
X71968571Y-32515228D02*
X71968571Y-32429514D01*
X71968571Y-32429514D02*
X71997143Y-32315228D01*
X71997143Y-32315228D02*
X72025714Y-32258085D01*
X72025714Y-32258085D02*
X72082857Y-32200942D01*
X72082857Y-32200942D02*
X72168571Y-32172371D01*
X72168571Y-32172371D02*
X72225714Y-32172371D01*
X72225714Y-32172371D02*
X72311428Y-32200942D01*
X72311428Y-32200942D02*
X72340000Y-32229514D01*
X72911428Y-32772371D02*
X72568571Y-32772371D01*
X72740000Y-32772371D02*
X72740000Y-32172371D01*
X72740000Y-32172371D02*
X72682857Y-32258085D01*
X72682857Y-32258085D02*
X72625714Y-32315228D01*
X72625714Y-32315228D02*
X72568571Y-32343800D01*
D10*
X51474999Y-40954819D02*
X51224999Y-40478628D01*
X51046428Y-40954819D02*
X51046428Y-39954819D01*
X51046428Y-39954819D02*
X51332142Y-39954819D01*
X51332142Y-39954819D02*
X51403571Y-40002438D01*
X51403571Y-40002438D02*
X51439285Y-40050057D01*
X51439285Y-40050057D02*
X51474999Y-40145295D01*
X51474999Y-40145295D02*
X51474999Y-40288152D01*
X51474999Y-40288152D02*
X51439285Y-40383390D01*
X51439285Y-40383390D02*
X51403571Y-40431009D01*
X51403571Y-40431009D02*
X51332142Y-40478628D01*
X51332142Y-40478628D02*
X51046428Y-40478628D01*
X52189285Y-40954819D02*
X51760714Y-40954819D01*
X51974999Y-40954819D02*
X51974999Y-39954819D01*
X51974999Y-39954819D02*
X51903571Y-40097676D01*
X51903571Y-40097676D02*
X51832142Y-40192914D01*
X51832142Y-40192914D02*
X51760714Y-40240533D01*
X64803095Y-40989819D02*
X64803095Y-41799342D01*
X64803095Y-41799342D02*
X64850714Y-41894580D01*
X64850714Y-41894580D02*
X64898333Y-41942200D01*
X64898333Y-41942200D02*
X64993571Y-41989819D01*
X64993571Y-41989819D02*
X65184047Y-41989819D01*
X65184047Y-41989819D02*
X65279285Y-41942200D01*
X65279285Y-41942200D02*
X65326904Y-41894580D01*
X65326904Y-41894580D02*
X65374523Y-41799342D01*
X65374523Y-41799342D02*
X65374523Y-40989819D01*
X66374523Y-41989819D02*
X65803095Y-41989819D01*
X66088809Y-41989819D02*
X66088809Y-40989819D01*
X66088809Y-40989819D02*
X65993571Y-41132676D01*
X65993571Y-41132676D02*
X65898333Y-41227914D01*
X65898333Y-41227914D02*
X65803095Y-41275533D01*
D11*
X72367801Y-37215228D02*
X72339229Y-37243800D01*
X72339229Y-37243800D02*
X72253515Y-37272371D01*
X72253515Y-37272371D02*
X72196372Y-37272371D01*
X72196372Y-37272371D02*
X72110658Y-37243800D01*
X72110658Y-37243800D02*
X72053515Y-37186657D01*
X72053515Y-37186657D02*
X72024944Y-37129514D01*
X72024944Y-37129514D02*
X71996372Y-37015228D01*
X71996372Y-37015228D02*
X71996372Y-36929514D01*
X71996372Y-36929514D02*
X72024944Y-36815228D01*
X72024944Y-36815228D02*
X72053515Y-36758085D01*
X72053515Y-36758085D02*
X72110658Y-36700942D01*
X72110658Y-36700942D02*
X72196372Y-36672371D01*
X72196372Y-36672371D02*
X72253515Y-36672371D01*
X72253515Y-36672371D02*
X72339229Y-36700942D01*
X72339229Y-36700942D02*
X72367801Y-36729514D01*
X72596372Y-36729514D02*
X72624944Y-36700942D01*
X72624944Y-36700942D02*
X72682087Y-36672371D01*
X72682087Y-36672371D02*
X72824944Y-36672371D01*
X72824944Y-36672371D02*
X72882087Y-36700942D01*
X72882087Y-36700942D02*
X72910658Y-36729514D01*
X72910658Y-36729514D02*
X72939229Y-36786657D01*
X72939229Y-36786657D02*
X72939229Y-36843800D01*
X72939229Y-36843800D02*
X72910658Y-36929514D01*
X72910658Y-36929514D02*
X72567801Y-37272371D01*
X72567801Y-37272371D02*
X72939229Y-37272371D01*
X70150000Y-29084671D02*
X69950000Y-28798957D01*
X69807143Y-29084671D02*
X69807143Y-28484671D01*
X69807143Y-28484671D02*
X70035714Y-28484671D01*
X70035714Y-28484671D02*
X70092857Y-28513242D01*
X70092857Y-28513242D02*
X70121428Y-28541814D01*
X70121428Y-28541814D02*
X70150000Y-28598957D01*
X70150000Y-28598957D02*
X70150000Y-28684671D01*
X70150000Y-28684671D02*
X70121428Y-28741814D01*
X70121428Y-28741814D02*
X70092857Y-28770385D01*
X70092857Y-28770385D02*
X70035714Y-28798957D01*
X70035714Y-28798957D02*
X69807143Y-28798957D01*
X70350000Y-28484671D02*
X70721428Y-28484671D01*
X70721428Y-28484671D02*
X70521428Y-28713242D01*
X70521428Y-28713242D02*
X70607143Y-28713242D01*
X70607143Y-28713242D02*
X70664286Y-28741814D01*
X70664286Y-28741814D02*
X70692857Y-28770385D01*
X70692857Y-28770385D02*
X70721428Y-28827528D01*
X70721428Y-28827528D02*
X70721428Y-28970385D01*
X70721428Y-28970385D02*
X70692857Y-29027528D01*
X70692857Y-29027528D02*
X70664286Y-29056100D01*
X70664286Y-29056100D02*
X70607143Y-29084671D01*
X70607143Y-29084671D02*
X70435714Y-29084671D01*
X70435714Y-29084671D02*
X70378571Y-29056100D01*
X70378571Y-29056100D02*
X70350000Y-29027528D01*
D10*
X59374999Y-40854819D02*
X59124999Y-40378628D01*
X58946428Y-40854819D02*
X58946428Y-39854819D01*
X58946428Y-39854819D02*
X59232142Y-39854819D01*
X59232142Y-39854819D02*
X59303571Y-39902438D01*
X59303571Y-39902438D02*
X59339285Y-39950057D01*
X59339285Y-39950057D02*
X59374999Y-40045295D01*
X59374999Y-40045295D02*
X59374999Y-40188152D01*
X59374999Y-40188152D02*
X59339285Y-40283390D01*
X59339285Y-40283390D02*
X59303571Y-40331009D01*
X59303571Y-40331009D02*
X59232142Y-40378628D01*
X59232142Y-40378628D02*
X58946428Y-40378628D01*
X59624999Y-39854819D02*
X60089285Y-39854819D01*
X60089285Y-39854819D02*
X59839285Y-40235771D01*
X59839285Y-40235771D02*
X59946428Y-40235771D01*
X59946428Y-40235771D02*
X60017857Y-40283390D01*
X60017857Y-40283390D02*
X60053571Y-40331009D01*
X60053571Y-40331009D02*
X60089285Y-40426247D01*
X60089285Y-40426247D02*
X60089285Y-40664342D01*
X60089285Y-40664342D02*
X60053571Y-40759580D01*
X60053571Y-40759580D02*
X60017857Y-40807200D01*
X60017857Y-40807200D02*
X59946428Y-40854819D01*
X59946428Y-40854819D02*
X59732142Y-40854819D01*
X59732142Y-40854819D02*
X59660714Y-40807200D01*
X59660714Y-40807200D02*
X59624999Y-40759580D01*
D12*
%TO.C,C3*%
X71351248Y-43090000D02*
X72773752Y-43090000D01*
X71351248Y-44910000D02*
X72773752Y-44910000D01*
D13*
%TO.C,U2*%
X62374400Y-28924500D02*
X62374400Y-30575500D01*
X63387860Y-28924500D02*
X62374400Y-28924500D01*
X63659640Y-30575500D02*
X64340360Y-30575500D01*
X65625600Y-28924500D02*
X64612140Y-28924500D01*
X65625600Y-30575500D02*
X65625600Y-28924500D01*
X61358400Y-31020000D02*
G75*
G02*
X61104400Y-31020000I-127000J0D01*
G01*
X61104400Y-31020000D02*
G75*
G02*
X61358400Y-31020000I127000J0D01*
G01*
%TO.C,D1*%
X66465350Y-34177100D02*
X68034650Y-34177100D01*
X68034650Y-32322900D02*
X66465350Y-32322900D01*
%TO.C,R2*%
X54064900Y-41188400D02*
X54064900Y-47741600D01*
X54064900Y-47741600D02*
X56935100Y-47741600D01*
X56935100Y-41188400D02*
X54064900Y-41188400D01*
X56935100Y-47741600D02*
X56935100Y-41188400D01*
D14*
%TO.C,K1*%
X49860000Y-28940000D02*
X49860000Y-35940000D01*
X49860000Y-35940000D02*
X52860000Y-35940000D01*
X55060000Y-35940000D02*
X57660000Y-35940000D01*
X58060000Y-28940000D02*
X52260000Y-28940000D01*
X60460000Y-35940000D02*
X60460000Y-28940000D01*
D15*
X54010000Y-36440000D02*
G75*
G02*
X53810000Y-36440000I-100000J0D01*
G01*
X53810000Y-36440000D02*
G75*
G02*
X54010000Y-36440000I100000J0D01*
G01*
D16*
%TO.C,J2*%
X49530000Y-67310000D02*
X49530000Y-69850000D01*
X49530000Y-67310000D02*
X74930000Y-67310000D01*
X74930000Y-67310000D02*
X74930000Y-69850000D01*
X74930000Y-69850000D02*
X49530000Y-69850000D01*
D17*
X49911000Y-66929000D02*
G75*
G02*
X49657000Y-66929000I-127000J0D01*
G01*
X49657000Y-66929000D02*
G75*
G02*
X49911000Y-66929000I127000J0D01*
G01*
D13*
%TO.C,C1*%
X71807549Y-35877000D02*
X73192451Y-35877000D01*
X73192451Y-33123000D02*
X71807549Y-33123000D01*
%TO.C,R1*%
X50064900Y-41223400D02*
X50064900Y-47776600D01*
X50064900Y-47776600D02*
X52935100Y-47776600D01*
X52935100Y-41223400D02*
X50064900Y-41223400D01*
X52935100Y-47776600D02*
X52935100Y-41223400D01*
D12*
%TO.C,U1*%
X65525000Y-35575000D02*
X63575000Y-35575000D01*
X65525000Y-35575000D02*
X67475000Y-35575000D01*
X65525000Y-40695000D02*
X63575000Y-40695000D01*
X65525000Y-40695000D02*
X67475000Y-40695000D01*
X62825000Y-35670000D02*
X62585000Y-35340000D01*
X63065000Y-35340000D01*
X62825000Y-35670000D01*
G36*
X62825000Y-35670000D02*
G01*
X62585000Y-35340000D01*
X63065000Y-35340000D01*
X62825000Y-35670000D01*
G37*
D13*
%TO.C,C2*%
X71735350Y-39427000D02*
X73320252Y-39427000D01*
X73320252Y-37573000D02*
X71735350Y-37573000D01*
%TO.C,R3*%
X58064900Y-41223400D02*
X58064900Y-47776600D01*
X58064900Y-47776600D02*
X60935100Y-47776600D01*
X60935100Y-41223400D02*
X58064900Y-41223400D01*
X60935100Y-47776600D02*
X60935100Y-41223400D01*
D16*
%TO.C,J1*%
X49530000Y-24130000D02*
X49530000Y-26670000D01*
X49530000Y-24130000D02*
X74930000Y-24130000D01*
X74930000Y-24130000D02*
X74930000Y-26670000D01*
X74930000Y-26670000D02*
X49530000Y-26670000D01*
D17*
X49911000Y-23749000D02*
G75*
G02*
X49657000Y-23749000I-127000J0D01*
G01*
X49657000Y-23749000D02*
G75*
G02*
X49911000Y-23749000I127000J0D01*
G01*
%TD*%
M02*
