M48
; DRILL file {KiCad 8.0.7} date 2025-01-14T17:00:05-0500
; FORMAT={-:-/ absolute / inch / decimal}
; #@! TF.CreationDate,2025-01-14T17:00:05-05:00
; #@! TF.GenerationSoftware,Kicad,Pcbnew,8.0.7
; #@! TF.FileFunction,Plated,1,2,PTH
FMAT,2
INCH
; #@! TA.AperFunction,Plated,PTH,ViaDrill
T1C0.0118
; #@! TA.AperFunction,Plated,PTH,ComponentDrill
T2C0.0370
; #@! TA.AperFunction,Plated,PTH,ComponentDrill
T3C0.0402
; #@! TA.AperFunction,Plated,PTH,ComponentDrill
T4C0.0433
; #@! TA.AperFunction,Plated,PTH,ComponentDrill
T5C0.0512
; #@! TA.AperFunction,Plated,PTH,ComponentDrill
T6C0.0630
; #@! TA.AperFunction,Plated,PTH,ComponentDrill
T7C0.1260
%
G90
G05
T1
X3.9961Y-4.7831
X4.06Y-4.74
X4.1Y-4.68
X4.14Y-4.62
X4.18Y-4.56
X4.5862Y-4.7831
X4.61Y-5.59
X4.9213Y-4.8327
T2
X5.1Y-0.8008
X5.1Y-0.9008
X5.1Y-1.0008
X5.1Y-1.1008
X5.1Y-1.2008
X5.1Y-1.3008
X5.1Y-1.4008
X5.1Y-1.5008
X5.1Y-1.6008
X5.1Y-1.7008
X5.1Y-1.8008
X5.1Y-1.9008
X5.1Y-2.0008
X5.1Y-2.1008
X5.1Y-2.2008
X5.1Y-2.3008
X5.1Y-2.4008
X5.1Y-2.5008
X5.1Y-2.6008
X5.1Y-2.7008
X5.1Y-4.4
X5.1Y-4.5
X5.1Y-4.6
X5.1Y-4.7
X5.1Y-4.8
X5.1Y-4.9
X5.1Y-5.0
X5.1Y-5.1
X5.1Y-5.2
X5.1Y-5.3
X5.1Y-5.4
X5.1Y-5.5
X5.1Y-5.6
X5.1Y-5.7
X5.1Y-5.8
X5.1Y-5.9
X5.1Y-6.0
X5.1Y-6.1
X5.1Y-6.2
X5.1Y-6.3
T3
X3.9Y-0.8
X3.9Y-6.3
X4.0Y-0.8
X4.0Y-6.3
X4.1Y-0.8
X4.1Y-6.3
X4.2Y-0.8
X4.2Y-6.3
X4.3Y-0.8
X4.3Y-6.3
X4.4Y-0.8
X4.4Y-6.3
X4.5Y-0.8
X4.5Y-6.3
X4.6Y-0.8
X4.6Y-6.3
X4.7Y-0.8
X4.7Y-6.3
X4.8Y-0.8
X4.8Y-6.3
T4
X3.7161Y-1.4971
X3.7161Y-1.6061
X3.7161Y-1.7152
X3.7161Y-1.8242
X3.7161Y-1.9333
X3.7161Y-2.0424
X3.7161Y-2.1514
X3.7161Y-3.1876
X3.7161Y-3.2967
X3.7161Y-3.4057
X3.7161Y-3.5148
X3.7161Y-3.6238
X3.7161Y-3.7329
X3.7161Y-3.842
X3.7161Y-4.8819
X3.7161Y-4.9909
X3.7161Y-5.1
X3.7161Y-5.2091
X3.7161Y-5.3181
X3.7161Y-5.4272
X3.7161Y-5.5362
X3.8161Y-1.4425
X3.8161Y-1.5516
X3.8161Y-1.6607
X3.8161Y-1.7697
X3.8161Y-1.8788
X3.8161Y-1.9878
X3.8161Y-2.0969
X3.8161Y-2.2059
X3.8161Y-3.1331
X3.8161Y-3.2422
X3.8161Y-3.3512
X3.8161Y-3.4603
X3.8161Y-3.5693
X3.8161Y-3.6784
X3.8161Y-3.7874
X3.8161Y-3.8965
X3.8161Y-4.8274
X3.8161Y-4.9364
X3.8161Y-5.0455
X3.8161Y-5.1545
X3.8161Y-5.2636
X3.8161Y-5.3726
X3.8161Y-5.4817
X3.8161Y-5.5907
T5
X4.0591Y-2.4744
X4.2559Y-2.4744
X4.6614Y-2.4744
X4.8583Y-2.4744
X4.9921Y-2.9244
X4.9921Y-3.1213
X4.9921Y-3.4228
X4.9921Y-3.6197
X4.9921Y-3.9252
X4.9921Y-4.122
T6
X4.2598Y-3.311
X4.2598Y-3.445
X4.6498Y-3.311
X4.6498Y-3.445
T7
X3.7661Y-1.1683
X3.7661Y-2.4801
X3.7661Y-2.8589
X3.7661Y-4.1707
X3.7661Y-4.5531
X3.7661Y-5.865
M30
