%TF.GenerationSoftware,KiCad,Pcbnew,8.0.7*%
%TF.CreationDate,2025-01-14T17:00:07-05:00*%
%TF.ProjectId,IO Board,494f2042-6f61-4726-942e-6b696361645f,rev?*%
%TF.SameCoordinates,Original*%
%TF.FileFunction,Copper,L2,Bot*%
%TF.FilePolarity,Positive*%
%FSLAX46Y46*%
G04 Gerber Fmt 4.6, Leading zero omitted, Abs format (unit mm)*
G04 Created by KiCad (PCBNEW 8.0.7) date 2025-01-14 17:00:07*
%MOMM*%
%LPD*%
G01*
G04 APERTURE LIST*
%TA.AperFunction,ComponentPad*%
%ADD10R,2.108200X2.108200*%
%TD*%
%TA.AperFunction,ComponentPad*%
%ADD11C,2.108200*%
%TD*%
%TA.AperFunction,ComponentPad*%
%ADD12C,1.950000*%
%TD*%
%TA.AperFunction,ComponentPad*%
%ADD13R,1.650000X1.650000*%
%TD*%
%TA.AperFunction,ComponentPad*%
%ADD14C,1.650000*%
%TD*%
%TA.AperFunction,ComponentPad*%
%ADD15C,4.216000*%
%TD*%
%TA.AperFunction,ComponentPad*%
%ADD16C,1.750000*%
%TD*%
%TA.AperFunction,ComponentPad*%
%ADD17C,1.447800*%
%TD*%
%TA.AperFunction,ViaPad*%
%ADD18C,0.800000*%
%TD*%
%TA.AperFunction,ViaPad*%
%ADD19C,1.750000*%
%TD*%
%TA.AperFunction,ViaPad*%
%ADD20C,1.250000*%
%TD*%
%TA.AperFunction,Conductor*%
%ADD21C,0.500000*%
%TD*%
%TA.AperFunction,Conductor*%
%ADD22C,0.250000*%
%TD*%
%TA.AperFunction,Conductor*%
%ADD23C,0.750000*%
%TD*%
%TA.AperFunction,Conductor*%
%ADD24C,5.000000*%
%TD*%
%TA.AperFunction,Conductor*%
%ADD25C,2.000000*%
%TD*%
G04 APERTURE END LIST*
D10*
%TO.P,F1,1,1*%
%TO.N,Net-(F1-Pad1)*%
X108200000Y-84100000D03*
D11*
%TO.P,F1,2,2*%
X108200000Y-87503600D03*
%TO.P,F1,3,3*%
%TO.N,Net-(F1-Pad3)*%
X118106000Y-87503600D03*
%TO.P,F1,4,4*%
X118106000Y-84100000D03*
%TD*%
D12*
%TO.P,J8,1*%
%TO.N,Net-(J1-Pad1)*%
X118400000Y-62850000D03*
%TO.P,J8,2*%
X123400000Y-62850000D03*
%TD*%
%TO.P,J10,1*%
%TO.N,Net-(F1-Pad3)*%
X126800000Y-86940000D03*
%TO.P,J10,2*%
X126800000Y-91940000D03*
%TD*%
D13*
%TO.P,J4,01,01*%
%TO.N,Net-(J4-Pad01)*%
X96930000Y-122615000D03*
D14*
%TO.P,J4,02,02*%
%TO.N,unconnected-(J4-Pad02)*%
X96930000Y-125385000D03*
%TO.P,J4,03,03*%
%TO.N,unconnected-(J4-Pad03)*%
X96930000Y-128155000D03*
%TO.P,J4,04,04*%
%TO.N,Net-(J4-Pad04)*%
X96930000Y-130925000D03*
%TO.P,J4,05,05*%
%TO.N,Net-(J4-Pad05)*%
X96930000Y-133695000D03*
%TO.P,J4,06,06*%
%TO.N,Net-(J4-Pad06)*%
X96930000Y-136465000D03*
%TO.P,J4,07,07*%
%TO.N,Net-(J4-Pad07)*%
X96930000Y-139235000D03*
%TO.P,J4,08,08*%
%TO.N,Net-(J4-Pad08)*%
X96930000Y-142005000D03*
%TO.P,J4,09,09*%
%TO.N,Net-(J4-Pad09)*%
X94390000Y-124000000D03*
%TO.P,J4,10,10*%
%TO.N,Net-(J4-Pad10)*%
X94390000Y-126770000D03*
%TO.P,J4,11,11*%
%TO.N,Net-(J4-Pad11)*%
X94390000Y-129540000D03*
%TO.P,J4,12,12*%
%TO.N,Net-(J4-Pad12)*%
X94390000Y-132310000D03*
%TO.P,J4,13,13*%
%TO.N,Net-(J4-Pad13)*%
X94390000Y-135080000D03*
%TO.P,J4,14,14*%
%TO.N,Net-(J4-Pad14)*%
X94390000Y-137850000D03*
%TO.P,J4,15,15*%
%TO.N,Net-(J4-Pad15)*%
X94390000Y-140620000D03*
D15*
%TO.P,J4,S1,SHIELD*%
%TO.N,Net-(J1-Pad1)*%
X95660000Y-115650000D03*
%TO.P,J4,S2,SHIELD*%
X95660000Y-148970000D03*
%TD*%
D16*
%TO.P,REF\u002A\u002A,1*%
%TO.N,N/C*%
X99060000Y-160020000D03*
%TO.P,REF\u002A\u002A,2*%
X101600000Y-160020000D03*
%TO.P,REF\u002A\u002A,3*%
X104140000Y-160020000D03*
%TO.P,REF\u002A\u002A,4*%
X106680000Y-160020000D03*
%TO.P,REF\u002A\u002A,5*%
X109220000Y-160020000D03*
%TO.P,REF\u002A\u002A,6*%
X111760000Y-160020000D03*
%TO.P,REF\u002A\u002A,7*%
X114300000Y-160020000D03*
%TO.P,REF\u002A\u002A,8*%
X116840000Y-160020000D03*
%TO.P,REF\u002A\u002A,9*%
X119380000Y-160020000D03*
%TO.P,REF\u002A\u002A,10*%
X121920000Y-160020000D03*
%TD*%
D12*
%TO.P,J11,1*%
%TO.N,Net-(F1-Pad1)*%
X126800000Y-99700000D03*
%TO.P,J11,2*%
X126800000Y-104700000D03*
%TD*%
D17*
%TO.P,J5,1,1*%
%TO.N,Net-(J2-Pad01)*%
X129540000Y-20340500D03*
%TO.P,J5,2,2*%
%TO.N,Net-(J2-Pad02)*%
X129540000Y-22880500D03*
%TO.P,J5,3,3*%
%TO.N,Net-(J2-Pad03)*%
X129540000Y-25420500D03*
%TO.P,J5,4,4*%
%TO.N,Net-(J2-Pad04)*%
X129540000Y-27960500D03*
%TO.P,J5,5,5*%
%TO.N,unconnected-(J5-Pad5)*%
X129540000Y-30500500D03*
%TO.P,J5,6,6*%
%TO.N,Net-(J2-Pad06)*%
X129540000Y-33040500D03*
%TO.P,J5,7,7*%
%TO.N,Net-(J2-Pad07)*%
X129540000Y-35580500D03*
%TO.P,J5,8,8*%
%TO.N,Net-(J2-Pad08)*%
X129540000Y-38120500D03*
%TO.P,J5,9,9*%
%TO.N,Net-(J2-Pad09)*%
X129540000Y-40660500D03*
%TO.P,J5,10,10*%
%TO.N,Net-(J2-Pad10)*%
X129540000Y-43200500D03*
%TO.P,J5,11,11*%
%TO.N,Net-(J2-Pad11)*%
X129540000Y-45740500D03*
%TO.P,J5,12,12*%
%TO.N,Net-(J2-Pad12)*%
X129540000Y-48280500D03*
%TO.P,J5,13,13*%
%TO.N,Net-(J2-Pad13)*%
X129540000Y-50820500D03*
%TO.P,J5,14,14*%
%TO.N,Net-(J2-Pad14)*%
X129540000Y-53360500D03*
%TO.P,J5,15,15*%
%TO.N,Net-(J2-Pad15)*%
X129540000Y-55900500D03*
%TO.P,J5,16,16*%
%TO.N,unconnected-(J5-Pad16)*%
X129540000Y-58440500D03*
%TO.P,J5,17,17*%
%TO.N,unconnected-(J5-Pad17)*%
X129540000Y-60980500D03*
%TO.P,J5,18,18*%
%TO.N,unconnected-(J5-Pad18)*%
X129540000Y-63520500D03*
%TO.P,J5,19,19*%
%TO.N,unconnected-(J5-Pad19)*%
X129540000Y-66060500D03*
%TO.P,J5,20,20*%
%TO.N,unconnected-(J5-Pad20)*%
X129540000Y-68600500D03*
%TD*%
%TO.P,J6,1,1*%
%TO.N,unconnected-(J6-Pad1)*%
X129540000Y-111760000D03*
%TO.P,J6,2,2*%
%TO.N,unconnected-(J4-Pad02)*%
X129540000Y-114300000D03*
%TO.P,J6,3,3*%
%TO.N,unconnected-(J6-Pad3)*%
X129540000Y-116840000D03*
%TO.P,J6,4,4*%
%TO.N,Net-(J6-Pad4)*%
X129540000Y-119380000D03*
%TO.P,J6,5,5*%
%TO.N,Net-(J4-Pad05)*%
X129540000Y-121920000D03*
%TO.P,J6,6,6*%
%TO.N,Net-(J4-Pad06)*%
X129540000Y-124460000D03*
%TO.P,J6,7,7*%
%TO.N,Net-(J4-Pad07)*%
X129540000Y-127000000D03*
%TO.P,J6,8,8*%
%TO.N,Net-(J6-Pad8)*%
X129540000Y-129540000D03*
%TO.P,J6,9,9*%
%TO.N,Net-(J3-Pad12)*%
X129540000Y-132080000D03*
%TO.P,J6,10,10*%
%TO.N,Net-(J3-Pad13)*%
X129540000Y-134620000D03*
%TO.P,J6,11,11*%
%TO.N,Net-(J3-Pad14)*%
X129540000Y-137160000D03*
%TO.P,J6,12,12*%
%TO.N,Net-(J3-Pad15)*%
X129540000Y-139700000D03*
%TO.P,J6,13,13*%
%TO.N,unconnected-(J6-Pad13)*%
X129540000Y-142240000D03*
%TO.P,J6,14,14*%
%TO.N,unconnected-(J6-Pad14)*%
X129540000Y-144780000D03*
%TO.P,J6,15,15*%
%TO.N,unconnected-(J6-Pad15)*%
X129540000Y-147320000D03*
%TO.P,J6,16,16*%
%TO.N,unconnected-(J6-Pad16)*%
X129540000Y-149860000D03*
%TO.P,J6,17,17*%
%TO.N,unconnected-(J6-Pad17)*%
X129540000Y-152400000D03*
%TO.P,J6,18,18*%
%TO.N,unconnected-(J6-Pad18)*%
X129540000Y-154940000D03*
%TO.P,J6,19,19*%
%TO.N,unconnected-(J6-Pad19)*%
X129540000Y-157480000D03*
%TO.P,J6,20,20*%
%TO.N,unconnected-(J6-Pad20)*%
X129540000Y-160020000D03*
%TD*%
D13*
%TO.P,J2,01,01*%
%TO.N,Net-(J2-Pad01)*%
X96930000Y-36640750D03*
D14*
%TO.P,J2,02,02*%
%TO.N,Net-(J2-Pad02)*%
X96930000Y-39410750D03*
%TO.P,J2,03,03*%
%TO.N,Net-(J2-Pad03)*%
X96930000Y-42180750D03*
%TO.P,J2,04,04*%
%TO.N,Net-(J2-Pad04)*%
X96930000Y-44950750D03*
%TO.P,J2,05,05*%
%TO.N,unconnected-(J2-Pad05)*%
X96930000Y-47720750D03*
%TO.P,J2,06,06*%
%TO.N,Net-(J2-Pad06)*%
X96930000Y-50490750D03*
%TO.P,J2,07,07*%
%TO.N,Net-(J2-Pad07)*%
X96930000Y-53260750D03*
%TO.P,J2,08,08*%
%TO.N,Net-(J2-Pad08)*%
X96930000Y-56030750D03*
%TO.P,J2,09,09*%
%TO.N,Net-(J2-Pad09)*%
X94390000Y-38025750D03*
%TO.P,J2,10,10*%
%TO.N,Net-(J2-Pad10)*%
X94390000Y-40795750D03*
%TO.P,J2,11,11*%
%TO.N,Net-(J2-Pad11)*%
X94390000Y-43565750D03*
%TO.P,J2,12,12*%
%TO.N,Net-(J2-Pad12)*%
X94390000Y-46335750D03*
%TO.P,J2,13,13*%
%TO.N,Net-(J2-Pad13)*%
X94390000Y-49105750D03*
%TO.P,J2,14,14*%
%TO.N,Net-(J2-Pad14)*%
X94390000Y-51875750D03*
%TO.P,J2,15,15*%
%TO.N,Net-(J2-Pad15)*%
X94390000Y-54645750D03*
D15*
%TO.P,J2,S1,SHIELD*%
%TO.N,Net-(J1-Pad1)*%
X95660000Y-29675750D03*
%TO.P,J2,S2,SHIELD*%
X95660000Y-62995750D03*
%TD*%
D13*
%TO.P,J3,01,01*%
%TO.N,unconnected-(J3-Pad01)*%
X96930000Y-79580750D03*
D14*
%TO.P,J3,02,02*%
%TO.N,unconnected-(J3-Pad02)*%
X96930000Y-82350750D03*
%TO.P,J3,03,03*%
%TO.N,unconnected-(J3-Pad03)*%
X96930000Y-85120750D03*
%TO.P,J3,04,04*%
%TO.N,unconnected-(J3-Pad04)*%
X96930000Y-87890750D03*
%TO.P,J3,05,05*%
%TO.N,unconnected-(J3-Pad05)*%
X96930000Y-90660750D03*
%TO.P,J3,06,06*%
%TO.N,unconnected-(J3-Pad06)*%
X96930000Y-93430750D03*
%TO.P,J3,07,07*%
%TO.N,unconnected-(J3-Pad07)*%
X96930000Y-96200750D03*
%TO.P,J3,08,08*%
%TO.N,unconnected-(J3-Pad08)*%
X96930000Y-98970750D03*
%TO.P,J3,09,09*%
%TO.N,unconnected-(J3-Pad09)*%
X94390000Y-80965750D03*
%TO.P,J3,10,10*%
%TO.N,unconnected-(J3-Pad10)*%
X94390000Y-83735750D03*
%TO.P,J3,11,11*%
%TO.N,unconnected-(J3-Pad11)*%
X94390000Y-86505750D03*
%TO.P,J3,12,12*%
%TO.N,Net-(J3-Pad12)*%
X94390000Y-89275750D03*
%TO.P,J3,13,13*%
%TO.N,Net-(J3-Pad13)*%
X94390000Y-92045750D03*
%TO.P,J3,14,14*%
%TO.N,Net-(J3-Pad14)*%
X94390000Y-94815750D03*
%TO.P,J3,15,15*%
%TO.N,Net-(J3-Pad15)*%
X94390000Y-97585750D03*
D15*
%TO.P,J3,S1,SHIELD*%
%TO.N,Net-(J1-Pad1)*%
X95660000Y-72615750D03*
%TO.P,J3,S2,SHIELD*%
X95660000Y-105935750D03*
%TD*%
D12*
%TO.P,J7,1*%
%TO.N,Net-(F1-Pad1)*%
X103100000Y-62850000D03*
%TO.P,J7,2*%
X108100000Y-62850000D03*
%TD*%
D16*
%TO.P,J1,1,1*%
%TO.N,Net-(J1-Pad1)*%
X99060000Y-20320000D03*
%TO.P,J1,2,2*%
X101600000Y-20320000D03*
%TO.P,J1,3,3*%
X104140000Y-20320000D03*
%TO.P,J1,4,4*%
%TO.N,unconnected-(J1-Pad4)*%
X106680000Y-20320000D03*
%TO.P,J1,5,5*%
%TO.N,unconnected-(J1-Pad5)*%
X109220000Y-20320000D03*
%TO.P,J1,6,6*%
%TO.N,unconnected-(J1-Pad6)*%
X111760000Y-20320000D03*
%TO.P,J1,7,7*%
%TO.N,unconnected-(J1-Pad7)*%
X114300000Y-20320000D03*
%TO.P,J1,8,8*%
%TO.N,unconnected-(J1-Pad8)*%
X116840000Y-20320000D03*
%TO.P,J1,9,9*%
%TO.N,unconnected-(J1-Pad9)*%
X119380000Y-20320000D03*
%TO.P,J1,10,10*%
%TO.N,unconnected-(J1-Pad10)*%
X121920000Y-20320000D03*
%TD*%
D12*
%TO.P,J9,1*%
%TO.N,Net-(J1-Pad1)*%
X126800000Y-74280000D03*
%TO.P,J9,2*%
X126800000Y-79280000D03*
%TD*%
D18*
%TO.N,Net-(J3-Pad12)*%
X106172000Y-115824000D03*
%TO.N,Net-(J3-Pad13)*%
X105156000Y-117348000D03*
%TO.N,Net-(J3-Pad15)*%
X103124000Y-120396000D03*
%TO.N,Net-(J3-Pad14)*%
X104140000Y-118872000D03*
%TO.N,Net-(J4-Pad04)*%
X101500000Y-121490000D03*
D19*
%TO.N,unconnected-(J4-Pad02)*%
X125000000Y-122750000D03*
D20*
%TO.N,Net-(J6-Pad8)*%
X117094000Y-141986000D03*
D18*
%TO.N,Net-(J6-Pad4)*%
X116490000Y-121490000D03*
%TD*%
D21*
%TO.N,Net-(J2-Pad10)*%
X127155750Y-40795750D02*
X129540000Y-43180000D01*
X94390000Y-40795750D02*
X127155750Y-40795750D01*
%TO.N,Net-(J2-Pad11)*%
X94390000Y-43565750D02*
X127385750Y-43565750D01*
X127385750Y-43565750D02*
X129540000Y-45720000D01*
%TO.N,Net-(J2-Pad09)*%
X126925750Y-38025750D02*
X94390000Y-38025750D01*
X126925750Y-38025750D02*
X129540000Y-40640000D01*
D22*
%TO.N,Net-(J3-Pad12)*%
X106172000Y-98311759D02*
X106172000Y-115824000D01*
X97135991Y-89275750D02*
X106172000Y-98311759D01*
X94390000Y-89275750D02*
X97135991Y-89275750D01*
%TO.N,Net-(J3-Pad13)*%
X104648000Y-99557759D02*
X104648000Y-116840000D01*
X104648000Y-116840000D02*
X105156000Y-117348000D01*
X97135991Y-92045750D02*
X104648000Y-99557759D01*
X94390000Y-92045750D02*
X97135991Y-92045750D01*
%TO.N,Net-(J3-Pad15)*%
X101600000Y-102014404D02*
X101600000Y-118872000D01*
X97171346Y-97585750D02*
X101600000Y-102014404D01*
X94390000Y-97585750D02*
X97135991Y-97585750D01*
X101600000Y-118872000D02*
X103124000Y-120396000D01*
X97135991Y-97585750D02*
X97171346Y-97585750D01*
%TO.N,Net-(J3-Pad14)*%
X94390000Y-94815750D02*
X97135991Y-94815750D01*
X103124000Y-100803759D02*
X103124000Y-117856000D01*
X97135991Y-94815750D02*
X103124000Y-100803759D01*
X103124000Y-117856000D02*
X104140000Y-118872000D01*
D21*
%TO.N,Net-(J2-Pad12)*%
X94390000Y-46335750D02*
X127615750Y-46335750D01*
X127615750Y-46335750D02*
X129540000Y-48260000D01*
%TO.N,Net-(J2-Pad13)*%
X94390000Y-49105750D02*
X127845750Y-49105750D01*
X127845750Y-49105750D02*
X129540000Y-50800000D01*
%TO.N,Net-(J2-Pad15)*%
X94390000Y-54645750D02*
X128305750Y-54645750D01*
X128305750Y-54645750D02*
X129540000Y-55880000D01*
%TO.N,Net-(J2-Pad14)*%
X128075750Y-51875750D02*
X129540000Y-53340000D01*
X94390000Y-51875750D02*
X128075750Y-51875750D01*
D22*
%TO.N,Net-(J4-Pad04)*%
X91440000Y-129540000D02*
X92825000Y-130925000D01*
X101500000Y-121490000D02*
X94010000Y-121490000D01*
X94010000Y-121490000D02*
X91440000Y-124060000D01*
X92825000Y-130925000D02*
X96930000Y-130925000D01*
X91440000Y-124060000D02*
X91440000Y-129540000D01*
D23*
%TO.N,Net-(J4-Pad07)*%
X96930000Y-139235000D02*
X117305000Y-139235000D01*
X117305000Y-139235000D02*
X129540000Y-127000000D01*
%TO.N,Net-(J4-Pad05)*%
X96930000Y-133695000D02*
X117765000Y-133695000D01*
X117765000Y-133695000D02*
X129540000Y-121920000D01*
%TO.N,Net-(J4-Pad06)*%
X96930000Y-136465000D02*
X117535000Y-136465000D01*
X117535000Y-136465000D02*
X129540000Y-124460000D01*
%TO.N,unconnected-(J4-Pad02)*%
X116250000Y-125385000D02*
X116750000Y-125385000D01*
X96930000Y-125385000D02*
X116250000Y-125385000D01*
X116750000Y-125385000D02*
X122365000Y-125385000D01*
X122365000Y-125385000D02*
X125000000Y-122750000D01*
D21*
%TO.N,Net-(J6-Pad8)*%
X117094000Y-141986000D02*
X129540000Y-129540000D01*
X117080000Y-142000000D02*
X117094000Y-141986000D01*
D24*
%TO.N,Net-(J1-Pad1)*%
X87376000Y-80899750D02*
X87376000Y-97651750D01*
X95660000Y-105935750D02*
X95660000Y-115650000D01*
X88138000Y-37197750D02*
X95660000Y-29675750D01*
X108634250Y-72615750D02*
X95660000Y-72615750D01*
D25*
X95660000Y-29675750D02*
X95660000Y-23720000D01*
D24*
X88138000Y-55473750D02*
X88138000Y-37197750D01*
X95660000Y-115650000D02*
X87122000Y-124188000D01*
X95660000Y-72615750D02*
X95660000Y-62995750D01*
D25*
X101600000Y-20320000D02*
X104140000Y-20320000D01*
X95660000Y-23720000D02*
X99060000Y-20320000D01*
D24*
X87122000Y-124188000D02*
X87122000Y-140432000D01*
X95660000Y-72615750D02*
X87376000Y-80899750D01*
X87376000Y-97651750D02*
X95660000Y-105935750D01*
X95660000Y-62995750D02*
X88138000Y-55473750D01*
D25*
X99060000Y-20320000D02*
X101600000Y-20320000D01*
D24*
X87122000Y-140432000D02*
X95660000Y-148970000D01*
X118400000Y-62850000D02*
X108634250Y-72615750D01*
D22*
%TO.N,Net-(J6-Pad4)*%
X127430000Y-121490000D02*
X129540000Y-119380000D01*
X116490000Y-121490000D02*
X127430000Y-121490000D01*
%TD*%
M02*
