%TF.GenerationSoftware,KiCad,Pcbnew,8.0.8*%
%TF.CreationDate,2025-02-16T23:44:15-05:00*%
%TF.ProjectId,RTDS Control Module V2.0,52544453-2043-46f6-9e74-726f6c204d6f,rev?*%
%TF.SameCoordinates,Original*%
%TF.FileFunction,Soldermask,Top*%
%TF.FilePolarity,Negative*%
%FSLAX46Y46*%
G04 Gerber Fmt 4.6, Leading zero omitted, Abs format (unit mm)*
G04 Created by KiCad (PCBNEW 8.0.8) date 2025-02-16 23:44:15*
%MOMM*%
%LPD*%
G01*
G04 APERTURE LIST*
G04 Aperture macros list*
%AMRoundRect*
0 Rectangle with rounded corners*
0 $1 Rounding radius*
0 $2 $3 $4 $5 $6 $7 $8 $9 X,Y pos of 4 corners*
0 Add a 4 corners polygon primitive as box body*
4,1,4,$2,$3,$4,$5,$6,$7,$8,$9,$2,$3,0*
0 Add four circle primitives for the rounded corners*
1,1,$1+$1,$2,$3*
1,1,$1+$1,$4,$5*
1,1,$1+$1,$6,$7*
1,1,$1+$1,$8,$9*
0 Add four rect primitives between the rounded corners*
20,1,$1+$1,$2,$3,$4,$5,0*
20,1,$1+$1,$4,$5,$6,$7,0*
20,1,$1+$1,$6,$7,$8,$9,0*
20,1,$1+$1,$8,$9,$2,$3,0*%
G04 Aperture macros list end*
%ADD10R,0.609600X0.889000*%
%ADD11R,0.558800X0.863600*%
%ADD12R,0.863600X1.600200*%
%ADD13R,1.397000X1.397000*%
%ADD14C,1.397000*%
%ADD15C,1.854000*%
%ADD16C,1.954000*%
%ADD17R,0.955600X2.500000*%
%ADD18RoundRect,0.150000X-0.825000X-0.150000X0.825000X-0.150000X0.825000X0.150000X-0.825000X0.150000X0*%
%ADD19R,0.855600X1.600000*%
G04 APERTURE END LIST*
D10*
%TO.C,R4*%
X68512300Y-31900000D03*
X69807700Y-31900000D03*
%TD*%
D11*
%TO.C,U2*%
X61652500Y-39712400D03*
X59747500Y-39712400D03*
X60700000Y-42100000D03*
%TD*%
D12*
%TO.C,D1*%
X68636000Y-29400000D03*
X71684000Y-29400000D03*
%TD*%
D13*
%TO.C,R2*%
X61000000Y-47800000D03*
D14*
X72430000Y-47800000D03*
%TD*%
D15*
%TO.C,K1*%
X53890000Y-34980000D03*
X58970000Y-34980000D03*
X58970000Y-29900000D03*
X51350000Y-29900000D03*
%TD*%
D16*
%TO.C,J1*%
X50800000Y-68580000D03*
X53340000Y-68580000D03*
X55880000Y-68580000D03*
X58420000Y-68580000D03*
X60960000Y-68580000D03*
X63500000Y-68580000D03*
X66040000Y-68580000D03*
X68580000Y-68580000D03*
X71120000Y-68580000D03*
X73660000Y-68580000D03*
%TD*%
D17*
%TO.C,C1*%
X62682199Y-34400000D03*
X65637801Y-34400000D03*
%TD*%
D13*
%TO.C,R1*%
X60985000Y-44400000D03*
D14*
X72415000Y-44400000D03*
%TD*%
D18*
%TO.C,U1*%
X51185000Y-37995000D03*
X51185000Y-39265000D03*
X51185000Y-40535000D03*
X51185000Y-41805000D03*
X56135000Y-41805000D03*
X56135000Y-40535000D03*
X56135000Y-39265000D03*
X56135000Y-37995000D03*
%TD*%
D19*
%TO.C,C2*%
X62632199Y-28900000D03*
X65687801Y-28900000D03*
%TD*%
D10*
%TO.C,R3*%
X68364600Y-34400000D03*
X69660000Y-34400000D03*
%TD*%
D16*
%TO.C,J1*%
X50800000Y-25400000D03*
X53340000Y-25400000D03*
X55880000Y-25400000D03*
X58420000Y-25400000D03*
X60960000Y-25400000D03*
X63500000Y-25400000D03*
X66040000Y-25400000D03*
X68580000Y-25400000D03*
X71120000Y-25400000D03*
X73660000Y-25400000D03*
%TD*%
M02*
