M48
; DRILL file {KiCad 8.0.8} date 2025-02-16T23:44:14-0500
; FORMAT={-:-/ absolute / inch / decimal}
; #@! TF.CreationDate,2025-02-16T23:44:14-05:00
; #@! TF.GenerationSoftware,Kicad,Pcbnew,8.0.8
; #@! TF.FileFunction,Plated,1,2,PTH
FMAT,2
INCH
; #@! TA.AperFunction,Plated,PTH,ViaDrill
T1C0.0118
; #@! TA.AperFunction,Plated,PTH,ViaDrill
T2C0.0197
; #@! TA.AperFunction,Plated,PTH,ViaDrill
T3C0.0236
; #@! TA.AperFunction,Plated,PTH,ComponentDrill
T4C0.0350
; #@! TA.AperFunction,Plated,PTH,ComponentDrill
T5C0.0402
; #@! TA.AperFunction,Plated,PTH,ComponentDrill
T6C0.0433
%
G90
G05
T1
X2.0152Y-1.4449
X2.0812Y-1.5182
X2.0866Y-1.6457
X2.1378Y-1.7677
X2.1417Y-1.5984
X2.1811Y-1.7205
X2.3094Y-1.4528
X2.3957Y-1.1201
X2.4079Y-1.4921
X2.5236Y-1.2283
X2.6305Y-1.2087
T2
X2.563Y-1.063
T3
X2.6008Y-1.6142
T4
X2.401Y-1.748
X2.4016Y-1.8819
X2.851Y-1.748
X2.8516Y-1.8819
T5
X2.0Y-1.0
X2.0Y-2.7
X2.1Y-1.0
X2.1Y-2.7
X2.2Y-1.0
X2.2Y-2.7
X2.3Y-1.0
X2.3Y-2.7
X2.4Y-1.0
X2.4Y-2.7
X2.5Y-1.0
X2.5Y-2.7
X2.6Y-1.0
X2.6Y-2.7
X2.7Y-1.0
X2.7Y-2.7
X2.8Y-1.0
X2.8Y-2.7
X2.9Y-1.0
X2.9Y-2.7
T6
X2.0217Y-1.1772
X2.1217Y-1.3772
X2.3217Y-1.1772
X2.3217Y-1.3772
M30
