M48
; DRILL file {KiCad 8.0.7} date 2025-01-14T17:05:06-0500
; FORMAT={-:-/ absolute / inch / decimal}
; #@! TF.CreationDate,2025-01-14T17:05:06-05:00
; #@! TF.GenerationSoftware,Kicad,Pcbnew,8.0.7
; #@! TF.FileFunction,Plated,1,2,PTH
FMAT,2
INCH
; #@! TA.AperFunction,Plated,PTH,ViaDrill
T1C0.0197
; #@! TA.AperFunction,Plated,PTH,ComponentDrill
T2C0.0402
; #@! TA.AperFunction,Plated,PTH,ComponentDrill
T3C0.0512
; #@! TA.AperFunction,Plated,PTH,ComponentDrill
T4C0.0630
; #@! TA.AperFunction,Plated,PTH,ComponentDrill
T5C0.0630
%
G90
G05
T1
X3.326Y-2.5118
T2
X2.7551Y-2.0474
X2.7551Y-2.8848
X2.8551Y-2.0474
X2.8551Y-2.8848
X2.9551Y-2.0474
X2.9551Y-2.8848
X3.0551Y-2.0474
X3.0551Y-2.8848
X3.1551Y-2.0474
X3.1551Y-2.8848
X3.2551Y-2.0474
X3.2551Y-2.8848
X3.3551Y-2.0474
X3.3551Y-2.8848
X3.4551Y-2.0474
X3.4551Y-2.8848
X3.5551Y-2.0474
X3.5551Y-2.8848
X3.6551Y-2.0474
X3.6551Y-2.8848
T3
X2.9055Y-2.5161
X2.9055Y-2.713
X3.5055Y-2.5161
X3.5055Y-2.713
T4
X2.8228Y-2.3228
X3.1531Y-2.7504
T5
X3.1235Y-2.1814
X3.1235Y-2.3154
X3.5135Y-2.1814
X3.5135Y-2.3154
M30
