%TF.GenerationSoftware,KiCad,Pcbnew,8.0.8*%
%TF.CreationDate,2025-02-03T23:35:19-05:00*%
%TF.ProjectId,Precharge Module,50726563-6861-4726-9765-204d6f64756c,rev?*%
%TF.SameCoordinates,Original*%
%TF.FileFunction,Legend,Top*%
%TF.FilePolarity,Positive*%
%FSLAX46Y46*%
G04 Gerber Fmt 4.6, Leading zero omitted, Abs format (unit mm)*
G04 Created by KiCad (PCBNEW 8.0.8) date 2025-02-03 23:35:19*
%MOMM*%
%LPD*%
G01*
G04 APERTURE LIST*
%ADD10C,0.100000*%
%ADD11C,0.075000*%
%ADD12C,0.125000*%
%ADD13C,0.150000*%
%ADD14C,0.152400*%
%ADD15C,0.120000*%
%ADD16C,0.076200*%
%ADD17C,0.254000*%
%ADD18C,0.127000*%
%ADD19C,0.200000*%
G04 APERTURE END LIST*
D10*
X50163000Y-56700000D02*
X74163000Y-56700000D01*
X74163000Y-59400000D01*
X50163000Y-59400000D01*
X50163000Y-56700000D01*
X51101503Y-27872419D02*
X50530075Y-27872419D01*
X50815789Y-27872419D02*
X50815789Y-26872419D01*
X50815789Y-26872419D02*
X50720551Y-27015276D01*
X50720551Y-27015276D02*
X50625313Y-27110514D01*
X50625313Y-27110514D02*
X50530075Y-27158133D01*
X73485312Y-27872419D02*
X72913884Y-27872419D01*
X73199598Y-27872419D02*
X73199598Y-26872419D01*
X73199598Y-26872419D02*
X73104360Y-27015276D01*
X73104360Y-27015276D02*
X73009122Y-27110514D01*
X73009122Y-27110514D02*
X72913884Y-27158133D01*
X74104360Y-26872419D02*
X74199598Y-26872419D01*
X74199598Y-26872419D02*
X74294836Y-26920038D01*
X74294836Y-26920038D02*
X74342455Y-26967657D01*
X74342455Y-26967657D02*
X74390074Y-27062895D01*
X74390074Y-27062895D02*
X74437693Y-27253371D01*
X74437693Y-27253371D02*
X74437693Y-27491466D01*
X74437693Y-27491466D02*
X74390074Y-27681942D01*
X74390074Y-27681942D02*
X74342455Y-27777180D01*
X74342455Y-27777180D02*
X74294836Y-27824800D01*
X74294836Y-27824800D02*
X74199598Y-27872419D01*
X74199598Y-27872419D02*
X74104360Y-27872419D01*
X74104360Y-27872419D02*
X74009122Y-27824800D01*
X74009122Y-27824800D02*
X73961503Y-27777180D01*
X73961503Y-27777180D02*
X73913884Y-27681942D01*
X73913884Y-27681942D02*
X73866265Y-27491466D01*
X73866265Y-27491466D02*
X73866265Y-27253371D01*
X73866265Y-27253371D02*
X73913884Y-27062895D01*
X73913884Y-27062895D02*
X73961503Y-26967657D01*
X73961503Y-26967657D02*
X74009122Y-26920038D01*
X74009122Y-26920038D02*
X74104360Y-26872419D01*
D11*
X63154103Y-51310433D02*
X62925532Y-51310433D01*
X63039818Y-51310433D02*
X63039818Y-50610433D01*
X63039818Y-50610433D02*
X63001722Y-50710433D01*
X63001722Y-50710433D02*
X62963627Y-50777100D01*
X62963627Y-50777100D02*
X62925532Y-50810433D01*
X63401722Y-50610433D02*
X63439817Y-50610433D01*
X63439817Y-50610433D02*
X63477913Y-50643766D01*
X63477913Y-50643766D02*
X63496960Y-50677100D01*
X63496960Y-50677100D02*
X63516008Y-50743766D01*
X63516008Y-50743766D02*
X63535055Y-50877100D01*
X63535055Y-50877100D02*
X63535055Y-51043766D01*
X63535055Y-51043766D02*
X63516008Y-51177100D01*
X63516008Y-51177100D02*
X63496960Y-51243766D01*
X63496960Y-51243766D02*
X63477913Y-51277100D01*
X63477913Y-51277100D02*
X63439817Y-51310433D01*
X63439817Y-51310433D02*
X63401722Y-51310433D01*
X63401722Y-51310433D02*
X63363627Y-51277100D01*
X63363627Y-51277100D02*
X63344579Y-51243766D01*
X63344579Y-51243766D02*
X63325532Y-51177100D01*
X63325532Y-51177100D02*
X63306484Y-51043766D01*
X63306484Y-51043766D02*
X63306484Y-50877100D01*
X63306484Y-50877100D02*
X63325532Y-50743766D01*
X63325532Y-50743766D02*
X63344579Y-50677100D01*
X63344579Y-50677100D02*
X63363627Y-50643766D01*
X63363627Y-50643766D02*
X63401722Y-50610433D01*
X63706484Y-51310433D02*
X63706484Y-50610433D01*
X63744579Y-51043766D02*
X63858865Y-51310433D01*
X63858865Y-50843766D02*
X63706484Y-51110433D01*
X63154103Y-54710433D02*
X62925532Y-54710433D01*
X63039818Y-54710433D02*
X63039818Y-54010433D01*
X63039818Y-54010433D02*
X63001722Y-54110433D01*
X63001722Y-54110433D02*
X62963627Y-54177100D01*
X62963627Y-54177100D02*
X62925532Y-54210433D01*
X63401722Y-54010433D02*
X63439817Y-54010433D01*
X63439817Y-54010433D02*
X63477913Y-54043766D01*
X63477913Y-54043766D02*
X63496960Y-54077100D01*
X63496960Y-54077100D02*
X63516008Y-54143766D01*
X63516008Y-54143766D02*
X63535055Y-54277100D01*
X63535055Y-54277100D02*
X63535055Y-54443766D01*
X63535055Y-54443766D02*
X63516008Y-54577100D01*
X63516008Y-54577100D02*
X63496960Y-54643766D01*
X63496960Y-54643766D02*
X63477913Y-54677100D01*
X63477913Y-54677100D02*
X63439817Y-54710433D01*
X63439817Y-54710433D02*
X63401722Y-54710433D01*
X63401722Y-54710433D02*
X63363627Y-54677100D01*
X63363627Y-54677100D02*
X63344579Y-54643766D01*
X63344579Y-54643766D02*
X63325532Y-54577100D01*
X63325532Y-54577100D02*
X63306484Y-54443766D01*
X63306484Y-54443766D02*
X63306484Y-54277100D01*
X63306484Y-54277100D02*
X63325532Y-54143766D01*
X63325532Y-54143766D02*
X63344579Y-54077100D01*
X63344579Y-54077100D02*
X63363627Y-54043766D01*
X63363627Y-54043766D02*
X63401722Y-54010433D01*
X63706484Y-54710433D02*
X63706484Y-54010433D01*
X63744579Y-54443766D02*
X63858865Y-54710433D01*
X63858865Y-54243766D02*
X63706484Y-54510433D01*
D10*
X50520692Y-58637490D02*
X50520692Y-57037490D01*
X50520692Y-57037490D02*
X50825454Y-57037490D01*
X50825454Y-57037490D02*
X50901644Y-57113680D01*
X50901644Y-57113680D02*
X50939739Y-57189871D01*
X50939739Y-57189871D02*
X50977835Y-57342252D01*
X50977835Y-57342252D02*
X50977835Y-57570823D01*
X50977835Y-57570823D02*
X50939739Y-57723204D01*
X50939739Y-57723204D02*
X50901644Y-57799395D01*
X50901644Y-57799395D02*
X50825454Y-57875585D01*
X50825454Y-57875585D02*
X50520692Y-57875585D01*
X51320692Y-58637490D02*
X51320692Y-57570823D01*
X51320692Y-57875585D02*
X51358787Y-57723204D01*
X51358787Y-57723204D02*
X51396882Y-57647014D01*
X51396882Y-57647014D02*
X51473073Y-57570823D01*
X51473073Y-57570823D02*
X51549263Y-57570823D01*
X52120692Y-58561300D02*
X52044501Y-58637490D01*
X52044501Y-58637490D02*
X51892120Y-58637490D01*
X51892120Y-58637490D02*
X51815930Y-58561300D01*
X51815930Y-58561300D02*
X51777834Y-58408919D01*
X51777834Y-58408919D02*
X51777834Y-57799395D01*
X51777834Y-57799395D02*
X51815930Y-57647014D01*
X51815930Y-57647014D02*
X51892120Y-57570823D01*
X51892120Y-57570823D02*
X52044501Y-57570823D01*
X52044501Y-57570823D02*
X52120692Y-57647014D01*
X52120692Y-57647014D02*
X52158787Y-57799395D01*
X52158787Y-57799395D02*
X52158787Y-57951776D01*
X52158787Y-57951776D02*
X51777834Y-58104157D01*
X52844501Y-58561300D02*
X52768310Y-58637490D01*
X52768310Y-58637490D02*
X52615929Y-58637490D01*
X52615929Y-58637490D02*
X52539739Y-58561300D01*
X52539739Y-58561300D02*
X52501644Y-58485109D01*
X52501644Y-58485109D02*
X52463548Y-58332728D01*
X52463548Y-58332728D02*
X52463548Y-57875585D01*
X52463548Y-57875585D02*
X52501644Y-57723204D01*
X52501644Y-57723204D02*
X52539739Y-57647014D01*
X52539739Y-57647014D02*
X52615929Y-57570823D01*
X52615929Y-57570823D02*
X52768310Y-57570823D01*
X52768310Y-57570823D02*
X52844501Y-57647014D01*
X53187358Y-58637490D02*
X53187358Y-57037490D01*
X53530215Y-58637490D02*
X53530215Y-57799395D01*
X53530215Y-57799395D02*
X53492120Y-57647014D01*
X53492120Y-57647014D02*
X53415929Y-57570823D01*
X53415929Y-57570823D02*
X53301643Y-57570823D01*
X53301643Y-57570823D02*
X53225453Y-57647014D01*
X53225453Y-57647014D02*
X53187358Y-57723204D01*
X54254025Y-58637490D02*
X54254025Y-57799395D01*
X54254025Y-57799395D02*
X54215930Y-57647014D01*
X54215930Y-57647014D02*
X54139739Y-57570823D01*
X54139739Y-57570823D02*
X53987358Y-57570823D01*
X53987358Y-57570823D02*
X53911168Y-57647014D01*
X54254025Y-58561300D02*
X54177834Y-58637490D01*
X54177834Y-58637490D02*
X53987358Y-58637490D01*
X53987358Y-58637490D02*
X53911168Y-58561300D01*
X53911168Y-58561300D02*
X53873072Y-58408919D01*
X53873072Y-58408919D02*
X53873072Y-58256538D01*
X53873072Y-58256538D02*
X53911168Y-58104157D01*
X53911168Y-58104157D02*
X53987358Y-58027966D01*
X53987358Y-58027966D02*
X54177834Y-58027966D01*
X54177834Y-58027966D02*
X54254025Y-57951776D01*
X54634978Y-58637490D02*
X54634978Y-57570823D01*
X54634978Y-57875585D02*
X54673073Y-57723204D01*
X54673073Y-57723204D02*
X54711168Y-57647014D01*
X54711168Y-57647014D02*
X54787359Y-57570823D01*
X54787359Y-57570823D02*
X54863549Y-57570823D01*
X55473073Y-57570823D02*
X55473073Y-58866061D01*
X55473073Y-58866061D02*
X55434978Y-59018442D01*
X55434978Y-59018442D02*
X55396882Y-59094633D01*
X55396882Y-59094633D02*
X55320692Y-59170823D01*
X55320692Y-59170823D02*
X55206406Y-59170823D01*
X55206406Y-59170823D02*
X55130216Y-59094633D01*
X55473073Y-58561300D02*
X55396882Y-58637490D01*
X55396882Y-58637490D02*
X55244501Y-58637490D01*
X55244501Y-58637490D02*
X55168311Y-58561300D01*
X55168311Y-58561300D02*
X55130216Y-58485109D01*
X55130216Y-58485109D02*
X55092120Y-58332728D01*
X55092120Y-58332728D02*
X55092120Y-57875585D01*
X55092120Y-57875585D02*
X55130216Y-57723204D01*
X55130216Y-57723204D02*
X55168311Y-57647014D01*
X55168311Y-57647014D02*
X55244501Y-57570823D01*
X55244501Y-57570823D02*
X55396882Y-57570823D01*
X55396882Y-57570823D02*
X55473073Y-57647014D01*
X56158788Y-58561300D02*
X56082597Y-58637490D01*
X56082597Y-58637490D02*
X55930216Y-58637490D01*
X55930216Y-58637490D02*
X55854026Y-58561300D01*
X55854026Y-58561300D02*
X55815930Y-58408919D01*
X55815930Y-58408919D02*
X55815930Y-57799395D01*
X55815930Y-57799395D02*
X55854026Y-57647014D01*
X55854026Y-57647014D02*
X55930216Y-57570823D01*
X55930216Y-57570823D02*
X56082597Y-57570823D01*
X56082597Y-57570823D02*
X56158788Y-57647014D01*
X56158788Y-57647014D02*
X56196883Y-57799395D01*
X56196883Y-57799395D02*
X56196883Y-57951776D01*
X56196883Y-57951776D02*
X55815930Y-58104157D01*
X57149264Y-58637490D02*
X57149264Y-57037490D01*
X57149264Y-57037490D02*
X57415930Y-58180347D01*
X57415930Y-58180347D02*
X57682597Y-57037490D01*
X57682597Y-57037490D02*
X57682597Y-58637490D01*
X58177835Y-58637490D02*
X58101645Y-58561300D01*
X58101645Y-58561300D02*
X58063550Y-58485109D01*
X58063550Y-58485109D02*
X58025454Y-58332728D01*
X58025454Y-58332728D02*
X58025454Y-57875585D01*
X58025454Y-57875585D02*
X58063550Y-57723204D01*
X58063550Y-57723204D02*
X58101645Y-57647014D01*
X58101645Y-57647014D02*
X58177835Y-57570823D01*
X58177835Y-57570823D02*
X58292121Y-57570823D01*
X58292121Y-57570823D02*
X58368312Y-57647014D01*
X58368312Y-57647014D02*
X58406407Y-57723204D01*
X58406407Y-57723204D02*
X58444502Y-57875585D01*
X58444502Y-57875585D02*
X58444502Y-58332728D01*
X58444502Y-58332728D02*
X58406407Y-58485109D01*
X58406407Y-58485109D02*
X58368312Y-58561300D01*
X58368312Y-58561300D02*
X58292121Y-58637490D01*
X58292121Y-58637490D02*
X58177835Y-58637490D01*
X59130217Y-58637490D02*
X59130217Y-57037490D01*
X59130217Y-58561300D02*
X59054026Y-58637490D01*
X59054026Y-58637490D02*
X58901645Y-58637490D01*
X58901645Y-58637490D02*
X58825455Y-58561300D01*
X58825455Y-58561300D02*
X58787360Y-58485109D01*
X58787360Y-58485109D02*
X58749264Y-58332728D01*
X58749264Y-58332728D02*
X58749264Y-57875585D01*
X58749264Y-57875585D02*
X58787360Y-57723204D01*
X58787360Y-57723204D02*
X58825455Y-57647014D01*
X58825455Y-57647014D02*
X58901645Y-57570823D01*
X58901645Y-57570823D02*
X59054026Y-57570823D01*
X59054026Y-57570823D02*
X59130217Y-57647014D01*
X59854027Y-57570823D02*
X59854027Y-58637490D01*
X59511170Y-57570823D02*
X59511170Y-58408919D01*
X59511170Y-58408919D02*
X59549265Y-58561300D01*
X59549265Y-58561300D02*
X59625455Y-58637490D01*
X59625455Y-58637490D02*
X59739741Y-58637490D01*
X59739741Y-58637490D02*
X59815932Y-58561300D01*
X59815932Y-58561300D02*
X59854027Y-58485109D01*
X60349265Y-58637490D02*
X60273075Y-58561300D01*
X60273075Y-58561300D02*
X60234980Y-58408919D01*
X60234980Y-58408919D02*
X60234980Y-57037490D01*
X60958790Y-58561300D02*
X60882599Y-58637490D01*
X60882599Y-58637490D02*
X60730218Y-58637490D01*
X60730218Y-58637490D02*
X60654028Y-58561300D01*
X60654028Y-58561300D02*
X60615932Y-58408919D01*
X60615932Y-58408919D02*
X60615932Y-57799395D01*
X60615932Y-57799395D02*
X60654028Y-57647014D01*
X60654028Y-57647014D02*
X60730218Y-57570823D01*
X60730218Y-57570823D02*
X60882599Y-57570823D01*
X60882599Y-57570823D02*
X60958790Y-57647014D01*
X60958790Y-57647014D02*
X60996885Y-57799395D01*
X60996885Y-57799395D02*
X60996885Y-57951776D01*
X60996885Y-57951776D02*
X60615932Y-58104157D01*
X61834980Y-57037490D02*
X62101647Y-58637490D01*
X62101647Y-58637490D02*
X62368313Y-57037490D01*
X63054027Y-58637490D02*
X62596884Y-58637490D01*
X62825456Y-58637490D02*
X62825456Y-57037490D01*
X62825456Y-57037490D02*
X62749265Y-57266061D01*
X62749265Y-57266061D02*
X62673075Y-57418442D01*
X62673075Y-57418442D02*
X62596884Y-57494633D01*
X63396885Y-58485109D02*
X63434980Y-58561300D01*
X63434980Y-58561300D02*
X63396885Y-58637490D01*
X63396885Y-58637490D02*
X63358789Y-58561300D01*
X63358789Y-58561300D02*
X63396885Y-58485109D01*
X63396885Y-58485109D02*
X63396885Y-58637490D01*
X63930218Y-57037490D02*
X64006408Y-57037490D01*
X64006408Y-57037490D02*
X64082599Y-57113680D01*
X64082599Y-57113680D02*
X64120694Y-57189871D01*
X64120694Y-57189871D02*
X64158789Y-57342252D01*
X64158789Y-57342252D02*
X64196884Y-57647014D01*
X64196884Y-57647014D02*
X64196884Y-58027966D01*
X64196884Y-58027966D02*
X64158789Y-58332728D01*
X64158789Y-58332728D02*
X64120694Y-58485109D01*
X64120694Y-58485109D02*
X64082599Y-58561300D01*
X64082599Y-58561300D02*
X64006408Y-58637490D01*
X64006408Y-58637490D02*
X63930218Y-58637490D01*
X63930218Y-58637490D02*
X63854027Y-58561300D01*
X63854027Y-58561300D02*
X63815932Y-58485109D01*
X63815932Y-58485109D02*
X63777837Y-58332728D01*
X63777837Y-58332728D02*
X63739741Y-58027966D01*
X63739741Y-58027966D02*
X63739741Y-57647014D01*
X63739741Y-57647014D02*
X63777837Y-57342252D01*
X63777837Y-57342252D02*
X63815932Y-57189871D01*
X63815932Y-57189871D02*
X63854027Y-57113680D01*
X63854027Y-57113680D02*
X63930218Y-57037490D01*
X65339742Y-59170823D02*
X65339742Y-56885109D01*
X66520695Y-58637490D02*
X66520695Y-57037490D01*
X66520695Y-57037490D02*
X66787361Y-58180347D01*
X66787361Y-58180347D02*
X67054028Y-57037490D01*
X67054028Y-57037490D02*
X67054028Y-58637490D01*
X67434981Y-58485109D02*
X67473076Y-58561300D01*
X67473076Y-58561300D02*
X67434981Y-58637490D01*
X67434981Y-58637490D02*
X67396885Y-58561300D01*
X67396885Y-58561300D02*
X67434981Y-58485109D01*
X67434981Y-58485109D02*
X67434981Y-58637490D01*
X68273076Y-58637490D02*
X68006409Y-57875585D01*
X67815933Y-58637490D02*
X67815933Y-57037490D01*
X67815933Y-57037490D02*
X68120695Y-57037490D01*
X68120695Y-57037490D02*
X68196885Y-57113680D01*
X68196885Y-57113680D02*
X68234980Y-57189871D01*
X68234980Y-57189871D02*
X68273076Y-57342252D01*
X68273076Y-57342252D02*
X68273076Y-57570823D01*
X68273076Y-57570823D02*
X68234980Y-57723204D01*
X68234980Y-57723204D02*
X68196885Y-57799395D01*
X68196885Y-57799395D02*
X68120695Y-57875585D01*
X68120695Y-57875585D02*
X67815933Y-57875585D01*
X68615933Y-58485109D02*
X68654028Y-58561300D01*
X68654028Y-58561300D02*
X68615933Y-58637490D01*
X68615933Y-58637490D02*
X68577837Y-58561300D01*
X68577837Y-58561300D02*
X68615933Y-58485109D01*
X68615933Y-58485109D02*
X68615933Y-58637490D01*
X69834980Y-57037490D02*
X69834980Y-58180347D01*
X69834980Y-58180347D02*
X69796885Y-58408919D01*
X69796885Y-58408919D02*
X69720694Y-58561300D01*
X69720694Y-58561300D02*
X69606409Y-58637490D01*
X69606409Y-58637490D02*
X69530218Y-58637490D01*
X70558790Y-58637490D02*
X70558790Y-57799395D01*
X70558790Y-57799395D02*
X70520695Y-57647014D01*
X70520695Y-57647014D02*
X70444504Y-57570823D01*
X70444504Y-57570823D02*
X70292123Y-57570823D01*
X70292123Y-57570823D02*
X70215933Y-57647014D01*
X70558790Y-58561300D02*
X70482599Y-58637490D01*
X70482599Y-58637490D02*
X70292123Y-58637490D01*
X70292123Y-58637490D02*
X70215933Y-58561300D01*
X70215933Y-58561300D02*
X70177837Y-58408919D01*
X70177837Y-58408919D02*
X70177837Y-58256538D01*
X70177837Y-58256538D02*
X70215933Y-58104157D01*
X70215933Y-58104157D02*
X70292123Y-58027966D01*
X70292123Y-58027966D02*
X70482599Y-58027966D01*
X70482599Y-58027966D02*
X70558790Y-57951776D01*
X70939743Y-57570823D02*
X70939743Y-58637490D01*
X70939743Y-57723204D02*
X70977838Y-57647014D01*
X70977838Y-57647014D02*
X71054028Y-57570823D01*
X71054028Y-57570823D02*
X71168314Y-57570823D01*
X71168314Y-57570823D02*
X71244505Y-57647014D01*
X71244505Y-57647014D02*
X71282600Y-57799395D01*
X71282600Y-57799395D02*
X71282600Y-58637490D01*
X72311172Y-57037490D02*
X72234981Y-57342252D01*
X72615933Y-57189871D02*
X72654029Y-57113680D01*
X72654029Y-57113680D02*
X72730219Y-57037490D01*
X72730219Y-57037490D02*
X72920695Y-57037490D01*
X72920695Y-57037490D02*
X72996886Y-57113680D01*
X72996886Y-57113680D02*
X73034981Y-57189871D01*
X73034981Y-57189871D02*
X73073076Y-57342252D01*
X73073076Y-57342252D02*
X73073076Y-57494633D01*
X73073076Y-57494633D02*
X73034981Y-57723204D01*
X73034981Y-57723204D02*
X72577838Y-58637490D01*
X72577838Y-58637490D02*
X73073076Y-58637490D01*
X73796886Y-57037490D02*
X73415934Y-57037490D01*
X73415934Y-57037490D02*
X73377838Y-57799395D01*
X73377838Y-57799395D02*
X73415934Y-57723204D01*
X73415934Y-57723204D02*
X73492124Y-57647014D01*
X73492124Y-57647014D02*
X73682600Y-57647014D01*
X73682600Y-57647014D02*
X73758791Y-57723204D01*
X73758791Y-57723204D02*
X73796886Y-57799395D01*
X73796886Y-57799395D02*
X73834981Y-57951776D01*
X73834981Y-57951776D02*
X73834981Y-58332728D01*
X73834981Y-58332728D02*
X73796886Y-58485109D01*
X73796886Y-58485109D02*
X73758791Y-58561300D01*
X73758791Y-58561300D02*
X73682600Y-58637490D01*
X73682600Y-58637490D02*
X73492124Y-58637490D01*
X73492124Y-58637490D02*
X73415934Y-58561300D01*
X73415934Y-58561300D02*
X73377838Y-58485109D01*
D11*
X62963627Y-47322671D02*
X62820770Y-47322671D01*
X62820770Y-47322671D02*
X62806484Y-47608385D01*
X62806484Y-47608385D02*
X62820770Y-47579814D01*
X62820770Y-47579814D02*
X62849342Y-47551242D01*
X62849342Y-47551242D02*
X62920770Y-47551242D01*
X62920770Y-47551242D02*
X62949342Y-47579814D01*
X62949342Y-47579814D02*
X62963627Y-47608385D01*
X62963627Y-47608385D02*
X62977913Y-47665528D01*
X62977913Y-47665528D02*
X62977913Y-47808385D01*
X62977913Y-47808385D02*
X62963627Y-47865528D01*
X62963627Y-47865528D02*
X62949342Y-47894100D01*
X62949342Y-47894100D02*
X62920770Y-47922671D01*
X62920770Y-47922671D02*
X62849342Y-47922671D01*
X62849342Y-47922671D02*
X62820770Y-47894100D01*
X62820770Y-47894100D02*
X62806484Y-47865528D01*
X63077913Y-47322671D02*
X63277913Y-47322671D01*
X63277913Y-47322671D02*
X63149341Y-47922671D01*
X63392198Y-47865528D02*
X63406484Y-47894100D01*
X63406484Y-47894100D02*
X63392198Y-47922671D01*
X63392198Y-47922671D02*
X63377912Y-47894100D01*
X63377912Y-47894100D02*
X63392198Y-47865528D01*
X63392198Y-47865528D02*
X63392198Y-47922671D01*
X63663627Y-47322671D02*
X63606484Y-47322671D01*
X63606484Y-47322671D02*
X63577912Y-47351242D01*
X63577912Y-47351242D02*
X63563627Y-47379814D01*
X63563627Y-47379814D02*
X63535055Y-47465528D01*
X63535055Y-47465528D02*
X63520769Y-47579814D01*
X63520769Y-47579814D02*
X63520769Y-47808385D01*
X63520769Y-47808385D02*
X63535055Y-47865528D01*
X63535055Y-47865528D02*
X63549341Y-47894100D01*
X63549341Y-47894100D02*
X63577912Y-47922671D01*
X63577912Y-47922671D02*
X63635055Y-47922671D01*
X63635055Y-47922671D02*
X63663627Y-47894100D01*
X63663627Y-47894100D02*
X63677912Y-47865528D01*
X63677912Y-47865528D02*
X63692198Y-47808385D01*
X63692198Y-47808385D02*
X63692198Y-47665528D01*
X63692198Y-47665528D02*
X63677912Y-47608385D01*
X63677912Y-47608385D02*
X63663627Y-47579814D01*
X63663627Y-47579814D02*
X63635055Y-47551242D01*
X63635055Y-47551242D02*
X63577912Y-47551242D01*
X63577912Y-47551242D02*
X63549341Y-47579814D01*
X63549341Y-47579814D02*
X63535055Y-47608385D01*
X63535055Y-47608385D02*
X63520769Y-47665528D01*
X63820769Y-47922671D02*
X63820769Y-47322671D01*
X63849341Y-47694100D02*
X63935055Y-47922671D01*
X63935055Y-47522671D02*
X63820769Y-47751242D01*
D12*
X65769952Y-27624809D02*
X65769952Y-27124809D01*
X65769952Y-27124809D02*
X65889000Y-27124809D01*
X65889000Y-27124809D02*
X65960428Y-27148619D01*
X65960428Y-27148619D02*
X66008047Y-27196238D01*
X66008047Y-27196238D02*
X66031857Y-27243857D01*
X66031857Y-27243857D02*
X66055666Y-27339095D01*
X66055666Y-27339095D02*
X66055666Y-27410523D01*
X66055666Y-27410523D02*
X66031857Y-27505761D01*
X66031857Y-27505761D02*
X66008047Y-27553380D01*
X66008047Y-27553380D02*
X65960428Y-27601000D01*
X65960428Y-27601000D02*
X65889000Y-27624809D01*
X65889000Y-27624809D02*
X65769952Y-27624809D01*
X66222333Y-27124809D02*
X66531857Y-27124809D01*
X66531857Y-27124809D02*
X66365190Y-27315285D01*
X66365190Y-27315285D02*
X66436619Y-27315285D01*
X66436619Y-27315285D02*
X66484238Y-27339095D01*
X66484238Y-27339095D02*
X66508047Y-27362904D01*
X66508047Y-27362904D02*
X66531857Y-27410523D01*
X66531857Y-27410523D02*
X66531857Y-27529571D01*
X66531857Y-27529571D02*
X66508047Y-27577190D01*
X66508047Y-27577190D02*
X66484238Y-27601000D01*
X66484238Y-27601000D02*
X66436619Y-27624809D01*
X66436619Y-27624809D02*
X66293762Y-27624809D01*
X66293762Y-27624809D02*
X66246143Y-27601000D01*
X66246143Y-27601000D02*
X66222333Y-27577190D01*
X56728571Y-40111892D02*
X56657142Y-40076178D01*
X56657142Y-40076178D02*
X56585714Y-40004750D01*
X56585714Y-40004750D02*
X56478571Y-39897607D01*
X56478571Y-39897607D02*
X56407142Y-39861892D01*
X56407142Y-39861892D02*
X56335714Y-39861892D01*
X56371428Y-40040464D02*
X56300000Y-40004750D01*
X56300000Y-40004750D02*
X56228571Y-39933321D01*
X56228571Y-39933321D02*
X56192857Y-39790464D01*
X56192857Y-39790464D02*
X56192857Y-39540464D01*
X56192857Y-39540464D02*
X56228571Y-39397607D01*
X56228571Y-39397607D02*
X56300000Y-39326178D01*
X56300000Y-39326178D02*
X56371428Y-39290464D01*
X56371428Y-39290464D02*
X56514285Y-39290464D01*
X56514285Y-39290464D02*
X56585714Y-39326178D01*
X56585714Y-39326178D02*
X56657142Y-39397607D01*
X56657142Y-39397607D02*
X56692857Y-39540464D01*
X56692857Y-39540464D02*
X56692857Y-39790464D01*
X56692857Y-39790464D02*
X56657142Y-39933321D01*
X56657142Y-39933321D02*
X56585714Y-40004750D01*
X56585714Y-40004750D02*
X56514285Y-40040464D01*
X56514285Y-40040464D02*
X56371428Y-40040464D01*
X56942856Y-39290464D02*
X57407142Y-39290464D01*
X57407142Y-39290464D02*
X57157142Y-39576178D01*
X57157142Y-39576178D02*
X57264285Y-39576178D01*
X57264285Y-39576178D02*
X57335714Y-39611892D01*
X57335714Y-39611892D02*
X57371428Y-39647607D01*
X57371428Y-39647607D02*
X57407142Y-39719035D01*
X57407142Y-39719035D02*
X57407142Y-39897607D01*
X57407142Y-39897607D02*
X57371428Y-39969035D01*
X57371428Y-39969035D02*
X57335714Y-40004750D01*
X57335714Y-40004750D02*
X57264285Y-40040464D01*
X57264285Y-40040464D02*
X57049999Y-40040464D01*
X57049999Y-40040464D02*
X56978571Y-40004750D01*
X56978571Y-40004750D02*
X56942856Y-39969035D01*
X62579666Y-36124809D02*
X62413000Y-35886714D01*
X62293952Y-36124809D02*
X62293952Y-35624809D01*
X62293952Y-35624809D02*
X62484428Y-35624809D01*
X62484428Y-35624809D02*
X62532047Y-35648619D01*
X62532047Y-35648619D02*
X62555857Y-35672428D01*
X62555857Y-35672428D02*
X62579666Y-35720047D01*
X62579666Y-35720047D02*
X62579666Y-35791476D01*
X62579666Y-35791476D02*
X62555857Y-35839095D01*
X62555857Y-35839095D02*
X62532047Y-35862904D01*
X62532047Y-35862904D02*
X62484428Y-35886714D01*
X62484428Y-35886714D02*
X62293952Y-35886714D01*
X63008238Y-35791476D02*
X63008238Y-36124809D01*
X62889190Y-35601000D02*
X62770143Y-35958142D01*
X62770143Y-35958142D02*
X63079666Y-35958142D01*
D13*
X54850000Y-48154819D02*
X54550000Y-47678628D01*
X54335714Y-48154819D02*
X54335714Y-47154819D01*
X54335714Y-47154819D02*
X54678571Y-47154819D01*
X54678571Y-47154819D02*
X54764286Y-47202438D01*
X54764286Y-47202438D02*
X54807143Y-47250057D01*
X54807143Y-47250057D02*
X54850000Y-47345295D01*
X54850000Y-47345295D02*
X54850000Y-47488152D01*
X54850000Y-47488152D02*
X54807143Y-47583390D01*
X54807143Y-47583390D02*
X54764286Y-47631009D01*
X54764286Y-47631009D02*
X54678571Y-47678628D01*
X54678571Y-47678628D02*
X54335714Y-47678628D01*
X55621429Y-47154819D02*
X55450000Y-47154819D01*
X55450000Y-47154819D02*
X55364286Y-47202438D01*
X55364286Y-47202438D02*
X55321429Y-47250057D01*
X55321429Y-47250057D02*
X55235714Y-47392914D01*
X55235714Y-47392914D02*
X55192857Y-47583390D01*
X55192857Y-47583390D02*
X55192857Y-47964342D01*
X55192857Y-47964342D02*
X55235714Y-48059580D01*
X55235714Y-48059580D02*
X55278571Y-48107200D01*
X55278571Y-48107200D02*
X55364286Y-48154819D01*
X55364286Y-48154819D02*
X55535714Y-48154819D01*
X55535714Y-48154819D02*
X55621429Y-48107200D01*
X55621429Y-48107200D02*
X55664286Y-48059580D01*
X55664286Y-48059580D02*
X55707143Y-47964342D01*
X55707143Y-47964342D02*
X55707143Y-47726247D01*
X55707143Y-47726247D02*
X55664286Y-47631009D01*
X55664286Y-47631009D02*
X55621429Y-47583390D01*
X55621429Y-47583390D02*
X55535714Y-47535771D01*
X55535714Y-47535771D02*
X55364286Y-47535771D01*
X55364286Y-47535771D02*
X55278571Y-47583390D01*
X55278571Y-47583390D02*
X55235714Y-47631009D01*
X55235714Y-47631009D02*
X55192857Y-47726247D01*
X68577286Y-48354819D02*
X68577286Y-47354819D01*
X68577286Y-47354819D02*
X68805857Y-47354819D01*
X68805857Y-47354819D02*
X68863000Y-47402438D01*
X68863000Y-47402438D02*
X68891571Y-47450057D01*
X68891571Y-47450057D02*
X68920143Y-47545295D01*
X68920143Y-47545295D02*
X68920143Y-47688152D01*
X68920143Y-47688152D02*
X68891571Y-47783390D01*
X68891571Y-47783390D02*
X68863000Y-47831009D01*
X68863000Y-47831009D02*
X68805857Y-47878628D01*
X68805857Y-47878628D02*
X68577286Y-47878628D01*
X69520143Y-48259580D02*
X69491571Y-48307200D01*
X69491571Y-48307200D02*
X69405857Y-48354819D01*
X69405857Y-48354819D02*
X69348714Y-48354819D01*
X69348714Y-48354819D02*
X69263000Y-48307200D01*
X69263000Y-48307200D02*
X69205857Y-48211961D01*
X69205857Y-48211961D02*
X69177286Y-48116723D01*
X69177286Y-48116723D02*
X69148714Y-47926247D01*
X69148714Y-47926247D02*
X69148714Y-47783390D01*
X69148714Y-47783390D02*
X69177286Y-47592914D01*
X69177286Y-47592914D02*
X69205857Y-47497676D01*
X69205857Y-47497676D02*
X69263000Y-47402438D01*
X69263000Y-47402438D02*
X69348714Y-47354819D01*
X69348714Y-47354819D02*
X69405857Y-47354819D01*
X69405857Y-47354819D02*
X69491571Y-47402438D01*
X69491571Y-47402438D02*
X69520143Y-47450057D01*
X70577286Y-48259580D02*
X70548714Y-48307200D01*
X70548714Y-48307200D02*
X70463000Y-48354819D01*
X70463000Y-48354819D02*
X70405857Y-48354819D01*
X70405857Y-48354819D02*
X70320143Y-48307200D01*
X70320143Y-48307200D02*
X70263000Y-48211961D01*
X70263000Y-48211961D02*
X70234429Y-48116723D01*
X70234429Y-48116723D02*
X70205857Y-47926247D01*
X70205857Y-47926247D02*
X70205857Y-47783390D01*
X70205857Y-47783390D02*
X70234429Y-47592914D01*
X70234429Y-47592914D02*
X70263000Y-47497676D01*
X70263000Y-47497676D02*
X70320143Y-47402438D01*
X70320143Y-47402438D02*
X70405857Y-47354819D01*
X70405857Y-47354819D02*
X70463000Y-47354819D01*
X70463000Y-47354819D02*
X70548714Y-47402438D01*
X70548714Y-47402438D02*
X70577286Y-47450057D01*
X70948714Y-47354819D02*
X71063000Y-47354819D01*
X71063000Y-47354819D02*
X71120143Y-47402438D01*
X71120143Y-47402438D02*
X71177286Y-47497676D01*
X71177286Y-47497676D02*
X71205857Y-47688152D01*
X71205857Y-47688152D02*
X71205857Y-48021485D01*
X71205857Y-48021485D02*
X71177286Y-48211961D01*
X71177286Y-48211961D02*
X71120143Y-48307200D01*
X71120143Y-48307200D02*
X71063000Y-48354819D01*
X71063000Y-48354819D02*
X70948714Y-48354819D01*
X70948714Y-48354819D02*
X70891572Y-48307200D01*
X70891572Y-48307200D02*
X70834429Y-48211961D01*
X70834429Y-48211961D02*
X70805857Y-48021485D01*
X70805857Y-48021485D02*
X70805857Y-47688152D01*
X70805857Y-47688152D02*
X70834429Y-47497676D01*
X70834429Y-47497676D02*
X70891572Y-47402438D01*
X70891572Y-47402438D02*
X70948714Y-47354819D01*
X71463000Y-48354819D02*
X71463000Y-47354819D01*
X72034428Y-48354819D02*
X71748714Y-48354819D01*
X71748714Y-48354819D02*
X71748714Y-47354819D01*
X72691571Y-47973866D02*
X73148714Y-47973866D01*
X66928571Y-37010592D02*
X66857142Y-36974878D01*
X66857142Y-36974878D02*
X66785714Y-36903450D01*
X66785714Y-36903450D02*
X66678571Y-36796307D01*
X66678571Y-36796307D02*
X66607142Y-36760592D01*
X66607142Y-36760592D02*
X66535714Y-36760592D01*
X66571428Y-36939164D02*
X66500000Y-36903450D01*
X66500000Y-36903450D02*
X66428571Y-36832021D01*
X66428571Y-36832021D02*
X66392857Y-36689164D01*
X66392857Y-36689164D02*
X66392857Y-36439164D01*
X66392857Y-36439164D02*
X66428571Y-36296307D01*
X66428571Y-36296307D02*
X66500000Y-36224878D01*
X66500000Y-36224878D02*
X66571428Y-36189164D01*
X66571428Y-36189164D02*
X66714285Y-36189164D01*
X66714285Y-36189164D02*
X66785714Y-36224878D01*
X66785714Y-36224878D02*
X66857142Y-36296307D01*
X66857142Y-36296307D02*
X66892857Y-36439164D01*
X66892857Y-36439164D02*
X66892857Y-36689164D01*
X66892857Y-36689164D02*
X66857142Y-36832021D01*
X66857142Y-36832021D02*
X66785714Y-36903450D01*
X66785714Y-36903450D02*
X66714285Y-36939164D01*
X66714285Y-36939164D02*
X66571428Y-36939164D01*
X67607142Y-36939164D02*
X67178571Y-36939164D01*
X67392856Y-36939164D02*
X67392856Y-36189164D01*
X67392856Y-36189164D02*
X67321428Y-36296307D01*
X67321428Y-36296307D02*
X67249999Y-36367735D01*
X67249999Y-36367735D02*
X67178571Y-36403450D01*
D12*
X51079666Y-42124809D02*
X50913000Y-41886714D01*
X50793952Y-42124809D02*
X50793952Y-41624809D01*
X50793952Y-41624809D02*
X50984428Y-41624809D01*
X50984428Y-41624809D02*
X51032047Y-41648619D01*
X51032047Y-41648619D02*
X51055857Y-41672428D01*
X51055857Y-41672428D02*
X51079666Y-41720047D01*
X51079666Y-41720047D02*
X51079666Y-41791476D01*
X51079666Y-41791476D02*
X51055857Y-41839095D01*
X51055857Y-41839095D02*
X51032047Y-41862904D01*
X51032047Y-41862904D02*
X50984428Y-41886714D01*
X50984428Y-41886714D02*
X50793952Y-41886714D01*
X51246333Y-41624809D02*
X51555857Y-41624809D01*
X51555857Y-41624809D02*
X51389190Y-41815285D01*
X51389190Y-41815285D02*
X51460619Y-41815285D01*
X51460619Y-41815285D02*
X51508238Y-41839095D01*
X51508238Y-41839095D02*
X51532047Y-41862904D01*
X51532047Y-41862904D02*
X51555857Y-41910523D01*
X51555857Y-41910523D02*
X51555857Y-42029571D01*
X51555857Y-42029571D02*
X51532047Y-42077190D01*
X51532047Y-42077190D02*
X51508238Y-42101000D01*
X51508238Y-42101000D02*
X51460619Y-42124809D01*
X51460619Y-42124809D02*
X51317762Y-42124809D01*
X51317762Y-42124809D02*
X51270143Y-42101000D01*
X51270143Y-42101000D02*
X51246333Y-42077190D01*
X65079666Y-42277190D02*
X65055857Y-42301000D01*
X65055857Y-42301000D02*
X64984428Y-42324809D01*
X64984428Y-42324809D02*
X64936809Y-42324809D01*
X64936809Y-42324809D02*
X64865381Y-42301000D01*
X64865381Y-42301000D02*
X64817762Y-42253380D01*
X64817762Y-42253380D02*
X64793952Y-42205761D01*
X64793952Y-42205761D02*
X64770143Y-42110523D01*
X64770143Y-42110523D02*
X64770143Y-42039095D01*
X64770143Y-42039095D02*
X64793952Y-41943857D01*
X64793952Y-41943857D02*
X64817762Y-41896238D01*
X64817762Y-41896238D02*
X64865381Y-41848619D01*
X64865381Y-41848619D02*
X64936809Y-41824809D01*
X64936809Y-41824809D02*
X64984428Y-41824809D01*
X64984428Y-41824809D02*
X65055857Y-41848619D01*
X65055857Y-41848619D02*
X65079666Y-41872428D01*
X65246333Y-41824809D02*
X65555857Y-41824809D01*
X65555857Y-41824809D02*
X65389190Y-42015285D01*
X65389190Y-42015285D02*
X65460619Y-42015285D01*
X65460619Y-42015285D02*
X65508238Y-42039095D01*
X65508238Y-42039095D02*
X65532047Y-42062904D01*
X65532047Y-42062904D02*
X65555857Y-42110523D01*
X65555857Y-42110523D02*
X65555857Y-42229571D01*
X65555857Y-42229571D02*
X65532047Y-42277190D01*
X65532047Y-42277190D02*
X65508238Y-42301000D01*
X65508238Y-42301000D02*
X65460619Y-42324809D01*
X65460619Y-42324809D02*
X65317762Y-42324809D01*
X65317762Y-42324809D02*
X65270143Y-42301000D01*
X65270143Y-42301000D02*
X65246333Y-42277190D01*
X51830952Y-36924809D02*
X51830952Y-36424809D01*
X51830952Y-36424809D02*
X51950000Y-36424809D01*
X51950000Y-36424809D02*
X52021428Y-36448619D01*
X52021428Y-36448619D02*
X52069047Y-36496238D01*
X52069047Y-36496238D02*
X52092857Y-36543857D01*
X52092857Y-36543857D02*
X52116666Y-36639095D01*
X52116666Y-36639095D02*
X52116666Y-36710523D01*
X52116666Y-36710523D02*
X52092857Y-36805761D01*
X52092857Y-36805761D02*
X52069047Y-36853380D01*
X52069047Y-36853380D02*
X52021428Y-36901000D01*
X52021428Y-36901000D02*
X51950000Y-36924809D01*
X51950000Y-36924809D02*
X51830952Y-36924809D01*
X52307143Y-36472428D02*
X52330952Y-36448619D01*
X52330952Y-36448619D02*
X52378571Y-36424809D01*
X52378571Y-36424809D02*
X52497619Y-36424809D01*
X52497619Y-36424809D02*
X52545238Y-36448619D01*
X52545238Y-36448619D02*
X52569047Y-36472428D01*
X52569047Y-36472428D02*
X52592857Y-36520047D01*
X52592857Y-36520047D02*
X52592857Y-36567666D01*
X52592857Y-36567666D02*
X52569047Y-36639095D01*
X52569047Y-36639095D02*
X52283333Y-36924809D01*
X52283333Y-36924809D02*
X52592857Y-36924809D01*
D13*
X62228571Y-27710592D02*
X62157142Y-27674878D01*
X62157142Y-27674878D02*
X62085714Y-27603450D01*
X62085714Y-27603450D02*
X61978571Y-27496307D01*
X61978571Y-27496307D02*
X61907142Y-27460592D01*
X61907142Y-27460592D02*
X61835714Y-27460592D01*
X61871428Y-27639164D02*
X61800000Y-27603450D01*
X61800000Y-27603450D02*
X61728571Y-27532021D01*
X61728571Y-27532021D02*
X61692857Y-27389164D01*
X61692857Y-27389164D02*
X61692857Y-27139164D01*
X61692857Y-27139164D02*
X61728571Y-26996307D01*
X61728571Y-26996307D02*
X61800000Y-26924878D01*
X61800000Y-26924878D02*
X61871428Y-26889164D01*
X61871428Y-26889164D02*
X62014285Y-26889164D01*
X62014285Y-26889164D02*
X62085714Y-26924878D01*
X62085714Y-26924878D02*
X62157142Y-26996307D01*
X62157142Y-26996307D02*
X62192857Y-27139164D01*
X62192857Y-27139164D02*
X62192857Y-27389164D01*
X62192857Y-27389164D02*
X62157142Y-27532021D01*
X62157142Y-27532021D02*
X62085714Y-27603450D01*
X62085714Y-27603450D02*
X62014285Y-27639164D01*
X62014285Y-27639164D02*
X61871428Y-27639164D01*
X62478571Y-26960592D02*
X62514285Y-26924878D01*
X62514285Y-26924878D02*
X62585714Y-26889164D01*
X62585714Y-26889164D02*
X62764285Y-26889164D01*
X62764285Y-26889164D02*
X62835714Y-26924878D01*
X62835714Y-26924878D02*
X62871428Y-26960592D01*
X62871428Y-26960592D02*
X62907142Y-27032021D01*
X62907142Y-27032021D02*
X62907142Y-27103450D01*
X62907142Y-27103450D02*
X62871428Y-27210592D01*
X62871428Y-27210592D02*
X62442856Y-27639164D01*
X62442856Y-27639164D02*
X62907142Y-27639164D01*
D12*
X66816666Y-32724809D02*
X66650000Y-32486714D01*
X66530952Y-32724809D02*
X66530952Y-32224809D01*
X66530952Y-32224809D02*
X66721428Y-32224809D01*
X66721428Y-32224809D02*
X66769047Y-32248619D01*
X66769047Y-32248619D02*
X66792857Y-32272428D01*
X66792857Y-32272428D02*
X66816666Y-32320047D01*
X66816666Y-32320047D02*
X66816666Y-32391476D01*
X66816666Y-32391476D02*
X66792857Y-32439095D01*
X66792857Y-32439095D02*
X66769047Y-32462904D01*
X66769047Y-32462904D02*
X66721428Y-32486714D01*
X66721428Y-32486714D02*
X66530952Y-32486714D01*
X67054762Y-32724809D02*
X67150000Y-32724809D01*
X67150000Y-32724809D02*
X67197619Y-32701000D01*
X67197619Y-32701000D02*
X67221428Y-32677190D01*
X67221428Y-32677190D02*
X67269047Y-32605761D01*
X67269047Y-32605761D02*
X67292857Y-32510523D01*
X67292857Y-32510523D02*
X67292857Y-32320047D01*
X67292857Y-32320047D02*
X67269047Y-32272428D01*
X67269047Y-32272428D02*
X67245238Y-32248619D01*
X67245238Y-32248619D02*
X67197619Y-32224809D01*
X67197619Y-32224809D02*
X67102381Y-32224809D01*
X67102381Y-32224809D02*
X67054762Y-32248619D01*
X67054762Y-32248619D02*
X67030952Y-32272428D01*
X67030952Y-32272428D02*
X67007143Y-32320047D01*
X67007143Y-32320047D02*
X67007143Y-32439095D01*
X67007143Y-32439095D02*
X67030952Y-32486714D01*
X67030952Y-32486714D02*
X67054762Y-32510523D01*
X67054762Y-32510523D02*
X67102381Y-32534333D01*
X67102381Y-32534333D02*
X67197619Y-32534333D01*
X67197619Y-32534333D02*
X67245238Y-32510523D01*
X67245238Y-32510523D02*
X67269047Y-32486714D01*
X67269047Y-32486714D02*
X67292857Y-32439095D01*
D13*
X54850000Y-51554819D02*
X54550000Y-51078628D01*
X54335714Y-51554819D02*
X54335714Y-50554819D01*
X54335714Y-50554819D02*
X54678571Y-50554819D01*
X54678571Y-50554819D02*
X54764286Y-50602438D01*
X54764286Y-50602438D02*
X54807143Y-50650057D01*
X54807143Y-50650057D02*
X54850000Y-50745295D01*
X54850000Y-50745295D02*
X54850000Y-50888152D01*
X54850000Y-50888152D02*
X54807143Y-50983390D01*
X54807143Y-50983390D02*
X54764286Y-51031009D01*
X54764286Y-51031009D02*
X54678571Y-51078628D01*
X54678571Y-51078628D02*
X54335714Y-51078628D01*
X55364286Y-50983390D02*
X55278571Y-50935771D01*
X55278571Y-50935771D02*
X55235714Y-50888152D01*
X55235714Y-50888152D02*
X55192857Y-50792914D01*
X55192857Y-50792914D02*
X55192857Y-50745295D01*
X55192857Y-50745295D02*
X55235714Y-50650057D01*
X55235714Y-50650057D02*
X55278571Y-50602438D01*
X55278571Y-50602438D02*
X55364286Y-50554819D01*
X55364286Y-50554819D02*
X55535714Y-50554819D01*
X55535714Y-50554819D02*
X55621429Y-50602438D01*
X55621429Y-50602438D02*
X55664286Y-50650057D01*
X55664286Y-50650057D02*
X55707143Y-50745295D01*
X55707143Y-50745295D02*
X55707143Y-50792914D01*
X55707143Y-50792914D02*
X55664286Y-50888152D01*
X55664286Y-50888152D02*
X55621429Y-50935771D01*
X55621429Y-50935771D02*
X55535714Y-50983390D01*
X55535714Y-50983390D02*
X55364286Y-50983390D01*
X55364286Y-50983390D02*
X55278571Y-51031009D01*
X55278571Y-51031009D02*
X55235714Y-51078628D01*
X55235714Y-51078628D02*
X55192857Y-51173866D01*
X55192857Y-51173866D02*
X55192857Y-51364342D01*
X55192857Y-51364342D02*
X55235714Y-51459580D01*
X55235714Y-51459580D02*
X55278571Y-51507200D01*
X55278571Y-51507200D02*
X55364286Y-51554819D01*
X55364286Y-51554819D02*
X55535714Y-51554819D01*
X55535714Y-51554819D02*
X55621429Y-51507200D01*
X55621429Y-51507200D02*
X55664286Y-51459580D01*
X55664286Y-51459580D02*
X55707143Y-51364342D01*
X55707143Y-51364342D02*
X55707143Y-51173866D01*
X55707143Y-51173866D02*
X55664286Y-51078628D01*
X55664286Y-51078628D02*
X55621429Y-51031009D01*
X55621429Y-51031009D02*
X55535714Y-50983390D01*
D12*
X58116666Y-36277190D02*
X58092857Y-36301000D01*
X58092857Y-36301000D02*
X58021428Y-36324809D01*
X58021428Y-36324809D02*
X57973809Y-36324809D01*
X57973809Y-36324809D02*
X57902381Y-36301000D01*
X57902381Y-36301000D02*
X57854762Y-36253380D01*
X57854762Y-36253380D02*
X57830952Y-36205761D01*
X57830952Y-36205761D02*
X57807143Y-36110523D01*
X57807143Y-36110523D02*
X57807143Y-36039095D01*
X57807143Y-36039095D02*
X57830952Y-35943857D01*
X57830952Y-35943857D02*
X57854762Y-35896238D01*
X57854762Y-35896238D02*
X57902381Y-35848619D01*
X57902381Y-35848619D02*
X57973809Y-35824809D01*
X57973809Y-35824809D02*
X58021428Y-35824809D01*
X58021428Y-35824809D02*
X58092857Y-35848619D01*
X58092857Y-35848619D02*
X58116666Y-35872428D01*
X58592857Y-36324809D02*
X58307143Y-36324809D01*
X58450000Y-36324809D02*
X58450000Y-35824809D01*
X58450000Y-35824809D02*
X58402381Y-35896238D01*
X58402381Y-35896238D02*
X58354762Y-35943857D01*
X58354762Y-35943857D02*
X58307143Y-35967666D01*
X52079666Y-33977190D02*
X52055857Y-34001000D01*
X52055857Y-34001000D02*
X51984428Y-34024809D01*
X51984428Y-34024809D02*
X51936809Y-34024809D01*
X51936809Y-34024809D02*
X51865381Y-34001000D01*
X51865381Y-34001000D02*
X51817762Y-33953380D01*
X51817762Y-33953380D02*
X51793952Y-33905761D01*
X51793952Y-33905761D02*
X51770143Y-33810523D01*
X51770143Y-33810523D02*
X51770143Y-33739095D01*
X51770143Y-33739095D02*
X51793952Y-33643857D01*
X51793952Y-33643857D02*
X51817762Y-33596238D01*
X51817762Y-33596238D02*
X51865381Y-33548619D01*
X51865381Y-33548619D02*
X51936809Y-33524809D01*
X51936809Y-33524809D02*
X51984428Y-33524809D01*
X51984428Y-33524809D02*
X52055857Y-33548619D01*
X52055857Y-33548619D02*
X52079666Y-33572428D01*
X52270143Y-33572428D02*
X52293952Y-33548619D01*
X52293952Y-33548619D02*
X52341571Y-33524809D01*
X52341571Y-33524809D02*
X52460619Y-33524809D01*
X52460619Y-33524809D02*
X52508238Y-33548619D01*
X52508238Y-33548619D02*
X52532047Y-33572428D01*
X52532047Y-33572428D02*
X52555857Y-33620047D01*
X52555857Y-33620047D02*
X52555857Y-33667666D01*
X52555857Y-33667666D02*
X52532047Y-33739095D01*
X52532047Y-33739095D02*
X52246333Y-34024809D01*
X52246333Y-34024809D02*
X52555857Y-34024809D01*
X66881166Y-35524809D02*
X66714500Y-35286714D01*
X66595452Y-35524809D02*
X66595452Y-35024809D01*
X66595452Y-35024809D02*
X66785928Y-35024809D01*
X66785928Y-35024809D02*
X66833547Y-35048619D01*
X66833547Y-35048619D02*
X66857357Y-35072428D01*
X66857357Y-35072428D02*
X66881166Y-35120047D01*
X66881166Y-35120047D02*
X66881166Y-35191476D01*
X66881166Y-35191476D02*
X66857357Y-35239095D01*
X66857357Y-35239095D02*
X66833547Y-35262904D01*
X66833547Y-35262904D02*
X66785928Y-35286714D01*
X66785928Y-35286714D02*
X66595452Y-35286714D01*
X67333547Y-35024809D02*
X67095452Y-35024809D01*
X67095452Y-35024809D02*
X67071643Y-35262904D01*
X67071643Y-35262904D02*
X67095452Y-35239095D01*
X67095452Y-35239095D02*
X67143071Y-35215285D01*
X67143071Y-35215285D02*
X67262119Y-35215285D01*
X67262119Y-35215285D02*
X67309738Y-35239095D01*
X67309738Y-35239095D02*
X67333547Y-35262904D01*
X67333547Y-35262904D02*
X67357357Y-35310523D01*
X67357357Y-35310523D02*
X67357357Y-35429571D01*
X67357357Y-35429571D02*
X67333547Y-35477190D01*
X67333547Y-35477190D02*
X67309738Y-35501000D01*
X67309738Y-35501000D02*
X67262119Y-35524809D01*
X67262119Y-35524809D02*
X67143071Y-35524809D01*
X67143071Y-35524809D02*
X67095452Y-35501000D01*
X67095452Y-35501000D02*
X67071643Y-35477190D01*
D13*
X54850000Y-54954819D02*
X54550000Y-54478628D01*
X54335714Y-54954819D02*
X54335714Y-53954819D01*
X54335714Y-53954819D02*
X54678571Y-53954819D01*
X54678571Y-53954819D02*
X54764286Y-54002438D01*
X54764286Y-54002438D02*
X54807143Y-54050057D01*
X54807143Y-54050057D02*
X54850000Y-54145295D01*
X54850000Y-54145295D02*
X54850000Y-54288152D01*
X54850000Y-54288152D02*
X54807143Y-54383390D01*
X54807143Y-54383390D02*
X54764286Y-54431009D01*
X54764286Y-54431009D02*
X54678571Y-54478628D01*
X54678571Y-54478628D02*
X54335714Y-54478628D01*
X55150000Y-53954819D02*
X55750000Y-53954819D01*
X55750000Y-53954819D02*
X55364286Y-54954819D01*
X51930333Y-70174295D02*
X51930333Y-70745723D01*
X51930333Y-70745723D02*
X51892238Y-70860009D01*
X51892238Y-70860009D02*
X51816047Y-70936200D01*
X51816047Y-70936200D02*
X51701762Y-70974295D01*
X51701762Y-70974295D02*
X51625571Y-70974295D01*
X52730333Y-70974295D02*
X52273190Y-70974295D01*
X52501762Y-70974295D02*
X52501762Y-70174295D01*
X52501762Y-70174295D02*
X52425571Y-70288580D01*
X52425571Y-70288580D02*
X52349381Y-70364771D01*
X52349381Y-70364771D02*
X52273190Y-70402866D01*
X55642857Y-27269771D02*
X55642857Y-27755485D01*
X55642857Y-27755485D02*
X55671428Y-27812628D01*
X55671428Y-27812628D02*
X55700000Y-27841200D01*
X55700000Y-27841200D02*
X55757142Y-27869771D01*
X55757142Y-27869771D02*
X55871428Y-27869771D01*
X55871428Y-27869771D02*
X55928571Y-27841200D01*
X55928571Y-27841200D02*
X55957142Y-27812628D01*
X55957142Y-27812628D02*
X55985714Y-27755485D01*
X55985714Y-27755485D02*
X55985714Y-27269771D01*
X56585713Y-27869771D02*
X56242856Y-27869771D01*
X56414285Y-27869771D02*
X56414285Y-27269771D01*
X56414285Y-27269771D02*
X56357142Y-27355485D01*
X56357142Y-27355485D02*
X56299999Y-27412628D01*
X56299999Y-27412628D02*
X56242856Y-27441200D01*
D12*
X50579666Y-31924809D02*
X50413000Y-31686714D01*
X50293952Y-31924809D02*
X50293952Y-31424809D01*
X50293952Y-31424809D02*
X50484428Y-31424809D01*
X50484428Y-31424809D02*
X50532047Y-31448619D01*
X50532047Y-31448619D02*
X50555857Y-31472428D01*
X50555857Y-31472428D02*
X50579666Y-31520047D01*
X50579666Y-31520047D02*
X50579666Y-31591476D01*
X50579666Y-31591476D02*
X50555857Y-31639095D01*
X50555857Y-31639095D02*
X50532047Y-31662904D01*
X50532047Y-31662904D02*
X50484428Y-31686714D01*
X50484428Y-31686714D02*
X50293952Y-31686714D01*
X51055857Y-31924809D02*
X50770143Y-31924809D01*
X50913000Y-31924809D02*
X50913000Y-31424809D01*
X50913000Y-31424809D02*
X50865381Y-31496238D01*
X50865381Y-31496238D02*
X50817762Y-31543857D01*
X50817762Y-31543857D02*
X50770143Y-31567666D01*
D14*
%TO.C,D3*%
X65354350Y-29635500D02*
X66923650Y-29635500D01*
X66923650Y-27781300D02*
X65354350Y-27781300D01*
%TO.C,Q3*%
X58775037Y-40432300D02*
X59196400Y-40432300D01*
X59196400Y-38984500D02*
X58775037Y-38984500D01*
X59196400Y-39185160D02*
X59196400Y-38984500D01*
X59196400Y-40432300D02*
X59196400Y-40231640D01*
X58167700Y-37841500D02*
G75*
G02*
X57913700Y-37841500I-127000J0D01*
G01*
X57913700Y-37841500D02*
G75*
G02*
X58167700Y-37841500I127000J0D01*
G01*
%TO.C,R6*%
X55908400Y-46164900D02*
X55908400Y-49035100D01*
X55908400Y-49035100D02*
X62461600Y-49035100D01*
X62461600Y-46164900D02*
X55908400Y-46164900D01*
X62461600Y-49035100D02*
X62461600Y-46164900D01*
D15*
%TO.C,PC COIL -*%
X72563000Y-45308400D02*
G75*
G02*
X69163000Y-45308400I-1700000J0D01*
G01*
X69163000Y-45308400D02*
G75*
G02*
X72563000Y-45308400I1700000J0D01*
G01*
D14*
%TO.C,Q1*%
X68837500Y-36320540D02*
X68837500Y-37001260D01*
X68837500Y-38311900D02*
X70488500Y-38311900D01*
X70488500Y-35009900D02*
X68837500Y-35009900D01*
X70488500Y-36048760D02*
X70488500Y-35009900D01*
X70488500Y-38311900D02*
X70488500Y-37273040D01*
X68469200Y-33866900D02*
G75*
G02*
X68215200Y-33866900I-127000J0D01*
G01*
X68215200Y-33866900D02*
G75*
G02*
X68469200Y-33866900I127000J0D01*
G01*
%TO.C,C3*%
X64470549Y-41585400D02*
X65855451Y-41585400D01*
X65855451Y-38831400D02*
X64470549Y-38831400D01*
%TO.C,D2*%
X51354350Y-39135500D02*
X52923650Y-39135500D01*
X52923650Y-37281300D02*
X51354350Y-37281300D01*
%TO.C,Q2*%
X61624900Y-27984500D02*
X61624900Y-28185160D01*
X61624900Y-29231640D02*
X61624900Y-29432300D01*
X61624900Y-29432300D02*
X62046263Y-29432300D01*
X62046263Y-27984500D02*
X61624900Y-27984500D01*
X62907600Y-30575300D02*
G75*
G02*
X62653600Y-30575300I-127000J0D01*
G01*
X62653600Y-30575300D02*
G75*
G02*
X62907600Y-30575300I127000J0D01*
G01*
%TO.C,R8*%
X55908400Y-49564900D02*
X55908400Y-52435100D01*
X55908400Y-52435100D02*
X62461600Y-52435100D01*
X62461600Y-49564900D02*
X55908400Y-49564900D01*
X62461600Y-52435100D02*
X62461600Y-49564900D01*
%TO.C,C1*%
X57370549Y-35635400D02*
X58955451Y-35635400D01*
X58955451Y-33781400D02*
X57370549Y-33781400D01*
%TO.C,C2*%
X51370549Y-36135400D02*
X52955451Y-36135400D01*
X52955451Y-34281400D02*
X51370549Y-34281400D01*
%TO.C,R7*%
X55908400Y-52964900D02*
X55908400Y-55835100D01*
X55908400Y-55835100D02*
X62461600Y-55835100D01*
X62461600Y-52964900D02*
X55908400Y-52964900D01*
X62461600Y-55835100D02*
X62461600Y-52964900D01*
D16*
%TO.C,J1*%
X49530000Y-67310000D02*
X49530000Y-69850000D01*
X49530000Y-67310000D02*
X74930000Y-67310000D01*
X74930000Y-67310000D02*
X74930000Y-69850000D01*
X74930000Y-69850000D02*
X49530000Y-69850000D01*
D17*
X49911000Y-66929000D02*
G75*
G02*
X49657000Y-66929000I-127000J0D01*
G01*
X49657000Y-66929000D02*
G75*
G02*
X49911000Y-66929000I127000J0D01*
G01*
D18*
%TO.C,U1*%
X54213000Y-28183400D02*
X58113000Y-28183400D01*
X54213000Y-33233400D02*
X58113000Y-33233400D01*
D19*
X52223000Y-28403400D02*
G75*
G02*
X52023000Y-28403400I-100000J0D01*
G01*
X52023000Y-28403400D02*
G75*
G02*
X52223000Y-28403400I100000J0D01*
G01*
D14*
%TO.C,R1*%
X49862900Y-29520650D02*
X49862900Y-29896150D01*
X51463100Y-29896150D02*
X51463100Y-29520650D01*
D16*
%TO.C,J1*%
X49530000Y-24130000D02*
X49530000Y-26670000D01*
X49530000Y-24130000D02*
X74930000Y-24130000D01*
X74930000Y-24130000D02*
X74930000Y-26670000D01*
X74930000Y-26670000D02*
X49530000Y-26670000D01*
D17*
X49911000Y-23749000D02*
G75*
G02*
X49657000Y-23749000I-127000J0D01*
G01*
X49657000Y-23749000D02*
G75*
G02*
X49911000Y-23749000I127000J0D01*
G01*
%TD*%
M02*
