M48
; DRILL file {KiCad 8.0.8} date 2025-02-03T20:57:39-0500
; FORMAT={-:-/ absolute / inch / decimal}
; #@! TF.CreationDate,2025-02-03T20:57:39-05:00
; #@! TF.GenerationSoftware,Kicad,Pcbnew,8.0.8
; #@! TF.FileFunction,Plated,1,2,PTH
FMAT,2
INCH
; #@! TA.AperFunction,Plated,PTH,ViaDrill
T1C0.0138
; #@! TA.AperFunction,Plated,PTH,ViaDrill
T2C0.0177
; #@! TA.AperFunction,Plated,PTH,ComponentDrill
T3C0.0350
; #@! TA.AperFunction,Plated,PTH,ComponentDrill
T4C0.0394
; #@! TA.AperFunction,Plated,PTH,ComponentDrill
T5C0.0400
; #@! TA.AperFunction,Plated,PTH,ComponentDrill
T6C0.0440
; #@! TA.AperFunction,Plated,PTH,ComponentDrill
T7C0.0512
%
G90
G05
T1
X6.0213Y-1.5906
X6.3461Y-1.4626
X6.5409Y-1.5906
X6.8598Y-1.4173
X7.0528Y-1.5906
X7.3146Y-1.3346
X7.3893Y-1.3956
X7.523Y-1.5884
X7.8598Y-1.4331
T2
X6.2575Y-1.2559
X6.5803Y-1.3346
X6.5922Y-1.2559
X6.7779Y-1.2749
X6.789Y-1.1772
X7.2299Y-1.2756
X7.7024Y-1.2453
X7.8008Y-1.2953
T3
X6.1197Y-1.8661
X6.1197Y-2.3161
X6.6591Y-1.838
X6.6591Y-2.288
X6.7553Y-2.3425
X6.9724Y-1.6687
X6.9724Y-2.1187
X7.1709Y-1.7789
X7.1709Y-2.2289
X7.2053Y-2.3425
X7.6433Y-1.8071
X7.6433Y-2.2571
T4
X6.9341Y-2.4961
X7.0341Y-2.4961
T5
X6.0Y-1.0
X6.0Y-2.7
X6.1Y-1.0
X6.1Y-2.7
X6.2Y-1.0
X6.2Y-2.7
X6.3Y-1.0
X6.3Y-2.7
X6.4Y-1.0
X6.4Y-2.7
X6.5Y-1.0
X6.5Y-2.7
X6.6Y-1.0
X6.6Y-2.7
X6.7Y-1.0
X6.7Y-2.7
X6.8Y-1.0
X6.8Y-2.7
X6.9Y-1.0
X6.9Y-2.7
X7.0Y-1.0
X7.0Y-2.7
X7.1Y-1.0
X7.1Y-2.7
X7.2Y-1.0
X7.2Y-2.7
X7.3Y-1.0
X7.3Y-2.7
X7.4Y-1.0
X7.4Y-2.7
X7.5Y-1.0
X7.5Y-2.7
X7.6Y-1.0
X7.6Y-2.7
X7.7Y-1.0
X7.7Y-2.7
X7.8Y-1.0
X7.8Y-2.7
X7.9Y-1.0
X7.9Y-2.7
T6
X6.2772Y-1.6496
X6.2772Y-2.0896
X6.7969Y-1.658
X6.7969Y-2.098
X7.3087Y-1.6299
X7.3087Y-2.0699
X7.7811Y-1.6299
X7.7811Y-2.0699
T7
X6.2953Y-2.4449
X6.4921Y-2.4449
X7.378Y-2.4449
X7.5748Y-2.4449
M30
