%TF.GenerationSoftware,KiCad,Pcbnew,8.0.8*%
%TF.CreationDate,2025-02-03T20:57:41-05:00*%
%TF.ProjectId,PWM Module,50574d20-4d6f-4647-956c-652e6b696361,rev?*%
%TF.SameCoordinates,Original*%
%TF.FileFunction,Legend,Top*%
%TF.FilePolarity,Positive*%
%FSLAX46Y46*%
G04 Gerber Fmt 4.6, Leading zero omitted, Abs format (unit mm)*
G04 Created by KiCad (PCBNEW 8.0.8) date 2025-02-03 20:57:41*
%MOMM*%
%LPD*%
G01*
G04 APERTURE LIST*
%ADD10C,0.100000*%
%ADD11C,0.150000*%
%ADD12C,0.125000*%
%ADD13C,0.120000*%
%ADD14C,0.152400*%
%ADD15C,0.200000*%
%ADD16C,0.400000*%
%ADD17C,0.508000*%
G04 APERTURE END LIST*
D10*
X168200000Y-65100000D02*
X183800000Y-65100000D01*
X183800000Y-67200000D01*
X168200000Y-67200000D01*
X168200000Y-65100000D01*
X162346741Y-35033609D02*
X162061027Y-35033609D01*
X162203884Y-35033609D02*
X162203884Y-34533609D01*
X162203884Y-34533609D02*
X162156265Y-34605038D01*
X162156265Y-34605038D02*
X162108646Y-34652657D01*
X162108646Y-34652657D02*
X162061027Y-34676466D01*
X182646741Y-44133609D02*
X182361027Y-44133609D01*
X182503884Y-44133609D02*
X182503884Y-43633609D01*
X182503884Y-43633609D02*
X182456265Y-43705038D01*
X182456265Y-43705038D02*
X182408646Y-43752657D01*
X182408646Y-43752657D02*
X182361027Y-43776466D01*
D11*
X168623809Y-57054819D02*
X168166666Y-57054819D01*
X168395238Y-57054819D02*
X168395238Y-56054819D01*
X168395238Y-56054819D02*
X168319047Y-56197676D01*
X168319047Y-56197676D02*
X168242857Y-56292914D01*
X168242857Y-56292914D02*
X168166666Y-56340533D01*
X169119048Y-56054819D02*
X169195238Y-56054819D01*
X169195238Y-56054819D02*
X169271429Y-56102438D01*
X169271429Y-56102438D02*
X169309524Y-56150057D01*
X169309524Y-56150057D02*
X169347619Y-56245295D01*
X169347619Y-56245295D02*
X169385714Y-56435771D01*
X169385714Y-56435771D02*
X169385714Y-56673866D01*
X169385714Y-56673866D02*
X169347619Y-56864342D01*
X169347619Y-56864342D02*
X169309524Y-56959580D01*
X169309524Y-56959580D02*
X169271429Y-57007200D01*
X169271429Y-57007200D02*
X169195238Y-57054819D01*
X169195238Y-57054819D02*
X169119048Y-57054819D01*
X169119048Y-57054819D02*
X169042857Y-57007200D01*
X169042857Y-57007200D02*
X169004762Y-56959580D01*
X169004762Y-56959580D02*
X168966667Y-56864342D01*
X168966667Y-56864342D02*
X168928571Y-56673866D01*
X168928571Y-56673866D02*
X168928571Y-56435771D01*
X168928571Y-56435771D02*
X168966667Y-56245295D01*
X168966667Y-56245295D02*
X169004762Y-56150057D01*
X169004762Y-56150057D02*
X169042857Y-56102438D01*
X169042857Y-56102438D02*
X169119048Y-56054819D01*
X169728572Y-57054819D02*
X169728572Y-56054819D01*
X169804762Y-56673866D02*
X170033334Y-57054819D01*
X170033334Y-56388152D02*
X169728572Y-56769104D01*
D10*
X199246741Y-36433609D02*
X198961027Y-36433609D01*
X199103884Y-36433609D02*
X199103884Y-35933609D01*
X199103884Y-35933609D02*
X199056265Y-36005038D01*
X199056265Y-36005038D02*
X199008646Y-36052657D01*
X199008646Y-36052657D02*
X198961027Y-36076466D01*
X170046741Y-44533609D02*
X169761027Y-44533609D01*
X169903884Y-44533609D02*
X169903884Y-44033609D01*
X169903884Y-44033609D02*
X169856265Y-44105038D01*
X169856265Y-44105038D02*
X169808646Y-44152657D01*
X169808646Y-44152657D02*
X169761027Y-44176466D01*
X156746741Y-44733609D02*
X156461027Y-44733609D01*
X156603884Y-44733609D02*
X156603884Y-44233609D01*
X156603884Y-44233609D02*
X156556265Y-44305038D01*
X156556265Y-44305038D02*
X156508646Y-44352657D01*
X156508646Y-44352657D02*
X156461027Y-44376466D01*
D11*
X176623809Y-52854819D02*
X176166666Y-52854819D01*
X176395238Y-52854819D02*
X176395238Y-51854819D01*
X176395238Y-51854819D02*
X176319047Y-51997676D01*
X176319047Y-51997676D02*
X176242857Y-52092914D01*
X176242857Y-52092914D02*
X176166666Y-52140533D01*
X177119048Y-51854819D02*
X177195238Y-51854819D01*
X177195238Y-51854819D02*
X177271429Y-51902438D01*
X177271429Y-51902438D02*
X177309524Y-51950057D01*
X177309524Y-51950057D02*
X177347619Y-52045295D01*
X177347619Y-52045295D02*
X177385714Y-52235771D01*
X177385714Y-52235771D02*
X177385714Y-52473866D01*
X177385714Y-52473866D02*
X177347619Y-52664342D01*
X177347619Y-52664342D02*
X177309524Y-52759580D01*
X177309524Y-52759580D02*
X177271429Y-52807200D01*
X177271429Y-52807200D02*
X177195238Y-52854819D01*
X177195238Y-52854819D02*
X177119048Y-52854819D01*
X177119048Y-52854819D02*
X177042857Y-52807200D01*
X177042857Y-52807200D02*
X177004762Y-52759580D01*
X177004762Y-52759580D02*
X176966667Y-52664342D01*
X176966667Y-52664342D02*
X176928571Y-52473866D01*
X176928571Y-52473866D02*
X176928571Y-52235771D01*
X176928571Y-52235771D02*
X176966667Y-52045295D01*
X176966667Y-52045295D02*
X177004762Y-51950057D01*
X177004762Y-51950057D02*
X177042857Y-51902438D01*
X177042857Y-51902438D02*
X177119048Y-51854819D01*
X177728572Y-52854819D02*
X177728572Y-51854819D01*
X177804762Y-52473866D02*
X178033334Y-52854819D01*
X178033334Y-52188152D02*
X177728572Y-52569104D01*
D10*
X195146741Y-44633609D02*
X194861027Y-44633609D01*
X195003884Y-44633609D02*
X195003884Y-44133609D01*
X195003884Y-44133609D02*
X194956265Y-44205038D01*
X194956265Y-44205038D02*
X194908646Y-44252657D01*
X194908646Y-44252657D02*
X194861027Y-44276466D01*
D11*
X193623809Y-56254819D02*
X193166666Y-56254819D01*
X193395238Y-56254819D02*
X193395238Y-55254819D01*
X193395238Y-55254819D02*
X193319047Y-55397676D01*
X193319047Y-55397676D02*
X193242857Y-55492914D01*
X193242857Y-55492914D02*
X193166666Y-55540533D01*
X194119048Y-55254819D02*
X194195238Y-55254819D01*
X194195238Y-55254819D02*
X194271429Y-55302438D01*
X194271429Y-55302438D02*
X194309524Y-55350057D01*
X194309524Y-55350057D02*
X194347619Y-55445295D01*
X194347619Y-55445295D02*
X194385714Y-55635771D01*
X194385714Y-55635771D02*
X194385714Y-55873866D01*
X194385714Y-55873866D02*
X194347619Y-56064342D01*
X194347619Y-56064342D02*
X194309524Y-56159580D01*
X194309524Y-56159580D02*
X194271429Y-56207200D01*
X194271429Y-56207200D02*
X194195238Y-56254819D01*
X194195238Y-56254819D02*
X194119048Y-56254819D01*
X194119048Y-56254819D02*
X194042857Y-56207200D01*
X194042857Y-56207200D02*
X194004762Y-56159580D01*
X194004762Y-56159580D02*
X193966667Y-56064342D01*
X193966667Y-56064342D02*
X193928571Y-55873866D01*
X193928571Y-55873866D02*
X193928571Y-55635771D01*
X193928571Y-55635771D02*
X193966667Y-55445295D01*
X193966667Y-55445295D02*
X194004762Y-55350057D01*
X194004762Y-55350057D02*
X194042857Y-55302438D01*
X194042857Y-55302438D02*
X194119048Y-55254819D01*
X194728572Y-56254819D02*
X194728572Y-55254819D01*
X194804762Y-55873866D02*
X195033334Y-56254819D01*
X195033334Y-55588152D02*
X194728572Y-55969104D01*
X181142856Y-59954819D02*
X180799999Y-59954819D01*
X180971428Y-59954819D02*
X180971428Y-58954819D01*
X180971428Y-58954819D02*
X180914285Y-59097676D01*
X180914285Y-59097676D02*
X180857142Y-59192914D01*
X180857142Y-59192914D02*
X180799999Y-59240533D01*
X181514285Y-58954819D02*
X181571428Y-58954819D01*
X181571428Y-58954819D02*
X181628571Y-59002438D01*
X181628571Y-59002438D02*
X181657143Y-59050057D01*
X181657143Y-59050057D02*
X181685714Y-59145295D01*
X181685714Y-59145295D02*
X181714285Y-59335771D01*
X181714285Y-59335771D02*
X181714285Y-59573866D01*
X181714285Y-59573866D02*
X181685714Y-59764342D01*
X181685714Y-59764342D02*
X181657143Y-59859580D01*
X181657143Y-59859580D02*
X181628571Y-59907200D01*
X181628571Y-59907200D02*
X181571428Y-59954819D01*
X181571428Y-59954819D02*
X181514285Y-59954819D01*
X181514285Y-59954819D02*
X181457143Y-59907200D01*
X181457143Y-59907200D02*
X181428571Y-59859580D01*
X181428571Y-59859580D02*
X181400000Y-59764342D01*
X181400000Y-59764342D02*
X181371428Y-59573866D01*
X181371428Y-59573866D02*
X181371428Y-59335771D01*
X181371428Y-59335771D02*
X181400000Y-59145295D01*
X181400000Y-59145295D02*
X181428571Y-59050057D01*
X181428571Y-59050057D02*
X181457143Y-59002438D01*
X181457143Y-59002438D02*
X181514285Y-58954819D01*
X181971429Y-59954819D02*
X181971429Y-58954819D01*
X182028572Y-59573866D02*
X182200000Y-59954819D01*
X182200000Y-59288152D02*
X181971429Y-59669104D01*
D10*
X160646741Y-36233609D02*
X160361027Y-36233609D01*
X160503884Y-36233609D02*
X160503884Y-35733609D01*
X160503884Y-35733609D02*
X160456265Y-35805038D01*
X160456265Y-35805038D02*
X160408646Y-35852657D01*
X160408646Y-35852657D02*
X160361027Y-35876466D01*
X152701503Y-28072419D02*
X152130075Y-28072419D01*
X152415789Y-28072419D02*
X152415789Y-27072419D01*
X152415789Y-27072419D02*
X152320551Y-27215276D01*
X152320551Y-27215276D02*
X152225313Y-27310514D01*
X152225313Y-27310514D02*
X152130075Y-27358133D01*
X174646741Y-35033609D02*
X174361027Y-35033609D01*
X174503884Y-35033609D02*
X174503884Y-34533609D01*
X174503884Y-34533609D02*
X174456265Y-34605038D01*
X174456265Y-34605038D02*
X174408646Y-34652657D01*
X174408646Y-34652657D02*
X174361027Y-34676466D01*
D11*
X154923809Y-57654819D02*
X154466666Y-57654819D01*
X154695238Y-57654819D02*
X154695238Y-56654819D01*
X154695238Y-56654819D02*
X154619047Y-56797676D01*
X154619047Y-56797676D02*
X154542857Y-56892914D01*
X154542857Y-56892914D02*
X154466666Y-56940533D01*
X155419048Y-56654819D02*
X155495238Y-56654819D01*
X155495238Y-56654819D02*
X155571429Y-56702438D01*
X155571429Y-56702438D02*
X155609524Y-56750057D01*
X155609524Y-56750057D02*
X155647619Y-56845295D01*
X155647619Y-56845295D02*
X155685714Y-57035771D01*
X155685714Y-57035771D02*
X155685714Y-57273866D01*
X155685714Y-57273866D02*
X155647619Y-57464342D01*
X155647619Y-57464342D02*
X155609524Y-57559580D01*
X155609524Y-57559580D02*
X155571429Y-57607200D01*
X155571429Y-57607200D02*
X155495238Y-57654819D01*
X155495238Y-57654819D02*
X155419048Y-57654819D01*
X155419048Y-57654819D02*
X155342857Y-57607200D01*
X155342857Y-57607200D02*
X155304762Y-57559580D01*
X155304762Y-57559580D02*
X155266667Y-57464342D01*
X155266667Y-57464342D02*
X155228571Y-57273866D01*
X155228571Y-57273866D02*
X155228571Y-57035771D01*
X155228571Y-57035771D02*
X155266667Y-56845295D01*
X155266667Y-56845295D02*
X155304762Y-56750057D01*
X155304762Y-56750057D02*
X155342857Y-56702438D01*
X155342857Y-56702438D02*
X155419048Y-56654819D01*
X156028572Y-57654819D02*
X156028572Y-56654819D01*
X156104762Y-57273866D02*
X156333334Y-57654819D01*
X156333334Y-56988152D02*
X156028572Y-57369104D01*
D10*
X173746741Y-36233609D02*
X173461027Y-36233609D01*
X173603884Y-36233609D02*
X173603884Y-35733609D01*
X173603884Y-35733609D02*
X173556265Y-35805038D01*
X173556265Y-35805038D02*
X173508646Y-35852657D01*
X173508646Y-35852657D02*
X173461027Y-35876466D01*
X168608646Y-66647942D02*
X168608646Y-65447942D01*
X168608646Y-65447942D02*
X168837217Y-65447942D01*
X168837217Y-65447942D02*
X168894360Y-65505085D01*
X168894360Y-65505085D02*
X168922931Y-65562228D01*
X168922931Y-65562228D02*
X168951503Y-65676514D01*
X168951503Y-65676514D02*
X168951503Y-65847942D01*
X168951503Y-65847942D02*
X168922931Y-65962228D01*
X168922931Y-65962228D02*
X168894360Y-66019371D01*
X168894360Y-66019371D02*
X168837217Y-66076514D01*
X168837217Y-66076514D02*
X168608646Y-66076514D01*
X169151503Y-65447942D02*
X169294360Y-66647942D01*
X169294360Y-66647942D02*
X169408646Y-65790800D01*
X169408646Y-65790800D02*
X169522931Y-66647942D01*
X169522931Y-66647942D02*
X169665789Y-65447942D01*
X169894360Y-66647942D02*
X169894360Y-65447942D01*
X169894360Y-65447942D02*
X170094360Y-66305085D01*
X170094360Y-66305085D02*
X170294360Y-65447942D01*
X170294360Y-65447942D02*
X170294360Y-66647942D01*
X171037217Y-66647942D02*
X171037217Y-65447942D01*
X171037217Y-65447942D02*
X171237217Y-66305085D01*
X171237217Y-66305085D02*
X171437217Y-65447942D01*
X171437217Y-65447942D02*
X171437217Y-66647942D01*
X171808645Y-66647942D02*
X171751502Y-66590800D01*
X171751502Y-66590800D02*
X171722931Y-66533657D01*
X171722931Y-66533657D02*
X171694359Y-66419371D01*
X171694359Y-66419371D02*
X171694359Y-66076514D01*
X171694359Y-66076514D02*
X171722931Y-65962228D01*
X171722931Y-65962228D02*
X171751502Y-65905085D01*
X171751502Y-65905085D02*
X171808645Y-65847942D01*
X171808645Y-65847942D02*
X171894359Y-65847942D01*
X171894359Y-65847942D02*
X171951502Y-65905085D01*
X171951502Y-65905085D02*
X171980074Y-65962228D01*
X171980074Y-65962228D02*
X172008645Y-66076514D01*
X172008645Y-66076514D02*
X172008645Y-66419371D01*
X172008645Y-66419371D02*
X171980074Y-66533657D01*
X171980074Y-66533657D02*
X171951502Y-66590800D01*
X171951502Y-66590800D02*
X171894359Y-66647942D01*
X171894359Y-66647942D02*
X171808645Y-66647942D01*
X172522931Y-66647942D02*
X172522931Y-65447942D01*
X172522931Y-66590800D02*
X172465788Y-66647942D01*
X172465788Y-66647942D02*
X172351502Y-66647942D01*
X172351502Y-66647942D02*
X172294359Y-66590800D01*
X172294359Y-66590800D02*
X172265788Y-66533657D01*
X172265788Y-66533657D02*
X172237216Y-66419371D01*
X172237216Y-66419371D02*
X172237216Y-66076514D01*
X172237216Y-66076514D02*
X172265788Y-65962228D01*
X172265788Y-65962228D02*
X172294359Y-65905085D01*
X172294359Y-65905085D02*
X172351502Y-65847942D01*
X172351502Y-65847942D02*
X172465788Y-65847942D01*
X172465788Y-65847942D02*
X172522931Y-65905085D01*
X173065788Y-65847942D02*
X173065788Y-66647942D01*
X172808645Y-65847942D02*
X172808645Y-66476514D01*
X172808645Y-66476514D02*
X172837216Y-66590800D01*
X172837216Y-66590800D02*
X172894359Y-66647942D01*
X172894359Y-66647942D02*
X172980073Y-66647942D01*
X172980073Y-66647942D02*
X173037216Y-66590800D01*
X173037216Y-66590800D02*
X173065788Y-66533657D01*
X173437216Y-66647942D02*
X173380073Y-66590800D01*
X173380073Y-66590800D02*
X173351502Y-66476514D01*
X173351502Y-66476514D02*
X173351502Y-65447942D01*
X173894359Y-66590800D02*
X173837216Y-66647942D01*
X173837216Y-66647942D02*
X173722931Y-66647942D01*
X173722931Y-66647942D02*
X173665788Y-66590800D01*
X173665788Y-66590800D02*
X173637216Y-66476514D01*
X173637216Y-66476514D02*
X173637216Y-66019371D01*
X173637216Y-66019371D02*
X173665788Y-65905085D01*
X173665788Y-65905085D02*
X173722931Y-65847942D01*
X173722931Y-65847942D02*
X173837216Y-65847942D01*
X173837216Y-65847942D02*
X173894359Y-65905085D01*
X173894359Y-65905085D02*
X173922931Y-66019371D01*
X173922931Y-66019371D02*
X173922931Y-66133657D01*
X173922931Y-66133657D02*
X173637216Y-66247942D01*
X174551502Y-65447942D02*
X174751502Y-66647942D01*
X174751502Y-66647942D02*
X174951502Y-65447942D01*
X175465788Y-66647942D02*
X175122931Y-66647942D01*
X175294360Y-66647942D02*
X175294360Y-65447942D01*
X175294360Y-65447942D02*
X175237217Y-65619371D01*
X175237217Y-65619371D02*
X175180074Y-65733657D01*
X175180074Y-65733657D02*
X175122931Y-65790800D01*
X175722932Y-66533657D02*
X175751503Y-66590800D01*
X175751503Y-66590800D02*
X175722932Y-66647942D01*
X175722932Y-66647942D02*
X175694360Y-66590800D01*
X175694360Y-66590800D02*
X175722932Y-66533657D01*
X175722932Y-66533657D02*
X175722932Y-66647942D01*
X176122931Y-65447942D02*
X176180074Y-65447942D01*
X176180074Y-65447942D02*
X176237217Y-65505085D01*
X176237217Y-65505085D02*
X176265789Y-65562228D01*
X176265789Y-65562228D02*
X176294360Y-65676514D01*
X176294360Y-65676514D02*
X176322931Y-65905085D01*
X176322931Y-65905085D02*
X176322931Y-66190800D01*
X176322931Y-66190800D02*
X176294360Y-66419371D01*
X176294360Y-66419371D02*
X176265789Y-66533657D01*
X176265789Y-66533657D02*
X176237217Y-66590800D01*
X176237217Y-66590800D02*
X176180074Y-66647942D01*
X176180074Y-66647942D02*
X176122931Y-66647942D01*
X176122931Y-66647942D02*
X176065789Y-66590800D01*
X176065789Y-66590800D02*
X176037217Y-66533657D01*
X176037217Y-66533657D02*
X176008646Y-66419371D01*
X176008646Y-66419371D02*
X175980074Y-66190800D01*
X175980074Y-66190800D02*
X175980074Y-65905085D01*
X175980074Y-65905085D02*
X176008646Y-65676514D01*
X176008646Y-65676514D02*
X176037217Y-65562228D01*
X176037217Y-65562228D02*
X176065789Y-65505085D01*
X176065789Y-65505085D02*
X176122931Y-65447942D01*
X177180075Y-67047942D02*
X177180075Y-65333657D01*
X178065790Y-66647942D02*
X178065790Y-65447942D01*
X178065790Y-65447942D02*
X178265790Y-66305085D01*
X178265790Y-66305085D02*
X178465790Y-65447942D01*
X178465790Y-65447942D02*
X178465790Y-66647942D01*
X178751504Y-66533657D02*
X178780075Y-66590800D01*
X178780075Y-66590800D02*
X178751504Y-66647942D01*
X178751504Y-66647942D02*
X178722932Y-66590800D01*
X178722932Y-66590800D02*
X178751504Y-66533657D01*
X178751504Y-66533657D02*
X178751504Y-66647942D01*
X179380075Y-66647942D02*
X179180075Y-66076514D01*
X179037218Y-66647942D02*
X179037218Y-65447942D01*
X179037218Y-65447942D02*
X179265789Y-65447942D01*
X179265789Y-65447942D02*
X179322932Y-65505085D01*
X179322932Y-65505085D02*
X179351503Y-65562228D01*
X179351503Y-65562228D02*
X179380075Y-65676514D01*
X179380075Y-65676514D02*
X179380075Y-65847942D01*
X179380075Y-65847942D02*
X179351503Y-65962228D01*
X179351503Y-65962228D02*
X179322932Y-66019371D01*
X179322932Y-66019371D02*
X179265789Y-66076514D01*
X179265789Y-66076514D02*
X179037218Y-66076514D01*
X179637218Y-66533657D02*
X179665789Y-66590800D01*
X179665789Y-66590800D02*
X179637218Y-66647942D01*
X179637218Y-66647942D02*
X179608646Y-66590800D01*
X179608646Y-66590800D02*
X179637218Y-66533657D01*
X179637218Y-66533657D02*
X179637218Y-66647942D01*
X180551503Y-65447942D02*
X180551503Y-66305085D01*
X180551503Y-66305085D02*
X180522932Y-66476514D01*
X180522932Y-66476514D02*
X180465789Y-66590800D01*
X180465789Y-66590800D02*
X180380075Y-66647942D01*
X180380075Y-66647942D02*
X180322932Y-66647942D01*
X181094361Y-66647942D02*
X181094361Y-66019371D01*
X181094361Y-66019371D02*
X181065789Y-65905085D01*
X181065789Y-65905085D02*
X181008646Y-65847942D01*
X181008646Y-65847942D02*
X180894361Y-65847942D01*
X180894361Y-65847942D02*
X180837218Y-65905085D01*
X181094361Y-66590800D02*
X181037218Y-66647942D01*
X181037218Y-66647942D02*
X180894361Y-66647942D01*
X180894361Y-66647942D02*
X180837218Y-66590800D01*
X180837218Y-66590800D02*
X180808646Y-66476514D01*
X180808646Y-66476514D02*
X180808646Y-66362228D01*
X180808646Y-66362228D02*
X180837218Y-66247942D01*
X180837218Y-66247942D02*
X180894361Y-66190800D01*
X180894361Y-66190800D02*
X181037218Y-66190800D01*
X181037218Y-66190800D02*
X181094361Y-66133657D01*
X181380075Y-65847942D02*
X181380075Y-66647942D01*
X181380075Y-65962228D02*
X181408646Y-65905085D01*
X181408646Y-65905085D02*
X181465789Y-65847942D01*
X181465789Y-65847942D02*
X181551503Y-65847942D01*
X181551503Y-65847942D02*
X181608646Y-65905085D01*
X181608646Y-65905085D02*
X181637218Y-66019371D01*
X181637218Y-66019371D02*
X181637218Y-66647942D01*
X182408646Y-65447942D02*
X182351503Y-65676514D01*
X182637217Y-65562228D02*
X182665789Y-65505085D01*
X182665789Y-65505085D02*
X182722932Y-65447942D01*
X182722932Y-65447942D02*
X182865789Y-65447942D01*
X182865789Y-65447942D02*
X182922932Y-65505085D01*
X182922932Y-65505085D02*
X182951503Y-65562228D01*
X182951503Y-65562228D02*
X182980074Y-65676514D01*
X182980074Y-65676514D02*
X182980074Y-65790800D01*
X182980074Y-65790800D02*
X182951503Y-65962228D01*
X182951503Y-65962228D02*
X182608646Y-66647942D01*
X182608646Y-66647942D02*
X182980074Y-66647942D01*
X183522932Y-65447942D02*
X183237218Y-65447942D01*
X183237218Y-65447942D02*
X183208646Y-66019371D01*
X183208646Y-66019371D02*
X183237218Y-65962228D01*
X183237218Y-65962228D02*
X183294361Y-65905085D01*
X183294361Y-65905085D02*
X183437218Y-65905085D01*
X183437218Y-65905085D02*
X183494361Y-65962228D01*
X183494361Y-65962228D02*
X183522932Y-66019371D01*
X183522932Y-66019371D02*
X183551503Y-66133657D01*
X183551503Y-66133657D02*
X183551503Y-66419371D01*
X183551503Y-66419371D02*
X183522932Y-66533657D01*
X183522932Y-66533657D02*
X183494361Y-66590800D01*
X183494361Y-66590800D02*
X183437218Y-66647942D01*
X183437218Y-66647942D02*
X183294361Y-66647942D01*
X183294361Y-66647942D02*
X183237218Y-66590800D01*
X183237218Y-66590800D02*
X183208646Y-66533657D01*
X200046741Y-35033609D02*
X199761027Y-35033609D01*
X199903884Y-35033609D02*
X199903884Y-34533609D01*
X199903884Y-34533609D02*
X199856265Y-34605038D01*
X199856265Y-34605038D02*
X199808646Y-34652657D01*
X199808646Y-34652657D02*
X199761027Y-34676466D01*
X200046264Y-27073085D02*
X200084360Y-27034990D01*
X200084360Y-27034990D02*
X200160550Y-26996895D01*
X200160550Y-26996895D02*
X200351026Y-26996895D01*
X200351026Y-26996895D02*
X200427217Y-27034990D01*
X200427217Y-27034990D02*
X200465312Y-27073085D01*
X200465312Y-27073085D02*
X200503407Y-27149276D01*
X200503407Y-27149276D02*
X200503407Y-27225466D01*
X200503407Y-27225466D02*
X200465312Y-27339752D01*
X200465312Y-27339752D02*
X200008169Y-27796895D01*
X200008169Y-27796895D02*
X200503407Y-27796895D01*
X200998646Y-26996895D02*
X201074836Y-26996895D01*
X201074836Y-26996895D02*
X201151027Y-27034990D01*
X201151027Y-27034990D02*
X201189122Y-27073085D01*
X201189122Y-27073085D02*
X201227217Y-27149276D01*
X201227217Y-27149276D02*
X201265312Y-27301657D01*
X201265312Y-27301657D02*
X201265312Y-27492133D01*
X201265312Y-27492133D02*
X201227217Y-27644514D01*
X201227217Y-27644514D02*
X201189122Y-27720704D01*
X201189122Y-27720704D02*
X201151027Y-27758800D01*
X201151027Y-27758800D02*
X201074836Y-27796895D01*
X201074836Y-27796895D02*
X200998646Y-27796895D01*
X200998646Y-27796895D02*
X200922455Y-27758800D01*
X200922455Y-27758800D02*
X200884360Y-27720704D01*
X200884360Y-27720704D02*
X200846265Y-27644514D01*
X200846265Y-27644514D02*
X200808169Y-27492133D01*
X200808169Y-27492133D02*
X200808169Y-27301657D01*
X200808169Y-27301657D02*
X200846265Y-27149276D01*
X200846265Y-27149276D02*
X200884360Y-27073085D01*
X200884360Y-27073085D02*
X200922455Y-27034990D01*
X200922455Y-27034990D02*
X200998646Y-26996895D01*
X187546741Y-35033609D02*
X187261027Y-35033609D01*
X187403884Y-35033609D02*
X187403884Y-34533609D01*
X187403884Y-34533609D02*
X187356265Y-34605038D01*
X187356265Y-34605038D02*
X187308646Y-34652657D01*
X187308646Y-34652657D02*
X187261027Y-34676466D01*
D11*
X181723809Y-55554819D02*
X181266666Y-55554819D01*
X181495238Y-55554819D02*
X181495238Y-54554819D01*
X181495238Y-54554819D02*
X181419047Y-54697676D01*
X181419047Y-54697676D02*
X181342857Y-54792914D01*
X181342857Y-54792914D02*
X181266666Y-54840533D01*
X182219048Y-54554819D02*
X182295238Y-54554819D01*
X182295238Y-54554819D02*
X182371429Y-54602438D01*
X182371429Y-54602438D02*
X182409524Y-54650057D01*
X182409524Y-54650057D02*
X182447619Y-54745295D01*
X182447619Y-54745295D02*
X182485714Y-54935771D01*
X182485714Y-54935771D02*
X182485714Y-55173866D01*
X182485714Y-55173866D02*
X182447619Y-55364342D01*
X182447619Y-55364342D02*
X182409524Y-55459580D01*
X182409524Y-55459580D02*
X182371429Y-55507200D01*
X182371429Y-55507200D02*
X182295238Y-55554819D01*
X182295238Y-55554819D02*
X182219048Y-55554819D01*
X182219048Y-55554819D02*
X182142857Y-55507200D01*
X182142857Y-55507200D02*
X182104762Y-55459580D01*
X182104762Y-55459580D02*
X182066667Y-55364342D01*
X182066667Y-55364342D02*
X182028571Y-55173866D01*
X182028571Y-55173866D02*
X182028571Y-54935771D01*
X182028571Y-54935771D02*
X182066667Y-54745295D01*
X182066667Y-54745295D02*
X182104762Y-54650057D01*
X182104762Y-54650057D02*
X182142857Y-54602438D01*
X182142857Y-54602438D02*
X182219048Y-54554819D01*
X182828572Y-55554819D02*
X182828572Y-54554819D01*
X182904762Y-55173866D02*
X183133334Y-55554819D01*
X183133334Y-54888152D02*
X182828572Y-55269104D01*
D10*
X186846741Y-36233609D02*
X186561027Y-36233609D01*
X186703884Y-36233609D02*
X186703884Y-35733609D01*
X186703884Y-35733609D02*
X186656265Y-35805038D01*
X186656265Y-35805038D02*
X186608646Y-35852657D01*
X186608646Y-35852657D02*
X186561027Y-35876466D01*
D11*
X173461666Y-62854819D02*
X173461666Y-63569104D01*
X173461666Y-63569104D02*
X173414047Y-63711961D01*
X173414047Y-63711961D02*
X173318809Y-63807200D01*
X173318809Y-63807200D02*
X173175952Y-63854819D01*
X173175952Y-63854819D02*
X173080714Y-63854819D01*
X174366428Y-63188152D02*
X174366428Y-63854819D01*
X174128333Y-62807200D02*
X173890238Y-63521485D01*
X173890238Y-63521485D02*
X174509285Y-63521485D01*
X160938095Y-37554819D02*
X160938095Y-38364342D01*
X160938095Y-38364342D02*
X160985714Y-38459580D01*
X160985714Y-38459580D02*
X161033333Y-38507200D01*
X161033333Y-38507200D02*
X161128571Y-38554819D01*
X161128571Y-38554819D02*
X161319047Y-38554819D01*
X161319047Y-38554819D02*
X161414285Y-38507200D01*
X161414285Y-38507200D02*
X161461904Y-38459580D01*
X161461904Y-38459580D02*
X161509523Y-38364342D01*
X161509523Y-38364342D02*
X161509523Y-37554819D01*
X161890476Y-37554819D02*
X162557142Y-37554819D01*
X162557142Y-37554819D02*
X162128571Y-38554819D01*
X165604761Y-43150057D02*
X165509523Y-43102438D01*
X165509523Y-43102438D02*
X165414285Y-43007200D01*
X165414285Y-43007200D02*
X165271428Y-42864342D01*
X165271428Y-42864342D02*
X165176190Y-42816723D01*
X165176190Y-42816723D02*
X165080952Y-42816723D01*
X165128571Y-43054819D02*
X165033333Y-43007200D01*
X165033333Y-43007200D02*
X164938095Y-42911961D01*
X164938095Y-42911961D02*
X164890476Y-42721485D01*
X164890476Y-42721485D02*
X164890476Y-42388152D01*
X164890476Y-42388152D02*
X164938095Y-42197676D01*
X164938095Y-42197676D02*
X165033333Y-42102438D01*
X165033333Y-42102438D02*
X165128571Y-42054819D01*
X165128571Y-42054819D02*
X165319047Y-42054819D01*
X165319047Y-42054819D02*
X165414285Y-42102438D01*
X165414285Y-42102438D02*
X165509523Y-42197676D01*
X165509523Y-42197676D02*
X165557142Y-42388152D01*
X165557142Y-42388152D02*
X165557142Y-42721485D01*
X165557142Y-42721485D02*
X165509523Y-42911961D01*
X165509523Y-42911961D02*
X165414285Y-43007200D01*
X165414285Y-43007200D02*
X165319047Y-43054819D01*
X165319047Y-43054819D02*
X165128571Y-43054819D01*
X165938095Y-42150057D02*
X165985714Y-42102438D01*
X165985714Y-42102438D02*
X166080952Y-42054819D01*
X166080952Y-42054819D02*
X166319047Y-42054819D01*
X166319047Y-42054819D02*
X166414285Y-42102438D01*
X166414285Y-42102438D02*
X166461904Y-42150057D01*
X166461904Y-42150057D02*
X166509523Y-42245295D01*
X166509523Y-42245295D02*
X166509523Y-42340533D01*
X166509523Y-42340533D02*
X166461904Y-42483390D01*
X166461904Y-42483390D02*
X165890476Y-43054819D01*
X165890476Y-43054819D02*
X166509523Y-43054819D01*
D12*
X164816666Y-39077190D02*
X164792857Y-39101000D01*
X164792857Y-39101000D02*
X164721428Y-39124809D01*
X164721428Y-39124809D02*
X164673809Y-39124809D01*
X164673809Y-39124809D02*
X164602381Y-39101000D01*
X164602381Y-39101000D02*
X164554762Y-39053380D01*
X164554762Y-39053380D02*
X164530952Y-39005761D01*
X164530952Y-39005761D02*
X164507143Y-38910523D01*
X164507143Y-38910523D02*
X164507143Y-38839095D01*
X164507143Y-38839095D02*
X164530952Y-38743857D01*
X164530952Y-38743857D02*
X164554762Y-38696238D01*
X164554762Y-38696238D02*
X164602381Y-38648619D01*
X164602381Y-38648619D02*
X164673809Y-38624809D01*
X164673809Y-38624809D02*
X164721428Y-38624809D01*
X164721428Y-38624809D02*
X164792857Y-38648619D01*
X164792857Y-38648619D02*
X164816666Y-38672428D01*
X165245238Y-38791476D02*
X165245238Y-39124809D01*
X165126190Y-38601000D02*
X165007143Y-38958142D01*
X165007143Y-38958142D02*
X165316666Y-38958142D01*
D11*
X176200000Y-30169771D02*
X176000000Y-29884057D01*
X175857143Y-30169771D02*
X175857143Y-29569771D01*
X175857143Y-29569771D02*
X176085714Y-29569771D01*
X176085714Y-29569771D02*
X176142857Y-29598342D01*
X176142857Y-29598342D02*
X176171428Y-29626914D01*
X176171428Y-29626914D02*
X176200000Y-29684057D01*
X176200000Y-29684057D02*
X176200000Y-29769771D01*
X176200000Y-29769771D02*
X176171428Y-29826914D01*
X176171428Y-29826914D02*
X176142857Y-29855485D01*
X176142857Y-29855485D02*
X176085714Y-29884057D01*
X176085714Y-29884057D02*
X175857143Y-29884057D01*
X176714286Y-29769771D02*
X176714286Y-30169771D01*
X176571428Y-29541200D02*
X176428571Y-29969771D01*
X176428571Y-29969771D02*
X176800000Y-29969771D01*
D12*
X151816666Y-39077190D02*
X151792857Y-39101000D01*
X151792857Y-39101000D02*
X151721428Y-39124809D01*
X151721428Y-39124809D02*
X151673809Y-39124809D01*
X151673809Y-39124809D02*
X151602381Y-39101000D01*
X151602381Y-39101000D02*
X151554762Y-39053380D01*
X151554762Y-39053380D02*
X151530952Y-39005761D01*
X151530952Y-39005761D02*
X151507143Y-38910523D01*
X151507143Y-38910523D02*
X151507143Y-38839095D01*
X151507143Y-38839095D02*
X151530952Y-38743857D01*
X151530952Y-38743857D02*
X151554762Y-38696238D01*
X151554762Y-38696238D02*
X151602381Y-38648619D01*
X151602381Y-38648619D02*
X151673809Y-38624809D01*
X151673809Y-38624809D02*
X151721428Y-38624809D01*
X151721428Y-38624809D02*
X151792857Y-38648619D01*
X151792857Y-38648619D02*
X151816666Y-38672428D01*
X152007143Y-38672428D02*
X152030952Y-38648619D01*
X152030952Y-38648619D02*
X152078571Y-38624809D01*
X152078571Y-38624809D02*
X152197619Y-38624809D01*
X152197619Y-38624809D02*
X152245238Y-38648619D01*
X152245238Y-38648619D02*
X152269047Y-38672428D01*
X152269047Y-38672428D02*
X152292857Y-38720047D01*
X152292857Y-38720047D02*
X152292857Y-38767666D01*
X152292857Y-38767666D02*
X152269047Y-38839095D01*
X152269047Y-38839095D02*
X151983333Y-39124809D01*
X151983333Y-39124809D02*
X152292857Y-39124809D01*
X187716666Y-28624809D02*
X187550000Y-28386714D01*
X187430952Y-28624809D02*
X187430952Y-28124809D01*
X187430952Y-28124809D02*
X187621428Y-28124809D01*
X187621428Y-28124809D02*
X187669047Y-28148619D01*
X187669047Y-28148619D02*
X187692857Y-28172428D01*
X187692857Y-28172428D02*
X187716666Y-28220047D01*
X187716666Y-28220047D02*
X187716666Y-28291476D01*
X187716666Y-28291476D02*
X187692857Y-28339095D01*
X187692857Y-28339095D02*
X187669047Y-28362904D01*
X187669047Y-28362904D02*
X187621428Y-28386714D01*
X187621428Y-28386714D02*
X187430952Y-28386714D01*
X188192857Y-28624809D02*
X187907143Y-28624809D01*
X188050000Y-28624809D02*
X188050000Y-28124809D01*
X188050000Y-28124809D02*
X188002381Y-28196238D01*
X188002381Y-28196238D02*
X187954762Y-28243857D01*
X187954762Y-28243857D02*
X187907143Y-28267666D01*
D11*
X189566666Y-56419819D02*
X189566666Y-57134104D01*
X189566666Y-57134104D02*
X189519047Y-57276961D01*
X189519047Y-57276961D02*
X189423809Y-57372200D01*
X189423809Y-57372200D02*
X189280952Y-57419819D01*
X189280952Y-57419819D02*
X189185714Y-57419819D01*
X189947619Y-56419819D02*
X190566666Y-56419819D01*
X190566666Y-56419819D02*
X190233333Y-56800771D01*
X190233333Y-56800771D02*
X190376190Y-56800771D01*
X190376190Y-56800771D02*
X190471428Y-56848390D01*
X190471428Y-56848390D02*
X190519047Y-56896009D01*
X190519047Y-56896009D02*
X190566666Y-56991247D01*
X190566666Y-56991247D02*
X190566666Y-57229342D01*
X190566666Y-57229342D02*
X190519047Y-57324580D01*
X190519047Y-57324580D02*
X190471428Y-57372200D01*
X190471428Y-57372200D02*
X190376190Y-57419819D01*
X190376190Y-57419819D02*
X190090476Y-57419819D01*
X190090476Y-57419819D02*
X189995238Y-57372200D01*
X189995238Y-57372200D02*
X189947619Y-57324580D01*
X158761905Y-44454819D02*
X158761905Y-43454819D01*
X158761905Y-43454819D02*
X159000000Y-43454819D01*
X159000000Y-43454819D02*
X159142857Y-43502438D01*
X159142857Y-43502438D02*
X159238095Y-43597676D01*
X159238095Y-43597676D02*
X159285714Y-43692914D01*
X159285714Y-43692914D02*
X159333333Y-43883390D01*
X159333333Y-43883390D02*
X159333333Y-44026247D01*
X159333333Y-44026247D02*
X159285714Y-44216723D01*
X159285714Y-44216723D02*
X159238095Y-44311961D01*
X159238095Y-44311961D02*
X159142857Y-44407200D01*
X159142857Y-44407200D02*
X159000000Y-44454819D01*
X159000000Y-44454819D02*
X158761905Y-44454819D01*
X160190476Y-43788152D02*
X160190476Y-44454819D01*
X159952381Y-43407200D02*
X159714286Y-44121485D01*
X159714286Y-44121485D02*
X160333333Y-44121485D01*
X186094819Y-47726094D02*
X185094819Y-47726094D01*
X185094819Y-47726094D02*
X185094819Y-47487999D01*
X185094819Y-47487999D02*
X185142438Y-47345142D01*
X185142438Y-47345142D02*
X185237676Y-47249904D01*
X185237676Y-47249904D02*
X185332914Y-47202285D01*
X185332914Y-47202285D02*
X185523390Y-47154666D01*
X185523390Y-47154666D02*
X185666247Y-47154666D01*
X185666247Y-47154666D02*
X185856723Y-47202285D01*
X185856723Y-47202285D02*
X185951961Y-47249904D01*
X185951961Y-47249904D02*
X186047200Y-47345142D01*
X186047200Y-47345142D02*
X186094819Y-47487999D01*
X186094819Y-47487999D02*
X186094819Y-47726094D01*
X186094819Y-46202285D02*
X186094819Y-46773713D01*
X186094819Y-46487999D02*
X185094819Y-46487999D01*
X185094819Y-46487999D02*
X185237676Y-46583237D01*
X185237676Y-46583237D02*
X185332914Y-46678475D01*
X185332914Y-46678475D02*
X185380533Y-46773713D01*
X190604761Y-43450057D02*
X190509523Y-43402438D01*
X190509523Y-43402438D02*
X190414285Y-43307200D01*
X190414285Y-43307200D02*
X190271428Y-43164342D01*
X190271428Y-43164342D02*
X190176190Y-43116723D01*
X190176190Y-43116723D02*
X190080952Y-43116723D01*
X190128571Y-43354819D02*
X190033333Y-43307200D01*
X190033333Y-43307200D02*
X189938095Y-43211961D01*
X189938095Y-43211961D02*
X189890476Y-43021485D01*
X189890476Y-43021485D02*
X189890476Y-42688152D01*
X189890476Y-42688152D02*
X189938095Y-42497676D01*
X189938095Y-42497676D02*
X190033333Y-42402438D01*
X190033333Y-42402438D02*
X190128571Y-42354819D01*
X190128571Y-42354819D02*
X190319047Y-42354819D01*
X190319047Y-42354819D02*
X190414285Y-42402438D01*
X190414285Y-42402438D02*
X190509523Y-42497676D01*
X190509523Y-42497676D02*
X190557142Y-42688152D01*
X190557142Y-42688152D02*
X190557142Y-43021485D01*
X190557142Y-43021485D02*
X190509523Y-43211961D01*
X190509523Y-43211961D02*
X190414285Y-43307200D01*
X190414285Y-43307200D02*
X190319047Y-43354819D01*
X190319047Y-43354819D02*
X190128571Y-43354819D01*
X190890476Y-42354819D02*
X191509523Y-42354819D01*
X191509523Y-42354819D02*
X191176190Y-42735771D01*
X191176190Y-42735771D02*
X191319047Y-42735771D01*
X191319047Y-42735771D02*
X191414285Y-42783390D01*
X191414285Y-42783390D02*
X191461904Y-42831009D01*
X191461904Y-42831009D02*
X191509523Y-42926247D01*
X191509523Y-42926247D02*
X191509523Y-43164342D01*
X191509523Y-43164342D02*
X191461904Y-43259580D01*
X191461904Y-43259580D02*
X191414285Y-43307200D01*
X191414285Y-43307200D02*
X191319047Y-43354819D01*
X191319047Y-43354819D02*
X191033333Y-43354819D01*
X191033333Y-43354819D02*
X190938095Y-43307200D01*
X190938095Y-43307200D02*
X190890476Y-43259580D01*
X176200000Y-28869771D02*
X176000000Y-28584057D01*
X175857143Y-28869771D02*
X175857143Y-28269771D01*
X175857143Y-28269771D02*
X176085714Y-28269771D01*
X176085714Y-28269771D02*
X176142857Y-28298342D01*
X176142857Y-28298342D02*
X176171428Y-28326914D01*
X176171428Y-28326914D02*
X176200000Y-28384057D01*
X176200000Y-28384057D02*
X176200000Y-28469771D01*
X176200000Y-28469771D02*
X176171428Y-28526914D01*
X176171428Y-28526914D02*
X176142857Y-28555485D01*
X176142857Y-28555485D02*
X176085714Y-28584057D01*
X176085714Y-28584057D02*
X175857143Y-28584057D01*
X176742857Y-28269771D02*
X176457143Y-28269771D01*
X176457143Y-28269771D02*
X176428571Y-28555485D01*
X176428571Y-28555485D02*
X176457143Y-28526914D01*
X176457143Y-28526914D02*
X176514286Y-28498342D01*
X176514286Y-28498342D02*
X176657143Y-28498342D01*
X176657143Y-28498342D02*
X176714286Y-28526914D01*
X176714286Y-28526914D02*
X176742857Y-28555485D01*
X176742857Y-28555485D02*
X176771428Y-28612628D01*
X176771428Y-28612628D02*
X176771428Y-28755485D01*
X176771428Y-28755485D02*
X176742857Y-28812628D01*
X176742857Y-28812628D02*
X176714286Y-28841200D01*
X176714286Y-28841200D02*
X176657143Y-28869771D01*
X176657143Y-28869771D02*
X176514286Y-28869771D01*
X176514286Y-28869771D02*
X176457143Y-28841200D01*
X176457143Y-28841200D02*
X176428571Y-28812628D01*
X162066666Y-56754819D02*
X162066666Y-57469104D01*
X162066666Y-57469104D02*
X162019047Y-57611961D01*
X162019047Y-57611961D02*
X161923809Y-57707200D01*
X161923809Y-57707200D02*
X161780952Y-57754819D01*
X161780952Y-57754819D02*
X161685714Y-57754819D01*
X162495238Y-56850057D02*
X162542857Y-56802438D01*
X162542857Y-56802438D02*
X162638095Y-56754819D01*
X162638095Y-56754819D02*
X162876190Y-56754819D01*
X162876190Y-56754819D02*
X162971428Y-56802438D01*
X162971428Y-56802438D02*
X163019047Y-56850057D01*
X163019047Y-56850057D02*
X163066666Y-56945295D01*
X163066666Y-56945295D02*
X163066666Y-57040533D01*
X163066666Y-57040533D02*
X163019047Y-57183390D01*
X163019047Y-57183390D02*
X162447619Y-57754819D01*
X162447619Y-57754819D02*
X163066666Y-57754819D01*
X163414285Y-28669771D02*
X163214285Y-28384057D01*
X163071428Y-28669771D02*
X163071428Y-28069771D01*
X163071428Y-28069771D02*
X163299999Y-28069771D01*
X163299999Y-28069771D02*
X163357142Y-28098342D01*
X163357142Y-28098342D02*
X163385713Y-28126914D01*
X163385713Y-28126914D02*
X163414285Y-28184057D01*
X163414285Y-28184057D02*
X163414285Y-28269771D01*
X163414285Y-28269771D02*
X163385713Y-28326914D01*
X163385713Y-28326914D02*
X163357142Y-28355485D01*
X163357142Y-28355485D02*
X163299999Y-28384057D01*
X163299999Y-28384057D02*
X163071428Y-28384057D01*
X163985713Y-28669771D02*
X163642856Y-28669771D01*
X163814285Y-28669771D02*
X163814285Y-28069771D01*
X163814285Y-28069771D02*
X163757142Y-28155485D01*
X163757142Y-28155485D02*
X163699999Y-28212628D01*
X163699999Y-28212628D02*
X163642856Y-28241200D01*
X164557142Y-28669771D02*
X164214285Y-28669771D01*
X164385714Y-28669771D02*
X164385714Y-28069771D01*
X164385714Y-28069771D02*
X164328571Y-28155485D01*
X164328571Y-28155485D02*
X164271428Y-28212628D01*
X164271428Y-28212628D02*
X164214285Y-28241200D01*
X199638095Y-37254819D02*
X199638095Y-38064342D01*
X199638095Y-38064342D02*
X199685714Y-38159580D01*
X199685714Y-38159580D02*
X199733333Y-38207200D01*
X199733333Y-38207200D02*
X199828571Y-38254819D01*
X199828571Y-38254819D02*
X200019047Y-38254819D01*
X200019047Y-38254819D02*
X200114285Y-38207200D01*
X200114285Y-38207200D02*
X200161904Y-38159580D01*
X200161904Y-38159580D02*
X200209523Y-38064342D01*
X200209523Y-38064342D02*
X200209523Y-37254819D01*
X201161904Y-37254819D02*
X200685714Y-37254819D01*
X200685714Y-37254819D02*
X200638095Y-37731009D01*
X200638095Y-37731009D02*
X200685714Y-37683390D01*
X200685714Y-37683390D02*
X200780952Y-37635771D01*
X200780952Y-37635771D02*
X201019047Y-37635771D01*
X201019047Y-37635771D02*
X201114285Y-37683390D01*
X201114285Y-37683390D02*
X201161904Y-37731009D01*
X201161904Y-37731009D02*
X201209523Y-37826247D01*
X201209523Y-37826247D02*
X201209523Y-38064342D01*
X201209523Y-38064342D02*
X201161904Y-38159580D01*
X201161904Y-38159580D02*
X201114285Y-38207200D01*
X201114285Y-38207200D02*
X201019047Y-38254819D01*
X201019047Y-38254819D02*
X200780952Y-38254819D01*
X200780952Y-38254819D02*
X200685714Y-38207200D01*
X200685714Y-38207200D02*
X200638095Y-38159580D01*
D12*
X164716666Y-36577190D02*
X164692857Y-36601000D01*
X164692857Y-36601000D02*
X164621428Y-36624809D01*
X164621428Y-36624809D02*
X164573809Y-36624809D01*
X164573809Y-36624809D02*
X164502381Y-36601000D01*
X164502381Y-36601000D02*
X164454762Y-36553380D01*
X164454762Y-36553380D02*
X164430952Y-36505761D01*
X164430952Y-36505761D02*
X164407143Y-36410523D01*
X164407143Y-36410523D02*
X164407143Y-36339095D01*
X164407143Y-36339095D02*
X164430952Y-36243857D01*
X164430952Y-36243857D02*
X164454762Y-36196238D01*
X164454762Y-36196238D02*
X164502381Y-36148619D01*
X164502381Y-36148619D02*
X164573809Y-36124809D01*
X164573809Y-36124809D02*
X164621428Y-36124809D01*
X164621428Y-36124809D02*
X164692857Y-36148619D01*
X164692857Y-36148619D02*
X164716666Y-36172428D01*
X164883333Y-36124809D02*
X165192857Y-36124809D01*
X165192857Y-36124809D02*
X165026190Y-36315285D01*
X165026190Y-36315285D02*
X165097619Y-36315285D01*
X165097619Y-36315285D02*
X165145238Y-36339095D01*
X165145238Y-36339095D02*
X165169047Y-36362904D01*
X165169047Y-36362904D02*
X165192857Y-36410523D01*
X165192857Y-36410523D02*
X165192857Y-36529571D01*
X165192857Y-36529571D02*
X165169047Y-36577190D01*
X165169047Y-36577190D02*
X165145238Y-36601000D01*
X165145238Y-36601000D02*
X165097619Y-36624809D01*
X165097619Y-36624809D02*
X164954762Y-36624809D01*
X164954762Y-36624809D02*
X164907143Y-36601000D01*
X164907143Y-36601000D02*
X164883333Y-36577190D01*
X177716666Y-36677190D02*
X177692857Y-36701000D01*
X177692857Y-36701000D02*
X177621428Y-36724809D01*
X177621428Y-36724809D02*
X177573809Y-36724809D01*
X177573809Y-36724809D02*
X177502381Y-36701000D01*
X177502381Y-36701000D02*
X177454762Y-36653380D01*
X177454762Y-36653380D02*
X177430952Y-36605761D01*
X177430952Y-36605761D02*
X177407143Y-36510523D01*
X177407143Y-36510523D02*
X177407143Y-36439095D01*
X177407143Y-36439095D02*
X177430952Y-36343857D01*
X177430952Y-36343857D02*
X177454762Y-36296238D01*
X177454762Y-36296238D02*
X177502381Y-36248619D01*
X177502381Y-36248619D02*
X177573809Y-36224809D01*
X177573809Y-36224809D02*
X177621428Y-36224809D01*
X177621428Y-36224809D02*
X177692857Y-36248619D01*
X177692857Y-36248619D02*
X177716666Y-36272428D01*
X178169047Y-36224809D02*
X177930952Y-36224809D01*
X177930952Y-36224809D02*
X177907143Y-36462904D01*
X177907143Y-36462904D02*
X177930952Y-36439095D01*
X177930952Y-36439095D02*
X177978571Y-36415285D01*
X177978571Y-36415285D02*
X178097619Y-36415285D01*
X178097619Y-36415285D02*
X178145238Y-36439095D01*
X178145238Y-36439095D02*
X178169047Y-36462904D01*
X178169047Y-36462904D02*
X178192857Y-36510523D01*
X178192857Y-36510523D02*
X178192857Y-36629571D01*
X178192857Y-36629571D02*
X178169047Y-36677190D01*
X178169047Y-36677190D02*
X178145238Y-36701000D01*
X178145238Y-36701000D02*
X178097619Y-36724809D01*
X178097619Y-36724809D02*
X177978571Y-36724809D01*
X177978571Y-36724809D02*
X177930952Y-36701000D01*
X177930952Y-36701000D02*
X177907143Y-36677190D01*
X177716666Y-39177190D02*
X177692857Y-39201000D01*
X177692857Y-39201000D02*
X177621428Y-39224809D01*
X177621428Y-39224809D02*
X177573809Y-39224809D01*
X177573809Y-39224809D02*
X177502381Y-39201000D01*
X177502381Y-39201000D02*
X177454762Y-39153380D01*
X177454762Y-39153380D02*
X177430952Y-39105761D01*
X177430952Y-39105761D02*
X177407143Y-39010523D01*
X177407143Y-39010523D02*
X177407143Y-38939095D01*
X177407143Y-38939095D02*
X177430952Y-38843857D01*
X177430952Y-38843857D02*
X177454762Y-38796238D01*
X177454762Y-38796238D02*
X177502381Y-38748619D01*
X177502381Y-38748619D02*
X177573809Y-38724809D01*
X177573809Y-38724809D02*
X177621428Y-38724809D01*
X177621428Y-38724809D02*
X177692857Y-38748619D01*
X177692857Y-38748619D02*
X177716666Y-38772428D01*
X178145238Y-38724809D02*
X178050000Y-38724809D01*
X178050000Y-38724809D02*
X178002381Y-38748619D01*
X178002381Y-38748619D02*
X177978571Y-38772428D01*
X177978571Y-38772428D02*
X177930952Y-38843857D01*
X177930952Y-38843857D02*
X177907143Y-38939095D01*
X177907143Y-38939095D02*
X177907143Y-39129571D01*
X177907143Y-39129571D02*
X177930952Y-39177190D01*
X177930952Y-39177190D02*
X177954762Y-39201000D01*
X177954762Y-39201000D02*
X178002381Y-39224809D01*
X178002381Y-39224809D02*
X178097619Y-39224809D01*
X178097619Y-39224809D02*
X178145238Y-39201000D01*
X178145238Y-39201000D02*
X178169047Y-39177190D01*
X178169047Y-39177190D02*
X178192857Y-39129571D01*
X178192857Y-39129571D02*
X178192857Y-39010523D01*
X178192857Y-39010523D02*
X178169047Y-38962904D01*
X178169047Y-38962904D02*
X178145238Y-38939095D01*
X178145238Y-38939095D02*
X178097619Y-38915285D01*
X178097619Y-38915285D02*
X178002381Y-38915285D01*
X178002381Y-38915285D02*
X177954762Y-38939095D01*
X177954762Y-38939095D02*
X177930952Y-38962904D01*
X177930952Y-38962904D02*
X177907143Y-39010523D01*
D11*
X152404761Y-43450057D02*
X152309523Y-43402438D01*
X152309523Y-43402438D02*
X152214285Y-43307200D01*
X152214285Y-43307200D02*
X152071428Y-43164342D01*
X152071428Y-43164342D02*
X151976190Y-43116723D01*
X151976190Y-43116723D02*
X151880952Y-43116723D01*
X151928571Y-43354819D02*
X151833333Y-43307200D01*
X151833333Y-43307200D02*
X151738095Y-43211961D01*
X151738095Y-43211961D02*
X151690476Y-43021485D01*
X151690476Y-43021485D02*
X151690476Y-42688152D01*
X151690476Y-42688152D02*
X151738095Y-42497676D01*
X151738095Y-42497676D02*
X151833333Y-42402438D01*
X151833333Y-42402438D02*
X151928571Y-42354819D01*
X151928571Y-42354819D02*
X152119047Y-42354819D01*
X152119047Y-42354819D02*
X152214285Y-42402438D01*
X152214285Y-42402438D02*
X152309523Y-42497676D01*
X152309523Y-42497676D02*
X152357142Y-42688152D01*
X152357142Y-42688152D02*
X152357142Y-43021485D01*
X152357142Y-43021485D02*
X152309523Y-43211961D01*
X152309523Y-43211961D02*
X152214285Y-43307200D01*
X152214285Y-43307200D02*
X152119047Y-43354819D01*
X152119047Y-43354819D02*
X151928571Y-43354819D01*
X153214285Y-42688152D02*
X153214285Y-43354819D01*
X152976190Y-42307200D02*
X152738095Y-43021485D01*
X152738095Y-43021485D02*
X153357142Y-43021485D01*
X196961905Y-44054819D02*
X196961905Y-43054819D01*
X196961905Y-43054819D02*
X197200000Y-43054819D01*
X197200000Y-43054819D02*
X197342857Y-43102438D01*
X197342857Y-43102438D02*
X197438095Y-43197676D01*
X197438095Y-43197676D02*
X197485714Y-43292914D01*
X197485714Y-43292914D02*
X197533333Y-43483390D01*
X197533333Y-43483390D02*
X197533333Y-43626247D01*
X197533333Y-43626247D02*
X197485714Y-43816723D01*
X197485714Y-43816723D02*
X197438095Y-43911961D01*
X197438095Y-43911961D02*
X197342857Y-44007200D01*
X197342857Y-44007200D02*
X197200000Y-44054819D01*
X197200000Y-44054819D02*
X196961905Y-44054819D01*
X197866667Y-43054819D02*
X198485714Y-43054819D01*
X198485714Y-43054819D02*
X198152381Y-43435771D01*
X198152381Y-43435771D02*
X198295238Y-43435771D01*
X198295238Y-43435771D02*
X198390476Y-43483390D01*
X198390476Y-43483390D02*
X198438095Y-43531009D01*
X198438095Y-43531009D02*
X198485714Y-43626247D01*
X198485714Y-43626247D02*
X198485714Y-43864342D01*
X198485714Y-43864342D02*
X198438095Y-43959580D01*
X198438095Y-43959580D02*
X198390476Y-44007200D01*
X198390476Y-44007200D02*
X198295238Y-44054819D01*
X198295238Y-44054819D02*
X198009524Y-44054819D01*
X198009524Y-44054819D02*
X197914286Y-44007200D01*
X197914286Y-44007200D02*
X197866667Y-43959580D01*
X193973333Y-47854819D02*
X193640000Y-47378628D01*
X193401905Y-47854819D02*
X193401905Y-46854819D01*
X193401905Y-46854819D02*
X193782857Y-46854819D01*
X193782857Y-46854819D02*
X193878095Y-46902438D01*
X193878095Y-46902438D02*
X193925714Y-46950057D01*
X193925714Y-46950057D02*
X193973333Y-47045295D01*
X193973333Y-47045295D02*
X193973333Y-47188152D01*
X193973333Y-47188152D02*
X193925714Y-47283390D01*
X193925714Y-47283390D02*
X193878095Y-47331009D01*
X193878095Y-47331009D02*
X193782857Y-47378628D01*
X193782857Y-47378628D02*
X193401905Y-47378628D01*
X194449524Y-47854819D02*
X194640000Y-47854819D01*
X194640000Y-47854819D02*
X194735238Y-47807200D01*
X194735238Y-47807200D02*
X194782857Y-47759580D01*
X194782857Y-47759580D02*
X194878095Y-47616723D01*
X194878095Y-47616723D02*
X194925714Y-47426247D01*
X194925714Y-47426247D02*
X194925714Y-47045295D01*
X194925714Y-47045295D02*
X194878095Y-46950057D01*
X194878095Y-46950057D02*
X194830476Y-46902438D01*
X194830476Y-46902438D02*
X194735238Y-46854819D01*
X194735238Y-46854819D02*
X194544762Y-46854819D01*
X194544762Y-46854819D02*
X194449524Y-46902438D01*
X194449524Y-46902438D02*
X194401905Y-46950057D01*
X194401905Y-46950057D02*
X194354286Y-47045295D01*
X194354286Y-47045295D02*
X194354286Y-47283390D01*
X194354286Y-47283390D02*
X194401905Y-47378628D01*
X194401905Y-47378628D02*
X194449524Y-47426247D01*
X194449524Y-47426247D02*
X194544762Y-47473866D01*
X194544762Y-47473866D02*
X194735238Y-47473866D01*
X194735238Y-47473866D02*
X194830476Y-47426247D01*
X194830476Y-47426247D02*
X194878095Y-47378628D01*
X194878095Y-47378628D02*
X194925714Y-47283390D01*
X181738095Y-29454819D02*
X181738095Y-30264342D01*
X181738095Y-30264342D02*
X181785714Y-30359580D01*
X181785714Y-30359580D02*
X181833333Y-30407200D01*
X181833333Y-30407200D02*
X181928571Y-30454819D01*
X181928571Y-30454819D02*
X182119047Y-30454819D01*
X182119047Y-30454819D02*
X182214285Y-30407200D01*
X182214285Y-30407200D02*
X182261904Y-30359580D01*
X182261904Y-30359580D02*
X182309523Y-30264342D01*
X182309523Y-30264342D02*
X182309523Y-29454819D01*
X182738095Y-29550057D02*
X182785714Y-29502438D01*
X182785714Y-29502438D02*
X182880952Y-29454819D01*
X182880952Y-29454819D02*
X183119047Y-29454819D01*
X183119047Y-29454819D02*
X183214285Y-29502438D01*
X183214285Y-29502438D02*
X183261904Y-29550057D01*
X183261904Y-29550057D02*
X183309523Y-29645295D01*
X183309523Y-29645295D02*
X183309523Y-29740533D01*
X183309523Y-29740533D02*
X183261904Y-29883390D01*
X183261904Y-29883390D02*
X182690476Y-30454819D01*
X182690476Y-30454819D02*
X183309523Y-30454819D01*
D12*
X151816666Y-36577190D02*
X151792857Y-36601000D01*
X151792857Y-36601000D02*
X151721428Y-36624809D01*
X151721428Y-36624809D02*
X151673809Y-36624809D01*
X151673809Y-36624809D02*
X151602381Y-36601000D01*
X151602381Y-36601000D02*
X151554762Y-36553380D01*
X151554762Y-36553380D02*
X151530952Y-36505761D01*
X151530952Y-36505761D02*
X151507143Y-36410523D01*
X151507143Y-36410523D02*
X151507143Y-36339095D01*
X151507143Y-36339095D02*
X151530952Y-36243857D01*
X151530952Y-36243857D02*
X151554762Y-36196238D01*
X151554762Y-36196238D02*
X151602381Y-36148619D01*
X151602381Y-36148619D02*
X151673809Y-36124809D01*
X151673809Y-36124809D02*
X151721428Y-36124809D01*
X151721428Y-36124809D02*
X151792857Y-36148619D01*
X151792857Y-36148619D02*
X151816666Y-36172428D01*
X152292857Y-36624809D02*
X152007143Y-36624809D01*
X152150000Y-36624809D02*
X152150000Y-36124809D01*
X152150000Y-36124809D02*
X152102381Y-36196238D01*
X152102381Y-36196238D02*
X152054762Y-36243857D01*
X152054762Y-36243857D02*
X152007143Y-36267666D01*
D11*
X172714285Y-59954819D02*
X172514285Y-59478628D01*
X172371428Y-59954819D02*
X172371428Y-58954819D01*
X172371428Y-58954819D02*
X172599999Y-58954819D01*
X172599999Y-58954819D02*
X172657142Y-59002438D01*
X172657142Y-59002438D02*
X172685713Y-59050057D01*
X172685713Y-59050057D02*
X172714285Y-59145295D01*
X172714285Y-59145295D02*
X172714285Y-59288152D01*
X172714285Y-59288152D02*
X172685713Y-59383390D01*
X172685713Y-59383390D02*
X172657142Y-59431009D01*
X172657142Y-59431009D02*
X172599999Y-59478628D01*
X172599999Y-59478628D02*
X172371428Y-59478628D01*
X173285713Y-59954819D02*
X172942856Y-59954819D01*
X173114285Y-59954819D02*
X173114285Y-58954819D01*
X173114285Y-58954819D02*
X173057142Y-59097676D01*
X173057142Y-59097676D02*
X172999999Y-59192914D01*
X172999999Y-59192914D02*
X172942856Y-59240533D01*
X173485714Y-58954819D02*
X173857142Y-58954819D01*
X173857142Y-58954819D02*
X173657142Y-59335771D01*
X173657142Y-59335771D02*
X173742857Y-59335771D01*
X173742857Y-59335771D02*
X173800000Y-59383390D01*
X173800000Y-59383390D02*
X173828571Y-59431009D01*
X173828571Y-59431009D02*
X173857142Y-59526247D01*
X173857142Y-59526247D02*
X173857142Y-59764342D01*
X173857142Y-59764342D02*
X173828571Y-59859580D01*
X173828571Y-59859580D02*
X173800000Y-59907200D01*
X173800000Y-59907200D02*
X173742857Y-59954819D01*
X173742857Y-59954819D02*
X173571428Y-59954819D01*
X173571428Y-59954819D02*
X173514285Y-59907200D01*
X173514285Y-59907200D02*
X173485714Y-59859580D01*
X194438095Y-29454819D02*
X194438095Y-30264342D01*
X194438095Y-30264342D02*
X194485714Y-30359580D01*
X194485714Y-30359580D02*
X194533333Y-30407200D01*
X194533333Y-30407200D02*
X194628571Y-30454819D01*
X194628571Y-30454819D02*
X194819047Y-30454819D01*
X194819047Y-30454819D02*
X194914285Y-30407200D01*
X194914285Y-30407200D02*
X194961904Y-30359580D01*
X194961904Y-30359580D02*
X195009523Y-30264342D01*
X195009523Y-30264342D02*
X195009523Y-29454819D01*
X195914285Y-29454819D02*
X195723809Y-29454819D01*
X195723809Y-29454819D02*
X195628571Y-29502438D01*
X195628571Y-29502438D02*
X195580952Y-29550057D01*
X195580952Y-29550057D02*
X195485714Y-29692914D01*
X195485714Y-29692914D02*
X195438095Y-29883390D01*
X195438095Y-29883390D02*
X195438095Y-30264342D01*
X195438095Y-30264342D02*
X195485714Y-30359580D01*
X195485714Y-30359580D02*
X195533333Y-30407200D01*
X195533333Y-30407200D02*
X195628571Y-30454819D01*
X195628571Y-30454819D02*
X195819047Y-30454819D01*
X195819047Y-30454819D02*
X195914285Y-30407200D01*
X195914285Y-30407200D02*
X195961904Y-30359580D01*
X195961904Y-30359580D02*
X196009523Y-30264342D01*
X196009523Y-30264342D02*
X196009523Y-30026247D01*
X196009523Y-30026247D02*
X195961904Y-29931009D01*
X195961904Y-29931009D02*
X195914285Y-29883390D01*
X195914285Y-29883390D02*
X195819047Y-29835771D01*
X195819047Y-29835771D02*
X195628571Y-29835771D01*
X195628571Y-29835771D02*
X195533333Y-29883390D01*
X195533333Y-29883390D02*
X195485714Y-29931009D01*
X195485714Y-29931009D02*
X195438095Y-30026247D01*
D12*
X189716666Y-36577190D02*
X189692857Y-36601000D01*
X189692857Y-36601000D02*
X189621428Y-36624809D01*
X189621428Y-36624809D02*
X189573809Y-36624809D01*
X189573809Y-36624809D02*
X189502381Y-36601000D01*
X189502381Y-36601000D02*
X189454762Y-36553380D01*
X189454762Y-36553380D02*
X189430952Y-36505761D01*
X189430952Y-36505761D02*
X189407143Y-36410523D01*
X189407143Y-36410523D02*
X189407143Y-36339095D01*
X189407143Y-36339095D02*
X189430952Y-36243857D01*
X189430952Y-36243857D02*
X189454762Y-36196238D01*
X189454762Y-36196238D02*
X189502381Y-36148619D01*
X189502381Y-36148619D02*
X189573809Y-36124809D01*
X189573809Y-36124809D02*
X189621428Y-36124809D01*
X189621428Y-36124809D02*
X189692857Y-36148619D01*
X189692857Y-36148619D02*
X189716666Y-36172428D01*
X189883333Y-36124809D02*
X190216666Y-36124809D01*
X190216666Y-36124809D02*
X190002381Y-36624809D01*
D11*
X181933333Y-47154819D02*
X181600000Y-46678628D01*
X181361905Y-47154819D02*
X181361905Y-46154819D01*
X181361905Y-46154819D02*
X181742857Y-46154819D01*
X181742857Y-46154819D02*
X181838095Y-46202438D01*
X181838095Y-46202438D02*
X181885714Y-46250057D01*
X181885714Y-46250057D02*
X181933333Y-46345295D01*
X181933333Y-46345295D02*
X181933333Y-46488152D01*
X181933333Y-46488152D02*
X181885714Y-46583390D01*
X181885714Y-46583390D02*
X181838095Y-46631009D01*
X181838095Y-46631009D02*
X181742857Y-46678628D01*
X181742857Y-46678628D02*
X181361905Y-46678628D01*
X182266667Y-46154819D02*
X182885714Y-46154819D01*
X182885714Y-46154819D02*
X182552381Y-46535771D01*
X182552381Y-46535771D02*
X182695238Y-46535771D01*
X182695238Y-46535771D02*
X182790476Y-46583390D01*
X182790476Y-46583390D02*
X182838095Y-46631009D01*
X182838095Y-46631009D02*
X182885714Y-46726247D01*
X182885714Y-46726247D02*
X182885714Y-46964342D01*
X182885714Y-46964342D02*
X182838095Y-47059580D01*
X182838095Y-47059580D02*
X182790476Y-47107200D01*
X182790476Y-47107200D02*
X182695238Y-47154819D01*
X182695238Y-47154819D02*
X182409524Y-47154819D01*
X182409524Y-47154819D02*
X182314286Y-47107200D01*
X182314286Y-47107200D02*
X182266667Y-47059580D01*
D12*
X200716666Y-28572609D02*
X200550000Y-28334514D01*
X200430952Y-28572609D02*
X200430952Y-28072609D01*
X200430952Y-28072609D02*
X200621428Y-28072609D01*
X200621428Y-28072609D02*
X200669047Y-28096419D01*
X200669047Y-28096419D02*
X200692857Y-28120228D01*
X200692857Y-28120228D02*
X200716666Y-28167847D01*
X200716666Y-28167847D02*
X200716666Y-28239276D01*
X200716666Y-28239276D02*
X200692857Y-28286895D01*
X200692857Y-28286895D02*
X200669047Y-28310704D01*
X200669047Y-28310704D02*
X200621428Y-28334514D01*
X200621428Y-28334514D02*
X200430952Y-28334514D01*
X201002381Y-28286895D02*
X200954762Y-28263085D01*
X200954762Y-28263085D02*
X200930952Y-28239276D01*
X200930952Y-28239276D02*
X200907143Y-28191657D01*
X200907143Y-28191657D02*
X200907143Y-28167847D01*
X200907143Y-28167847D02*
X200930952Y-28120228D01*
X200930952Y-28120228D02*
X200954762Y-28096419D01*
X200954762Y-28096419D02*
X201002381Y-28072609D01*
X201002381Y-28072609D02*
X201097619Y-28072609D01*
X201097619Y-28072609D02*
X201145238Y-28096419D01*
X201145238Y-28096419D02*
X201169047Y-28120228D01*
X201169047Y-28120228D02*
X201192857Y-28167847D01*
X201192857Y-28167847D02*
X201192857Y-28191657D01*
X201192857Y-28191657D02*
X201169047Y-28239276D01*
X201169047Y-28239276D02*
X201145238Y-28263085D01*
X201145238Y-28263085D02*
X201097619Y-28286895D01*
X201097619Y-28286895D02*
X201002381Y-28286895D01*
X201002381Y-28286895D02*
X200954762Y-28310704D01*
X200954762Y-28310704D02*
X200930952Y-28334514D01*
X200930952Y-28334514D02*
X200907143Y-28382133D01*
X200907143Y-28382133D02*
X200907143Y-28477371D01*
X200907143Y-28477371D02*
X200930952Y-28524990D01*
X200930952Y-28524990D02*
X200954762Y-28548800D01*
X200954762Y-28548800D02*
X201002381Y-28572609D01*
X201002381Y-28572609D02*
X201097619Y-28572609D01*
X201097619Y-28572609D02*
X201145238Y-28548800D01*
X201145238Y-28548800D02*
X201169047Y-28524990D01*
X201169047Y-28524990D02*
X201192857Y-28477371D01*
X201192857Y-28477371D02*
X201192857Y-28382133D01*
X201192857Y-28382133D02*
X201169047Y-28334514D01*
X201169047Y-28334514D02*
X201145238Y-28310704D01*
X201145238Y-28310704D02*
X201097619Y-28286895D01*
D11*
X154757142Y-49354819D02*
X154423809Y-48878628D01*
X154185714Y-49354819D02*
X154185714Y-48354819D01*
X154185714Y-48354819D02*
X154566666Y-48354819D01*
X154566666Y-48354819D02*
X154661904Y-48402438D01*
X154661904Y-48402438D02*
X154709523Y-48450057D01*
X154709523Y-48450057D02*
X154757142Y-48545295D01*
X154757142Y-48545295D02*
X154757142Y-48688152D01*
X154757142Y-48688152D02*
X154709523Y-48783390D01*
X154709523Y-48783390D02*
X154661904Y-48831009D01*
X154661904Y-48831009D02*
X154566666Y-48878628D01*
X154566666Y-48878628D02*
X154185714Y-48878628D01*
X155709523Y-49354819D02*
X155138095Y-49354819D01*
X155423809Y-49354819D02*
X155423809Y-48354819D01*
X155423809Y-48354819D02*
X155328571Y-48497676D01*
X155328571Y-48497676D02*
X155233333Y-48592914D01*
X155233333Y-48592914D02*
X155138095Y-48640533D01*
X156090476Y-48450057D02*
X156138095Y-48402438D01*
X156138095Y-48402438D02*
X156233333Y-48354819D01*
X156233333Y-48354819D02*
X156471428Y-48354819D01*
X156471428Y-48354819D02*
X156566666Y-48402438D01*
X156566666Y-48402438D02*
X156614285Y-48450057D01*
X156614285Y-48450057D02*
X156661904Y-48545295D01*
X156661904Y-48545295D02*
X156661904Y-48640533D01*
X156661904Y-48640533D02*
X156614285Y-48783390D01*
X156614285Y-48783390D02*
X156042857Y-49354819D01*
X156042857Y-49354819D02*
X156661904Y-49354819D01*
D12*
X187716666Y-30124809D02*
X187550000Y-29886714D01*
X187430952Y-30124809D02*
X187430952Y-29624809D01*
X187430952Y-29624809D02*
X187621428Y-29624809D01*
X187621428Y-29624809D02*
X187669047Y-29648619D01*
X187669047Y-29648619D02*
X187692857Y-29672428D01*
X187692857Y-29672428D02*
X187716666Y-29720047D01*
X187716666Y-29720047D02*
X187716666Y-29791476D01*
X187716666Y-29791476D02*
X187692857Y-29839095D01*
X187692857Y-29839095D02*
X187669047Y-29862904D01*
X187669047Y-29862904D02*
X187621428Y-29886714D01*
X187621428Y-29886714D02*
X187430952Y-29886714D01*
X187907143Y-29672428D02*
X187930952Y-29648619D01*
X187930952Y-29648619D02*
X187978571Y-29624809D01*
X187978571Y-29624809D02*
X188097619Y-29624809D01*
X188097619Y-29624809D02*
X188145238Y-29648619D01*
X188145238Y-29648619D02*
X188169047Y-29672428D01*
X188169047Y-29672428D02*
X188192857Y-29720047D01*
X188192857Y-29720047D02*
X188192857Y-29767666D01*
X188192857Y-29767666D02*
X188169047Y-29839095D01*
X188169047Y-29839095D02*
X187883333Y-30124809D01*
X187883333Y-30124809D02*
X188192857Y-30124809D01*
D11*
X174138095Y-37054819D02*
X174138095Y-37864342D01*
X174138095Y-37864342D02*
X174185714Y-37959580D01*
X174185714Y-37959580D02*
X174233333Y-38007200D01*
X174233333Y-38007200D02*
X174328571Y-38054819D01*
X174328571Y-38054819D02*
X174519047Y-38054819D01*
X174519047Y-38054819D02*
X174614285Y-38007200D01*
X174614285Y-38007200D02*
X174661904Y-37959580D01*
X174661904Y-37959580D02*
X174709523Y-37864342D01*
X174709523Y-37864342D02*
X174709523Y-37054819D01*
X175090476Y-37054819D02*
X175709523Y-37054819D01*
X175709523Y-37054819D02*
X175376190Y-37435771D01*
X175376190Y-37435771D02*
X175519047Y-37435771D01*
X175519047Y-37435771D02*
X175614285Y-37483390D01*
X175614285Y-37483390D02*
X175661904Y-37531009D01*
X175661904Y-37531009D02*
X175709523Y-37626247D01*
X175709523Y-37626247D02*
X175709523Y-37864342D01*
X175709523Y-37864342D02*
X175661904Y-37959580D01*
X175661904Y-37959580D02*
X175614285Y-38007200D01*
X175614285Y-38007200D02*
X175519047Y-38054819D01*
X175519047Y-38054819D02*
X175233333Y-38054819D01*
X175233333Y-38054819D02*
X175138095Y-38007200D01*
X175138095Y-38007200D02*
X175090476Y-37959580D01*
X178804761Y-42950057D02*
X178709523Y-42902438D01*
X178709523Y-42902438D02*
X178614285Y-42807200D01*
X178614285Y-42807200D02*
X178471428Y-42664342D01*
X178471428Y-42664342D02*
X178376190Y-42616723D01*
X178376190Y-42616723D02*
X178280952Y-42616723D01*
X178328571Y-42854819D02*
X178233333Y-42807200D01*
X178233333Y-42807200D02*
X178138095Y-42711961D01*
X178138095Y-42711961D02*
X178090476Y-42521485D01*
X178090476Y-42521485D02*
X178090476Y-42188152D01*
X178090476Y-42188152D02*
X178138095Y-41997676D01*
X178138095Y-41997676D02*
X178233333Y-41902438D01*
X178233333Y-41902438D02*
X178328571Y-41854819D01*
X178328571Y-41854819D02*
X178519047Y-41854819D01*
X178519047Y-41854819D02*
X178614285Y-41902438D01*
X178614285Y-41902438D02*
X178709523Y-41997676D01*
X178709523Y-41997676D02*
X178757142Y-42188152D01*
X178757142Y-42188152D02*
X178757142Y-42521485D01*
X178757142Y-42521485D02*
X178709523Y-42711961D01*
X178709523Y-42711961D02*
X178614285Y-42807200D01*
X178614285Y-42807200D02*
X178519047Y-42854819D01*
X178519047Y-42854819D02*
X178328571Y-42854819D01*
X179709523Y-42854819D02*
X179138095Y-42854819D01*
X179423809Y-42854819D02*
X179423809Y-41854819D01*
X179423809Y-41854819D02*
X179328571Y-41997676D01*
X179328571Y-41997676D02*
X179233333Y-42092914D01*
X179233333Y-42092914D02*
X179138095Y-42140533D01*
X163314285Y-30169771D02*
X163114285Y-29884057D01*
X162971428Y-30169771D02*
X162971428Y-29569771D01*
X162971428Y-29569771D02*
X163199999Y-29569771D01*
X163199999Y-29569771D02*
X163257142Y-29598342D01*
X163257142Y-29598342D02*
X163285713Y-29626914D01*
X163285713Y-29626914D02*
X163314285Y-29684057D01*
X163314285Y-29684057D02*
X163314285Y-29769771D01*
X163314285Y-29769771D02*
X163285713Y-29826914D01*
X163285713Y-29826914D02*
X163257142Y-29855485D01*
X163257142Y-29855485D02*
X163199999Y-29884057D01*
X163199999Y-29884057D02*
X162971428Y-29884057D01*
X163885713Y-30169771D02*
X163542856Y-30169771D01*
X163714285Y-30169771D02*
X163714285Y-29569771D01*
X163714285Y-29569771D02*
X163657142Y-29655485D01*
X163657142Y-29655485D02*
X163599999Y-29712628D01*
X163599999Y-29712628D02*
X163542856Y-29741200D01*
X164257142Y-29569771D02*
X164314285Y-29569771D01*
X164314285Y-29569771D02*
X164371428Y-29598342D01*
X164371428Y-29598342D02*
X164400000Y-29626914D01*
X164400000Y-29626914D02*
X164428571Y-29684057D01*
X164428571Y-29684057D02*
X164457142Y-29798342D01*
X164457142Y-29798342D02*
X164457142Y-29941200D01*
X164457142Y-29941200D02*
X164428571Y-30055485D01*
X164428571Y-30055485D02*
X164400000Y-30112628D01*
X164400000Y-30112628D02*
X164371428Y-30141200D01*
X164371428Y-30141200D02*
X164314285Y-30169771D01*
X164314285Y-30169771D02*
X164257142Y-30169771D01*
X164257142Y-30169771D02*
X164200000Y-30141200D01*
X164200000Y-30141200D02*
X164171428Y-30112628D01*
X164171428Y-30112628D02*
X164142857Y-30055485D01*
X164142857Y-30055485D02*
X164114285Y-29941200D01*
X164114285Y-29941200D02*
X164114285Y-29798342D01*
X164114285Y-29798342D02*
X164142857Y-29684057D01*
X164142857Y-29684057D02*
X164171428Y-29626914D01*
X164171428Y-29626914D02*
X164200000Y-29598342D01*
X164200000Y-29598342D02*
X164257142Y-29569771D01*
X168933333Y-48654819D02*
X168600000Y-48178628D01*
X168361905Y-48654819D02*
X168361905Y-47654819D01*
X168361905Y-47654819D02*
X168742857Y-47654819D01*
X168742857Y-47654819D02*
X168838095Y-47702438D01*
X168838095Y-47702438D02*
X168885714Y-47750057D01*
X168885714Y-47750057D02*
X168933333Y-47845295D01*
X168933333Y-47845295D02*
X168933333Y-47988152D01*
X168933333Y-47988152D02*
X168885714Y-48083390D01*
X168885714Y-48083390D02*
X168838095Y-48131009D01*
X168838095Y-48131009D02*
X168742857Y-48178628D01*
X168742857Y-48178628D02*
X168361905Y-48178628D01*
X169790476Y-47654819D02*
X169600000Y-47654819D01*
X169600000Y-47654819D02*
X169504762Y-47702438D01*
X169504762Y-47702438D02*
X169457143Y-47750057D01*
X169457143Y-47750057D02*
X169361905Y-47892914D01*
X169361905Y-47892914D02*
X169314286Y-48083390D01*
X169314286Y-48083390D02*
X169314286Y-48464342D01*
X169314286Y-48464342D02*
X169361905Y-48559580D01*
X169361905Y-48559580D02*
X169409524Y-48607200D01*
X169409524Y-48607200D02*
X169504762Y-48654819D01*
X169504762Y-48654819D02*
X169695238Y-48654819D01*
X169695238Y-48654819D02*
X169790476Y-48607200D01*
X169790476Y-48607200D02*
X169838095Y-48559580D01*
X169838095Y-48559580D02*
X169885714Y-48464342D01*
X169885714Y-48464342D02*
X169885714Y-48226247D01*
X169885714Y-48226247D02*
X169838095Y-48131009D01*
X169838095Y-48131009D02*
X169790476Y-48083390D01*
X169790476Y-48083390D02*
X169695238Y-48035771D01*
X169695238Y-48035771D02*
X169504762Y-48035771D01*
X169504762Y-48035771D02*
X169409524Y-48083390D01*
X169409524Y-48083390D02*
X169361905Y-48131009D01*
X169361905Y-48131009D02*
X169314286Y-48226247D01*
X176557142Y-44454819D02*
X176223809Y-43978628D01*
X175985714Y-44454819D02*
X175985714Y-43454819D01*
X175985714Y-43454819D02*
X176366666Y-43454819D01*
X176366666Y-43454819D02*
X176461904Y-43502438D01*
X176461904Y-43502438D02*
X176509523Y-43550057D01*
X176509523Y-43550057D02*
X176557142Y-43645295D01*
X176557142Y-43645295D02*
X176557142Y-43788152D01*
X176557142Y-43788152D02*
X176509523Y-43883390D01*
X176509523Y-43883390D02*
X176461904Y-43931009D01*
X176461904Y-43931009D02*
X176366666Y-43978628D01*
X176366666Y-43978628D02*
X175985714Y-43978628D01*
X177509523Y-44454819D02*
X176938095Y-44454819D01*
X177223809Y-44454819D02*
X177223809Y-43454819D01*
X177223809Y-43454819D02*
X177128571Y-43597676D01*
X177128571Y-43597676D02*
X177033333Y-43692914D01*
X177033333Y-43692914D02*
X176938095Y-43740533D01*
X178366666Y-43788152D02*
X178366666Y-44454819D01*
X178128571Y-43407200D02*
X177890476Y-44121485D01*
X177890476Y-44121485D02*
X178509523Y-44121485D01*
D12*
X200716666Y-30072609D02*
X200550000Y-29834514D01*
X200430952Y-30072609D02*
X200430952Y-29572609D01*
X200430952Y-29572609D02*
X200621428Y-29572609D01*
X200621428Y-29572609D02*
X200669047Y-29596419D01*
X200669047Y-29596419D02*
X200692857Y-29620228D01*
X200692857Y-29620228D02*
X200716666Y-29667847D01*
X200716666Y-29667847D02*
X200716666Y-29739276D01*
X200716666Y-29739276D02*
X200692857Y-29786895D01*
X200692857Y-29786895D02*
X200669047Y-29810704D01*
X200669047Y-29810704D02*
X200621428Y-29834514D01*
X200621428Y-29834514D02*
X200430952Y-29834514D01*
X200883333Y-29572609D02*
X201216666Y-29572609D01*
X201216666Y-29572609D02*
X201002381Y-30072609D01*
D11*
X156538095Y-29554819D02*
X156538095Y-30364342D01*
X156538095Y-30364342D02*
X156585714Y-30459580D01*
X156585714Y-30459580D02*
X156633333Y-30507200D01*
X156633333Y-30507200D02*
X156728571Y-30554819D01*
X156728571Y-30554819D02*
X156919047Y-30554819D01*
X156919047Y-30554819D02*
X157014285Y-30507200D01*
X157014285Y-30507200D02*
X157061904Y-30459580D01*
X157061904Y-30459580D02*
X157109523Y-30364342D01*
X157109523Y-30364342D02*
X157109523Y-29554819D01*
X157728571Y-29983390D02*
X157633333Y-29935771D01*
X157633333Y-29935771D02*
X157585714Y-29888152D01*
X157585714Y-29888152D02*
X157538095Y-29792914D01*
X157538095Y-29792914D02*
X157538095Y-29745295D01*
X157538095Y-29745295D02*
X157585714Y-29650057D01*
X157585714Y-29650057D02*
X157633333Y-29602438D01*
X157633333Y-29602438D02*
X157728571Y-29554819D01*
X157728571Y-29554819D02*
X157919047Y-29554819D01*
X157919047Y-29554819D02*
X158014285Y-29602438D01*
X158014285Y-29602438D02*
X158061904Y-29650057D01*
X158061904Y-29650057D02*
X158109523Y-29745295D01*
X158109523Y-29745295D02*
X158109523Y-29792914D01*
X158109523Y-29792914D02*
X158061904Y-29888152D01*
X158061904Y-29888152D02*
X158014285Y-29935771D01*
X158014285Y-29935771D02*
X157919047Y-29983390D01*
X157919047Y-29983390D02*
X157728571Y-29983390D01*
X157728571Y-29983390D02*
X157633333Y-30031009D01*
X157633333Y-30031009D02*
X157585714Y-30078628D01*
X157585714Y-30078628D02*
X157538095Y-30173866D01*
X157538095Y-30173866D02*
X157538095Y-30364342D01*
X157538095Y-30364342D02*
X157585714Y-30459580D01*
X157585714Y-30459580D02*
X157633333Y-30507200D01*
X157633333Y-30507200D02*
X157728571Y-30554819D01*
X157728571Y-30554819D02*
X157919047Y-30554819D01*
X157919047Y-30554819D02*
X158014285Y-30507200D01*
X158014285Y-30507200D02*
X158061904Y-30459580D01*
X158061904Y-30459580D02*
X158109523Y-30364342D01*
X158109523Y-30364342D02*
X158109523Y-30173866D01*
X158109523Y-30173866D02*
X158061904Y-30078628D01*
X158061904Y-30078628D02*
X158014285Y-30031009D01*
X158014285Y-30031009D02*
X157919047Y-29983390D01*
X187238095Y-36989569D02*
X187238095Y-37799092D01*
X187238095Y-37799092D02*
X187285714Y-37894330D01*
X187285714Y-37894330D02*
X187333333Y-37941950D01*
X187333333Y-37941950D02*
X187428571Y-37989569D01*
X187428571Y-37989569D02*
X187619047Y-37989569D01*
X187619047Y-37989569D02*
X187714285Y-37941950D01*
X187714285Y-37941950D02*
X187761904Y-37894330D01*
X187761904Y-37894330D02*
X187809523Y-37799092D01*
X187809523Y-37799092D02*
X187809523Y-36989569D01*
X188809523Y-37989569D02*
X188238095Y-37989569D01*
X188523809Y-37989569D02*
X188523809Y-36989569D01*
X188523809Y-36989569D02*
X188428571Y-37132426D01*
X188428571Y-37132426D02*
X188333333Y-37227664D01*
X188333333Y-37227664D02*
X188238095Y-37275283D01*
X171961905Y-44654819D02*
X171961905Y-43654819D01*
X171961905Y-43654819D02*
X172200000Y-43654819D01*
X172200000Y-43654819D02*
X172342857Y-43702438D01*
X172342857Y-43702438D02*
X172438095Y-43797676D01*
X172438095Y-43797676D02*
X172485714Y-43892914D01*
X172485714Y-43892914D02*
X172533333Y-44083390D01*
X172533333Y-44083390D02*
X172533333Y-44226247D01*
X172533333Y-44226247D02*
X172485714Y-44416723D01*
X172485714Y-44416723D02*
X172438095Y-44511961D01*
X172438095Y-44511961D02*
X172342857Y-44607200D01*
X172342857Y-44607200D02*
X172200000Y-44654819D01*
X172200000Y-44654819D02*
X171961905Y-44654819D01*
X172914286Y-43750057D02*
X172961905Y-43702438D01*
X172961905Y-43702438D02*
X173057143Y-43654819D01*
X173057143Y-43654819D02*
X173295238Y-43654819D01*
X173295238Y-43654819D02*
X173390476Y-43702438D01*
X173390476Y-43702438D02*
X173438095Y-43750057D01*
X173438095Y-43750057D02*
X173485714Y-43845295D01*
X173485714Y-43845295D02*
X173485714Y-43940533D01*
X173485714Y-43940533D02*
X173438095Y-44083390D01*
X173438095Y-44083390D02*
X172866667Y-44654819D01*
X172866667Y-44654819D02*
X173485714Y-44654819D01*
X169038095Y-29454819D02*
X169038095Y-30264342D01*
X169038095Y-30264342D02*
X169085714Y-30359580D01*
X169085714Y-30359580D02*
X169133333Y-30407200D01*
X169133333Y-30407200D02*
X169228571Y-30454819D01*
X169228571Y-30454819D02*
X169419047Y-30454819D01*
X169419047Y-30454819D02*
X169514285Y-30407200D01*
X169514285Y-30407200D02*
X169561904Y-30359580D01*
X169561904Y-30359580D02*
X169609523Y-30264342D01*
X169609523Y-30264342D02*
X169609523Y-29454819D01*
X170514285Y-29788152D02*
X170514285Y-30454819D01*
X170276190Y-29407200D02*
X170038095Y-30121485D01*
X170038095Y-30121485D02*
X170657142Y-30121485D01*
D12*
X189716666Y-39077190D02*
X189692857Y-39101000D01*
X189692857Y-39101000D02*
X189621428Y-39124809D01*
X189621428Y-39124809D02*
X189573809Y-39124809D01*
X189573809Y-39124809D02*
X189502381Y-39101000D01*
X189502381Y-39101000D02*
X189454762Y-39053380D01*
X189454762Y-39053380D02*
X189430952Y-39005761D01*
X189430952Y-39005761D02*
X189407143Y-38910523D01*
X189407143Y-38910523D02*
X189407143Y-38839095D01*
X189407143Y-38839095D02*
X189430952Y-38743857D01*
X189430952Y-38743857D02*
X189454762Y-38696238D01*
X189454762Y-38696238D02*
X189502381Y-38648619D01*
X189502381Y-38648619D02*
X189573809Y-38624809D01*
X189573809Y-38624809D02*
X189621428Y-38624809D01*
X189621428Y-38624809D02*
X189692857Y-38648619D01*
X189692857Y-38648619D02*
X189716666Y-38672428D01*
X190002381Y-38839095D02*
X189954762Y-38815285D01*
X189954762Y-38815285D02*
X189930952Y-38791476D01*
X189930952Y-38791476D02*
X189907143Y-38743857D01*
X189907143Y-38743857D02*
X189907143Y-38720047D01*
X189907143Y-38720047D02*
X189930952Y-38672428D01*
X189930952Y-38672428D02*
X189954762Y-38648619D01*
X189954762Y-38648619D02*
X190002381Y-38624809D01*
X190002381Y-38624809D02*
X190097619Y-38624809D01*
X190097619Y-38624809D02*
X190145238Y-38648619D01*
X190145238Y-38648619D02*
X190169047Y-38672428D01*
X190169047Y-38672428D02*
X190192857Y-38720047D01*
X190192857Y-38720047D02*
X190192857Y-38743857D01*
X190192857Y-38743857D02*
X190169047Y-38791476D01*
X190169047Y-38791476D02*
X190145238Y-38815285D01*
X190145238Y-38815285D02*
X190097619Y-38839095D01*
X190097619Y-38839095D02*
X190002381Y-38839095D01*
X190002381Y-38839095D02*
X189954762Y-38862904D01*
X189954762Y-38862904D02*
X189930952Y-38886714D01*
X189930952Y-38886714D02*
X189907143Y-38934333D01*
X189907143Y-38934333D02*
X189907143Y-39029571D01*
X189907143Y-39029571D02*
X189930952Y-39077190D01*
X189930952Y-39077190D02*
X189954762Y-39101000D01*
X189954762Y-39101000D02*
X190002381Y-39124809D01*
X190002381Y-39124809D02*
X190097619Y-39124809D01*
X190097619Y-39124809D02*
X190145238Y-39101000D01*
X190145238Y-39101000D02*
X190169047Y-39077190D01*
X190169047Y-39077190D02*
X190192857Y-39029571D01*
X190192857Y-39029571D02*
X190192857Y-38934333D01*
X190192857Y-38934333D02*
X190169047Y-38886714D01*
X190169047Y-38886714D02*
X190145238Y-38862904D01*
X190145238Y-38862904D02*
X190097619Y-38839095D01*
D13*
%TO.C,J4*%
X174795000Y-64730000D02*
X174795000Y-63400000D01*
X176125000Y-64730000D02*
X174795000Y-64730000D01*
X177395000Y-62070000D02*
X179995000Y-62070000D01*
X177395000Y-64730000D02*
X177395000Y-62070000D01*
X177395000Y-64730000D02*
X179995000Y-64730000D01*
X179995000Y-64730000D02*
X179995000Y-62070000D01*
D14*
%TO.C,U7*%
X157240501Y-36531450D02*
X157240501Y-38538050D01*
X158528240Y-38538050D02*
X159254762Y-38538050D01*
X160542501Y-38538050D02*
X160542501Y-36531450D01*
%TO.C,Q2*%
X167849300Y-41054399D02*
X167849300Y-42067859D01*
X167849300Y-43292139D02*
X167849300Y-44305599D01*
X167849300Y-44305599D02*
X169500300Y-44305599D01*
X169500300Y-41054399D02*
X167849300Y-41054399D01*
X169500300Y-42982858D02*
X169500300Y-42377140D01*
X170046400Y-45448599D02*
G75*
G02*
X169792400Y-45448599I-127000J0D01*
G01*
X169792400Y-45448599D02*
G75*
G02*
X170046400Y-45448599I127000J0D01*
G01*
%TO.C,C4*%
X166819748Y-39827000D02*
X168404650Y-39827000D01*
X168404650Y-37973000D02*
X166819748Y-37973000D01*
%TO.C,C2*%
X153649049Y-39827000D02*
X155233951Y-39827000D01*
X155233951Y-37973000D02*
X153649049Y-37973000D01*
D15*
%TO.C,J3*%
X184800000Y-58500000D02*
X195000000Y-58500000D01*
X184800000Y-66200000D02*
X184800000Y-58500000D01*
X195000000Y-58500000D02*
X195000000Y-66200000D01*
X195000000Y-66200000D02*
X184800000Y-66200000D01*
D16*
X186600000Y-60700000D02*
G75*
G02*
X186400000Y-60700000I-100000J0D01*
G01*
X186400000Y-60700000D02*
G75*
G02*
X186600000Y-60700000I100000J0D01*
G01*
D14*
%TO.C,D4*%
X158014500Y-45311000D02*
X158014500Y-49665000D01*
X158014500Y-49665000D02*
X160868500Y-49665000D01*
X158806500Y-54523800D02*
X160076500Y-54523800D01*
X158806500Y-55285800D02*
X160076500Y-55285800D01*
X159441500Y-54269800D02*
X159441500Y-55539800D01*
X159441500Y-55285800D02*
X158806500Y-54523800D01*
X159441500Y-55285800D02*
X158933500Y-54523800D01*
X159441500Y-55285800D02*
X159060500Y-54523800D01*
X159441500Y-55285800D02*
X159187500Y-54523800D01*
X159441500Y-55285800D02*
X159314500Y-54523800D01*
X159441500Y-55285800D02*
X159568500Y-54523800D01*
X159441500Y-55285800D02*
X159695500Y-54523800D01*
X159441500Y-55285800D02*
X159822500Y-54523800D01*
X159441500Y-55285800D02*
X159949500Y-54523800D01*
X159441500Y-55285800D02*
X160076500Y-54523800D01*
X160868500Y-45311000D02*
X158014500Y-45311000D01*
X160868500Y-49665000D02*
X160868500Y-45311000D01*
%TO.C,D1*%
X184213000Y-44811000D02*
X184213000Y-49165000D01*
X184213000Y-49165000D02*
X187067000Y-49165000D01*
X185005000Y-54023800D02*
X186275000Y-54023800D01*
X185005000Y-54785800D02*
X186275000Y-54785800D01*
X185640000Y-53769800D02*
X185640000Y-55039800D01*
X185640000Y-54785800D02*
X185005000Y-54023800D01*
X185640000Y-54785800D02*
X185132000Y-54023800D01*
X185640000Y-54785800D02*
X185259000Y-54023800D01*
X185640000Y-54785800D02*
X185386000Y-54023800D01*
X185640000Y-54785800D02*
X185513000Y-54023800D01*
X185640000Y-54785800D02*
X185767000Y-54023800D01*
X185640000Y-54785800D02*
X185894000Y-54023800D01*
X185640000Y-54785800D02*
X186021000Y-54023800D01*
X185640000Y-54785800D02*
X186148000Y-54023800D01*
X185640000Y-54785800D02*
X186275000Y-54023800D01*
X187067000Y-44811000D02*
X184213000Y-44811000D01*
X187067000Y-49165000D02*
X187067000Y-44811000D01*
%TO.C,Q3*%
X192849300Y-41189399D02*
X192849300Y-42202859D01*
X192849300Y-43427139D02*
X192849300Y-44440599D01*
X192849300Y-44440599D02*
X194500300Y-44440599D01*
X194500300Y-41189399D02*
X192849300Y-41189399D01*
X194500300Y-43117858D02*
X194500300Y-42512140D01*
X195046400Y-45583599D02*
G75*
G02*
X194792400Y-45583599I-127000J0D01*
G01*
X194792400Y-45583599D02*
G75*
G02*
X195046400Y-45583599I127000J0D01*
G01*
%TO.C,J5*%
X151003000Y-24028400D02*
X151003000Y-26771600D01*
X151003000Y-26771600D02*
X202057000Y-26771600D01*
X202057000Y-24028400D02*
X151003000Y-24028400D01*
X202057000Y-26771600D02*
X202057000Y-24028400D01*
D17*
X149606000Y-25400000D02*
G75*
G02*
X148844000Y-25400000I-381000J0D01*
G01*
X148844000Y-25400000D02*
G75*
G02*
X149606000Y-25400000I381000J0D01*
G01*
D15*
%TO.C,J2*%
X157300000Y-58500000D02*
X167500000Y-58500000D01*
X157300000Y-66200000D02*
X157300000Y-58500000D01*
X167500000Y-58500000D02*
X167500000Y-66200000D01*
X167500000Y-66200000D02*
X157300000Y-66200000D01*
D16*
X159100000Y-60700000D02*
G75*
G02*
X158900000Y-60700000I-100000J0D01*
G01*
X158900000Y-60700000D02*
G75*
G02*
X159100000Y-60700000I100000J0D01*
G01*
D14*
%TO.C,U5*%
X195989000Y-36761950D02*
X195989000Y-38768550D01*
X197276739Y-38768550D02*
X198003261Y-38768550D01*
X199291000Y-38768550D02*
X199291000Y-36761950D01*
%TO.C,C3*%
X166847549Y-37327000D02*
X168432451Y-37327000D01*
X168432451Y-35473000D02*
X166847549Y-35473000D01*
%TO.C,C5*%
X179819748Y-37327000D02*
X181404650Y-37327000D01*
X181404650Y-35473000D02*
X179819748Y-35473000D01*
%TO.C,C6*%
X179819748Y-39827000D02*
X181404650Y-39827000D01*
X181404650Y-37973000D02*
X179819748Y-37973000D01*
%TO.C,Q4*%
X154581200Y-41274400D02*
X154581200Y-42287860D01*
X154581200Y-43512140D02*
X154581200Y-44525600D01*
X154581200Y-44525600D02*
X156232200Y-44525600D01*
X156232200Y-41274400D02*
X154581200Y-41274400D01*
X156232200Y-43202859D02*
X156232200Y-42597141D01*
X156778300Y-45668600D02*
G75*
G02*
X156524300Y-45668600I-127000J0D01*
G01*
X156524300Y-45668600D02*
G75*
G02*
X156778300Y-45668600I127000J0D01*
G01*
%TO.C,D3*%
X196213000Y-44811000D02*
X196213000Y-49165000D01*
X196213000Y-49165000D02*
X199067000Y-49165000D01*
X197005000Y-54023800D02*
X198275000Y-54023800D01*
X197005000Y-54785800D02*
X198275000Y-54785800D01*
X197640000Y-53769800D02*
X197640000Y-55039800D01*
X197640000Y-54785800D02*
X197005000Y-54023800D01*
X197640000Y-54785800D02*
X197132000Y-54023800D01*
X197640000Y-54785800D02*
X197259000Y-54023800D01*
X197640000Y-54785800D02*
X197386000Y-54023800D01*
X197640000Y-54785800D02*
X197513000Y-54023800D01*
X197640000Y-54785800D02*
X197767000Y-54023800D01*
X197640000Y-54785800D02*
X197894000Y-54023800D01*
X197640000Y-54785800D02*
X198021000Y-54023800D01*
X197640000Y-54785800D02*
X198148000Y-54023800D01*
X197640000Y-54785800D02*
X198275000Y-54023800D01*
X199067000Y-44811000D02*
X196213000Y-44811000D01*
X199067000Y-49165000D02*
X199067000Y-44811000D01*
%TO.C,R9*%
X192704900Y-48338400D02*
X192704900Y-54891600D01*
X192704900Y-54891600D02*
X195575100Y-54891600D01*
X195575100Y-48338400D02*
X192704900Y-48338400D01*
X195575100Y-54891600D02*
X195575100Y-48338400D01*
%TO.C,U2*%
X178766500Y-30855300D02*
X178766500Y-31036675D01*
X178766500Y-34763325D02*
X178766500Y-34944700D01*
X178766500Y-34944700D02*
X186513500Y-34944700D01*
X186513500Y-30855300D02*
X178766500Y-30855300D01*
X186513500Y-31036675D02*
X186513500Y-30855300D01*
X186513500Y-34944700D02*
X186513500Y-34763325D01*
%TO.C,C1*%
X153676850Y-37327000D02*
X155261752Y-37327000D01*
X155261752Y-35473000D02*
X153676850Y-35473000D01*
%TO.C,R13*%
X174023400Y-58064900D02*
X174023400Y-60935100D01*
X174023400Y-60935100D02*
X180576600Y-60935100D01*
X180576600Y-58064900D02*
X174023400Y-58064900D01*
X180576600Y-60935100D02*
X180576600Y-58064900D01*
%TO.C,U6*%
X191266500Y-30855300D02*
X191266500Y-31036675D01*
X191266500Y-34763325D02*
X191266500Y-34944700D01*
X191266500Y-34944700D02*
X199013500Y-34944700D01*
X199013500Y-30855300D02*
X191266500Y-30855300D01*
X199013500Y-31036675D02*
X199013500Y-30855300D01*
X199013500Y-34944700D02*
X199013500Y-34763325D01*
%TO.C,C7*%
X191819748Y-37327000D02*
X193404650Y-37327000D01*
X193404650Y-35473000D02*
X191819748Y-35473000D01*
%TO.C,R3*%
X180704900Y-47623400D02*
X180704900Y-54176600D01*
X180704900Y-54176600D02*
X183575100Y-54176600D01*
X183575100Y-47623400D02*
X180704900Y-47623400D01*
X183575100Y-54176600D02*
X183575100Y-47623400D01*
%TO.C,R12*%
X154006400Y-49838400D02*
X154006400Y-56391600D01*
X154006400Y-56391600D02*
X156876600Y-56391600D01*
X156876600Y-49838400D02*
X154006400Y-49838400D01*
X156876600Y-56391600D02*
X156876600Y-49838400D01*
%TO.C,U3*%
X170340499Y-36531450D02*
X170340499Y-38538050D01*
X171628238Y-38538050D02*
X172354760Y-38538050D01*
X173642499Y-38538050D02*
X173642499Y-36531450D01*
%TO.C,Q1*%
X180349300Y-40689399D02*
X180349300Y-41702859D01*
X180349300Y-42927139D02*
X180349300Y-43940599D01*
X180349300Y-43940599D02*
X182000300Y-43940599D01*
X182000300Y-40689399D02*
X180349300Y-40689399D01*
X182000300Y-42617858D02*
X182000300Y-42012140D01*
X182546400Y-45083599D02*
G75*
G02*
X182292400Y-45083599I-127000J0D01*
G01*
X182292400Y-45083599D02*
G75*
G02*
X182546400Y-45083599I127000J0D01*
G01*
%TO.C,R6*%
X167704900Y-49123400D02*
X167704900Y-55676600D01*
X167704900Y-55676600D02*
X170575100Y-55676600D01*
X170575100Y-49123400D02*
X167704900Y-49123400D01*
X170575100Y-55676600D02*
X170575100Y-49123400D01*
%TO.C,R14*%
X175664900Y-44823400D02*
X175664900Y-51376600D01*
X175664900Y-51376600D02*
X178535100Y-51376600D01*
X178535100Y-44823400D02*
X175664900Y-44823400D01*
X178535100Y-51376600D02*
X178535100Y-44823400D01*
%TO.C,U8*%
X153568000Y-30855300D02*
X153568000Y-31036675D01*
X153568000Y-34763325D02*
X153568000Y-34944700D01*
X153568000Y-34944700D02*
X161315000Y-34944700D01*
X161315000Y-30855300D02*
X153568000Y-30855300D01*
X161315000Y-31036675D02*
X161315000Y-30855300D01*
X161315000Y-34944700D02*
X161315000Y-34763325D01*
%TO.C,U1*%
X183439001Y-36531450D02*
X183439001Y-38538050D01*
X184726740Y-38538050D02*
X185453262Y-38538050D01*
X186741001Y-38538050D02*
X186741001Y-36531450D01*
%TO.C,D2*%
X171213000Y-45524500D02*
X171213000Y-49878500D01*
X171213000Y-49878500D02*
X174067000Y-49878500D01*
X172005000Y-54737300D02*
X173275000Y-54737300D01*
X172005000Y-55499300D02*
X173275000Y-55499300D01*
X172640000Y-54483300D02*
X172640000Y-55753300D01*
X172640000Y-55499300D02*
X172005000Y-54737300D01*
X172640000Y-55499300D02*
X172132000Y-54737300D01*
X172640000Y-55499300D02*
X172259000Y-54737300D01*
X172640000Y-55499300D02*
X172386000Y-54737300D01*
X172640000Y-55499300D02*
X172513000Y-54737300D01*
X172640000Y-55499300D02*
X172767000Y-54737300D01*
X172640000Y-55499300D02*
X172894000Y-54737300D01*
X172640000Y-55499300D02*
X173021000Y-54737300D01*
X172640000Y-55499300D02*
X173148000Y-54737300D01*
X172640000Y-55499300D02*
X173275000Y-54737300D01*
X174067000Y-45524500D02*
X171213000Y-45524500D01*
X174067000Y-49878500D02*
X174067000Y-45524500D01*
%TO.C,U4*%
X165869000Y-30855300D02*
X165869000Y-31036675D01*
X165869000Y-34763325D02*
X165869000Y-34944700D01*
X165869000Y-34944700D02*
X173616000Y-34944700D01*
X173616000Y-30855300D02*
X165869000Y-30855300D01*
X173616000Y-31036675D02*
X173616000Y-30855300D01*
X173616000Y-34944700D02*
X173616000Y-34763325D01*
%TO.C,J5*%
X151003000Y-67208400D02*
X151003000Y-69951600D01*
X151003000Y-69951600D02*
X202057000Y-69951600D01*
X202057000Y-67208400D02*
X151003000Y-67208400D01*
X202057000Y-69951600D02*
X202057000Y-67208400D01*
D17*
X149606000Y-68580000D02*
G75*
G02*
X148844000Y-68580000I-381000J0D01*
G01*
X148844000Y-68580000D02*
G75*
G02*
X149606000Y-68580000I381000J0D01*
G01*
D14*
%TO.C,C8*%
X191819748Y-39827000D02*
X193404650Y-39827000D01*
X193404650Y-37973000D02*
X191819748Y-37973000D01*
%TD*%
M02*
